<?xml version="1.0" encoding="UTF-8"?>
<!DOCTYPE svg PUBLIC "-//W3C//DTD SVG 1.1//EN" "http://www.w3.org/Graphics/SVG/1.1/DTD/svg11.dtd">
<svg xmlns="http://www.w3.org/2000/svg" version="1.1" width="420px" height="420px" style="shape-rendering:geometricPrecision; text-rendering:geometricPrecision; image-rendering:optimizeQuality; fill-rule:evenodd; clip-rule:evenodd" xmlns:xlink="http://www.w3.org/1999/xlink">
<g><path style="opacity:0.013" fill="#fefffe" d="M 119.5,36.5 C 125.987,35.346 132.654,35.1794 139.5,36C 132.842,36.4996 126.175,36.6663 119.5,36.5 Z"/></g>
<g><path style="opacity:0.008" fill="#fefffe" d="M 286.5,36.5 C 287.946,35.3871 289.613,35.2204 291.5,36C 289.866,36.4935 288.199,36.6602 286.5,36.5 Z"/></g>
<g><path style="opacity:0.011" fill="#fefffe" d="M 114.5,37.5 C 112.801,37.6602 111.134,37.4935 109.5,37C 111.387,36.2204 113.054,36.3871 114.5,37.5 Z"/></g>
<g><path style="opacity:0.01" fill="#fefffe" d="M 142.5,37.5 C 143.601,36.4017 144.934,36.235 146.5,37C 145.207,37.49 143.873,37.6567 142.5,37.5 Z"/></g>
<g><path style="opacity:0.013" fill="#fefffe" d="M 272.5,37.5 C 273.946,36.3871 275.613,36.2204 277.5,37C 275.866,37.4935 274.199,37.6602 272.5,37.5 Z"/></g>
<g><path style="opacity:0.012" fill="#fefffe" d="M 299.5,37.5 C 300.601,36.4017 301.934,36.235 303.5,37C 302.207,37.49 300.873,37.6567 299.5,37.5 Z"/></g>
<g><path style="opacity:0.012" fill="#fefffe" d="M 105.5,38.5 C 105.897,37.475 106.563,37.3083 107.5,38C 106.906,38.4643 106.239,38.631 105.5,38.5 Z"/></g>
<g><path style="opacity:0.978" fill="#fefefe" d="M 114.5,37.5 C 127.567,37.1319 140.567,37.7986 153.5,39.5C 158.617,41.537 163.95,43.2036 169.5,44.5C 174.977,47.4032 180.643,50.0698 186.5,52.5C 186.842,53.3382 187.508,53.6716 188.5,53.5C 188.973,54.9063 189.973,55.573 191.5,55.5C 192.29,56.4013 193.29,57.0679 194.5,57.5C 196.205,59.1921 198.205,60.5254 200.5,61.5C 202.531,63.5224 204.865,65.1891 207.5,66.5C 209.128,67.8528 210.462,67.5195 211.5,65.5C 212.5,65.1667 213.167,64.5 213.5,63.5C 215.027,63.573 216.027,62.9063 216.5,61.5C 219.135,60.1891 221.469,58.5224 223.5,56.5C 227.173,54.9998 230.506,52.9998 233.5,50.5C 234.492,50.6716 235.158,50.3382 235.5,49.5C 239.787,48.3517 243.787,46.685 247.5,44.5C 248.791,44.7373 249.791,44.404 250.5,43.5C 251.791,43.7373 252.791,43.404 253.5,42.5C 256.152,42.5905 258.485,41.9238 260.5,40.5C 287.18,35.205 313.18,37.5384 338.5,47.5C 339.78,48.9313 341.447,49.5979 343.5,49.5C 343.842,50.3382 344.508,50.6716 345.5,50.5C 345.842,51.3382 346.508,51.6716 347.5,51.5C 347.973,52.9063 348.973,53.573 350.5,53.5C 350.842,54.3382 351.508,54.6716 352.5,54.5C 352.973,55.9063 353.973,56.573 355.5,56.5C 357.531,58.5224 359.865,60.1891 362.5,61.5C 363.945,63.0627 365.611,64.396 367.5,65.5C 371.474,69.1384 375.474,72.8051 379.5,76.5C 380.757,79.4274 382.757,81.7607 385.5,83.5C 385.738,85.4044 386.738,86.7377 388.5,87.5C 388.427,89.0269 389.094,90.0269 390.5,90.5C 390.427,92.0269 391.094,93.0269 392.5,93.5C 392.328,94.4916 392.662,95.1583 393.5,95.5C 393.427,97.0269 394.094,98.0269 395.5,98.5C 396.659,102.151 398.326,105.485 400.5,108.5C 400.328,109.492 400.662,110.158 401.5,110.5C 401.402,112.553 402.069,114.22 403.5,115.5C 403.328,116.492 403.662,117.158 404.5,117.5C 404.263,118.791 404.596,119.791 405.5,120.5C 406.261,124.784 407.595,128.784 409.5,132.5C 410.057,137.052 411.057,141.385 412.5,145.5C 413.77,157.171 413.77,168.838 412.5,180.5C 411.343,183.273 410.676,186.273 410.5,189.5C 409.076,191.515 408.41,193.848 408.5,196.5C 407.596,197.209 407.263,198.209 407.5,199.5C 406.596,200.209 406.263,201.209 406.5,202.5C 405.069,203.78 404.402,205.447 404.5,207.5C 403.662,207.842 403.328,208.508 403.5,209.5C 402.069,210.78 401.402,212.447 401.5,214.5C 400.662,214.842 400.328,215.508 400.5,216.5C 399.662,216.842 399.328,217.508 399.5,218.5C 397.75,219.659 396.75,221.326 396.5,223.5C 395.662,223.842 395.328,224.508 395.5,225.5C 394.833,225.5 394.5,225.833 394.5,226.5C 393.662,226.842 393.328,227.508 393.5,228.5C 392.094,228.973 391.427,229.973 391.5,231.5C 390.833,231.5 390.5,231.833 390.5,232.5C 389.094,232.973 388.427,233.973 388.5,235.5C 387.833,235.5 387.5,235.833 387.5,236.5C 386.094,236.973 385.427,237.973 385.5,239.5C 384.833,239.5 384.5,239.833 384.5,240.5C 383.833,240.5 383.5,240.833 383.5,241.5C 382.833,241.5 382.5,241.833 382.5,242.5C 381.833,242.5 381.5,242.833 381.5,243.5C 380.833,243.5 380.5,243.833 380.5,244.5C 373.775,250.223 367.775,256.556 362.5,263.5C 361.833,263.5 361.5,263.833 361.5,264.5C 360.833,264.5 360.5,264.833 360.5,265.5C 359.094,265.973 358.427,266.973 358.5,268.5C 357.094,268.973 356.427,269.973 356.5,271.5C 355.833,271.5 355.5,271.833 355.5,272.5C 354.833,272.5 354.5,272.833 354.5,273.5C 352.246,274.124 350.579,275.457 349.5,277.5C 348.833,277.5 348.5,277.833 348.5,278.5C 347.508,278.328 346.842,278.662 346.5,279.5C 345.508,279.328 344.842,279.662 344.5,280.5C 343.508,280.328 342.842,280.662 342.5,281.5C 340.214,281.595 338.214,282.262 336.5,283.5C 334.5,283.5 332.5,283.5 330.5,283.5C 330.5,285.5 330.5,287.5 330.5,289.5C 328.928,292.215 327.928,295.215 327.5,298.5C 326.662,298.842 326.328,299.508 326.5,300.5C 325.833,300.5 325.5,300.833 325.5,301.5C 324.662,301.842 324.328,302.508 324.5,303.5C 323.833,303.5 323.5,303.833 323.5,304.5C 322.833,304.5 322.5,304.833 322.5,305.5C 321.833,305.5 321.5,305.833 321.5,306.5C 320.833,306.5 320.5,306.833 320.5,307.5C 319.833,307.5 319.5,307.833 319.5,308.5C 318.508,308.328 317.842,308.662 317.5,309.5C 315.181,309.992 313.181,310.992 311.5,312.5C 307.812,313.172 304.145,314.005 300.5,315C 299.577,317.041 299.244,319.208 299.5,321.5C 298.262,323.214 297.595,325.214 297.5,327.5C 296.662,327.842 296.328,328.508 296.5,329.5C 295.662,329.842 295.328,330.508 295.5,331.5C 294.833,331.5 294.5,331.833 294.5,332.5C 293.094,332.973 292.427,333.973 292.5,335.5C 291.833,335.5 291.5,335.833 291.5,336.5C 290.833,336.5 290.5,336.833 290.5,337.5C 289.833,337.5 289.5,337.833 289.5,338.5C 287.973,338.427 286.973,339.094 286.5,340.5C 285.508,340.328 284.842,340.662 284.5,341.5C 283.508,341.328 282.842,341.662 282.5,342.5C 280.447,342.402 278.78,343.069 277.5,344.5C 276.209,344.263 275.209,344.596 274.5,345.5C 272.345,345.372 270.345,345.872 268.5,347C 270.932,348.087 270.598,348.587 267.5,348.5C 267.249,352.249 266.583,355.915 265.5,359.5C 264.662,359.842 264.328,360.508 264.5,361.5C 263.094,361.973 262.427,362.973 262.5,364.5C 261.833,364.5 261.5,364.833 261.5,365.5C 259.5,366.833 257.833,368.5 256.5,370.5C 255.833,370.5 255.5,370.833 255.5,371.5C 254.833,371.5 254.5,371.833 254.5,372.5C 253.508,372.328 252.842,372.662 252.5,373.5C 251.508,373.328 250.842,373.662 250.5,374.5C 249.508,374.328 248.842,374.662 248.5,375.5C 247.209,375.263 246.209,375.596 245.5,376.5C 238.012,377.805 230.678,377.138 223.5,374.5C 223.027,373.094 222.027,372.427 220.5,372.5C 219.738,370.738 218.404,369.738 216.5,369.5C 214.628,366.418 212.295,363.751 209.5,361.5C 207.157,358.793 204.823,356.126 202.5,353.5C 199.905,353.04 198.238,354.374 197.5,357.5C 196.833,357.5 196.5,357.833 196.5,358.5C 195.833,358.5 195.5,358.833 195.5,359.5C 194.833,359.5 194.5,359.833 194.5,360.5C 193.167,360.833 193.167,361.167 194.5,361.5C 194.167,362.5 193.5,363.167 192.5,363.5C 192.167,362.167 191.833,362.167 191.5,363.5C 190.833,363.5 190.5,363.833 190.5,364.5C 189.833,364.5 189.5,364.833 189.5,365.5C 188.833,365.5 188.5,365.833 188.5,366.5C 187.833,366.5 187.5,366.833 187.5,367.5C 186.508,367.328 185.842,367.662 185.5,368.5C 184.833,368.5 184.5,368.833 184.5,369.5C 183.508,369.328 182.842,369.662 182.5,370.5C 181.508,370.328 180.842,370.662 180.5,371.5C 179.209,371.263 178.209,371.596 177.5,372.5C 171.833,373.833 166.167,373.833 160.5,372.5C 159.791,371.596 158.791,371.263 157.5,371.5C 155.819,369.992 153.819,368.992 151.5,368.5C 151.027,367.094 150.027,366.427 148.5,366.5C 146.471,364.142 144.471,361.808 142.5,359.5C 142.008,357.181 141.008,355.181 139.5,353.5C 139.11,350.161 138.61,346.827 138,343.5C 135.435,341.821 132.602,341.154 129.5,341.5C 128.791,340.596 127.791,340.263 126.5,340.5C 126.158,339.662 125.492,339.328 124.5,339.5C 123.486,338.326 122.153,337.66 120.5,337.5C 119.738,335.738 118.404,334.738 116.5,334.5C 115.396,332.611 114.063,330.945 112.5,329.5C 112.068,328.29 111.401,327.29 110.5,326.5C 110.34,324.847 109.674,323.514 108.5,322.5C 108.737,321.209 108.404,320.209 107.5,319.5C 107.649,316.393 107.149,313.393 106,310.5C 105.667,310.833 105.333,311.167 105,311.5C 101.208,310.404 97.3748,309.404 93.5,308.5C 92.4863,307.326 91.153,306.66 89.5,306.5C 89.0269,305.094 88.0269,304.427 86.5,304.5C 84.4707,302.142 82.4707,299.808 80.5,297.5C 78.8139,293.424 77.1472,289.424 75.5,285.5C 75.5,283.5 75.5,281.5 75.5,279.5C 72.8333,279.5 70.1667,279.5 67.5,279.5C 66.791,278.596 65.791,278.263 64.5,278.5C 61.669,276.583 58.669,274.917 55.5,273.5C 53.4707,271.142 51.4707,268.808 49.5,266.5C 49.0679,265.29 48.4013,264.29 47.5,263.5C 46.871,260.603 45.871,257.936 44.5,255.5C 44.7373,254.209 44.404,253.209 43.5,252.5C 42.9202,250.251 41.5869,248.585 39.5,247.5C 36.8046,244.474 34.1379,241.474 31.5,238.5C 30.396,236.611 29.0627,234.945 27.5,233.5C 27.0679,232.29 26.4013,231.29 25.5,230.5C 25.0679,229.29 24.4013,228.29 23.5,227.5C 23.0679,226.29 22.4013,225.29 21.5,224.5C 21.573,222.973 20.9063,221.973 19.5,221.5C 19.6716,220.508 19.3382,219.842 18.5,219.5C 18.6716,218.508 18.3382,217.842 17.5,217.5C 16.6743,214.515 15.341,211.849 13.5,209.5C 13.5979,207.447 12.9313,205.78 11.5,204.5C 11.7373,203.209 11.404,202.209 10.5,201.5C 10.0719,198.215 9.07191,195.215 7.5,192.5C 6.94341,187.948 5.94341,183.615 4.5,179.5C 3.22698,165.803 3.56031,152.136 5.5,138.5C 6.45115,137.081 6.78448,135.415 6.5,133.5C 7.7682,131.095 8.43487,128.428 8.5,125.5C 9.73838,123.786 10.405,121.786 10.5,119.5C 11.404,118.791 11.7373,117.791 11.5,116.5C 12.9313,115.22 13.5979,113.553 13.5,111.5C 15.2927,109.574 16.2927,107.241 16.5,104.5C 27.3535,84.6454 42.3535,68.6454 61.5,56.5C 63.0269,56.573 64.0269,55.9063 64.5,54.5C 71.0236,51.7365 77.357,48.7365 83.5,45.5C 84.791,45.7373 85.791,45.404 86.5,44.5C 89.7846,44.0719 92.7846,43.0719 95.5,41.5C 98.4282,41.4349 101.095,40.7682 103.5,39.5C 107.387,39.3541 111.054,38.6874 114.5,37.5 Z M 216.5,61.5 C 216.027,62.9063 215.027,63.573 213.5,63.5C 213.973,62.0937 214.973,61.427 216.5,61.5 Z M 211.5,65.5 C 210.462,67.5195 209.128,67.8528 207.5,66.5C 208.833,66.1667 210.167,65.8333 211.5,65.5 Z"/></g>
<g><path style="opacity:0.01" fill="#fefffe" d="M 149.5,38.5 C 150.251,37.4265 151.251,37.2599 152.5,38C 151.552,38.4828 150.552,38.6495 149.5,38.5 Z"/></g>
<g><path style="opacity:0.016" fill="#fefffe" d="M 267.5,38.5 C 267.897,37.475 268.563,37.3083 269.5,38C 268.906,38.4643 268.239,38.631 267.5,38.5 Z"/></g>
<g><path style="opacity:0.01" fill="#fefffe" d="M 307.5,38.5 C 308.251,37.4265 309.251,37.2599 310.5,38C 309.552,38.4828 308.552,38.6495 307.5,38.5 Z"/></g>
<g><path style="opacity:0.01" fill="#fefffe" d="M 103.5,39.5 C 102.448,39.6495 101.448,39.4828 100.5,39C 101.749,38.2599 102.749,38.4265 103.5,39.5 Z"/></g>
<g><path style="opacity:0.012" fill="#fefffe" d="M 153.5,39.5 C 153.897,38.475 154.563,38.3083 155.5,39C 154.906,39.4643 154.239,39.631 153.5,39.5 Z"/></g>
<g><path style="opacity:0.01" fill="#fefffe" d="M 261.5,39.5 C 262.251,38.4265 263.251,38.2599 264.5,39C 263.552,39.4828 262.552,39.6495 261.5,39.5 Z"/></g>
<g><path style="opacity:0.012" fill="#fefffe" d="M 313.5,39.5 C 313.897,38.475 314.563,38.3083 315.5,39C 314.906,39.4643 314.239,39.631 313.5,39.5 Z"/></g>
<g><path style="opacity:0.012" fill="#fefffe" d="M 96.5,40.5 C 96.8966,39.475 97.5632,39.3083 98.5,40C 97.9056,40.4643 97.2389,40.631 96.5,40.5 Z"/></g>
<g><path style="opacity:0.008" fill="#fefffe" d="M 157.5,40.5 C 158.251,39.4265 159.251,39.2599 160.5,40C 159.552,40.4828 158.552,40.6495 157.5,40.5 Z"/></g>
<g><path style="opacity:0.012" fill="#fefffe" d="M 260.5,40.5 C 259.761,40.631 259.094,40.4643 258.5,40C 259.437,39.3083 260.103,39.475 260.5,40.5 Z"/></g>
<g><path style="opacity:0.01" fill="#fefffe" d="M 317.5,40.5 C 318.251,39.4265 319.251,39.2599 320.5,40C 319.552,40.4828 318.552,40.6495 317.5,40.5 Z"/></g>
<g><path style="opacity:0.012" fill="#fefffe" d="M 95.5,41.5 C 94.7611,41.631 94.0944,41.4643 93.5,41C 94.4368,40.3083 95.1034,40.475 95.5,41.5 Z"/></g>
<g><path style="opacity:0.016" fill="#fefffe" d="M 161.5,40.5 C 162.833,41.1667 162.833,41.1667 161.5,40.5 Z"/></g>
<g><path style="opacity:0.012" fill="#fefffe" d="M 254.5,41.5 C 254.897,40.475 255.563,40.3083 256.5,41C 255.906,41.4643 255.239,41.631 254.5,41.5 Z"/></g>
<g><path style="opacity:0.012" fill="#fefffe" d="M 321.5,41.5 C 321.897,40.475 322.563,40.3083 323.5,41C 322.906,41.4643 322.239,41.631 321.5,41.5 Z"/></g>
<g><path style="opacity:0.016" fill="#fefffe" d="M 90.5,41.5 C 91.8333,42.1667 91.8333,42.1667 90.5,41.5 Z"/></g>
<g><path style="opacity:0.012" fill="#fefffe" d="M 164.5,42.5 C 164.897,41.475 165.563,41.3083 166.5,42C 165.906,42.4643 165.239,42.631 164.5,42.5 Z"/></g>
<g><path style="opacity:0.008" fill="#fefffe" d="M 253.5,42.5 C 252.761,42.631 252.094,42.4643 251.5,42C 252.437,41.3083 253.103,41.475 253.5,42.5 Z"/></g>
<g><path style="opacity:0.016" fill="#fefffe" d="M 325.5,41.5 C 326.833,42.1667 326.833,42.1667 325.5,41.5 Z"/></g>
<g><path style="opacity:0.016" fill="#fefffe" d="M 87.5,42.5 C 88.8333,43.1667 88.8333,43.1667 87.5,42.5 Z"/></g>
<g><path style="opacity:0.016" fill="#fefffe" d="M 167.5,42.5 C 168.833,43.1667 168.833,43.1667 167.5,42.5 Z"/></g>
<g><path style="opacity:0.008" fill="#fefffe" d="M 250.5,43.5 C 249.761,43.631 249.094,43.4643 248.5,43C 249.437,42.3083 250.103,42.475 250.5,43.5 Z"/></g>
<g><path style="opacity:0.016" fill="#fefffe" d="M 328.5,42.5 C 329.833,43.1667 329.833,43.1667 328.5,42.5 Z"/></g>
<g><path style="opacity:0.008" fill="#fefffe" d="M 86.5,44.5 C 85.7611,44.631 85.0944,44.4643 84.5,44C 85.4368,43.3083 86.1034,43.475 86.5,44.5 Z"/></g>
<g><path style="opacity:0.008" fill="#fefffe" d="M 169.5,44.5 C 169.897,43.475 170.563,43.3083 171.5,44C 170.906,44.4643 170.239,44.631 169.5,44.5 Z"/></g>
<g><path style="opacity:0.008" fill="#fefffe" d="M 247.5,44.5 C 246.761,44.631 246.094,44.4643 245.5,44C 246.437,43.3083 247.103,43.475 247.5,44.5 Z"/></g>
<g><path style="opacity:0.016" fill="#fefffe" d="M 331.5,43.5 C 332.833,44.1667 332.833,44.1667 331.5,43.5 Z"/></g>
<g><path style="opacity:0.008" fill="#fefffe" d="M 83.5,45.5 C 82.7611,45.631 82.0944,45.4643 81.5,45C 82.4368,44.3083 83.1034,44.475 83.5,45.5 Z"/></g>
<g><path style="opacity:0.016" fill="#fefffe" d="M 172.5,44.5 C 173.833,45.1667 173.833,45.1667 172.5,44.5 Z"/></g>
<g><path style="opacity:0.016" fill="#fefffe" d="M 243.5,44.5 C 244.833,45.1667 244.833,45.1667 243.5,44.5 Z"/></g>
<g><path style="opacity:0.008" fill="#fefffe" d="M 334.5,44.5 C 335.833,45.1667 335.833,45.1667 334.5,44.5 Z"/></g>
<g><path style="opacity:0.008" fill="#fefffe" d="M 79.5,45.5 C 80.8333,46.1667 80.8333,46.1667 79.5,45.5 Z"/></g>
<g><path style="opacity:0.008" fill="#fefffe" d="M 338.5,47.5 C 338.897,46.475 339.563,46.3083 340.5,47C 339.906,47.4643 339.239,47.631 338.5,47.5 Z"/></g>
<g><path style="opacity:0.008" fill="#fefffe" d="M 236.5,47.5 C 237.833,48.1667 237.833,48.1667 236.5,47.5 Z"/></g>
<g><path style="opacity:0.008" fill="#fefffe" d="M 341.5,47.5 C 342.833,48.1667 342.833,48.1667 341.5,47.5 Z"/></g>
<g><path style="opacity:0.016" fill="#fefffe" d="M 235.5,49.5 C 234.833,48.1667 234.833,48.1667 235.5,49.5 Z"/></g>
<g><path style="opacity:0.008" fill="#fefffe" d="M 343.5,48.5 C 344.833,49.1667 344.833,49.1667 343.5,48.5 Z"/></g>
<g><path style="opacity:0.008" fill="#fefffe" d="M 233.5,50.5 C 232.833,49.1667 232.833,49.1667 233.5,50.5 Z"/></g>
<g><path style="opacity:0.008" fill="#fefffe" d="M 345.5,49.5 C 346.833,50.1667 346.833,50.1667 345.5,49.5 Z"/></g>
<g><path style="opacity:0.008" fill="#fefffe" d="M 230.5,50.5 C 231.833,51.1667 231.833,51.1667 230.5,50.5 Z"/></g>
<g><path style="opacity:0.008" fill="#fefffe" d="M 347.5,50.5 C 348.833,51.1667 348.833,51.1667 347.5,50.5 Z"/></g>
<g><path style="opacity:0.016" fill="#fefffe" d="M 186.5,51.5 C 187.833,52.1667 187.833,52.1667 186.5,51.5 Z"/></g>
<g><path style="opacity:0.008" fill="#fefffe" d="M 350.5,52.5 C 349.833,51.1667 349.833,51.1667 350.5,52.5 Z"/></g>
<g><path style="opacity:0.016" fill="#fefffe" d="M 188.5,52.5 C 189.833,53.1667 189.833,53.1667 188.5,52.5 Z"/></g>
<g><path style="opacity:0.008" fill="#fefffe" d="M 350.5,52.5 C 351.833,53.1667 351.833,53.1667 350.5,52.5 Z"/></g>
<g><path style="opacity:0.016" fill="#fefffe" d="M 64.5,54.5 C 63.8333,53.1667 63.8333,53.1667 64.5,54.5 Z"/></g>
<g><path style="opacity:0.008" fill="#fefffe" d="M 191.5,54.5 C 190.833,53.1667 190.833,53.1667 191.5,54.5 Z"/></g>
<g><path style="opacity:0.016" fill="#fefffe" d="M 352.5,53.5 C 353.833,54.1667 353.833,54.1667 352.5,53.5 Z"/></g>
<g><path style="opacity:0.008" fill="#fefffe" d="M 61.5,54.5 C 62.8333,55.1667 62.8333,55.1667 61.5,54.5 Z"/></g>
<g><path style="opacity:1" fill="#74beb2" d="M 110.5,54.5 C 143.122,50.9359 171.788,59.6026 196.5,80.5C 179.847,97.6528 163.014,114.653 146,131.5C 134.177,149.835 136.344,166.335 152.5,181C 160.742,186.241 169.742,187.908 179.5,186C 183.385,185.261 187.052,183.927 190.5,182C 206.287,168.049 221.62,153.549 236.5,138.5C 271.82,173.32 306.986,208.32 342,243.5C 347.888,252.899 346.055,260.399 336.5,266C 331.56,267.041 326.894,266.374 322.5,264C 300.5,242 278.5,220 256.5,198C 249.425,194.871 245.091,197.037 243.5,204.5C 243.622,206.791 244.455,208.791 246,210.5C 268,232.5 290,254.5 312,276.5C 316.061,285.317 313.894,292.15 305.5,297C 300.56,298.041 295.894,297.374 291.5,295C 269.472,272.638 247.139,250.638 224.5,229C 220.001,226.633 216.168,227.467 213,231.5C 212.21,234.634 212.543,237.634 214,240.5C 237.028,263.195 259.695,286.195 282,309.5C 284.478,320.676 280.145,327.342 269,329.5C 265.093,328.964 261.593,327.464 258.5,325C 235.472,301.638 212.139,278.638 188.5,256C 183.903,253.46 180.07,254.293 177,258.5C 176.245,261.303 176.578,263.97 178,266.5C 201.305,290.805 224.972,314.805 249,338.5C 253.938,350.955 249.771,358.289 236.5,360.5C 234.366,360.485 232.366,359.985 230.5,359C 224.365,353.866 218.531,348.366 213,342.5C 212.077,340.966 211.577,339.299 211.5,337.5C 214.29,315.236 204.623,302.402 182.5,299C 179.908,280.241 169.241,269.741 150.5,267.5C 148.528,248.861 138.195,238.528 119.5,236.5C 116.604,214.763 104.271,204.596 82.5,206C 78.7143,207.393 75.0477,209.059 71.5,211C 64.1667,217.667 56.8333,224.333 49.5,231C 48.8333,231.667 48.1667,231.667 47.5,231C 26.4621,207.549 17.6287,180.049 21,148.5C 26.7018,106.897 48.8684,78.0641 87.5,62C 95.1188,58.9595 102.785,56.4595 110.5,54.5 Z"/></g>
<g><path style="opacity:0.016" fill="#fefffe" d="M 191.5,54.5 C 192.833,55.1667 192.833,55.1667 191.5,54.5 Z"/></g>
<g><path style="opacity:0.008" fill="#fefffe" d="M 223.5,54.5 C 224.833,55.1667 224.833,55.1667 223.5,54.5 Z"/></g>
<g><path style="opacity:1" fill="#fbed2f" d="M 275.5,54.5 C 340.848,51.6992 381.014,82.0326 396,145.5C 399.166,183.009 387.5,215.009 361,241.5C 320.014,199.347 278.514,157.681 236.5,116.5C 218.985,133.848 201.319,151.015 183.5,168C 172.313,174.267 163.146,172.1 156,161.5C 153.737,154.995 154.071,148.662 157,142.5C 177.167,122.333 197.333,102.167 217.5,82C 234.439,67.6962 253.772,58.5296 275.5,54.5 Z"/></g>
<g><path style="opacity:0.008" fill="#fefffe" d="M 355.5,55.5 C 354.833,54.1667 354.833,54.1667 355.5,55.5 Z"/></g>
<g><path style="opacity:0.008" fill="#fefffe" d="M 61.5,55.5 C 61.5,55.8333 61.5,56.1667 61.5,56.5C 60.8299,56.0187 60.8299,55.6853 61.5,55.5 Z"/></g>
<g><path style="opacity:0.016" fill="#fefffe" d="M 223.5,55.5 C 223.5,55.8333 223.5,56.1667 223.5,56.5C 222.83,56.0187 222.83,55.6853 223.5,55.5 Z"/></g>
<g><path style="opacity:0.016" fill="#fefffe" d="M 355.5,55.5 C 356.833,56.1667 356.833,56.1667 355.5,55.5 Z"/></g>
<g><path style="opacity:0.008" fill="#fefffe" d="M 194.5,56.5 C 195.833,57.1667 195.833,57.1667 194.5,56.5 Z"/></g>
<g><path style="opacity:0.008" fill="#fefffe" d="M 357.5,56.5 C 358.833,57.1667 358.833,57.1667 357.5,56.5 Z"/></g>
<g><path style="opacity:0.008" fill="#fefffe" d="M 217.5,58.5 C 218.833,59.1667 218.833,59.1667 217.5,58.5 Z"/></g>
<g><path style="opacity:0.008" fill="#fefffe" d="M 200.5,60.5 C 201.833,61.1667 201.833,61.1667 200.5,60.5 Z"/></g>
<g><path style="opacity:0.008" fill="#fefffe" d="M 362.5,60.5 C 363.833,61.1667 363.833,61.1667 362.5,60.5 Z"/></g>
<g><path style="opacity:0.008" fill="#fefffe" d="M 364.5,61.5 C 365.833,62.1667 365.833,62.1667 364.5,61.5 Z"/></g>
<g><path style="opacity:0.008" fill="#fefffe" d="M 49.5,62.5 C 50.8333,63.1667 50.8333,63.1667 49.5,62.5 Z"/></g>
<g><path style="opacity:0.016" fill="#fefffe" d="M 367.5,64.5 C 368.833,65.1667 368.833,65.1667 367.5,64.5 Z"/></g>
<g><path style="opacity:0.008" fill="#fefffe" d="M 370.5,66.5 C 371.833,67.1667 371.833,67.1667 370.5,66.5 Z"/></g>
<g><path style="opacity:0.008" fill="#fefffe" d="M 43.5,67.5 C 44.8333,68.1667 44.8333,68.1667 43.5,67.5 Z"/></g>
<g><path style="opacity:0.008" fill="#fefffe" d="M 380.5,76.5 C 379.833,75.1667 379.833,75.1667 380.5,76.5 Z"/></g>
<g><path style="opacity:0.008" fill="#fefffe" d="M 380.5,76.5 C 381.833,77.1667 381.833,77.1667 380.5,76.5 Z"/></g>
<g><path style="opacity:0.008" fill="#fefffe" d="M 30.5,80.5 C 31.8333,81.1667 31.8333,81.1667 30.5,80.5 Z"/></g>
<g><path style="opacity:0.008" fill="#fefffe" d="M 385.5,82.5 C 386.833,83.1667 386.833,83.1667 385.5,82.5 Z"/></g>
<g><path style="opacity:0.008" fill="#fefffe" d="M 26.5,85.5 C 27.8333,86.1667 27.8333,86.1667 26.5,85.5 Z"/></g>
<g><path style="opacity:0.008" fill="#fefffe" d="M 388.5,86.5 C 389.833,87.1667 389.833,87.1667 388.5,86.5 Z"/></g>
<g><path style="opacity:0.016" fill="#fefffe" d="M 390.5,89.5 C 391.833,90.1667 391.833,90.1667 390.5,89.5 Z"/></g>
<g><path style="opacity:0.016" fill="#fefffe" d="M 392.5,92.5 C 393.833,93.1667 393.833,93.1667 392.5,92.5 Z"/></g>
<g><path style="opacity:0.016" fill="#fefffe" d="M 394.5,95.5 C 393.833,94.1667 393.833,94.1667 394.5,95.5 Z"/></g>
<g><path style="opacity:0.008" fill="#fefffe" d="M 394.5,95.5 C 395.833,96.1667 395.833,96.1667 394.5,95.5 Z"/></g>
<g><path style="opacity:0.016" fill="#fefffe" d="M 395.5,97.5 C 396.833,98.1667 396.833,98.1667 395.5,97.5 Z"/></g>
<g><path style="opacity:0.008" fill="#fefffe" d="M 17.5,99.5 C 18.8333,100.167 18.8333,100.167 17.5,99.5 Z"/></g>
<g><path style="opacity:0.008" fill="#fefffe" d="M 16.5,101.5 C 17.8333,102.167 17.8333,102.167 16.5,101.5 Z"/></g>
<g><path style="opacity:0.008" fill="#fefffe" d="M 16.5,104.5 C 15.8333,103.167 15.8333,103.167 16.5,104.5 Z"/></g>
<g><path style="opacity:0.008" fill="#fefffe" d="M 14.5,105.5 C 15.8333,106.167 15.8333,106.167 14.5,105.5 Z"/></g>
<g><path style="opacity:0.008" fill="#fefffe" d="M 400.5,108.5 C 400.369,107.761 400.536,107.094 401,106.5C 401.692,107.437 401.525,108.103 400.5,108.5 Z"/></g>
<g><path style="opacity:0.008" fill="#fefffe" d="M 13.5,107.5 C 14.8333,108.167 14.8333,108.167 13.5,107.5 Z"/></g>
<g><path style="opacity:0.008" fill="#fefffe" d="M 13.5,111.5 C 12.475,111.103 12.3083,110.437 13,109.5C 13.4643,110.094 13.631,110.761 13.5,111.5 Z"/></g>
<g><path style="opacity:0.008" fill="#fefffe" d="M 401.5,109.5 C 402.833,110.167 402.833,110.167 401.5,109.5 Z"/></g>
<g><path style="opacity:0.016" fill="#fefffe" d="M 402.5,111.5 C 403.833,112.167 403.833,112.167 402.5,111.5 Z"/></g>
<g><path style="opacity:0.016" fill="#fefffe" d="M 11.5,112.5 C 12.8333,113.167 12.8333,113.167 11.5,112.5 Z"/></g>
<g><path style="opacity:0.008" fill="#fefffe" d="M 403.5,115.5 C 403.369,114.761 403.536,114.094 404,113.5C 404.692,114.437 404.525,115.103 403.5,115.5 Z"/></g>
<g><path style="opacity:0.008" fill="#fefffe" d="M 11.5,116.5 C 10.475,116.103 10.3083,115.437 11,114.5C 11.4643,115.094 11.631,115.761 11.5,116.5 Z"/></g>
<g><path style="opacity:0.008" fill="#fefffe" d="M 404.5,116.5 C 405.833,117.167 405.833,117.167 404.5,116.5 Z"/></g>
<g><path style="opacity:0.008" fill="#fefffe" d="M 10.5,119.5 C 9.47498,119.103 9.30831,118.437 10,117.5C 10.4643,118.094 10.631,118.761 10.5,119.5 Z"/></g>
<g><path style="opacity:0.008" fill="#fefffe" d="M 405.5,120.5 C 405.369,119.761 405.536,119.094 406,118.5C 406.692,119.437 406.525,120.103 405.5,120.5 Z"/></g>
<g><path style="opacity:0.016" fill="#fefffe" d="M 8.5,120.5 C 9.83333,121.167 9.83333,121.167 8.5,120.5 Z"/></g>
<g><path style="opacity:0.016" fill="#fefffe" d="M 406.5,121.5 C 407.833,122.167 407.833,122.167 406.5,121.5 Z"/></g>
<g><path style="opacity:0.008" fill="#fefffe" d="M 8.5,125.5 C 7.47498,125.103 7.30831,124.437 8,123.5C 8.46434,124.094 8.63101,124.761 8.5,125.5 Z"/></g>
<g><path style="opacity:0.016" fill="#fefffe" d="M 407.5,124.5 C 408.833,125.167 408.833,125.167 407.5,124.5 Z"/></g>
<g><path style="opacity:0.012" fill="#fefffe" d="M 6.5,126.5 C 7.52502,126.897 7.69169,127.563 7,128.5C 6.53566,127.906 6.36899,127.239 6.5,126.5 Z"/></g>
<g><path style="opacity:0.016" fill="#fefffe" d="M 408.5,127.5 C 409.833,128.167 409.833,128.167 408.5,127.5 Z"/></g>
<g><path style="opacity:0.01" fill="#fefffe" d="M 6.5,133.5 C 5.42654,132.749 5.25988,131.749 6,130.5C 6.48278,131.448 6.64945,132.448 6.5,133.5 Z"/></g>
<g><path style="opacity:0.008" fill="#fefffe" d="M 409.5,132.5 C 409.369,131.761 409.536,131.094 410,130.5C 410.692,131.437 410.525,132.103 409.5,132.5 Z"/></g>
<g><path style="opacity:0.012" fill="#fefffe" d="M 410.5,133.5 C 411.525,133.897 411.692,134.563 411,135.5C 410.536,134.906 410.369,134.239 410.5,133.5 Z"/></g>
<g><path style="opacity:0.01" fill="#fefffe" d="M 5.5,138.5 C 4.42654,137.749 4.25988,136.749 5,135.5C 5.48278,136.448 5.64945,137.448 5.5,138.5 Z"/></g>
<g><path style="opacity:0.012" fill="#fefffe" d="M 411.5,137.5 C 412.525,137.897 412.692,138.563 412,139.5C 411.536,138.906 411.369,138.239 411.5,137.5 Z"/></g>
<g><path style="opacity:0.01" fill="#fefffe" d="M 3.5,140.5 C 4.59832,141.601 4.76498,142.934 4,144.5C 3.50999,143.207 3.34332,141.873 3.5,140.5 Z"/></g>
<g><path style="opacity:0.01" fill="#fefffe" d="M 412.5,145.5 C 412.351,144.448 412.517,143.448 413,142.5C 413.74,143.749 413.573,144.749 412.5,145.5 Z"/></g>
<g><path style="opacity:0.013" fill="#fefffe" d="M 2.5,148.5 C 3.61295,149.946 3.77961,151.613 3,153.5C 2.50649,151.866 2.33982,150.199 2.5,148.5 Z"/></g>
<g><path style="opacity:0.012" fill="#fefffe" d="M 413.5,148.5 C 414.598,149.601 414.765,150.934 414,152.5C 413.51,151.207 413.343,149.873 413.5,148.5 Z"/></g>
<g><path style="opacity:0.01" fill="#fefffe" d="M 414.5,157.5 C 415.647,161.646 415.814,165.98 415,170.5C 414.501,166.179 414.334,161.846 414.5,157.5 Z"/></g>
<g><path style="opacity:0.013" fill="#fefffe" d="M 2.5,174.5 C 3.57346,175.251 3.74012,176.251 3,177.5C 2.51722,176.552 2.35055,175.552 2.5,174.5 Z"/></g>
<g><path style="opacity:0.013" fill="#fefffe" d="M 413.5,175.5 C 414.573,176.251 414.74,177.251 414,178.5C 413.517,177.552 413.351,176.552 413.5,175.5 Z"/></g>
<g><path style="opacity:0.01" fill="#fefffe" d="M 4.5,179.5 C 4.64945,180.552 4.48278,181.552 4,182.5C 3.25988,181.251 3.42654,180.251 4.5,179.5 Z"/></g>
<g><path style="opacity:0.01" fill="#fefffe" d="M 412.5,180.5 C 413.573,181.251 413.74,182.251 413,183.5C 412.517,182.552 412.351,181.552 412.5,180.5 Z"/></g>
<g><path style="opacity:0.012" fill="#fefffe" d="M 4.5,185.5 C 5.52502,185.897 5.69169,186.563 5,187.5C 4.53566,186.906 4.36899,186.239 4.5,185.5 Z"/></g>
<g><path style="opacity:0.012" fill="#fefffe" d="M 411.5,186.5 C 412.525,186.897 412.692,187.563 412,188.5C 411.536,187.906 411.369,187.239 411.5,186.5 Z"/></g>
<g><path style="opacity:0.012" fill="#fefffe" d="M 5.5,189.5 C 6.52502,189.897 6.69169,190.563 6,191.5C 5.53566,190.906 5.36899,190.239 5.5,189.5 Z"/></g>
<g><path style="opacity:0.012" fill="#fefffe" d="M 410.5,189.5 C 411.525,189.897 411.692,190.563 411,191.5C 410.536,190.906 410.369,190.239 410.5,189.5 Z"/></g>
<g><path style="opacity:0.012" fill="#fefffe" d="M 7.5,192.5 C 7.63101,193.239 7.46434,193.906 7,194.5C 6.30831,193.563 6.47498,192.897 7.5,192.5 Z"/></g>
<g><path style="opacity:0.012" fill="#fefffe" d="M 409.5,193.5 C 410.525,193.897 410.692,194.563 410,195.5C 409.536,194.906 409.369,194.239 409.5,193.5 Z"/></g>
<g><path style="opacity:0.016" fill="#fefffe" d="M 7.5,196.5 C 8.83333,197.167 8.83333,197.167 7.5,196.5 Z"/></g>
<g><path style="opacity:0.008" fill="#fefffe" d="M 408.5,196.5 C 409.525,196.897 409.692,197.563 409,198.5C 408.536,197.906 408.369,197.239 408.5,196.5 Z"/></g>
<g><path style="opacity:0.016" fill="#fefffe" d="M 8.5,199.5 C 9.83333,200.167 9.83333,200.167 8.5,199.5 Z"/></g>
<g><path style="opacity:0.008" fill="#fefffe" d="M 407.5,199.5 C 408.525,199.897 408.692,200.563 408,201.5C 407.536,200.906 407.369,200.239 407.5,199.5 Z"/></g>
<g><path style="opacity:0.008" fill="#fefffe" d="M 10.5,201.5 C 10.631,202.239 10.4643,202.906 10,203.5C 9.30831,202.563 9.47498,201.897 10.5,201.5 Z"/></g>
<g><path style="opacity:0.008" fill="#fefffe" d="M 406.5,202.5 C 407.525,202.897 407.692,203.563 407,204.5C 406.536,203.906 406.369,203.239 406.5,202.5 Z"/></g>
<g><path style="opacity:0.008" fill="#fefffe" d="M 11.5,204.5 C 11.631,205.239 11.4643,205.906 11,206.5C 10.3083,205.563 10.475,204.897 11.5,204.5 Z"/></g>
<g><path style="opacity:0.016" fill="#fefffe" d="M 405.5,205.5 C 406.833,206.167 406.833,206.167 405.5,205.5 Z"/></g>
<g><path style="opacity:0.008" fill="#fefffe" d="M 11.5,207.5 C 12.8333,208.167 12.8333,208.167 11.5,207.5 Z"/></g>
<g><path style="opacity:0.008" fill="#fefffe" d="M 404.5,207.5 C 405.833,208.167 405.833,208.833 404.5,209.5C 404.5,208.833 404.5,208.167 404.5,207.5 Z"/></g>
<g><path style="opacity:0.008" fill="#fefffe" d="M 13.5,209.5 C 12.8333,210.167 12.8333,210.167 13.5,209.5 Z"/></g>
<g><path style="opacity:0.008" fill="#fefffe" d="M 403.5,209.5 C 403.833,209.5 404.167,209.5 404.5,209.5C 404.167,212.167 403.833,212.167 403.5,209.5 Z"/></g>
<g><path style="opacity:0.008" fill="#fefffe" d="M 402.5,212.5 C 403.833,213.167 403.833,213.167 402.5,212.5 Z"/></g>
<g><path style="opacity:0.016" fill="#fefffe" d="M 401.5,214.5 C 402.833,215.167 402.833,215.167 401.5,214.5 Z"/></g>
<g><path style="opacity:0.016" fill="#fefffe" d="M 400.5,216.5 C 401.833,217.167 401.833,217.167 400.5,216.5 Z"/></g>
<g><path style="opacity:0.008" fill="#fefffe" d="M 17.5,217.5 C 16.8333,218.167 16.8333,218.167 17.5,217.5 Z"/></g>
<g><path style="opacity:0.008" fill="#fefffe" d="M 399.5,218.5 C 400.833,219.167 400.833,219.167 399.5,218.5 Z"/></g>
<g><path style="opacity:0.016" fill="#fefffe" d="M 18.5,219.5 C 17.8333,220.167 17.8333,220.167 18.5,219.5 Z"/></g>
<g><path style="opacity:0.008" fill="#fefffe" d="M 398.5,220.5 C 399.833,221.167 399.833,221.167 398.5,220.5 Z"/></g>
<g><path style="opacity:0.008" fill="#fefffe" d="M 19.5,221.5 C 18.8333,222.167 18.8333,222.167 19.5,221.5 Z"/></g>
<g><path style="opacity:1" fill="#fbed32" d="M 87.5,220.5 C 98.0459,221.949 103.213,227.949 103,238.5C 97.9557,246.551 91.789,253.717 84.5,260C 71.8702,266.565 63.8702,262.898 60.5,249C 60.796,247.112 61.296,245.278 62,243.5C 69.1512,234.174 77.6512,226.508 87.5,220.5 Z"/></g>
<g><path style="opacity:0.008" fill="#fefffe" d="M 397.5,222.5 C 398.833,223.167 398.833,223.167 397.5,222.5 Z"/></g>
<g><path style="opacity:0.008" fill="#fefffe" d="M 20.5,224.5 C 19.8333,223.167 19.8333,223.167 20.5,224.5 Z"/></g>
<g><path style="opacity:0.008" fill="#fefffe" d="M 396.5,223.5 C 396.833,223.5 397.167,223.5 397.5,223.5C 397.315,224.17 396.981,224.17 396.5,223.5 Z"/></g>
<g><path style="opacity:0.008" fill="#fefffe" d="M 20.5,224.5 C 20.8333,224.5 21.1667,224.5 21.5,224.5C 21.3147,225.17 20.9813,225.17 20.5,224.5 Z"/></g>
<g><path style="opacity:0.016" fill="#fefffe" d="M 395.5,225.5 C 396.833,226.167 396.833,226.167 395.5,225.5 Z"/></g>
<g><path style="opacity:0.008" fill="#fefffe" d="M 394.5,226.5 C 394.833,226.5 395.167,226.5 395.5,226.5C 395.672,227.492 395.338,228.158 394.5,228.5C 394.5,227.833 394.5,227.167 394.5,226.5 Z"/></g>
<g><path style="opacity:0.008" fill="#fefffe" d="M 23.5,227.5 C 22.8333,228.167 22.8333,228.167 23.5,227.5 Z"/></g>
<g><path style="opacity:0.016" fill="#fefffe" d="M 393.5,228.5 C 393.833,228.5 394.167,228.5 394.5,228.5C 394.315,229.17 393.981,229.17 393.5,228.5 Z"/></g>
<g><path style="opacity:0.008" fill="#fefffe" d="M 25.5,230.5 C 24.8333,231.167 24.8333,231.167 25.5,230.5 Z"/></g>
<g><path style="opacity:0.008" fill="#fefffe" d="M 392.5,230.5 C 393.833,231.167 393.833,231.167 392.5,230.5 Z"/></g>
<g><path style="opacity:0.016" fill="#fefffe" d="M 391.5,231.5 C 391.833,231.5 392.167,231.5 392.5,231.5C 392.315,232.17 391.981,232.17 391.5,231.5 Z"/></g>
<g><path style="opacity:0.008" fill="#fefffe" d="M 390.5,232.5 C 390.833,232.5 391.167,232.5 391.5,232.5C 391.315,233.17 390.981,233.17 390.5,232.5 Z"/></g>
<g><path style="opacity:0.008" fill="#fefffe" d="M 27.5,233.5 C 26.8333,234.167 26.8333,234.167 27.5,233.5 Z"/></g>
<g><path style="opacity:0.008" fill="#fefffe" d="M 389.5,234.5 C 390.833,235.167 390.833,235.167 389.5,234.5 Z"/></g>
<g><path style="opacity:0.008" fill="#fefffe" d="M 27.5,235.5 C 28.8333,236.167 28.8333,236.167 27.5,235.5 Z"/></g>
<g><path style="opacity:0.016" fill="#fefffe" d="M 388.5,235.5 C 388.833,235.5 389.167,235.5 389.5,235.5C 389.315,236.17 388.981,236.17 388.5,235.5 Z"/></g>
<g><path style="opacity:0.008" fill="#fefffe" d="M 387.5,236.5 C 387.833,236.5 388.167,236.5 388.5,236.5C 388.315,237.17 387.981,237.17 387.5,236.5 Z"/></g>
<g><path style="opacity:0.008" fill="#fefffe" d="M 31.5,238.5 C 30.8333,239.167 30.8333,239.167 31.5,238.5 Z"/></g>
<g><path style="opacity:0.008" fill="#fefffe" d="M 386.5,238.5 C 387.833,239.167 387.833,239.167 386.5,238.5 Z"/></g>
<g><path style="opacity:0.008" fill="#fefffe" d="M 385.5,239.5 C 385.833,239.5 386.167,239.5 386.5,239.5C 386.315,240.17 385.981,240.17 385.5,239.5 Z"/></g>
<g><path style="opacity:0.008" fill="#fefffe" d="M 31.5,240.5 C 32.8333,241.167 32.8333,241.167 31.5,240.5 Z"/></g>
<g><path style="opacity:0.016" fill="#fefffe" d="M 384.5,240.5 C 384.833,240.5 385.167,240.5 385.5,240.5C 385.315,241.17 384.981,241.17 384.5,240.5 Z"/></g>
<g><path style="opacity:0.016" fill="#fefffe" d="M 383.5,241.5 C 383.833,241.5 384.167,241.5 384.5,241.5C 384.315,242.17 383.981,242.17 383.5,241.5 Z"/></g>
<g><path style="opacity:0.016" fill="#fefffe" d="M 382.5,242.5 C 382.833,242.5 383.167,242.5 383.5,242.5C 383.315,243.17 382.981,243.17 382.5,242.5 Z"/></g>
<g><path style="opacity:0.008" fill="#fefffe" d="M 381.5,243.5 C 381.833,243.5 382.167,243.5 382.5,243.5C 382.315,244.17 381.981,244.17 381.5,243.5 Z"/></g>
<g><path style="opacity:0.008" fill="#fefffe" d="M 380.5,244.5 C 380.833,244.5 381.167,244.5 381.5,244.5C 381.315,245.17 380.981,245.17 380.5,244.5 Z"/></g>
<g><path style="opacity:0.008" fill="#fefffe" d="M 39.5,247.5 C 38.8333,248.167 38.8333,248.167 39.5,247.5 Z"/></g>
<g><path style="opacity:0.008" fill="#fefffe" d="M 375.5,250.5 C 376.833,251.167 376.833,251.167 375.5,250.5 Z"/></g>
<g><path style="opacity:0.008" fill="#fefffe" d="M 42.5,252.5 C 41.8333,251.167 41.8333,251.167 42.5,252.5 Z"/></g>
<g><path style="opacity:0.008" fill="#fefffe" d="M 375.5,251.5 C 374.833,252.167 374.833,252.167 375.5,251.5 Z"/></g>
<g><path style="opacity:0.016" fill="#fefffe" d="M 42.5,252.5 C 42.8333,252.5 43.1667,252.5 43.5,252.5C 43.3147,253.17 42.9813,253.17 42.5,252.5 Z"/></g>
<g><path style="opacity:0.008" fill="#fefffe" d="M 374.5,252.5 C 373.833,253.167 373.833,253.167 374.5,252.5 Z"/></g>
<g><path style="opacity:1" fill="#fbed31" d="M 116.5,252.5 C 130.319,252.517 135.819,259.184 133,272.5C 127.199,279.302 121.032,285.802 114.5,292C 106.402,296.319 99.5689,294.819 94,287.5C 91.6272,281.482 92.2939,275.815 96,270.5C 102.161,263.491 108.994,257.491 116.5,252.5 Z"/></g>
<g><path style="opacity:0.008" fill="#fefffe" d="M 373.5,253.5 C 372.833,254.167 372.833,254.167 373.5,253.5 Z"/></g>
<g><path style="opacity:0.008" fill="#fefffe" d="M 372.5,254.5 C 371.833,255.167 371.833,255.167 372.5,254.5 Z"/></g>
<g><path style="opacity:0.012" fill="#fefffe" d="M 44.5,255.5 C 44.631,256.239 44.4643,256.906 44,257.5C 43.3083,256.563 43.475,255.897 44.5,255.5 Z"/></g>
<g><path style="opacity:0.008" fill="#fefffe" d="M 371.5,255.5 C 370.833,256.167 370.833,256.167 371.5,255.5 Z"/></g>
<g><path style="opacity:0.008" fill="#fefffe" d="M 370.5,256.5 C 369.833,257.167 369.833,257.167 370.5,256.5 Z"/></g>
<g><path style="opacity:0.008" fill="#fefffe" d="M 369.5,257.5 C 368.833,258.167 368.833,258.167 369.5,257.5 Z"/></g>
<g><path style="opacity:0.008" fill="#fefffe" d="M 368.5,258.5 C 367.833,259.167 367.833,259.167 368.5,258.5 Z"/></g>
<g><path style="opacity:0.016" fill="#fefffe" d="M 44.5,259.5 C 45.8333,260.167 45.8333,260.167 44.5,259.5 Z"/></g>
<g><path style="opacity:0.008" fill="#fefffe" d="M 367.5,259.5 C 366.833,260.167 366.833,260.167 367.5,259.5 Z"/></g>
<g><path style="opacity:0.008" fill="#fefffe" d="M 366.5,260.5 C 365.833,261.167 365.833,261.167 366.5,260.5 Z"/></g>
<g><path style="opacity:0.008" fill="#fefffe" d="M 365.5,261.5 C 364.833,262.167 364.833,262.167 365.5,261.5 Z"/></g>
<g><path style="opacity:0.008" fill="#fefffe" d="M 364.5,262.5 C 363.833,263.167 363.833,263.167 364.5,262.5 Z"/></g>
<g><path style="opacity:0.008" fill="#fefffe" d="M 47.5,263.5 C 46.8333,264.167 46.8333,264.167 47.5,263.5 Z"/></g>
<g><path style="opacity:0.008" fill="#fefffe" d="M 362.5,263.5 C 362.833,263.5 363.167,263.5 363.5,263.5C 363.315,264.17 362.981,264.17 362.5,263.5 Z"/></g>
<g><path style="opacity:0.016" fill="#fefffe" d="M 361.5,264.5 C 361.833,264.5 362.167,264.5 362.5,264.5C 362.315,265.17 361.981,265.17 361.5,264.5 Z"/></g>
<g><path style="opacity:0.016" fill="#fefffe" d="M 360.5,265.5 C 360.833,265.5 361.167,265.5 361.5,265.5C 361.315,266.17 360.981,266.17 360.5,265.5 Z"/></g>
<g><path style="opacity:0.008" fill="#fefffe" d="M 49.5,266.5 C 48.8333,267.167 48.8333,267.167 49.5,266.5 Z"/></g>
<g><path style="opacity:0.008" fill="#fefffe" d="M 359.5,267.5 C 360.833,268.167 360.833,268.167 359.5,267.5 Z"/></g>
<g><path style="opacity:0.008" fill="#fefffe" d="M 49.5,268.5 C 50.8333,269.167 50.8333,269.167 49.5,268.5 Z"/></g>
<g><path style="opacity:0.008" fill="#fefffe" d="M 358.5,268.5 C 358.833,268.5 359.167,268.5 359.5,268.5C 359.315,269.17 358.981,269.17 358.5,268.5 Z"/></g>
<g><path style="opacity:0.008" fill="#fefffe" d="M 357.5,270.5 C 358.833,271.167 358.833,271.167 357.5,270.5 Z"/></g>
<g><path style="opacity:0.008" fill="#fefffe" d="M 356.5,271.5 C 356.833,271.5 357.167,271.5 357.5,271.5C 357.315,272.17 356.981,272.17 356.5,271.5 Z"/></g>
<g><path style="opacity:0.016" fill="#fefffe" d="M 355.5,272.5 C 355.833,272.5 356.167,272.5 356.5,272.5C 356.315,273.17 355.981,273.17 355.5,272.5 Z"/></g>
<g><path style="opacity:0.008" fill="#fefffe" d="M 55.5,273.5 C 54.8333,274.167 54.8333,274.167 55.5,273.5 Z"/></g>
<g><path style="opacity:0.008" fill="#fefffe" d="M 354.5,273.5 C 354.833,273.5 355.167,273.5 355.5,273.5C 355.315,274.17 354.981,274.17 354.5,273.5 Z"/></g>
<g><path style="opacity:0.008" fill="#fefffe" d="M 349.5,277.5 C 350.833,278.167 350.833,278.167 349.5,277.5 Z"/></g>
<g><path style="opacity:0.008" fill="#fefffe" d="M 64.5,278.5 C 64.1034,279.525 63.4368,279.692 62.5,279C 63.0944,278.536 63.7611,278.369 64.5,278.5 Z"/></g>
<g><path style="opacity:0.008" fill="#fefffe" d="M 348.5,278.5 C 348.833,278.5 349.167,278.5 349.5,278.5C 349.315,279.17 348.981,279.17 348.5,278.5 Z"/></g>
<g><path style="opacity:0.012" fill="#fefffe" d="M 67.5,279.5 C 67.1034,280.525 66.4368,280.692 65.5,280C 66.0944,279.536 66.7611,279.369 67.5,279.5 Z"/></g>
<g><path style="opacity:0.008" fill="#fefffe" d="M 346.5,279.5 C 347.167,279.5 347.833,279.5 348.5,279.5C 347.833,280.833 347.167,280.833 346.5,279.5 Z"/></g>
<g><path style="opacity:0.011" fill="#fefffe" d="M 68.5,281.5 C 70.2646,280.539 72.2646,280.205 74.5,280.5C 74.6495,281.552 74.4828,282.552 74,283.5C 72.5993,281.808 70.7659,281.141 68.5,281.5 Z"/></g>
<g><path style="opacity:0.008" fill="#fefffe" d="M 344.5,280.5 C 345.833,281.167 345.833,281.167 344.5,280.5 Z"/></g>
<g><path style="opacity:0.008" fill="#fefffe" d="M 342.5,281.5 C 343.167,281.5 343.833,281.5 344.5,281.5C 343.833,282.833 343.167,282.833 342.5,281.5 Z"/></g>
<g><path style="opacity:0.008" fill="#fefffe" d="M 340.5,282.5 C 341.833,283.167 341.833,283.167 340.5,282.5 Z"/></g>
<g><path style="opacity:0.012" fill="#fefffe" d="M 336.5,283.5 C 337.239,283.369 337.906,283.536 338.5,284C 337.563,284.692 336.897,284.525 336.5,283.5 Z"/></g>
<g><path style="opacity:0.016" fill="#fefffe" d="M 331.5,284.5 C 332.552,284.351 333.552,284.517 334.5,285C 333.333,285.5 332.5,286.333 332,287.5C 331.517,286.552 331.351,285.552 331.5,284.5 Z"/></g>
<g><path style="opacity:0.012" fill="#fefffe" d="M 75.5,285.5 C 75.631,286.239 75.4643,286.906 75,287.5C 74.3083,286.563 74.475,285.897 75.5,285.5 Z"/></g>
<g><path style="opacity:1" fill="#fbed31" d="M 147.5,283.5 C 159.496,282.997 165.329,288.664 165,300.5C 159.551,310.949 151.718,319.115 141.5,325C 132.911,326.914 127.078,323.748 124,315.5C 123.333,312.833 123.333,310.167 124,307.5C 130.026,297.642 137.859,289.642 147.5,283.5 Z"/></g>
<g><path style="opacity:0.016" fill="#fefffe" d="M 75.5,289.5 C 76.8333,290.167 76.8333,290.167 75.5,289.5 Z"/></g>
<g><path style="opacity:0.008" fill="#fefffe" d="M 330.5,289.5 C 331.525,289.897 331.692,290.563 331,291.5C 330.536,290.906 330.369,290.239 330.5,289.5 Z"/></g>
<g><path style="opacity:0.008" fill="#fefffe" d="M 76.5,292.5 C 77.8333,293.167 77.8333,293.167 76.5,292.5 Z"/></g>
<g><path style="opacity:0.016" fill="#fefffe" d="M 329.5,293.5 C 330.833,294.167 330.833,294.167 329.5,293.5 Z"/></g>
<g><path style="opacity:0.008" fill="#fefffe" d="M 77.5,294.5 C 78.8333,295.167 78.8333,295.167 77.5,294.5 Z"/></g>
<g><path style="opacity:0.008" fill="#fefffe" d="M 79.5,297.5 C 78.8333,296.167 78.8333,296.167 79.5,297.5 Z"/></g>
<g><path style="opacity:0.008" fill="#fefffe" d="M 328.5,296.5 C 329.833,297.167 329.833,297.167 328.5,296.5 Z"/></g>
<g><path style="opacity:0.008" fill="#fefffe" d="M 79.5,297.5 C 79.8333,297.5 80.1667,297.5 80.5,297.5C 80.3147,298.17 79.9813,298.17 79.5,297.5 Z"/></g>
<g><path style="opacity:0.008" fill="#fefffe" d="M 327.5,298.5 C 328.833,299.167 328.833,299.167 327.5,298.5 Z"/></g>
<g><path style="opacity:0.008" fill="#fefffe" d="M 80.5,299.5 C 81.8333,300.167 81.8333,300.167 80.5,299.5 Z"/></g>
<g><path style="opacity:0.008" fill="#fefffe" d="M 326.5,300.5 C 327.833,301.167 327.833,301.167 326.5,300.5 Z"/></g>
<g><path style="opacity:0.008" fill="#fefffe" d="M 325.5,301.5 C 325.833,301.5 326.167,301.5 326.5,301.5C 326.315,302.17 325.981,302.17 325.5,301.5 Z"/></g>
<g><path style="opacity:0.008" fill="#fefffe" d="M 324.5,303.5 C 325.833,304.167 325.833,304.167 324.5,303.5 Z"/></g>
<g><path style="opacity:0.008" fill="#fefffe" d="M 86.5,304.5 C 85.8333,305.167 85.8333,305.167 86.5,304.5 Z"/></g>
<g><path style="opacity:0.016" fill="#fefffe" d="M 323.5,304.5 C 323.833,304.5 324.167,304.5 324.5,304.5C 324.315,305.17 323.981,305.17 323.5,304.5 Z"/></g>
<g><path style="opacity:0.016" fill="#fefffe" d="M 322.5,305.5 C 322.833,305.5 323.167,305.5 323.5,305.5C 323.315,306.17 322.981,306.17 322.5,305.5 Z"/></g>
<g><path style="opacity:0.008" fill="#fefffe" d="M 89.5,306.5 C 88.8333,307.167 88.8333,307.167 89.5,306.5 Z"/></g>
<g><path style="opacity:0.016" fill="#fefffe" d="M 321.5,306.5 C 321.833,306.5 322.167,306.5 322.5,306.5C 322.315,307.17 321.981,307.17 321.5,306.5 Z"/></g>
<g><path style="opacity:0.016" fill="#fefffe" d="M 320.5,307.5 C 320.833,307.5 321.167,307.5 321.5,307.5C 321.315,308.17 320.981,308.17 320.5,307.5 Z"/></g>
<g><path style="opacity:0.008" fill="#fefffe" d="M 93.5,308.5 C 93.1034,309.525 92.4368,309.692 91.5,309C 92.0944,308.536 92.7611,308.369 93.5,308.5 Z"/></g>
<g><path style="opacity:0.008" fill="#fefffe" d="M 319.5,308.5 C 319.833,308.5 320.167,308.5 320.5,308.5C 320.315,309.17 319.981,309.17 319.5,308.5 Z"/></g>
<g><path style="opacity:0.016" fill="#fefffe" d="M 94.5,309.5 C 95.8333,310.167 95.8333,310.167 94.5,309.5 Z"/></g>
<g><path style="opacity:0.008" fill="#fefffe" d="M 317.5,310.5 C 317.5,310.167 317.5,309.833 317.5,309.5C 318.167,309.5 318.833,309.5 319.5,309.5C 319.158,310.338 318.492,310.672 317.5,310.5 Z"/></g>
<g><path style="opacity:0.016" fill="#fefffe" d="M 97.5,310.5 C 98.8333,311.167 98.8333,311.167 97.5,310.5 Z"/></g>
<g><path style="opacity:0.008" fill="#fefffe" d="M 317.5,310.5 C 316.833,311.167 316.833,311.167 317.5,310.5 Z"/></g>
<g><path style="opacity:0.013" fill="#fefffe" d="M 100.5,312.5 C 101.251,311.427 102.251,311.26 103.5,312C 102.552,312.483 101.552,312.649 100.5,312.5 Z"/></g>
<g><path style="opacity:0.008" fill="#fefffe" d="M 314.5,311.5 C 315.833,312.167 315.833,312.167 314.5,311.5 Z"/></g>
<g><path style="opacity:0.008" fill="#fefffe" d="M 311.5,312.5 C 312.239,312.369 312.906,312.536 313.5,313C 312.563,313.692 311.897,313.525 311.5,312.5 Z"/></g>
<g><path style="opacity:0.016" fill="#fefffe" d="M 309.5,313.5 C 310.833,314.167 310.833,314.167 309.5,313.5 Z"/></g>
<g><path style="opacity:0.01" fill="#fefffe" d="M 105.5,314.5 C 106.573,315.251 106.74,316.251 106,317.5C 105.517,316.552 105.351,315.552 105.5,314.5 Z"/></g>
<g><path style="opacity:0.012" fill="#fefffe" d="M 305.5,315.5 C 305.897,314.475 306.563,314.308 307.5,315C 306.906,315.464 306.239,315.631 305.5,315.5 Z"/></g>
<g><path style="opacity:1" fill="#fbed31" d="M 179.5,314.5 C 191.984,314.815 197.484,321.149 196,333.5C 189.788,342.712 181.955,350.212 172.5,356C 163.919,357.959 158.086,354.792 155,346.5C 153.814,341.632 154.814,337.298 158,333.5C 164.493,326.159 171.66,319.826 179.5,314.5 Z"/></g>
<g><path style="opacity:0.012" fill="#fefffe" d="M 301.5,316.5 C 301.897,315.475 302.563,315.308 303.5,316C 302.906,316.464 302.239,316.631 301.5,316.5 Z"/></g>
<g><path style="opacity:0.012" fill="#fefffe" d="M 301.5,316.5 C 302.239,316.631 302.906,316.464 303.5,316C 302.563,315.308 301.897,315.475 301.5,316.5 Z"/></g>
<g><path style="opacity:0.008" fill="#fefffe" d="M 107.5,319.5 C 107.631,320.239 107.464,320.906 107,321.5C 106.308,320.563 106.475,319.897 107.5,319.5 Z"/></g>
<g><path style="opacity:0.012" fill="#fefffe" d="M 299.5,321.5 C 300.525,321.897 300.692,322.563 300,323.5C 299.536,322.906 299.369,322.239 299.5,321.5 Z"/></g>
<g><path style="opacity:0.008" fill="#fefffe" d="M 108.5,322.5 C 108.631,323.239 108.464,323.906 108,324.5C 107.308,323.563 107.475,322.897 108.5,322.5 Z"/></g>
<g><path style="opacity:0.008" fill="#fefffe" d="M 109.5,326.5 C 108.833,325.167 108.833,325.167 109.5,326.5 Z"/></g>
<g><path style="opacity:0.016" fill="#fefffe" d="M 298.5,325.5 C 299.833,326.167 299.833,326.167 298.5,325.5 Z"/></g>
<g><path style="opacity:0.008" fill="#fefffe" d="M 109.5,326.5 C 109.833,326.5 110.167,326.5 110.5,326.5C 110.315,327.17 109.981,327.17 109.5,326.5 Z"/></g>
<g><path style="opacity:0.008" fill="#fefffe" d="M 297.5,327.5 C 298.833,328.167 298.833,328.833 297.5,329.5C 297.5,328.833 297.5,328.167 297.5,327.5 Z"/></g>
<g><path style="opacity:0.008" fill="#fefffe" d="M 112.5,329.5 C 111.833,330.167 111.833,330.167 112.5,329.5 Z"/></g>
<g><path style="opacity:0.008" fill="#fefffe" d="M 296.5,329.5 C 296.833,329.5 297.167,329.5 297.5,329.5C 297.315,330.17 296.981,330.17 296.5,329.5 Z"/></g>
<g><path style="opacity:0.008" fill="#fefffe" d="M 112.5,331.5 C 113.833,332.167 113.833,332.167 112.5,331.5 Z"/></g>
<g><path style="opacity:0.008" fill="#fefffe" d="M 295.5,331.5 C 296.833,332.167 296.833,332.167 295.5,331.5 Z"/></g>
<g><path style="opacity:0.008" fill="#fefffe" d="M 294.5,332.5 C 294.833,332.5 295.167,332.5 295.5,332.5C 295.315,333.17 294.981,333.17 294.5,332.5 Z"/></g>
<g><path style="opacity:0.008" fill="#fefffe" d="M 116.5,334.5 C 116.5,334.833 116.5,335.167 116.5,335.5C 115.83,335.019 115.83,334.685 116.5,334.5 Z"/></g>
<g><path style="opacity:0.008" fill="#fefffe" d="M 293.5,334.5 C 294.833,335.167 294.833,335.167 293.5,334.5 Z"/></g>
<g><path style="opacity:0.008" fill="#fefffe" d="M 116.5,335.5 C 117.833,336.167 117.833,336.167 116.5,335.5 Z"/></g>
<g><path style="opacity:0.008" fill="#fefffe" d="M 292.5,335.5 C 292.833,335.5 293.167,335.5 293.5,335.5C 293.315,336.17 292.981,336.17 292.5,335.5 Z"/></g>
<g><path style="opacity:0.008" fill="#fefffe" d="M 291.5,336.5 C 291.833,336.5 292.167,336.5 292.5,336.5C 292.315,337.17 291.981,337.17 291.5,336.5 Z"/></g>
<g><path style="opacity:0.008" fill="#fefffe" d="M 120.5,337.5 C 119.833,338.167 119.833,338.167 120.5,337.5 Z"/></g>
<g><path style="opacity:0.008" fill="#fefffe" d="M 290.5,337.5 C 290.833,337.5 291.167,337.5 291.5,337.5C 291.315,338.17 290.981,338.17 290.5,337.5 Z"/></g>
<g><path style="opacity:0.008" fill="#fefffe" d="M 289.5,338.5 C 289.833,338.5 290.167,338.5 290.5,338.5C 290.315,339.17 289.981,339.17 289.5,338.5 Z"/></g>
<g><path style="opacity:0.008" fill="#fefffe" d="M 124.5,339.5 C 124.103,340.525 123.437,340.692 122.5,340C 123.094,339.536 123.761,339.369 124.5,339.5 Z"/></g>
<g><path style="opacity:0.016" fill="#fefffe" d="M 126.5,340.5 C 125.833,341.167 125.833,341.167 126.5,340.5 Z"/></g>
<g><path style="opacity:0.008" fill="#fefffe" d="M 286.5,340.5 C 287.833,341.167 287.833,341.167 286.5,340.5 Z"/></g>
<g><path style="opacity:0.008" fill="#fefffe" d="M 129.5,341.5 C 129.103,342.525 128.437,342.692 127.5,342C 128.094,341.536 128.761,341.369 129.5,341.5 Z"/></g>
<g><path style="opacity:0.008" fill="#fefffe" d="M 284.5,341.5 C 285.833,342.167 285.833,342.167 284.5,341.5 Z"/></g>
<g><path style="opacity:0.012" fill="#fefffe" d="M 130.5,343.5 C 131.601,342.402 132.934,342.235 134.5,343C 133.207,343.49 131.873,343.657 130.5,343.5 Z"/></g>
<g><path style="opacity:0.008" fill="#fefffe" d="M 282.5,342.5 C 283.167,342.5 283.833,342.5 284.5,342.5C 283.833,343.833 283.167,343.833 282.5,342.5 Z"/></g>
<g><path style="opacity:0.016" fill="#fefffe" d="M 280.5,343.5 C 281.833,344.167 281.833,344.167 280.5,343.5 Z"/></g>
<g><path style="opacity:0.013" fill="#fefffe" d="M 136.5,344.5 C 137.573,345.251 137.74,346.251 137,347.5C 136.517,346.552 136.351,345.552 136.5,344.5 Z"/></g>
<g><path style="opacity:0.008" fill="#fefffe" d="M 277.5,344.5 C 278.239,344.369 278.906,344.536 279.5,345C 278.563,345.692 277.897,345.525 277.5,344.5 Z"/></g>
<g><path style="opacity:0.008" fill="#fefffe" d="M 274.5,345.5 C 275.239,345.369 275.906,345.536 276.5,346C 275.563,346.692 274.897,346.525 274.5,345.5 Z"/></g>
<g><path style="opacity:0.012" fill="#fefffe" d="M 271.5,347.5 C 271.897,346.475 272.563,346.308 273.5,347C 272.906,347.464 272.239,347.631 271.5,347.5 Z"/></g>
<g><path style="opacity:0.013" fill="#fefffe" d="M 268.5,349.5 C 269.573,350.251 269.74,351.251 269,352.5C 268.517,351.552 268.351,350.552 268.5,349.5 Z"/></g>
<g><path style="opacity:0.012" fill="#fefffe" d="M 137.5,350.5 C 138.525,350.897 138.692,351.563 138,352.5C 137.536,351.906 137.369,351.239 137.5,350.5 Z"/></g>
<g><path style="opacity:0.008" fill="#fefffe" d="M 139.5,353.5 C 139.631,354.239 139.464,354.906 139,355.5C 138.308,354.563 138.475,353.897 139.5,353.5 Z"/></g>
<g><path style="opacity:0.016" fill="#fefffe" d="M 202.5,353.5 C 201.833,354.167 201.833,354.167 202.5,353.5 Z"/></g>
<g><path style="opacity:0.012" fill="#fefffe" d="M 267.5,354.5 C 268.525,354.897 268.692,355.563 268,356.5C 267.536,355.906 267.369,355.239 267.5,354.5 Z"/></g>
<g><path style="opacity:0.008" fill="#fefffe" d="M 199.5,355.5 C 200.833,356.167 200.833,356.167 199.5,355.5 Z"/></g>
<g><path style="opacity:0.008" fill="#fefffe" d="M 139.5,356.5 C 140.833,357.167 140.833,357.167 139.5,356.5 Z"/></g>
<g><path style="opacity:0.008" fill="#fefffe" d="M 199.5,356.5 C 198.833,357.167 198.833,357.167 199.5,356.5 Z"/></g>
<g><path style="opacity:0.008" fill="#fefffe" d="M 203.5,356.5 C 204.833,357.167 204.833,357.167 203.5,356.5 Z"/></g>
<g><path style="opacity:0.008" fill="#fefffe" d="M 197.5,357.5 C 197.833,357.5 198.167,357.5 198.5,357.5C 198.315,358.17 197.981,358.17 197.5,357.5 Z"/></g>
<g><path style="opacity:0.016" fill="#fefffe" d="M 266.5,357.5 C 267.833,358.167 267.833,358.167 266.5,357.5 Z"/></g>
<g><path style="opacity:0.008" fill="#fefffe" d="M 141.5,359.5 C 140.833,358.167 140.833,358.167 141.5,359.5 Z"/></g>
<g><path style="opacity:0.016" fill="#fefffe" d="M 196.5,358.5 C 196.833,358.5 197.167,358.5 197.5,358.5C 197.315,359.17 196.981,359.17 196.5,358.5 Z"/></g>
<g><path style="opacity:0.016" fill="#fefffe" d="M 141.5,359.5 C 141.833,359.5 142.167,359.5 142.5,359.5C 142.315,360.17 141.981,360.17 141.5,359.5 Z"/></g>
<g><path style="opacity:0.016" fill="#fefffe" d="M 195.5,359.5 C 195.833,359.5 196.167,359.5 196.5,359.5C 196.315,360.17 195.981,360.17 195.5,359.5 Z"/></g>
<g><path style="opacity:0.008" fill="#fefffe" d="M 265.5,359.5 C 266.833,360.167 266.833,360.833 265.5,361.5C 265.5,360.833 265.5,360.167 265.5,359.5 Z"/></g>
<g><path style="opacity:0.016" fill="#fefffe" d="M 194.5,360.5 C 194.833,360.5 195.167,360.5 195.5,360.5C 195.315,361.17 194.981,361.17 194.5,360.5 Z"/></g>
<g><path style="opacity:0.008" fill="#fefffe" d="M 142.5,361.5 C 143.833,362.167 143.833,362.167 142.5,361.5 Z"/></g>
<g><path style="opacity:0.008" fill="#fefffe" d="M 209.5,361.5 C 208.833,362.167 208.833,362.167 209.5,361.5 Z"/></g>
<g><path style="opacity:0.016" fill="#fefffe" d="M 264.5,361.5 C 264.833,361.5 265.167,361.5 265.5,361.5C 265.315,362.17 264.981,362.17 264.5,361.5 Z"/></g>
<g><path style="opacity:0.016" fill="#fefffe" d="M 191.5,363.5 C 191.833,363.5 192.167,363.5 192.5,363.5C 192.315,364.17 191.981,364.17 191.5,363.5 Z"/></g>
<g><path style="opacity:0.008" fill="#fefffe" d="M 263.5,363.5 C 264.833,364.167 264.833,364.167 263.5,363.5 Z"/></g>
<g><path style="opacity:0.016" fill="#fefffe" d="M 190.5,364.5 C 190.833,364.5 191.167,364.5 191.5,364.5C 191.315,365.17 190.981,365.17 190.5,364.5 Z"/></g>
<g><path style="opacity:0.008" fill="#fefffe" d="M 211.5,365.5 C 210.833,364.167 210.833,364.167 211.5,365.5 Z"/></g>
<g><path style="opacity:0.008" fill="#fefffe" d="M 262.5,364.5 C 262.833,364.5 263.167,364.5 263.5,364.5C 263.315,365.17 262.981,365.17 262.5,364.5 Z"/></g>
<g><path style="opacity:0.016" fill="#fefffe" d="M 189.5,365.5 C 189.833,365.5 190.167,365.5 190.5,365.5C 190.315,366.17 189.981,366.17 189.5,365.5 Z"/></g>
<g><path style="opacity:0.008" fill="#fefffe" d="M 211.5,365.5 C 212.833,366.167 212.833,366.167 211.5,365.5 Z"/></g>
<g><path style="opacity:0.008" fill="#fefffe" d="M 261.5,365.5 C 261.833,365.5 262.167,365.5 262.5,365.5C 262.315,366.17 261.981,366.17 261.5,365.5 Z"/></g>
<g><path style="opacity:0.008" fill="#fefffe" d="M 148.5,366.5 C 148.5,366.833 148.5,367.167 148.5,367.5C 147.83,367.019 147.83,366.685 148.5,366.5 Z"/></g>
<g><path style="opacity:0.016" fill="#fefffe" d="M 188.5,366.5 C 188.833,366.5 189.167,366.5 189.5,366.5C 189.315,367.17 188.981,367.17 188.5,366.5 Z"/></g>
<g><path style="opacity:0.008" fill="#fefffe" d="M 148.5,367.5 C 149.833,368.167 149.833,368.167 148.5,367.5 Z"/></g>
<g><path style="opacity:0.008" fill="#fefffe" d="M 187.5,367.5 C 187.833,367.5 188.167,367.5 188.5,367.5C 188.315,368.17 187.981,368.17 187.5,367.5 Z"/></g>
<g><path style="opacity:0.008" fill="#fefffe" d="M 151.5,368.5 C 151.5,368.833 151.5,369.167 151.5,369.5C 150.83,369.019 150.83,368.685 151.5,368.5 Z"/></g>
<g><path style="opacity:0.008" fill="#fefffe" d="M 185.5,369.5 C 185.5,369.167 185.5,368.833 185.5,368.5C 186.167,368.5 186.833,368.5 187.5,368.5C 187.158,369.338 186.492,369.672 185.5,369.5 Z"/></g>
<g><path style="opacity:0.008" fill="#fefffe" d="M 259.5,368.5 C 260.833,369.167 260.833,369.167 259.5,368.5 Z"/></g>
<g><path style="opacity:0.008" fill="#fefffe" d="M 151.5,369.5 C 152.833,370.167 152.833,370.167 151.5,369.5 Z"/></g>
<g><path style="opacity:0.016" fill="#fefffe" d="M 184.5,369.5 C 184.833,369.5 185.167,369.5 185.5,369.5C 185.315,370.17 184.981,370.17 184.5,369.5 Z"/></g>
<g><path style="opacity:0.008" fill="#fefffe" d="M 216.5,369.5 C 216.5,369.833 216.5,370.167 216.5,370.5C 215.83,370.019 215.83,369.685 216.5,369.5 Z"/></g>
<g><path style="opacity:0.008" fill="#fefffe" d="M 259.5,369.5 C 258.833,370.167 258.833,370.167 259.5,369.5 Z"/></g>
<g><path style="opacity:0.008" fill="#fefffe" d="M 153.5,370.5 C 154.833,371.167 154.833,371.167 153.5,370.5 Z"/></g>
<g><path style="opacity:0.008" fill="#fefffe" d="M 182.5,370.5 C 183.833,371.167 183.833,371.167 182.5,370.5 Z"/></g>
<g><path style="opacity:0.008" fill="#fefffe" d="M 216.5,370.5 C 217.833,371.167 217.833,371.167 216.5,370.5 Z"/></g>
<g><path style="opacity:0.008" fill="#fefffe" d="M 256.5,370.5 C 257.833,371.167 257.833,371.167 256.5,370.5 Z"/></g>
<g><path style="opacity:0.008" fill="#fefffe" d="M 157.5,371.5 C 157.103,372.525 156.437,372.692 155.5,372C 156.094,371.536 156.761,371.369 157.5,371.5 Z"/></g>
<g><path style="opacity:0.008" fill="#fefffe" d="M 180.5,371.5 C 181.167,371.5 181.833,371.5 182.5,371.5C 181.833,372.833 181.167,372.833 180.5,371.5 Z"/></g>
<g><path style="opacity:0.008" fill="#fefffe" d="M 255.5,371.5 C 255.833,371.5 256.167,371.5 256.5,371.5C 256.315,372.17 255.981,372.17 255.5,371.5 Z"/></g>
<g><path style="opacity:0.012" fill="#fefffe" d="M 160.5,372.5 C 160.103,373.525 159.437,373.692 158.5,373C 159.094,372.536 159.761,372.369 160.5,372.5 Z"/></g>
<g><path style="opacity:0.012" fill="#fefffe" d="M 177.5,372.5 C 178.239,372.369 178.906,372.536 179.5,373C 178.563,373.692 177.897,373.525 177.5,372.5 Z"/></g>
<g><path style="opacity:0.016" fill="#fefffe" d="M 220.5,372.5 C 220.5,372.833 220.5,373.167 220.5,373.5C 219.83,373.019 219.83,372.685 220.5,372.5 Z"/></g>
<g><path style="opacity:0.008" fill="#fefffe" d="M 254.5,372.5 C 254.833,372.5 255.167,372.5 255.5,372.5C 255.315,373.17 254.981,373.17 254.5,372.5 Z"/></g>
<g><path style="opacity:0.012" fill="#fefffe" d="M 161.5,374.5 C 161.897,373.475 162.563,373.308 163.5,374C 162.906,374.464 162.239,374.631 161.5,374.5 Z"/></g>
<g><path style="opacity:0.008" fill="#fefffe" d="M 174.5,374.5 C 174.897,373.475 175.563,373.308 176.5,374C 175.906,374.464 175.239,374.631 174.5,374.5 Z"/></g>
<g><path style="opacity:0.008" fill="#fefffe" d="M 220.5,373.5 C 221.833,374.167 221.833,374.167 220.5,373.5 Z"/></g>
<g><path style="opacity:0.008" fill="#fefffe" d="M 252.5,374.5 C 252.5,374.167 252.5,373.833 252.5,373.5C 253.167,373.5 253.833,373.5 254.5,373.5C 254.158,374.338 253.492,374.672 252.5,374.5 Z"/></g>
<g><path style="opacity:0.008" fill="#fefffe" d="M 167.5,375.5 C 168.251,374.427 169.251,374.26 170.5,375C 169.552,375.483 168.552,375.649 167.5,375.5 Z"/></g>
<g><path style="opacity:0.008" fill="#fefffe" d="M 223.5,374.5 C 222.833,375.167 222.833,375.167 223.5,374.5 Z"/></g>
<g><path style="opacity:0.008" fill="#fefffe" d="M 250.5,375.5 C 250.5,375.167 250.5,374.833 250.5,374.5C 251.167,374.5 251.833,374.5 252.5,374.5C 252.158,375.338 251.492,375.672 250.5,375.5 Z"/></g>
<g><path style="opacity:0.008" fill="#fefffe" d="M 224.5,375.5 C 225.833,376.167 225.833,376.167 224.5,375.5 Z"/></g>
<g><path style="opacity:0.008" fill="#fefffe" d="M 248.5,375.5 C 249.167,375.5 249.833,375.5 250.5,375.5C 249.833,376.833 249.167,376.833 248.5,375.5 Z"/></g>
<g><path style="opacity:0.008" fill="#fefffe" d="M 226.5,377.5 C 226.897,376.475 227.563,376.308 228.5,377C 227.906,377.464 227.239,377.631 226.5,377.5 Z"/></g>
<g><path style="opacity:0.008" fill="#fefffe" d="M 245.5,376.5 C 246.239,376.369 246.906,376.536 247.5,377C 246.563,377.692 245.897,377.525 245.5,376.5 Z"/></g>
<g><path style="opacity:0.01" fill="#fefffe" d="M 230.5,378.5 C 231.251,377.427 232.251,377.26 233.5,378C 232.552,378.483 231.552,378.649 230.5,378.5 Z"/></g>
<g><path style="opacity:0.01" fill="#fefffe" d="M 240.5,378.5 C 241.601,377.402 242.934,377.235 244.5,378C 243.207,378.49 241.873,378.657 240.5,378.5 Z"/></g>
</svg>
