<?xml version="1.0" encoding="UTF-8"?>
<!DOCTYPE svg PUBLIC "-//W3C//DTD SVG 1.1//EN" "http://www.w3.org/Graphics/SVG/1.1/DTD/svg11.dtd">
<svg xmlns="http://www.w3.org/2000/svg" version="1.1" width="300px" height="300px" style="shape-rendering:geometricPrecision; text-rendering:geometricPrecision; image-rendering:optimizeQuality; fill-rule:evenodd; clip-rule:evenodd" xmlns:xlink="http://www.w3.org/1999/xlink">
<g><path style="opacity:0.787" fill="#fcfdfe" d="M 174.5,14.5 C 183.296,14.407 192.296,14.5737 201.5,15C 202.253,16.487 203.086,16.6537 204,15.5C 206.548,17.6574 208.381,19.8241 209.5,22C 208.833,22.3333 208.167,22.6667 207.5,23C 208.297,26.7454 208.797,30.5787 209,34.5C 209.667,35.8333 210.333,35.8333 211,34.5C 211.333,35.1667 211.667,35.8333 212,36.5C 213.73,36.4908 215.563,36.1575 217.5,35.5C 220.664,29.1138 225.497,25.4471 232,24.5C 240.766,29.0432 248.433,34.3766 255,40.5C 255.163,42.676 255.996,44.5093 257.5,46C 255.168,50.6758 252.168,55.3424 248.5,60C 250,62.1667 251.5,64.3333 253,66.5C 256.509,66.0296 260.009,64.6962 263.5,62.5C 268.609,61.6395 272.442,63.6395 275,68.5C 275.309,69.7659 275.809,70.9326 276.5,72C 276.152,74.0545 276.819,76.0545 278.5,78C 277.366,79.016 277.699,79.6827 279.5,80C 278.833,80.3333 278.167,80.6667 277.5,81C 279.193,82.713 280.526,84.713 281.5,87C 282.994,93.2993 280.828,98.1326 275,101.5C 274.667,101.167 274.333,100.833 274,100.5C 271.511,102.358 269.011,103.358 266.5,103.5C 265.167,106.5 265.167,109.5 266.5,112.5C 269.011,112.642 271.511,113.642 274,115.5C 274.333,115.167 274.667,114.833 275,114.5C 276.667,115.833 278.333,117.167 280,118.5C 281.894,124.521 281.394,130.021 278.5,135C 279.634,136.016 279.301,136.683 277.5,137C 277.798,143.9 274.965,149.4 269,153.5C 267.204,152.233 265.371,152.233 263.5,153.5C 260.087,151.081 256.587,149.748 253,149.5C 251.5,151.667 250,153.833 248.5,156C 252.092,160.56 254.759,165.227 256.5,170C 256.25,173.53 254.75,176.363 252,178.5C 245.62,182.766 238.953,187.433 232,192.5C 225.756,190.805 220.922,186.805 217.5,180.5C 214.812,179.85 212.312,179.85 210,180.5C 208.717,185.657 208.05,190.99 208,196.5C 206.081,199.794 203.415,201.128 200,200.5C 194.552,201.146 189.052,201.812 183.5,202.5C 173.633,213.119 166.966,224.786 163.5,237.5C 164.471,238.962 164.138,240.295 162.5,241.5C 162.833,242.167 163.167,242.833 163.5,243.5C 161.84,246.77 161.506,250.103 162.5,253.5C 160.456,255.068 160.122,256.902 161.5,259C 159.713,267.946 154.547,274.78 146,279.5C 144.538,278.965 142.872,278.965 141,279.5C 138.508,279.168 136.342,278.168 134.5,276.5C 132.067,279.242 129.067,280.075 125.5,279C 118.551,277.277 113.718,273.111 111,266.5C 110.405,262.246 109.238,257.913 107.5,253.5C 109.163,250.673 108.83,248.173 106.5,246C 106.5,243.333 106.5,240.667 106.5,238C 104.803,233.417 102.969,228.584 101,223.5C 100.5,224 100,224.5 99.5,225C 100.358,226.788 101.358,228.622 102.5,230.5C 101.289,231.72 101.289,232.887 102.5,234C 100.875,234.853 100.542,235.853 101.5,237C 96.0739,240.371 90.4072,243.371 84.5,246C 79.4424,245.976 75.9424,243.476 74,238.5C 69.3548,234.317 66.3548,235.317 65,241.5C 64.0524,243.57 62.5524,245.07 60.5,246C 57.4698,246.288 54.6365,246.455 52,246.5C 49.828,245.415 47.828,244.081 46,242.5C 41.0602,242.427 37.8936,239.76 36.5,234.5C 36.7605,232.813 37.4272,231.313 38.5,230C 38.7255,227.849 38.0588,225.683 36.5,223.5C 34.9222,222.928 33.4222,222.594 32,222.5C 29.7359,225.09 26.9026,225.923 23.5,225C 21.944,223.401 20.2773,221.901 18.5,220.5C 17.8772,218.289 16.8772,216.289 15.5,214.5C 15.7093,213.914 16.0426,213.414 16.5,213C 14.4758,210.751 12.8091,208.251 11.5,205.5C 11.9767,204.522 12.6433,203.689 13.5,203C 13.1667,202.667 12.8333,202.333 12.5,202C 15.0333,199.476 17.8667,197.309 21,195.5C 21.6667,193.167 21.6667,190.833 21,188.5C 19.984,189.634 19.3173,189.301 19,187.5C 18.6667,187.833 18.3333,188.167 18,188.5C 16.3333,187.167 14.6667,185.833 13,184.5C 11.739,182.37 11.239,180.203 11.5,178C 12.014,174.99 13.3473,171.99 15.5,169C 15.1892,166.113 16.6892,163.28 20,160.5C 20.3333,160.833 20.6667,161.167 21,161.5C 21.3076,160.692 21.8076,160.025 22.5,159.5C 24.548,160.083 26.3813,160.083 28,159.5C 28.3333,160.167 28.6667,160.833 29,161.5C 29.7412,160.359 30.5745,160.359 31.5,161.5C 35.0576,159.877 36.2243,157.21 35,153.5C 33.7792,152.226 32.9459,150.726 32.5,149C 34.803,144.026 38.1363,140.692 42.5,139C 45.4324,138.728 47.9324,137.562 50,135.5C 50.3333,135.833 50.6667,136.167 51,136.5C 51.3879,135.572 52.0546,134.905 53,134.5C 54.8928,135.196 56.7262,136.03 58.5,137C 59.8065,139.573 61.4731,141.906 63.5,144C 65.1647,144.788 66.8314,145.122 68.5,145C 69.2567,143.488 70.2567,142.154 71.5,141C 71.1421,137.953 72.6421,135.786 76,134.5C 82.1796,120.319 92.6796,109.819 107.5,103C 105.396,100.762 103.062,99.7616 100.5,100C 99.5,99 98.5,98 97.5,97C 97.4508,93.0246 97.4508,89.0246 97.5,85C 99.7705,82.1927 100.77,79.1927 100.5,76C 102.181,74.0545 102.848,72.0545 102.5,70C 104.126,67.3723 106.126,65.039 108.5,63C 110.7,63.5844 112.867,63.4177 115,62.5C 118.502,64.2817 121.835,65.615 125,66.5C 126.844,64.9888 128.344,63.1554 129.5,61C 126.431,56.251 123.764,51.251 121.5,46C 122.196,44.1072 123.03,42.2738 124,40.5C 130.419,34.4593 137.919,29.126 146.5,24.5C 148.412,24.4877 150.412,24.821 152.5,25.5C 153.528,27.3615 155.028,28.6948 157,29.5C 157.914,31.6641 159.081,33.6641 160.5,35.5C 163.226,35.8641 165.893,36.0308 168.5,36C 170.059,34.0042 170.726,31.6709 170.5,29C 170.268,25.7127 169.934,22.7127 169.5,20C 172.056,18.9455 173.723,17.1122 174.5,14.5 Z M 183.5,79.5 C 197.786,78.5289 208.786,84.6956 216.5,98C 215.87,100.816 216.536,103.482 218.5,106C 217.253,107.458 217.253,108.958 218.5,110.5C 216.448,112.793 215.781,115.293 216.5,118C 211.74,126.391 204.573,132.558 195,136.5C 191.174,129.965 187.174,123.632 183,117.5C 179.553,114.207 176.053,111.04 172.5,108C 168.558,106.05 164.891,103.716 161.5,101C 164.273,91.8543 170.773,85.0209 181,80.5C 182.159,81.566 182.992,81.2327 183.5,79.5 Z M 61.5,169.5 C 64.8333,169.5 68.1667,169.5 71.5,169.5C 71.3874,172.049 72.0541,174.382 73.5,176.5C 73.2907,177.086 72.9574,177.586 72.5,178C 75.9306,186.775 80.264,195.108 85.5,203C 76.9536,212.57 67.287,214.57 56.5,209C 53.6122,206.069 50.6122,203.235 47.5,200.5C 48.2294,198.405 47.5628,196.572 45.5,195C 46.1667,194.667 46.8333,194.333 47.5,194C 47.4073,189.38 47.4073,185.046 47.5,181C 51.5067,176.141 56.1734,172.307 61.5,169.5 Z"/></g>
<g><path style="opacity:1" fill="#74beb2" d="M 177.5,22.5 C 185.5,22.5 193.5,22.5 201.5,22.5C 201.19,28.7576 201.524,34.9242 202.5,41C 206.49,42.3266 210.49,43.66 214.5,45C 216.167,45.6667 217.833,45.6667 219.5,45C 223.038,40.6341 226.705,36.4675 230.5,32.5C 236.473,35.8245 242.14,39.6578 247.5,44C 248.517,45.0495 248.684,46.2161 248,47.5C 245.578,51.3438 242.911,55.0105 240,58.5C 239.333,59.8333 239.333,61.1667 240,62.5C 243.454,67.1173 247.121,71.4506 251,75.5C 256.206,72.8242 261.706,71.3242 267.5,71C 270.827,78.1467 272.827,85.6467 273.5,93.5C 268.17,94.6656 263.003,96.3323 258,98.5C 257.333,104.833 257.333,111.167 258,117.5C 263.793,119.368 269.293,121.701 274.5,124.5C 271.632,130.938 269.465,137.604 268,144.5C 267.107,145.081 266.107,145.415 265,145.5C 259.69,143.438 254.19,142.271 248.5,142C 246.052,146.115 243.219,149.948 240,153.5C 240.454,158.677 242.787,163.01 247,166.5C 248.187,168.044 248.52,169.711 248,171.5C 242.554,176.121 236.721,180.121 230.5,183.5C 226.705,179.533 223.038,175.366 219.5,171C 213.836,171.977 208.169,173.31 202.5,175C 201.688,181.085 201.188,187.252 201,193.5C 196.55,194.8 192.05,194.8 187.5,193.5C 197.194,178.555 199.861,162.389 195.5,145C 205.477,141.408 213.643,135.241 220,126.5C 228.62,108.235 225.453,92.4013 210.5,79C 187.639,66.7551 169.473,71.5885 156,93.5C 155.023,95.74 154.523,98.0733 154.5,100.5C 143.732,98.3971 132.899,98.0637 122,99.5C 116.511,97.6703 111.011,95.837 105.5,94C 104.409,91.9361 104.242,89.7695 105,87.5C 106.735,82.1293 108.568,76.796 110.5,71.5C 111.167,71.1667 111.833,70.8333 112.5,70.5C 117.29,72.2636 122.124,73.9302 127,75.5C 130.633,72.1961 133.966,68.5294 137,64.5C 138.301,62.6354 138.635,60.6354 138,58.5C 135.72,54.5533 133.053,50.8866 130,47.5C 129.316,46.2161 129.483,45.0495 130.5,44C 136.264,40.0363 142.098,36.203 148,32.5C 152.179,36.0196 155.679,40.1863 158.5,45C 160.167,45.6667 161.833,45.6667 163.5,45C 167.198,42.8784 171.198,41.545 175.5,41C 176,40.5 176.5,40 177,39.5C 177.499,33.8431 177.666,28.1764 177.5,22.5 Z"/></g>
<g><path style="opacity:1" fill="#fbed30" d="M 156.5,236.5 C 141.755,236.816 127.088,236.483 112.5,235.5C 112.187,229.058 110.353,223.058 107,217.5C 101.769,208.934 95.7694,200.934 89,193.5C 72.2122,165.393 75.3788,139.893 98.5,117C 115.806,103.912 134.806,100.912 155.5,108C 180.739,119.303 192.572,138.803 191,166.5C 189.837,176.325 186.503,185.325 181,193.5C 172.105,203.067 164.772,213.734 159,225.5C 157.69,229.07 156.857,232.737 156.5,236.5 Z"/></g>
<g><path style="opacity:0.998" fill="#fffdf1" d="M 138.5,121.5 C 136.359,120.837 134.025,120.503 131.5,120.5C 127.859,120.315 124.526,120.981 121.5,122.5C 101.618,129.899 92.451,144.232 94,165.5C 95.6823,170.896 97.0156,176.229 98,181.5C 95.2242,183.14 93.2242,182.473 92,179.5C 82.5082,155.316 88.3415,135.816 109.5,121C 120.118,114.516 131.451,112.849 143.5,116C 145.334,120.675 143.667,122.508 138.5,121.5 Z"/></g>
<g><path style="opacity:1" fill="#fdf37a" d="M 138.5,121.5 C 132.797,121.375 127.13,121.708 121.5,122.5C 124.526,120.981 127.859,120.315 131.5,120.5C 134.025,120.503 136.359,120.837 138.5,121.5 Z"/></g>
<g><path style="opacity:1" fill="#74beb2" d="M 50.5,143.5 C 54.9427,144.664 57.276,147.664 57.5,152.5C 62.5,152.5 67.5,152.5 72.5,152.5C 72.5,155.5 72.5,158.5 72.5,161.5C 56.0025,160.668 44.8359,168.001 39,183.5C 37.2174,200.448 44.0508,212.281 59.5,219C 72.7167,221.428 83.7167,217.595 92.5,207.5C 94.5547,209.555 96.2213,211.888 97.5,214.5C 94.8604,216.958 92.8604,219.792 91.5,223C 92.8289,226.121 93.6622,229.287 94,232.5C 90.2454,234.628 86.4121,236.628 82.5,238.5C 81.0044,235.509 79.5044,232.509 78,229.5C 77.1074,228.919 76.1074,228.585 75,228.5C 70.1502,229.029 65.3169,229.696 60.5,230.5C 59.5933,233.057 58.5933,235.557 57.5,238C 53.007,238.117 48.6737,237.283 44.5,235.5C 45.9625,231.647 46.7958,227.647 47,223.5C 43.1667,221 40,217.833 37.5,214C 33.5442,213.963 29.8775,215.13 26.5,217.5C 23.2774,213.311 21.6107,208.811 21.5,204C 24.1024,203.023 26.6024,201.856 29,200.5C 29.6667,195.167 29.6667,189.833 29,184.5C 26.3451,182.947 23.5117,181.78 20.5,181C 19.9415,180.275 19.6082,179.442 19.5,178.5C 20.906,175.055 22.2394,171.555 23.5,168C 26.8234,168.471 30.1567,169.305 33.5,170.5C 37.1778,167.321 40.6778,163.988 44,160.5C 44.6667,158.833 44.6667,157.167 44,155.5C 41.9015,153.026 41.4015,150.359 42.5,147.5C 45.507,146.663 48.1737,145.33 50.5,143.5 Z"/></g>
<g><path style="opacity:1" fill="#fefcdd" d="M 112.5,235.5 C 127.088,236.483 141.755,236.816 156.5,236.5C 149.341,237.166 142.008,237.5 134.5,237.5C 126.802,237.497 119.468,236.831 112.5,235.5 Z"/></g>
<g><path style="opacity:1" fill="#74beb2" d="M 114.5,242.5 C 127.833,242.5 141.167,242.5 154.5,242.5C 154.5,244.5 154.5,246.5 154.5,248.5C 141.5,248.5 128.5,248.5 115.5,248.5C 115.483,246.435 115.15,244.435 114.5,242.5 Z"/></g>
<g><path style="opacity:1" fill="#74beb2" d="M 153.5,254.5 C 140.788,253.854 128.455,254.52 116.5,256.5C 115.596,255.791 115.263,254.791 115.5,253.5C 128.344,253.171 141.011,253.505 153.5,254.5 Z"/></g>
<g><path style="opacity:1" fill="#74beb2" d="M 153.5,254.5 C 153.5,256.167 153.5,257.833 153.5,259.5C 141.167,259.5 128.833,259.5 116.5,259.5C 116.5,258.5 116.5,257.5 116.5,256.5C 128.455,254.52 140.788,253.854 153.5,254.5 Z"/></g>
<g><path style="opacity:1" fill="#74beb2" d="M 119.5,265.5 C 129.839,265.334 140.172,265.5 150.5,266C 148.551,268.621 146.051,270.454 143,271.5C 137.27,268.883 131.603,268.883 126,271.5C 123.301,269.964 121.135,267.964 119.5,265.5 Z"/></g>
</svg>
