<?xml version="1.0" encoding="UTF-8"?>
<!DOCTYPE svg PUBLIC "-//W3C//DTD SVG 1.1//EN" "http://www.w3.org/Graphics/SVG/1.1/DTD/svg11.dtd">
<svg xmlns="http://www.w3.org/2000/svg" version="1.1" width="420px" height="420px" style="shape-rendering:geometricPrecision; text-rendering:geometricPrecision; image-rendering:optimizeQuality; fill-rule:evenodd; clip-rule:evenodd" xmlns:xlink="http://www.w3.org/1999/xlink">
<g><path style="opacity:0.012" fill="#fefffe" d="M 172.5,5.5 C 171.761,5.63101 171.094,5.46434 170.5,5C 171.437,4.30831 172.103,4.47498 172.5,5.5 Z"/></g>
<g><path style="opacity:0.016" fill="#fefffe" d="M 177.5,5.5 C 177.897,4.47498 178.563,4.30831 179.5,5C 178.906,5.46434 178.239,5.63101 177.5,5.5 Z"/></g>
<g><path style="opacity:0.964" fill="#fefefe" d="M 172.5,5.5 C 175.167,5.83333 177.833,6.16667 180.5,6.5C 182.181,8.00751 184.181,9.00751 186.5,9.5C 189.088,11.6246 192.088,12.9579 195.5,13.5C 195.842,14.3382 196.508,14.6716 197.5,14.5C 197.842,15.3382 198.508,15.6716 199.5,15.5C 200.514,16.6737 201.847,17.3404 203.5,17.5C 204.514,18.6737 205.847,19.3404 207.5,19.5C 207.842,20.3382 208.508,20.6716 209.5,20.5C 209.842,21.3382 210.508,21.6716 211.5,21.5C 214.167,24.1667 216.833,24.1667 219.5,21.5C 221.819,21.0075 223.819,20.0075 225.5,18.5C 230.251,17.2895 234.584,15.2895 238.5,12.5C 242.578,11.2981 246.578,9.79806 250.5,8C 254.887,7.29375 259.22,7.46042 263.5,8.5C 265.142,9.80299 266.809,11.1363 268.5,12.5C 268.427,14.0269 269.094,15.0269 270.5,15.5C 270.66,17.153 271.326,18.4863 272.5,19.5C 272.75,21.674 273.75,23.3406 275.5,24.5C 275.328,25.4916 275.662,26.1583 276.5,26.5C 276.992,28.8185 277.992,30.8185 279.5,32.5C 279.427,34.0269 280.094,35.0269 281.5,35.5C 281.328,36.4916 281.662,37.1583 282.5,37.5C 282.328,38.4916 282.662,39.1583 283.5,39.5C 283.66,41.153 284.326,42.4863 285.5,43.5C 285.751,45.1703 286.418,46.6703 287.5,48C 292.045,49.5423 296.711,50.3757 301.5,50.5C 302.919,51.4511 304.585,51.7845 306.5,51.5C 307.919,52.4511 309.585,52.7845 311.5,52.5C 312.919,53.4511 314.585,53.7845 316.5,53.5C 317.919,54.4511 319.585,54.7845 321.5,54.5C 322.568,55.4345 323.901,55.7678 325.5,55.5C 326.514,56.6737 327.847,57.3404 329.5,57.5C 331.167,59.8333 333.167,61.8333 335.5,63.5C 335.328,64.4916 335.662,65.1583 336.5,65.5C 336.263,66.791 336.596,67.791 337.5,68.5C 336.833,76.1667 336.167,83.8333 335.5,91.5C 334.199,95.9426 333.532,100.609 333.5,105.5C 332.371,107.628 332.204,109.961 333,112.5C 337.036,116.704 341.202,120.704 345.5,124.5C 348.436,129.105 352.102,133.105 356.5,136.5C 356.738,138.404 357.738,139.738 359.5,140.5C 359.328,141.492 359.662,142.158 360.5,142.5C 360.263,143.791 360.596,144.791 361.5,145.5C 361.668,149.658 361.002,153.658 359.5,157.5C 358.662,157.842 358.328,158.508 358.5,159.5C 357.833,159.5 357.5,159.833 357.5,160.5C 356.833,160.5 356.5,160.833 356.5,161.5C 355.833,161.5 355.5,161.833 355.5,162.5C 354.833,162.5 354.5,162.833 354.5,163.5C 353.833,163.5 353.5,163.833 353.5,164.5C 350.427,166.569 348.094,169.236 346.5,172.5C 345.833,172.5 345.5,172.833 345.5,173.5C 344.833,173.5 344.5,173.833 344.5,174.5C 343.833,174.5 343.5,174.833 343.5,175.5C 342.833,175.5 342.5,175.833 342.5,176.5C 341.833,176.5 341.5,176.833 341.5,177.5C 340.833,177.5 340.5,177.833 340.5,178.5C 339.833,178.5 339.5,178.833 339.5,179.5C 338.833,179.5 338.5,179.833 338.5,180.5C 337.833,180.5 337.5,180.833 337.5,181.5C 336.833,181.5 336.5,181.833 336.5,182.5C 335.833,182.5 335.5,182.833 335.5,183.5C 334.833,183.5 334.5,183.833 334.5,184.5C 333.833,184.5 333.5,184.833 333.5,185.5C 332.609,186.261 331.942,187.261 331.5,188.5C 334.242,202.757 335.575,217.09 335.5,231.5C 334.167,232.167 334.167,232.833 335.5,233.5C 334.1,234.1 333.1,235.1 332.5,236.5C 331.833,236.5 331.5,236.833 331.5,237.5C 330.833,237.5 330.5,237.833 330.5,238.5C 329.833,238.5 329.5,238.833 329.5,239.5C 326.978,240.665 326.978,241.998 329.5,243.5C 329.66,245.153 330.326,246.486 331.5,247.5C 331.427,249.027 332.094,250.027 333.5,250.5C 333.66,252.153 334.326,253.486 335.5,254.5C 335.427,256.027 336.094,257.027 337.5,257.5C 337.66,259.153 338.326,260.486 339.5,261.5C 339.427,263.027 340.094,264.027 341.5,264.5C 341.328,265.492 341.662,266.158 342.5,266.5C 342.328,267.492 342.662,268.158 343.5,268.5C 343.427,270.027 344.094,271.027 345.5,271.5C 345.328,272.492 345.662,273.158 346.5,273.5C 346.66,275.153 347.326,276.486 348.5,277.5C 348.427,279.027 349.094,280.027 350.5,280.5C 350.66,282.153 351.326,283.486 352.5,284.5C 352.427,286.027 353.094,287.027 354.5,287.5C 354.66,289.153 355.326,290.486 356.5,291.5C 356.427,293.027 357.094,294.027 358.5,294.5C 358.66,296.153 359.326,297.486 360.5,298.5C 360.427,300.027 361.094,301.027 362.5,301.5C 362.328,302.492 362.662,303.158 363.5,303.5C 363.328,304.492 363.662,305.158 364.5,305.5C 364.427,307.027 365.094,308.027 366.5,308.5C 366.328,309.492 366.662,310.158 367.5,310.5C 367.328,311.492 367.662,312.158 368.5,312.5C 368.427,314.027 369.094,315.027 370.5,315.5C 370.328,316.492 370.662,317.158 371.5,317.5C 371.328,318.492 371.662,319.158 372.5,319.5C 372.427,321.027 373.094,322.027 374.5,322.5C 374.328,323.492 374.662,324.158 375.5,324.5C 375.328,325.492 375.662,326.158 376.5,326.5C 376.427,328.027 377.094,329.027 378.5,329.5C 378.328,330.492 378.662,331.158 379.5,331.5C 379.328,332.492 379.662,333.158 380.5,333.5C 380.427,335.027 381.094,336.027 382.5,336.5C 382.328,337.492 382.662,338.158 383.5,338.5C 383.328,339.492 383.662,340.158 384.5,340.5C 385.487,343.146 386.487,345.812 387.5,348.5C 386.754,349.736 386.421,351.07 386.5,352.5C 385.833,352.5 385.5,352.833 385.5,353.5C 384.5,353.833 383.833,354.5 383.5,355.5C 381.821,355.892 380.154,356.392 378.5,357C 356.477,356.842 334.81,357.675 313.5,359.5C 312.662,359.842 312.328,360.508 312.5,361.5C 311.662,361.842 311.328,362.508 311.5,363.5C 310.662,363.842 310.328,364.508 310.5,365.5C 309.094,365.973 308.427,366.973 308.5,368.5C 307.662,368.842 307.328,369.508 307.5,370.5C 306.662,370.842 306.328,371.508 306.5,372.5C 304.75,373.659 303.75,375.326 303.5,377.5C 302.662,377.842 302.328,378.508 302.5,379.5C 301.662,379.842 301.328,380.508 301.5,381.5C 300.094,381.973 299.427,382.973 299.5,384.5C 298.662,384.842 298.328,385.508 298.5,386.5C 297.662,386.842 297.328,387.508 297.5,388.5C 296.662,388.842 296.328,389.508 296.5,390.5C 295.094,390.973 294.427,391.973 294.5,393.5C 293.662,393.842 293.328,394.508 293.5,395.5C 292.662,395.842 292.328,396.508 292.5,397.5C 291.662,397.842 291.328,398.508 291.5,399.5C 290.094,399.973 289.427,400.973 289.5,402.5C 288.662,402.842 288.328,403.508 288.5,404.5C 287.662,404.842 287.328,405.508 287.5,406.5C 286.662,406.842 286.328,407.508 286.5,408.5C 285.167,409.167 284.167,410.167 283.5,411.5C 282.833,411.5 282.5,411.833 282.5,412.5C 279.833,413.833 277.167,413.833 274.5,412.5C 272.5,411.167 270.833,409.5 269.5,407.5C 269.672,406.508 269.338,405.842 268.5,405.5C 268.573,403.973 267.906,402.973 266.5,402.5C 266.672,401.508 266.338,400.842 265.5,400.5C 265.25,398.326 264.25,396.659 262.5,395.5C 262.672,394.508 262.338,393.842 261.5,393.5C 261.25,391.326 260.25,389.659 258.5,388.5C 258.672,387.508 258.338,386.842 257.5,386.5C 256.89,384.566 255.89,382.899 254.5,381.5C 254.672,380.508 254.338,379.842 253.5,379.5C 253.573,377.973 252.906,376.973 251.5,376.5C 251.672,375.508 251.338,374.842 250.5,374.5C 250.25,372.326 249.25,370.659 247.5,369.5C 247.672,368.508 247.338,367.842 246.5,367.5C 245.89,365.566 244.89,363.899 243.5,362.5C 243.672,361.508 243.338,360.842 242.5,360.5C 242.573,358.973 241.906,357.973 240.5,357.5C 240.672,356.508 240.338,355.842 239.5,355.5C 239.25,353.326 238.25,351.659 236.5,350.5C 236.672,349.508 236.338,348.842 235.5,348.5C 234.89,346.566 233.89,344.899 232.5,343.5C 232.672,342.508 232.338,341.842 231.5,341.5C 231.573,339.973 230.906,338.973 229.5,338.5C 229.672,337.508 229.338,336.842 228.5,336.5C 228.25,334.326 227.25,332.659 225.5,331.5C 225.672,330.508 225.338,329.842 224.5,329.5C 224.25,327.326 223.25,325.659 221.5,324.5C 221.672,323.508 221.338,322.842 220.5,322.5C 220.573,320.973 219.906,319.973 218.5,319.5C 218.672,318.508 218.338,317.842 217.5,317.5C 217.672,316.508 217.338,315.842 216.5,315.5C 216.672,314.508 216.338,313.842 215.5,313.5C 215.5,312.833 215.167,312.5 214.5,312.5C 214.167,309.833 213.833,309.833 213.5,312.5C 212.662,312.842 212.328,313.508 212.5,314.5C 211.662,314.842 211.328,315.508 211.5,316.5C 210.833,316.5 210.5,316.833 210.5,317.5C 209.662,317.842 209.328,318.508 209.5,319.5C 208.662,319.842 208.328,320.508 208.5,321.5C 207.094,321.973 206.427,322.973 206.5,324.5C 205.662,324.842 205.328,325.508 205.5,326.5C 204.094,326.973 203.427,327.973 203.5,329.5C 202.662,329.842 202.328,330.508 202.5,331.5C 201.662,331.842 201.328,332.508 201.5,333.5C 200.094,333.973 199.427,334.973 199.5,336.5C 198.662,336.842 198.328,337.508 198.5,338.5C 197.094,338.973 196.427,339.973 196.5,341.5C 195.662,341.842 195.328,342.508 195.5,343.5C 194.662,343.842 194.328,344.508 194.5,345.5C 193.833,345.5 193.5,345.833 193.5,346.5C 192.662,346.842 192.328,347.508 192.5,348.5C 191.662,348.842 191.328,349.508 191.5,350.5C 190.094,350.973 189.427,351.973 189.5,353.5C 188.662,353.842 188.328,354.508 188.5,355.5C 187.094,355.973 186.427,356.973 186.5,358.5C 185.662,358.842 185.328,359.508 185.5,360.5C 184.662,360.842 184.328,361.508 184.5,362.5C 183.094,362.973 182.427,363.973 182.5,365.5C 181.662,365.842 181.328,366.508 181.5,367.5C 180.094,367.973 179.427,368.973 179.5,370.5C 178.662,370.842 178.328,371.508 178.5,372.5C 177.662,372.842 177.328,373.508 177.5,374.5C 176.833,374.5 176.5,374.833 176.5,375.5C 175.662,375.842 175.328,376.508 175.5,377.5C 174.662,377.842 174.328,378.508 174.5,379.5C 173.094,379.973 172.427,380.973 172.5,382.5C 171.662,382.842 171.328,383.508 171.5,384.5C 170.094,384.973 169.427,385.973 169.5,387.5C 168.662,387.842 168.328,388.508 168.5,389.5C 167.662,389.842 167.328,390.508 167.5,391.5C 166.094,391.973 165.427,392.973 165.5,394.5C 164.662,394.842 164.328,395.508 164.5,396.5C 163.094,396.973 162.427,397.973 162.5,399.5C 161.662,399.842 161.328,400.508 161.5,401.5C 160.662,401.842 160.328,402.508 160.5,403.5C 159.094,403.973 158.427,404.973 158.5,406.5C 157.662,406.842 157.328,407.508 157.5,408.5C 156.833,408.5 156.5,408.833 156.5,409.5C 155.833,409.5 155.5,409.833 155.5,410.5C 152.473,411.986 149.473,412.319 146.5,411.5C 146.158,410.662 145.492,410.328 144.5,410.5C 143.974,408.77 142.974,407.436 141.5,406.5C 141.672,405.508 141.338,404.842 140.5,404.5C 140.25,402.326 139.25,400.659 137.5,399.5C 137.672,398.508 137.338,397.842 136.5,397.5C 136.573,395.973 135.906,394.973 134.5,394.5C 134.672,393.508 134.338,392.842 133.5,392.5C 133.25,390.326 132.25,388.659 130.5,387.5C 130.672,386.508 130.338,385.842 129.5,385.5C 129.25,383.326 128.25,381.659 126.5,380.5C 126.672,379.508 126.338,378.842 125.5,378.5C 125.25,376.326 124.25,374.659 122.5,373.5C 122.672,372.508 122.338,371.842 121.5,371.5C 121.25,369.326 120.25,367.659 118.5,366.5C 118.672,365.508 118.338,364.842 117.5,364.5C 117.25,362.326 116.25,360.659 114.5,359.5C 92.8587,357.511 70.8587,356.844 48.5,357.5C 46.5248,355.863 44.5248,354.196 42.5,352.5C 41.1268,348.692 41.4602,345.026 43.5,341.5C 44.3382,341.158 44.6716,340.492 44.5,339.5C 45.3382,339.158 45.6716,338.492 45.5,337.5C 47.588,335.664 48.9213,333.331 49.5,330.5C 51.588,328.664 52.9213,326.331 53.5,323.5C 55.588,321.664 56.9213,319.331 57.5,316.5C 59.588,314.664 60.9213,312.331 61.5,309.5C 62.3382,309.158 62.6716,308.492 62.5,307.5C 63.9063,307.027 64.573,306.027 64.5,304.5C 65.3382,304.158 65.6716,303.492 65.5,302.5C 66.3382,302.158 66.6716,301.492 66.5,300.5C 68.588,298.664 69.9213,296.331 70.5,293.5C 72.588,291.664 73.9213,289.331 74.5,286.5C 75.3382,286.158 75.6716,285.492 75.5,284.5C 77.588,282.664 78.9213,280.331 79.5,277.5C 81.588,275.664 82.9213,273.331 83.5,270.5C 84.3382,270.158 84.6716,269.492 84.5,268.5C 85.9063,268.027 86.573,267.027 86.5,265.5C 87.3382,265.158 87.6716,264.492 87.5,263.5C 88.3382,263.158 88.6716,262.492 88.5,261.5C 90.588,259.664 91.9213,257.331 92.5,254.5C 94.588,252.664 95.9213,250.331 96.5,247.5C 97.3382,247.158 97.6716,246.492 97.5,245.5C 99.3056,243.911 100.639,241.911 101.5,239.5C 100.995,238.081 99.9953,237.415 98.5,237.5C 96.8036,235.475 95.137,233.475 93.5,231.5C 92.5308,228.754 91.8641,225.921 91.5,223C 92.5898,216.873 93.2565,210.706 93.5,204.5C 94.4682,202.393 94.8016,200.059 94.5,197.5C 95.4682,195.393 95.8016,193.059 95.5,190.5C 96.8333,188.167 96.8333,185.833 95.5,183.5C 92.1383,179.808 88.8049,176.141 85.5,172.5C 81.1386,167.807 76.8052,163.141 72.5,158.5C 71.4884,157.128 70.4884,155.795 69.5,154.5C 66.7172,148.272 67.2172,142.272 71,136.5C 78.9692,127.53 87.3025,118.863 96,110.5C 96.6377,109.391 97.1377,108.225 97.5,107C 95.9426,95.6813 94.2759,84.5146 92.5,73.5C 92.4744,68.9146 93.4744,64.5813 95.5,60.5C 96.9063,60.0269 97.573,59.0269 97.5,57.5C 100.667,55.4478 104,53.7812 107.5,52.5C 111.425,52.5701 115.091,51.9034 118.5,50.5C 124.422,50.2365 130.089,49.2365 135.5,47.5C 137.527,47.6621 139.527,47.4955 141.5,47C 142.756,46.5831 143.423,45.7498 143.5,44.5C 144.338,44.1583 144.672,43.4916 144.5,42.5C 146.588,40.6644 147.921,38.3311 148.5,35.5C 150.588,33.6644 151.921,31.3311 152.5,28.5C 153.338,28.1583 153.672,27.4916 153.5,26.5C 155.588,24.6644 156.921,22.3311 157.5,19.5C 158.338,19.1583 158.672,18.4916 158.5,17.5C 159.906,17.0269 160.573,16.0269 160.5,14.5C 163.781,10.5277 167.781,7.52774 172.5,5.5 Z"/></g>
<g><path style="opacity:0.008" fill="#fefffe" d="M 180.5,6.5 C 180.897,5.47498 181.563,5.30831 182.5,6C 181.906,6.46434 181.239,6.63101 180.5,6.5 Z"/></g>
<g><path style="opacity:0.01" fill="#fefffe" d="M 251.5,6.5 C 252.251,5.42654 253.251,5.25988 254.5,6C 253.552,6.48278 252.552,6.64945 251.5,6.5 Z"/></g>
<g><path style="opacity:0.01" fill="#fefffe" d="M 257.5,6.5 C 258.251,5.42654 259.251,5.25988 260.5,6C 259.552,6.48278 258.552,6.64945 257.5,6.5 Z"/></g>
<g><path style="opacity:0.008" fill="#fefffe" d="M 183.5,6.5 C 184.833,7.16667 184.833,7.16667 183.5,6.5 Z"/></g>
<g><path style="opacity:0.008" fill="#fefffe" d="M 248.5,6.5 C 249.833,7.16667 249.833,7.16667 248.5,6.5 Z"/></g>
<g><path style="opacity:0.008" fill="#fefffe" d="M 164.5,7.5 C 165.833,8.16667 165.833,8.16667 164.5,7.5 Z"/></g>
<g><path style="opacity:0.008" fill="#fefffe" d="M 186.5,8.5 C 185.833,7.16667 185.833,7.16667 186.5,8.5 Z"/></g>
<g><path style="opacity:0.008" fill="#fefffe" d="M 263.5,7.5 C 264.833,8.16667 264.833,8.16667 263.5,7.5 Z"/></g>
<g><path style="opacity:0.008" fill="#fefffe" d="M 186.5,9.5 C 186.5,9.16667 186.5,8.83333 186.5,8.5C 189.167,8.83333 189.167,9.16667 186.5,9.5 Z"/></g>
<g><path style="opacity:0.008" fill="#fefffe" d="M 189.5,9.5 C 190.833,10.1667 190.833,10.1667 189.5,9.5 Z"/></g>
<g><path style="opacity:0.008" fill="#fefffe" d="M 191.5,10.5 C 192.833,11.1667 192.833,11.1667 191.5,10.5 Z"/></g>
<g><path style="opacity:0.008" fill="#fefffe" d="M 239.5,10.5 C 240.833,11.1667 240.833,11.1667 239.5,10.5 Z"/></g>
<g><path style="opacity:0.008" fill="#fefffe" d="M 193.5,11.5 C 194.833,12.1667 194.833,12.1667 193.5,11.5 Z"/></g>
<g><path style="opacity:0.016" fill="#fefffe" d="M 238.5,12.5 C 237.833,11.1667 237.833,11.1667 238.5,12.5 Z"/></g>
<g><path style="opacity:0.008" fill="#fefffe" d="M 269.5,12.5 C 268.833,11.1667 268.833,11.1667 269.5,12.5 Z"/></g>
<g><path style="opacity:0.008" fill="#fefffe" d="M 195.5,12.5 C 196.833,13.1667 196.833,13.1667 195.5,12.5 Z"/></g>
<g><path style="opacity:0.008" fill="#fefffe" d="M 269.5,12.5 C 270.833,13.1667 270.833,13.1667 269.5,12.5 Z"/></g>
<g><path style="opacity:0.008" fill="#fefffe" d="M 160.5,14.5 C 159.833,13.1667 159.833,13.1667 160.5,14.5 Z"/></g>
<g><path style="opacity:0.016" fill="#fefffe" d="M 197.5,13.5 C 198.833,14.1667 198.833,14.1667 197.5,13.5 Z"/></g>
<g><path style="opacity:0.008" fill="#fefffe" d="M 159.5,14.5 C 158.833,15.1667 158.833,15.1667 159.5,14.5 Z"/></g>
<g><path style="opacity:0.008" fill="#fefffe" d="M 199.5,14.5 C 200.833,15.1667 200.833,15.1667 199.5,14.5 Z"/></g>
<g><path style="opacity:0.016" fill="#fefffe" d="M 270.5,14.5 C 271.833,15.1667 271.833,15.1667 270.5,14.5 Z"/></g>
<g><path style="opacity:0.008" fill="#fefffe" d="M 158.5,17.5 C 157.833,16.1667 157.833,16.1667 158.5,17.5 Z"/></g>
<g><path style="opacity:0.008" fill="#fefffe" d="M 203.5,16.5 C 204.833,17.1667 204.833,17.1667 203.5,16.5 Z"/></g>
<g><path style="opacity:0.008" fill="#fefffe" d="M 226.5,16.5 C 227.833,17.1667 227.833,17.1667 226.5,16.5 Z"/></g>
<g><path style="opacity:0.008" fill="#fefffe" d="M 225.5,18.5 C 224.833,17.1667 224.833,17.1667 225.5,18.5 Z"/></g>
<g><path style="opacity:0.008" fill="#fefffe" d="M 273.5,19.5 C 273.167,19.5 272.833,19.5 272.5,19.5C 272.833,16.8333 273.167,16.8333 273.5,19.5 Z"/></g>
<g><path style="opacity:0.016" fill="#fefffe" d="M 157.5,19.5 C 156.833,18.1667 156.833,18.1667 157.5,19.5 Z"/></g>
<g><path style="opacity:0.008" fill="#fefffe" d="M 207.5,18.5 C 208.833,19.1667 208.833,19.1667 207.5,18.5 Z"/></g>
<g><path style="opacity:0.008" fill="#fefffe" d="M 209.5,19.5 C 210.833,20.1667 210.833,20.1667 209.5,19.5 Z"/></g>
<g><path style="opacity:0.008" fill="#fefffe" d="M 273.5,19.5 C 274.833,20.1667 274.833,20.1667 273.5,19.5 Z"/></g>
<g><path style="opacity:0.008" fill="#fefffe" d="M 211.5,20.5 C 212.833,21.1667 212.833,21.1667 211.5,20.5 Z"/></g>
<g><path style="opacity:0.008" fill="#fefffe" d="M 219.5,21.5 C 218.833,20.1667 218.833,20.1667 219.5,21.5 Z"/></g>
<g><path style="opacity:0.008" fill="#fefffe" d="M 274.5,21.5 C 275.833,22.1667 275.833,22.1667 274.5,21.5 Z"/></g>
<g><path style="opacity:0.008" fill="#fefffe" d="M 153.5,23.5 C 154.833,24.1667 154.833,24.1667 153.5,23.5 Z"/></g>
<g><path style="opacity:0.016" fill="#fefffe" d="M 275.5,23.5 C 276.833,24.1667 276.833,24.1667 275.5,23.5 Z"/></g>
<g><path style="opacity:0.008" fill="#fefffe" d="M 153.5,26.5 C 152.833,25.1667 152.833,25.1667 153.5,26.5 Z"/></g>
<g><path style="opacity:1" fill="#fbed30" d="M 174.5,23.5 C 187.949,29.6419 201.449,35.6419 215,41.5C 228.651,36.6773 241.984,31.0106 255,24.5C 261.307,33.095 266.641,42.4284 271,52.5C 273.193,58.6926 277.359,62.8593 283.5,65C 295.742,67.7486 308.075,69.9152 320.5,71.5C 318.96,86.1905 317.46,100.857 316,115.5C 316.561,117.725 317.561,119.725 319,121.5C 327.685,130.684 336.185,140.017 344.5,149.5C 335.184,159.983 325.684,170.317 316,180.5C 315.952,195.919 317.118,211.252 319.5,226.5C 309.129,227.674 298.796,229.174 288.5,231C 282.328,231.503 277.162,234.003 273,238.5C 266.738,250.032 260.238,261.365 253.5,272.5C 240.62,265.391 227.286,259.391 213.5,254.5C 199.95,259.94 186.617,265.94 173.5,272.5C 167.138,259.605 160.138,247.105 152.5,235C 150.725,233.561 148.725,232.561 146.5,232C 133.534,229.979 120.7,227.479 108,224.5C 109.794,209.592 111.127,194.592 112,179.5C 111.333,178.167 110.667,176.833 110,175.5C 101.315,166.316 92.8154,156.983 84.5,147.5C 91.784,138.714 99.6173,130.381 108,122.5C 110.442,119.952 112.108,116.952 113,113.5C 112.083,99.1634 111.083,84.8301 110,70.5C 122.72,67.6229 135.553,65.1229 148.5,63C 151.902,61.6001 154.736,59.4335 157,56.5C 162.859,45.4462 168.692,34.4462 174.5,23.5 Z"/></g>
<g><path style="opacity:0.016" fill="#fefffe" d="M 276.5,25.5 C 277.833,26.1667 277.833,26.1667 276.5,25.5 Z"/></g>
<g><path style="opacity:0.016" fill="#fefffe" d="M 152.5,28.5 C 151.833,27.1667 151.833,27.1667 152.5,28.5 Z"/></g>
<g><path style="opacity:0.008" fill="#fefffe" d="M 280.5,32.5 C 280.167,32.5 279.833,32.5 279.5,32.5C 279.833,29.8333 280.167,29.8333 280.5,32.5 Z"/></g>
<g><path style="opacity:0.008" fill="#fefffe" d="M 148.5,32.5 C 149.833,33.1667 149.833,33.1667 148.5,32.5 Z"/></g>
<g><path style="opacity:0.008" fill="#fefffe" d="M 280.5,32.5 C 281.833,33.1667 281.833,33.1667 280.5,32.5 Z"/></g>
<g><path style="opacity:0.016" fill="#fefffe" d="M 148.5,35.5 C 147.833,34.1667 147.833,34.1667 148.5,35.5 Z"/></g>
<g><path style="opacity:0.008" fill="#fefffe" d="M 281.5,34.5 C 282.833,35.1667 282.833,35.1667 281.5,34.5 Z"/></g>
<g><path style="opacity:0.016" fill="#fefffe" d="M 282.5,36.5 C 283.833,37.1667 283.833,37.1667 282.5,36.5 Z"/></g>
<g><path style="opacity:0.016" fill="#fefffe" d="M 283.5,38.5 C 284.833,39.1667 284.833,39.1667 283.5,38.5 Z"/></g>
<g><path style="opacity:0.008" fill="#fefffe" d="M 144.5,39.5 C 145.833,40.1667 145.833,40.1667 144.5,39.5 Z"/></g>
<g><path style="opacity:0.008" fill="#fefffe" d="M 144.5,42.5 C 143.833,41.1667 143.833,41.1667 144.5,42.5 Z"/></g>
<g><path style="opacity:0.008" fill="#fefffe" d="M 286.5,43.5 C 286.167,43.5 285.833,43.5 285.5,43.5C 285.833,40.8333 286.167,40.8333 286.5,43.5 Z"/></g>
<g><path style="opacity:0.016" fill="#fefffe" d="M 143.5,44.5 C 142.833,43.1667 142.833,43.1667 143.5,44.5 Z"/></g>
<g><path style="opacity:0.008" fill="#fefffe" d="M 286.5,43.5 C 287.833,44.1667 287.833,44.1667 286.5,43.5 Z"/></g>
<g><path style="opacity:0.016" fill="#fefffe" d="M 142.5,44.5 C 141.833,45.1667 141.833,45.1667 142.5,44.5 Z"/></g>
<g><path style="opacity:0.01" fill="#fefffe" d="M 137.5,46.5 C 138.251,45.4265 139.251,45.2599 140.5,46C 139.552,46.4828 138.552,46.6495 137.5,46.5 Z"/></g>
<g><path style="opacity:0.008" fill="#fefffe" d="M 288.5,46.5 C 287.833,45.1667 287.833,45.1667 288.5,46.5 Z"/></g>
<g><path style="opacity:0.01" fill="#fefffe" d="M 135.5,47.5 C 134.127,47.6567 132.793,47.49 131.5,47C 133.066,46.235 134.399,46.4017 135.5,47.5 Z"/></g>
<g><path style="opacity:0.008" fill="#fefffe" d="M 288.5,46.5 C 289.833,47.1667 289.833,47.1667 288.5,46.5 Z"/></g>
<g><path style="opacity:0.013" fill="#fefffe" d="M 126.5,48.5 C 127.251,47.4265 128.251,47.2599 129.5,48C 128.552,48.4828 127.552,48.6495 126.5,48.5 Z"/></g>
<g><path style="opacity:0.01" fill="#fefffe" d="M 291.5,48.5 C 292.251,47.4265 293.251,47.2599 294.5,48C 293.552,48.4828 292.552,48.6495 291.5,48.5 Z"/></g>
<g><path style="opacity:0.01" fill="#fefffe" d="M 120.5,49.5 C 121.251,48.4265 122.251,48.2599 123.5,49C 122.552,49.4828 121.552,49.6495 120.5,49.5 Z"/></g>
<g><path style="opacity:0.013" fill="#fefffe" d="M 296.5,49.5 C 297.251,48.4265 298.251,48.2599 299.5,49C 298.552,49.4828 297.552,49.6495 296.5,49.5 Z"/></g>
<g><path style="opacity:0.01" fill="#fefffe" d="M 118.5,50.5 C 117.448,50.6495 116.448,50.4828 115.5,50C 116.749,49.2599 117.749,49.4265 118.5,50.5 Z"/></g>
<g><path style="opacity:0.01" fill="#fefffe" d="M 301.5,50.5 C 302.601,49.4017 303.934,49.235 305.5,50C 304.207,50.49 302.873,50.6567 301.5,50.5 Z"/></g>
<g><path style="opacity:0.013" fill="#fefffe" d="M 109.5,51.5 C 110.251,50.4265 111.251,50.2599 112.5,51C 111.552,51.4828 110.552,51.6495 109.5,51.5 Z"/></g>
<g><path style="opacity:0.01" fill="#fefffe" d="M 306.5,51.5 C 307.251,50.4265 308.251,50.2599 309.5,51C 308.552,51.4828 307.552,51.6495 306.5,51.5 Z"/></g>
<g><path style="opacity:0.012" fill="#fefffe" d="M 107.5,52.5 C 106.761,52.631 106.094,52.4643 105.5,52C 106.437,51.3083 107.103,51.475 107.5,52.5 Z"/></g>
<g><path style="opacity:0.01" fill="#fefffe" d="M 311.5,52.5 C 312.601,51.4017 313.934,51.235 315.5,52C 314.207,52.49 312.873,52.6567 311.5,52.5 Z"/></g>
<g><path style="opacity:0.008" fill="#fefffe" d="M 102.5,52.5 C 103.833,53.1667 103.833,53.1667 102.5,52.5 Z"/></g>
<g><path style="opacity:0.01" fill="#fefffe" d="M 316.5,53.5 C 317.251,52.4265 318.251,52.2599 319.5,53C 318.552,53.4828 317.552,53.6495 316.5,53.5 Z"/></g>
<g><path style="opacity:0.01" fill="#fefffe" d="M 321.5,54.5 C 322.251,53.4265 323.251,53.2599 324.5,54C 323.552,54.4828 322.552,54.6495 321.5,54.5 Z"/></g>
<g><path style="opacity:0.008" fill="#fefffe" d="M 325.5,55.5 C 325.897,54.475 326.563,54.3083 327.5,55C 326.906,55.4643 326.239,55.631 325.5,55.5 Z"/></g>
<g><path style="opacity:0.008" fill="#fefffe" d="M 329.5,56.5 C 328.833,55.1667 328.833,55.1667 329.5,56.5 Z"/></g>
<g><path style="opacity:0.008" fill="#fefffe" d="M 97.5,57.5 C 96.8333,56.1667 96.8333,56.1667 97.5,57.5 Z"/></g>
<g><path style="opacity:0.008" fill="#fefffe" d="M 329.5,56.5 C 330.833,57.1667 330.833,57.1667 329.5,56.5 Z"/></g>
<g><path style="opacity:0.008" fill="#fefffe" d="M 96.5,57.5 C 95.8333,58.1667 95.8333,58.1667 96.5,57.5 Z"/></g>
<g><path style="opacity:0.008" fill="#fefffe" d="M 333.5,59.5 C 332.833,58.1667 332.833,58.1667 333.5,59.5 Z"/></g>
<g><path style="opacity:0.008" fill="#fefffe" d="M 95.5,60.5 C 94.8333,59.1667 94.8333,59.1667 95.5,60.5 Z"/></g>
<g><path style="opacity:0.008" fill="#fefffe" d="M 333.5,59.5 C 334.833,60.1667 334.833,60.1667 333.5,59.5 Z"/></g>
<g><path style="opacity:0.008" fill="#fefffe" d="M 94.5,60.5 C 93.8333,61.1667 93.8333,61.1667 94.5,60.5 Z"/></g>
<g><path style="opacity:0.008" fill="#fefffe" d="M 92.5,62.5 C 93.8333,63.1667 93.8333,63.1667 92.5,62.5 Z"/></g>
<g><path style="opacity:0.016" fill="#fefffe" d="M 335.5,62.5 C 336.833,63.1667 336.833,63.1667 335.5,62.5 Z"/></g>
<g><path style="opacity:0.008" fill="#fefffe" d="M 336.5,64.5 C 337.833,65.1667 337.833,65.1667 336.5,64.5 Z"/></g>
<g><path style="opacity:0.016" fill="#fefffe" d="M 91.5,65.5 C 92.8333,66.1667 92.8333,66.1667 91.5,65.5 Z"/></g>
<g><path style="opacity:0.012" fill="#fefffe" d="M 337.5,68.5 C 337.369,67.7611 337.536,67.0944 338,66.5C 338.692,67.4368 338.525,68.1034 337.5,68.5 Z"/></g>
<g><path style="opacity:1" fill="#fdfefd" d="M 200.5,68.5 C 242.133,65.0503 271.633,82.0503 289,119.5C 300.689,159.436 289.855,191.603 256.5,216C 228.069,231.234 199.735,231.234 171.5,216C 137.361,190.912 126.861,158.079 140,117.5C 151.986,91.0095 172.153,74.6761 200.5,68.5 Z"/></g>
<g><path style="opacity:0.008" fill="#fefffe" d="M 338.5,70.5 C 339.573,71.2506 339.74,72.2506 339,73.5C 338.517,72.552 338.351,71.552 338.5,70.5 Z"/></g>
<g><path style="opacity:0.011" fill="#fefffe" d="M 92.5,73.5 C 92.6602,75.1992 92.4935,76.8659 92,78.5C 91.2204,76.6131 91.3871,74.9464 92.5,73.5 Z"/></g>
<g><path style="opacity:0.013" fill="#fefffe" d="M 337.5,77.5 C 338.573,78.2506 338.74,79.2506 338,80.5C 337.517,79.552 337.351,78.552 337.5,77.5 Z"/></g>
<g><path style="opacity:0.012" fill="#fefffe" d="M 92.5,82.5 C 93.5983,83.6009 93.765,84.9343 93,86.5C 92.51,85.2068 92.3433,83.8734 92.5,82.5 Z"/></g>
<g><path style="opacity:1" fill="#74beb2" d="M 200.5,84.5 C 239.009,80.8233 264.509,97.1566 277,133.5C 281.856,166.956 269.356,191.456 239.5,207C 206.858,218.116 180.358,209.949 160,182.5C 142.462,149.104 147.962,120.271 176.5,96C 183.932,90.7825 191.932,86.9491 200.5,84.5 Z"/></g>
<g><path style="opacity:0.012" fill="#fefffe" d="M 336.5,84.5 C 337.598,85.6009 337.765,86.9343 337,88.5C 336.51,87.2068 336.343,85.8734 336.5,84.5 Z"/></g>
<g><path style="opacity:0.012" fill="#fefffe" d="M 93.5,90.5 C 94.5983,91.6009 94.765,92.9343 94,94.5C 93.51,93.2068 93.3433,91.8734 93.5,90.5 Z"/></g>
<g><path style="opacity:0.012" fill="#fefffe" d="M 335.5,91.5 C 336.598,92.6009 336.765,93.9343 336,95.5C 335.51,94.2068 335.343,92.8734 335.5,91.5 Z"/></g>
<g><path style="opacity:0.012" fill="#fefffe" d="M 94.5,98.5 C 95.5983,99.6009 95.765,100.934 95,102.5C 94.51,101.207 94.3433,99.8734 94.5,98.5 Z"/></g>
<g><path style="opacity:0.013" fill="#fefffe" d="M 334.5,99.5 C 335.573,100.251 335.74,101.251 335,102.5C 334.517,101.552 334.351,100.552 334.5,99.5 Z"/></g>
<g><path style="opacity:0.01" fill="#fefffe" d="M 333.5,105.5 C 334.461,107.265 334.795,109.265 334.5,111.5C 333.539,109.735 333.205,107.735 333.5,105.5 Z"/></g>
<g><path style="opacity:0.008" fill="#fefffe" d="M 94.5,108.5 C 95.8333,109.167 95.8333,109.167 94.5,108.5 Z"/></g>
<g><path style="opacity:0.008" fill="#fefffe" d="M 334.5,111.5 C 335.833,112.167 335.833,112.167 334.5,111.5 Z"/></g>
<g><path style="opacity:1" fill="#fbfcff" d="M 241.5,117.5 C 250.037,117.201 253.871,121.201 253,129.5C 237.5,146.333 221.333,162.5 204.5,178C 201.217,178.743 198.217,178.076 195.5,176C 188.635,169.469 182.135,162.636 176,155.5C 174.123,148.376 176.79,144.042 184,142.5C 185.627,142.625 187.127,143.125 188.5,144C 192.5,148 196.5,152 200.5,156C 201.167,156.667 201.833,156.667 202.5,156C 215.395,142.937 228.395,130.104 241.5,117.5 Z"/></g>
<g><path style="opacity:0.008" fill="#fefffe" d="M 346.5,124.5 C 345.833,123.167 345.833,123.167 346.5,124.5 Z"/></g>
<g><path style="opacity:0.008" fill="#fefffe" d="M 79.5,124.5 C 80.8333,125.167 80.8333,125.167 79.5,124.5 Z"/></g>
<g><path style="opacity:0.008" fill="#fefffe" d="M 346.5,124.5 C 347.167,124.5 347.5,124.833 347.5,125.5C 347.167,125.167 346.833,124.833 346.5,124.5 Z"/></g>
<g><path style="opacity:0.008" fill="#fefffe" d="M 79.5,125.5 C 78.8333,126.167 78.8333,126.167 79.5,125.5 Z"/></g>
<g><path style="opacity:0.008" fill="#fefffe" d="M 347.5,125.5 C 348.833,126.167 348.833,126.167 347.5,125.5 Z"/></g>
<g><path style="opacity:0.008" fill="#fefffe" d="M 78.5,126.5 C 77.8333,127.167 77.8333,127.167 78.5,126.5 Z"/></g>
<g><path style="opacity:0.008" fill="#fefffe" d="M 77.5,127.5 C 76.8333,128.167 76.8333,128.167 77.5,127.5 Z"/></g>
<g><path style="opacity:0.008" fill="#fefffe" d="M 76.5,128.5 C 75.8333,129.167 75.8333,129.167 76.5,128.5 Z"/></g>
<g><path style="opacity:0.008" fill="#fefffe" d="M 75.5,129.5 C 74.8333,130.167 74.8333,130.167 75.5,129.5 Z"/></g>
<g><path style="opacity:0.008" fill="#fefffe" d="M 74.5,130.5 C 73.8333,131.167 73.8333,131.167 74.5,130.5 Z"/></g>
<g><path style="opacity:0.008" fill="#fefffe" d="M 73.5,131.5 C 72.8333,132.167 72.8333,132.167 73.5,131.5 Z"/></g>
<g><path style="opacity:0.008" fill="#fefffe" d="M 72.5,132.5 C 71.8333,133.167 71.8333,133.167 72.5,132.5 Z"/></g>
<g><path style="opacity:0.008" fill="#fefffe" d="M 357.5,136.5 C 356.833,135.167 356.833,135.167 357.5,136.5 Z"/></g>
<g><path style="opacity:0.008" fill="#fefffe" d="M 68.5,136.5 C 69.8333,137.167 69.8333,137.167 68.5,136.5 Z"/></g>
<g><path style="opacity:0.008" fill="#fefffe" d="M 357.5,136.5 C 358.833,137.167 358.833,137.167 357.5,136.5 Z"/></g>
<g><path style="opacity:0.008" fill="#fefffe" d="M 67.5,138.5 C 68.8333,139.167 68.8333,139.167 67.5,138.5 Z"/></g>
<g><path style="opacity:0.008" fill="#fefffe" d="M 359.5,139.5 C 360.833,140.167 360.833,140.167 359.5,139.5 Z"/></g>
<g><path style="opacity:0.012" fill="#fefffe" d="M 66.5,141.5 C 67.525,141.897 67.6917,142.563 67,143.5C 66.5357,142.906 66.369,142.239 66.5,141.5 Z"/></g>
<g><path style="opacity:0.008" fill="#fefffe" d="M 360.5,141.5 C 361.833,142.167 361.833,142.167 360.5,141.5 Z"/></g>
<g><path style="opacity:0.008" fill="#fefffe" d="M 361.5,145.5 C 361.369,144.761 361.536,144.094 362,143.5C 362.692,144.437 362.525,145.103 361.5,145.5 Z"/></g>
<g><path style="opacity:0.008" fill="#fefffe" d="M 362.5,148.5 C 363.525,148.897 363.692,149.563 363,150.5C 362.536,149.906 362.369,149.239 362.5,148.5 Z"/></g>
<g><path style="opacity:0.008" fill="#fefffe" d="M 66.5,149.5 C 67.525,149.897 67.6917,150.563 67,151.5C 66.5357,150.906 66.369,150.239 66.5,149.5 Z"/></g>
<g><path style="opacity:0.016" fill="#fefffe" d="M 361.5,153.5 C 362.833,154.167 362.833,154.167 361.5,153.5 Z"/></g>
<g><path style="opacity:0.008" fill="#fefffe" d="M 69.5,154.5 C 68.8333,155.167 68.8333,155.167 69.5,154.5 Z"/></g>
<g><path style="opacity:0.008" fill="#fefffe" d="M 360.5,156.5 C 361.833,157.167 361.833,157.167 360.5,156.5 Z"/></g>
<g><path style="opacity:0.008" fill="#fefffe" d="M 359.5,157.5 C 359.833,157.5 360.167,157.5 360.5,157.5C 360.315,158.17 359.981,158.17 359.5,157.5 Z"/></g>
<g><path style="opacity:0.008" fill="#fefffe" d="M 72.5,158.5 C 71.8333,159.167 71.8333,159.167 72.5,158.5 Z"/></g>
<g><path style="opacity:0.008" fill="#fefffe" d="M 358.5,159.5 C 359.833,160.167 359.833,160.167 358.5,159.5 Z"/></g>
<g><path style="opacity:0.016" fill="#fefffe" d="M 357.5,160.5 C 357.833,160.5 358.167,160.5 358.5,160.5C 358.315,161.17 357.981,161.17 357.5,160.5 Z"/></g>
<g><path style="opacity:0.008" fill="#fefffe" d="M 74.5,162.5 C 73.8333,161.167 73.8333,161.167 74.5,162.5 Z"/></g>
<g><path style="opacity:0.016" fill="#fefffe" d="M 356.5,161.5 C 356.833,161.5 357.167,161.5 357.5,161.5C 357.315,162.17 356.981,162.17 356.5,161.5 Z"/></g>
<g><path style="opacity:0.008" fill="#fefffe" d="M 74.5,162.5 C 75.1667,162.5 75.5,162.833 75.5,163.5C 75.1667,163.167 74.8333,162.833 74.5,162.5 Z"/></g>
<g><path style="opacity:0.008" fill="#fefffe" d="M 355.5,162.5 C 355.833,162.5 356.167,162.5 356.5,162.5C 356.315,163.17 355.981,163.17 355.5,162.5 Z"/></g>
<g><path style="opacity:0.008" fill="#fefffe" d="M 75.5,163.5 C 76.8333,164.167 76.8333,164.167 75.5,163.5 Z"/></g>
<g><path style="opacity:0.008" fill="#fefffe" d="M 354.5,163.5 C 354.833,163.5 355.167,163.5 355.5,163.5C 355.315,164.17 354.981,164.17 354.5,163.5 Z"/></g>
<g><path style="opacity:0.008" fill="#fefffe" d="M 353.5,164.5 C 353.833,164.5 354.167,164.5 354.5,164.5C 354.315,165.17 353.981,165.17 353.5,164.5 Z"/></g>
<g><path style="opacity:0.008" fill="#fefffe" d="M 350.5,168.5 C 351.833,169.167 351.833,169.167 350.5,168.5 Z"/></g>
<g><path style="opacity:0.008" fill="#fefffe" d="M 350.5,169.5 C 349.833,170.167 349.833,170.167 350.5,169.5 Z"/></g>
<g><path style="opacity:0.008" fill="#fefffe" d="M 349.5,170.5 C 348.833,171.167 348.833,171.167 349.5,170.5 Z"/></g>
<g><path style="opacity:0.008" fill="#fefffe" d="M 348.5,171.5 C 347.833,172.167 347.833,172.167 348.5,171.5 Z"/></g>
<g><path style="opacity:0.008" fill="#fefffe" d="M 85.5,172.5 C 84.8333,173.167 84.8333,173.167 85.5,172.5 Z"/></g>
<g><path style="opacity:0.008" fill="#fefffe" d="M 346.5,172.5 C 346.833,172.5 347.167,172.5 347.5,172.5C 347.315,173.17 346.981,173.17 346.5,172.5 Z"/></g>
<g><path style="opacity:0.008" fill="#fefffe" d="M 345.5,173.5 C 345.833,173.5 346.167,173.5 346.5,173.5C 346.315,174.17 345.981,174.17 345.5,173.5 Z"/></g>
<g><path style="opacity:0.008" fill="#fefffe" d="M 344.5,174.5 C 344.833,174.5 345.167,174.5 345.5,174.5C 345.315,175.17 344.981,175.17 344.5,174.5 Z"/></g>
<g><path style="opacity:0.008" fill="#fefffe" d="M 87.5,176.5 C 86.8333,175.167 86.8333,175.167 87.5,176.5 Z"/></g>
<g><path style="opacity:0.016" fill="#fefffe" d="M 343.5,175.5 C 343.833,175.5 344.167,175.5 344.5,175.5C 344.315,176.17 343.981,176.17 343.5,175.5 Z"/></g>
<g><path style="opacity:0.008" fill="#fefffe" d="M 87.5,176.5 C 88.8333,177.167 88.8333,177.167 87.5,176.5 Z"/></g>
<g><path style="opacity:0.016" fill="#fefffe" d="M 342.5,176.5 C 342.833,176.5 343.167,176.5 343.5,176.5C 343.315,177.17 342.981,177.17 342.5,176.5 Z"/></g>
<g><path style="opacity:0.016" fill="#fefffe" d="M 341.5,177.5 C 341.833,177.5 342.167,177.5 342.5,177.5C 342.315,178.17 341.981,178.17 341.5,177.5 Z"/></g>
<g><path style="opacity:0.016" fill="#fefffe" d="M 340.5,178.5 C 340.833,178.5 341.167,178.5 341.5,178.5C 341.315,179.17 340.981,179.17 340.5,178.5 Z"/></g>
<g><path style="opacity:0.016" fill="#fefffe" d="M 339.5,179.5 C 339.833,179.5 340.167,179.5 340.5,179.5C 340.315,180.17 339.981,180.17 339.5,179.5 Z"/></g>
<g><path style="opacity:0.016" fill="#fefffe" d="M 338.5,180.5 C 338.833,180.5 339.167,180.5 339.5,180.5C 339.315,181.17 338.981,181.17 338.5,180.5 Z"/></g>
<g><path style="opacity:0.016" fill="#fefffe" d="M 337.5,181.5 C 337.833,181.5 338.167,181.5 338.5,181.5C 338.315,182.17 337.981,182.17 337.5,181.5 Z"/></g>
<g><path style="opacity:0.016" fill="#fefffe" d="M 336.5,182.5 C 336.833,182.5 337.167,182.5 337.5,182.5C 337.315,183.17 336.981,183.17 336.5,182.5 Z"/></g>
<g><path style="opacity:0.012" fill="#fefffe" d="M 95.5,183.5 C 95.631,184.239 95.4643,184.906 95,185.5C 94.3083,184.563 94.475,183.897 95.5,183.5 Z"/></g>
<g><path style="opacity:0.016" fill="#fefffe" d="M 335.5,183.5 C 335.833,183.5 336.167,183.5 336.5,183.5C 336.315,184.17 335.981,184.17 335.5,183.5 Z"/></g>
<g><path style="opacity:0.016" fill="#fefffe" d="M 334.5,184.5 C 334.833,184.5 335.167,184.5 335.5,184.5C 335.315,185.17 334.981,185.17 334.5,184.5 Z"/></g>
<g><path style="opacity:0.016" fill="#fefffe" d="M 333.5,185.5 C 333.833,185.5 334.167,185.5 334.5,185.5C 334.315,186.17 333.981,186.17 333.5,185.5 Z"/></g>
<g><path style="opacity:0.012" fill="#fefffe" d="M 95.5,190.5 C 94.4017,189.399 94.235,188.066 95,186.5C 95.49,187.793 95.6567,189.127 95.5,190.5 Z"/></g>
<g><path style="opacity:0.012" fill="#fefffe" d="M 333.5,192.5 C 334.598,193.601 334.765,194.934 334,196.5C 333.51,195.207 333.343,193.873 333.5,192.5 Z"/></g>
<g><path style="opacity:0.012" fill="#fefffe" d="M 94.5,197.5 C 93.4017,196.399 93.235,195.066 94,193.5C 94.49,194.793 94.6567,196.127 94.5,197.5 Z"/></g>
<g><path style="opacity:0.012" fill="#fefffe" d="M 93.5,204.5 C 92.4017,203.399 92.235,202.066 93,200.5C 93.49,201.793 93.6567,203.127 93.5,204.5 Z"/></g>
<g><path style="opacity:0.012" fill="#fefffe" d="M 334.5,200.5 C 335.598,201.601 335.765,202.934 335,204.5C 334.51,203.207 334.343,201.873 334.5,200.5 Z"/></g>
<g><path style="opacity:0.01" fill="#fefffe" d="M 91.5,207.5 C 92.5983,208.601 92.765,209.934 92,211.5C 91.51,210.207 91.3433,208.873 91.5,207.5 Z"/></g>
<g><path style="opacity:0.012" fill="#fefffe" d="M 335.5,208.5 C 336.598,209.601 336.765,210.934 336,212.5C 335.51,211.207 335.343,209.873 335.5,208.5 Z"/></g>
<g><path style="opacity:0.01" fill="#fefffe" d="M 90.5,214.5 C 91.5983,215.601 91.765,216.934 91,218.5C 90.51,217.207 90.3433,215.873 90.5,214.5 Z"/></g>
<g><path style="opacity:0.011" fill="#fefffe" d="M 336.5,216.5 C 337.613,217.946 337.78,219.613 337,221.5C 336.506,219.866 336.34,218.199 336.5,216.5 Z"/></g>
<g><path style="opacity:0.008" fill="#fefffe" d="M 89.5,221.5 C 90.5735,222.251 90.7401,223.251 90,224.5C 89.5172,223.552 89.3505,222.552 89.5,221.5 Z"/></g>
<g><path style="opacity:0.016" fill="#fefffe" d="M 90.5,227.5 C 91.8333,228.167 91.8333,228.167 90.5,227.5 Z"/></g>
<g><path style="opacity:0.008" fill="#fefffe" d="M 336.5,228.5 C 337.525,228.897 337.692,229.563 337,230.5C 336.536,229.906 336.369,229.239 336.5,228.5 Z"/></g>
<g><path style="opacity:0.008" fill="#fefffe" d="M 92.5,231.5 C 91.8333,230.167 91.8333,230.167 92.5,231.5 Z"/></g>
<g><path style="opacity:0.008" fill="#fefffe" d="M 92.5,231.5 C 92.8333,231.5 93.1667,231.5 93.5,231.5C 93.3147,232.17 92.9813,232.17 92.5,231.5 Z"/></g>
<g><path style="opacity:0.008" fill="#fefffe" d="M 335.5,231.5 C 336.833,232.167 336.833,232.833 335.5,233.5C 335.5,232.833 335.5,232.167 335.5,231.5 Z"/></g>
<g><path style="opacity:0.008" fill="#fefffe" d="M 333.5,235.5 C 334.833,236.167 334.833,236.167 333.5,235.5 Z"/></g>
<g><path style="opacity:0.008" fill="#fefffe" d="M 332.5,236.5 C 332.833,236.5 333.167,236.5 333.5,236.5C 333.315,237.17 332.981,237.17 332.5,236.5 Z"/></g>
<g><path style="opacity:0.008" fill="#fefffe" d="M 98.5,237.5 C 97.8333,238.167 97.8333,238.167 98.5,237.5 Z"/></g>
<g><path style="opacity:0.016" fill="#fefffe" d="M 331.5,237.5 C 331.833,237.5 332.167,237.5 332.5,237.5C 332.315,238.17 331.981,238.17 331.5,237.5 Z"/></g>
<g><path style="opacity:0.016" fill="#fefffe" d="M 330.5,238.5 C 330.833,238.5 331.167,238.5 331.5,238.5C 331.315,239.17 330.981,239.17 330.5,238.5 Z"/></g>
<g><path style="opacity:0.008" fill="#fefffe" d="M 329.5,239.5 C 329.833,239.5 330.167,239.5 330.5,239.5C 330.315,240.17 329.981,240.17 329.5,239.5 Z"/></g>
<g><path style="opacity:0.016" fill="#fefffe" d="M 329.5,240.5 C 328.833,241.167 328.833,241.167 329.5,240.5 Z"/></g>
<g><path style="opacity:0.008" fill="#fefffe" d="M 97.5,242.5 C 98.8333,243.167 98.8333,243.167 97.5,242.5 Z"/></g>
<g><path style="opacity:0.016" fill="#fefffe" d="M 329.5,242.5 C 330.833,243.167 330.833,243.167 329.5,242.5 Z"/></g>
<g><path style="opacity:1" fill="#74beb2" d="M 118.5,242.5 C 126.201,243.862 133.868,245.362 141.5,247C 148.047,257.925 154.214,269.092 160,280.5C 165.702,287.608 172.869,289.442 181.5,286C 191.983,281.007 202.483,276.173 213,271.5C 225.121,276.31 236.955,281.81 248.5,288C 255.651,289.393 261.817,287.56 267,282.5C 273.247,271.004 279.747,259.67 286.5,248.5C 294.33,246.041 302.33,244.874 310.5,245C 328.879,276.256 346.879,307.756 364.5,339.5C 345.175,340.333 325.842,340.833 306.5,341C 304.291,342.873 302.458,345.04 301,347.5C 293.839,361.16 286.172,374.493 278,387.5C 260.601,358.425 243.601,329.092 227,299.5C 217.598,289.932 208.598,290.265 200,300.5C 183.753,329.33 167.253,357.997 150.5,386.5C 141.374,371.75 132.374,356.917 123.5,342C 103.589,340.69 83.5894,340.023 63.5,340C 81.9839,307.526 100.317,275.026 118.5,242.5 Z"/></g>
<g><path style="opacity:0.008" fill="#fefffe" d="M 97.5,245.5 C 96.8333,244.167 96.8333,244.167 97.5,245.5 Z"/></g>
<g><path style="opacity:0.008" fill="#fefffe" d="M 332.5,247.5 C 332.167,247.5 331.833,247.5 331.5,247.5C 331.833,244.833 332.167,244.833 332.5,247.5 Z"/></g>
<g><path style="opacity:0.016" fill="#fefffe" d="M 96.5,247.5 C 95.8333,246.167 95.8333,246.167 96.5,247.5 Z"/></g>
<g><path style="opacity:0.008" fill="#fefffe" d="M 332.5,247.5 C 333.833,248.167 333.833,248.167 332.5,247.5 Z"/></g>
<g><path style="opacity:0.016" fill="#fefffe" d="M 333.5,249.5 C 334.833,250.167 334.833,250.167 333.5,249.5 Z"/></g>
<g><path style="opacity:0.008" fill="#fefffe" d="M 92.5,251.5 C 93.8333,252.167 93.8333,252.167 92.5,251.5 Z"/></g>
<g><path style="opacity:0.008" fill="#fefffe" d="M 336.5,254.5 C 336.167,254.5 335.833,254.5 335.5,254.5C 335.833,251.833 336.167,251.833 336.5,254.5 Z"/></g>
<g><path style="opacity:0.016" fill="#fefffe" d="M 92.5,254.5 C 91.8333,253.167 91.8333,253.167 92.5,254.5 Z"/></g>
<g><path style="opacity:0.008" fill="#fefffe" d="M 336.5,254.5 C 337.833,255.167 337.833,255.167 336.5,254.5 Z"/></g>
<g><path style="opacity:0.016" fill="#fefffe" d="M 337.5,256.5 C 338.833,257.167 338.833,257.167 337.5,256.5 Z"/></g>
<g><path style="opacity:0.008" fill="#fefffe" d="M 88.5,258.5 C 89.8333,259.167 89.8333,259.167 88.5,258.5 Z"/></g>
<g><path style="opacity:0.008" fill="#fefffe" d="M 340.5,261.5 C 340.167,261.5 339.833,261.5 339.5,261.5C 339.833,258.833 340.167,258.833 340.5,261.5 Z"/></g>
<g><path style="opacity:0.016" fill="#fefffe" d="M 88.5,261.5 C 87.8333,260.167 87.8333,260.167 88.5,261.5 Z"/></g>
<g><path style="opacity:0.008" fill="#fefffe" d="M 340.5,261.5 C 341.833,262.167 341.833,262.167 340.5,261.5 Z"/></g>
<g><path style="opacity:0.016" fill="#fefffe" d="M 87.5,263.5 C 86.8333,262.167 86.8333,262.167 87.5,263.5 Z"/></g>
<g><path style="opacity:0.008" fill="#fefffe" d="M 341.5,263.5 C 342.833,264.167 342.833,264.167 341.5,263.5 Z"/></g>
<g><path style="opacity:0.008" fill="#fefffe" d="M 86.5,265.5 C 85.8333,264.167 85.8333,264.167 86.5,265.5 Z"/></g>
<g><path style="opacity:0.008" fill="#fefffe" d="M 85.5,265.5 C 84.8333,266.167 84.8333,266.167 85.5,265.5 Z"/></g>
<g><path style="opacity:0.016" fill="#fefffe" d="M 342.5,265.5 C 343.833,266.167 343.833,266.167 342.5,265.5 Z"/></g>
<g><path style="opacity:0.008" fill="#fefffe" d="M 84.5,268.5 C 83.8333,267.167 83.8333,267.167 84.5,268.5 Z"/></g>
<g><path style="opacity:0.008" fill="#fefffe" d="M 344.5,268.5 C 343.833,267.167 343.833,267.167 344.5,268.5 Z"/></g>
<g><path style="opacity:0.008" fill="#fefffe" d="M 344.5,268.5 C 345.833,269.167 345.833,269.167 344.5,268.5 Z"/></g>
<g><path style="opacity:0.016" fill="#fefffe" d="M 83.5,270.5 C 82.8333,269.167 82.8333,269.167 83.5,270.5 Z"/></g>
<g><path style="opacity:0.008" fill="#fefffe" d="M 345.5,270.5 C 346.833,271.167 346.833,271.167 345.5,270.5 Z"/></g>
<g><path style="opacity:0.016" fill="#fefffe" d="M 346.5,272.5 C 347.833,273.167 347.833,273.167 346.5,272.5 Z"/></g>
<g><path style="opacity:0.008" fill="#fefffe" d="M 79.5,274.5 C 80.8333,275.167 80.8333,275.167 79.5,274.5 Z"/></g>
<g><path style="opacity:0.008" fill="#fefffe" d="M 349.5,277.5 C 349.167,277.5 348.833,277.5 348.5,277.5C 348.833,274.833 349.167,274.833 349.5,277.5 Z"/></g>
<g><path style="opacity:0.016" fill="#fefffe" d="M 79.5,277.5 C 78.8333,276.167 78.8333,276.167 79.5,277.5 Z"/></g>
<g><path style="opacity:0.008" fill="#fefffe" d="M 349.5,277.5 C 350.833,278.167 350.833,278.167 349.5,277.5 Z"/></g>
<g><path style="opacity:0.016" fill="#fefffe" d="M 350.5,279.5 C 351.833,280.167 351.833,280.167 350.5,279.5 Z"/></g>
<g><path style="opacity:0.008" fill="#fefffe" d="M 75.5,281.5 C 76.8333,282.167 76.8333,282.167 75.5,281.5 Z"/></g>
<g><path style="opacity:0.008" fill="#fefffe" d="M 353.5,284.5 C 353.167,284.5 352.833,284.5 352.5,284.5C 352.833,281.833 353.167,281.833 353.5,284.5 Z"/></g>
<g><path style="opacity:0.008" fill="#fefffe" d="M 75.5,284.5 C 74.8333,283.167 74.8333,283.167 75.5,284.5 Z"/></g>
<g><path style="opacity:0.008" fill="#fefffe" d="M 353.5,284.5 C 354.833,285.167 354.833,285.167 353.5,284.5 Z"/></g>
<g><path style="opacity:0.016" fill="#fefffe" d="M 74.5,286.5 C 73.8333,285.167 73.8333,285.167 74.5,286.5 Z"/></g>
<g><path style="opacity:0.016" fill="#fefffe" d="M 354.5,286.5 C 355.833,287.167 355.833,287.167 354.5,286.5 Z"/></g>
<g><path style="opacity:0.008" fill="#fefffe" d="M 357.5,291.5 C 357.167,291.5 356.833,291.5 356.5,291.5C 356.833,288.833 357.167,288.833 357.5,291.5 Z"/></g>
<g><path style="opacity:0.008" fill="#fefffe" d="M 70.5,290.5 C 71.8333,291.167 71.8333,291.167 70.5,290.5 Z"/></g>
<g><path style="opacity:0.008" fill="#fefffe" d="M 357.5,291.5 C 358.833,292.167 358.833,292.167 357.5,291.5 Z"/></g>
<g><path style="opacity:0.016" fill="#fefffe" d="M 70.5,293.5 C 69.8333,292.167 69.8333,292.167 70.5,293.5 Z"/></g>
<g><path style="opacity:0.008" fill="#fefffe" d="M 358.5,293.5 C 359.833,294.167 359.833,294.167 358.5,293.5 Z"/></g>
<g><path style="opacity:0.008" fill="#fefffe" d="M 361.5,298.5 C 361.167,298.5 360.833,298.5 360.5,298.5C 360.833,295.833 361.167,295.833 361.5,298.5 Z"/></g>
<g><path style="opacity:0.008" fill="#fefffe" d="M 66.5,297.5 C 67.8333,298.167 67.8333,298.167 66.5,297.5 Z"/></g>
<g><path style="opacity:0.008" fill="#fefffe" d="M 361.5,298.5 C 362.833,299.167 362.833,299.167 361.5,298.5 Z"/></g>
<g><path style="opacity:0.016" fill="#fefffe" d="M 66.5,300.5 C 65.8333,299.167 65.8333,299.167 66.5,300.5 Z"/></g>
<g><path style="opacity:0.008" fill="#fefffe" d="M 362.5,300.5 C 363.833,301.167 363.833,301.167 362.5,300.5 Z"/></g>
<g><path style="opacity:0.016" fill="#fefffe" d="M 65.5,302.5 C 64.8333,301.167 64.8333,301.167 65.5,302.5 Z"/></g>
<g><path style="opacity:0.016" fill="#fefffe" d="M 363.5,302.5 C 364.833,303.167 364.833,303.167 363.5,302.5 Z"/></g>
<g><path style="opacity:0.008" fill="#fefffe" d="M 64.5,304.5 C 63.8333,303.167 63.8333,303.167 64.5,304.5 Z"/></g>
<g><path style="opacity:0.008" fill="#fefffe" d="M 63.5,304.5 C 62.8333,305.167 62.8333,305.167 63.5,304.5 Z"/></g>
<g><path style="opacity:0.008" fill="#fefffe" d="M 365.5,305.5 C 364.833,304.167 364.833,304.167 365.5,305.5 Z"/></g>
<g><path style="opacity:0.008" fill="#fefffe" d="M 365.5,305.5 C 366.833,306.167 366.833,306.167 365.5,305.5 Z"/></g>
<g><path style="opacity:0.008" fill="#fefffe" d="M 62.5,307.5 C 61.8333,306.167 61.8333,306.167 62.5,307.5 Z"/></g>
<g><path style="opacity:0.008" fill="#fefffe" d="M 366.5,307.5 C 367.833,308.167 367.833,308.167 366.5,307.5 Z"/></g>
<g><path style="opacity:0.016" fill="#fefffe" d="M 61.5,309.5 C 60.8333,308.167 60.8333,308.167 61.5,309.5 Z"/></g>
<g><path style="opacity:0.016" fill="#fefffe" d="M 367.5,309.5 C 368.833,310.167 368.833,310.167 367.5,309.5 Z"/></g>
<g><path style="opacity:0.008" fill="#fefffe" d="M 369.5,312.5 C 368.833,311.167 368.833,311.167 369.5,312.5 Z"/></g>
<g><path style="opacity:0.012" fill="#fefffe" d="M 213.5,312.5 C 213.833,312.5 214.167,312.5 214.5,312.5C 215.167,312.5 215.5,312.833 215.5,313.5C 215.5,314.167 215.5,314.833 215.5,315.5C 214.833,315.167 214.167,314.833 213.5,314.5C 213.5,313.833 213.5,313.167 213.5,312.5 Z"/></g>
<g><path style="opacity:0.008" fill="#fefffe" d="M 369.5,312.5 C 370.833,313.167 370.833,313.167 369.5,312.5 Z"/></g>
<g><path style="opacity:0.008" fill="#fefffe" d="M 57.5,313.5 C 58.8333,314.167 58.8333,314.167 57.5,313.5 Z"/></g>
<g><path style="opacity:0.016" fill="#fefffe" d="M 212.5,314.5 C 212.833,314.5 213.167,314.5 213.5,314.5C 213.315,315.17 212.981,315.17 212.5,314.5 Z"/></g>
<g><path style="opacity:0.008" fill="#fefffe" d="M 370.5,314.5 C 371.833,315.167 371.833,315.167 370.5,314.5 Z"/></g>
<g><path style="opacity:0.016" fill="#fefffe" d="M 57.5,316.5 C 56.8333,315.167 56.8333,315.167 57.5,316.5 Z"/></g>
<g><path style="opacity:0.008" fill="#fefffe" d="M 215.5,315.5 C 215.833,315.5 216.167,315.5 216.5,315.5C 216.315,316.17 215.981,316.17 215.5,315.5 Z"/></g>
<g><path style="opacity:0.008" fill="#fefffe" d="M 211.5,316.5 C 212.833,317.167 212.833,317.167 211.5,316.5 Z"/></g>
<g><path style="opacity:0.016" fill="#fefffe" d="M 371.5,316.5 C 372.833,317.167 372.833,317.167 371.5,316.5 Z"/></g>
<g><path style="opacity:0.008" fill="#fefffe" d="M 210.5,317.5 C 210.833,317.5 211.167,317.5 211.5,317.5C 211.672,318.492 211.338,319.158 210.5,319.5C 210.5,318.833 210.5,318.167 210.5,317.5 Z"/></g>
<g><path style="opacity:0.016" fill="#fefffe" d="M 217.5,317.5 C 216.833,318.167 216.833,318.167 217.5,317.5 Z"/></g>
<g><path style="opacity:0.008" fill="#fefffe" d="M 373.5,319.5 C 372.833,318.167 372.833,318.167 373.5,319.5 Z"/></g>
<g><path style="opacity:0.016" fill="#fefffe" d="M 209.5,319.5 C 209.833,319.5 210.167,319.5 210.5,319.5C 210.315,320.17 209.981,320.17 209.5,319.5 Z"/></g>
<g><path style="opacity:0.008" fill="#fefffe" d="M 218.5,319.5 C 217.833,320.167 217.833,320.167 218.5,319.5 Z"/></g>
<g><path style="opacity:0.008" fill="#fefffe" d="M 373.5,319.5 C 374.833,320.167 374.833,320.167 373.5,319.5 Z"/></g>
<g><path style="opacity:0.008" fill="#fefffe" d="M 53.5,320.5 C 54.8333,321.167 54.8333,321.167 53.5,320.5 Z"/></g>
<g><path style="opacity:0.016" fill="#fefffe" d="M 208.5,321.5 C 209.833,322.167 209.833,322.167 208.5,321.5 Z"/></g>
<g><path style="opacity:0.008" fill="#fefffe" d="M 219.5,322.5 C 218.833,321.167 218.833,321.167 219.5,322.5 Z"/></g>
<g><path style="opacity:0.008" fill="#fefffe" d="M 374.5,321.5 C 375.833,322.167 375.833,322.167 374.5,321.5 Z"/></g>
<g><path style="opacity:0.016" fill="#fefffe" d="M 53.5,323.5 C 52.8333,322.167 52.8333,322.167 53.5,323.5 Z"/></g>
<g><path style="opacity:0.008" fill="#fefffe" d="M 219.5,322.5 C 219.833,322.5 220.167,322.5 220.5,322.5C 220.315,323.17 219.981,323.17 219.5,322.5 Z"/></g>
<g><path style="opacity:0.008" fill="#fefffe" d="M 207.5,323.5 C 208.833,324.167 208.833,324.167 207.5,323.5 Z"/></g>
<g><path style="opacity:0.016" fill="#fefffe" d="M 375.5,323.5 C 376.833,324.167 376.833,324.167 375.5,323.5 Z"/></g>
<g><path style="opacity:0.008" fill="#fefffe" d="M 206.5,324.5 C 206.833,324.5 207.167,324.5 207.5,324.5C 207.315,325.17 206.981,325.17 206.5,324.5 Z"/></g>
<g><path style="opacity:0.016" fill="#fefffe" d="M 221.5,324.5 C 220.833,325.167 220.833,325.167 221.5,324.5 Z"/></g>
<g><path style="opacity:0.008" fill="#fefffe" d="M 377.5,326.5 C 376.833,325.167 376.833,325.167 377.5,326.5 Z"/></g>
<g><path style="opacity:0.016" fill="#fefffe" d="M 205.5,326.5 C 206.833,327.167 206.833,327.167 205.5,326.5 Z"/></g>
<g><path style="opacity:0.008" fill="#fefffe" d="M 221.5,326.5 C 222.833,327.167 222.833,327.167 221.5,326.5 Z"/></g>
<g><path style="opacity:0.008" fill="#fefffe" d="M 377.5,326.5 C 378.833,327.167 378.833,327.167 377.5,326.5 Z"/></g>
<g><path style="opacity:0.008" fill="#fefffe" d="M 49.5,327.5 C 50.8333,328.167 50.8333,328.167 49.5,327.5 Z"/></g>
<g><path style="opacity:0.008" fill="#fefffe" d="M 204.5,328.5 C 205.833,329.167 205.833,329.167 204.5,328.5 Z"/></g>
<g><path style="opacity:0.008" fill="#fefffe" d="M 378.5,328.5 C 379.833,329.167 379.833,329.167 378.5,328.5 Z"/></g>
<g><path style="opacity:0.016" fill="#fefffe" d="M 49.5,330.5 C 48.8333,329.167 48.8333,329.167 49.5,330.5 Z"/></g>
<g><path style="opacity:0.008" fill="#fefffe" d="M 203.5,329.5 C 203.833,329.5 204.167,329.5 204.5,329.5C 204.672,330.492 204.338,331.158 203.5,331.5C 203.5,330.833 203.5,330.167 203.5,329.5 Z"/></g>
<g><path style="opacity:0.016" fill="#fefffe" d="M 224.5,329.5 C 223.833,330.167 223.833,330.167 224.5,329.5 Z"/></g>
<g><path style="opacity:0.016" fill="#fefffe" d="M 379.5,330.5 C 380.833,331.167 380.833,331.167 379.5,330.5 Z"/></g>
<g><path style="opacity:0.016" fill="#fefffe" d="M 202.5,331.5 C 202.833,331.5 203.167,331.5 203.5,331.5C 203.315,332.17 202.981,332.17 202.5,331.5 Z"/></g>
<g><path style="opacity:0.016" fill="#fefffe" d="M 225.5,331.5 C 224.833,332.167 224.833,332.167 225.5,331.5 Z"/></g>
<g><path style="opacity:0.008" fill="#fefffe" d="M 381.5,333.5 C 380.833,332.167 380.833,332.167 381.5,333.5 Z"/></g>
<g><path style="opacity:0.008" fill="#fefffe" d="M 201.5,333.5 C 202.833,334.167 202.833,334.167 201.5,333.5 Z"/></g>
<g><path style="opacity:0.008" fill="#fefffe" d="M 225.5,333.5 C 226.833,334.167 226.833,334.167 225.5,333.5 Z"/></g>
<g><path style="opacity:0.008" fill="#fefffe" d="M 381.5,333.5 C 382.833,334.167 382.833,334.167 381.5,333.5 Z"/></g>
<g><path style="opacity:0.008" fill="#fefffe" d="M 45.5,334.5 C 46.8333,335.167 46.8333,335.167 45.5,334.5 Z"/></g>
<g><path style="opacity:0.008" fill="#fefffe" d="M 200.5,335.5 C 201.833,336.167 201.833,336.167 200.5,335.5 Z"/></g>
<g><path style="opacity:0.008" fill="#fefffe" d="M 382.5,335.5 C 383.833,336.167 383.833,336.167 382.5,335.5 Z"/></g>
<g><path style="opacity:0.008" fill="#fefffe" d="M 45.5,337.5 C 44.8333,336.167 44.8333,336.167 45.5,337.5 Z"/></g>
<g><path style="opacity:0.008" fill="#fefffe" d="M 199.5,336.5 C 199.833,336.5 200.167,336.5 200.5,336.5C 200.315,337.17 199.981,337.17 199.5,336.5 Z"/></g>
<g><path style="opacity:0.016" fill="#fefffe" d="M 228.5,336.5 C 227.833,337.167 227.833,337.167 228.5,336.5 Z"/></g>
<g><path style="opacity:0.016" fill="#fefffe" d="M 383.5,337.5 C 384.833,338.167 384.833,338.167 383.5,337.5 Z"/></g>
<g><path style="opacity:0.016" fill="#fefffe" d="M 44.5,339.5 C 43.8333,338.167 43.8333,338.167 44.5,339.5 Z"/></g>
<g><path style="opacity:0.016" fill="#fefffe" d="M 198.5,338.5 C 199.833,339.167 199.833,339.167 198.5,338.5 Z"/></g>
<g><path style="opacity:0.008" fill="#fefffe" d="M 229.5,338.5 C 228.833,339.167 228.833,339.167 229.5,338.5 Z"/></g>
<g><path style="opacity:0.008" fill="#fefffe" d="M 385.5,340.5 C 384.833,339.167 384.833,339.167 385.5,340.5 Z"/></g>
<g><path style="opacity:0.008" fill="#fefffe" d="M 43.5,341.5 C 42.8333,340.167 42.8333,340.167 43.5,341.5 Z"/></g>
<g><path style="opacity:0.008" fill="#fefffe" d="M 197.5,340.5 C 198.833,341.167 198.833,341.167 197.5,340.5 Z"/></g>
<g><path style="opacity:0.008" fill="#fefffe" d="M 230.5,341.5 C 229.833,340.167 229.833,340.167 230.5,341.5 Z"/></g>
<g><path style="opacity:0.008" fill="#fefffe" d="M 385.5,340.5 C 386.833,341.167 386.833,341.167 385.5,340.5 Z"/></g>
<g><path style="opacity:0.008" fill="#fefffe" d="M 42.5,341.5 C 41.8333,342.167 41.8333,342.167 42.5,341.5 Z"/></g>
<g><path style="opacity:0.008" fill="#fefffe" d="M 196.5,341.5 C 196.833,341.5 197.167,341.5 197.5,341.5C 197.672,342.492 197.338,343.158 196.5,343.5C 196.5,342.833 196.5,342.167 196.5,341.5 Z"/></g>
<g><path style="opacity:0.008" fill="#fefffe" d="M 230.5,341.5 C 230.833,341.5 231.167,341.5 231.5,341.5C 231.315,342.17 230.981,342.17 230.5,341.5 Z"/></g>
<g><path style="opacity:0.008" fill="#fefffe" d="M 386.5,342.5 C 387.833,343.167 387.833,343.167 386.5,342.5 Z"/></g>
<g><path style="opacity:0.008" fill="#fefffe" d="M 40.5,343.5 C 41.8333,344.167 41.8333,344.167 40.5,343.5 Z"/></g>
<g><path style="opacity:0.016" fill="#fefffe" d="M 195.5,343.5 C 195.833,343.5 196.167,343.5 196.5,343.5C 196.315,344.17 195.981,344.17 195.5,343.5 Z"/></g>
<g><path style="opacity:0.016" fill="#fefffe" d="M 232.5,343.5 C 231.833,344.167 231.833,344.167 232.5,343.5 Z"/></g>
<g><path style="opacity:0.012" fill="#fefffe" d="M 387.5,344.5 C 388.525,344.897 388.692,345.563 388,346.5C 387.536,345.906 387.369,345.239 387.5,344.5 Z"/></g>
<g><path style="opacity:0.008" fill="#fefffe" d="M 194.5,345.5 C 195.833,346.167 195.833,346.167 194.5,345.5 Z"/></g>
<g><path style="opacity:0.008" fill="#fefffe" d="M 39.5,346.5 C 40.5735,347.251 40.7401,348.251 40,349.5C 39.5172,348.552 39.3505,347.552 39.5,346.5 Z"/></g>
<g><path style="opacity:0.008" fill="#fefffe" d="M 193.5,346.5 C 193.833,346.5 194.167,346.5 194.5,346.5C 194.672,347.492 194.338,348.158 193.5,348.5C 193.5,347.833 193.5,347.167 193.5,346.5 Z"/></g>
<g><path style="opacity:0.016" fill="#fefffe" d="M 192.5,348.5 C 192.833,348.5 193.167,348.5 193.5,348.5C 193.315,349.17 192.981,349.17 192.5,348.5 Z"/></g>
<g><path style="opacity:0.016" fill="#fefffe" d="M 235.5,348.5 C 234.833,349.167 234.833,349.167 235.5,348.5 Z"/></g>
<g><path style="opacity:0.016" fill="#fefffe" d="M 191.5,350.5 C 192.833,351.167 192.833,351.167 191.5,350.5 Z"/></g>
<g><path style="opacity:0.016" fill="#fefffe" d="M 236.5,350.5 C 235.833,351.167 235.833,351.167 236.5,350.5 Z"/></g>
<g><path style="opacity:0.008" fill="#fefffe" d="M 387.5,352.5 C 387.369,351.761 387.536,351.094 388,350.5C 388.692,351.437 388.525,352.103 387.5,352.5 Z"/></g>
<g><path style="opacity:0.008" fill="#fefffe" d="M 42.5,352.5 C 41.8333,353.167 41.8333,353.167 42.5,352.5 Z"/></g>
<g><path style="opacity:0.008" fill="#fefffe" d="M 190.5,352.5 C 191.833,353.167 191.833,353.167 190.5,352.5 Z"/></g>
<g><path style="opacity:0.008" fill="#fefffe" d="M 236.5,352.5 C 237.833,353.167 237.833,353.167 236.5,352.5 Z"/></g>
<g><path style="opacity:0.008" fill="#fefffe" d="M 386.5,352.5 C 386.833,352.5 387.167,352.5 387.5,352.5C 387.315,353.17 386.981,353.17 386.5,352.5 Z"/></g>
<g><path style="opacity:0.008" fill="#fefffe" d="M 189.5,353.5 C 189.833,353.5 190.167,353.5 190.5,353.5C 190.315,354.17 189.981,354.17 189.5,353.5 Z"/></g>
<g><path style="opacity:0.008" fill="#fefffe" d="M 385.5,353.5 C 385.833,353.5 386.167,353.5 386.5,353.5C 386.315,354.17 385.981,354.17 385.5,353.5 Z"/></g>
<g><path style="opacity:0.016" fill="#fefffe" d="M 188.5,355.5 C 189.833,356.167 189.833,356.167 188.5,355.5 Z"/></g>
<g><path style="opacity:0.016" fill="#fefffe" d="M 239.5,355.5 C 238.833,356.167 238.833,356.167 239.5,355.5 Z"/></g>
<g><path style="opacity:0.008" fill="#fefffe" d="M 383.5,355.5 C 384.833,356.167 384.833,356.167 383.5,355.5 Z"/></g>
<g><path style="opacity:0.008" fill="#fefffe" d="M 383.5,356.5 C 382.833,357.167 382.833,357.167 383.5,356.5 Z"/></g>
<g><path style="opacity:0.008" fill="#fefffe" d="M 48.5,357.5 C 48.1034,358.525 47.4368,358.692 46.5,358C 47.0944,357.536 47.7611,357.369 48.5,357.5 Z"/></g>
<g><path style="opacity:0.008" fill="#fefffe" d="M 187.5,357.5 C 188.833,358.167 188.833,358.167 187.5,357.5 Z"/></g>
<g><path style="opacity:0.008" fill="#fefffe" d="M 240.5,357.5 C 239.833,358.167 239.833,358.167 240.5,357.5 Z"/></g>
<g><path style="opacity:0.012" fill="#fefffe" d="M 379.5,358.5 C 379.897,357.475 380.563,357.308 381.5,358C 380.906,358.464 380.239,358.631 379.5,358.5 Z"/></g>
<g><path style="opacity:0.008" fill="#fefffe" d="M 113.5,359.5 C 112.833,358.167 112.833,358.167 113.5,359.5 Z"/></g>
<g><path style="opacity:0.008" fill="#fefffe" d="M 186.5,358.5 C 186.833,358.5 187.167,358.5 187.5,358.5C 187.672,359.492 187.338,360.158 186.5,360.5C 186.5,359.833 186.5,359.167 186.5,358.5 Z"/></g>
<g><path style="opacity:0.016" fill="#fefffe" d="M 314.5,358.5 C 315.833,359.167 315.833,359.167 314.5,358.5 Z"/></g>
<g><path style="opacity:0.016" fill="#fefffe" d="M 113.5,359.5 C 113.833,359.5 114.167,359.5 114.5,359.5C 114.315,360.17 113.981,360.17 113.5,359.5 Z"/></g>
<g><path style="opacity:0.008" fill="#fefffe" d="M 241.5,360.5 C 240.833,359.167 240.833,359.167 241.5,360.5 Z"/></g>
<g><path style="opacity:0.008" fill="#fefffe" d="M 313.5,359.5 C 313.833,359.5 314.167,359.5 314.5,359.5C 314.672,360.492 314.338,361.158 313.5,361.5C 313.5,360.833 313.5,360.167 313.5,359.5 Z"/></g>
<g><path style="opacity:0.016" fill="#fefffe" d="M 185.5,360.5 C 185.833,360.5 186.167,360.5 186.5,360.5C 186.315,361.17 185.981,361.17 185.5,360.5 Z"/></g>
<g><path style="opacity:0.008" fill="#fefffe" d="M 241.5,360.5 C 241.833,360.5 242.167,360.5 242.5,360.5C 242.315,361.17 241.981,361.17 241.5,360.5 Z"/></g>
<g><path style="opacity:0.008" fill="#fefffe" d="M 114.5,361.5 C 115.833,362.167 115.833,362.167 114.5,361.5 Z"/></g>
<g><path style="opacity:0.008" fill="#fefffe" d="M 312.5,361.5 C 312.833,361.5 313.167,361.5 313.5,361.5C 313.315,362.17 312.981,362.17 312.5,361.5 Z"/></g>
<g><path style="opacity:0.008" fill="#fefffe" d="M 184.5,362.5 C 185.833,363.167 185.833,363.167 184.5,362.5 Z"/></g>
<g><path style="opacity:0.016" fill="#fefffe" d="M 243.5,362.5 C 242.833,363.167 242.833,363.167 243.5,362.5 Z"/></g>
<g><path style="opacity:0.016" fill="#fefffe" d="M 311.5,363.5 C 312.833,364.167 312.833,364.167 311.5,363.5 Z"/></g>
<g><path style="opacity:0.016" fill="#fefffe" d="M 117.5,364.5 C 116.833,365.167 116.833,365.167 117.5,364.5 Z"/></g>
<g><path style="opacity:0.008" fill="#fefffe" d="M 183.5,364.5 C 184.833,365.167 184.833,365.167 183.5,364.5 Z"/></g>
<g><path style="opacity:0.008" fill="#fefffe" d="M 182.5,365.5 C 182.833,365.5 183.167,365.5 183.5,365.5C 183.315,366.17 182.981,366.17 182.5,365.5 Z"/></g>
<g><path style="opacity:0.008" fill="#fefffe" d="M 310.5,365.5 C 311.833,366.167 311.833,366.167 310.5,365.5 Z"/></g>
<g><path style="opacity:0.016" fill="#fefffe" d="M 118.5,366.5 C 117.833,367.167 117.833,367.167 118.5,366.5 Z"/></g>
<g><path style="opacity:0.016" fill="#fefffe" d="M 181.5,367.5 C 182.833,368.167 182.833,368.167 181.5,367.5 Z"/></g>
<g><path style="opacity:0.016" fill="#fefffe" d="M 246.5,367.5 C 245.833,368.167 245.833,368.167 246.5,367.5 Z"/></g>
<g><path style="opacity:0.008" fill="#fefffe" d="M 309.5,367.5 C 310.833,368.167 310.833,368.167 309.5,367.5 Z"/></g>
<g><path style="opacity:0.008" fill="#fefffe" d="M 118.5,368.5 C 119.833,369.167 119.833,369.167 118.5,368.5 Z"/></g>
<g><path style="opacity:0.008" fill="#fefffe" d="M 308.5,368.5 C 308.833,368.5 309.167,368.5 309.5,368.5C 309.672,369.492 309.338,370.158 308.5,370.5C 308.5,369.833 308.5,369.167 308.5,368.5 Z"/></g>
<g><path style="opacity:0.008" fill="#fefffe" d="M 180.5,369.5 C 181.833,370.167 181.833,370.167 180.5,369.5 Z"/></g>
<g><path style="opacity:0.016" fill="#fefffe" d="M 247.5,369.5 C 246.833,370.167 246.833,370.167 247.5,369.5 Z"/></g>
<g><path style="opacity:0.008" fill="#fefffe" d="M 179.5,370.5 C 179.833,370.5 180.167,370.5 180.5,370.5C 180.672,371.492 180.338,372.158 179.5,372.5C 179.5,371.833 179.5,371.167 179.5,370.5 Z"/></g>
<g><path style="opacity:0.016" fill="#fefffe" d="M 307.5,370.5 C 307.833,370.5 308.167,370.5 308.5,370.5C 308.315,371.17 307.981,371.17 307.5,370.5 Z"/></g>
<g><path style="opacity:0.016" fill="#fefffe" d="M 121.5,371.5 C 120.833,372.167 120.833,372.167 121.5,371.5 Z"/></g>
<g><path style="opacity:0.008" fill="#fefffe" d="M 247.5,371.5 C 248.833,372.167 248.833,372.167 247.5,371.5 Z"/></g>
<g><path style="opacity:0.016" fill="#fefffe" d="M 178.5,372.5 C 178.833,372.5 179.167,372.5 179.5,372.5C 179.315,373.17 178.981,373.17 178.5,372.5 Z"/></g>
<g><path style="opacity:0.016" fill="#fefffe" d="M 306.5,372.5 C 307.833,373.167 307.833,373.167 306.5,372.5 Z"/></g>
<g><path style="opacity:0.016" fill="#fefffe" d="M 122.5,373.5 C 121.833,374.167 121.833,374.167 122.5,373.5 Z"/></g>
<g><path style="opacity:0.008" fill="#fefffe" d="M 177.5,374.5 C 178.833,375.167 178.833,375.167 177.5,374.5 Z"/></g>
<g><path style="opacity:0.016" fill="#fefffe" d="M 250.5,374.5 C 249.833,375.167 249.833,375.167 250.5,374.5 Z"/></g>
<g><path style="opacity:0.008" fill="#fefffe" d="M 305.5,374.5 C 306.833,375.167 306.833,375.167 305.5,374.5 Z"/></g>
<g><path style="opacity:0.008" fill="#fefffe" d="M 122.5,375.5 C 123.833,376.167 123.833,376.167 122.5,375.5 Z"/></g>
<g><path style="opacity:0.008" fill="#fefffe" d="M 176.5,375.5 C 176.833,375.5 177.167,375.5 177.5,375.5C 177.672,376.492 177.338,377.158 176.5,377.5C 176.5,376.833 176.5,376.167 176.5,375.5 Z"/></g>
<g><path style="opacity:0.016" fill="#fefffe" d="M 251.5,376.5 C 250.833,377.167 250.833,377.167 251.5,376.5 Z"/></g>
<g><path style="opacity:0.008" fill="#fefffe" d="M 304.5,376.5 C 305.833,377.167 305.833,377.167 304.5,376.5 Z"/></g>
<g><path style="opacity:0.016" fill="#fefffe" d="M 175.5,377.5 C 175.833,377.5 176.167,377.5 176.5,377.5C 176.315,378.17 175.981,378.17 175.5,377.5 Z"/></g>
<g><path style="opacity:0.008" fill="#fefffe" d="M 303.5,377.5 C 303.833,377.5 304.167,377.5 304.5,377.5C 304.315,378.17 303.981,378.17 303.5,377.5 Z"/></g>
<g><path style="opacity:0.016" fill="#fefffe" d="M 125.5,378.5 C 124.833,379.167 124.833,379.167 125.5,378.5 Z"/></g>
<g><path style="opacity:0.008" fill="#fefffe" d="M 252.5,379.5 C 251.833,378.167 251.833,378.167 252.5,379.5 Z"/></g>
<g><path style="opacity:0.016" fill="#fefffe" d="M 174.5,379.5 C 175.833,380.167 175.833,380.167 174.5,379.5 Z"/></g>
<g><path style="opacity:0.008" fill="#fefffe" d="M 252.5,379.5 C 252.833,379.5 253.167,379.5 253.5,379.5C 253.315,380.17 252.981,380.17 252.5,379.5 Z"/></g>
<g><path style="opacity:0.016" fill="#fefffe" d="M 302.5,379.5 C 303.833,380.167 303.833,380.167 302.5,379.5 Z"/></g>
<g><path style="opacity:0.016" fill="#fefffe" d="M 126.5,380.5 C 125.833,381.167 125.833,381.167 126.5,380.5 Z"/></g>
<g><path style="opacity:0.008" fill="#fefffe" d="M 173.5,381.5 C 174.833,382.167 174.833,382.167 173.5,381.5 Z"/></g>
<g><path style="opacity:0.016" fill="#fefffe" d="M 254.5,381.5 C 253.833,382.167 253.833,382.167 254.5,381.5 Z"/></g>
<g><path style="opacity:0.016" fill="#fefffe" d="M 301.5,381.5 C 302.833,382.167 302.833,382.167 301.5,381.5 Z"/></g>
<g><path style="opacity:0.008" fill="#fefffe" d="M 126.5,382.5 C 127.833,383.167 127.833,383.167 126.5,382.5 Z"/></g>
<g><path style="opacity:0.008" fill="#fefffe" d="M 172.5,382.5 C 172.833,382.5 173.167,382.5 173.5,382.5C 173.315,383.17 172.981,383.17 172.5,382.5 Z"/></g>
<g><path style="opacity:0.008" fill="#fefffe" d="M 300.5,383.5 C 301.833,384.167 301.833,384.167 300.5,383.5 Z"/></g>
<g><path style="opacity:0.016" fill="#fefffe" d="M 171.5,384.5 C 172.833,385.167 172.833,385.167 171.5,384.5 Z"/></g>
<g><path style="opacity:0.008" fill="#fefffe" d="M 299.5,384.5 C 299.833,384.5 300.167,384.5 300.5,384.5C 300.672,385.492 300.338,386.158 299.5,386.5C 299.5,385.833 299.5,385.167 299.5,384.5 Z"/></g>
<g><path style="opacity:0.016" fill="#fefffe" d="M 129.5,385.5 C 128.833,386.167 128.833,386.167 129.5,385.5 Z"/></g>
<g><path style="opacity:0.008" fill="#fefffe" d="M 170.5,386.5 C 171.833,387.167 171.833,387.167 170.5,386.5 Z"/></g>
<g><path style="opacity:0.016" fill="#fefffe" d="M 257.5,386.5 C 256.833,387.167 256.833,387.167 257.5,386.5 Z"/></g>
<g><path style="opacity:0.008" fill="#fefffe" d="M 298.5,386.5 C 298.833,386.5 299.167,386.5 299.5,386.5C 299.315,387.17 298.981,387.17 298.5,386.5 Z"/></g>
<g><path style="opacity:0.016" fill="#fefffe" d="M 130.5,387.5 C 129.833,388.167 129.833,388.167 130.5,387.5 Z"/></g>
<g><path style="opacity:0.008" fill="#fefffe" d="M 169.5,387.5 C 169.833,387.5 170.167,387.5 170.5,387.5C 170.672,388.492 170.338,389.158 169.5,389.5C 169.5,388.833 169.5,388.167 169.5,387.5 Z"/></g>
<g><path style="opacity:0.016" fill="#fefffe" d="M 258.5,388.5 C 257.833,389.167 257.833,389.167 258.5,388.5 Z"/></g>
<g><path style="opacity:0.016" fill="#fefffe" d="M 297.5,388.5 C 298.833,389.167 298.833,389.167 297.5,388.5 Z"/></g>
<g><path style="opacity:0.008" fill="#fefffe" d="M 130.5,389.5 C 131.833,390.167 131.833,390.167 130.5,389.5 Z"/></g>
<g><path style="opacity:0.016" fill="#fefffe" d="M 168.5,389.5 C 168.833,389.5 169.167,389.5 169.5,389.5C 169.315,390.17 168.981,390.17 168.5,389.5 Z"/></g>
<g><path style="opacity:0.008" fill="#fefffe" d="M 258.5,390.5 C 259.833,391.167 259.833,391.167 258.5,390.5 Z"/></g>
<g><path style="opacity:0.016" fill="#fefffe" d="M 296.5,390.5 C 297.833,391.167 297.833,391.167 296.5,390.5 Z"/></g>
<g><path style="opacity:0.016" fill="#fefffe" d="M 167.5,391.5 C 168.833,392.167 168.833,392.167 167.5,391.5 Z"/></g>
<g><path style="opacity:0.016" fill="#fefffe" d="M 133.5,392.5 C 132.833,393.167 132.833,393.167 133.5,392.5 Z"/></g>
<g><path style="opacity:0.008" fill="#fefffe" d="M 295.5,392.5 C 296.833,393.167 296.833,393.167 295.5,392.5 Z"/></g>
<g><path style="opacity:0.008" fill="#fefffe" d="M 166.5,393.5 C 167.833,394.167 167.833,394.167 166.5,393.5 Z"/></g>
<g><path style="opacity:0.016" fill="#fefffe" d="M 261.5,393.5 C 260.833,394.167 260.833,394.167 261.5,393.5 Z"/></g>
<g><path style="opacity:0.008" fill="#fefffe" d="M 294.5,393.5 C 294.833,393.5 295.167,393.5 295.5,393.5C 295.672,394.492 295.338,395.158 294.5,395.5C 294.5,394.833 294.5,394.167 294.5,393.5 Z"/></g>
<g><path style="opacity:0.008" fill="#fefffe" d="M 134.5,394.5 C 133.833,395.167 133.833,395.167 134.5,394.5 Z"/></g>
<g><path style="opacity:0.008" fill="#fefffe" d="M 165.5,394.5 C 165.833,394.5 166.167,394.5 166.5,394.5C 166.315,395.17 165.981,395.17 165.5,394.5 Z"/></g>
<g><path style="opacity:0.016" fill="#fefffe" d="M 262.5,395.5 C 261.833,396.167 261.833,396.167 262.5,395.5 Z"/></g>
<g><path style="opacity:0.008" fill="#fefffe" d="M 293.5,395.5 C 293.833,395.5 294.167,395.5 294.5,395.5C 294.315,396.17 293.981,396.17 293.5,395.5 Z"/></g>
<g><path style="opacity:0.008" fill="#fefffe" d="M 135.5,397.5 C 134.833,396.167 134.833,396.167 135.5,397.5 Z"/></g>
<g><path style="opacity:0.016" fill="#fefffe" d="M 164.5,396.5 C 165.833,397.167 165.833,397.167 164.5,396.5 Z"/></g>
<g><path style="opacity:0.008" fill="#fefffe" d="M 135.5,397.5 C 135.833,397.5 136.167,397.5 136.5,397.5C 136.315,398.17 135.981,398.17 135.5,397.5 Z"/></g>
<g><path style="opacity:0.008" fill="#fefffe" d="M 262.5,397.5 C 263.833,398.167 263.833,398.167 262.5,397.5 Z"/></g>
<g><path style="opacity:0.016" fill="#fefffe" d="M 292.5,397.5 C 293.833,398.167 293.833,398.167 292.5,397.5 Z"/></g>
<g><path style="opacity:0.008" fill="#fefffe" d="M 163.5,398.5 C 164.833,399.167 164.833,399.167 163.5,398.5 Z"/></g>
<g><path style="opacity:0.016" fill="#fefffe" d="M 137.5,399.5 C 136.833,400.167 136.833,400.167 137.5,399.5 Z"/></g>
<g><path style="opacity:0.008" fill="#fefffe" d="M 162.5,399.5 C 162.833,399.5 163.167,399.5 163.5,399.5C 163.672,400.492 163.338,401.158 162.5,401.5C 162.5,400.833 162.5,400.167 162.5,399.5 Z"/></g>
<g><path style="opacity:0.008" fill="#fefffe" d="M 291.5,399.5 C 292.833,400.167 292.833,400.167 291.5,399.5 Z"/></g>
<g><path style="opacity:0.016" fill="#fefffe" d="M 265.5,400.5 C 264.833,401.167 264.833,401.167 265.5,400.5 Z"/></g>
<g><path style="opacity:0.008" fill="#fefffe" d="M 137.5,401.5 C 138.833,402.167 138.833,402.167 137.5,401.5 Z"/></g>
<g><path style="opacity:0.016" fill="#fefffe" d="M 161.5,401.5 C 161.833,401.5 162.167,401.5 162.5,401.5C 162.315,402.17 161.981,402.17 161.5,401.5 Z"/></g>
<g><path style="opacity:0.008" fill="#fefffe" d="M 290.5,401.5 C 291.833,402.167 291.833,402.167 290.5,401.5 Z"/></g>
<g><path style="opacity:0.008" fill="#fefffe" d="M 266.5,402.5 C 265.833,403.167 265.833,403.167 266.5,402.5 Z"/></g>
<g><path style="opacity:0.008" fill="#fefffe" d="M 289.5,402.5 C 289.833,402.5 290.167,402.5 290.5,402.5C 290.672,403.492 290.338,404.158 289.5,404.5C 289.5,403.833 289.5,403.167 289.5,402.5 Z"/></g>
<g><path style="opacity:0.008" fill="#fefffe" d="M 160.5,403.5 C 161.833,404.167 161.833,404.167 160.5,403.5 Z"/></g>
<g><path style="opacity:0.016" fill="#fefffe" d="M 140.5,404.5 C 139.833,405.167 139.833,405.167 140.5,404.5 Z"/></g>
<g><path style="opacity:0.008" fill="#fefffe" d="M 267.5,405.5 C 266.833,404.167 266.833,404.167 267.5,405.5 Z"/></g>
<g><path style="opacity:0.016" fill="#fefffe" d="M 288.5,404.5 C 288.833,404.5 289.167,404.5 289.5,404.5C 289.315,405.17 288.981,405.17 288.5,404.5 Z"/></g>
<g><path style="opacity:0.008" fill="#fefffe" d="M 159.5,405.5 C 160.833,406.167 160.833,406.167 159.5,405.5 Z"/></g>
<g><path style="opacity:0.008" fill="#fefffe" d="M 267.5,405.5 C 267.833,405.5 268.167,405.5 268.5,405.5C 268.315,406.17 267.981,406.17 267.5,405.5 Z"/></g>
<g><path style="opacity:0.016" fill="#fefffe" d="M 141.5,406.5 C 140.833,407.167 140.833,407.167 141.5,406.5 Z"/></g>
<g><path style="opacity:0.008" fill="#fefffe" d="M 158.5,406.5 C 158.833,406.5 159.167,406.5 159.5,406.5C 159.315,407.17 158.981,407.17 158.5,406.5 Z"/></g>
<g><path style="opacity:0.016" fill="#fefffe" d="M 287.5,406.5 C 288.833,407.167 288.833,407.167 287.5,406.5 Z"/></g>
<g><path style="opacity:0.016" fill="#fefffe" d="M 269.5,407.5 C 268.833,408.167 268.833,408.167 269.5,407.5 Z"/></g>
<g><path style="opacity:0.008" fill="#fefffe" d="M 157.5,408.5 C 158.833,409.167 158.833,409.167 157.5,408.5 Z"/></g>
<g><path style="opacity:0.008" fill="#fefffe" d="M 286.5,408.5 C 287.833,409.167 287.833,409.167 286.5,408.5 Z"/></g>
<g><path style="opacity:0.008" fill="#fefffe" d="M 156.5,409.5 C 156.833,409.5 157.167,409.5 157.5,409.5C 157.315,410.17 156.981,410.17 156.5,409.5 Z"/></g>
<g><path style="opacity:0.008" fill="#fefffe" d="M 144.5,410.5 C 143.833,411.167 143.833,411.167 144.5,410.5 Z"/></g>
<g><path style="opacity:0.008" fill="#fefffe" d="M 155.5,410.5 C 155.833,410.5 156.167,410.5 156.5,410.5C 156.315,411.17 155.981,411.17 155.5,410.5 Z"/></g>
<g><path style="opacity:0.008" fill="#fefffe" d="M 146.5,411.5 C 146.5,411.833 146.5,412.167 146.5,412.5C 145.83,412.019 145.83,411.685 146.5,411.5 Z"/></g>
<g><path style="opacity:0.008" fill="#fefffe" d="M 155.5,411.5 C 154.833,412.167 154.833,412.167 155.5,411.5 Z"/></g>
<g><path style="opacity:0.008" fill="#fefffe" d="M 283.5,411.5 C 284.833,412.167 284.833,412.167 283.5,411.5 Z"/></g>
<g><path style="opacity:0.012" fill="#fefffe" d="M 146.5,412.5 C 147.239,412.369 147.906,412.536 148.5,413C 147.563,413.692 146.897,413.525 146.5,412.5 Z"/></g>
<g><path style="opacity:0.008" fill="#fefffe" d="M 151.5,413.5 C 151.897,412.475 152.563,412.308 153.5,413C 152.906,413.464 152.239,413.631 151.5,413.5 Z"/></g>
<g><path style="opacity:0.008" fill="#fefffe" d="M 274.5,412.5 C 274.5,412.833 274.5,413.167 274.5,413.5C 271.833,413.167 271.833,412.833 274.5,412.5 Z"/></g>
<g><path style="opacity:0.008" fill="#fefffe" d="M 282.5,412.5 C 282.833,412.5 283.167,412.5 283.5,412.5C 283.315,413.17 282.981,413.17 282.5,412.5 Z"/></g>
<g><path style="opacity:0.008" fill="#fefffe" d="M 274.5,413.5 C 275.239,413.369 275.906,413.536 276.5,414C 275.563,414.692 274.897,414.525 274.5,413.5 Z"/></g>
<g><path style="opacity:0.016" fill="#fefffe" d="M 280.5,413.5 C 281.833,414.167 281.833,414.167 280.5,413.5 Z"/></g>
</svg>
