<?xml version="1.0" encoding="UTF-8"?>
<!DOCTYPE svg PUBLIC "-//W3C//DTD SVG 1.1//EN" "http://www.w3.org/Graphics/SVG/1.1/DTD/svg11.dtd">
<svg xmlns="http://www.w3.org/2000/svg" version="1.1" width="300px" height="300px" style="shape-rendering:geometricPrecision; text-rendering:geometricPrecision; image-rendering:optimizeQuality; fill-rule:evenodd; clip-rule:evenodd" xmlns:xlink="http://www.w3.org/1999/xlink">
<g><path style="opacity:0.876" fill="#74beb2" d="M 85.5,16.5 C 98.4511,24.6508 111.118,33.3175 123.5,42.5C 128.897,46.7284 133.397,51.7284 137,57.5C 137.667,75.1667 137.667,92.8333 137,110.5C 133.682,113.855 130.182,116.189 126.5,117.5C 125.28,118.711 124.113,118.711 123,117.5C 122.311,118.357 121.478,119.023 120.5,119.5C 108.344,119.143 96.0107,119.143 83.5,119.5C 71.4419,119.489 59.6085,118.823 48,117.5C 47.6667,117.833 47.3333,118.167 47,118.5C 43.0667,114.736 42.5667,110.569 45.5,106C 54.3991,104.722 63.3991,104.055 72.5,104C 73.3366,102.989 73.67,101.822 73.5,100.5C 60.5869,100.178 47.7536,100.511 35,101.5C 28.8106,97.0512 28.3106,92.2179 33.5,87C 45.2273,86.0221 56.894,85.0221 68.5,84C 53.5,83.6667 38.5,83.3333 23.5,83C 22.3333,82.5 21.5,81.6667 21,80.5C 19.4419,81.3452 18.4419,80.6785 18,78.5C 16.6217,74.0575 17.7884,70.5575 21.5,68C 37.3187,67.9848 52.9853,67.3181 68.5,66C 68.0426,65.586 67.7093,65.086 67.5,64.5C 57.4634,63.4115 47.4634,63.2449 37.5,64C 31.9539,57.8645 32.4539,53.0311 39,49.5C 57.4657,50.4808 75.9657,50.8142 94.5,50.5C 94.6567,49.1266 94.49,47.7932 94,46.5C 89.2551,42.8776 84.4218,39.3776 79.5,36C 73.551,27.063 75.551,20.563 85.5,16.5 Z"/></g>
<g><path style="opacity:0.862" fill="#74beb2" d="M 231.5,17.5 C 234.407,17.1236 237.407,17.6236 240.5,19C 241.872,20.2419 242.872,21.7419 243.5,23.5C 242.184,38.1332 242.184,52.7998 243.5,67.5C 244.086,67.7093 244.586,68.0426 245,68.5C 245.333,57.5 245.667,46.5 246,35.5C 252.39,27.2955 257.89,28.2955 262.5,38.5C 262.403,49.8138 262.403,61.3138 262.5,73C 262.833,73.1667 263.167,73.3333 263.5,73.5C 263.871,64.4249 264.871,55.5915 266.5,47C 266.167,46.6667 265.833,46.3333 265.5,46C 271.683,42.1197 276.349,42.9531 279.5,48.5C 279.432,73.3375 279.432,98.0041 279.5,122.5C 278.975,123.192 278.308,123.692 277.5,124C 277.833,124.333 278.167,124.667 278.5,125C 276.638,129.53 274.472,133.363 272,136.5C 271.667,136.167 271.333,135.833 271,135.5C 262.231,136.819 253.231,137.485 244,137.5C 235.167,137.333 226.333,137.167 217.5,137C 211.678,132.844 206.511,128.011 202,122.5C 194.222,110.722 186.055,99.2221 177.5,88C 176.832,81.2576 180.332,77.0909 188,75.5C 191.597,76.1311 194.597,77.7978 197,80.5C 200.526,84.8344 203.36,89.5011 205.5,94.5C 206.833,94.5 208.167,94.5 209.5,94.5C 209.526,75.4582 209.526,56.6248 209.5,38C 211.748,36.0863 214.248,34.5863 217,33.5C 219.887,33.9031 222.221,35.2365 224,37.5C 225.095,47.7782 225.928,58.1115 226.5,68.5C 226.833,68.3333 227.167,68.1667 227.5,68C 228.833,53 228.833,38 227.5,23C 228.665,21.0083 229.998,19.175 231.5,17.5 Z"/></g>
<g><path style="opacity:0.833" fill="#fbec2e" d="M 160.5,49.5 C 175.504,49.3334 190.504,49.5001 205.5,50C 206,50.5 206.5,51 207,51.5C 207.954,62.598 207.62,73.598 206,84.5C 205.667,84.8333 205.333,85.1667 205,85.5C 201.439,81.027 197.439,77.027 193,73.5C 192.667,73.8333 192.333,74.1667 192,74.5C 191.692,73.6919 191.192,73.0253 190.5,72.5C 185.616,72.9859 181.116,74.9859 177,78.5C 176.163,80.8383 175.33,83.1716 174.5,85.5C 179.98,96.1499 186.48,106.15 194,115.5C 194.492,116.549 194.326,117.549 193.5,118.5C 182.272,119.82 171.105,119.82 160,118.5C 159.828,96.2606 159.328,74.0939 158.5,52C 159.381,51.2917 160.047,50.4584 160.5,49.5 Z"/></g>
<g><path style="opacity:0.817" fill="#74beb2" d="M 141.5,102.5 C 141.5,89.8333 141.5,77.1667 141.5,64.5C 141.461,63.2438 141.961,62.2438 143,61.5C 147,62.1667 151,62.8333 155,63.5C 155.667,77.1667 155.667,90.8333 155,104.5C 150.599,105.467 146.099,105.8 141.5,105.5C 141.5,104.5 141.5,103.5 141.5,102.5 Z"/></g>
<g><path style="opacity:0.004" fill="#74beb2" d="M 141.5,64.5 C 141.5,77.1667 141.5,89.8333 141.5,102.5C 140.17,96.537 139.504,90.2037 139.5,83.5C 139.504,76.7963 140.17,70.463 141.5,64.5 Z"/></g>
<g><path style="opacity:0.689" fill="#fbec2e" d="M 51.5,121.5 C 73.1692,121.333 94.8359,121.5 116.5,122C 117.025,122.692 117.692,123.192 118.5,123.5C 119.662,128.131 119.828,132.798 119,137.5C 96.2393,138.66 73.406,138.827 50.5,138C 48.9196,132.303 49.2529,126.803 51.5,121.5 Z"/></g>
<g><path style="opacity:0.675" fill="#74beb2" d="M 63.5,140.5 C 76.8375,140.333 90.1708,140.5 103.5,141C 104,141.5 104.5,142 105,142.5C 105.828,147.202 105.662,151.869 104.5,156.5C 91.2121,157.648 77.8787,157.815 64.5,157C 62.0259,154.959 61.0259,152.292 61.5,149C 61.3623,145.896 62.0289,143.062 63.5,140.5 Z"/></g>
<g><path style="opacity:0.851" fill="#74beb2" d="M 223.5,141.5 C 237.171,141.333 250.837,141.5 264.5,142C 265.833,146.333 265.833,150.667 264.5,155C 250.837,155.5 237.171,155.667 223.5,155.5C 223.5,150.833 223.5,146.167 223.5,141.5 Z"/></g>
<g><path style="opacity:0.882" fill="#74beb2" d="M 109.5,159.5 C 114.724,163.153 117.39,167.986 117.5,174C 118.428,174.388 119.095,175.055 119.5,176C 119.637,200.336 119.471,224.836 119,249.5C 114.694,255.558 110.028,255.558 105,249.5C 104.971,240.671 104.304,232.004 103,223.5C 102.586,223.957 102.086,224.291 101.5,224.5C 100.179,237.062 100.179,249.562 101.5,262C 100.167,263.333 98.8333,264.667 97.5,266C 95.2362,265.302 93.4028,265.802 92,267.5C 89.3333,266.167 87.3333,264.167 86,261.5C 85.8324,250.818 85.3324,240.151 84.5,229.5C 83.6672,244.489 83.1672,259.489 83,274.5C 82.1667,276.667 80.6667,278.167 78.5,279C 76.3435,279.078 74.3435,279.245 72.5,279.5C 70.6841,278.185 69.0175,276.685 67.5,275C 67.5322,260.042 67.5322,244.875 67.5,229.5C 66.1779,229.33 65.0113,229.663 64,230.5C 63.4144,240.22 63.4144,249.887 64,259.5C 61.6373,262.44 58.804,263.773 55.5,263.5C 53.2466,262.747 51.4133,261.414 50,259.5C 49.6667,240.5 49.3333,221.5 49,202.5C 47.4345,201.939 46.1011,202.606 45,204.5C 41.9376,210.23 38.1043,215.397 33.5,220C 32.1279,220.402 30.7946,220.902 29.5,221.5C 27.0996,221.652 24.7663,221.152 22.5,220C 17.988,216.915 16.488,213.081 18,208.5C 25.6667,197.5 33.3333,186.5 41,175.5C 45.3333,169.833 50.3333,164.833 56,160.5C 64.9249,161.16 73.9249,161.493 83,161.5C 92.1929,161.498 101.026,160.832 109.5,159.5 Z"/></g>
<g><path style="opacity:0.893" fill="#fbec2e" d="M 210.5,159.5 C 233.169,159.333 255.836,159.5 278.5,160C 279.826,181.768 279.826,203.601 278.5,225.5C 277.914,225.709 277.414,226.043 277,226.5C 273.589,225.707 270.089,225.207 266.5,225C 264.487,223.209 264.487,221.875 266.5,221C 265.167,218.667 265.167,216.333 266.5,214C 264.642,210.479 261.808,207.979 258,206.5C 243.23,207.823 228.397,207.823 213.5,206.5C 212.167,205.167 212.167,203.833 213.5,202.5C 223.509,197.305 226.009,189.638 221,179.5C 217.941,176.698 214.441,174.698 210.5,173.5C 209.225,168.784 209.225,164.117 210.5,159.5 Z"/></g>
<g><path style="opacity:0.878" fill="#74beb2" d="M 159.5,269.5 C 160.831,261.361 161.498,252.861 161.5,244C 161.498,235.139 160.831,226.639 159.5,218.5C 163.924,212.571 168.924,207.071 174.5,202C 185.833,194 197.167,186 208.5,178C 210.509,178.594 212.509,178.427 214.5,177.5C 219.631,180.56 221.964,184.893 221.5,190.5C 220.07,193.433 218.07,195.933 215.5,198C 211.167,201 206.833,204 202.5,207C 201.167,207.667 201.167,208.333 202.5,209C 221.167,209.333 239.833,209.667 258.5,210C 264.686,214.09 265.02,218.59 259.5,223.5C 249.851,224.332 240.184,224.832 230.5,225C 229.663,226.011 229.33,227.178 229.5,228.5C 244.548,228.817 259.548,228.484 274.5,227.5C 281.15,232.92 281.15,238.253 274.5,243.5C 259.548,242.516 244.548,242.183 229.5,242.5C 229.5,243.5 229.5,244.5 229.5,245.5C 240.172,245.333 250.839,245.5 261.5,246C 264.167,247.333 266.167,249.333 267.5,252C 264.833,253.333 264.833,254.667 267.5,256C 265.833,257.667 264.167,259.333 262.5,261C 249.072,261.036 235.739,261.703 222.5,263C 231.065,264.275 239.732,264.942 248.5,265C 256.5,269.667 256.5,274.333 248.5,279C 225.343,279.464 202.343,279.63 179.5,279.5C 177.971,279.471 176.804,278.804 176,277.5C 175.692,278.308 175.192,278.975 174.5,279.5C 168.262,277.891 163.262,274.557 159.5,269.5 Z"/></g>
<g><path style="opacity:0.761" fill="#faec2f" d="M 123.5,209.5 C 127.846,209.334 132.179,209.501 136.5,210C 137,210.5 137.5,211 138,211.5C 138.833,233.841 138.666,256.174 137.5,278.5C 120.211,279.652 102.877,279.819 85.5,279C 85.1667,278 84.8333,277 84.5,276C 85.1667,275.667 85.8333,275.333 86.5,275C 85.2404,273.186 85.2404,271.353 86.5,269.5C 90.8472,269.898 95.1805,269.398 99.5,268C 102.536,264.74 104.536,260.907 105.5,256.5C 108.727,256.345 112.06,256.178 115.5,256C 118.5,254.333 120.833,252 122.5,249C 121.345,236.576 121.179,224.076 122,211.5C 122.717,210.956 123.217,210.289 123.5,209.5 Z"/></g>
<g><path style="opacity:0.004" fill="#74beb2" d="M 159.5,218.5 C 160.831,226.639 161.498,235.139 161.5,244C 161.498,252.861 160.831,261.361 159.5,269.5C 159.5,252.5 159.5,235.5 159.5,218.5 Z"/></g>
<g><path style="opacity:0.697" fill="#74beb2" d="M 141.5,223.5 C 146.762,223.195 151.928,223.529 157,224.5C 157.667,237.5 157.667,250.5 157,263.5C 156.5,264 156,264.5 155.5,265C 151.167,265.667 146.833,265.667 142.5,265C 142,264.5 141.5,264 141,263.5C 140.187,250.092 140.353,236.758 141.5,223.5 Z"/></g>
</svg>
