<?xml version="1.0" encoding="UTF-8"?>
<!DOCTYPE svg PUBLIC "-//W3C//DTD SVG 1.1//EN" "http://www.w3.org/Graphics/SVG/1.1/DTD/svg11.dtd">
<svg xmlns="http://www.w3.org/2000/svg" version="1.1" width="420px" height="420px" style="shape-rendering:geometricPrecision; text-rendering:geometricPrecision; image-rendering:optimizeQuality; fill-rule:evenodd; clip-rule:evenodd" xmlns:xlink="http://www.w3.org/1999/xlink">
<g><path style="opacity:0.012" fill="#72BDB1" d="M 211.5,25.5 C 215.311,24.3547 219.311,24.1881 223.5,25C 219.514,25.4988 215.514,25.6655 211.5,25.5 Z"/></g>
<g><path style="opacity:0.009" fill="#72BDB1" d="M 228.5,26.5 C 229.946,25.3871 231.613,25.2204 233.5,26C 231.866,26.4935 230.199,26.6602 228.5,26.5 Z"/></g>
<g><path style="opacity:0.662" fill="#72BDB1" d="M 234.5,27.5 C 234.833,28.5 235.5,29.1667 236.5,29.5C 235.68,31.1401 234.847,32.8068 234,34.5C 229.651,32.6504 224.985,31.6504 220,31.5C 218.833,31.6667 217.667,31.8333 216.5,32C 218.167,32.3333 219.833,32.6667 221.5,33C 218.5,33.6667 215.5,33.6667 212.5,33C 213.5,32.6667 214.5,32.3333 215.5,32C 211.541,32.2087 209.874,30.3754 210.5,26.5C 218.517,26.5012 226.517,26.8345 234.5,27.5 Z"/></g>
<g><path style="opacity:0.008" fill="#72BDB1" d="M 234.5,26.5 C 235.833,27.1667 235.833,27.1667 234.5,26.5 Z"/></g>
<g><path style="opacity:0.008" fill="#72BDB1" d="M 149.5,28.5 C 150.251,27.4265 151.251,27.2599 152.5,28C 151.552,28.4828 150.552,28.6495 149.5,28.5 Z"/></g>
<g><path style="opacity:0.008" fill="#72BDB1" d="M 186.5,28.5 C 187.251,27.4265 188.251,27.2599 189.5,28C 188.552,28.4828 187.552,28.6495 186.5,28.5 Z"/></g>
<g><path style="opacity:0.01" fill="#72BDB1" d="M 208.5,27.5 C 209.573,28.2506 209.74,29.2506 209,30.5C 208.517,29.552 208.351,28.552 208.5,27.5 Z"/></g>
<g><path style="opacity:0.008" fill="#72BDB1" d="M 236.5,28.5 C 237.833,29.1667 237.833,29.1667 236.5,28.5 Z"/></g>
<g><path style="opacity:0.015" fill="#72BDB1" d="M 146.5,30.5 C 147.653,36.3188 147.819,42.3188 147,48.5C 146.501,42.5092 146.334,36.5092 146.5,30.5 Z"/></g>
<g><path style="opacity:0.008" fill="#72BDB1" d="M 190.5,30.5 C 191.833,31.1667 191.833,31.1667 190.5,30.5 Z"/></g>
<g><path style="opacity:0.008" fill="#72BDB1" d="M 255.5,31.5 C 255.897,30.475 256.563,30.3083 257.5,31C 256.906,31.4643 256.239,31.631 255.5,31.5 Z"/></g>
<g><path style="opacity:0.734" fill="#72BDB1" d="M 255.5,31.5 C 257.515,32.9238 259.848,33.5905 262.5,33.5C 263.209,34.404 264.209,34.7373 265.5,34.5C 266.209,35.404 267.209,35.7373 268.5,35.5C 269.209,36.404 270.209,36.7373 271.5,36.5C 272.965,37.7368 274.632,38.7368 276.5,39.5C 276.5,40.1667 276.5,40.8333 276.5,41.5C 275.395,42.6005 274.062,43.2671 272.5,43.5C 271.791,42.596 270.791,42.2627 269.5,42.5C 268.791,41.596 267.791,41.2627 266.5,41.5C 265.328,40.2947 263.995,40.2947 262.5,41.5C 261.304,41.1543 261.304,40.6543 262.5,40C 261.906,39.5357 261.239,39.369 260.5,39.5C 258.485,38.0762 256.152,37.4095 253.5,37.5C 250.484,34.345 251.151,32.345 255.5,31.5 Z"/></g>
<g><path style="opacity:0.012" fill="#72BDB1" d="M 259.5,32.5 C 259.897,31.475 260.563,31.3083 261.5,32C 260.906,32.4643 260.239,32.631 259.5,32.5 Z"/></g>
<g><path style="opacity:0.008" fill="#72BDB1" d="M 262.5,33.5 C 262.897,32.475 263.563,32.3083 264.5,33C 263.906,33.4643 263.239,33.631 262.5,33.5 Z"/></g>
<g><path style="opacity:0.01" fill="#72BDB1" d="M 226.5,34.5 C 228.288,33.3775 230.288,33.2109 232.5,34C 230.527,34.4955 228.527,34.6621 226.5,34.5 Z"/></g>
<g><path style="opacity:0.012" fill="#72BDB1" d="M 249.5,33.5 C 250.525,33.8966 250.692,34.5632 250,35.5C 249.536,34.9056 249.369,34.2389 249.5,33.5 Z"/></g>
<g><path style="opacity:0.008" fill="#72BDB1" d="M 265.5,34.5 C 265.897,33.475 266.563,33.3083 267.5,34C 266.906,34.4643 266.239,34.631 265.5,34.5 Z"/></g>
<g><path style="opacity:0.008" fill="#72BDB1" d="M 268.5,35.5 C 268.897,34.475 269.563,34.3083 270.5,35C 269.906,35.4643 269.239,35.631 268.5,35.5 Z"/></g>
<g><path style="opacity:0.008" fill="#72BDB1" d="M 271.5,36.5 C 271.897,35.475 272.563,35.3083 273.5,36C 272.906,36.4643 272.239,36.631 271.5,36.5 Z"/></g>
<g><path style="opacity:0.008" fill="#72BDB1" d="M 274.5,36.5 C 275.833,37.1667 275.833,37.1667 274.5,36.5 Z"/></g>
<g><path style="opacity:0.008" fill="#72BDB1" d="M 253.5,37.5 C 252.833,38.1667 252.833,38.1667 253.5,37.5 Z"/></g>
<g><path style="opacity:0.012" fill="#72BDB1" d="M 254.5,39.5 C 254.897,38.475 255.563,38.3083 256.5,39C 255.906,39.4643 255.239,39.631 254.5,39.5 Z"/></g>
<g><path style="opacity:0.008" fill="#72BDB1" d="M 276.5,38.5 C 277.833,39.1667 277.833,39.1667 276.5,38.5 Z"/></g>
<g><path style="opacity:0.008" fill="#72BDB1" d="M 260.5,39.5 C 260.103,40.525 259.437,40.6917 258.5,40C 259.094,39.5357 259.761,39.369 260.5,39.5 Z"/></g>
<g><path style="opacity:0.008" fill="#72BDB1" d="M 266.5,41.5 C 266.103,42.525 265.437,42.6917 264.5,42C 265.094,41.5357 265.761,41.369 266.5,41.5 Z"/></g>
<g><path style="opacity:0.008" fill="#72BDB1" d="M 276.5,41.5 C 277.833,42.1667 277.833,42.1667 276.5,41.5 Z"/></g>
<g><path style="opacity:0.008" fill="#72BDB1" d="M 269.5,42.5 C 269.103,43.525 268.437,43.6917 267.5,43C 268.094,42.5357 268.761,42.369 269.5,42.5 Z"/></g>
<g><path style="opacity:0.008" fill="#72BDB1" d="M 272.5,43.5 C 272.103,44.525 271.437,44.6917 270.5,44C 271.094,43.5357 271.761,43.369 272.5,43.5 Z"/></g>
<g><path style="opacity:0.008" fill="#72BDB1" d="M 69.5,46.5 C 70.8333,47.1667 70.8333,47.1667 69.5,46.5 Z"/></g>
<g><path style="opacity:0.008" fill="#72BDB1" d="M 74.5,46.5 C 75.8333,47.1667 75.8333,47.1667 74.5,46.5 Z"/></g>
<g><path style="opacity:0.008" fill="#72BDB1" d="M 79.5,47.5 C 79.8966,46.475 80.5632,46.3083 81.5,47C 80.9056,47.4643 80.2389,47.631 79.5,47.5 Z"/></g>
<g><path style="opacity:0.008" fill="#72BDB1" d="M 84.5,47.5 C 84.8966,46.475 85.5632,46.3083 86.5,47C 85.9056,47.4643 85.2389,47.631 84.5,47.5 Z"/></g>
<g><path style="opacity:0.008" fill="#72BDB1" d="M 90.5,47.5 C 90.8966,46.475 91.5632,46.3083 92.5,47C 91.9056,47.4643 91.2389,47.631 90.5,47.5 Z"/></g>
<g><path style="opacity:0.008" fill="#72BDB1" d="M 95.5,47.5 C 95.8966,46.475 96.5632,46.3083 97.5,47C 96.9056,47.4643 96.2389,47.631 95.5,47.5 Z"/></g>
<g><path style="opacity:0.008" fill="#72BDB1" d="M 68.5,48.5 C 67.8333,47.1667 67.8333,47.1667 68.5,48.5 Z"/></g>
<g><path style="opacity:0.828" fill="#72BDB1" d="M 153.5,30.5 C 153.5,30.8333 153.5,31.1667 153.5,31.5C 152.51,37.31 152.177,43.31 152.5,49.5C 162.167,49.5 171.833,49.5 181.5,49.5C 182.794,50.2899 183.961,51.2899 185,52.5C 185.5,45.5079 185.666,38.5079 185.5,31.5C 186.183,29.8235 187.517,29.1568 189.5,29.5C 189.334,38.5062 189.5,47.5062 190,56.5C 191.615,57.3862 193.115,58.3862 194.5,59.5C 194.328,60.4916 194.662,61.1583 195.5,61.5C 194.488,65.0171 194.488,68.0171 195.5,70.5C 195.046,72.2589 195.046,74.2589 195.5,76.5C 194.524,77.8149 193.524,79.1482 192.5,80.5C 195.507,84.9522 195.007,88.9522 191,92.5C 189.727,106.026 190.56,119.36 193.5,132.5C 197.182,132.335 200.848,132.501 204.5,133C 205.8,134.579 205.466,135.745 203.5,136.5C 200.5,136.5 197.5,136.5 194.5,136.5C 194.666,146.506 194.5,156.506 194,166.5C 193.617,167.056 193.117,167.389 192.5,167.5C 191.957,167.56 191.624,167.893 191.5,168.5C 196.12,169.493 200.786,169.827 205.5,169.5C 205.67,170.822 205.337,171.989 204.5,173C 198.141,173.169 191.807,173.669 185.5,174.5C 182.271,179.039 178.271,179.705 173.5,176.5C 170.035,179.122 166.535,179.122 163,176.5C 158.67,179.528 154.837,179.028 151.5,175C 138.167,174.333 124.833,174.333 111.5,175C 108.956,176.092 106.289,176.759 103.5,177C 102.521,183.744 102.188,190.578 102.5,197.5C 101.178,197.67 100.011,197.337 99,196.5C 98.5005,190.509 98.3338,184.509 98.5,178.5C 88.8276,178.666 79.1609,178.5 69.5,178C 68.6667,177.167 67.8333,176.333 67,175.5C 65.9317,182.774 66.4317,189.774 68.5,196.5C 66.2869,197.605 64.1203,197.605 62,196.5C 61.8296,187.657 61.3296,178.99 60.5,170.5C 59.1667,169.167 57.8333,167.833 56.5,166.5C 56.5,164.167 56.5,161.833 56.5,159.5C 59.1667,158.167 59.1667,156.833 56.5,155.5C 56.0196,152.315 56.6863,149.481 58.5,147C 57.9341,146.005 57.2674,145.172 56.5,144.5C 55.8144,140.713 56.8144,137.546 59.5,135C 58.348,124.91 58.1814,114.744 59,104.5C 59.3333,114.167 59.6667,123.833 60,133.5C 60.6667,123.5 60.6667,113.5 60,103.5C 59,100.5 58,97.5 57,94.5C 53.9269,95.6168 50.7603,95.7835 47.5,95C 45.4523,93.7741 45.119,92.2741 46.5,90.5C 46.8333,90.5 47.1667,90.5 47.5,90.5C 47.8333,90.5 48.1667,90.5 48.5,90.5C 51.2869,91.4767 54.2869,91.81 57.5,91.5C 57.5,81.8333 57.5,72.1667 57.5,62.5C 57.5106,60.9826 58.1772,59.8159 59.5,59C 55.5138,58.5012 51.5138,58.3345 47.5,58.5C 47.1667,58.5 46.8333,58.5 46.5,58.5C 45.2721,56.9902 45.2721,55.4902 46.5,54C 52.5,53.6667 58.5,53.3333 64.5,53C 66.0414,51.6288 67.3747,50.1288 68.5,48.5C 71.1667,47.1667 73.8333,47.1667 76.5,48.5C 77.5,51.1667 78.5,51.1667 79.5,48.5C 81.2161,48.3713 82.8828,48.038 84.5,47.5C 85.8484,48.6006 87.3484,49.6006 89,50.5C 89.7172,49.9558 90.2172,49.2891 90.5,48.5C 93.9765,47.6392 97.3098,48.3059 100.5,50.5C 106.631,51.83 113.131,52.4966 120,52.5C 129.714,53.0116 139.214,52.0116 148.5,49.5C 148.334,43.1579 148.5,36.8246 149,30.5C 150.49,29.2721 151.99,29.2721 153.5,30.5 Z M 133.5,99.5 C 133.158,100.338 132.492,100.672 131.5,100.5C 131.141,98.1688 130.474,98.3355 129.5,101C 129.728,101.399 130.062,101.565 130.5,101.5C 130.158,102.338 129.492,102.672 128.5,102.5C 128.565,102.062 128.399,101.728 128,101.5C 126.603,103.07 125.103,104.404 123.5,105.5C 122.833,105.5 122.5,105.833 122.5,106.5C 120.5,107.833 118.833,109.5 117.5,111.5C 116.5,111.833 115.833,112.5 115.5,113.5C 114.833,114.5 114.167,115.5 113.5,116.5C 111.871,116.372 110.538,117.372 109.5,119.5C 108.5,119.833 107.833,120.5 107.5,121.5C 106.833,121.5 106.5,121.833 106.5,122.5C 105.325,122.719 104.325,122.386 103.5,121.5C 103.846,120.304 104.346,120.304 105,121.5C 105.026,117.861 105.86,114.528 107.5,111.5C 108.289,111.217 108.956,110.717 109.5,110C 108.226,109.023 108.226,108.189 109.5,107.5C 109.369,106.761 109.536,106.094 110,105.5C 110.92,105.07 111.753,104.736 112.5,104.5C 111.643,101.549 111.643,98.5491 112.5,95.5C 118.537,95.1707 124.537,95.5041 130.5,96.5C 131.77,97.2876 132.77,98.2876 133.5,99.5 Z M 123.5,105.5 C 124.167,105.5 124.833,105.5 125.5,105.5C 125.027,106.906 124.027,107.573 122.5,107.5C 122.5,107.167 122.5,106.833 122.5,106.5C 123.167,106.5 123.5,106.167 123.5,105.5 Z"/></g>
<g><path style="opacity:0.008" fill="#72BDB1" d="M 90.5,47.5 C 90.5,47.8333 90.5,48.1667 90.5,48.5C 89.8299,48.0187 89.8299,47.6853 90.5,47.5 Z"/></g>
<g><path style="opacity:0.008" fill="#72BDB1" d="M 87.5,47.5 C 88.8333,48.1667 88.8333,48.1667 87.5,47.5 Z"/></g>
<g><path style="opacity:0.008" fill="#72BDB1" d="M 79.5,47.5 C 79.5,47.8333 79.5,48.1667 79.5,48.5C 78.8299,48.0187 78.8299,47.6853 79.5,47.5 Z"/></g>
<g><path style="opacity:0.008" fill="#72BDB1" d="M 76.5,47.5 C 77.8333,48.1667 77.8333,48.1667 76.5,47.5 Z"/></g>
<g><path style="opacity:1" fill="#a2c071" d="M 153.5,31.5 C 153.5,37.1667 153.5,42.8333 153.5,48.5C 163.015,48.1731 172.348,48.5064 181.5,49.5C 171.833,49.5 162.167,49.5 152.5,49.5C 152.177,43.31 152.51,37.31 153.5,31.5 Z"/></g>
<g><path style="opacity:1" fill="#faec2e" d="M 153.5,31.5 C 164.167,31.5 174.833,31.5 185.5,31.5C 185.666,38.5079 185.5,45.5079 185,52.5C 183.961,51.2899 182.794,50.2899 181.5,49.5C 172.348,48.5064 163.015,48.1731 153.5,48.5C 153.5,42.8333 153.5,37.1667 153.5,31.5 Z"/></g>
<g><path style="opacity:0.008" fill="#72BDB1" d="M 183.5,29.5 C 184.833,30.1667 184.833,30.1667 183.5,29.5 Z"/></g>
<g><path style="opacity:0.008" fill="#72BDB1" d="M 153.5,29.5 C 154.833,30.1667 154.833,30.1667 153.5,29.5 Z"/></g>
<g><path style="opacity:0.012" fill="#72BDB1" d="M 142.5,49.5 C 142.897,48.475 143.563,48.3083 144.5,49C 143.906,49.4643 143.239,49.631 142.5,49.5 Z"/></g>
<g><path style="opacity:0.008" fill="#72BDB1" d="M 101.5,50.5 C 100.833,49.1667 100.833,49.1667 101.5,50.5 Z"/></g>
<g><path style="opacity:0.008" fill="#72BDB1" d="M 139.5,50.5 C 139.897,49.475 140.563,49.3083 141.5,50C 140.906,50.4643 140.239,50.631 139.5,50.5 Z"/></g>
<g><path style="opacity:0.008" fill="#72BDB1" d="M 101.5,50.5 C 113.838,50.3335 126.171,50.5001 138.5,51C 125.993,51.8265 113.66,51.6599 101.5,50.5 Z"/></g>
<g><path style="opacity:0.012" fill="#72BDB1" d="M 290.5,52.5 C 294.981,51.3516 299.648,51.1849 304.5,52C 299.845,52.4992 295.179,52.6658 290.5,52.5 Z"/></g>
<g><path style="opacity:0.01" fill="#72BDB1" d="M 283.5,53.5 C 284.251,52.4265 285.251,52.2599 286.5,53C 285.552,53.4828 284.552,53.6495 283.5,53.5 Z"/></g>
<g><path style="opacity:0.012" fill="#72BDB1" d="M 307.5,53.5 C 308.601,52.4017 309.934,52.235 311.5,53C 310.207,53.49 308.873,53.6567 307.5,53.5 Z"/></g>
<g><path style="opacity:1" fill="#72BDB1" d="M 70.5,52.5 C 72.1439,52.2865 73.6439,52.6198 75,53.5C 75.4998,62.4938 75.6664,71.4938 75.5,80.5C 76.8333,80.5 78.1667,80.5 79.5,80.5C 79.3336,71.8269 79.5002,63.1603 80,54.5C 81.7328,52.3985 83.7328,52.0652 86,53.5C 86.4998,62.4938 86.6664,71.4938 86.5,80.5C 87.8333,80.5 89.1667,80.5 90.5,80.5C 90.3336,71.8269 90.5002,63.1603 91,54.5C 93,51.8333 95,51.8333 97,54.5C 97.3333,67.5 97.6667,80.5 98,93.5C 101.459,94.1334 104.959,94.8 108.5,95.5C 107.613,102.286 104.447,107.619 99,111.5C 98.5003,118.826 98.3337,126.159 98.5,133.5C 87.5,133.5 76.5,133.5 65.5,133.5C 65.6665,123.494 65.4998,113.494 65,103.5C 61.1306,95.2762 59.6306,86.6095 60.5,77.5C 60.6667,72.8333 60.8333,68.1667 61,63.5C 62.3561,62.6198 63.8561,62.2865 65.5,62.5C 65.5,68.5 65.5,74.5 65.5,80.5C 66.5,80.5 67.5,80.5 68.5,80.5C 68.3336,71.8269 68.5002,63.1603 69,54.5C 69.7172,53.9558 70.2172,53.2891 70.5,52.5 Z"/></g>
<g><path style="opacity:1" fill="#fbfdfe" d="M 150.5,52.5 C 160.506,52.3335 170.506,52.5002 180.5,53C 181.337,54.0113 181.67,55.1779 181.5,56.5C 175.824,56.3339 170.157,56.5006 164.5,57C 163.549,57.7175 163.383,58.5509 164,59.5C 172.422,60.318 180.922,60.818 189.5,61C 190.833,63 190.833,65 189.5,67C 180.833,67.3333 172.167,67.6667 163.5,68C 162.167,69 162.167,70 163.5,71C 172.167,71.3333 180.833,71.6667 189.5,72C 190.576,73.7261 190.743,75.5594 190,77.5C 181.245,78.3186 172.411,78.8186 163.5,79C 162.167,80 162.167,81 163.5,82C 172.167,82.3333 180.833,82.6667 189.5,83C 190.576,84.7261 190.743,86.5594 190,88.5C 176.575,89.3239 163.075,89.8239 149.5,90C 148.549,93.0567 148.216,96.2234 148.5,99.5C 141.567,100.033 136.234,97.3668 132.5,91.5C 122.188,90.5014 111.855,90.1681 101.5,90.5C 101.5,79.1667 101.5,67.8333 101.5,56.5C 114.504,56.6666 127.504,56.4999 140.5,56C 143.98,54.8974 147.313,53.7308 150.5,52.5 Z"/></g>
<g><path style="opacity:0.008" fill="#72BDB1" d="M 279.5,54.5 C 279.897,53.475 280.563,53.3083 281.5,54C 280.906,54.4643 280.239,54.631 279.5,54.5 Z"/></g>
<g><path style="opacity:0.912" fill="#72BDB1" d="M 318.5,56.5 C 320.509,58.0652 322.843,59.0652 325.5,59.5C 325.842,60.3382 326.508,60.6716 327.5,60.5C 328.189,61.7736 329.023,61.7736 330,60.5C 330.377,61.9423 331.21,62.9423 332.5,63.5C 333.29,64.4013 334.29,65.0679 335.5,65.5C 338.284,68.5246 341.284,70.6912 344.5,72C 344.167,72.3333 343.833,72.6667 343.5,73C 345.037,74.7073 346.704,76.2073 348.5,77.5C 348.738,79.4044 349.738,80.7377 351.5,81.5C 351.427,83.0269 352.094,84.0269 353.5,84.5C 353.328,85.4916 353.662,86.1583 354.5,86.5C 354.427,88.0269 355.094,89.0269 356.5,89.5C 356.369,92.3289 357.369,93.6622 359.5,93.5C 358.347,94.6868 358.347,95.6868 359.5,96.5C 359.263,97.791 359.596,98.791 360.5,99.5C 360.565,102.428 361.232,105.095 362.5,107.5C 362.338,109.527 362.505,111.527 363,113.5C 363.649,110.063 364.149,109.896 364.5,113C 364.155,114.573 363.489,115.74 362.5,116.5C 363.69,118.359 363.69,120.192 362.5,122C 364.178,123.932 364.678,126.098 364,128.5C 363.667,127.167 363.333,125.833 363,124.5C 362.257,126.441 362.424,128.274 363.5,130C 362.833,130.333 362.167,130.667 361.5,131C 363.158,131.725 363.658,132.892 363,134.5C 362.667,133.833 362.333,133.167 362,132.5C 361.598,133.872 361.098,135.205 360.5,136.5C 361.167,136.833 361.833,137.167 362.5,137.5C 361.757,138.182 361.091,138.849 360.5,139.5C 358.862,140.705 358.529,142.038 359.5,143.5C 359.587,146.598 359.087,146.932 358,144.5C 356.546,147.071 355.38,149.738 354.5,152.5C 353.662,152.842 353.328,153.508 353.5,154.5C 352.833,154.5 352.5,154.833 352.5,155.5C 351.167,156.167 351.167,156.833 352.5,157.5C 351.992,159.233 351.159,159.566 350,158.5C 348.961,159.244 348.461,160.244 348.5,161.5C 347.833,161.5 347.5,161.833 347.5,162.5C 346.167,162.833 346.167,163.167 347.5,163.5C 347.167,164.5 346.5,165.167 345.5,165.5C 345.167,164.167 344.833,164.167 344.5,165.5C 343.833,165.5 343.5,165.833 343.5,166.5C 342.833,166.5 342.5,166.833 342.5,167.5C 341.833,167.5 341.5,167.833 341.5,168.5C 340.833,168.5 340.5,168.833 340.5,169.5C 339.833,169.5 339.5,169.833 339.5,170.5C 338.833,170.5 338.5,170.833 338.5,171.5C 338.167,171.5 337.833,171.5 337.5,171.5C 317.825,184.954 296.492,188.121 273.5,181C 243.008,166.531 229.175,142.365 232,108.5C 234.191,98.4118 238.024,89.0785 243.5,80.5C 248.799,74.2206 255.133,68.2206 262.5,62.5C 266.151,61.3411 269.485,59.6744 272.5,57.5C 287.731,52.6107 303.064,52.2774 318.5,56.5 Z"/></g>
<g><path style="opacity:0.008" fill="#72BDB1" d="M 312.5,54.5 C 312.897,53.475 313.563,53.3083 314.5,54C 313.906,54.4643 313.239,54.631 312.5,54.5 Z"/></g>
<g><path style="opacity:0.008" fill="#72BDB1" d="M 275.5,55.5 C 275.897,54.475 276.563,54.3083 277.5,55C 276.906,55.4643 276.239,55.631 275.5,55.5 Z"/></g>
<g><path style="opacity:0.008" fill="#72BDB1" d="M 316.5,54.5 C 317.833,55.1667 317.833,55.1667 316.5,54.5 Z"/></g>
<g><path style="opacity:0.008" fill="#72BDB1" d="M 43.5,55.5 C 44.8333,56.1667 44.8333,56.1667 43.5,55.5 Z"/></g>
<g><path style="opacity:0.008" fill="#72BDB1" d="M 273.5,55.5 C 274.833,56.1667 274.833,56.1667 273.5,55.5 Z"/></g>
<g><path style="opacity:0.008" fill="#72BDB1" d="M 318.5,56.5 C 318.897,55.475 319.563,55.3083 320.5,56C 319.906,56.4643 319.239,56.631 318.5,56.5 Z"/></g>
<g><path style="opacity:0.008" fill="#72BDB1" d="M 272.5,57.5 C 271.833,56.1667 271.833,56.1667 272.5,57.5 Z"/></g>
<g><path style="opacity:0.008" fill="#72BDB1" d="M 321.5,56.5 C 322.833,57.1667 322.833,57.1667 321.5,56.5 Z"/></g>
<g><path style="opacity:0.932" fill="#f4f8fc" d="M 46.5,58.5 C 46.8333,61.1667 47.1667,61.1667 47.5,58.5C 51.5138,58.3345 55.5138,58.5012 59.5,59C 58.1772,59.8159 57.5106,60.9826 57.5,62.5C 56.5064,71.6517 56.1731,80.985 56.5,90.5C 53.8333,90.5 51.1667,90.5 48.5,90.5C 48.1667,90.5 47.8333,90.5 47.5,90.5C 47.1667,89.1667 46.8333,89.1667 46.5,90.5C 45.1667,79.8333 45.1667,69.1667 46.5,58.5 Z"/></g>
<g><path style="opacity:0.008" fill="#72BDB1" d="M 194.5,58.5 C 195.833,59.1667 195.833,59.1667 194.5,58.5 Z"/></g>
<g><path style="opacity:1" fill="#72BDB1" d="M 290.5,58.5 C 291.833,58.5 293.167,58.5 294.5,58.5C 294.5,78.1667 294.5,97.8333 294.5,117.5C 284.833,117.5 275.167,117.5 265.5,117.5C 265.266,99.8268 269.766,83.4935 279,68.5C 282.435,64.5549 286.268,61.2216 290.5,58.5 Z"/></g>
<g><path style="opacity:1" fill="#72BDB1" d="M 298.5,57.5 C 307.965,60.4631 314.799,66.4631 319,75.5C 325.543,88.7104 328.709,102.71 328.5,117.5C 318.5,117.5 308.5,117.5 298.5,117.5C 298.5,97.5 298.5,77.5 298.5,57.5 Z"/></g>
<g><path style="opacity:0.008" fill="#72BDB1" d="M 325.5,58.5 C 326.833,59.1667 326.833,59.1667 325.5,58.5 Z"/></g>
<g><path style="opacity:0.008" fill="#72BDB1" d="M 327.5,59.5 C 328.833,60.1667 328.833,60.1667 327.5,59.5 Z"/></g>
<g><path style="opacity:0.008" fill="#72BDB1" d="M 195.5,60.5 C 196.833,61.1667 196.833,61.1667 195.5,60.5 Z"/></g>
<g><path style="opacity:0.008" fill="#72BDB1" d="M 262.5,62.5 C 261.833,61.1667 261.833,61.1667 262.5,62.5 Z"/></g>
<g><path style="opacity:0.008" fill="#72BDB1" d="M 196.5,62.5 C 197.573,63.2506 197.74,64.2506 197,65.5C 196.517,64.552 196.351,63.552 196.5,62.5 Z"/></g>
<g><path style="opacity:1" fill="#72BDB1" d="M 278.5,60.5 C 279.239,60.369 279.906,60.5357 280.5,61C 267.191,77.3693 260.857,96.2026 261.5,117.5C 252.833,117.5 244.167,117.5 235.5,117.5C 238.011,89.4406 252.344,70.4406 278.5,60.5 Z"/></g>
<g><path style="opacity:1" fill="#72BDB1" d="M 311.5,60.5 C 332.39,65.1853 346.89,77.852 355,98.5C 357.389,104.612 358.556,110.945 358.5,117.5C 349.833,117.5 341.167,117.5 332.5,117.5C 332.772,99.0128 327.939,82.0128 318,66.5C 315.963,64.2941 313.797,62.2941 311.5,60.5 Z"/></g>
<g><path style="opacity:0.008" fill="#72BDB1" d="M 332.5,62.5 C 333.833,63.1667 333.833,63.1667 332.5,62.5 Z"/></g>
<g><path style="opacity:1" fill="#72BDB1" d="M 57.5,62.5 C 57.5,72.1667 57.5,81.8333 57.5,91.5C 54.2869,91.81 51.2869,91.4767 48.5,90.5C 51.1667,90.5 53.8333,90.5 56.5,90.5C 56.1731,80.985 56.5064,71.6517 57.5,62.5 Z"/></g>
<g><path style="opacity:0.008" fill="#72BDB1" d="M 335.5,64.5 C 336.833,65.1667 336.833,65.1667 335.5,64.5 Z"/></g>
<g><path style="opacity:0.008" fill="#72BDB1" d="M 255.5,65.5 C 256.833,66.1667 256.833,66.1667 255.5,65.5 Z"/></g>
<g><path style="opacity:0.008" fill="#72BDB1" d="M 195.5,70.5 C 196.833,71.1667 196.833,71.1667 195.5,70.5 Z"/></g>
<g><path style="opacity:0.016" fill="#abcaea" d="M 196.5,73.5 C 205.089,74.3046 213.756,74.8046 222.5,75C 218.167,75.1667 213.833,75.3333 209.5,75.5C 204.778,75.4921 200.445,74.8255 196.5,73.5 Z"/></g>
<g><path style="opacity:0.016" fill="#b1cee7" d="M 224.5,76.5 C 226.288,75.3775 228.288,75.2109 230.5,76C 228.527,76.4955 226.527,76.6621 224.5,76.5 Z"/></g>
<g><path style="opacity:0.996" fill="#72BDB1" d="M 195.5,76.5 C 207.518,76.3578 219.518,76.6912 231.5,77.5C 232.919,78.4511 234.585,78.7845 236.5,78.5C 238.657,79.4067 240.99,80.0733 243.5,80.5C 238.024,89.0785 234.191,98.4118 232,108.5C 229.175,142.365 243.008,166.531 273.5,181C 296.492,188.121 317.825,184.954 337.5,171.5C 337.833,174.167 338.167,174.167 338.5,171.5C 338.833,171.5 339.167,171.5 339.5,171.5C 339.64,173.124 338.973,174.29 337.5,175C 338.362,177.734 339.195,177.901 340,175.5C 340.658,177.108 340.158,178.275 338.5,179C 339.362,181.734 340.195,181.901 341,179.5C 340.954,182.8 340.788,186.134 340.5,189.5C 330.014,188.31 321.014,191.476 313.5,199C 311.913,199.862 310.246,200.529 308.5,201C 300.833,201.333 293.167,201.667 285.5,202C 283.359,203.308 281.359,204.808 279.5,206.5C 267.684,196.428 255.684,186.594 243.5,177C 233.999,173.915 228.333,177.248 226.5,187C 226.615,189.732 227.448,192.232 229,194.5C 248.226,214.394 268.059,233.561 288.5,252C 304.544,252.196 320.544,252.696 336.5,253.5C 340.298,254.483 344.298,254.817 348.5,254.5C 344.688,255.324 340.688,255.824 336.5,256C 335.461,257.617 334.461,258.783 333.5,259.5C 332.662,259.842 332.328,260.508 332.5,261.5C 329.992,265.182 327.992,269.182 326.5,273.5C 325.662,273.842 325.328,274.508 325.5,275.5C 324.167,276.167 324.167,276.833 325.5,277.5C 324.833,278.167 324.167,278.833 323.5,279.5C 322.833,279.5 322.5,279.833 322.5,280.5C 321.662,280.842 321.328,281.508 321.5,282.5C 320.167,282.833 320.167,283.167 321.5,283.5C 321.672,284.492 321.338,285.158 320.5,285.5C 320.167,284.167 319.833,284.167 319.5,285.5C 318.833,285.5 318.5,285.833 318.5,286.5C 316.618,287.221 316.285,288.221 317.5,289.5C 316.992,291.233 316.159,291.566 315,290.5C 313.961,291.244 313.461,292.244 313.5,293.5C 312.833,293.5 312.5,293.833 312.5,294.5C 311.833,294.5 311.5,294.833 311.5,295.5C 310.167,295.833 310.167,296.167 311.5,296.5C 311.611,298.648 310.944,298.981 309.5,297.5C 308.575,298.357 307.908,299.357 307.5,300.5C 306.833,300.5 306.5,300.833 306.5,301.5C 305.833,301.5 305.5,301.833 305.5,302.5C 304.167,302.833 304.167,303.167 305.5,303.5C 304.5,305.167 303.167,306.5 301.5,307.5C 301.167,306.167 300.833,306.167 300.5,307.5C 299.833,307.5 299.5,307.833 299.5,308.5C 298.833,308.5 298.5,308.833 298.5,309.5C 297.508,309.328 296.842,309.662 296.5,310.5C 295.167,310.833 295.167,311.167 296.5,311.5C 295.5,313.167 294.167,314.5 292.5,315.5C 291.833,314.167 291.167,314.167 290.5,315.5C 289.833,315.5 289.5,315.833 289.5,316.5C 288.833,316.5 288.5,316.833 288.5,317.5C 287.508,317.328 286.842,317.662 286.5,318.5C 285.167,318.833 285.167,319.167 286.5,319.5C 285.699,321.508 284.366,322.008 282.5,321C 283.654,321.914 283.487,322.747 282,323.5C 281.549,321.071 280.715,320.904 279.5,323C 280.412,324.625 279.745,325.459 277.5,325.5C 277.44,324.957 277.107,324.624 276.5,324.5C 275.676,327.578 273.676,329.245 270.5,329.5C 269.833,328.167 269.167,328.167 268.5,329.5C 267.508,329.328 266.842,329.662 266.5,330.5C 265.167,330.833 265.167,331.167 266.5,331.5C 266.158,332.338 265.492,332.672 264.5,332.5C 262.662,331.322 260.995,331.655 259.5,333.5C 258.508,333.328 257.842,333.662 257.5,334.5C 256.209,334.263 255.209,334.596 254.5,335.5C 251.833,335.833 251.833,336.167 254.5,336.5C 253.791,337.404 252.791,337.737 251.5,337.5C 250.5,336.167 249.5,336.167 248.5,337.5C 245.833,337.833 245.833,338.167 248.5,338.5C 246.972,339.309 245.306,339.976 243.5,340.5C 243.5,339.833 243.167,339.5 242.5,339.5C 263.049,296.754 256.382,258.921 222.5,226C 183.454,197.363 144.454,197.363 105.5,226C 96.7826,234.2 89.4493,243.367 83.5,253.5C 83.1667,253.5 82.8333,253.5 82.5,253.5C 82.2766,249.838 81.2766,246.505 79.5,243.5C 79.1757,242.188 78.5091,241.355 77.5,241C 77.8919,239.989 78.5585,239.489 79.5,239.5C 78.9017,238.205 78.4017,236.872 78,235.5C 77.6667,236.5 77.3333,237.5 77,238.5C 76.8333,237.833 76.6667,237.167 76.5,236.5C 77.6631,233.673 77.6631,231.006 76.5,228.5C 76.6602,226.801 76.4935,225.134 76,223.5C 75.1034,227.414 74.6034,227.248 74.5,223C 74.6034,218.752 75.1034,218.586 76,222.5C 76.2009,219.485 75.8676,216.485 75,213.5C 74.6667,214.167 74.3333,214.833 74,215.5C 73.0424,210.185 73.8757,205.185 76.5,200.5C 75.1468,199.476 74.4802,198.143 74.5,196.5C 72.5,196.5 70.5,196.5 68.5,196.5C 66.4317,189.774 65.9317,182.774 67,175.5C 67.8333,176.333 68.6667,177.167 69.5,178C 79.1609,178.5 88.8276,178.666 98.5,178.5C 98.3338,184.509 98.5005,190.509 99,196.5C 100.011,197.337 101.178,197.67 102.5,197.5C 102.188,190.578 102.521,183.744 103.5,177C 106.289,176.759 108.956,176.092 111.5,175C 124.833,174.333 138.167,174.333 151.5,175C 154.837,179.028 158.67,179.528 163,176.5C 166.535,179.122 170.035,179.122 173.5,176.5C 178.271,179.705 182.271,179.039 185.5,174.5C 191.807,173.669 198.141,173.169 204.5,173C 205.337,171.989 205.67,170.822 205.5,169.5C 200.786,169.827 196.12,169.493 191.5,168.5C 191.624,167.893 191.957,167.56 192.5,167.5C 195.962,168.482 199.629,168.815 203.5,168.5C 203.5,157.833 203.5,147.167 203.5,136.5C 205.466,135.745 205.8,134.579 204.5,133C 200.848,132.501 197.182,132.335 193.5,132.5C 190.56,119.36 189.727,106.026 191,92.5C 195.007,88.9522 195.507,84.9522 192.5,80.5C 193.524,79.1482 194.524,77.8149 195.5,76.5 Z"/></g>
<g><path style="opacity:0.016" fill="#b1cee7" d="M 231.5,77.5 C 232.601,76.4017 233.934,76.235 235.5,77C 234.207,77.49 232.873,77.6567 231.5,77.5 Z"/></g>
<g><path style="opacity:0.008" fill="#72BDB1" d="M 349.5,77.5 C 348.833,76.1667 348.833,76.1667 349.5,77.5 Z"/></g>
<g><path style="opacity:0.008" fill="#b3ced6" d="M 236.5,78.5 C 237.601,77.4017 238.934,77.235 240.5,78C 239.207,78.49 237.873,78.6567 236.5,78.5 Z"/></g>
<g><path style="opacity:0.008" fill="#72BDB1" d="M 349.5,77.5 C 350.833,78.1667 350.833,78.1667 349.5,77.5 Z"/></g>
<g><path style="opacity:0.016" fill="#72BDB1" d="M 351.5,80.5 C 352.833,81.1667 352.833,81.1667 351.5,80.5 Z"/></g>
<g><path style="opacity:0.008" fill="#72BDB1" d="M 353.5,83.5 C 354.833,84.1667 354.833,84.1667 353.5,83.5 Z"/></g>
<g><path style="opacity:0.008" fill="#72BDB1" d="M 355.5,86.5 C 354.833,85.1667 354.833,85.1667 355.5,86.5 Z"/></g>
<g><path style="opacity:0.008" fill="#72BDB1" d="M 355.5,86.5 C 356.833,87.1667 356.833,87.1667 355.5,86.5 Z"/></g>
<g><path style="opacity:0.008" fill="#72BDB1" d="M 356.5,88.5 C 357.833,89.1667 357.833,89.1667 356.5,88.5 Z"/></g>
<g><path style="opacity:0.008" fill="#72BDB1" d="M 357.5,90.5 C 358.833,91.1667 358.833,91.1667 357.5,90.5 Z"/></g>
<g><path style="opacity:0.008" fill="#72BDB1" d="M 43.5,91.5 C 44.525,91.8966 44.6917,92.5632 44,93.5C 43.5357,92.9056 43.369,92.2389 43.5,91.5 Z"/></g>
<g><path style="opacity:1" fill="#f6eb32" d="M 152.5,93.5 C 163.833,93.5 175.167,93.5 186.5,93.5C 186.173,103.681 186.506,113.681 187.5,123.5C 188.428,126.454 189.261,129.454 190,132.5C 190.5,143.495 190.667,154.495 190.5,165.5C 189.178,165.67 188.011,165.337 187,164.5C 186.667,159.167 186.333,153.833 186,148.5C 185.282,147.549 184.449,147.383 183.5,148C 182.682,156.422 182.182,164.922 182,173.5C 180.204,174.767 178.371,174.767 176.5,173.5C 175.502,164.525 175.168,155.525 175.5,146.5C 174.178,146.33 173.011,146.663 172,147.5C 171.667,156.167 171.333,164.833 171,173.5C 168.733,174.935 166.733,174.602 165,172.5C 164.5,163.84 164.334,155.173 164.5,146.5C 163.5,146.5 162.5,146.5 161.5,146.5C 161.666,155.173 161.5,163.84 161,172.5C 159.534,174.325 157.701,174.825 155.5,174C 154.676,160.575 154.176,147.075 154,133.5C 150.606,132.544 147.106,132.211 143.5,132.5C 143.504,125.825 146.171,120.492 151.5,116.5C 152.497,108.862 152.831,101.196 152.5,93.5 Z"/></g>
<g><path style="opacity:0.008" fill="#72BDB1" d="M 359.5,95.5 C 360.833,96.1667 360.833,96.1667 359.5,95.5 Z"/></g>
<g><path style="opacity:0.008" fill="#72BDB1" d="M 360.5,99.5 C 360.369,98.7611 360.536,98.0944 361,97.5C 361.692,98.4368 361.525,99.1034 360.5,99.5 Z"/></g>
<g><path style="opacity:0.012" fill="#72BDB1" d="M 56.5,98.5 C 57.525,98.8966 57.6917,99.5632 57,100.5C 56.5357,99.9056 56.369,99.2389 56.5,98.5 Z"/></g>
<g><path style="opacity:0.99" fill="#72BDB1" d="M 133.5,99.5 C 136.262,100.38 138.929,101.546 141.5,103C 143.81,103.497 146.143,103.663 148.5,103.5C 148.665,107.182 148.499,110.848 148,114.5C 142.388,119.161 139.555,125.161 139.5,132.5C 133.491,132.666 127.491,132.499 121.5,132C 117.605,127.886 112.938,125.053 107.5,123.5C 108.506,122.604 108.506,121.938 107.5,121.5C 107.833,120.5 108.5,119.833 109.5,119.5C 111.129,119.628 112.462,118.628 113.5,116.5C 114.167,115.5 114.833,114.5 115.5,113.5C 115.833,112.5 116.5,111.833 117.5,111.5C 119.478,111.262 121.145,109.929 122.5,107.5C 124.027,107.573 125.027,106.906 125.5,105.5C 126.833,104.833 127.833,103.833 128.5,102.5C 129.492,102.672 130.158,102.338 130.5,101.5C 131.167,101.5 131.5,101.167 131.5,100.5C 132.492,100.672 133.158,100.338 133.5,99.5 Z"/></g>
<g><path style="opacity:1" fill="#66a499" d="M 152.5,93.5 C 163.988,92.5051 175.655,92.1717 187.5,92.5C 187.5,102.833 187.5,113.167 187.5,123.5C 186.506,113.681 186.173,103.681 186.5,93.5C 175.167,93.5 163.833,93.5 152.5,93.5 Z"/></g>
<g><path style="opacity:0.012" fill="#72BDB1" d="M 361.5,100.5 C 362.525,100.897 362.692,101.563 362,102.5C 361.536,101.906 361.369,101.239 361.5,100.5 Z"/></g>
<g><path style="opacity:0.012" fill="#72BDB1" d="M 57.5,101.5 C 58.525,101.897 58.6917,102.563 58,103.5C 57.5357,102.906 57.369,102.239 57.5,101.5 Z"/></g>
<g><path style="opacity:0.01" fill="#72BDB1" d="M 362.5,107.5 C 362.351,106.448 362.517,105.448 363,104.5C 363.74,105.749 363.573,106.749 362.5,107.5 Z"/></g>
<g><path style="opacity:1" fill="#72BDB1" d="M 235.5,121.5 C 244.167,121.5 252.833,121.5 261.5,121.5C 261.381,137.356 264.881,152.356 272,166.5C 274.748,171.252 278.248,175.419 282.5,179C 253.556,170.873 237.89,151.707 235.5,121.5 Z"/></g>
<g><path style="opacity:1" fill="#72BDB1" d="M 265.5,121.5 C 275.167,121.5 284.833,121.5 294.5,121.5C 294.5,141.167 294.5,160.833 294.5,180.5C 288.561,179.439 283.728,176.439 280,171.5C 269.977,156.406 265.144,139.74 265.5,121.5 Z"/></g>
<g><path style="opacity:1" fill="#72BDB1" d="M 298.5,121.5 C 308.5,121.5 318.5,121.5 328.5,121.5C 328.008,136.125 324.841,150.125 319,163.5C 314.979,172.698 308.146,178.364 298.5,180.5C 298.5,160.833 298.5,141.167 298.5,121.5 Z"/></g>
<g><path style="opacity:1" fill="#72BDB1" d="M 331.5,121.5 C 340.5,121.5 349.5,121.5 358.5,121.5C 356.961,143.086 347.294,159.92 329.5,172C 324.239,175.419 318.572,177.419 312.5,178C 321.641,168.219 327.474,156.719 330,143.5C 331.036,136.201 331.536,128.868 331.5,121.5 Z"/></g>
<g><path style="opacity:1" fill="#fbfdfe" d="M 102.5,127.5 C 109.742,127.401 115.408,130.234 119.5,136C 129.828,136.5 140.161,136.666 150.5,136.5C 150.5,147.833 150.5,159.167 150.5,170.5C 137.163,170.333 123.829,170.5 110.5,171C 106.58,172.313 102.58,173.313 98.5,174C 89.1726,174.5 79.8393,174.666 70.5,174.5C 70.5,173.167 70.5,171.833 70.5,170.5C 76.1667,170.5 81.8333,170.5 87.5,170.5C 87.5,169.167 87.5,167.833 87.5,166.5C 79.16,166.666 70.8267,166.5 62.5,166C 59.8333,164 59.8333,162 62.5,160C 71.1667,159.667 79.8333,159.333 88.5,159C 89.8333,158 89.8333,157 88.5,156C 79.8333,155.667 71.1667,155.333 62.5,155C 59.8333,153 59.8333,151 62.5,149C 71.1667,148.667 79.8333,148.333 88.5,148C 89.8333,147 89.8333,146 88.5,145C 79.5,144.667 70.5,144.333 61.5,144C 60.0652,141.733 60.3985,139.733 62.5,138C 75.8292,137.5 89.1625,137.333 102.5,137.5C 102.5,134.167 102.5,130.833 102.5,127.5 Z"/></g>
<g><path style="opacity:0.008" fill="#72BDB1" d="M 43.5,131.5 C 44.8333,132.167 44.8333,132.167 43.5,131.5 Z"/></g>
<g><path style="opacity:0.008" fill="#72BDB1" d="M 374.5,132.5 C 375.833,133.167 375.833,133.167 374.5,132.5 Z"/></g>
<g><path style="opacity:0.686" fill="#72BDB1" d="M 46.5,137.5 C 45.0687,138.78 44.4021,140.447 44.5,142.5C 43.0687,143.78 42.4021,145.447 42.5,147.5C 41.596,148.209 41.2627,149.209 41.5,150.5C 39.672,153.135 38.5053,156.135 38,159.5C 37.3292,158.748 36.4959,158.414 35.5,158.5C 34.8519,156.914 34.3519,155.247 34,153.5C 33.3457,154.696 32.8457,154.696 32.5,153.5C 33.325,152.614 34.325,152.281 35.5,152.5C 36.0965,150.602 36.0965,148.935 35.5,147.5C 35.9175,146.778 36.5842,146.278 37.5,146C 36.8333,145.667 36.1667,145.333 35.5,145C 36.4158,144.722 37.0825,144.222 37.5,143.5C 38.9313,142.22 39.5979,140.553 39.5,138.5C 40.3382,138.158 40.6716,137.492 40.5,136.5C 42.7358,132.702 45.4025,132.536 48.5,136C 47.5842,136.278 46.9175,136.778 46.5,137.5 Z"/></g>
<g><path style="opacity:0.008" fill="#72BDB1" d="M 40.5,136.5 C 39.475,136.103 39.3083,135.437 40,134.5C 40.4643,135.094 40.631,135.761 40.5,136.5 Z"/></g>
<g><path style="opacity:0.698" fill="#72BDB1" d="M 379.5,140.5 C 379.918,141.222 380.584,141.722 381.5,142C 379.397,142.853 379.397,144.02 381.5,145.5C 382.877,149.778 383.711,154.112 384,158.5C 383.439,159.022 382.772,159.355 382,159.5C 380.588,158.314 379.421,156.981 378.5,155.5C 378.737,154.209 378.404,153.209 377.5,152.5C 376.833,151.167 376.167,149.833 375.5,148.5C 376.471,147.038 376.138,145.705 374.5,144.5C 374.737,143.209 374.404,142.209 373.5,141.5C 372.833,140.5 372.167,139.5 371.5,138.5C 372.283,136.924 373.45,135.591 375,134.5C 376.948,136.229 378.448,138.229 379.5,140.5 Z"/></g>
<g><path style="opacity:0.008" fill="#72BDB1" d="M 371.5,138.5 C 370.475,138.103 370.308,137.437 371,136.5C 371.464,137.094 371.631,137.761 371.5,138.5 Z"/></g>
<g><path style="opacity:0.008" fill="#72BDB1" d="M 378.5,136.5 C 379.833,137.167 379.833,137.167 378.5,136.5 Z"/></g>
<g><path style="opacity:0.008" fill="#72BDB1" d="M 39.5,138.5 C 38.8333,137.167 38.8333,137.167 39.5,138.5 Z"/></g>
<g><path style="opacity:0.008" fill="#72BDB1" d="M 46.5,137.5 C 47.525,137.897 47.6917,138.563 47,139.5C 46.5357,138.906 46.369,138.239 46.5,137.5 Z"/></g>
<g><path style="opacity:1" fill="#f9fbfd" d="M 203.5,136.5 C 203.5,147.167 203.5,157.833 203.5,168.5C 199.629,168.815 195.962,168.482 192.5,167.5C 193.117,167.389 193.617,167.056 194,166.5C 194.5,156.506 194.666,146.506 194.5,136.5C 197.5,136.5 200.5,136.5 203.5,136.5 Z"/></g>
<g><path style="opacity:0.01" fill="#72BDB1" d="M 55.5,144.5 C 54.3775,142.712 54.2109,140.712 55,138.5C 55.4955,140.473 55.6621,142.473 55.5,144.5 Z"/></g>
<g><path style="opacity:0.008" fill="#72BDB1" d="M 379.5,140.5 C 379.369,139.761 379.536,139.094 380,138.5C 380.692,139.437 380.525,140.103 379.5,140.5 Z"/></g>
<g><path style="opacity:0.008" fill="#72BDB1" d="M 37.5,139.5 C 38.8333,140.167 38.8333,140.167 37.5,139.5 Z"/></g>
<g><path style="opacity:0.008" fill="#72BDB1" d="M 360.5,139.5 C 361.525,139.897 361.692,140.563 361,141.5C 360.536,140.906 360.369,140.239 360.5,139.5 Z"/></g>
<g><path style="opacity:0.008" fill="#72BDB1" d="M 45.5,140.5 C 46.8333,141.167 46.8333,141.167 45.5,140.5 Z"/></g>
<g><path style="opacity:0.008" fill="#72BDB1" d="M 37.5,143.5 C 36.475,143.103 36.3083,142.437 37,141.5C 37.4643,142.094 37.631,142.761 37.5,143.5 Z"/></g>
<g><path style="opacity:0.008" fill="#72BDB1" d="M 373.5,141.5 C 373.631,142.239 373.464,142.906 373,143.5C 372.308,142.563 372.475,141.897 373.5,141.5 Z"/></g>
<g><path style="opacity:0.008" fill="#72BDB1" d="M 44.5,142.5 C 45.8333,143.167 45.8333,143.167 44.5,142.5 Z"/></g>
<g><path style="opacity:0.008" fill="#72BDB1" d="M 359.5,142.5 C 360.833,143.167 360.833,143.167 359.5,142.5 Z"/></g>
<g><path style="opacity:0.008" fill="#72BDB1" d="M 381.5,145.5 C 381.369,144.761 381.536,144.094 382,143.5C 382.692,144.437 382.525,145.103 381.5,145.5 Z"/></g>
<g><path style="opacity:0.008" fill="#72BDB1" d="M 55.5,144.5 C 55.8333,144.5 56.1667,144.5 56.5,144.5C 56.3147,145.17 55.9813,145.17 55.5,144.5 Z"/></g>
<g><path style="opacity:0.008" fill="#72BDB1" d="M 374.5,144.5 C 373.833,145.167 373.833,145.167 374.5,144.5 Z"/></g>
<g><path style="opacity:0.008" fill="#72BDB1" d="M 43.5,145.5 C 44.8333,146.167 44.8333,146.167 43.5,145.5 Z"/></g>
<g><path style="opacity:0.008" fill="#72BDB1" d="M 382.5,146.5 C 383.833,147.167 383.833,147.167 382.5,146.5 Z"/></g>
<g><path style="opacity:0.008" fill="#72BDB1" d="M 35.5,147.5 C 34.8333,148.167 34.8333,148.167 35.5,147.5 Z"/></g>
<g><path style="opacity:0.008" fill="#72BDB1" d="M 42.5,147.5 C 43.525,147.897 43.6917,148.563 43,149.5C 42.5357,148.906 42.369,148.239 42.5,147.5 Z"/></g>
<g><path style="opacity:0.008" fill="#72BDB1" d="M 357.5,147.5 C 358.833,148.167 358.833,148.167 357.5,147.5 Z"/></g>
<g><path style="opacity:0.008" fill="#72BDB1" d="M 375.5,148.5 C 374.833,147.167 374.833,147.167 375.5,148.5 Z"/></g>
<g><path style="opacity:0.008" fill="#72BDB1" d="M 33.5,149.5 C 34.525,149.897 34.6917,150.563 34,151.5C 33.5357,150.906 33.369,150.239 33.5,149.5 Z"/></g>
<g><path style="opacity:0.009" fill="#72BDB1" d="M 54.5,149.5 C 55.6129,150.946 55.7796,152.613 55,154.5C 54.5065,152.866 54.3398,151.199 54.5,149.5 Z"/></g>
<g><path style="opacity:0.008" fill="#72BDB1" d="M 356.5,149.5 C 357.833,150.167 357.833,150.167 356.5,149.5 Z"/></g>
<g><path style="opacity:0.008" fill="#72BDB1" d="M 383.5,149.5 C 384.833,150.167 384.833,150.167 383.5,149.5 Z"/></g>
<g><path style="opacity:0.008" fill="#72BDB1" d="M 41.5,150.5 C 42.525,150.897 42.6917,151.563 42,152.5C 41.5357,151.906 41.369,151.239 41.5,150.5 Z"/></g>
<g><path style="opacity:0.008" fill="#72BDB1" d="M 355.5,151.5 C 356.833,152.167 356.833,152.167 355.5,151.5 Z"/></g>
<g><path style="opacity:0.008" fill="#72BDB1" d="M 354.5,152.5 C 354.833,152.5 355.167,152.5 355.5,152.5C 355.315,153.17 354.981,153.17 354.5,152.5 Z"/></g>
<g><path style="opacity:0.008" fill="#72BDB1" d="M 377.5,152.5 C 377.631,153.239 377.464,153.906 377,154.5C 376.308,153.563 376.475,152.897 377.5,152.5 Z"/></g>
<g><path style="opacity:0.016" fill="#72BDB1" d="M 384.5,152.5 C 385.833,153.167 385.833,153.167 384.5,152.5 Z"/></g>
<g><path style="opacity:0.008" fill="#72BDB1" d="M 40.5,153.5 C 41.525,153.897 41.6917,154.563 41,155.5C 40.5357,154.906 40.369,154.239 40.5,153.5 Z"/></g>
<g><path style="opacity:0.008" fill="#72BDB1" d="M 353.5,154.5 C 354.833,155.167 354.833,155.167 353.5,154.5 Z"/></g>
<g><path style="opacity:0.008" fill="#72BDB1" d="M 56.5,155.5 C 55.8333,156.167 55.8333,156.167 56.5,155.5 Z"/></g>
<g><path style="opacity:0.008" fill="#72BDB1" d="M 352.5,155.5 C 352.833,155.5 353.167,155.5 353.5,155.5C 353.672,156.492 353.338,157.158 352.5,157.5C 352.5,156.833 352.5,156.167 352.5,155.5 Z"/></g>
<g><path style="opacity:0.008" fill="#72BDB1" d="M 378.5,155.5 C 378.631,156.239 378.464,156.906 378,157.5C 377.308,156.563 377.475,155.897 378.5,155.5 Z"/></g>
<g><path style="opacity:0.01" fill="#72BDB1" d="M 385.5,155.5 C 386.573,156.251 386.74,157.251 386,158.5C 385.517,157.552 385.351,156.552 385.5,155.5 Z"/></g>
<g><path style="opacity:0.008" fill="#72BDB1" d="M 32.5,156.5 C 33.8333,157.167 33.8333,157.167 32.5,156.5 Z"/></g>
<g><path style="opacity:0.008" fill="#72BDB1" d="M 39.5,156.5 C 40.8333,157.167 40.8333,157.167 39.5,156.5 Z"/></g>
<g><path style="opacity:0.008" fill="#72BDB1" d="M 35.5,158.5 C 34.8333,159.167 34.8333,159.167 35.5,158.5 Z"/></g>
<g><path style="opacity:0.008" fill="#72BDB1" d="M 56.5,159.5 C 55.8333,158.167 55.8333,158.167 56.5,159.5 Z"/></g>
<g><path style="opacity:0.008" fill="#72BDB1" d="M 55.5,166.5 C 54.3775,164.712 54.2109,162.712 55,160.5C 55.4955,162.473 55.6621,164.473 55.5,166.5 Z"/></g>
<g><path style="opacity:0.008" fill="#72BDB1" d="M 349.5,160.5 C 350.833,161.167 350.833,161.167 349.5,160.5 Z"/></g>
<g><path style="opacity:0.008" fill="#72BDB1" d="M 381.5,160.5 C 382.833,161.167 382.833,161.167 381.5,160.5 Z"/></g>
<g><path style="opacity:0.008" fill="#72BDB1" d="M 348.5,161.5 C 348.833,161.5 349.167,161.5 349.5,161.5C 349.315,162.17 348.981,162.17 348.5,161.5 Z"/></g>
<g><path style="opacity:0.016" fill="#72BDB1" d="M 347.5,162.5 C 347.833,162.5 348.167,162.5 348.5,162.5C 348.315,163.17 347.981,163.17 347.5,162.5 Z"/></g>
<g><path style="opacity:0.008" fill="#72BDB1" d="M 344.5,165.5 C 344.833,165.5 345.167,165.5 345.5,165.5C 345.315,166.17 344.981,166.17 344.5,165.5 Z"/></g>
<g><path style="opacity:0.008" fill="#72BDB1" d="M 55.5,166.5 C 55.8333,166.5 56.1667,166.5 56.5,166.5C 56.3147,167.17 55.9813,167.17 55.5,166.5 Z"/></g>
<g><path style="opacity:0.008" fill="#72BDB1" d="M 343.5,166.5 C 343.833,166.5 344.167,166.5 344.5,166.5C 344.315,167.17 343.981,167.17 343.5,166.5 Z"/></g>
<g><path style="opacity:0.008" fill="#72BDB1" d="M 342.5,167.5 C 342.833,167.5 343.167,167.5 343.5,167.5C 343.315,168.17 342.981,168.17 342.5,167.5 Z"/></g>
<g><path style="opacity:0.008" fill="#72BDB1" d="M 341.5,168.5 C 341.833,168.5 342.167,168.5 342.5,168.5C 342.315,169.17 341.981,169.17 341.5,168.5 Z"/></g>
<g><path style="opacity:0.016" fill="#72BDB1" d="M 340.5,169.5 C 340.833,169.5 341.167,169.5 341.5,169.5C 341.315,170.17 340.981,170.17 340.5,169.5 Z"/></g>
<g><path style="opacity:0.016" fill="#72BDB1" d="M 60.5,170.5 C 59.8333,171.167 59.8333,171.167 60.5,170.5 Z"/></g>
<g><path style="opacity:0.016" fill="#72BDB1" d="M 339.5,170.5 C 339.833,170.5 340.167,170.5 340.5,170.5C 340.315,171.17 339.981,171.17 339.5,170.5 Z"/></g>
<g><path style="opacity:0.008" fill="#72BDB1" d="M 30.5,172.5 C 30.8966,171.475 31.5632,171.308 32.5,172C 31.9056,172.464 31.2389,172.631 30.5,172.5 Z"/></g>
<g><path style="opacity:0.008" fill="#72BDB1" d="M 386.5,172.5 C 387.833,173.167 387.833,173.167 386.5,172.5 Z"/></g>
<g><path style="opacity:0.717" fill="#72BDB1" d="M 34.5,175.5 C 32.8474,182.708 31.6807,190.042 31,197.5C 29.6667,198.167 28.6667,199.167 28,200.5C 26.2673,193.644 26.4339,186.81 28.5,180C 26.842,179.275 26.342,178.108 27,176.5C 27.3333,177.167 27.6667,177.833 28,178.5C 28.4701,173.354 30.6368,172.354 34.5,175.5 Z"/></g>
<g><path style="opacity:0.008" fill="#72BDB1" d="M 34.5,174.5 C 35.8333,175.167 35.8333,175.167 34.5,174.5 Z"/></g>
<g><path style="opacity:0.685" fill="#72BDB1" d="M 383.5,175.5 C 385.223,174.193 387.057,174.193 389,175.5C 389.745,180.002 390.912,184.335 392.5,188.5C 391.41,191.681 391.41,195.015 392.5,198.5C 391.5,198.833 390.833,199.5 390.5,200.5C 389.504,200.414 388.671,200.748 388,201.5C 387.065,192.607 385.565,183.94 383.5,175.5 Z"/></g>
<g><path style="opacity:0.008" fill="#72BDB1" d="M 383.5,175.5 C 383.649,176.552 383.483,177.552 383,178.5C 382.26,177.251 382.427,176.251 383.5,175.5 Z"/></g>
<g><path style="opacity:0.01" fill="#72BDB1" d="M 390.5,175.5 C 391.573,176.251 391.74,177.251 391,178.5C 390.517,177.552 390.351,176.552 390.5,175.5 Z"/></g>
<g><path style="opacity:0.012" fill="#72BDB1" d="M 34.5,177.5 C 35.525,177.897 35.6917,178.563 35,179.5C 34.5357,178.906 34.369,178.239 34.5,177.5 Z"/></g>
<g><path style="opacity:0.998" fill="#fcfdfe" d="M 391.5,222.5 C 391.611,223.117 391.944,223.617 392.5,224C 391.052,226.876 389.719,229.709 388.5,232.5C 388.167,229.833 387.833,229.833 387.5,232.5C 386.566,233.568 386.232,234.901 386.5,236.5C 385.662,236.842 385.328,237.508 385.5,238.5C 384.167,239.5 384.167,240.5 385.5,241.5C 385.737,242.791 385.404,243.791 384.5,244.5C 384.167,241.833 383.833,241.833 383.5,244.5C 381.849,246.402 381.516,248.402 382.5,250.5C 382.218,251.778 381.551,252.778 380.5,253.5C 379.596,254.209 379.263,255.209 379.5,256.5C 377.699,258.587 377.365,260.921 378.5,263.5C 378.154,264.696 377.654,264.696 377,263.5C 376.536,264.094 376.369,264.761 376.5,265.5C 375.596,266.209 375.263,267.209 375.5,268.5C 374.833,269.5 374.167,270.5 373.5,271.5C 365.756,265.261 358.422,258.428 351.5,251C 350.167,250.333 348.833,249.667 347.5,249C 327.411,248.977 307.411,248.31 287.5,247C 269,228.5 250.5,210 232,191.5C 228.729,184.788 230.729,180.788 238,179.5C 240.544,179.384 242.711,180.217 244.5,182C 255.373,191.875 266.539,201.375 278,210.5C 277.517,216.705 280.017,221.205 285.5,224C 299.833,224.667 314.167,224.667 328.5,224C 329.833,223 329.833,222 328.5,221C 314.167,220.667 299.833,220.333 285.5,220C 280.257,215.255 280.257,210.588 285.5,206C 293.5,205.667 301.5,205.333 309.5,205C 315.365,202.458 320.699,199.125 325.5,195C 331.167,194.833 336.833,194.667 342.5,194.5C 349.243,194.393 355.91,194.893 362.5,196C 372.057,205.062 381.724,213.895 391.5,222.5 Z"/></g>
<g><path style="opacity:1" fill="#72BDB1" d="M 340.5,189.5 C 348.617,189.114 356.617,189.781 364.5,191.5C 366.771,193.266 368.937,195.266 371,197.5C 371.333,197.167 371.667,196.833 372,196.5C 374.5,199 377,201.5 379.5,204C 379.167,204.333 378.833,204.667 378.5,205C 383.035,209.703 387.702,214.203 392.5,218.5C 395.218,220.423 394.884,221.756 391.5,222.5C 381.724,213.895 372.057,205.062 362.5,196C 355.91,194.893 349.243,194.393 342.5,194.5C 336.833,194.667 331.167,194.833 325.5,195C 320.699,199.125 315.365,202.458 309.5,205C 301.5,205.333 293.5,205.667 285.5,206C 280.257,210.588 280.257,215.255 285.5,220C 299.833,220.333 314.167,220.667 328.5,221C 329.833,222 329.833,223 328.5,224C 314.167,224.667 299.833,224.667 285.5,224C 280.017,221.205 277.517,216.705 278,210.5C 266.539,201.375 255.373,191.875 244.5,182C 242.711,180.217 240.544,179.384 238,179.5C 230.729,180.788 228.729,184.788 232,191.5C 250.5,210 269,228.5 287.5,247C 307.411,248.31 327.411,248.977 347.5,249C 348.833,249.667 350.167,250.333 351.5,251C 358.422,258.428 365.756,265.261 373.5,271.5C 373.833,272.5 374.5,273.167 375.5,273.5C 375.5,273.833 375.5,274.167 375.5,274.5C 374.221,275.968 372.554,276.635 370.5,276.5C 363.5,268.833 356.167,261.5 348.5,254.5C 344.702,253.517 340.702,253.183 336.5,253.5C 320.544,252.696 304.544,252.196 288.5,252C 268.059,233.561 248.226,214.394 229,194.5C 227.448,192.232 226.615,189.732 226.5,187C 228.333,177.248 233.999,173.915 243.5,177C 255.684,186.594 267.684,196.428 279.5,206.5C 281.359,204.808 283.359,203.308 285.5,202C 293.167,201.667 300.833,201.333 308.5,201C 310.246,200.529 311.913,199.862 313.5,199C 321.014,191.476 330.014,188.31 340.5,189.5 Z"/></g>
<g><path style="opacity:0.013" fill="#72BDB1" d="M 383.5,181.5 C 384.573,182.251 384.74,183.251 384,184.5C 383.517,183.552 383.351,182.552 383.5,181.5 Z"/></g>
<g><path style="opacity:0.01" fill="#72BDB1" d="M 391.5,181.5 C 392.573,182.251 392.74,183.251 392,184.5C 391.517,183.552 391.351,182.552 391.5,181.5 Z"/></g>
<g><path style="opacity:0.01" fill="#72BDB1" d="M 25.5,182.5 C 26.5983,183.601 26.765,184.934 26,186.5C 25.51,185.207 25.3433,183.873 25.5,182.5 Z"/></g>
<g><path style="opacity:0.013" fill="#72BDB1" d="M 33.5,183.5 C 34.5735,184.251 34.7401,185.251 34,186.5C 33.5172,185.552 33.3505,184.552 33.5,183.5 Z"/></g>
<g><path style="opacity:0.016" fill="#b1ceea" d="M 341.5,184.5 C 342.598,185.601 342.765,186.934 342,188.5C 341.51,187.207 341.343,185.873 341.5,184.5 Z"/></g>
<g><path style="opacity:0.01" fill="#72BDB1" d="M 358.5,189.5 C 359.251,188.427 360.251,188.26 361.5,189C 360.552,189.483 359.552,189.649 358.5,189.5 Z"/></g>
<g><path style="opacity:0.011" fill="#72BDB1" d="M 384.5,188.5 C 385.613,189.946 385.78,191.613 385,193.5C 384.506,191.866 384.34,190.199 384.5,188.5 Z"/></g>
<g><path style="opacity:0.011" fill="#72BDB1" d="M 392.5,188.5 C 393.613,189.946 393.78,191.613 393,193.5C 392.506,191.866 392.34,190.199 392.5,188.5 Z"/></g>
<g><path style="opacity:0.01" fill="#72BDB1" d="M 24.5,190.5 C 25.6291,192.628 25.7958,194.961 25,197.5C 24.5034,195.19 24.3367,192.857 24.5,190.5 Z"/></g>
<g><path style="opacity:0.009" fill="#72BDB1" d="M 32.5,190.5 C 33.6225,192.288 33.7891,194.288 33,196.5C 32.5045,194.527 32.3379,192.527 32.5,190.5 Z"/></g>
<g><path style="opacity:0.008" fill="#72BDB1" d="M 364.5,190.5 C 365.833,191.167 365.833,191.167 364.5,190.5 Z"/></g>
<g><path style="opacity:0.008" fill="#72BDB1" d="M 62.5,198.5 C 63.8333,199.167 63.8333,199.167 62.5,198.5 Z"/></g>
<g><path style="opacity:0.008" fill="#72BDB1" d="M 385.5,198.5 C 386.833,199.167 386.833,199.167 385.5,198.5 Z"/></g>
<g><path style="opacity:0.008" fill="#72BDB1" d="M 392.5,198.5 C 393.833,199.167 393.833,199.167 392.5,198.5 Z"/></g>
<g><path style="opacity:0.008" fill="#72BDB1" d="M 29.5,199.5 C 30.8333,200.167 30.8333,200.167 29.5,199.5 Z"/></g>
<g><path style="opacity:0.008" fill="#72BDB1" d="M 390.5,200.5 C 391.833,201.167 391.833,201.167 390.5,200.5 Z"/></g>
<g><path style="opacity:0.008" fill="#72BDB1" d="M 27.5,213.5 C 27.8966,212.475 28.5632,212.308 29.5,213C 28.9056,213.464 28.2389,213.631 27.5,213.5 Z"/></g>
<g><path style="opacity:0.6" fill="#72BDB1" d="M 33.5,238.5 C 32.5178,239.141 31.5178,239.807 30.5,240.5C 29.4822,239.807 28.4822,239.141 27.5,238.5C 27.4906,236.339 26.8239,235.006 25.5,234.5C 25.8178,233.353 26.4844,232.519 27.5,232C 26.7362,229.931 26.2362,227.764 26,225.5C 25.2015,229.424 24.7015,229.424 24.5,225.5C 24.4966,222.398 24.9966,222.065 26,224.5C 26.1667,223.667 26.3333,222.833 26.5,222C 24.6357,218.766 25.3023,216.266 28.5,214.5C 29.7989,215.09 30.6322,216.09 31,217.5C 31.3333,219.5 31.6667,221.5 32,223.5C 32.3333,223.167 32.6667,222.833 33,222.5C 33.6667,224.5 33.6667,226.5 33,228.5C 32.6667,227.167 32.3333,225.833 32,224.5C 31.8437,229.248 32.3437,233.915 33.5,238.5 Z"/></g>
<g><path style="opacity:0.008" fill="#72BDB1" d="M 31.5,215.5 C 32.8333,216.167 32.8333,216.167 31.5,215.5 Z"/></g>
<g><path style="opacity:0.008" fill="#72BDB1" d="M 392.5,217.5 C 393.833,218.167 393.833,218.167 392.5,217.5 Z"/></g>
<g><path style="opacity:0.008" fill="#b3ced9" d="M 76.5,228.5 C 76.6602,230.199 76.4935,231.866 76,233.5C 75.2204,231.613 75.3871,229.946 76.5,228.5 Z"/></g>
<g><path style="opacity:0.01" fill="#72BDB1" d="M 33.5,232.5 C 34.5983,233.601 34.765,234.934 34,236.5C 33.51,235.207 33.3433,233.873 33.5,232.5 Z"/></g>
<g><path style="opacity:0.016" fill="#b2cee2" d="M 387.5,232.5 C 387.833,232.5 388.167,232.5 388.5,232.5C 388.167,236.5 387.833,236.5 387.5,232.5 Z"/></g>
<g><path style="opacity:0.008" fill="#b3cedb" d="M 386.5,236.5 C 387.833,237.167 387.833,237.833 386.5,238.5C 386.5,237.833 386.5,237.167 386.5,236.5 Z"/></g>
<g><path style="opacity:0.008" fill="#72BDB1" d="M 27.5,238.5 C 26.8333,239.167 26.8333,239.167 27.5,238.5 Z"/></g>
<g><path style="opacity:0.008" fill="#72BDB1" d="M 33.5,238.5 C 34.8333,239.167 34.8333,239.167 33.5,238.5 Z"/></g>
<g><path style="opacity:0.016" fill="#b2cee2" d="M 385.5,238.5 C 385.833,238.5 386.167,238.5 386.5,238.5C 386.737,239.791 386.404,240.791 385.5,241.5C 385.5,240.5 385.5,239.5 385.5,238.5 Z"/></g>
<g><path style="opacity:0.008" fill="#72BDB1" d="M 29.5,242.5 C 29.8966,241.475 30.5632,241.308 31.5,242C 30.9056,242.464 30.2389,242.631 29.5,242.5 Z"/></g>
<g><path style="opacity:0.016" fill="#b0ceed" d="M 79.5,243.5 C 79.6495,244.552 79.4828,245.552 79,246.5C 78.2599,245.251 78.4265,244.251 79.5,243.5 Z"/></g>
<g><path style="opacity:0.016" fill="#b2cee2" d="M 383.5,244.5 C 383.833,244.5 384.167,244.5 384.5,244.5C 384.167,248.5 383.833,248.5 383.5,244.5 Z"/></g>
<g><path style="opacity:0.008" fill="#b3cedb" d="M 79.5,247.5 C 80.525,247.897 80.6917,248.563 80,249.5C 79.5357,248.906 79.369,248.239 79.5,247.5 Z"/></g>
<g><path style="opacity:0.008" fill="#b3cedb" d="M 382.5,250.5 C 382.369,249.761 382.536,249.094 383,248.5C 383.692,249.437 383.525,250.103 382.5,250.5 Z"/></g>
<g><path style="opacity:0.008" fill="#b3cedb" d="M 80.5,250.5 C 81.525,250.897 81.6917,251.563 81,252.5C 80.5357,251.906 80.369,251.239 80.5,250.5 Z"/></g>
<g><path style="opacity:0.008" fill="#72BDB1" d="M 34.5,253.5 C 35.8333,254.167 35.8333,254.167 34.5,253.5 Z"/></g>
<g><path style="opacity:0.008" fill="#72BDB1" d="M 36.5,254.5 C 37.8333,255.167 37.8333,255.167 36.5,254.5 Z"/></g>
<g><path style="opacity:0.016" fill="#b1ceea" d="M 380.5,253.5 C 381.525,253.897 381.692,254.563 381,255.5C 380.536,254.906 380.369,254.239 380.5,253.5 Z"/></g>
<g><path style="opacity:0.674" fill="#72BDB1" d="M 36.5,255.5 C 37.2299,256.712 38.2299,257.712 39.5,258.5C 38.0866,261.157 38.42,263.49 40.5,265.5C 40.2594,267.898 40.9261,269.898 42.5,271.5C 42.369,272.239 42.5357,272.906 43,273.5C 44.6665,272.66 44.8331,273.16 43.5,275C 44.1667,275.333 44.8333,275.667 45.5,276C 44.0793,280.353 41.746,281.187 38.5,278.5C 38.7373,277.209 38.404,276.209 37.5,275.5C 37.5979,273.447 36.9313,271.78 35.5,270.5C 35.7373,269.209 35.404,268.209 34.5,267.5C 34.7373,266.209 34.404,265.209 33.5,264.5C 32.9919,261.824 32.8253,259.157 33,256.5C 34.0113,255.663 35.1779,255.33 36.5,255.5 Z"/></g>
<g><path style="opacity:0.01" fill="#72BDB1" d="M 30.5,256.5 C 31.5983,257.601 31.765,258.934 31,260.5C 30.51,259.207 30.3433,257.873 30.5,256.5 Z"/></g>
<g><path style="opacity:0.008" fill="#72BDB1" d="M 80.5,258.5 C 79.475,258.103 79.3083,257.437 80,256.5C 80.4643,257.094 80.631,257.761 80.5,258.5 Z"/></g>
<g><path style="opacity:0.016" fill="#b1ceea" d="M 379.5,256.5 C 380.525,256.897 380.692,257.563 380,258.5C 379.536,257.906 379.369,257.239 379.5,256.5 Z"/></g>
<g><path style="opacity:0.008" fill="#72BDB1" d="M 79.5,260.5 C 78.8333,259.167 78.8333,259.167 79.5,260.5 Z"/></g>
<g><path style="opacity:0.008" fill="#72BDB1" d="M 39.5,260.5 C 40.525,260.897 40.6917,261.563 40,262.5C 39.5357,261.906 39.369,261.239 39.5,260.5 Z"/></g>
<g><path style="opacity:0.008" fill="#b3cedb" d="M 333.5,259.5 C 334.833,260.167 334.833,260.833 333.5,261.5C 333.5,260.833 333.5,260.167 333.5,259.5 Z"/></g>
<g><path style="opacity:0.016" fill="#adcff8" d="M 378.5,260.5 C 379.833,261.167 379.833,261.167 378.5,260.5 Z"/></g>
<g><path style="opacity:0.012" fill="#72BDB1" d="M 31.5,261.5 C 32.525,261.897 32.6917,262.563 32,263.5C 31.5357,262.906 31.369,262.239 31.5,261.5 Z"/></g>
<g><path style="opacity:0.008" fill="#72BDB1" d="M 78.5,263.5 C 77.475,263.103 77.3083,262.437 78,261.5C 78.4643,262.094 78.631,262.761 78.5,263.5 Z"/></g>
<g><path style="opacity:0.008" fill="#b3cedb" d="M 332.5,261.5 C 332.833,261.5 333.167,261.5 333.5,261.5C 333.167,264.167 332.833,264.167 332.5,261.5 Z"/></g>
<g><path style="opacity:0.008" fill="#72BDB1" d="M 40.5,265.5 C 40.369,264.761 40.5357,264.094 41,263.5C 41.6917,264.437 41.525,265.103 40.5,265.5 Z"/></g>
<g><path style="opacity:0.008" fill="#72BDB1" d="M 33.5,264.5 C 33.631,265.239 33.4643,265.906 33,266.5C 32.3083,265.563 32.475,264.897 33.5,264.5 Z"/></g>
<g><path style="opacity:0.016" fill="#adcff8" d="M 331.5,264.5 C 332.833,265.167 332.833,265.167 331.5,264.5 Z"/></g>
<g><path style="opacity:0.008" fill="#72BDB1" d="M 41.5,266.5 C 42.525,266.897 42.6917,267.563 42,268.5C 41.5357,267.906 41.369,267.239 41.5,266.5 Z"/></g>
<g><path style="opacity:0.016" fill="#adcff8" d="M 330.5,266.5 C 331.833,267.167 331.833,267.167 330.5,266.5 Z"/></g>
<g><path style="opacity:0.016" fill="#b1ceea" d="M 376.5,265.5 C 377.525,265.897 377.692,266.563 377,267.5C 376.536,266.906 376.369,266.239 376.5,265.5 Z"/></g>
<g><path style="opacity:0.008" fill="#72BDB1" d="M 34.5,267.5 C 34.631,268.239 34.4643,268.906 34,269.5C 33.3083,268.563 33.475,267.897 34.5,267.5 Z"/></g>
<g><path style="opacity:0.016" fill="#72BDB1" d="M 76.5,268.5 C 75.8333,267.167 75.8333,267.167 76.5,268.5 Z"/></g>
<g><path style="opacity:0.016" fill="#adcff8" d="M 329.5,268.5 C 330.833,269.167 330.833,269.167 329.5,268.5 Z"/></g>
<g><path style="opacity:0.008" fill="#72BDB1" d="M 42.5,271.5 C 42.369,270.761 42.5357,270.094 43,269.5C 43.6917,270.437 43.525,271.103 42.5,271.5 Z"/></g>
<g><path style="opacity:0.016" fill="#b1ceea" d="M 375.5,268.5 C 376.525,268.897 376.692,269.563 376,270.5C 375.536,269.906 375.369,269.239 375.5,268.5 Z"/></g>
<g><path style="opacity:0.008" fill="#72BDB1" d="M 35.5,270.5 C 35.631,271.239 35.4643,271.906 35,272.5C 34.3083,271.563 34.475,270.897 35.5,270.5 Z"/></g>
<g><path style="opacity:0.008" fill="#72BDB1" d="M 74.5,270.5 C 75.525,270.897 75.6917,271.563 75,272.5C 74.5357,271.906 74.369,271.239 74.5,270.5 Z"/></g>
<g><path style="opacity:0.016" fill="#adcff8" d="M 328.5,270.5 C 329.833,271.167 329.833,271.167 328.5,270.5 Z"/></g>
<g><path style="opacity:0.016" fill="#adcff8" d="M 327.5,272.5 C 328.833,273.167 328.833,273.167 327.5,272.5 Z"/></g>
<g><path style="opacity:0.008" fill="#72BDB1" d="M 375.5,272.5 C 376.833,273.167 376.833,273.167 375.5,272.5 Z"/></g>
<g><path style="opacity:0.008" fill="#72BDB1" d="M 35.5,273.5 C 36.8333,274.167 36.8333,274.167 35.5,273.5 Z"/></g>
<g><path style="opacity:0.008" fill="#b4cfcc" d="M 326.5,273.5 C 326.833,273.5 327.167,273.5 327.5,273.5C 327.672,274.492 327.338,275.158 326.5,275.5C 326.5,274.833 326.5,274.167 326.5,273.5 Z"/></g>
<g><path style="opacity:0.012" fill="#72BDB1" d="M 73.5,274.5 C 74.525,274.897 74.6917,275.563 74,276.5C 73.5357,275.906 73.369,275.239 73.5,274.5 Z"/></g>
<g><path style="opacity:0.008" fill="#72BDB1" d="M 375.5,274.5 C 376.833,275.167 376.833,275.167 375.5,274.5 Z"/></g>
<g><path style="opacity:0.008" fill="#72BDB1" d="M 37.5,275.5 C 37.631,276.239 37.4643,276.906 37,277.5C 36.3083,276.563 36.475,275.897 37.5,275.5 Z"/></g>
<g><path style="opacity:0.008" fill="#b4cfcc" d="M 325.5,275.5 C 325.833,275.5 326.167,275.5 326.5,275.5C 326.672,276.492 326.338,277.158 325.5,277.5C 325.5,276.833 325.5,276.167 325.5,275.5 Z"/></g>
<g><path style="opacity:0.008" fill="#72BDB1" d="M 370.5,276.5 C 369.833,277.167 369.833,277.167 370.5,276.5 Z"/></g>
<g><path style="opacity:0.012" fill="#72BDB1" d="M 371.5,278.5 C 371.897,277.475 372.563,277.308 373.5,278C 372.906,278.464 372.239,278.631 371.5,278.5 Z"/></g>
<g><path style="opacity:0.008" fill="#72BDB1" d="M 38.5,278.5 C 37.8333,279.167 37.8333,279.167 38.5,278.5 Z"/></g>
<g><path style="opacity:0.01" fill="#72BDB1" d="M 73.5,282.5 C 72.4265,281.749 72.2599,280.749 73,279.5C 73.4828,280.448 73.6495,281.448 73.5,282.5 Z"/></g>
<g><path style="opacity:0.016" fill="#adcff8" d="M 323.5,279.5 C 324.833,280.167 324.833,280.167 323.5,279.5 Z"/></g>
<g><path style="opacity:0.008" fill="#72BDB1" d="M 40.5,282.5 C 40.8966,281.475 41.5632,281.308 42.5,282C 41.9056,282.464 41.2389,282.631 40.5,282.5 Z"/></g>
<g><path style="opacity:0.008" fill="#b3cedb" d="M 322.5,280.5 C 322.833,280.5 323.167,280.5 323.5,280.5C 323.672,281.492 323.338,282.158 322.5,282.5C 322.5,281.833 322.5,281.167 322.5,280.5 Z"/></g>
<g><path style="opacity:0.016" fill="#adcff8" d="M 321.5,282.5 C 321.833,282.5 322.167,282.5 322.5,282.5C 322.315,283.17 321.981,283.17 321.5,282.5 Z"/></g>
<g><path style="opacity:0.008" fill="#72BDB1" d="M 71.5,285.5 C 72.8333,286.167 72.8333,286.167 71.5,285.5 Z"/></g>
<g><path style="opacity:0.016" fill="#adcff8" d="M 319.5,285.5 C 319.833,285.5 320.167,285.5 320.5,285.5C 320.315,286.17 319.981,286.17 319.5,285.5 Z"/></g>
<g><path style="opacity:0.016" fill="#adcff8" d="M 318.5,286.5 C 318.833,286.5 319.167,286.5 319.5,286.5C 319.315,287.17 318.981,287.17 318.5,286.5 Z"/></g>
<g><path style="opacity:0.008" fill="#b4cfcc" d="M 317.5,288.5 C 318.833,289.167 318.833,289.167 317.5,288.5 Z"/></g>
<g><path style="opacity:0.008" fill="#72BDB1" d="M 369.5,288.5 C 370.833,289.167 370.833,289.167 369.5,288.5 Z"/></g>
<g><path style="opacity:0.637" fill="#72BDB1" d="M 372.5,292.5 C 371.559,294.05 370.893,295.716 370.5,297.5C 369.662,297.842 369.328,298.508 369.5,299.5C 368.662,299.842 368.328,300.508 368.5,301.5C 367.094,301.973 366.427,302.973 366.5,304.5C 365.662,304.842 365.328,305.508 365.5,306.5C 364.167,306.833 364.167,307.167 365.5,307.5C 365.082,308.222 364.416,308.722 363.5,309C 364.28,310.073 364.113,311.24 363,312.5C 361.527,312.132 360.027,312.632 358.5,314C 359.696,314.654 359.696,315.154 358.5,315.5C 357.232,313.696 356.565,311.696 356.5,309.5C 359,306.506 361,303.173 362.5,299.5C 363.906,299.027 364.573,298.027 364.5,296.5C 364.434,294.819 364.934,293.152 366,291.5C 366.333,291.833 366.667,292.167 367,292.5C 368.71,290.103 370.544,290.103 372.5,292.5 Z"/></g>
<g><path style="opacity:0.008" fill="#72BDB1" d="M 372.5,291.5 C 373.833,292.167 373.833,292.167 372.5,291.5 Z"/></g>
<g><path style="opacity:0.008" fill="#72BDB1" d="M 49.5,293.5 C 49.8966,292.475 50.5632,292.308 51.5,293C 50.9056,293.464 50.2389,293.631 49.5,293.5 Z"/></g>
<g><path style="opacity:0.008" fill="#b4cfcc" d="M 314.5,292.5 C 315.833,293.167 315.833,293.167 314.5,292.5 Z"/></g>
<g><path style="opacity:0.016" fill="#adcff8" d="M 313.5,293.5 C 313.833,293.5 314.167,293.5 314.5,293.5C 314.315,294.17 313.981,294.17 313.5,293.5 Z"/></g>
<g><path style="opacity:0.665" fill="#72BDB1" d="M 53.5,295.5 C 53.6596,297.153 54.3263,298.486 55.5,299.5C 55.8807,300.931 56.8807,301.764 58.5,302C 57.2264,302.977 57.2264,303.811 58.5,304.5C 58.427,306.027 59.0937,307.027 60.5,307.5C 61.0998,308.9 62.0998,309.9 63.5,310.5C 62.1667,310.833 62.1667,311.167 63.5,311.5C 63.3284,312.492 63.6618,313.158 64.5,313.5C 63.9283,316.244 62.2617,317.077 59.5,316C 57.8839,315.385 56.5505,314.385 55.5,313C 57.9856,312.295 57.9856,311.462 55.5,310.5C 54.8897,308.566 53.8897,306.899 52.5,305.5C 52.573,303.973 51.9063,302.973 50.5,302.5C 50.6716,301.508 50.3382,300.842 49.5,300.5C 48.8505,298.565 48.5172,296.565 48.5,294.5C 50.2915,294.366 51.9582,294.699 53.5,295.5 Z"/></g>
<g><path style="opacity:0.008" fill="#72BDB1" d="M 53.5,294.5 C 54.8333,295.167 54.8333,295.167 53.5,294.5 Z"/></g>
<g><path style="opacity:0.016" fill="#adcff8" d="M 312.5,294.5 C 312.833,294.5 313.167,294.5 313.5,294.5C 313.315,295.17 312.981,295.17 312.5,294.5 Z"/></g>
<g><path style="opacity:0.008" fill="#72BDB1" d="M 372.5,294.5 C 373.833,295.167 373.833,295.167 372.5,294.5 Z"/></g>
<g><path style="opacity:0.016" fill="#adcff8" d="M 311.5,295.5 C 311.833,295.5 312.167,295.5 312.5,295.5C 312.315,296.17 311.981,296.17 311.5,295.5 Z"/></g>
<g><path style="opacity:0.008" fill="#72BDB1" d="M 364.5,296.5 C 363.833,295.167 363.833,295.167 364.5,296.5 Z"/></g>
<g><path style="opacity:0.008" fill="#72BDB1" d="M 363.5,296.5 C 362.833,297.167 362.833,297.167 363.5,296.5 Z"/></g>
<g><path style="opacity:0.008" fill="#72BDB1" d="M 371.5,296.5 C 372.833,297.167 372.833,297.167 371.5,296.5 Z"/></g>
<g><path style="opacity:0.008" fill="#72BDB1" d="M 46.5,297.5 C 47.8333,298.167 47.8333,298.167 46.5,297.5 Z"/></g>
<g><path style="opacity:0.008" fill="#72BDB1" d="M 56.5,299.5 C 56.1667,299.5 55.8333,299.5 55.5,299.5C 55.8333,296.833 56.1667,296.833 56.5,299.5 Z"/></g>
<g><path style="opacity:0.008" fill="#72BDB1" d="M 370.5,297.5 C 370.833,297.5 371.167,297.5 371.5,297.5C 371.672,298.492 371.338,299.158 370.5,299.5C 370.5,298.833 370.5,298.167 370.5,297.5 Z"/></g>
<g><path style="opacity:0.008" fill="#72BDB1" d="M 362.5,299.5 C 361.833,298.167 361.833,298.167 362.5,299.5 Z"/></g>
<g><path style="opacity:0.008" fill="#72BDB1" d="M 48.5,300.5 C 47.8333,299.167 47.8333,299.167 48.5,300.5 Z"/></g>
<g><path style="opacity:0.008" fill="#72BDB1" d="M 56.5,299.5 C 57.8333,300.167 57.8333,300.167 56.5,299.5 Z"/></g>
<g><path style="opacity:0.008" fill="#72BDB1" d="M 369.5,299.5 C 369.833,299.5 370.167,299.5 370.5,299.5C 370.672,300.492 370.338,301.158 369.5,301.5C 369.5,300.833 369.5,300.167 369.5,299.5 Z"/></g>
<g><path style="opacity:0.008" fill="#72BDB1" d="M 48.5,300.5 C 48.8333,300.5 49.1667,300.5 49.5,300.5C 49.3147,301.17 48.9813,301.17 48.5,300.5 Z"/></g>
<g><path style="opacity:0.016" fill="#adcff8" d="M 307.5,300.5 C 308.833,301.167 308.833,301.167 307.5,300.5 Z"/></g>
<g><path style="opacity:0.008" fill="#b4cfcc" d="M 306.5,301.5 C 306.833,301.5 307.167,301.5 307.5,301.5C 307.315,302.17 306.981,302.17 306.5,301.5 Z"/></g>
<g><path style="opacity:0.008" fill="#72BDB1" d="M 368.5,301.5 C 368.833,301.5 369.167,301.5 369.5,301.5C 369.315,302.17 368.981,302.17 368.5,301.5 Z"/></g>
<g><path style="opacity:0.016" fill="#72BDB1" d="M 50.5,302.5 C 49.8333,303.167 49.8333,303.167 50.5,302.5 Z"/></g>
<g><path style="opacity:0.016" fill="#adcff8" d="M 305.5,302.5 C 305.833,302.5 306.167,302.5 306.5,302.5C 306.315,303.17 305.981,303.17 305.5,302.5 Z"/></g>
<g><path style="opacity:0.008" fill="#72BDB1" d="M 59.5,304.5 C 58.8333,303.167 58.8333,303.167 59.5,304.5 Z"/></g>
<g><path style="opacity:0.008" fill="#72BDB1" d="M 367.5,303.5 C 368.833,304.167 368.833,304.167 367.5,303.5 Z"/></g>
<g><path style="opacity:0.008" fill="#72BDB1" d="M 51.5,305.5 C 50.8333,304.167 50.8333,304.167 51.5,305.5 Z"/></g>
<g><path style="opacity:0.008" fill="#72BDB1" d="M 59.5,304.5 C 60.8333,305.167 60.8333,305.167 59.5,304.5 Z"/></g>
<g><path style="opacity:0.008" fill="#72BDB1" d="M 366.5,304.5 C 366.833,304.5 367.167,304.5 367.5,304.5C 367.672,305.492 367.338,306.158 366.5,306.5C 366.5,305.833 366.5,305.167 366.5,304.5 Z"/></g>
<g><path style="opacity:0.008" fill="#72BDB1" d="M 51.5,305.5 C 51.8333,305.5 52.1667,305.5 52.5,305.5C 52.3147,306.17 51.9813,306.17 51.5,305.5 Z"/></g>
<g><path style="opacity:0.016" fill="#72BDB1" d="M 61.5,307.5 C 60.8333,306.167 60.8333,306.167 61.5,307.5 Z"/></g>
<g><path style="opacity:0.008" fill="#72BDB1" d="M 365.5,306.5 C 365.833,306.5 366.167,306.5 366.5,306.5C 366.315,307.17 365.981,307.17 365.5,306.5 Z"/></g>
<g><path style="opacity:0.008" fill="#72BDB1" d="M 61.5,307.5 C 62.8333,308.167 62.8333,308.167 61.5,307.5 Z"/></g>
<g><path style="opacity:0.016" fill="#adcff8" d="M 300.5,307.5 C 300.833,307.5 301.167,307.5 301.5,307.5C 301.315,308.17 300.981,308.17 300.5,307.5 Z"/></g>
<g><path style="opacity:0.008" fill="#b4cfcc" d="M 299.5,308.5 C 299.833,308.5 300.167,308.5 300.5,308.5C 300.315,309.17 299.981,309.17 299.5,308.5 Z"/></g>
<g><path style="opacity:0.008" fill="#72BDB1" d="M 356.5,309.5 C 355.833,308.167 355.833,308.167 356.5,309.5 Z"/></g>
<g><path style="opacity:0.008" fill="#b4cfcc" d="M 298.5,309.5 C 298.833,309.5 299.167,309.5 299.5,309.5C 299.315,310.17 298.981,310.17 298.5,309.5 Z"/></g>
<g><path style="opacity:0.01" fill="#72BDB1" d="M 355.5,309.5 C 355.649,310.552 355.483,311.552 355,312.5C 354.26,311.251 354.427,310.251 355.5,309.5 Z"/></g>
<g><path style="opacity:0.016" fill="#72BDB1" d="M 55.5,310.5 C 54.8333,311.167 54.8333,311.167 55.5,310.5 Z"/></g>
<g><path style="opacity:0.008" fill="#72BDB1" d="M 63.5,310.5 C 64.8333,311.167 64.8333,311.167 63.5,310.5 Z"/></g>
<g><path style="opacity:0.008" fill="#b4cfcc" d="M 296.5,311.5 C 296.5,311.167 296.5,310.833 296.5,310.5C 297.167,310.5 297.833,310.5 298.5,310.5C 298.158,311.338 297.492,311.672 296.5,311.5 Z"/></g>
<g><path style="opacity:0.008" fill="#72BDB1" d="M 64.5,312.5 C 65.8333,313.167 65.8333,313.167 64.5,312.5 Z"/></g>
<g><path style="opacity:0.008" fill="#b3cedb" d="M 290.5,316.5 C 290.5,316.167 290.5,315.833 290.5,315.5C 291.167,315.5 291.833,315.5 292.5,315.5C 292.158,316.338 291.492,316.672 290.5,316.5 Z"/></g>
<g><path style="opacity:0.016" fill="#adcff8" d="M 289.5,316.5 C 289.833,316.5 290.167,316.5 290.5,316.5C 290.315,317.17 289.981,317.17 289.5,316.5 Z"/></g>
<g><path style="opacity:0.008" fill="#72BDB1" d="M 60.5,318.5 C 60.8966,317.475 61.5632,317.308 62.5,318C 61.9056,318.464 61.2389,318.631 60.5,318.5 Z"/></g>
<g><path style="opacity:0.016" fill="#72BDB1" d="M 74.5,317.5 C 75.8333,318.167 75.8333,318.167 74.5,317.5 Z"/></g>
<g><path style="opacity:0.016" fill="#adcff8" d="M 288.5,317.5 C 288.833,317.5 289.167,317.5 289.5,317.5C 289.315,318.17 288.981,318.17 288.5,317.5 Z"/></g>
<g><path style="opacity:0.008" fill="#b4cfcc" d="M 286.5,319.5 C 286.5,319.167 286.5,318.833 286.5,318.5C 287.167,318.5 287.833,318.5 288.5,318.5C 288.158,319.338 287.492,319.672 286.5,319.5 Z"/></g>
<g><path style="opacity:0.008" fill="#72BDB1" d="M 76.5,320.5 C 76.631,321.239 76.4643,321.906 76,322.5C 75.3083,321.563 75.475,320.897 76.5,320.5 Z"/></g>
<g><path style="opacity:0.008" fill="#72BDB1" d="M 77.5,323.5 C 77.631,324.239 77.4643,324.906 77,325.5C 76.3083,324.563 76.475,323.897 77.5,323.5 Z"/></g>
<g><path style="opacity:0.008" fill="#72BDB1" d="M 345.5,324.5 C 344.833,323.167 344.833,323.167 345.5,324.5 Z"/></g>
<g><path style="opacity:0.725" fill="#72BDB1" d="M 345.5,324.5 C 347.759,325.344 348.759,327.011 348.5,329.5C 347.833,329.5 347.5,329.833 347.5,330.5C 346.833,330.5 346.5,330.833 346.5,331.5C 345.833,331.5 345.5,331.833 345.5,332.5C 344.833,332.5 344.5,332.833 344.5,333.5C 343.833,333.5 343.5,333.833 343.5,334.5C 339.5,337.833 335.833,341.5 332.5,345.5C 330.074,344.647 329.24,342.981 330,340.5C 334.071,337.157 337.071,333.491 339,329.5C 339.333,329.833 339.667,330.167 340,330.5C 342.04,328.63 343.873,326.63 345.5,324.5 Z"/></g>
<g><path style="opacity:0.016" fill="#adcff8" d="M 277.5,325.5 C 276.833,326.167 276.833,326.167 277.5,325.5 Z"/></g>
<g><path style="opacity:0.008" fill="#72BDB1" d="M 349.5,325.5 C 350.573,326.251 350.74,327.251 350,328.5C 349.517,327.552 349.351,326.552 349.5,325.5 Z"/></g>
<g><path style="opacity:0.008" fill="#72BDB1" d="M 79.5,328.5 C 79.631,329.239 79.4643,329.906 79,330.5C 78.3083,329.563 78.475,328.897 79.5,328.5 Z"/></g>
<g><path style="opacity:0.008" fill="#b3cedb" d="M 268.5,330.5 C 268.5,330.167 268.5,329.833 268.5,329.5C 269.167,329.5 269.833,329.5 270.5,329.5C 270.158,330.338 269.492,330.672 268.5,330.5 Z"/></g>
<g><path style="opacity:0.008" fill="#72BDB1" d="M 348.5,329.5 C 349.833,330.167 349.833,330.167 348.5,329.5 Z"/></g>
<g><path style="opacity:0.008" fill="#b4cfcc" d="M 266.5,331.5 C 266.5,331.167 266.5,330.833 266.5,330.5C 267.167,330.5 267.833,330.5 268.5,330.5C 268.158,331.338 267.492,331.672 266.5,331.5 Z"/></g>
<g><path style="opacity:0.016" fill="#72BDB1" d="M 347.5,330.5 C 347.833,330.5 348.167,330.5 348.5,330.5C 348.315,331.17 347.981,331.17 347.5,330.5 Z"/></g>
<g><path style="opacity:0.008" fill="#72BDB1" d="M 79.5,331.5 C 80.8333,332.167 80.8333,332.167 79.5,331.5 Z"/></g>
<g><path style="opacity:0.016" fill="#72BDB1" d="M 346.5,331.5 C 346.833,331.5 347.167,331.5 347.5,331.5C 347.315,332.17 346.981,332.17 346.5,331.5 Z"/></g>
<g><path style="opacity:0.008" fill="#b3cedb" d="M 264.5,332.5 C 264.103,333.525 263.437,333.692 262.5,333C 263.094,332.536 263.761,332.369 264.5,332.5 Z"/></g>
<g><path style="opacity:0.016" fill="#72BDB1" d="M 345.5,332.5 C 345.833,332.5 346.167,332.5 346.5,332.5C 346.315,333.17 345.981,333.17 345.5,332.5 Z"/></g>
<g><path style="opacity:0.008" fill="#72BDB1" d="M 81.5,333.5 C 80.8333,334.167 80.8333,334.167 81.5,333.5 Z"/></g>
<g><path style="opacity:0.016" fill="#b1ceea" d="M 259.5,334.5 C 259.5,334.167 259.5,333.833 259.5,333.5C 262.167,333.833 262.167,334.167 259.5,334.5 Z"/></g>
<g><path style="opacity:0.008" fill="#72BDB1" d="M 344.5,333.5 C 344.833,333.5 345.167,333.5 345.5,333.5C 345.315,334.17 344.981,334.17 344.5,333.5 Z"/></g>
<g><path style="opacity:0.008" fill="#b3cedb" d="M 257.5,334.5 C 258.167,334.5 258.833,334.5 259.5,334.5C 258.833,335.833 258.167,335.833 257.5,334.5 Z"/></g>
<g><path style="opacity:0.008" fill="#72BDB1" d="M 343.5,334.5 C 343.833,334.5 344.167,334.5 344.5,334.5C 344.315,335.17 343.981,335.17 343.5,334.5 Z"/></g>
<g><path style="opacity:0.008" fill="#72BDB1" d="M 82.5,335.5 C 81.8333,336.167 81.8333,336.167 82.5,335.5 Z"/></g>
<g><path style="opacity:0.016" fill="#b1ceea" d="M 254.5,336.5 C 254.5,336.167 254.5,335.833 254.5,335.5C 257.167,335.833 257.167,336.167 254.5,336.5 Z"/></g>
<g><path style="opacity:0.008" fill="#72BDB1" d="M 83.5,337.5 C 82.8333,338.167 82.8333,338.167 83.5,337.5 Z"/></g>
<g><path style="opacity:0.016" fill="#b2cee2" d="M 248.5,338.5 C 248.5,338.167 248.5,337.833 248.5,337.5C 249.5,337.5 250.5,337.5 251.5,337.5C 250.791,338.404 249.791,338.737 248.5,338.5 Z"/></g>
<g><path style="opacity:0.008" fill="#72BDB1" d="M 84.5,340.5 C 83.8333,339.167 83.8333,339.167 84.5,340.5 Z"/></g>
<g><path style="opacity:0.008" fill="#72BDB1" d="M 84.5,340.5 C 84.8333,340.5 85.1667,340.5 85.5,340.5C 85.3147,341.17 84.9813,341.17 84.5,340.5 Z"/></g>
<g><path style="opacity:0.008" fill="#72BDB1" d="M 242.5,340.5 C 242.833,340.5 243.167,340.5 243.5,340.5C 243.315,341.17 242.981,341.17 242.5,340.5 Z"/></g>
<g><path style="opacity:0.008" fill="#72BDB1" d="M 327.5,341.5 C 328.525,341.897 328.692,342.563 328,343.5C 327.536,342.906 327.369,342.239 327.5,341.5 Z"/></g>
<g><path style="opacity:0.016" fill="#72BDB1" d="M 86.5,342.5 C 85.8333,343.167 85.8333,343.167 86.5,342.5 Z"/></g>
<g><path style="opacity:0.008" fill="#72BDB1" d="M 241.5,342.5 C 242.833,343.167 242.833,343.167 241.5,342.5 Z"/></g>
<g><path style="opacity:0.008" fill="#72BDB1" d="M 240.5,343.5 C 240.833,343.5 241.167,343.5 241.5,343.5C 241.672,344.492 241.338,345.158 240.5,345.5C 240.5,344.833 240.5,344.167 240.5,343.5 Z"/></g>
<g><path style="opacity:0.008" fill="#72BDB1" d="M 87.5,345.5 C 86.8333,344.167 86.8333,344.167 87.5,345.5 Z"/></g>
<g><path style="opacity:0.016" fill="#72BDB1" d="M 87.5,345.5 C 87.8333,345.5 88.1667,345.5 88.5,345.5C 88.3147,346.17 87.9813,346.17 87.5,345.5 Z"/></g>
<g><path style="opacity:0.016" fill="#72BDB1" d="M 239.5,345.5 C 239.833,345.5 240.167,345.5 240.5,345.5C 240.315,346.17 239.981,346.17 239.5,345.5 Z"/></g>
<g><path style="opacity:0.008" fill="#72BDB1" d="M 332.5,345.5 C 333.833,346.167 333.833,346.167 332.5,345.5 Z"/></g>
<g><path style="opacity:0.008" fill="#72BDB1" d="M 238.5,346.5 C 238.833,346.5 239.167,346.5 239.5,346.5C 239.315,347.17 238.981,347.17 238.5,346.5 Z"/></g>
<g><path style="opacity:0.008" fill="#72BDB1" d="M 237.5,348.5 C 238.833,349.167 238.833,349.167 237.5,348.5 Z"/></g>
<g><path style="opacity:0.016" fill="#72BDB1" d="M 91.5,349.5 C 90.8333,350.167 90.8333,350.167 91.5,349.5 Z"/></g>
<g><path style="opacity:0.008" fill="#72BDB1" d="M 92.5,352.5 C 91.8333,351.167 91.8333,351.167 92.5,352.5 Z"/></g>
<g><path style="opacity:0.008" fill="#72BDB1" d="M 313.5,352.5 C 313.897,351.475 314.563,351.308 315.5,352C 314.906,352.464 314.239,352.631 313.5,352.5 Z"/></g>
<g><path style="opacity:0.008" fill="#72BDB1" d="M 316.5,351.5 C 317.833,352.167 317.833,352.167 316.5,351.5 Z"/></g>
<g><path style="opacity:0.008" fill="#72BDB1" d="M 234.5,352.5 C 235.833,353.167 235.833,353.167 234.5,352.5 Z"/></g>
<g><path style="opacity:0.008" fill="#72BDB1" d="M 233.5,353.5 C 233.833,353.5 234.167,353.5 234.5,353.5C 234.315,354.17 233.981,354.17 233.5,353.5 Z"/></g>
<g><path style="opacity:0.701" fill="#72BDB1" d="M 318.5,354.5 C 318.267,356.062 317.6,357.395 316.5,358.5C 315.833,358.5 315.5,358.833 315.5,359.5C 313.973,359.427 312.973,360.094 312.5,361.5C 310.973,361.427 309.973,362.094 309.5,363.5C 308.833,363.5 308.5,363.833 308.5,364.5C 307.508,364.328 306.842,364.662 306.5,365.5C 305.833,365.5 305.5,365.833 305.5,366.5C 304.778,366.918 304.278,367.584 304,368.5C 303.023,367.226 302.189,367.226 301.5,368.5C 297.046,370.21 295.379,368.877 296.5,364.5C 298.745,364.459 299.412,363.625 298.5,362C 299.449,361.383 300.282,361.549 301,362.5C 301.995,361.934 302.828,361.267 303.5,360.5C 304.9,359.9 305.9,358.9 306.5,357.5C 307.779,358.715 308.779,358.382 309.5,356.5C 311.489,355.519 313.489,354.519 315.5,353.5C 316.584,353.685 317.584,354.018 318.5,354.5 Z"/></g>
<g><path style="opacity:0.008" fill="#72BDB1" d="M 318.5,353.5 C 319.833,354.167 319.833,354.167 318.5,353.5 Z"/></g>
<g><path style="opacity:0.016" fill="#72BDB1" d="M 232.5,354.5 C 232.833,354.5 233.167,354.5 233.5,354.5C 233.315,355.17 232.981,355.17 232.5,354.5 Z"/></g>
<g><path style="opacity:0.008" fill="#72BDB1" d="M 309.5,354.5 C 310.833,355.167 310.833,355.167 309.5,354.5 Z"/></g>
<g><path style="opacity:0.016" fill="#72BDB1" d="M 231.5,355.5 C 231.833,355.5 232.167,355.5 232.5,355.5C 232.315,356.17 231.981,356.17 231.5,355.5 Z"/></g>
<g><path style="opacity:0.016" fill="#72BDB1" d="M 309.5,355.5 C 309.5,355.833 309.5,356.167 309.5,356.5C 308.83,356.019 308.83,355.685 309.5,355.5 Z"/></g>
<g><path style="opacity:0.016" fill="#72BDB1" d="M 230.5,356.5 C 230.833,356.5 231.167,356.5 231.5,356.5C 231.315,357.17 230.981,357.17 230.5,356.5 Z"/></g>
<g><path style="opacity:0.008" fill="#72BDB1" d="M 306.5,356.5 C 307.833,357.167 307.833,357.167 306.5,356.5 Z"/></g>
<g><path style="opacity:0.008" fill="#72BDB1" d="M 303.5,358.5 C 304.833,359.167 304.833,359.167 303.5,358.5 Z"/></g>
<g><path style="opacity:0.008" fill="#72BDB1" d="M 316.5,358.5 C 317.833,359.167 317.833,359.167 316.5,358.5 Z"/></g>
<g><path style="opacity:0.008" fill="#72BDB1" d="M 303.5,359.5 C 303.5,359.833 303.5,360.167 303.5,360.5C 302.83,360.019 302.83,359.685 303.5,359.5 Z"/></g>
<g><path style="opacity:0.016" fill="#72BDB1" d="M 315.5,359.5 C 315.833,359.5 316.167,359.5 316.5,359.5C 316.315,360.17 315.981,360.17 315.5,359.5 Z"/></g>
<g><path style="opacity:0.016" fill="#72BDB1" d="M 226.5,360.5 C 226.833,360.5 227.167,360.5 227.5,360.5C 227.315,361.17 226.981,361.17 226.5,360.5 Z"/></g>
<g><path style="opacity:0.008" fill="#72BDB1" d="M 315.5,360.5 C 314.833,361.167 314.833,361.167 315.5,360.5 Z"/></g>
<g><path style="opacity:0.016" fill="#72BDB1" d="M 225.5,361.5 C 225.833,361.5 226.167,361.5 226.5,361.5C 226.315,362.17 225.981,362.17 225.5,361.5 Z"/></g>
<g><path style="opacity:0.016" fill="#72BDB1" d="M 312.5,361.5 C 313.833,362.167 313.833,362.167 312.5,361.5 Z"/></g>
<g><path style="opacity:0.016" fill="#72BDB1" d="M 224.5,362.5 C 224.833,362.5 225.167,362.5 225.5,362.5C 225.315,363.17 224.981,363.17 224.5,362.5 Z"/></g>
<g><path style="opacity:0.008" fill="#72BDB1" d="M 312.5,362.5 C 311.833,363.167 311.833,363.167 312.5,362.5 Z"/></g>
<g><path style="opacity:0.753" fill="#72BDB1" d="M 242.5,339.5 C 242.5,339.833 242.5,340.167 242.5,340.5C 241.662,340.842 241.328,341.508 241.5,342.5C 240.833,342.5 240.5,342.833 240.5,343.5C 239.662,343.842 239.328,344.508 239.5,345.5C 238.833,345.5 238.5,345.833 238.5,346.5C 237.662,346.842 237.328,347.508 237.5,348.5C 236.167,348.833 236.167,349.167 237.5,349.5C 236.992,351.233 236.159,351.566 235,350.5C 233.961,351.244 233.461,352.244 233.5,353.5C 232.833,353.5 232.5,353.833 232.5,354.5C 231.833,354.5 231.5,354.833 231.5,355.5C 230.833,355.5 230.5,355.833 230.5,356.5C 229.167,356.833 229.167,357.167 230.5,357.5C 229.833,358.833 228.833,359.833 227.5,360.5C 227.167,359.167 226.833,359.167 226.5,360.5C 225.833,360.5 225.5,360.833 225.5,361.5C 224.833,361.5 224.5,361.833 224.5,362.5C 223.167,362.833 223.167,363.167 224.5,363.5C 222.891,364.326 221.224,365.326 219.5,366.5C 218.833,366.5 218.5,366.833 218.5,367.5C 216.973,367.427 215.973,368.094 215.5,369.5C 214.833,369.5 214.5,369.833 214.5,370.5C 213.508,370.328 212.842,370.662 212.5,371.5C 211.833,371.5 211.5,371.833 211.5,372.5C 210.508,372.328 209.842,372.662 209.5,373.5C 208.508,373.328 207.842,373.662 207.5,374.5C 206.508,374.328 205.842,374.662 205.5,375.5C 204.675,379.647 204.175,383.981 204,388.5C 202.244,389.985 201.077,389.652 200.5,387.5C 200.957,370.43 200.457,353.43 199,336.5C 196.833,331.667 193.333,328.167 188.5,326C 180.239,324.879 171.906,324.379 163.5,324.5C 156.167,324.667 148.833,324.833 141.5,325C 134.572,327.594 130.072,332.427 128,339.5C 127.5,355.497 127.333,371.497 127.5,387.5C 127.423,388.75 126.756,389.583 125.5,390C 125.833,390.333 126.167,390.667 126.5,391C 125.517,391.591 124.85,391.257 124.5,390C 123.907,385.02 123.24,380.186 122.5,375.5C 121.486,374.326 120.153,373.66 118.5,373.5C 118.158,372.662 117.492,372.328 116.5,372.5C 116.027,371.094 115.027,370.427 113.5,370.5C 111.2,368.016 108.533,366.016 105.5,364.5C 100.19,360.831 95.8568,356.831 92.5,352.5C 94.5499,351.678 94.2165,350.678 91.5,349.5C 90.9744,347.77 89.9744,346.436 88.5,345.5C 88.573,343.973 87.9063,342.973 86.5,342.5C 86.6716,341.508 86.3382,340.842 85.5,340.5C 85.573,338.973 84.9063,337.973 83.5,337.5C 83.6716,336.508 83.3382,335.842 82.5,335.5C 82.6716,334.508 82.3382,333.842 81.5,333.5C 81.5979,331.447 80.9313,329.78 79.5,328.5C 79.2041,326.597 78.5375,324.93 77.5,323.5C 77.7373,322.209 77.404,321.209 76.5,320.5C 76.8541,317.579 75.8541,315.246 73.5,313.5C 74.0253,312.808 74.6919,312.308 75.5,312C 74.488,310.357 73.488,309.19 72.5,308.5C 72.8178,307.353 73.4844,306.519 74.5,306C 73.6911,300.583 73.1911,295.083 73,289.5C 72.6667,293.833 72.3333,298.167 72,302.5C 71.3333,297.5 71.3333,292.5 72,287.5C 72.3333,287.833 72.6667,288.167 73,288.5C 73.4955,286.527 73.6621,284.527 73.5,282.5C 75.1015,278.079 76.1015,273.412 76.5,268.5C 78.6031,267.02 78.6031,265.853 76.5,265C 77.4158,264.722 78.0825,264.222 78.5,263.5C 79.404,262.791 79.7373,261.791 79.5,260.5C 80.3382,260.158 80.6716,259.492 80.5,258.5C 82.6031,257.02 82.6031,255.853 80.5,255C 81.0442,254.283 81.7109,253.783 82.5,253.5C 82.8333,254.833 83.1667,254.833 83.5,253.5C 89.4493,243.367 96.7826,234.2 105.5,226C 144.454,197.363 183.454,197.363 222.5,226C 256.382,258.921 263.049,296.754 242.5,339.5 Z"/></g>
<g><path style="opacity:1" fill="#72BDB1" d="M 186.5,387.5 C 186.5,387.833 186.5,388.167 186.5,388.5C 184.737,389.954 183.403,389.62 182.5,387.5C 182.5,373.833 182.5,360.167 182.5,346.5C 183.833,346.5 185.167,346.5 186.5,346.5C 186.5,360.167 186.5,373.833 186.5,387.5 Z"/></g>
<g><path style="opacity:0.997" fill="#f9ec2f" d="M 200.5,387.5 C 195.833,387.5 191.167,387.5 186.5,387.5C 186.5,373.833 186.5,360.167 186.5,346.5C 185.167,346.5 183.833,346.5 182.5,346.5C 182.5,360.167 182.5,373.833 182.5,387.5C 170.167,387.5 157.833,387.5 145.5,387.5C 145.5,373.833 145.5,360.167 145.5,346.5C 144.167,346.5 142.833,346.5 141.5,346.5C 141.5,360.167 141.5,373.833 141.5,387.5C 136.833,387.5 132.167,387.5 127.5,387.5C 127.333,371.497 127.5,355.497 128,339.5C 130.072,332.427 134.572,327.594 141.5,325C 148.833,324.833 156.167,324.667 163.5,324.5C 171.906,324.379 180.239,324.879 188.5,326C 193.333,328.167 196.833,331.667 199,336.5C 200.457,353.43 200.957,370.43 200.5,387.5 Z"/></g>
<g><path style="opacity:1" fill="#fbfcfe" d="M 219.5,296.5 C 229.5,296.5 239.5,296.5 249.5,296.5C 248.213,329.422 233.379,354.089 205,370.5C 204.333,365.833 204.333,361.167 205,356.5C 215.493,337.861 220.327,317.861 219.5,296.5 Z"/></g>
<g><path style="opacity:1" fill="#fafcfe" d="M 187.5,296.5 C 197.167,296.5 206.833,296.5 216.5,296.5C 216.049,314.587 212.216,331.92 205,348.5C 204.81,334.254 197.976,325.087 184.5,321C 178.175,320.5 171.842,320.334 165.5,320.5C 165.338,318.473 165.505,316.473 166,314.5C 176.985,313.011 184.152,307.011 187.5,296.5 Z"/></g>
<g><path style="opacity:1" fill="#fafcfe" d="M 111.5,296.5 C 121.172,296.334 130.839,296.5 140.5,297C 144.114,307.221 151.281,313.054 162,314.5C 162.495,316.473 162.662,318.473 162.5,320.5C 155.492,320.334 148.492,320.5 141.5,321C 129.386,326.122 123.219,335.289 123,348.5C 115.783,331.915 111.95,314.582 111.5,296.5 Z"/></g>
<g><path style="opacity:1" fill="#fbfcfe" d="M 78.5,296.5 C 88.1667,296.5 97.8333,296.5 107.5,296.5C 107.651,317.799 112.817,337.799 123,356.5C 123.667,361.167 123.667,365.833 123,370.5C 94.6204,354.088 79.7871,329.422 78.5,296.5 Z"/></g>
<g><path style="opacity:1" fill="#fcfdfe" d="M 143.5,288.5 C 157.167,288.5 170.833,288.5 184.5,288.5C 182.459,306.033 172.793,312.867 155.5,309C 147.537,304.586 143.537,297.752 143.5,288.5 Z"/></g>
<g><path style="opacity:1" fill="#72BDB1" d="M 141.5,264.5 C 148.588,266.473 155.755,268.14 163,269.5C 170.593,268.148 178.093,266.482 185.5,264.5C 185.811,271.09 185.478,277.59 184.5,284C 170.5,284.667 156.5,284.667 142.5,284C 141.522,277.59 141.189,271.09 141.5,264.5 Z"/></g>
<g><path style="opacity:1" fill="#72BDB1" d="M 160.5,246.5 C 172.264,249.192 183.93,252.358 195.5,256C 184.428,260.345 173.095,263.678 161.5,266C 151.272,263.212 141.272,259.879 131.5,256C 141.369,253.138 151.035,249.971 160.5,246.5 Z"/></g>
<g><path style="opacity:1" fill="#fcfdfe" d="M 186.5,212.5 C 213.347,219.816 232.514,236.483 244,262.5C 248.214,272.07 250.047,282.07 249.5,292.5C 239.833,292.5 230.167,292.5 220.5,292.5C 220.698,266.603 213.198,243.269 198,222.5C 194.59,218.584 190.757,215.251 186.5,212.5 Z"/></g>
<g><path style="opacity:1" fill="#fbfdfe" d="M 139.5,211.5 C 140.239,211.369 140.906,211.536 141.5,212C 129.204,221.977 120.371,234.477 115,249.5C 109.987,263.399 107.487,277.732 107.5,292.5C 97.8333,292.5 88.1667,292.5 78.5,292.5C 81.1694,252.148 101.503,225.148 139.5,211.5 Z"/></g>
<g><path style="opacity:1" fill="#72BDB1" d="M 170.5,209.5 C 169.167,209.5 167.833,209.5 166.5,209.5C 166.5,220.833 166.5,232.167 166.5,243.5C 165.505,232.012 165.172,220.345 165.5,208.5C 167.415,208.216 169.081,208.549 170.5,209.5 Z"/></g>
<g><path style="opacity:1" fill="#72BDB1" d="M 161.5,208.5 C 162.166,214.157 162.499,219.99 162.5,226C 162.496,232.207 161.829,238.04 160.5,243.5C 161.478,231.914 161.811,220.247 161.5,208.5 Z"/></g>
<g><path style="opacity:1" fill="#fbfdfe" d="M 170.5,209.5 C 183.745,213.578 193.912,221.578 201,233.5C 211.457,251.757 216.624,271.423 216.5,292.5C 207.167,292.5 197.833,292.5 188.5,292.5C 189.213,282.516 189.547,272.516 189.5,262.5C 193.441,261.243 197.441,260.076 201.5,259C 202.833,257.333 202.833,255.667 201.5,254C 189.861,250.341 178.194,246.841 166.5,243.5C 166.5,232.167 166.5,220.833 166.5,209.5C 167.833,209.5 169.167,209.5 170.5,209.5 Z"/></g>
<g><path style="opacity:1" fill="#fcfdfe" d="M 161.5,208.5 C 161.811,220.247 161.478,231.914 160.5,243.5C 148.366,246.488 136.366,249.988 124.5,254C 123.14,255.938 123.473,257.604 125.5,259C 129.327,260.79 133.327,261.956 137.5,262.5C 137.082,272.688 137.748,282.688 139.5,292.5C 130.167,292.5 120.833,292.5 111.5,292.5C 111.063,266.312 118.896,242.978 135,222.5C 142.261,214.787 151.094,210.12 161.5,208.5 Z"/></g>
<g><path style="opacity:0.008" fill="#72BDB1" d="M 296.5,364.5 C 295.833,363.167 295.833,363.167 296.5,364.5 Z"/></g>
<g><path style="opacity:0.008" fill="#72BDB1" d="M 309.5,363.5 C 310.833,364.167 310.833,364.167 309.5,363.5 Z"/></g>
<g><path style="opacity:0.008" fill="#72BDB1" d="M 105.5,364.5 C 105.5,364.833 105.5,365.167 105.5,365.5C 104.83,365.019 104.83,364.685 105.5,364.5 Z"/></g>
<g><path style="opacity:0.008" fill="#72BDB1" d="M 308.5,364.5 C 308.833,364.5 309.167,364.5 309.5,364.5C 309.315,365.17 308.981,365.17 308.5,364.5 Z"/></g>
<g><path style="opacity:0.008" fill="#72BDB1" d="M 105.5,365.5 C 106.833,366.167 106.833,366.167 105.5,365.5 Z"/></g>
<g><path style="opacity:0.016" fill="#72BDB1" d="M 306.5,365.5 C 307.833,366.167 307.833,366.167 306.5,365.5 Z"/></g>
<g><path style="opacity:0.016" fill="#72BDB1" d="M 219.5,366.5 C 220.833,367.167 220.833,367.167 219.5,366.5 Z"/></g>
<g><path style="opacity:0.008" fill="#72BDB1" d="M 305.5,366.5 C 305.833,366.5 306.167,366.5 306.5,366.5C 306.315,367.17 305.981,367.17 305.5,366.5 Z"/></g>
<g><path style="opacity:0.016" fill="#72BDB1" d="M 218.5,367.5 C 218.833,367.5 219.167,367.5 219.5,367.5C 219.315,368.17 218.981,368.17 218.5,367.5 Z"/></g>
<g><path style="opacity:0.008" fill="#72BDB1" d="M 218.5,368.5 C 217.833,369.167 217.833,369.167 218.5,368.5 Z"/></g>
<g><path style="opacity:0.008" fill="#72BDB1" d="M 301.5,368.5 C 302.833,369.167 302.833,369.167 301.5,368.5 Z"/></g>
<g><path style="opacity:0.008" fill="#72BDB1" d="M 215.5,369.5 C 216.833,370.167 216.833,370.167 215.5,369.5 Z"/></g>
<g><path style="opacity:0.008" fill="#72BDB1" d="M 301.5,369.5 C 300.833,370.167 300.833,370.167 301.5,369.5 Z"/></g>
<g><path style="opacity:0.008" fill="#72BDB1" d="M 113.5,370.5 C 112.833,371.167 112.833,371.167 113.5,370.5 Z"/></g>
<g><path style="opacity:1" fill="#72BDB1" d="M 145.5,387.5 C 157.326,388.331 169.326,388.831 181.5,389C 163.833,389.667 146.167,389.667 128.5,389C 133.019,388.825 137.353,388.325 141.5,387.5C 141.5,373.833 141.5,360.167 141.5,346.5C 142.833,346.5 144.167,346.5 145.5,346.5C 145.5,360.167 145.5,373.833 145.5,387.5 Z"/></g>
<g><path style="opacity:0.008" fill="#72BDB1" d="M 214.5,370.5 C 214.833,370.5 215.167,370.5 215.5,370.5C 215.315,371.17 214.981,371.17 214.5,370.5 Z"/></g>
<g><path style="opacity:0.008" fill="#72BDB1" d="M 297.5,371.5 C 297.897,370.475 298.563,370.308 299.5,371C 298.906,371.464 298.239,371.631 297.5,371.5 Z"/></g>
<g><path style="opacity:0.008" fill="#72BDB1" d="M 212.5,371.5 C 213.833,372.167 213.833,372.167 212.5,371.5 Z"/></g>
<g><path style="opacity:0.008" fill="#72BDB1" d="M 279.5,371.5 C 280.833,372.167 280.833,372.167 279.5,371.5 Z"/></g>
<g><path style="opacity:0.008" fill="#72BDB1" d="M 116.5,372.5 C 115.833,373.167 115.833,373.167 116.5,372.5 Z"/></g>
<g><path style="opacity:0.008" fill="#72BDB1" d="M 211.5,372.5 C 211.833,372.5 212.167,372.5 212.5,372.5C 212.315,373.17 211.981,373.17 211.5,372.5 Z"/></g>
<g><path style="opacity:0.008" fill="#72BDB1" d="M 278.5,373.5 C 277.761,373.631 277.094,373.464 276.5,373C 277.437,372.308 278.103,372.475 278.5,373.5 Z"/></g>
<g><path style="opacity:0.016" fill="#72BDB1" d="M 118.5,373.5 C 117.833,374.167 117.833,374.167 118.5,373.5 Z"/></g>
<g><path style="opacity:0.016" fill="#72BDB1" d="M 209.5,373.5 C 210.833,374.167 210.833,374.167 209.5,373.5 Z"/></g>
<g><path style="opacity:0.008" fill="#72BDB1" d="M 274.5,373.5 C 275.833,374.167 275.833,374.167 274.5,373.5 Z"/></g>
<g><path style="opacity:0.663" fill="#72BDB1" d="M 278.5,373.5 C 283.456,374.778 283.789,376.778 279.5,379.5C 277.447,379.402 275.78,380.069 274.5,381.5C 273.778,381.918 273.278,382.584 273,383.5C 272.275,382.941 271.442,382.608 270.5,382.5C 266.803,383.566 263.136,384.732 259.5,386C 261.595,386.556 261.762,387.056 260,387.5C 256.391,383.947 256.891,381.281 261.5,379.5C 264.916,379.472 267.916,378.472 270.5,376.5C 271.791,376.737 272.791,376.404 273.5,375.5C 275.553,375.598 277.22,374.931 278.5,373.5 Z"/></g>
<g><path style="opacity:0.008" fill="#72BDB1" d="M 207.5,374.5 C 208.833,375.167 208.833,375.167 207.5,374.5 Z"/></g>
<g><path style="opacity:0.008" fill="#72BDB1" d="M 273.5,375.5 C 272.761,375.631 272.094,375.464 271.5,375C 272.437,374.308 273.103,374.475 273.5,375.5 Z"/></g>
<g><path style="opacity:0.008" fill="#72BDB1" d="M 122.5,375.5 C 122.103,376.525 121.437,376.692 120.5,376C 121.094,375.536 121.761,375.369 122.5,375.5 Z"/></g>
<g><path style="opacity:0.008" fill="#72BDB1" d="M 205.5,375.5 C 206.167,375.5 206.833,375.5 207.5,375.5C 206.181,392.681 205.515,392.681 205.5,375.5 Z"/></g>
<g><path style="opacity:0.008" fill="#72BDB1" d="M 270.5,376.5 C 269.761,376.631 269.094,376.464 268.5,376C 269.437,375.308 270.103,375.475 270.5,376.5 Z"/></g>
<g><path style="opacity:0.008" fill="#72BDB1" d="M 265.5,377.5 C 265.897,376.475 266.563,376.308 267.5,377C 266.906,377.464 266.239,377.631 265.5,377.5 Z"/></g>
<g><path style="opacity:0.008" fill="#72BDB1" d="M 262.5,378.5 C 262.897,377.475 263.563,377.308 264.5,378C 263.906,378.464 263.239,378.631 262.5,378.5 Z"/></g>
<g><path style="opacity:0.008" fill="#72BDB1" d="M 261.5,379.5 C 260.761,379.631 260.094,379.464 259.5,379C 260.437,378.308 261.103,378.475 261.5,379.5 Z"/></g>
<g><path style="opacity:0.008" fill="#72BDB1" d="M 279.5,379.5 C 280.833,380.167 280.833,380.167 279.5,379.5 Z"/></g>
<g><path style="opacity:0.008" fill="#72BDB1" d="M 277.5,380.5 C 278.833,381.167 278.833,381.167 277.5,380.5 Z"/></g>
<g><path style="opacity:0.008" fill="#72BDB1" d="M 274.5,381.5 C 275.239,381.369 275.906,381.536 276.5,382C 275.563,382.692 274.897,382.525 274.5,381.5 Z"/></g>
<g><path style="opacity:0.008" fill="#72BDB1" d="M 255.5,382.5 C 256.833,383.167 256.833,383.167 255.5,382.5 Z"/></g>
<g><path style="opacity:0.013" fill="#72BDB1" d="M 237.5,384.5 C 238.251,383.427 239.251,383.26 240.5,384C 239.552,384.483 238.552,384.649 237.5,384.5 Z"/></g>
<g><path style="opacity:0.016" fill="#72BDB1" d="M 269.5,383.5 C 270.833,384.167 270.833,384.167 269.5,383.5 Z"/></g>
<g><path style="opacity:0.013" fill="#72BDB1" d="M 230.5,385.5 C 231.251,384.427 232.251,384.26 233.5,385C 232.552,385.483 231.552,385.649 230.5,385.5 Z"/></g>
<g><path style="opacity:0.008" fill="#72BDB1" d="M 241.5,384.5 C 242.833,385.167 242.833,385.167 241.5,384.5 Z"/></g>
<g><path style="opacity:0.016" fill="#72BDB1" d="M 266.5,384.5 C 267.833,385.167 267.833,385.167 266.5,384.5 Z"/></g>
<g><path style="opacity:0.01" fill="#72BDB1" d="M 218.5,386.5 C 220.628,385.371 222.961,385.204 225.5,386C 223.19,386.497 220.857,386.663 218.5,386.5 Z"/></g>
<g><path style="opacity:0.624" fill="#72BDB1" d="M 241.5,385.5 C 242.058,386.79 243.058,387.623 244.5,388C 243.692,388.308 243.025,388.808 242.5,389.5C 235.581,391.074 228.581,392.24 221.5,393C 224.121,393.906 223.954,394.406 221,394.5C 220.167,394.333 219.333,394.167 218.5,394C 218.833,393.667 219.167,393.333 219.5,393C 216.654,392.121 215.987,390.454 217.5,388C 225.503,387.118 233.503,386.285 241.5,385.5 Z"/></g>
<g><path style="opacity:0.012" fill="#72BDB1" d="M 263.5,386.5 C 263.897,385.475 264.563,385.308 265.5,386C 264.906,386.464 264.239,386.631 263.5,386.5 Z"/></g>
<g><path style="opacity:0.008" fill="#72BDB1" d="M 121.5,386.5 C 122.525,386.897 122.692,387.563 122,388.5C 121.536,387.906 121.369,387.239 121.5,386.5 Z"/></g>
<g><path style="opacity:0.008" fill="#b4ced0" d="M 186.5,388.5 C 190.846,388.334 195.179,388.501 199.5,389C 194.98,389.814 190.646,389.647 186.5,388.5 Z"/></g>
<g><path style="opacity:0.008" fill="#72BDB1" d="M 214.5,389.5 C 215.833,390.167 215.833,390.167 214.5,389.5 Z"/></g>
<g><path style="opacity:0.008" fill="#72BDB1" d="M 143.5,390.5 C 144.833,391.167 144.833,391.167 143.5,390.5 Z"/></g>
<g><path style="opacity:0.008" fill="#72BDB1" d="M 183.5,390.5 C 184.833,391.167 184.833,391.167 183.5,390.5 Z"/></g>
<g><path style="opacity:0.008" fill="#72BDB1" d="M 201.5,390.5 C 202.833,391.167 202.833,391.167 201.5,390.5 Z"/></g>
<g><path style="opacity:0.01" fill="#72BDB1" d="M 237.5,392.5 C 238.251,391.427 239.251,391.26 240.5,392C 239.552,392.483 238.552,392.649 237.5,392.5 Z"/></g>
<g><path style="opacity:0.012" fill="#72BDB1" d="M 230.5,393.5 C 231.601,392.402 232.934,392.235 234.5,393C 233.207,393.49 231.873,393.657 230.5,393.5 Z"/></g>
<g><path style="opacity:0.008" fill="#72BDB1" d="M 225.5,393.5 C 226.833,394.167 226.833,394.167 225.5,393.5 Z"/></g>
</svg>
