<?xml version="1.0" encoding="UTF-8"?>
<!DOCTYPE svg PUBLIC "-//W3C//DTD SVG 1.1//EN" "http://www.w3.org/Graphics/SVG/1.1/DTD/svg11.dtd">
<svg xmlns="http://www.w3.org/2000/svg" version="1.1" width="420px" height="420px" style="shape-rendering:geometricPrecision; text-rendering:geometricPrecision; image-rendering:optimizeQuality; fill-rule:evenodd; clip-rule:evenodd" xmlns:xlink="http://www.w3.org/1999/xlink">
<g><path style="opacity:0.008" fill="#fefffe" d="M 322.5,26.5 C 326.311,25.3547 330.311,25.1881 334.5,26C 330.514,26.4988 326.514,26.6655 322.5,26.5 Z"/></g>
<g><path style="opacity:0.008" fill="#fefffe" d="M 315.5,27.5 C 316.251,26.4265 317.251,26.2599 318.5,27C 317.552,27.4828 316.552,27.6495 315.5,27.5 Z"/></g>
<g><path style="opacity:0.01" fill="#fefffe" d="M 337.5,27.5 C 338.251,26.4265 339.251,26.2599 340.5,27C 339.552,27.4828 338.552,27.6495 337.5,27.5 Z"/></g>
<g><path style="opacity:0.01" fill="#fefffe" d="M 314.5,28.5 C 313.448,28.6495 312.448,28.4828 311.5,28C 312.749,27.2599 313.749,27.4265 314.5,28.5 Z"/></g>
<g><path style="opacity:0.899" fill="#fefffe" d="M 345.5,29.5 C 346.78,30.9313 348.447,31.5979 350.5,31.5C 352.849,33.341 355.515,34.6743 358.5,35.5C 358.973,36.9063 359.973,37.573 361.5,37.5C 362.945,39.0627 364.611,40.396 366.5,41.5C 369.167,44.8333 372.167,47.8333 375.5,50.5C 375.427,52.0269 376.094,53.0269 377.5,53.5C 377.427,55.0269 378.094,56.0269 379.5,56.5C 379.66,58.153 380.326,59.4863 381.5,60.5C 381.66,62.153 382.326,63.4863 383.5,64.5C 383.928,67.7846 384.928,70.7846 386.5,73.5C 388.416,85.7562 387.416,97.7562 383.5,109.5C 382.662,109.842 382.328,110.508 382.5,111.5C 381.662,111.842 381.328,112.508 381.5,113.5C 380.662,113.842 380.328,114.508 380.5,115.5C 379.662,115.842 379.328,116.508 379.5,117.5C 378.094,117.973 377.427,118.973 377.5,120.5C 376.094,120.973 375.427,121.973 375.5,123.5C 374.833,123.5 374.5,123.833 374.5,124.5C 373.833,124.5 373.5,124.833 373.5,125.5C 372.833,125.5 372.5,125.833 372.5,126.5C 371.833,126.5 371.5,126.833 371.5,127.5C 370.167,128.167 369.167,129.167 368.5,130.5C 367.833,130.5 367.5,130.833 367.5,131.5C 366.833,131.5 366.5,131.833 366.5,132.5C 365.833,132.5 365.5,132.833 365.5,133.5C 364.833,133.5 364.5,133.833 364.5,134.5C 363.508,134.328 362.842,134.662 362.5,135.5C 361.833,135.5 361.5,135.833 361.5,136.5C 360.508,136.328 359.842,136.662 359.5,137.5C 358.833,137.5 358.5,137.833 358.5,138.5C 357.508,138.328 356.842,138.662 356.5,139.5C 355.508,139.328 354.842,139.662 354.5,140.5C 353.508,140.328 352.842,140.662 352.5,141.5C 351.508,141.328 350.842,141.662 350.5,142.5C 335.494,147.787 320.494,147.787 305.5,142.5C 303.819,140.992 301.819,139.992 299.5,139.5C 298.101,138.11 296.434,137.11 294.5,136.5C 294.027,135.094 293.027,134.427 291.5,134.5C 288.833,131.167 285.833,128.167 282.5,125.5C 281.396,123.611 280.063,121.945 278.5,120.5C 278.068,119.29 277.401,118.29 276.5,117.5C 275.674,114.515 274.341,111.849 272.5,109.5C 272.072,106.215 271.072,103.215 269.5,100.5C 267.963,90.0987 268.296,79.7654 270.5,69.5C 271.404,68.791 271.737,67.791 271.5,66.5C 273.674,63.4846 275.341,60.1513 276.5,56.5C 279.493,52.5053 282.493,48.5053 285.5,44.5C 288.938,42.2411 292.271,39.7411 295.5,37C 300.592,34.4541 305.592,31.9541 310.5,29.5C 312.099,29.7678 313.432,29.4345 314.5,28.5C 324.898,26.9941 335.231,27.3274 345.5,29.5 Z M 342.5,42.5 C 343.791,42.2627 344.791,42.596 345.5,43.5C 344.761,43.369 344.094,43.5357 343.5,44C 344.946,45.298 346.279,45.4646 347.5,44.5C 349.38,44.2291 350.713,44.8958 351.5,46.5C 352.492,46.3284 353.158,46.6618 353.5,47.5C 352.453,48.0778 352.62,48.7445 354,49.5C 354.399,49.2716 354.565,48.9382 354.5,48.5C 355.492,48.3284 356.158,48.6618 356.5,49.5C 356.062,49.4346 355.728,49.6012 355.5,50C 358.667,53.1667 361.833,56.3333 365,59.5C 365.399,59.2716 365.565,58.9382 365.5,58.5C 366.338,58.8417 366.672,59.5084 366.5,60.5C 365.453,61.0778 365.62,61.7445 367,62.5C 367.399,62.2716 367.565,61.9382 367.5,61.5C 368.338,61.8417 368.672,62.5084 368.5,63.5C 369.338,63.8417 369.672,64.5084 369.5,65.5C 370.338,65.8417 370.672,66.5084 370.5,67.5C 373.649,73.6665 375.316,80.3332 375.5,87.5C 375.343,92.4796 374.343,97.1463 372.5,101.5C 372.737,102.791 372.404,103.791 371.5,104.5C 371.672,105.492 371.338,106.158 370.5,106.5C 370.672,107.492 370.338,108.158 369.5,108.5C 369.672,109.492 369.338,110.158 368.5,110.5C 368.565,110.062 368.399,109.728 368,109.5C 363.833,116.333 358.333,121.833 351.5,126C 350.262,126.69 350.262,127.19 351.5,127.5C 351.158,128.338 350.492,128.672 349.5,128.5C 349.158,129.338 348.492,129.672 347.5,129.5C 346.279,128.535 344.946,128.702 343.5,130C 344.094,130.464 344.761,130.631 345.5,130.5C 333.833,135.833 322.167,135.833 310.5,130.5C 309.508,130.672 308.842,130.338 308.5,129.5C 309.738,129.19 309.738,128.69 308.5,128C 307.563,127.308 306.897,127.475 306.5,128.5C 305.508,128.672 304.842,128.338 304.5,127.5C 305.738,127.19 305.738,126.69 304.5,126C 301.631,124.404 298.964,122.57 296.5,120.5C 296.5,119.833 296.167,119.5 295.5,119.5C 295.5,118.833 295.167,118.5 294.5,118.5C 294.5,117.833 294.167,117.5 293.5,117.5C 292.758,115.65 291.758,114.984 290.5,115.5C 289.662,115.158 289.328,114.492 289.5,113.5C 290.547,112.922 290.38,112.256 289,111.5C 288.601,111.728 288.435,112.062 288.5,112.5C 287.662,112.158 287.328,111.492 287.5,110.5C 286.662,110.158 286.328,109.492 286.5,108.5C 285.662,108.158 285.328,107.492 285.5,106.5C 284.662,106.158 284.328,105.492 284.5,104.5C 283.596,103.791 283.263,102.791 283.5,101.5C 279.289,90.6939 279.623,80.0273 284.5,69.5C 284.461,66.911 285.461,64.911 287.5,63.5C 287.328,62.5084 287.662,61.8417 288.5,61.5C 288.427,59.9731 289.094,58.9731 290.5,58.5C 291.758,59.0164 292.758,58.3497 293.5,56.5C 294.167,56.5 294.5,56.1667 294.5,55.5C 295.167,55.5 295.5,55.1667 295.5,54.5C 296.167,54.5 296.5,54.1667 296.5,53.5C 297.167,53.5 297.5,53.1667 297.5,52.5C 299.35,51.7582 300.016,50.7582 299.5,49.5C 299.973,48.0937 300.973,47.427 302.5,47.5C 303.497,48.7125 304.497,48.5458 305.5,47C 305.272,46.6012 304.938,46.4346 304.5,46.5C 305.287,44.8958 306.62,44.2291 308.5,44.5C 308.842,43.6618 309.508,43.3284 310.5,43.5C 311.209,42.596 312.209,42.2627 313.5,42.5C 323.167,38.5 332.833,38.5 342.5,42.5 Z M 297.5,51.5 C 297.5,51.8333 297.5,52.1667 297.5,52.5C 296.833,52.5 296.5,52.8333 296.5,53.5C 295.833,53.5 295.5,53.8333 295.5,54.5C 294.833,54.5 294.5,54.8333 294.5,55.5C 293.833,55.5 293.5,55.8333 293.5,56.5C 293.167,56.5 292.833,56.5 292.5,56.5C 293.167,53.8333 294.833,52.1667 297.5,51.5 Z M 292.5,117.5 C 292.833,117.5 293.167,117.5 293.5,117.5C 294.167,117.5 294.5,117.833 294.5,118.5C 295.167,118.5 295.5,118.833 295.5,119.5C 296.167,119.5 296.5,119.833 296.5,120.5C 296.5,120.833 296.5,121.167 296.5,121.5C 294.167,121.167 292.833,119.833 292.5,117.5 Z"/></g>
<g><path style="opacity:0.012" fill="#fefffe" d="M 342.5,28.5 C 342.897,27.475 343.563,27.3083 344.5,28C 343.906,28.4643 343.239,28.631 342.5,28.5 Z"/></g>
<g><path style="opacity:0.008" fill="#fefffe" d="M 310.5,29.5 C 309.761,29.631 309.094,29.4643 308.5,29C 309.437,28.3083 310.103,28.475 310.5,29.5 Z"/></g>
<g><path style="opacity:0.008" fill="#fefffe" d="M 345.5,29.5 C 345.897,28.475 346.563,28.3083 347.5,29C 346.906,29.4643 346.239,29.631 345.5,29.5 Z"/></g>
<g><path style="opacity:0.008" fill="#fefffe" d="M 306.5,29.5 C 307.833,30.1667 307.833,30.1667 306.5,29.5 Z"/></g>
<g><path style="opacity:0.008" fill="#fefffe" d="M 348.5,29.5 C 349.833,30.1667 349.833,30.1667 348.5,29.5 Z"/></g>
<g><path style="opacity:0.008" fill="#fefffe" d="M 303.5,30.5 C 304.833,31.1667 304.833,31.1667 303.5,30.5 Z"/></g>
<g><path style="opacity:0.008" fill="#fefffe" d="M 350.5,31.5 C 350.897,30.475 351.563,30.3083 352.5,31C 351.906,31.4643 351.239,31.631 350.5,31.5 Z"/></g>
<g><path style="opacity:0.008" fill="#fefffe" d="M 301.5,31.5 C 302.833,32.1667 302.833,32.1667 301.5,31.5 Z"/></g>
<g><path style="opacity:0.008" fill="#fefffe" d="M 353.5,31.5 C 354.833,32.1667 354.833,32.1667 353.5,31.5 Z"/></g>
<g><path style="opacity:0.008" fill="#fefffe" d="M 299.5,32.5 C 300.833,33.1667 300.833,33.1667 299.5,32.5 Z"/></g>
<g><path style="opacity:0.008" fill="#fefffe" d="M 355.5,32.5 C 356.833,33.1667 356.833,33.1667 355.5,32.5 Z"/></g>
<g><path style="opacity:0.008" fill="#fefffe" d="M 358.5,34.5 C 357.833,33.1667 357.833,33.1667 358.5,34.5 Z"/></g>
<g><path style="opacity:0.008" fill="#fefffe" d="M 136.5,35.5 C 136.897,34.475 137.563,34.3083 138.5,35C 137.906,35.4643 137.239,35.631 136.5,35.5 Z"/></g>
<g><path style="opacity:0.012" fill="#fefffe" d="M 158.5,35.5 C 158.897,34.475 159.563,34.3083 160.5,35C 159.906,35.4643 159.239,35.631 158.5,35.5 Z"/></g>
<g><path style="opacity:0.016" fill="#fefffe" d="M 358.5,34.5 C 359.833,35.1667 359.833,35.1667 358.5,34.5 Z"/></g>
<g><path style="opacity:0.008" fill="#fefffe" d="M 135.5,36.5 C 134.833,35.1667 134.833,35.1667 135.5,36.5 Z"/></g>
<g><path style="opacity:0.871" fill="#fefffe" d="M 166.5,41.5 C 167.478,73.8021 167.812,106.135 167.5,138.5C 166.662,138.842 166.328,139.508 166.5,140.5C 164.5,141.833 162.833,143.5 161.5,145.5C 152.04,147.128 142.707,146.795 133.5,144.5C 132.136,142.809 130.803,141.142 129.5,139.5C 128.522,108.198 128.189,76.8647 128.5,45.5C 129.404,44.791 129.737,43.791 129.5,42.5C 131.167,40.1667 133.167,38.1667 135.5,36.5C 142.805,35.4833 150.139,35.3167 157.5,36C 161.157,36.8371 164.157,38.6704 166.5,41.5 Z M 154.5,47.5 C 155.498,76.3285 155.831,105.329 155.5,134.5C 150.489,134.666 145.489,134.499 140.5,134C 141.833,105.667 141.833,77.3333 140.5,49C 145.351,48.8255 150.018,48.3255 154.5,47.5 Z"/></g>
<g><path style="opacity:0.008" fill="#fefffe" d="M 161.5,35.5 C 162.833,36.1667 162.833,36.1667 161.5,35.5 Z"/></g>
<g><path style="opacity:0.008" fill="#fefffe" d="M 361.5,36.5 C 360.833,35.1667 360.833,35.1667 361.5,36.5 Z"/></g>
<g><path style="opacity:0.016" fill="#fefffe" d="M 361.5,36.5 C 362.833,37.1667 362.833,37.1667 361.5,36.5 Z"/></g>
<g><path style="opacity:0.008" fill="#fefffe" d="M 291.5,37.5 C 292.833,38.1667 292.833,38.1667 291.5,37.5 Z"/></g>
<g><path style="opacity:0.008" fill="#fefffe" d="M 363.5,37.5 C 364.833,38.1667 364.833,38.1667 363.5,37.5 Z"/></g>
<g><path style="opacity:0.008" fill="#fefffe" d="M 166.5,40.5 C 167.833,41.1667 167.833,41.1667 166.5,40.5 Z"/></g>
<g><path style="opacity:0.008" fill="#fefffe" d="M 366.5,40.5 C 367.833,41.1667 367.833,41.1667 366.5,40.5 Z"/></g>
<g><path style="opacity:0.008" fill="#fefffe" d="M 129.5,42.5 C 128.833,41.1667 128.833,41.1667 129.5,42.5 Z"/></g>
<g><path style="opacity:0.008" fill="#fefffe" d="M 286.5,41.5 C 287.833,42.1667 287.833,42.1667 286.5,41.5 Z"/></g>
<g><path style="opacity:0.008" fill="#fefffe" d="M 167.5,42.5 C 168.833,43.1667 168.833,43.1667 167.5,42.5 Z"/></g>
<g><path style="opacity:0.008" fill="#fefffe" d="M 286.5,42.5 C 285.833,43.1667 285.833,43.1667 286.5,42.5 Z"/></g>
<g><path style="opacity:0.008" fill="#fefffe" d="M 128.5,45.5 C 127.475,45.1034 127.308,44.4368 128,43.5C 128.464,44.0944 128.631,44.7611 128.5,45.5 Z"/></g>
<g><path style="opacity:0.008" fill="#fefffe" d="M 285.5,43.5 C 285.5,43.8333 285.5,44.1667 285.5,44.5C 284.83,44.0187 284.83,43.6853 285.5,43.5 Z"/></g>
<g><path style="opacity:0.008" fill="#fefffe" d="M 284.5,44.5 C 283.833,45.1667 283.833,45.1667 284.5,44.5 Z"/></g>
<g><path style="opacity:0.008" fill="#fefffe" d="M 168.5,45.5 C 169.664,75.9973 169.831,106.664 169,137.5C 168.5,106.835 168.333,76.1685 168.5,45.5 Z"/></g>
<g><path style="opacity:0.008" fill="#fefffe" d="M 283.5,45.5 C 282.833,46.1667 282.833,46.1667 283.5,45.5 Z"/></g>
<g><path style="opacity:0.894" fill="#fefffe" d="M 340.5,56.5 C 340.842,57.3382 341.508,57.6716 342.5,57.5C 342.842,58.3382 343.508,58.6716 344.5,58.5C 344.5,59.1667 344.833,59.5 345.5,59.5C 346.167,60.8333 347.167,61.8333 348.5,62.5C 348.5,64.1667 348.5,65.8333 348.5,67.5C 347.167,68.1667 346.167,69.1667 345.5,70.5C 344.508,70.3284 343.842,70.6618 343.5,71.5C 342.833,71.5 342.167,71.5 341.5,71.5C 340.486,70.3263 339.153,69.6596 337.5,69.5C 333.746,66.8892 329.746,66.2225 325.5,67.5C 324.209,67.2627 323.209,67.596 322.5,68.5C 321.833,68.5 321.5,68.8333 321.5,69.5C 318.833,72.1667 318.833,74.8333 321.5,77.5C 321.5,78.1667 321.833,78.5 322.5,78.5C 322.611,79.1174 322.944,79.6174 323.5,80C 327.145,80.7189 330.812,81.2189 334.5,81.5C 335.209,82.404 336.209,82.7373 337.5,82.5C 337.842,83.3382 338.508,83.6716 339.5,83.5C 339.5,84.1667 339.833,84.5 340.5,84.5C 341.833,86.5 343.5,88.1667 345.5,89.5C 345.5,90.1667 345.833,90.5 346.5,90.5C 346.328,91.4916 346.662,92.1583 347.5,92.5C 347.263,93.791 347.596,94.791 348.5,95.5C 348.605,99.5483 348.272,103.548 347.5,107.5C 346.662,107.842 346.328,108.508 346.5,109.5C 345.094,109.973 344.427,110.973 344.5,112.5C 343.167,113.167 342.167,114.167 341.5,115.5C 340.508,115.328 339.842,115.662 339.5,116.5C 337.847,116.66 336.514,117.326 335.5,118.5C 334.761,118.369 334.094,118.536 333.5,119C 334.392,122.405 333.392,125.238 330.5,127.5C 328.833,127.5 327.167,127.5 325.5,127.5C 322.835,125.165 321.502,122.165 321.5,118.5C 320.5,118.5 319.5,118.5 318.5,118.5C 317.22,117.069 315.553,116.402 313.5,116.5C 313.158,115.662 312.492,115.328 311.5,115.5C 311.5,114.833 311.167,114.5 310.5,114.5C 309.833,113.167 308.833,112.167 307.5,111.5C 306.869,104.455 309.869,101.788 316.5,103.5C 316.842,104.338 317.508,104.672 318.5,104.5C 321.133,106.25 324.133,107.25 327.5,107.5C 330.36,107.445 332.693,106.445 334.5,104.5C 335.338,104.158 335.672,103.492 335.5,102.5C 336.613,101.054 336.78,99.3869 336,97.5C 335.578,95.5743 334.411,94.5743 332.5,94.5C 329.124,92.9177 325.458,92.2511 321.5,92.5C 317.34,90.5795 313.673,87.9129 310.5,84.5C 310.672,83.5084 310.338,82.8417 309.5,82.5C 307.348,77.2843 307.015,71.951 308.5,66.5C 309.338,66.1583 309.672,65.4916 309.5,64.5C 310.338,64.1583 310.672,63.4916 310.5,62.5C 312.167,61.5 313.5,60.1667 314.5,58.5C 316.027,58.573 317.027,57.9063 317.5,56.5C 318.492,56.6716 319.158,56.3382 319.5,55.5C 322.276,55.9111 322.943,55.0777 321.5,53C 322.077,51.0999 322.744,49.2666 323.5,47.5C 330.765,45.0895 334.432,47.7562 334.5,55.5C 336.5,55.8333 338.5,56.1667 340.5,56.5 Z"/></g>
<g><path style="opacity:0.008" fill="#fefffe" d="M 153.5,49.5 C 154.498,77.3284 154.831,105.328 154.5,133.5C 150.486,133.666 146.486,133.499 142.5,133C 146.152,132.501 149.818,132.335 153.5,132.5C 153.5,104.833 153.5,77.1667 153.5,49.5 Z"/></g>
<g><path style="opacity:0.008" fill="#fefffe" d="M 376.5,50.5 C 375.833,49.1667 375.833,49.1667 376.5,50.5 Z"/></g>
<g><path style="opacity:0.008" fill="#fefffe" d="M 376.5,50.5 C 377.833,51.1667 377.833,51.1667 376.5,50.5 Z"/></g>
<g><path style="opacity:0.016" fill="#fefffe" d="M 378.5,53.5 C 377.833,52.1667 377.833,52.1667 378.5,53.5 Z"/></g>
<g><path style="opacity:0.008" fill="#fefffe" d="M 378.5,53.5 C 379.833,54.1667 379.833,54.1667 378.5,53.5 Z"/></g>
<g><path style="opacity:0.008" fill="#fefffe" d="M 276.5,56.5 C 275.833,55.1667 275.833,55.1667 276.5,56.5 Z"/></g>
<g><path style="opacity:0.016" fill="#fefffe" d="M 379.5,55.5 C 380.833,56.1667 380.833,56.1667 379.5,55.5 Z"/></g>
<g><path style="opacity:0.008" fill="#fefffe" d="M 275.5,56.5 C 274.833,57.1667 274.833,57.1667 275.5,56.5 Z"/></g>
<g><path style="opacity:0.008" fill="#fefffe" d="M 273.5,58.5 C 274.833,59.1667 274.833,59.1667 273.5,58.5 Z"/></g>
<g><path style="opacity:0.008" fill="#fefffe" d="M 382.5,60.5 C 382.167,60.5 381.833,60.5 381.5,60.5C 381.833,57.8333 382.167,57.8333 382.5,60.5 Z"/></g>
<g><path style="opacity:0.008" fill="#fefffe" d="M 272.5,60.5 C 273.833,61.1667 273.833,61.1667 272.5,60.5 Z"/></g>
<g><path style="opacity:0.008" fill="#fefffe" d="M 382.5,60.5 C 383.833,61.1667 383.833,61.1667 382.5,60.5 Z"/></g>
<g><path style="opacity:0.008" fill="#fefffe" d="M 85.5,61.5 C 86.8333,62.1667 86.8333,62.1667 85.5,61.5 Z"/></g>
<g><path style="opacity:0.008" fill="#fefffe" d="M 110.5,62.5 C 109.761,62.631 109.094,62.4643 108.5,62C 109.437,61.3083 110.103,61.475 110.5,62.5 Z"/></g>
<g><path style="opacity:0.008" fill="#fefffe" d="M 84.5,63.5 C 83.8333,62.1667 83.8333,62.1667 84.5,63.5 Z"/></g>
<g><path style="opacity:0.878" fill="#fefffe" d="M 110.5,63.5 C 111.436,64.9744 112.77,65.9744 114.5,66.5C 115.606,69.054 116.439,71.7206 117,74.5C 117.667,94.5 117.667,114.5 117,134.5C 116.439,137.279 115.606,139.946 114.5,142.5C 113.833,142.5 113.5,142.833 113.5,143.5C 112.833,143.5 112.5,143.833 112.5,144.5C 111.508,144.328 110.842,144.662 110.5,145.5C 109.508,145.328 108.842,145.662 108.5,146.5C 101.167,146.5 93.8333,146.5 86.5,146.5C 85.4863,145.326 84.153,144.66 82.5,144.5C 81.4884,143.128 80.4884,141.795 79.5,140.5C 78.1667,116.5 78.1667,92.5 79.5,68.5C 80.9301,66.614 82.5968,64.9473 84.5,63.5C 93.1667,62.1667 101.833,62.1667 110.5,63.5 Z M 90.5,74.5 C 95.1667,74.5 99.8333,74.5 104.5,74.5C 104.5,94.5 104.5,114.5 104.5,134.5C 99.8333,134.5 95.1667,134.5 90.5,134.5C 90.5,114.5 90.5,94.5 90.5,74.5 Z"/></g>
<g><path style="opacity:0.008" fill="#fefffe" d="M 110.5,62.5 C 111.833,63.1667 111.833,63.1667 110.5,62.5 Z"/></g>
<g><path style="opacity:0.008" fill="#fefffe" d="M 271.5,62.5 C 272.833,63.1667 272.833,63.1667 271.5,62.5 Z"/></g>
<g><path style="opacity:0.008" fill="#fefffe" d="M 383.5,64.5 C 383.369,63.7611 383.536,63.0944 384,62.5C 384.692,63.4368 384.525,64.1034 383.5,64.5 Z"/></g>
<g><path style="opacity:0.008" fill="#fefffe" d="M 112.5,63.5 C 113.833,64.1667 113.833,64.1667 112.5,63.5 Z"/></g>
<g><path style="opacity:0.008" fill="#fefffe" d="M 271.5,66.5 C 270.475,66.1034 270.308,65.4368 271,64.5C 271.464,65.0944 271.631,65.7611 271.5,66.5 Z"/></g>
<g><path style="opacity:0.008" fill="#fefffe" d="M 114.5,65.5 C 115.833,66.1667 115.833,66.1667 114.5,65.5 Z"/></g>
<g><path style="opacity:0.008" fill="#fefffe" d="M 384.5,65.5 C 385.833,66.1667 385.833,66.1667 384.5,65.5 Z"/></g>
<g><path style="opacity:0.008" fill="#fefffe" d="M 79.5,68.5 C 78.8333,67.1667 78.8333,67.1667 79.5,68.5 Z"/></g>
<g><path style="opacity:0.008" fill="#fefffe" d="M 270.5,69.5 C 269.475,69.1034 269.308,68.4368 270,67.5C 270.464,68.0944 270.631,68.7611 270.5,69.5 Z"/></g>
<g><path style="opacity:0.008" fill="#fefffe" d="M 385.5,67.5 C 386.525,67.8966 386.692,68.5632 386,69.5C 385.536,68.9056 385.369,68.2389 385.5,67.5 Z"/></g>
<g><path style="opacity:0.008" fill="#fefffe" d="M 78.5,68.5 C 77.8333,69.1667 77.8333,69.1667 78.5,68.5 Z"/></g>
<g><path style="opacity:0.008" fill="#fefffe" d="M 116.5,68.5 C 117.833,69.1667 117.833,69.1667 116.5,68.5 Z"/></g>
<g><path style="opacity:0.01" fill="#fefffe" d="M 117.5,70.5 C 118.573,71.2506 118.74,72.2506 118,73.5C 117.517,72.552 117.351,71.552 117.5,70.5 Z"/></g>
<g><path style="opacity:0.008" fill="#fefffe" d="M 268.5,70.5 C 269.525,70.8966 269.692,71.5632 269,72.5C 268.536,71.9056 268.369,71.2389 268.5,70.5 Z"/></g>
<g><path style="opacity:0.012" fill="#fefffe" d="M 76.5,71.5 C 77.525,71.8966 77.6917,72.5632 77,73.5C 76.5357,72.9056 76.369,72.2389 76.5,71.5 Z"/></g>
<g><path style="opacity:0.008" fill="#fefffe" d="M 386.5,73.5 C 386.369,72.7611 386.536,72.0944 387,71.5C 387.692,72.4368 387.525,73.1034 386.5,73.5 Z"/></g>
<g><path style="opacity:0.01" fill="#fefffe" d="M 267.5,74.5 C 268.573,75.2506 268.74,76.2506 268,77.5C 267.517,76.552 267.351,75.552 267.5,74.5 Z"/></g>
<g><path style="opacity:0.008" fill="#fefffe" d="M 91.5,75.5 C 92.497,94.326 92.8303,113.326 92.5,132.5C 96.1817,132.335 99.8484,132.501 103.5,133C 99.5138,133.499 95.5138,133.666 91.5,133.5C 91.5,114.167 91.5,94.8333 91.5,75.5 Z"/></g>
<g><path style="opacity:0.01" fill="#fefffe" d="M 387.5,75.5 C 388.573,76.2506 388.74,77.2506 388,78.5C 387.517,77.552 387.351,76.552 387.5,75.5 Z"/></g>
<g><path style="opacity:0.008" fill="#fefffe" d="M 266.5,80.5 C 267.643,83.9758 267.81,87.6425 267,91.5C 266.501,87.8484 266.335,84.1817 266.5,80.5 Z"/></g>
<g><path style="opacity:0.008" fill="#fefffe" d="M 388.5,82.5 C 389.638,85.3035 389.805,88.3035 389,91.5C 388.502,88.5184 388.335,85.5184 388.5,82.5 Z"/></g>
<g><path style="opacity:0.008" fill="#fefffe" d="M 37.5,88.5 C 43.987,87.346 50.6536,87.1794 57.5,88C 50.8417,88.4996 44.175,88.6663 37.5,88.5 Z"/></g>
<g><path style="opacity:0.008" fill="#fefffe" d="M 33.5,89.5 C 33.8966,88.475 34.5632,88.3083 35.5,89C 34.9056,89.4643 34.2389,89.631 33.5,89.5 Z"/></g>
<g><path style="opacity:0.008" fill="#fefffe" d="M 58.5,88.5 C 59.8333,89.1667 59.8333,89.1667 58.5,88.5 Z"/></g>
<g><path style="opacity:0.9" fill="#fefffe" d="M 64.5,94.5 C 64.6596,96.153 65.3263,97.4863 66.5,98.5C 66.5,111.5 66.5,124.5 66.5,137.5C 65.3263,138.514 64.6596,139.847 64.5,141.5C 63.8333,141.5 63.5,141.833 63.5,142.5C 62.8333,142.5 62.5,142.833 62.5,143.5C 61.8333,143.5 61.5,143.833 61.5,144.5C 60.8333,144.5 60.5,144.833 60.5,145.5C 51.5,146.833 42.5,146.833 33.5,145.5C 32.1667,143.5 30.5,141.833 28.5,140.5C 27.0012,125.464 27.1679,110.464 29,95.5C 33.7487,90.1044 39.7487,88.1044 47,89.5C 53.7753,88.4033 59.6086,90.07 64.5,94.5 Z M 39.5,101.5 C 44.5,101.5 49.5,101.5 54.5,101.5C 54.5,112.5 54.5,123.5 54.5,134.5C 49.5,134.5 44.5,134.5 39.5,134.5C 39.5,123.5 39.5,112.5 39.5,101.5 Z"/></g>
<g><path style="opacity:0.008" fill="#fefffe" d="M 65.5,94.5 C 64.8333,93.1667 64.8333,93.1667 65.5,94.5 Z"/></g>
<g><path style="opacity:0.008" fill="#fefffe" d="M 65.5,94.5 C 66.8333,95.1667 66.8333,95.1667 65.5,94.5 Z"/></g>
<g><path style="opacity:0.01" fill="#fefffe" d="M 267.5,95.5 C 268.573,96.2506 268.74,97.2506 268,98.5C 267.517,97.552 267.351,96.552 267.5,95.5 Z"/></g>
<g><path style="opacity:0.01" fill="#fefffe" d="M 387.5,95.5 C 388.573,96.2506 388.74,97.2506 388,98.5C 387.517,97.552 387.351,96.552 387.5,95.5 Z"/></g>
<g><path style="opacity:0.008" fill="#fefffe" d="M 26.5,96.5 C 27.8333,97.1667 27.8333,97.1667 26.5,96.5 Z"/></g>
<g><path style="opacity:0.008" fill="#fefffe" d="M 66.5,98.5 C 66.369,97.7611 66.5357,97.0944 67,96.5C 67.6917,97.4368 67.525,98.1034 66.5,98.5 Z"/></g>
<g><path style="opacity:0.008" fill="#fefffe" d="M 25.5,99.5 C 26.6599,111.66 26.8265,123.993 26,136.5C 25.5001,124.171 25.3335,111.838 25.5,99.5 Z"/></g>
<g><path style="opacity:0.008" fill="#fefffe" d="M 67.5,100.5 C 68.6595,111.993 68.8261,123.659 68,135.5C 67.5001,123.838 67.3335,112.171 67.5,100.5 Z"/></g>
<g><path style="opacity:0.012" fill="#fefffe" d="M 269.5,100.5 C 269.631,101.239 269.464,101.906 269,102.5C 268.308,101.563 268.475,100.897 269.5,100.5 Z"/></g>
<g><path style="opacity:0.008" fill="#fefffe" d="M 386.5,100.5 C 387.525,100.897 387.692,101.563 387,102.5C 386.536,101.906 386.369,101.239 386.5,100.5 Z"/></g>
<g><path style="opacity:0.013" fill="#fefffe" d="M 40.5,102.5 C 44.8461,102.334 49.1794,102.501 53.5,103C 49.5138,103.499 45.5138,103.666 41.5,103.5C 41.5,113.167 41.5,122.833 41.5,132.5C 45.5138,132.334 49.5138,132.501 53.5,133C 49.1794,133.499 44.8461,133.666 40.5,133.5C 40.5,123.167 40.5,112.833 40.5,102.5 Z"/></g>
<g><path style="opacity:0.008" fill="#fefffe" d="M 269.5,104.5 C 270.525,104.897 270.692,105.563 270,106.5C 269.536,105.906 269.369,105.239 269.5,104.5 Z"/></g>
<g><path style="opacity:0.012" fill="#fefffe" d="M 385.5,104.5 C 386.525,104.897 386.692,105.563 386,106.5C 385.536,105.906 385.369,105.239 385.5,104.5 Z"/></g>
<g><path style="opacity:0.008" fill="#fefffe" d="M 270.5,107.5 C 271.833,108.167 271.833,108.167 270.5,107.5 Z"/></g>
<g><path style="opacity:0.008" fill="#fefffe" d="M 384.5,107.5 C 385.833,108.167 385.833,108.167 384.5,107.5 Z"/></g>
<g><path style="opacity:0.008" fill="#fefffe" d="M 272.5,109.5 C 272.631,110.239 272.464,110.906 272,111.5C 271.308,110.563 271.475,109.897 272.5,109.5 Z"/></g>
<g><path style="opacity:0.008" fill="#fefffe" d="M 383.5,109.5 C 384.833,110.167 384.833,110.833 383.5,111.5C 383.5,110.833 383.5,110.167 383.5,109.5 Z"/></g>
<g><path style="opacity:0.008" fill="#fefffe" d="M 382.5,111.5 C 382.833,111.5 383.167,111.5 383.5,111.5C 383.672,112.492 383.338,113.158 382.5,113.5C 382.5,112.833 382.5,112.167 382.5,111.5 Z"/></g>
<g><path style="opacity:0.008" fill="#fefffe" d="M 272.5,112.5 C 273.833,113.167 273.833,113.167 272.5,112.5 Z"/></g>
<g><path style="opacity:0.008" fill="#fefffe" d="M 381.5,113.5 C 381.833,113.5 382.167,113.5 382.5,113.5C 382.672,114.492 382.338,115.158 381.5,115.5C 381.5,114.833 381.5,114.167 381.5,113.5 Z"/></g>
<g><path style="opacity:0.008" fill="#fefffe" d="M 273.5,114.5 C 274.833,115.167 274.833,115.167 273.5,114.5 Z"/></g>
<g><path style="opacity:0.008" fill="#fefffe" d="M 380.5,115.5 C 380.833,115.5 381.167,115.5 381.5,115.5C 381.315,116.17 380.981,116.17 380.5,115.5 Z"/></g>
<g><path style="opacity:0.008" fill="#fefffe" d="M 276.5,117.5 C 275.833,118.167 275.833,118.167 276.5,117.5 Z"/></g>
<g><path style="opacity:0.016" fill="#fefffe" d="M 379.5,117.5 C 380.833,118.167 380.833,118.167 379.5,117.5 Z"/></g>
<g><path style="opacity:0.008" fill="#fefffe" d="M 378.5,119.5 C 379.833,120.167 379.833,120.167 378.5,119.5 Z"/></g>
<g><path style="opacity:0.008" fill="#fefffe" d="M 278.5,120.5 C 277.833,121.167 277.833,121.167 278.5,120.5 Z"/></g>
<g><path style="opacity:0.016" fill="#fefffe" d="M 377.5,120.5 C 377.833,120.5 378.167,120.5 378.5,120.5C 378.315,121.17 377.981,121.17 377.5,120.5 Z"/></g>
<g><path style="opacity:0.008" fill="#fefffe" d="M 278.5,122.5 C 279.833,123.167 279.833,123.167 278.5,122.5 Z"/></g>
<g><path style="opacity:0.01" fill="#fefffe" d="M 207.5,124.5 C 208.601,123.402 209.934,123.235 211.5,124C 210.207,124.49 208.873,124.657 207.5,124.5 Z"/></g>
<g><path style="opacity:0.01" fill="#fefffe" d="M 215.5,124.5 C 216.601,123.402 217.934,123.235 219.5,124C 218.207,124.49 216.873,124.657 215.5,124.5 Z"/></g>
<g><path style="opacity:0.008" fill="#fefffe" d="M 375.5,123.5 C 376.833,124.167 376.833,124.167 375.5,123.5 Z"/></g>
<g><path style="opacity:0.012" fill="#fefffe" d="M 203.5,125.5 C 203.897,124.475 204.563,124.308 205.5,125C 204.906,125.464 204.239,125.631 203.5,125.5 Z"/></g>
<g><path style="opacity:0.012" fill="#fefffe" d="M 220.5,125.5 C 220.897,124.475 221.563,124.308 222.5,125C 221.906,125.464 221.239,125.631 220.5,125.5 Z"/></g>
<g><path style="opacity:0.016" fill="#fefffe" d="M 374.5,124.5 C 374.833,124.5 375.167,124.5 375.5,124.5C 375.315,125.17 374.981,125.17 374.5,124.5 Z"/></g>
<g><path style="opacity:0.008" fill="#fefffe" d="M 201.5,125.5 C 202.833,126.167 202.833,126.167 201.5,125.5 Z"/></g>
<g><path style="opacity:0.912" fill="#fffefe" d="M 220.5,125.5 C 222.214,126.738 224.214,127.405 226.5,127.5C 227.29,128.401 228.29,129.068 229.5,129.5C 232.141,131.804 234.808,134.138 237.5,136.5C 237.427,138.027 238.094,139.027 239.5,139.5C 239.328,140.492 239.662,141.158 240.5,141.5C 240.328,142.492 240.662,143.158 241.5,143.5C 242.293,147.466 242.96,151.466 243.5,155.5C 242.989,159.207 242.322,162.874 241.5,166.5C 240.662,166.842 240.328,167.508 240.5,168.5C 239.662,168.842 239.328,169.508 239.5,170.5C 238.094,170.973 237.427,171.973 237.5,173.5C 236.833,173.5 236.5,173.833 236.5,174.5C 235.167,174.833 235.167,175.167 236.5,175.5C 234.852,177.872 235.519,179.206 238.5,179.5C 239.436,180.974 240.77,181.974 242.5,182.5C 242.973,183.906 243.973,184.573 245.5,184.5C 246.833,186.5 248.5,188.167 250.5,189.5C 250.427,191.027 251.094,192.027 252.5,192.5C 275.327,193.498 298.327,193.831 321.5,193.5C 321.333,182.162 321.5,170.828 322,159.5C 322.997,157.677 324.164,156.01 325.5,154.5C 327.167,154.5 328.833,154.5 330.5,154.5C 331.864,156.191 333.197,157.858 334.5,159.5C 334.5,173.167 334.5,186.833 334.5,200.5C 333.662,200.842 333.328,201.508 333.5,202.5C 332.833,202.5 332.5,202.833 332.5,203.5C 331.833,203.5 331.5,203.833 331.5,204.5C 330.508,204.328 329.842,204.662 329.5,205.5C 305.831,205.333 282.164,205.5 258.5,206C 259.834,208.66 260.668,211.494 261,214.5C 261.5,225.161 261.667,235.828 261.5,246.5C 260.326,247.514 259.66,248.847 259.5,250.5C 258.833,250.5 258.5,250.833 258.5,251.5C 257.5,251.833 256.833,252.5 256.5,253.5C 255.833,253.5 255.5,253.833 255.5,254.5C 254.508,254.328 253.842,254.662 253.5,255.5C 227.532,256.473 201.532,256.806 175.5,256.5C 174.486,255.326 173.153,254.66 171.5,254.5C 170.167,252.5 168.5,250.833 166.5,249.5C 165.56,237.204 165.227,224.871 165.5,212.5C 166.612,210.401 167.279,208.067 167.5,205.5C 143.833,205.5 120.167,205.5 96.5,205.5C 94.8564,204.684 93.6897,203.35 93,201.5C 92.3333,187.167 92.3333,172.833 93,158.5C 95.7409,154.108 99.2409,153.442 103.5,156.5C 103.328,157.492 103.662,158.158 104.5,158.5C 104.5,170.167 104.5,181.833 104.5,193.5C 127.836,193.667 151.169,193.5 174.5,193C 179.114,186.547 184.78,181.381 191.5,177.5C 193.55,176.678 193.217,175.678 190.5,174.5C 189.488,173.128 188.488,171.795 187.5,170.5C 187.008,168.181 186.008,166.181 184.5,164.5C 183.167,158.167 183.167,151.833 184.5,145.5C 186.008,143.819 187.008,141.819 187.5,139.5C 190.833,135.5 194.5,131.833 198.5,128.5C 199.492,128.672 200.158,128.338 200.5,127.5C 207.033,125.794 213.699,125.128 220.5,125.5 Z M 224.5,141.5 C 224.062,141.435 223.728,141.601 223.5,142C 224.333,142.833 225.167,143.667 226,144.5C 226.399,144.272 226.565,143.938 226.5,143.5C 227.906,143.973 228.573,144.973 228.5,146.5C 232.342,152.186 232.342,157.853 228.5,163.5C 228.631,162.761 228.464,162.094 228,161.5C 227.117,164.102 225.617,166.269 223.5,168C 223.728,168.399 224.062,168.565 224.5,168.5C 224.158,169.338 223.492,169.672 222.5,169.5C 222.565,169.062 222.399,168.728 222,168.5C 219.335,169.474 219.169,170.141 221.5,170.5C 219.152,171.952 216.486,172.618 213.5,172.5C 211.631,172.493 209.964,172.16 208.5,171.5C 207.209,171.737 206.209,171.404 205.5,170.5C 206.239,170.631 206.906,170.464 207.5,170C 204.438,168.939 201.938,167.106 200,164.5C 199.601,164.728 199.435,165.062 199.5,165.5C 198.662,165.158 198.328,164.492 198.5,163.5C 197.662,163.158 197.328,162.492 197.5,161.5C 194.833,157.167 194.833,152.833 197.5,148.5C 197.229,146.62 197.896,145.287 199.5,144.5C 199.435,144.938 199.601,145.272 200,145.5C 201.543,143.622 203.376,142.122 205.5,141C 204.906,140.536 204.239,140.369 203.5,140.5C 209.134,137.172 215.134,136.672 221.5,139C 222.942,139.377 223.942,140.21 224.5,141.5 Z M 242.5,182.5 C 244.027,182.427 245.027,183.094 245.5,184.5C 243.973,184.573 242.973,183.906 242.5,182.5 Z"/></g>
<g><path style="opacity:0.008" fill="#fefffe" d="M 224.5,125.5 C 225.833,126.167 225.833,126.167 224.5,125.5 Z"/></g>
<g><path style="opacity:0.008" fill="#fefffe" d="M 282.5,125.5 C 281.833,126.167 281.833,126.167 282.5,125.5 Z"/></g>
<g><path style="opacity:0.016" fill="#fefffe" d="M 373.5,125.5 C 373.833,125.5 374.167,125.5 374.5,125.5C 374.315,126.17 373.981,126.17 373.5,125.5 Z"/></g>
<g><path style="opacity:0.008" fill="#fefffe" d="M 200.5,127.5 C 199.833,126.167 199.833,126.167 200.5,127.5 Z"/></g>
<g><path style="opacity:0.008" fill="#fefffe" d="M 226.5,126.5 C 227.833,127.167 227.833,127.167 226.5,126.5 Z"/></g>
<g><path style="opacity:0.008" fill="#fefffe" d="M 372.5,126.5 C 372.833,126.5 373.167,126.5 373.5,126.5C 373.315,127.17 372.981,127.17 372.5,126.5 Z"/></g>
<g><path style="opacity:0.008" fill="#fefffe" d="M 198.5,128.5 C 197.833,127.167 197.833,127.167 198.5,128.5 Z"/></g>
<g><path style="opacity:0.008" fill="#fefffe" d="M 371.5,127.5 C 371.833,127.5 372.167,127.5 372.5,127.5C 372.315,128.17 371.981,128.17 371.5,127.5 Z"/></g>
<g><path style="opacity:0.008" fill="#fefffe" d="M 229.5,128.5 C 230.833,129.167 230.833,129.167 229.5,128.5 Z"/></g>
<g><path style="opacity:0.008" fill="#fefffe" d="M 231.5,129.5 C 232.833,130.167 232.833,130.167 231.5,129.5 Z"/></g>
<g><path style="opacity:0.008" fill="#fefffe" d="M 284.5,129.5 C 285.833,130.167 285.833,130.167 284.5,129.5 Z"/></g>
<g><path style="opacity:0.008" fill="#fefffe" d="M 368.5,130.5 C 369.833,131.167 369.833,131.167 368.5,130.5 Z"/></g>
<g><path style="opacity:0.008" fill="#fefffe" d="M 367.5,131.5 C 367.833,131.5 368.167,131.5 368.5,131.5C 368.315,132.17 367.981,132.17 367.5,131.5 Z"/></g>
<g><path style="opacity:0.016" fill="#fefffe" d="M 366.5,132.5 C 366.833,132.5 367.167,132.5 367.5,132.5C 367.315,133.17 366.981,133.17 366.5,132.5 Z"/></g>
<g><path style="opacity:0.016" fill="#fefffe" d="M 365.5,133.5 C 365.833,133.5 366.167,133.5 366.5,133.5C 366.315,134.17 365.981,134.17 365.5,133.5 Z"/></g>
<g><path style="opacity:0.01" fill="#fefffe" d="M 76.5,134.5 C 77.5735,135.251 77.7401,136.251 77,137.5C 76.5172,136.552 76.3505,135.552 76.5,134.5 Z"/></g>
<g><path style="opacity:0.008" fill="#fefffe" d="M 291.5,134.5 C 291.5,134.833 291.5,135.167 291.5,135.5C 290.83,135.019 290.83,134.685 291.5,134.5 Z"/></g>
<g><path style="opacity:0.008" fill="#fefffe" d="M 364.5,134.5 C 364.833,134.5 365.167,134.5 365.5,134.5C 365.315,135.17 364.981,135.17 364.5,134.5 Z"/></g>
<g><path style="opacity:0.008" fill="#fefffe" d="M 237.5,135.5 C 238.833,136.167 238.833,136.167 237.5,135.5 Z"/></g>
<g><path style="opacity:0.008" fill="#fefffe" d="M 291.5,135.5 C 292.833,136.167 292.833,136.167 291.5,135.5 Z"/></g>
<g><path style="opacity:0.008" fill="#fefffe" d="M 362.5,136.5 C 362.5,136.167 362.5,135.833 362.5,135.5C 363.167,135.5 363.833,135.5 364.5,135.5C 364.158,136.338 363.492,136.672 362.5,136.5 Z"/></g>
<g><path style="opacity:0.012" fill="#fefffe" d="M 117.5,136.5 C 118.525,136.897 118.692,137.563 118,138.5C 117.536,137.906 117.369,137.239 117.5,136.5 Z"/></g>
<g><path style="opacity:0.008" fill="#fefffe" d="M 294.5,136.5 C 294.5,136.833 294.5,137.167 294.5,137.5C 293.83,137.019 293.83,136.685 294.5,136.5 Z"/></g>
<g><path style="opacity:0.008" fill="#fefffe" d="M 361.5,136.5 C 361.833,136.5 362.167,136.5 362.5,136.5C 362.315,137.17 361.981,137.17 361.5,136.5 Z"/></g>
<g><path style="opacity:0.008" fill="#fefffe" d="M 66.5,137.5 C 67.525,137.897 67.6917,138.563 67,139.5C 66.5357,138.906 66.369,138.239 66.5,137.5 Z"/></g>
<g><path style="opacity:0.016" fill="#fefffe" d="M 127.5,137.5 C 128.833,138.167 128.833,138.167 127.5,137.5 Z"/></g>
<g><path style="opacity:0.008" fill="#fefffe" d="M 294.5,137.5 C 295.833,138.167 295.833,138.167 294.5,137.5 Z"/></g>
<g><path style="opacity:0.008" fill="#fefffe" d="M 359.5,138.5 C 359.5,138.167 359.5,137.833 359.5,137.5C 360.167,137.5 360.833,137.5 361.5,137.5C 361.158,138.338 360.492,138.672 359.5,138.5 Z"/></g>
<g><path style="opacity:0.008" fill="#fefffe" d="M 26.5,138.5 C 27.8333,139.167 27.8333,139.167 26.5,138.5 Z"/></g>
<g><path style="opacity:0.008" fill="#fefffe" d="M 167.5,138.5 C 168.833,139.167 168.833,139.833 167.5,140.5C 167.5,139.833 167.5,139.167 167.5,138.5 Z"/></g>
<g><path style="opacity:0.008" fill="#fefffe" d="M 187.5,139.5 C 186.833,138.167 186.833,138.167 187.5,139.5 Z"/></g>
<g><path style="opacity:0.008" fill="#fefffe" d="M 239.5,138.5 C 240.833,139.167 240.833,139.167 239.5,138.5 Z"/></g>
<g><path style="opacity:0.008" fill="#fefffe" d="M 358.5,138.5 C 358.833,138.5 359.167,138.5 359.5,138.5C 359.315,139.17 358.981,139.17 358.5,138.5 Z"/></g>
<g><path style="opacity:0.008" fill="#fefffe" d="M 78.5,140.5 C 77.8333,139.167 77.8333,139.167 78.5,140.5 Z"/></g>
<g><path style="opacity:0.008" fill="#fefffe" d="M 116.5,139.5 C 117.833,140.167 117.833,140.167 116.5,139.5 Z"/></g>
<g><path style="opacity:0.008" fill="#fefffe" d="M 129.5,139.5 C 128.833,140.167 128.833,140.167 129.5,139.5 Z"/></g>
<g><path style="opacity:0.008" fill="#fefffe" d="M 186.5,139.5 C 185.833,140.167 185.833,140.167 186.5,139.5 Z"/></g>
<g><path style="opacity:0.008" fill="#fefffe" d="M 299.5,139.5 C 299.5,139.833 299.5,140.167 299.5,140.5C 296.833,140.167 296.833,139.833 299.5,139.5 Z"/></g>
<g><path style="opacity:0.008" fill="#fefffe" d="M 356.5,139.5 C 357.833,140.167 357.833,140.167 356.5,139.5 Z"/></g>
<g><path style="opacity:0.008" fill="#fefffe" d="M 28.5,140.5 C 27.8333,141.167 27.8333,141.167 28.5,140.5 Z"/></g>
<g><path style="opacity:0.008" fill="#fefffe" d="M 65.5,140.5 C 66.8333,141.167 66.8333,141.167 65.5,140.5 Z"/></g>
<g><path style="opacity:0.008" fill="#fefffe" d="M 78.5,140.5 C 78.8333,140.5 79.1667,140.5 79.5,140.5C 79.3147,141.17 78.9813,141.17 78.5,140.5 Z"/></g>
<g><path style="opacity:0.008" fill="#fefffe" d="M 166.5,140.5 C 166.833,140.5 167.167,140.5 167.5,140.5C 167.315,141.17 166.981,141.17 166.5,140.5 Z"/></g>
<g><path style="opacity:0.008" fill="#fefffe" d="M 240.5,140.5 C 241.833,141.167 241.833,141.167 240.5,140.5 Z"/></g>
<g><path style="opacity:0.008" fill="#fefffe" d="M 299.5,140.5 C 300.833,141.167 300.833,141.167 299.5,140.5 Z"/></g>
<g><path style="opacity:0.008" fill="#fefffe" d="M 354.5,140.5 C 355.833,141.167 355.833,141.167 354.5,140.5 Z"/></g>
<g><path style="opacity:0.008" fill="#fefffe" d="M 64.5,141.5 C 64.8333,141.5 65.1667,141.5 65.5,141.5C 65.3147,142.17 64.9813,142.17 64.5,141.5 Z"/></g>
<g><path style="opacity:0.008" fill="#fefffe" d="M 115.5,141.5 C 116.833,142.167 116.833,142.167 115.5,141.5 Z"/></g>
<g><path style="opacity:0.008" fill="#fefffe" d="M 184.5,141.5 C 185.833,142.167 185.833,142.167 184.5,141.5 Z"/></g>
<g><path style="opacity:0.008" fill="#fefffe" d="M 352.5,141.5 C 353.167,141.5 353.833,141.5 354.5,141.5C 353.833,142.833 353.167,142.833 352.5,141.5 Z"/></g>
<g><path style="opacity:0.008" fill="#fefffe" d="M 63.5,142.5 C 63.8333,142.5 64.1667,142.5 64.5,142.5C 64.3147,143.17 63.9813,143.17 63.5,142.5 Z"/></g>
<g><path style="opacity:0.008" fill="#fefffe" d="M 114.5,142.5 C 114.833,142.5 115.167,142.5 115.5,142.5C 115.315,143.17 114.981,143.17 114.5,142.5 Z"/></g>
<g><path style="opacity:0.008" fill="#fefffe" d="M 241.5,142.5 C 242.833,143.167 242.833,143.167 241.5,142.5 Z"/></g>
<g><path style="opacity:0.008" fill="#fefffe" d="M 305.5,142.5 C 305.103,143.525 304.437,143.692 303.5,143C 304.094,142.536 304.761,142.369 305.5,142.5 Z"/></g>
<g><path style="opacity:0.008" fill="#fefffe" d="M 350.5,142.5 C 351.833,143.167 351.833,143.167 350.5,142.5 Z"/></g>
<g><path style="opacity:0.008" fill="#fefffe" d="M 62.5,143.5 C 62.8333,143.5 63.1667,143.5 63.5,143.5C 63.3147,144.17 62.9813,144.17 62.5,143.5 Z"/></g>
<g><path style="opacity:0.008" fill="#fefffe" d="M 113.5,143.5 C 113.833,143.5 114.167,143.5 114.5,143.5C 114.315,144.17 113.981,144.17 113.5,143.5 Z"/></g>
<g><path style="opacity:0.008" fill="#fefffe" d="M 164.5,143.5 C 165.833,144.167 165.833,144.167 164.5,143.5 Z"/></g>
<g><path style="opacity:0.008" fill="#fefffe" d="M 184.5,145.5 C 183.475,145.103 183.308,144.437 184,143.5C 184.464,144.094 184.631,144.761 184.5,145.5 Z"/></g>
<g><path style="opacity:0.008" fill="#fefffe" d="M 306.5,143.5 C 307.833,144.167 307.833,144.167 306.5,143.5 Z"/></g>
<g><path style="opacity:0.008" fill="#fefffe" d="M 348.5,143.5 C 349.833,144.167 349.833,144.167 348.5,143.5 Z"/></g>
<g><path style="opacity:0.008" fill="#fefffe" d="M 61.5,144.5 C 61.8333,144.5 62.1667,144.5 62.5,144.5C 62.3147,145.17 61.9813,145.17 61.5,144.5 Z"/></g>
<g><path style="opacity:0.008" fill="#fefffe" d="M 82.5,144.5 C 81.8333,145.167 81.8333,145.167 82.5,144.5 Z"/></g>
<g><path style="opacity:0.008" fill="#fefffe" d="M 112.5,144.5 C 112.833,144.5 113.167,144.5 113.5,144.5C 113.315,145.17 112.981,145.17 112.5,144.5 Z"/></g>
<g><path style="opacity:0.008" fill="#fefffe" d="M 133.5,144.5 C 133.5,144.833 133.5,145.167 133.5,145.5C 132.83,145.019 132.83,144.685 133.5,144.5 Z"/></g>
<g><path style="opacity:0.008" fill="#fefffe" d="M 242.5,144.5 C 243.833,145.167 243.833,145.167 242.5,144.5 Z"/></g>
<g><path style="opacity:0.016" fill="#fefffe" d="M 309.5,144.5 C 310.833,145.167 310.833,145.167 309.5,144.5 Z"/></g>
<g><path style="opacity:0.016" fill="#fefffe" d="M 345.5,144.5 C 346.833,145.167 346.833,145.167 345.5,144.5 Z"/></g>
<g><path style="opacity:0.008" fill="#fefffe" d="M 33.5,145.5 C 33.5,145.833 33.5,146.167 33.5,146.5C 32.8299,146.019 32.8299,145.685 33.5,145.5 Z"/></g>
<g><path style="opacity:0.008" fill="#fefffe" d="M 60.5,145.5 C 60.8333,145.5 61.1667,145.5 61.5,145.5C 61.3147,146.17 60.9813,146.17 60.5,145.5 Z"/></g>
<g><path style="opacity:0.008" fill="#fefffe" d="M 110.5,145.5 C 111.833,146.167 111.833,146.167 110.5,145.5 Z"/></g>
<g><path style="opacity:0.008" fill="#fefffe" d="M 133.5,145.5 C 134.833,146.167 134.833,146.167 133.5,145.5 Z"/></g>
<g><path style="opacity:0.008" fill="#fefffe" d="M 161.5,145.5 C 162.833,146.167 162.833,146.167 161.5,145.5 Z"/></g>
<g><path style="opacity:0.008" fill="#fefffe" d="M 312.5,146.5 C 312.897,145.475 313.563,145.308 314.5,146C 313.906,146.464 313.239,146.631 312.5,146.5 Z"/></g>
<g><path style="opacity:0.01" fill="#fefffe" d="M 341.5,146.5 C 342.251,145.427 343.251,145.26 344.5,146C 343.552,146.483 342.552,146.649 341.5,146.5 Z"/></g>
<g><path style="opacity:0.008" fill="#fefffe" d="M 33.5,146.5 C 34.2389,146.369 34.9056,146.536 35.5,147C 34.5632,147.692 33.8966,147.525 33.5,146.5 Z"/></g>
<g><path style="opacity:0.008" fill="#fefffe" d="M 58.5,146.5 C 59.8333,147.167 59.8333,147.167 58.5,146.5 Z"/></g>
<g><path style="opacity:0.008" fill="#fefffe" d="M 86.5,146.5 C 86.1034,147.525 85.4368,147.692 84.5,147C 85.0944,146.536 85.7611,146.369 86.5,146.5 Z"/></g>
<g><path style="opacity:0.008" fill="#fefffe" d="M 108.5,146.5 C 109.167,146.5 109.833,146.5 110.5,146.5C 109.833,147.833 109.167,147.833 108.5,146.5 Z"/></g>
<g><path style="opacity:0.008" fill="#fefffe" d="M 135.5,146.5 C 136.833,147.167 136.833,147.167 135.5,146.5 Z"/></g>
<g><path style="opacity:0.008" fill="#fefffe" d="M 159.5,146.5 C 160.833,147.167 160.833,147.167 159.5,146.5 Z"/></g>
<g><path style="opacity:0.008" fill="#fefffe" d="M 182.5,146.5 C 183.525,146.897 183.692,147.563 183,148.5C 182.536,147.906 182.369,147.239 182.5,146.5 Z"/></g>
<g><path style="opacity:0.01" fill="#fefffe" d="M 315.5,147.5 C 316.601,146.402 317.934,146.235 319.5,147C 318.207,147.49 316.873,147.657 315.5,147.5 Z"/></g>
<g><path style="opacity:0.008" fill="#fefffe" d="M 335.5,147.5 C 336.251,146.427 337.251,146.26 338.5,147C 337.552,147.483 336.552,147.649 335.5,147.5 Z"/></g>
<g><path style="opacity:0.008" fill="#fefffe" d="M 37.5,148.5 C 43.987,147.346 50.6536,147.179 57.5,148C 50.8417,148.5 44.175,148.666 37.5,148.5 Z"/></g>
<g><path style="opacity:0.008" fill="#fefffe" d="M 87.5,148.5 C 93.987,147.346 100.654,147.179 107.5,148C 100.842,148.5 94.175,148.666 87.5,148.5 Z"/></g>
<g><path style="opacity:0.008" fill="#fefffe" d="M 138.5,148.5 C 144.653,147.347 150.986,147.18 157.5,148C 151.175,148.5 144.842,148.666 138.5,148.5 Z"/></g>
<g><path style="opacity:0.012" fill="#fefffe" d="M 243.5,147.5 C 244.525,147.897 244.692,148.563 244,149.5C 243.536,148.906 243.369,148.239 243.5,147.5 Z"/></g>
<g><path style="opacity:0.008" fill="#fefffe" d="M 323.5,148.5 C 326.64,147.359 329.973,147.192 333.5,148C 330.183,148.498 326.85,148.665 323.5,148.5 Z"/></g>
<g><path style="opacity:0.008" fill="#fefffe" d="M 181.5,151.5 C 182.629,153.628 182.796,155.961 182,158.5C 181.503,156.19 181.337,153.857 181.5,151.5 Z"/></g>
<g><path style="opacity:0.008" fill="#fefffe" d="M 96.5,153.5 C 97.2506,152.427 98.2506,152.26 99.5,153C 98.552,153.483 97.552,153.649 96.5,153.5 Z"/></g>
<g><path style="opacity:0.008" fill="#fefffe" d="M 325.5,153.5 C 326.601,152.402 327.934,152.235 329.5,153C 328.207,153.49 326.873,153.657 325.5,153.5 Z"/></g>
<g><path style="opacity:0.008" fill="#fefffe" d="M 94.5,153.5 C 95.8333,154.167 95.8333,154.167 94.5,153.5 Z"/></g>
<g><path style="opacity:0.008" fill="#fefffe" d="M 325.5,153.5 C 325.5,153.833 325.5,154.167 325.5,154.5C 324.83,154.019 324.83,153.685 325.5,153.5 Z"/></g>
<g><path style="opacity:0.008" fill="#fefffe" d="M 330.5,153.5 C 331.833,154.167 331.833,154.167 330.5,153.5 Z"/></g>
<g><path style="opacity:0.008" fill="#fefffe" d="M 244.5,154.5 C 245.525,154.897 245.692,155.563 245,156.5C 244.536,155.906 244.369,155.239 244.5,154.5 Z"/></g>
<g><path style="opacity:0.008" fill="#fefffe" d="M 103.5,155.5 C 104.833,156.167 104.833,156.167 103.5,155.5 Z"/></g>
<g><path style="opacity:0.008" fill="#fefffe" d="M 91.5,156.5 C 92.8333,157.167 92.8333,157.167 91.5,156.5 Z"/></g>
<g><path style="opacity:0.008" fill="#fefffe" d="M 104.5,157.5 C 105.833,158.167 105.833,158.167 104.5,157.5 Z"/></g>
<g><path style="opacity:0.008" fill="#fefffe" d="M 320.5,157.5 C 321.833,158.167 321.833,158.167 320.5,157.5 Z"/></g>
<g><path style="opacity:0.008" fill="#fefffe" d="M 334.5,159.5 C 334.369,158.761 334.536,158.094 335,157.5C 335.692,158.437 335.525,159.103 334.5,159.5 Z"/></g>
<g><path style="opacity:0.015" fill="#fefffe" d="M 90.5,158.5 C 91.6608,172.661 91.8275,186.994 91,201.5C 90.5001,187.171 90.3334,172.837 90.5,158.5 Z"/></g>
<g><path style="opacity:0.008" fill="#fefffe" d="M 105.5,159.5 C 106.659,170.326 106.826,181.326 106,192.5C 105.5,181.505 105.333,170.505 105.5,159.5 Z"/></g>
<g><path style="opacity:0.008" fill="#fefffe" d="M 243.5,160.5 C 244.525,160.897 244.692,161.563 244,162.5C 243.536,161.906 243.369,161.239 243.5,160.5 Z"/></g>
<g><path style="opacity:0.008" fill="#fefffe" d="M 182.5,161.5 C 183.525,161.897 183.692,162.563 183,163.5C 182.536,162.906 182.369,162.239 182.5,161.5 Z"/></g>
<g><path style="opacity:0.008" fill="#fefffe" d="M 184.5,164.5 C 184.631,165.239 184.464,165.906 184,166.5C 183.308,165.563 183.475,164.897 184.5,164.5 Z"/></g>
<g><path style="opacity:0.008" fill="#fefffe" d="M 242.5,164.5 C 243.833,165.167 243.833,165.167 242.5,164.5 Z"/></g>
<g><path style="opacity:0.008" fill="#fefffe" d="M 241.5,166.5 C 242.833,167.167 242.833,167.833 241.5,168.5C 241.5,167.833 241.5,167.167 241.5,166.5 Z"/></g>
<g><path style="opacity:0.008" fill="#fefffe" d="M 184.5,167.5 C 185.833,168.167 185.833,168.167 184.5,167.5 Z"/></g>
<g><path style="opacity:0.008" fill="#fefffe" d="M 240.5,168.5 C 240.833,168.5 241.167,168.5 241.5,168.5C 241.315,169.17 240.981,169.17 240.5,168.5 Z"/></g>
<g><path style="opacity:0.008" fill="#fefffe" d="M 186.5,170.5 C 185.833,169.167 185.833,169.167 186.5,170.5 Z"/></g>
<g><path style="opacity:0.008" fill="#fefffe" d="M 186.5,170.5 C 186.833,170.5 187.167,170.5 187.5,170.5C 187.315,171.17 186.981,171.17 186.5,170.5 Z"/></g>
<g><path style="opacity:0.008" fill="#fefffe" d="M 239.5,170.5 C 240.833,171.167 240.833,171.167 239.5,170.5 Z"/></g>
<g><path style="opacity:0.008" fill="#fefffe" d="M 237.5,173.5 C 238.833,174.167 238.833,174.167 237.5,173.5 Z"/></g>
<g><path style="opacity:0.008" fill="#fefffe" d="M 190.5,174.5 C 189.833,175.167 189.833,175.167 190.5,174.5 Z"/></g>
<g><path style="opacity:0.016" fill="#fefffe" d="M 236.5,174.5 C 236.833,174.5 237.167,174.5 237.5,174.5C 237.315,175.17 236.981,175.17 236.5,174.5 Z"/></g>
<g><path style="opacity:0.016" fill="#fefffe" d="M 191.5,177.5 C 190.833,176.167 190.833,176.167 191.5,177.5 Z"/></g>
<g><path style="opacity:0.008" fill="#fefffe" d="M 238.5,178.5 C 237.833,177.167 237.833,177.167 238.5,178.5 Z"/></g>
<g><path style="opacity:0.008" fill="#fefffe" d="M 238.5,178.5 C 239.833,179.167 239.833,179.167 238.5,178.5 Z"/></g>
<g><path style="opacity:0.008" fill="#fefffe" d="M 240.5,179.5 C 241.833,180.167 241.833,180.167 240.5,179.5 Z"/></g>
<g><path style="opacity:0.008" fill="#fefffe" d="M 182.5,181.5 C 183.833,182.167 183.833,182.167 182.5,181.5 Z"/></g>
<g><path style="opacity:1" fill="#fbed31" d="M 204.5,184.5 C 228.975,182.165 244.141,192.832 250,216.5C 250.817,225.745 250.65,234.911 249.5,244C 225.261,244.827 201.094,244.661 177,243.5C 176.333,233.833 176.333,224.167 177,214.5C 180.815,199.522 189.981,189.522 204.5,184.5 Z"/></g>
<g><path style="opacity:0.008" fill="#fefffe" d="M 250.5,188.5 C 251.833,189.167 251.833,189.167 250.5,188.5 Z"/></g>
<g><path style="opacity:0.008" fill="#fefffe" d="M 173.5,190.5 C 174.833,191.167 174.833,191.167 173.5,190.5 Z"/></g>
<g><path style="opacity:0.008" fill="#fefffe" d="M 252.5,191.5 C 253.833,192.167 253.833,192.167 252.5,191.5 Z"/></g>
<g><path style="opacity:0.008" fill="#fefffe" d="M 334.5,200.5 C 335.833,201.167 335.833,201.167 334.5,200.5 Z"/></g>
<g><path style="opacity:0.008" fill="#fefffe" d="M 333.5,202.5 C 334.833,203.167 334.833,203.167 333.5,202.5 Z"/></g>
<g><path style="opacity:0.008" fill="#fefffe" d="M 332.5,203.5 C 332.833,203.5 333.167,203.5 333.5,203.5C 333.315,204.17 332.981,204.17 332.5,203.5 Z"/></g>
<g><path style="opacity:0.008" fill="#fefffe" d="M 331.5,204.5 C 331.833,204.5 332.167,204.5 332.5,204.5C 332.315,205.17 331.981,205.17 331.5,204.5 Z"/></g>
<g><path style="opacity:0.008" fill="#fefffe" d="M 96.5,205.5 C 95.8333,206.167 95.8333,206.167 96.5,205.5 Z"/></g>
<g><path style="opacity:0.008" fill="#fefffe" d="M 329.5,205.5 C 330.167,205.5 330.833,205.5 331.5,205.5C 330.833,206.833 330.167,206.833 329.5,205.5 Z"/></g>
<g><path style="opacity:0.016" fill="#fefffe" d="M 165.5,206.5 C 166.833,207.167 166.833,207.167 165.5,206.5 Z"/></g>
<g><path style="opacity:0.012" fill="#fefffe" d="M 260.5,206.5 C 261.525,206.897 261.692,207.563 261,208.5C 260.536,207.906 260.369,207.239 260.5,206.5 Z"/></g>
<g><path style="opacity:0.01" fill="#fefffe" d="M 165.5,212.5 C 164.427,211.749 164.26,210.749 165,209.5C 165.483,210.448 165.649,211.448 165.5,212.5 Z"/></g>
<g><path style="opacity:0.01" fill="#fefffe" d="M 261.5,210.5 C 262.573,211.251 262.74,212.251 262,213.5C 261.517,212.552 261.351,211.552 261.5,210.5 Z"/></g>
<g><path style="opacity:0.015" fill="#fefffe" d="M 163.5,215.5 C 164.658,225.325 164.825,235.325 164,245.5C 163.5,235.506 163.334,225.506 163.5,215.5 Z"/></g>
<g><path style="opacity:0.008" fill="#fefffe" d="M 262.5,217.5 C 263.657,226.324 263.824,235.324 263,244.5C 262.5,235.506 262.334,226.506 262.5,217.5 Z"/></g>
<g><path style="opacity:0.008" fill="#fefffe" d="M 261.5,246.5 C 262.525,246.897 262.692,247.563 262,248.5C 261.536,247.906 261.369,247.239 261.5,246.5 Z"/></g>
<g><path style="opacity:0.008" fill="#fefffe" d="M 164.5,247.5 C 165.833,248.167 165.833,248.167 164.5,247.5 Z"/></g>
<g><path style="opacity:0.008" fill="#fefffe" d="M 166.5,249.5 C 165.833,250.167 165.833,250.167 166.5,249.5 Z"/></g>
<g><path style="opacity:0.008" fill="#fefffe" d="M 260.5,249.5 C 261.833,250.167 261.833,250.167 260.5,249.5 Z"/></g>
<g><path style="opacity:0.008" fill="#fefffe" d="M 259.5,250.5 C 259.833,250.5 260.167,250.5 260.5,250.5C 260.315,251.17 259.981,251.17 259.5,250.5 Z"/></g>
<g><path style="opacity:0.008" fill="#fefffe" d="M 258.5,251.5 C 258.833,251.5 259.167,251.5 259.5,251.5C 259.315,252.17 258.981,252.17 258.5,251.5 Z"/></g>
<g><path style="opacity:0.008" fill="#fefffe" d="M 167.5,252.5 C 168.833,253.167 168.833,253.167 167.5,252.5 Z"/></g>
<g><path style="opacity:0.008" fill="#fefffe" d="M 256.5,253.5 C 257.833,254.167 257.833,254.167 256.5,253.5 Z"/></g>
<g><path style="opacity:0.008" fill="#fefffe" d="M 171.5,254.5 C 171.5,254.833 171.5,255.167 171.5,255.5C 170.83,255.019 170.83,254.685 171.5,254.5 Z"/></g>
<g><path style="opacity:0.008" fill="#fefffe" d="M 255.5,254.5 C 255.833,254.5 256.167,254.5 256.5,254.5C 256.315,255.17 255.981,255.17 255.5,254.5 Z"/></g>
<g><path style="opacity:0.008" fill="#fefffe" d="M 171.5,255.5 C 172.833,256.167 172.833,256.167 171.5,255.5 Z"/></g>
<g><path style="opacity:0.008" fill="#fefffe" d="M 253.5,255.5 C 254.167,255.5 254.833,255.5 255.5,255.5C 254.833,256.833 254.167,256.833 253.5,255.5 Z"/></g>
<g><path style="opacity:0.008" fill="#fefffe" d="M 175.5,256.5 C 175.103,257.525 174.437,257.692 173.5,257C 174.094,256.536 174.761,256.369 175.5,256.5 Z"/></g>
<g><path style="opacity:0.016" fill="#fefffe" d="M 251.5,256.5 C 252.833,257.167 252.833,257.167 251.5,256.5 Z"/></g>
<g><path style="opacity:0.01" fill="#fefffe" d="M 143.5,261.5 C 149.319,260.347 155.319,260.181 161.5,261C 155.509,261.499 149.509,261.666 143.5,261.5 Z"/></g>
<g><path style="opacity:0.01" fill="#fefffe" d="M 138.5,262.5 C 139.251,261.427 140.251,261.26 141.5,262C 140.552,262.483 139.552,262.649 138.5,262.5 Z"/></g>
<g><path style="opacity:0.01" fill="#fefffe" d="M 165.5,262.5 C 166.601,261.402 167.934,261.235 169.5,262C 168.207,262.49 166.873,262.657 165.5,262.5 Z"/></g>
<g><path style="opacity:0.008" fill="#fefffe" d="M 133.5,263.5 C 134.251,262.427 135.251,262.26 136.5,263C 135.552,263.483 134.552,263.649 133.5,263.5 Z"/></g>
<g><path style="opacity:0.911" fill="#fffefe" d="M 170.5,263.5 C 172.905,264.768 175.572,265.435 178.5,265.5C 180.214,266.738 182.214,267.405 184.5,267.5C 185.209,268.404 186.209,268.737 187.5,268.5C 189.509,270.065 191.843,271.065 194.5,271.5C 194.918,272.222 195.584,272.722 196.5,273C 218.853,273.221 241.186,273.721 263.5,274.5C 264.209,275.404 265.209,275.737 266.5,275.5C 266.842,276.338 267.508,276.672 268.5,276.5C 271.474,279.138 274.474,281.805 277.5,284.5C 277.427,286.027 278.094,287.027 279.5,287.5C 279.328,288.492 279.662,289.158 280.5,289.5C 280.263,290.791 280.596,291.791 281.5,292.5C 281.421,295.271 281.921,297.937 283,300.5C 283.995,299.934 284.828,299.267 285.5,298.5C 287.027,298.573 288.027,297.906 288.5,296.5C 289.492,296.672 290.158,296.338 290.5,295.5C 291.492,295.672 292.158,295.338 292.5,294.5C 294.027,294.573 295.027,293.906 295.5,292.5C 296.492,292.672 297.158,292.338 297.5,291.5C 298.492,291.672 299.158,291.338 299.5,290.5C 302.004,289.416 304.337,288.083 306.5,286.5C 308.027,286.573 309.027,285.906 309.5,284.5C 310.492,284.672 311.158,284.338 311.5,283.5C 312.492,283.672 313.158,283.338 313.5,282.5C 323.606,277.278 333.606,271.778 343.5,266C 349.791,264.17 356.124,264.004 362.5,265.5C 363.514,266.674 364.847,267.34 366.5,267.5C 369.141,269.804 371.808,272.138 374.5,274.5C 374.328,275.492 374.662,276.158 375.5,276.5C 375.992,278.819 376.992,280.819 378.5,282.5C 379.833,288.167 379.833,293.833 378.5,299.5C 377.662,299.842 377.328,300.508 377.5,301.5C 376.662,301.842 376.328,302.508 376.5,303.5C 375.662,303.842 375.328,304.508 375.5,305.5C 374.833,305.5 374.5,305.833 374.5,306.5C 372.167,308.167 370.167,310.167 368.5,312.5C 367.833,312.5 367.5,312.833 367.5,313.5C 366.508,313.328 365.842,313.662 365.5,314.5C 363.973,314.427 362.973,315.094 362.5,316.5C 361.508,316.328 360.842,316.662 360.5,317.5C 359.508,317.328 358.842,317.662 358.5,318.5C 356.973,318.427 355.973,319.094 355.5,320.5C 354.508,320.328 353.842,320.662 353.5,321.5C 352.508,321.328 351.842,321.662 351.5,322.5C 349.973,322.427 348.973,323.094 348.5,324.5C 347.508,324.328 346.842,324.662 346.5,325.5C 345.508,325.328 344.842,325.662 344.5,326.5C 342.973,326.427 341.973,327.094 341.5,328.5C 340.508,328.328 339.842,328.662 339.5,329.5C 338.508,329.328 337.842,329.662 337.5,330.5C 335.973,330.427 334.973,331.094 334.5,332.5C 333.508,332.328 332.842,332.662 332.5,333.5C 331.508,333.328 330.842,333.662 330.5,334.5C 328.973,334.427 327.973,335.094 327.5,336.5C 326.508,336.328 325.842,336.662 325.5,337.5C 324.508,337.328 323.842,337.662 323.5,338.5C 321.973,338.427 320.973,339.094 320.5,340.5C 319.508,340.328 318.842,340.662 318.5,341.5C 317.508,341.328 316.842,341.662 316.5,342.5C 314.973,342.427 313.973,343.094 313.5,344.5C 312.508,344.328 311.842,344.662 311.5,345.5C 310.508,345.328 309.842,345.662 309.5,346.5C 307.973,346.427 306.973,347.094 306.5,348.5C 305.508,348.328 304.842,348.662 304.5,349.5C 303.508,349.328 302.842,349.662 302.5,350.5C 300.973,350.427 299.973,351.094 299.5,352.5C 298.508,352.328 297.842,352.662 297.5,353.5C 296.508,353.328 295.842,353.662 295.5,354.5C 293.973,354.427 292.973,355.094 292.5,356.5C 291.508,356.328 290.842,356.662 290.5,357.5C 289.508,357.328 288.842,357.662 288.5,358.5C 286.973,358.427 285.973,359.094 285.5,360.5C 284.508,360.328 283.842,360.662 283.5,361.5C 282.508,361.328 281.842,361.662 281.5,362.5C 279.973,362.427 278.973,363.094 278.5,364.5C 277.508,364.328 276.842,364.662 276.5,365.5C 275.508,365.328 274.842,365.662 274.5,366.5C 273.508,366.328 272.842,366.662 272.5,367.5C 271.508,367.328 270.842,367.662 270.5,368.5C 269.508,368.328 268.842,368.662 268.5,369.5C 267.209,369.263 266.209,369.596 265.5,370.5C 264.508,370.328 263.842,370.662 263.5,371.5C 262.209,371.263 261.209,371.596 260.5,372.5C 259.209,372.263 258.209,372.596 257.5,373.5C 231.646,377.291 205.646,378.458 179.5,377C 162.103,375.939 144.77,374.439 127.5,372.5C 119.696,373.761 112.03,375.095 104.5,376.5C 102.585,376.216 100.919,376.549 99.5,377.5C 98.596,378.209 98.2627,379.209 98.5,380.5C 97.8333,380.5 97.5,380.833 97.5,381.5C 95.8333,382.5 94.5,383.833 93.5,385.5C 92.0783,385.709 90.745,386.209 89.5,387C 81.1733,387.5 72.84,387.666 64.5,387.5C 63.4863,386.326 62.153,385.66 60.5,385.5C 59.8333,384.167 58.8333,383.167 57.5,382.5C 57.0679,381.29 56.4013,380.29 55.5,379.5C 54.1667,345.5 54.1667,311.5 55.5,277.5C 57.6997,274.142 60.6997,271.642 64.5,270C 72.8333,269.333 81.1667,269.333 89.5,270C 90.9007,270.41 92.234,270.91 93.5,271.5C 94.8333,273.5 96.5,275.167 98.5,276.5C 98.3284,277.492 98.6618,278.158 99.5,278.5C 99.5,279.5 99.5,280.5 99.5,281.5C 101.199,281.66 102.866,281.494 104.5,281C 108.067,277.92 111.733,275.087 115.5,272.5C 118.004,271.416 120.337,270.083 122.5,268.5C 124.553,268.598 126.22,267.931 127.5,266.5C 141.588,262.45 155.922,261.45 170.5,263.5 Z M 173.5,278.5 C 174.791,278.263 175.791,278.596 176.5,279.5C 177.791,279.263 178.791,279.596 179.5,280.5C 180.791,280.263 181.791,280.596 182.5,281.5C 183.791,281.263 184.791,281.596 185.5,282.5C 184.761,282.369 184.094,282.536 183.5,283C 185.167,283.833 186.833,284.667 188.5,285.5C 189.107,285.376 189.44,285.043 189.5,284.5C 191.553,284.402 193.22,285.069 194.5,286.5C 215.836,286.333 237.169,286.5 258.5,287C 259.737,287.232 260.737,287.732 261.5,288.5C 260.761,288.369 260.094,288.536 259.5,289C 263.333,290.167 265.833,292.667 267,296.5C 267.464,295.906 267.631,295.239 267.5,294.5C 270.167,298.5 270.167,302.5 267.5,306.5C 267.586,307.496 267.252,308.329 266.5,309C 241.836,309.5 217.169,309.667 192.5,309.5C 192.103,308.475 191.437,308.308 190.5,309C 189.5,310 188.5,311 187.5,312C 187.728,312.399 188.062,312.565 188.5,312.5C 187.85,314.435 187.517,316.435 187.5,318.5C 188.338,318.842 188.672,319.508 188.5,320.5C 187.453,321.078 187.62,321.744 189,322.5C 189.399,322.272 189.565,321.938 189.5,321.5C 217.167,322.833 244.833,322.833 272.5,321.5C 272.842,320.662 273.508,320.328 274.5,320.5C 274.842,319.662 275.508,319.328 276.5,319.5C 276.435,319.938 276.601,320.272 277,320.5C 278.419,319.54 279.919,318.707 281.5,318C 282.738,317.31 282.738,316.81 281.5,316.5C 281.842,315.662 282.508,315.328 283.5,315.5C 283.973,314.094 284.973,313.427 286.5,313.5C 287.497,314.713 288.497,314.546 289.5,313C 289.272,312.601 288.938,312.435 288.5,312.5C 288.842,311.662 289.508,311.328 290.5,311.5C 290.435,311.938 290.601,312.272 291,312.5C 292.419,311.54 293.919,310.707 295.5,310C 296.738,309.31 296.738,308.81 295.5,308.5C 295.842,307.662 296.508,307.328 297.5,307.5C 297.435,307.938 297.601,308.272 298,308.5C 298.75,307.874 299.584,307.374 300.5,307C 301.738,306.31 301.738,305.81 300.5,305.5C 300.842,304.662 301.508,304.328 302.5,304.5C 302.842,303.662 303.508,303.328 304.5,303.5C 304.435,303.938 304.601,304.272 305,304.5C 306.419,303.54 307.919,302.707 309.5,302C 310.738,301.31 310.738,300.81 309.5,300.5C 309.842,299.662 310.508,299.328 311.5,299.5C 311.435,299.938 311.601,300.272 312,300.5C 313.419,299.54 314.919,298.707 316.5,298C 317.738,297.31 317.738,296.81 316.5,296.5C 316.842,295.662 317.508,295.328 318.5,295.5C 318.435,295.938 318.601,296.272 319,296.5C 319.75,295.874 320.584,295.374 321.5,295C 322.738,294.31 322.738,293.81 321.5,293.5C 321.842,292.662 322.508,292.328 323.5,292.5C 323.842,291.662 324.508,291.328 325.5,291.5C 325.435,291.938 325.601,292.272 326,292.5C 326.75,291.874 327.584,291.374 328.5,291C 329.738,290.31 329.738,289.81 328.5,289.5C 328.842,288.662 329.508,288.328 330.5,288.5C 330.842,287.662 331.508,287.328 332.5,287.5C 332.435,287.938 332.601,288.272 333,288.5C 334.419,287.54 335.919,286.707 337.5,286C 338.738,285.31 338.738,284.81 337.5,284.5C 337.842,283.662 338.508,283.328 339.5,283.5C 339.973,282.094 340.973,281.427 342.5,281.5C 343.497,282.713 344.497,282.546 345.5,281C 345.272,280.601 344.938,280.435 344.5,280.5C 344.842,279.662 345.508,279.328 346.5,279.5C 346.611,278.883 346.944,278.383 347.5,278C 351.027,277.192 354.36,277.359 357.5,278.5C 358.492,278.328 359.158,278.662 359.5,279.5C 360.492,279.328 361.158,279.662 361.5,280.5C 361.062,280.435 360.728,280.601 360.5,281C 362.041,282.579 363.208,284.413 364,286.5C 364.464,285.906 364.631,285.239 364.5,284.5C 365.404,285.209 365.737,286.209 365.5,287.5C 366.629,289.628 366.796,291.961 366,294.5C 365.8,296.32 364.966,297.653 363.5,298.5C 363.167,297.167 362.833,297.167 362.5,298.5C 361.833,298.5 361.5,298.833 361.5,299.5C 360.833,299.5 360.5,299.833 360.5,300.5C 358.86,301.32 357.193,302.153 355.5,303C 354.262,303.69 354.262,304.19 355.5,304.5C 355.027,305.906 354.027,306.573 352.5,306.5C 351.503,305.287 350.503,305.454 349.5,307C 349.728,307.399 350.062,307.565 350.5,307.5C 350.158,308.338 349.492,308.672 348.5,308.5C 348.027,309.906 347.027,310.573 345.5,310.5C 344.279,309.535 342.946,309.702 341.5,311C 340.262,311.69 340.262,312.19 341.5,312.5C 341.027,313.906 340.027,314.573 338.5,314.5C 337.279,313.535 335.946,313.702 334.5,315C 333.262,315.69 333.262,316.19 334.5,316.5C 334.027,317.906 333.027,318.573 331.5,318.5C 330.279,317.535 328.946,317.702 327.5,319C 326.262,319.69 326.262,320.19 327.5,320.5C 327.027,321.906 326.027,322.573 324.5,322.5C 323.279,321.535 321.946,321.702 320.5,323C 319.262,323.69 319.262,324.19 320.5,324.5C 320.027,325.906 319.027,326.573 317.5,326.5C 316.279,325.535 314.946,325.702 313.5,327C 312.262,327.69 312.262,328.19 313.5,328.5C 313.027,329.906 312.027,330.573 310.5,330.5C 309.279,329.535 307.946,329.702 306.5,331C 305.262,331.69 305.262,332.19 306.5,332.5C 306.027,333.906 305.027,334.573 303.5,334.5C 302.279,333.535 300.946,333.702 299.5,335C 298.262,335.69 298.262,336.19 299.5,336.5C 299.027,337.906 298.027,338.573 296.5,338.5C 295.279,337.535 293.946,337.702 292.5,339C 291.262,339.69 291.262,340.19 292.5,340.5C 292.027,341.906 291.027,342.573 289.5,342.5C 288.503,341.287 287.503,341.454 286.5,343C 286.728,343.399 287.062,343.565 287.5,343.5C 287.158,344.338 286.492,344.672 285.5,344.5C 285.027,345.906 284.027,346.573 282.5,346.5C 281.279,345.535 279.946,345.702 278.5,347C 277.262,347.69 277.262,348.19 278.5,348.5C 278.027,349.906 277.027,350.573 275.5,350.5C 274.279,349.535 272.946,349.702 271.5,351C 270.262,351.69 270.262,352.19 271.5,352.5C 271.158,353.338 270.492,353.672 269.5,353.5C 269.158,354.338 268.492,354.672 267.5,354.5C 267.158,355.338 266.492,355.672 265.5,355.5C 264.503,354.287 263.503,354.454 262.5,356C 262.728,356.399 263.062,356.565 263.5,356.5C 263.158,357.338 262.492,357.672 261.5,357.5C 260.791,358.404 259.791,358.737 258.5,358.5C 256.898,360.074 254.898,360.741 252.5,360.5C 245.133,362.707 237.466,363.873 229.5,364C 195.479,365.53 161.645,364.03 128,359.5C 118.572,361.061 109.072,362.394 99.5,363.5C 99.5,340.5 99.5,317.5 99.5,294.5C 102.902,294.658 106.236,294.324 109.5,293.5C 109.973,292.094 110.973,291.427 112.5,291.5C 112.435,291.938 112.601,292.272 113,292.5C 114.167,291.333 115.333,290.167 116.5,289C 116.272,288.601 115.938,288.435 115.5,288.5C 115.842,287.662 116.508,287.328 117.5,287.5C 118.078,288.547 118.744,288.38 119.5,287C 119.272,286.601 118.938,286.435 118.5,286.5C 118.842,285.662 119.508,285.328 120.5,285.5C 121.078,286.547 121.744,286.38 122.5,285C 122.272,284.601 121.938,284.435 121.5,284.5C 121.842,283.662 122.508,283.328 123.5,283.5C 123.842,282.662 124.508,282.328 125.5,282.5C 125.842,281.662 126.508,281.328 127.5,281.5C 128.721,282.465 130.054,282.298 131.5,281C 130.906,280.536 130.239,280.369 129.5,280.5C 132.084,278.528 135.084,277.528 138.5,277.5C 143.233,275.954 148.233,275.287 153.5,275.5C 160.511,275.108 167.178,276.108 173.5,278.5 Z M 362.5,298.5 C 362.833,298.5 363.167,298.5 363.5,298.5C 363.5,300.5 362.5,301.5 360.5,301.5C 360.5,301.167 360.5,300.833 360.5,300.5C 361.167,300.5 361.5,300.167 361.5,299.5C 362.167,299.5 362.5,299.167 362.5,298.5 Z"/></g>
<g><path style="opacity:0.01" fill="#fefffe" d="M 170.5,263.5 C 171.251,262.427 172.251,262.26 173.5,263C 172.552,263.483 171.552,263.649 170.5,263.5 Z"/></g>
<g><path style="opacity:0.011" fill="#fefffe" d="M 348.5,263.5 C 351.304,262.362 354.304,262.195 357.5,263C 354.518,263.498 351.518,263.665 348.5,263.5 Z"/></g>
<g><path style="opacity:0.008" fill="#fefffe" d="M 131.5,263.5 C 132.833,264.167 132.833,264.167 131.5,263.5 Z"/></g>
<g><path style="opacity:0.008" fill="#fefffe" d="M 175.5,264.5 C 175.897,263.475 176.563,263.308 177.5,264C 176.906,264.464 176.239,264.631 175.5,264.5 Z"/></g>
<g><path style="opacity:0.008" fill="#fefffe" d="M 344.5,264.5 C 344.897,263.475 345.563,263.308 346.5,264C 345.906,264.464 345.239,264.631 344.5,264.5 Z"/></g>
<g><path style="opacity:0.008" fill="#fefffe" d="M 359.5,264.5 C 359.897,263.475 360.563,263.308 361.5,264C 360.906,264.464 360.239,264.631 359.5,264.5 Z"/></g>
<g><path style="opacity:0.008" fill="#fefffe" d="M 127.5,265.5 C 127.897,264.475 128.563,264.308 129.5,265C 128.906,265.464 128.239,265.631 127.5,265.5 Z"/></g>
<g><path style="opacity:0.008" fill="#fefffe" d="M 178.5,265.5 C 178.897,264.475 179.563,264.308 180.5,265C 179.906,265.464 179.239,265.631 178.5,265.5 Z"/></g>
<g><path style="opacity:0.008" fill="#fefffe" d="M 362.5,264.5 C 363.833,265.167 363.833,265.167 362.5,264.5 Z"/></g>
<g><path style="opacity:0.008" fill="#fefffe" d="M 127.5,265.5 C 127.5,265.833 127.5,266.167 127.5,266.5C 124.833,266.167 124.833,265.833 127.5,265.5 Z"/></g>
<g><path style="opacity:0.008" fill="#fefffe" d="M 184.5,266.5 C 183.761,266.631 183.094,266.464 182.5,266C 183.437,265.308 184.103,265.475 184.5,266.5 Z"/></g>
<g><path style="opacity:0.008" fill="#fefffe" d="M 123.5,266.5 C 124.833,267.167 124.833,267.167 123.5,266.5 Z"/></g>
<g><path style="opacity:0.008" fill="#fefffe" d="M 184.5,267.5 C 184.5,267.167 184.5,266.833 184.5,266.5C 187.167,266.833 187.167,267.167 184.5,267.5 Z"/></g>
<g><path style="opacity:0.008" fill="#fefffe" d="M 366.5,266.5 C 367.833,267.167 367.833,267.167 366.5,266.5 Z"/></g>
<g><path style="opacity:0.014" fill="#fefffe" d="M 65.5,268.5 C 73.3225,267.344 81.3225,267.177 89.5,268C 81.5069,268.5 73.5069,268.666 65.5,268.5 Z"/></g>
<g><path style="opacity:0.008" fill="#fefffe" d="M 122.5,268.5 C 121.833,267.167 121.833,267.167 122.5,268.5 Z"/></g>
<g><path style="opacity:0.008" fill="#fefffe" d="M 187.5,268.5 C 187.897,267.475 188.563,267.308 189.5,268C 188.906,268.464 188.239,268.631 187.5,268.5 Z"/></g>
<g><path style="opacity:0.008" fill="#fefffe" d="M 90.5,268.5 C 91.8333,269.167 91.8333,269.167 90.5,268.5 Z"/></g>
<g><path style="opacity:0.008" fill="#fefffe" d="M 190.5,268.5 C 191.833,269.167 191.833,269.167 190.5,268.5 Z"/></g>
<g><path style="opacity:0.008" fill="#fefffe" d="M 334.5,268.5 C 335.833,269.167 335.833,269.167 334.5,268.5 Z"/></g>
<g><path style="opacity:0.008" fill="#fefffe" d="M 93.5,270.5 C 94.8333,271.167 94.8333,271.167 93.5,270.5 Z"/></g>
<g><path style="opacity:0.008" fill="#fefffe" d="M 115.5,270.5 C 116.833,271.167 116.833,271.167 115.5,270.5 Z"/></g>
<g><path style="opacity:0.008" fill="#fefffe" d="M 194.5,271.5 C 194.897,270.475 195.563,270.308 196.5,271C 195.906,271.464 195.239,271.631 194.5,271.5 Z"/></g>
<g><path style="opacity:0.008" fill="#fefffe" d="M 96.5,272.5 C 95.8333,271.167 95.8333,271.167 96.5,272.5 Z"/></g>
<g><path style="opacity:0.008" fill="#fefffe" d="M 115.5,271.5 C 115.5,271.833 115.5,272.167 115.5,272.5C 114.83,272.019 114.83,271.685 115.5,271.5 Z"/></g>
<g><path style="opacity:0.008" fill="#fefffe" d="M 197.5,271.5 C 198.833,272.167 198.833,272.167 197.5,271.5 Z"/></g>
<g><path style="opacity:0.008" fill="#fefffe" d="M 96.5,272.5 C 97.8333,273.167 97.8333,273.167 96.5,272.5 Z"/></g>
<g><path style="opacity:0.01" fill="#fefffe" d="M 259.5,273.5 C 260.251,272.427 261.251,272.26 262.5,273C 261.552,273.483 260.552,273.649 259.5,273.5 Z"/></g>
<g><path style="opacity:0.008" fill="#fefffe" d="M 327.5,272.5 C 328.833,273.167 328.833,273.167 327.5,272.5 Z"/></g>
<g><path style="opacity:0.008" fill="#fefffe" d="M 263.5,274.5 C 263.897,273.475 264.563,273.308 265.5,274C 264.906,274.464 264.239,274.631 263.5,274.5 Z"/></g>
<g><path style="opacity:0.008" fill="#fefffe" d="M 374.5,273.5 C 375.833,274.167 375.833,274.167 374.5,273.5 Z"/></g>
<g><path style="opacity:0.008" fill="#fefffe" d="M 266.5,274.5 C 267.833,275.167 267.833,275.167 266.5,274.5 Z"/></g>
<g><path style="opacity:0.008" fill="#fefffe" d="M 98.5,275.5 C 99.8333,276.167 99.8333,276.167 98.5,275.5 Z"/></g>
<g><path style="opacity:0.008" fill="#fefffe" d="M 268.5,275.5 C 269.833,276.167 269.833,276.167 268.5,275.5 Z"/></g>
<g><path style="opacity:0.008" fill="#fefffe" d="M 376.5,276.5 C 375.833,275.167 375.833,275.167 376.5,276.5 Z"/></g>
<g><path style="opacity:0.008" fill="#fefffe" d="M 55.5,277.5 C 54.8333,276.167 54.8333,276.167 55.5,277.5 Z"/></g>
<g><path style="opacity:0.008" fill="#fefffe" d="M 320.5,276.5 C 321.833,277.167 321.833,277.167 320.5,276.5 Z"/></g>
<g><path style="opacity:0.008" fill="#fefffe" d="M 376.5,276.5 C 377.833,277.167 377.833,277.167 376.5,276.5 Z"/></g>
<g><path style="opacity:0.008" fill="#fefffe" d="M 54.5,277.5 C 54.631,278.239 54.4643,278.906 54,279.5C 53.3083,278.563 53.475,277.897 54.5,277.5 Z"/></g>
<g><path style="opacity:0.008" fill="#fefffe" d="M 99.5,277.5 C 100.833,278.167 100.833,278.167 99.5,277.5 Z"/></g>
<g><path style="opacity:0.008" fill="#fefffe" d="M 377.5,278.5 C 378.833,279.167 378.833,279.167 377.5,278.5 Z"/></g>
<g><path style="opacity:0.008" fill="#fefffe" d="M 313.5,280.5 C 314.833,281.167 314.833,281.167 313.5,280.5 Z"/></g>
<g><path style="opacity:0.008" fill="#fefffe" d="M 378.5,282.5 C 378.369,281.761 378.536,281.094 379,280.5C 379.692,281.437 379.525,282.103 378.5,282.5 Z"/></g>
<g><path style="opacity:0.008" fill="#fefffe" d="M 52.5,281.5 C 53.664,312.664 53.8307,343.997 53,375.5C 52.5,344.168 52.3334,312.835 52.5,281.5 Z"/></g>
<g><path style="opacity:0.008" fill="#fefffe" d="M 313.5,281.5 C 313.5,281.833 313.5,282.167 313.5,282.5C 312.83,282.019 312.83,281.685 313.5,281.5 Z"/></g>
<g><path style="opacity:1" fill="#fbed32" d="M 67.5,280.5 C 73.8421,280.334 80.1754,280.5 86.5,281C 87,281.5 87.5,282 88,282.5C 88.8286,313.738 88.662,344.905 87.5,376C 80.5857,376.811 73.7524,376.645 67,375.5C 66.1749,343.762 66.3415,312.095 67.5,280.5 Z"/></g>
<g><path style="opacity:0.016" fill="#fefffe" d="M 311.5,283.5 C 310.833,282.167 310.833,282.167 311.5,283.5 Z"/></g>
<g><path style="opacity:0.008" fill="#fefffe" d="M 277.5,283.5 C 278.833,284.167 278.833,284.167 277.5,283.5 Z"/></g>
<g><path style="opacity:0.008" fill="#fefffe" d="M 309.5,284.5 C 308.833,283.167 308.833,283.167 309.5,284.5 Z"/></g>
<g><path style="opacity:0.008" fill="#fefffe" d="M 379.5,283.5 C 380.525,283.897 380.692,284.563 380,285.5C 379.536,284.906 379.369,284.239 379.5,283.5 Z"/></g>
<g><path style="opacity:0.008" fill="#fefffe" d="M 306.5,284.5 C 307.833,285.167 307.833,285.167 306.5,284.5 Z"/></g>
<g><path style="opacity:0.008" fill="#fefffe" d="M 306.5,285.5 C 306.5,285.833 306.5,286.167 306.5,286.5C 305.83,286.019 305.83,285.685 306.5,285.5 Z"/></g>
<g><path style="opacity:0.008" fill="#fefffe" d="M 279.5,286.5 C 280.833,287.167 280.833,287.167 279.5,286.5 Z"/></g>
<g><path style="opacity:0.008" fill="#fefffe" d="M 280.5,288.5 C 281.833,289.167 281.833,289.167 280.5,288.5 Z"/></g>
<g><path style="opacity:0.008" fill="#fefffe" d="M 299.5,288.5 C 300.833,289.167 300.833,289.167 299.5,288.5 Z"/></g>
<g><path style="opacity:0.008" fill="#fefffe" d="M 299.5,289.5 C 299.5,289.833 299.5,290.167 299.5,290.5C 298.83,290.019 298.83,289.685 299.5,289.5 Z"/></g>
<g><path style="opacity:0.008" fill="#fefffe" d="M 380.5,289.5 C 381.598,290.601 381.765,291.934 381,293.5C 380.51,292.207 380.343,290.873 380.5,289.5 Z"/></g>
<g><path style="opacity:0.008" fill="#fefffe" d="M 281.5,292.5 C 281.369,291.761 281.536,291.094 282,290.5C 282.692,291.437 282.525,292.103 281.5,292.5 Z"/></g>
<g><path style="opacity:0.008" fill="#fefffe" d="M 297.5,291.5 C 296.833,290.167 296.833,290.167 297.5,291.5 Z"/></g>
<g><path style="opacity:0.008" fill="#fefffe" d="M 295.5,292.5 C 294.833,291.167 294.833,291.167 295.5,292.5 Z"/></g>
<g><path style="opacity:0.008" fill="#fefffe" d="M 292.5,292.5 C 293.833,293.167 293.833,293.167 292.5,292.5 Z"/></g>
<g><path style="opacity:0.01" fill="#fefffe" d="M 282.5,293.5 C 283.573,294.251 283.74,295.251 283,296.5C 282.517,295.552 282.351,294.552 282.5,293.5 Z"/></g>
<g><path style="opacity:0.008" fill="#fefffe" d="M 292.5,293.5 C 292.5,293.833 292.5,294.167 292.5,294.5C 291.83,294.019 291.83,293.685 292.5,293.5 Z"/></g>
<g><path style="opacity:0.016" fill="#fefffe" d="M 290.5,295.5 C 289.833,294.167 289.833,294.167 290.5,295.5 Z"/></g>
<g><path style="opacity:0.008" fill="#fefffe" d="M 100.5,295.5 C 106.167,295.664 106.5,295.997 101.5,296.5C 100.851,318.565 101.517,340.398 103.5,362C 102.552,362.483 101.552,362.649 100.5,362.5C 100.5,340.167 100.5,317.833 100.5,295.5 Z"/></g>
<g><path style="opacity:0.008" fill="#fefffe" d="M 288.5,296.5 C 287.833,295.167 287.833,295.167 288.5,296.5 Z"/></g>
<g><path style="opacity:0.008" fill="#fefffe" d="M 285.5,296.5 C 286.833,297.167 286.833,297.167 285.5,296.5 Z"/></g>
<g><path style="opacity:0.012" fill="#fefffe" d="M 379.5,296.5 C 380.525,296.897 380.692,297.563 380,298.5C 379.536,297.906 379.369,297.239 379.5,296.5 Z"/></g>
<g><path style="opacity:0.008" fill="#fefffe" d="M 285.5,297.5 C 285.5,297.833 285.5,298.167 285.5,298.5C 282.833,298.167 282.833,297.833 285.5,297.5 Z"/></g>
<g><path style="opacity:0.008" fill="#fefffe" d="M 378.5,299.5 C 379.833,300.167 379.833,300.833 378.5,301.5C 378.5,300.833 378.5,300.167 378.5,299.5 Z"/></g>
<g><path style="opacity:0.008" fill="#fefffe" d="M 377.5,301.5 C 377.833,301.5 378.167,301.5 378.5,301.5C 378.672,302.492 378.338,303.158 377.5,303.5C 377.5,302.833 377.5,302.167 377.5,301.5 Z"/></g>
<g><path style="opacity:0.008" fill="#fefffe" d="M 376.5,303.5 C 376.833,303.5 377.167,303.5 377.5,303.5C 377.315,304.17 376.981,304.17 376.5,303.5 Z"/></g>
<g><path style="opacity:0.008" fill="#fefffe" d="M 375.5,305.5 C 376.833,306.167 376.833,306.167 375.5,305.5 Z"/></g>
<g><path style="opacity:0.008" fill="#fefffe" d="M 374.5,306.5 C 374.833,306.5 375.167,306.5 375.5,306.5C 375.315,307.17 374.981,307.17 374.5,306.5 Z"/></g>
<g><path style="opacity:0.008" fill="#fefffe" d="M 372.5,309.5 C 373.833,310.167 373.833,310.167 372.5,309.5 Z"/></g>
<g><path style="opacity:0.008" fill="#fefffe" d="M 372.5,310.5 C 371.833,311.167 371.833,311.167 372.5,310.5 Z"/></g>
<g><path style="opacity:0.008" fill="#fefffe" d="M 368.5,312.5 C 369.833,313.167 369.833,313.167 368.5,312.5 Z"/></g>
<g><path style="opacity:0.008" fill="#fefffe" d="M 367.5,313.5 C 367.833,313.5 368.167,313.5 368.5,313.5C 368.315,314.17 367.981,314.17 367.5,313.5 Z"/></g>
<g><path style="opacity:0.008" fill="#fefffe" d="M 365.5,314.5 C 366.833,315.167 366.833,315.167 365.5,314.5 Z"/></g>
<g><path style="opacity:0.008" fill="#fefffe" d="M 365.5,315.5 C 364.833,316.167 364.833,316.167 365.5,315.5 Z"/></g>
<g><path style="opacity:0.008" fill="#fefffe" d="M 362.5,316.5 C 363.833,317.167 363.833,317.167 362.5,316.5 Z"/></g>
<g><path style="opacity:0.008" fill="#fefffe" d="M 360.5,317.5 C 361.833,318.167 361.833,318.167 360.5,317.5 Z"/></g>
<g><path style="opacity:0.008" fill="#fefffe" d="M 358.5,318.5 C 359.833,319.167 359.833,319.167 358.5,318.5 Z"/></g>
<g><path style="opacity:0.008" fill="#fefffe" d="M 358.5,319.5 C 357.833,320.167 357.833,320.167 358.5,319.5 Z"/></g>
<g><path style="opacity:0.008" fill="#fefffe" d="M 355.5,320.5 C 356.833,321.167 356.833,321.167 355.5,320.5 Z"/></g>
<g><path style="opacity:0.016" fill="#fefffe" d="M 353.5,321.5 C 354.833,322.167 354.833,322.167 353.5,321.5 Z"/></g>
<g><path style="opacity:0.008" fill="#fefffe" d="M 351.5,322.5 C 352.833,323.167 352.833,323.167 351.5,322.5 Z"/></g>
<g><path style="opacity:0.008" fill="#fefffe" d="M 351.5,323.5 C 350.833,324.167 350.833,324.167 351.5,323.5 Z"/></g>
<g><path style="opacity:0.008" fill="#fefffe" d="M 348.5,324.5 C 349.833,325.167 349.833,325.167 348.5,324.5 Z"/></g>
<g><path style="opacity:0.016" fill="#fefffe" d="M 346.5,325.5 C 347.833,326.167 347.833,326.167 346.5,325.5 Z"/></g>
<g><path style="opacity:0.008" fill="#fefffe" d="M 344.5,326.5 C 345.833,327.167 345.833,327.167 344.5,326.5 Z"/></g>
<g><path style="opacity:0.008" fill="#fefffe" d="M 344.5,327.5 C 343.833,328.167 343.833,328.167 344.5,327.5 Z"/></g>
<g><path style="opacity:0.008" fill="#fefffe" d="M 341.5,328.5 C 342.833,329.167 342.833,329.167 341.5,328.5 Z"/></g>
<g><path style="opacity:0.008" fill="#fefffe" d="M 339.5,329.5 C 340.833,330.167 340.833,330.167 339.5,329.5 Z"/></g>
<g><path style="opacity:0.008" fill="#fefffe" d="M 337.5,330.5 C 338.833,331.167 338.833,331.167 337.5,330.5 Z"/></g>
<g><path style="opacity:0.008" fill="#fefffe" d="M 337.5,331.5 C 336.833,332.167 336.833,332.167 337.5,331.5 Z"/></g>
<g><path style="opacity:0.008" fill="#fefffe" d="M 334.5,332.5 C 335.833,333.167 335.833,333.167 334.5,332.5 Z"/></g>
<g><path style="opacity:0.016" fill="#fefffe" d="M 332.5,333.5 C 333.833,334.167 333.833,334.167 332.5,333.5 Z"/></g>
<g><path style="opacity:0.008" fill="#fefffe" d="M 330.5,334.5 C 331.833,335.167 331.833,335.167 330.5,334.5 Z"/></g>
<g><path style="opacity:0.008" fill="#fefffe" d="M 330.5,335.5 C 329.833,336.167 329.833,336.167 330.5,335.5 Z"/></g>
<g><path style="opacity:0.008" fill="#fefffe" d="M 327.5,336.5 C 328.833,337.167 328.833,337.167 327.5,336.5 Z"/></g>
<g><path style="opacity:0.008" fill="#fefffe" d="M 325.5,337.5 C 326.167,337.5 326.833,337.5 327.5,337.5C 326.833,338.833 326.167,338.833 325.5,337.5 Z"/></g>
<g><path style="opacity:0.008" fill="#fefffe" d="M 323.5,338.5 C 324.833,339.167 324.833,339.167 323.5,338.5 Z"/></g>
<g><path style="opacity:0.008" fill="#fefffe" d="M 323.5,339.5 C 322.833,340.167 322.833,340.167 323.5,339.5 Z"/></g>
<g><path style="opacity:0.008" fill="#fefffe" d="M 320.5,340.5 C 321.833,341.167 321.833,341.167 320.5,340.5 Z"/></g>
<g><path style="opacity:0.008" fill="#fefffe" d="M 318.5,342.5 C 318.5,342.167 318.5,341.833 318.5,341.5C 319.167,341.5 319.833,341.5 320.5,341.5C 320.158,342.338 319.492,342.672 318.5,342.5 Z"/></g>
<g><path style="opacity:0.008" fill="#fefffe" d="M 316.5,343.5 C 316.5,343.167 316.5,342.833 316.5,342.5C 317.167,342.5 317.833,342.5 318.5,342.5C 318.158,343.338 317.492,343.672 316.5,343.5 Z"/></g>
<g><path style="opacity:0.008" fill="#fefffe" d="M 316.5,343.5 C 315.833,344.167 315.833,344.167 316.5,343.5 Z"/></g>
<g><path style="opacity:0.008" fill="#fefffe" d="M 313.5,344.5 C 314.833,345.167 314.833,345.167 313.5,344.5 Z"/></g>
<g><path style="opacity:0.008" fill="#fefffe" d="M 311.5,346.5 C 311.5,346.167 311.5,345.833 311.5,345.5C 312.167,345.5 312.833,345.5 313.5,345.5C 313.158,346.338 312.492,346.672 311.5,346.5 Z"/></g>
<g><path style="opacity:0.008" fill="#fefffe" d="M 309.5,347.5 C 309.5,347.167 309.5,346.833 309.5,346.5C 310.167,346.5 310.833,346.5 311.5,346.5C 311.158,347.338 310.492,347.672 309.5,347.5 Z"/></g>
<g><path style="opacity:0.008" fill="#fefffe" d="M 309.5,347.5 C 308.833,348.167 308.833,348.167 309.5,347.5 Z"/></g>
<g><path style="opacity:0.008" fill="#fefffe" d="M 306.5,348.5 C 307.833,349.167 307.833,349.167 306.5,348.5 Z"/></g>
<g><path style="opacity:0.008" fill="#fefffe" d="M 304.5,350.5 C 304.5,350.167 304.5,349.833 304.5,349.5C 305.167,349.5 305.833,349.5 306.5,349.5C 306.158,350.338 305.492,350.672 304.5,350.5 Z"/></g>
<g><path style="opacity:0.008" fill="#fefffe" d="M 302.5,351.5 C 302.5,351.167 302.5,350.833 302.5,350.5C 303.167,350.5 303.833,350.5 304.5,350.5C 304.158,351.338 303.492,351.672 302.5,351.5 Z"/></g>
<g><path style="opacity:0.008" fill="#fefffe" d="M 302.5,351.5 C 301.833,352.167 301.833,352.167 302.5,351.5 Z"/></g>
<g><path style="opacity:0.008" fill="#fefffe" d="M 299.5,352.5 C 300.833,353.167 300.833,353.167 299.5,352.5 Z"/></g>
<g><path style="opacity:0.008" fill="#fefffe" d="M 297.5,354.5 C 297.5,354.167 297.5,353.833 297.5,353.5C 298.167,353.5 298.833,353.5 299.5,353.5C 299.158,354.338 298.492,354.672 297.5,354.5 Z"/></g>
<g><path style="opacity:0.008" fill="#fefffe" d="M 295.5,355.5 C 295.5,355.167 295.5,354.833 295.5,354.5C 296.167,354.5 296.833,354.5 297.5,354.5C 297.158,355.338 296.492,355.672 295.5,355.5 Z"/></g>
<g><path style="opacity:0.008" fill="#fefffe" d="M 295.5,355.5 C 294.833,356.167 294.833,356.167 295.5,355.5 Z"/></g>
<g><path style="opacity:0.008" fill="#fefffe" d="M 292.5,356.5 C 293.833,357.167 293.833,357.167 292.5,356.5 Z"/></g>
<g><path style="opacity:0.008" fill="#fefffe" d="M 290.5,357.5 C 291.167,357.5 291.833,357.5 292.5,357.5C 291.833,358.833 291.167,358.833 290.5,357.5 Z"/></g>
<g><path style="opacity:0.008" fill="#fefffe" d="M 288.5,358.5 C 289.833,359.167 289.833,359.167 288.5,358.5 Z"/></g>
<g><path style="opacity:0.008" fill="#fefffe" d="M 288.5,359.5 C 287.833,360.167 287.833,360.167 288.5,359.5 Z"/></g>
<g><path style="opacity:0.008" fill="#fefffe" d="M 285.5,360.5 C 286.833,361.167 286.833,361.167 285.5,360.5 Z"/></g>
<g><path style="opacity:0.016" fill="#fefffe" d="M 283.5,361.5 C 284.833,362.167 284.833,362.167 283.5,361.5 Z"/></g>
<g><path style="opacity:0.008" fill="#fefffe" d="M 281.5,362.5 C 282.833,363.167 282.833,363.167 281.5,362.5 Z"/></g>
<g><path style="opacity:0.008" fill="#fefffe" d="M 281.5,363.5 C 280.833,364.167 280.833,364.167 281.5,363.5 Z"/></g>
<g><path style="opacity:0.008" fill="#fefffe" d="M 278.5,364.5 C 279.833,365.167 279.833,365.167 278.5,364.5 Z"/></g>
<g><path style="opacity:0.008" fill="#fefffe" d="M 276.5,365.5 C 277.833,366.167 277.833,366.167 276.5,365.5 Z"/></g>
<g><path style="opacity:0.008" fill="#fefffe" d="M 274.5,366.5 C 275.833,367.167 275.833,367.167 274.5,366.5 Z"/></g>
<g><path style="opacity:0.008" fill="#fefffe" d="M 272.5,367.5 C 273.167,367.5 273.833,367.5 274.5,367.5C 273.833,368.833 273.167,368.833 272.5,367.5 Z"/></g>
<g><path style="opacity:0.008" fill="#fefffe" d="M 270.5,368.5 C 271.833,369.167 271.833,369.167 270.5,368.5 Z"/></g>
<g><path style="opacity:0.008" fill="#fefffe" d="M 268.5,369.5 C 269.833,370.167 269.833,370.167 268.5,369.5 Z"/></g>
<g><path style="opacity:0.008" fill="#fefffe" d="M 265.5,371.5 C 265.5,371.167 265.5,370.833 265.5,370.5C 268.167,370.833 268.167,371.167 265.5,371.5 Z"/></g>
<g><path style="opacity:0.008" fill="#fefffe" d="M 263.5,371.5 C 264.167,371.5 264.833,371.5 265.5,371.5C 264.833,372.833 264.167,372.833 263.5,371.5 Z"/></g>
<g><path style="opacity:0.008" fill="#fefffe" d="M 260.5,373.5 C 260.5,373.167 260.5,372.833 260.5,372.5C 263.167,372.833 263.167,373.167 260.5,373.5 Z"/></g>
<g><path style="opacity:0.008" fill="#fefffe" d="M 257.5,373.5 C 258.5,373.5 259.5,373.5 260.5,373.5C 259.5,374.833 258.5,374.833 257.5,373.5 Z"/></g>
<g><path style="opacity:0.01" fill="#fefffe" d="M 120.5,375.5 C 121.601,374.402 122.934,374.235 124.5,375C 123.207,375.49 121.873,375.657 120.5,375.5 Z"/></g>
<g><path style="opacity:0.01" fill="#fefffe" d="M 132.5,375.5 C 134.288,374.378 136.288,374.211 138.5,375C 136.527,375.495 134.527,375.662 132.5,375.5 Z"/></g>
<g><path style="opacity:0.012" fill="#fefffe" d="M 254.5,375.5 C 254.897,374.475 255.563,374.308 256.5,375C 255.906,375.464 255.239,375.631 254.5,375.5 Z"/></g>
<g><path style="opacity:0.01" fill="#fefffe" d="M 112.5,376.5 C 114.288,375.378 116.288,375.211 118.5,376C 116.527,376.495 114.527,376.662 112.5,376.5 Z"/></g>
<g><path style="opacity:0.01" fill="#fefffe" d="M 144.5,376.5 C 146.628,375.371 148.961,375.204 151.5,376C 149.19,376.497 146.857,376.663 144.5,376.5 Z"/></g>
<g><path style="opacity:0.01" fill="#fefffe" d="M 249.5,376.5 C 250.601,375.402 251.934,375.235 253.5,376C 252.207,376.49 250.873,376.657 249.5,376.5 Z"/></g>
<g><path style="opacity:0.009" fill="#fefffe" d="M 104.5,376.5 C 106.199,376.34 107.866,376.506 109.5,377C 107.613,377.78 105.946,377.613 104.5,376.5 Z"/></g>
<g><path style="opacity:0.01" fill="#fefffe" d="M 154.5,377.5 C 156.966,376.366 159.633,376.199 162.5,377C 159.854,377.497 157.187,377.664 154.5,377.5 Z"/></g>
<g><path style="opacity:0.009" fill="#fefffe" d="M 241.5,377.5 C 242.946,376.387 244.613,376.22 246.5,377C 244.866,377.494 243.199,377.66 241.5,377.5 Z"/></g>
<g><path style="opacity:0.008" fill="#fefffe" d="M 54.5,379.5 C 53.475,379.103 53.3083,378.437 54,377.5C 54.4643,378.094 54.631,378.761 54.5,379.5 Z"/></g>
<g><path style="opacity:0.008" fill="#fefffe" d="M 99.5,377.5 C 103.243,377.459 103.41,378.126 100,379.5C 99.5357,378.906 99.369,378.239 99.5,377.5 Z"/></g>
<g><path style="opacity:0.01" fill="#fefffe" d="M 168.5,378.5 C 171.304,377.362 174.304,377.195 177.5,378C 174.518,378.498 171.518,378.665 168.5,378.5 Z"/></g>
<g><path style="opacity:0.01" fill="#fefffe" d="M 231.5,378.5 C 233.966,377.366 236.633,377.199 239.5,378C 236.854,378.497 234.187,378.664 231.5,378.5 Z"/></g>
<g><path style="opacity:0.01" fill="#fefffe" d="M 183.5,379.5 C 196.66,378.34 209.994,378.173 223.5,379C 210.171,379.5 196.837,379.667 183.5,379.5 Z"/></g>
<g><path style="opacity:0.008" fill="#fefffe" d="M 54.5,379.5 C 54.8333,379.5 55.1667,379.5 55.5,379.5C 55.3147,380.17 54.9813,380.17 54.5,379.5 Z"/></g>
<g><path style="opacity:0.008" fill="#fefffe" d="M 98.5,380.5 C 99.8333,381.167 99.8333,381.167 98.5,380.5 Z"/></g>
<g><path style="opacity:0.008" fill="#fefffe" d="M 97.5,381.5 C 97.8333,381.5 98.1667,381.5 98.5,381.5C 98.3147,382.17 97.9813,382.17 97.5,381.5 Z"/></g>
<g><path style="opacity:0.008" fill="#fefffe" d="M 57.5,382.5 C 56.8333,383.167 56.8333,383.167 57.5,382.5 Z"/></g>
<g><path style="opacity:0.008" fill="#fefffe" d="M 60.5,385.5 C 60.5,385.833 60.5,386.167 60.5,386.5C 59.8299,386.019 59.8299,385.685 60.5,385.5 Z"/></g>
<g><path style="opacity:0.008" fill="#fefffe" d="M 93.5,386.5 C 93.5,386.167 93.5,385.833 93.5,385.5C 96.1667,385.833 96.1667,386.167 93.5,386.5 Z"/></g>
<g><path style="opacity:0.008" fill="#fefffe" d="M 60.5,386.5 C 61.8333,387.167 61.8333,387.167 60.5,386.5 Z"/></g>
<g><path style="opacity:0.008" fill="#fefffe" d="M 93.5,386.5 C 92.8333,387.167 92.8333,387.167 93.5,386.5 Z"/></g>
<g><path style="opacity:0.008" fill="#fefffe" d="M 64.5,387.5 C 64.5,387.833 64.5,388.167 64.5,388.5C 61.8333,388.167 61.8333,387.833 64.5,387.5 Z"/></g>
<g><path style="opacity:0.008" fill="#fefffe" d="M 90.5,387.5 C 91.8333,388.167 91.8333,388.167 90.5,387.5 Z"/></g>
<g><path style="opacity:0.015" fill="#fefffe" d="M 64.5,388.5 C 72.5069,388.334 80.5069,388.5 88.5,389C 80.3225,389.823 72.3225,389.656 64.5,388.5 Z"/></g>
</svg>
