<?xml version="1.0" encoding="UTF-8"?>
<!DOCTYPE svg PUBLIC "-//W3C//DTD SVG 1.1//EN" "http://www.w3.org/Graphics/SVG/1.1/DTD/svg11.dtd">
<svg xmlns="http://www.w3.org/2000/svg" version="1.1" width="420px" height="420px" style="shape-rendering:geometricPrecision; text-rendering:geometricPrecision; image-rendering:optimizeQuality; fill-rule:evenodd; clip-rule:evenodd" xmlns:xlink="http://www.w3.org/1999/xlink">
<g><path style="opacity:0.016" fill="#74beb2" d="M 197.5,28.5 C 204.989,27.3443 212.655,27.1777 220.5,28C 212.841,28.4997 205.174,28.6664 197.5,28.5 Z"/></g>
<g><path style="opacity:0.004" fill="#74beb2" d="M 222.5,29.5 C 221.833,28.1667 221.833,28.1667 222.5,29.5 Z"/></g>
<g><path style="opacity:0.004" fill="#74beb2" d="M 170.5,29.5 C 171.833,30.1667 171.833,30.1667 170.5,29.5 Z"/></g>
<g><path style="opacity:0.004" fill="#74beb2" d="M 173.5,29.5 C 174.833,30.1667 174.833,30.1667 173.5,29.5 Z"/></g>
<g><path style="opacity:0.886" fill="#74beb2" d="M 222.5,30.5 C 222.78,33.3882 221.447,34.8882 218.5,35C 218.833,35.3333 219.167,35.6667 219.5,36C 214.5,36.6667 209.5,36.6667 204.5,36C 208.833,35.6667 213.167,35.3333 217.5,35C 210.918,34.19 204.418,34.3567 198,35.5C 195.793,34.0031 195.126,32.0031 196,29.5C 204.678,29.1735 213.511,29.5068 222.5,30.5 Z"/></g>
<g><path style="opacity:0.004" fill="#74beb2" d="M 222.5,29.5 C 223.167,29.5 223.5,29.8333 223.5,30.5C 223.167,30.1667 222.833,29.8333 222.5,29.5 Z"/></g>
<g><path style="opacity:0.004" fill="#74beb2" d="M 169.5,32.5 C 168.833,31.1667 168.833,31.1667 169.5,32.5 Z"/></g>
<g><path style="opacity:0.016" fill="#74beb2" d="M 223.5,30.5 C 224.573,31.2506 224.74,32.2506 224,33.5C 223.517,32.552 223.351,31.552 223.5,30.5 Z"/></g>
<g><path style="opacity:0.004" fill="#74beb2" d="M 239.5,32.5 C 238.833,31.1667 238.833,31.1667 239.5,32.5 Z"/></g>
<g><path style="opacity:0.016" fill="#74beb2" d="M 241.5,32.5 C 242.251,31.4265 243.251,31.2599 244.5,32C 243.552,32.4828 242.552,32.6495 241.5,32.5 Z"/></g>
<g><path style="opacity:0.004" fill="#74beb2" d="M 168.5,32.5 C 167.833,33.1667 167.833,33.1667 168.5,32.5 Z"/></g>
<g><path style="opacity:0.016" fill="#74beb2" d="M 175.5,33.5 C 175.369,32.7611 175.536,32.0944 176,31.5C 176.692,32.4368 176.525,33.1034 175.5,33.5 Z"/></g>
<g><path style="opacity:0.016" fill="#74beb2" d="M 245.5,33.5 C 246.251,32.4265 247.251,32.2599 248.5,33C 247.552,33.4828 246.552,33.6495 245.5,33.5 Z"/></g>
<g><path style="opacity:0.004" fill="#74beb2" d="M 237.5,34.5 C 236.833,33.1667 236.833,33.1667 237.5,34.5 Z"/></g>
<g><path style="opacity:0.016" fill="#74beb2" d="M 249.5,34.5 C 250.251,33.4265 251.251,33.2599 252.5,34C 251.552,34.4828 250.552,34.6495 249.5,34.5 Z"/></g>
<g><path style="opacity:0.004" fill="#74beb2" d="M 220.5,35.5 C 221.833,36.1667 221.833,36.1667 220.5,35.5 Z"/></g>
<g><path style="opacity:0.016" fill="#74beb2" d="M 259.5,37.5 C 259.897,36.475 260.563,36.3083 261.5,37C 260.906,37.4643 260.239,37.631 259.5,37.5 Z"/></g>
<g><path style="opacity:0.75" fill="#74beb2" d="M 239.5,32.5 C 240.167,32.5 240.833,32.5 241.5,32.5C 242.568,33.4345 243.901,33.7678 245.5,33.5C 246.568,34.4345 247.901,34.7678 249.5,34.5C 252.619,35.8699 255.952,36.8699 259.5,37.5C 261.69,38.3745 262.69,40.0411 262.5,42.5C 261.833,42.5 261.5,42.8333 261.5,43.5C 259.565,42.8505 257.565,42.5172 255.5,42.5C 254.791,41.596 253.791,41.2627 252.5,41.5C 251.432,40.5655 250.099,40.2322 248.5,40.5C 247.432,39.5655 246.099,39.2322 244.5,39.5C 243.432,38.5655 242.099,38.2322 240.5,38.5C 238.771,37.7638 237.771,36.4305 237.5,34.5C 238.5,34.1667 239.167,33.5 239.5,32.5 Z"/></g>
<g><path style="opacity:0.004" fill="#74beb2" d="M 240.5,38.5 C 240.103,39.525 239.437,39.6917 238.5,39C 239.094,38.5357 239.761,38.369 240.5,38.5 Z"/></g>
<g><path style="opacity:0.016" fill="#74beb2" d="M 121.5,40.5 C 124.304,39.3622 127.304,39.1955 130.5,40C 127.518,40.498 124.518,40.6646 121.5,40.5 Z"/></g>
<g><path style="opacity:0.016" fill="#74beb2" d="M 133.5,40.5 C 136.304,39.3622 139.304,39.1955 142.5,40C 139.518,40.498 136.518,40.6646 133.5,40.5 Z"/></g>
<g><path style="opacity:0.004" fill="#74beb2" d="M 168.5,36.5 C 169.622,38.2884 169.789,40.2884 169,42.5C 168.505,40.5273 168.338,38.5273 168.5,36.5 Z"/></g>
<g><path style="opacity:0.016" fill="#74beb2" d="M 244.5,39.5 C 243.749,40.5735 242.749,40.7401 241.5,40C 242.448,39.5172 243.448,39.3505 244.5,39.5 Z"/></g>
<g><path style="opacity:0.016" fill="#74beb2" d="M 263.5,42.5 C 263.351,41.448 263.517,40.448 264,39.5C 264.74,40.7494 264.573,41.7494 263.5,42.5 Z"/></g>
<g><path style="opacity:0.016" fill="#74beb2" d="M 115.5,41.5 C 116.601,40.4017 117.934,40.235 119.5,41C 118.207,41.49 116.873,41.6567 115.5,41.5 Z"/></g>
<g><path style="opacity:0.016" fill="#74beb2" d="M 144.5,41.5 C 145.601,40.4017 146.934,40.235 148.5,41C 147.207,41.49 145.873,41.6567 144.5,41.5 Z"/></g>
<g><path style="opacity:0.016" fill="#74beb2" d="M 248.5,40.5 C 247.749,41.5735 246.749,41.7401 245.5,41C 246.448,40.5172 247.448,40.3505 248.5,40.5 Z"/></g>
<g><path style="opacity:0.016" fill="#74beb2" d="M 114.5,42.5 C 113.448,42.6495 112.448,42.4828 111.5,42C 112.749,41.2599 113.749,41.4265 114.5,42.5 Z"/></g>
<g><path style="opacity:0.016" fill="#74beb2" d="M 252.5,41.5 C 251.749,42.5735 250.749,42.7401 249.5,42C 250.448,41.5172 251.448,41.3505 252.5,41.5 Z"/></g>
<g><path style="opacity:0.016" fill="#74beb2" d="M 110.5,43.5 C 109.448,43.6495 108.448,43.4828 107.5,43C 108.749,42.2599 109.749,42.4265 110.5,43.5 Z"/></g>
<g><path style="opacity:0.016" fill="#74beb2" d="M 255.5,42.5 C 255.103,43.525 254.437,43.6917 253.5,43C 254.094,42.5357 254.761,42.369 255.5,42.5 Z"/></g>
<g><path style="opacity:0.004" fill="#74beb2" d="M 262.5,42.5 C 262.833,42.5 263.167,42.5 263.5,42.5C 263.315,43.1701 262.981,43.1701 262.5,42.5 Z"/></g>
<g><path style="opacity:0.016" fill="#74beb2" d="M 104.5,44.5 C 104.897,43.475 105.563,43.3083 106.5,44C 105.906,44.4643 105.239,44.631 104.5,44.5 Z"/></g>
<g><path style="opacity:0.016" fill="#74beb2" d="M 256.5,44.5 C 256.897,43.475 257.563,43.3083 258.5,44C 257.906,44.4643 257.239,44.631 256.5,44.5 Z"/></g>
<g><path style="opacity:0.004" fill="#74beb2" d="M 261.5,43.5 C 261.833,43.5 262.167,43.5 262.5,43.5C 262.315,44.1701 261.981,44.1701 261.5,43.5 Z"/></g>
<g><path style="opacity:0.016" fill="#74beb2" d="M 101.5,45.5 C 101.897,44.475 102.563,44.3083 103.5,45C 102.906,45.4643 102.239,45.631 101.5,45.5 Z"/></g>
<g><path style="opacity:0.004" fill="#74beb2" d="M 261.5,44.5 C 261.103,45.525 260.437,45.6917 259.5,45C 260.094,44.5357 260.761,44.369 261.5,44.5 Z"/></g>
<g><path style="opacity:0.004" fill="#74beb2" d="M 278.5,45.5 C 277.833,44.1667 277.833,44.1667 278.5,45.5 Z"/></g>
<g><path style="opacity:0.004" fill="#74beb2" d="M 101.5,45.5 C 101.5,45.8333 101.5,46.1667 101.5,46.5C 98.8333,46.1667 98.8333,45.8333 101.5,45.5 Z"/></g>
<g><path style="opacity:0.016" fill="#74beb2" d="M 96.5,47.5 C 96.8966,46.475 97.5632,46.3083 98.5,47C 97.9056,47.4643 97.2389,47.631 96.5,47.5 Z"/></g>
<g><path style="opacity:1" fill="#fcfcfd" d="M 177.5,56.5 C 177.5,57.1667 177.833,57.5 178.5,57.5C 179.167,58.8333 179.833,58.8333 180.5,57.5C 181.472,58.8684 182.472,60.3684 183.5,62C 184.931,62.4652 186.097,63.2986 187,64.5C 187.333,64.1667 187.667,63.8333 188,63.5C 189.833,65.3333 191.667,67.1667 193.5,69C 192.85,70.6092 193.35,72.1092 195,73.5C 195.805,71.0989 196.638,71.2656 197.5,74C 196.944,74.3826 196.611,74.8826 196.5,75.5C 196.343,76.8734 196.51,78.2068 197,79.5C 218.847,117.781 214.347,152.615 183.5,184C 155.377,205.096 125.377,208.096 93.5,193C 92.1667,192 92.1667,191 93.5,190C 98.4155,187.293 103.249,184.459 108,181.5C 108.601,180.035 108.101,179.035 106.5,178.5C 99.8062,182.179 93.1395,185.846 86.5,189.5C 82.2458,187.251 78.2458,184.585 74.5,181.5C 74.1667,181.5 73.8333,181.5 73.5,181.5C 73.2435,179.224 71.9102,178.057 69.5,178C 67.9586,176.629 66.6253,175.129 65.5,173.5C 66.1534,172.193 66.8201,170.86 67.5,169.5C 51.8302,144.819 49.3302,118.819 60,91.5C 78.8402,56.6623 108.007,41.829 147.5,47C 155.663,48.8302 163.33,51.8302 170.5,56C 165.423,59.4005 160.089,62.4005 154.5,65C 153.663,66.0113 153.33,67.1779 153.5,68.5C 154.873,68.6567 156.207,68.49 157.5,68C 164.058,63.8903 170.725,60.057 177.5,56.5 Z"/></g>
<g><path style="opacity:0.016" fill="#74beb2" d="M 177.5,43.5 C 178.622,45.2884 178.789,47.2884 178,49.5C 177.505,47.5273 177.338,45.5273 177.5,43.5 Z"/></g>
<g><path style="opacity:0.004" fill="#74beb2" d="M 276.5,49.5 C 275.833,50.1667 275.833,50.1667 276.5,49.5 Z"/></g>
<g><path style="opacity:0.016" fill="#74beb2" d="M 293.5,51.5 C 294.833,52.1667 294.833,52.1667 293.5,51.5 Z"/></g>
<g><path style="opacity:0.004" fill="#74beb2" d="M 180.5,57.5 C 179.833,57.5 179.167,57.5 178.5,57.5C 178.558,51.0143 179.224,51.0143 180.5,57.5 Z"/></g>
<g><path style="opacity:0.016" fill="#74beb2" d="M 295.5,52.5 C 296.833,53.1667 296.833,53.1667 295.5,52.5 Z"/></g>
<g><path style="opacity:0.766" fill="#74beb2" d="M 278.5,45.5 C 283.375,48.1043 288.375,50.4376 293.5,52.5C 295.715,54.757 298.048,56.0903 300.5,56.5C 300.067,59.2589 298.4,60.5922 295.5,60.5C 294.101,59.1103 292.434,58.1103 290.5,57.5C 287.564,54.8501 284.231,53.6834 280.5,54C 280.833,53.6667 281.167,53.3333 281.5,53C 279.804,51.8236 278.138,50.657 276.5,49.5C 276.733,47.9382 277.4,46.6049 278.5,45.5 Z"/></g>
<g><path style="opacity:0.816" fill="#74beb2" d="M 175.5,33.5 C 175.343,34.8734 175.51,36.2068 176,37.5C 177.003,35.0649 177.503,35.3982 177.5,38.5C 177.333,39.5 177.167,40.5 177,41.5C 176.346,40.3044 175.846,40.3044 175.5,41.5C 176.575,46.4344 177.242,51.4344 177.5,56.5C 170.725,60.057 164.058,63.8903 157.5,68C 156.207,68.49 154.873,68.6567 153.5,68.5C 153.33,67.1779 153.663,66.0113 154.5,65C 160.089,62.4005 165.423,59.4005 170.5,56C 163.33,51.8302 155.663,48.8302 147.5,47C 108.007,41.829 78.8402,56.6623 60,91.5C 49.3302,118.819 51.8302,144.819 67.5,169.5C 66.8201,170.86 66.1534,172.193 65.5,173.5C 63.6214,173.607 63.2881,173.107 64.5,172C 63.3636,170.855 62.3636,169.688 61.5,168.5C 61.1667,167.167 60.8333,167.167 60.5,168.5C 58.4012,167.63 58.0679,166.297 59.5,164.5C 58.7255,162.604 57.7255,160.937 56.5,159.5C 56.6716,158.508 56.3382,157.842 55.5,157.5C 55.6716,156.508 55.3382,155.842 54.5,155.5C 54.6716,154.508 54.3382,153.842 53.5,153.5C 53.5905,150.848 52.9238,148.515 51.5,146.5C 51.2397,142.698 50.4064,139.031 49,135.5C 48.6667,135.833 48.3333,136.167 48,136.5C 47.3333,134.5 47.3333,132.5 48,130.5C 48.3333,131.833 48.6667,133.167 49,134.5C 49.1667,133.667 49.3333,132.833 49.5,132C 48.2616,127.474 48.2616,122.974 49.5,118.5C 47.6554,116.464 47.1554,114.13 48,111.5C 48.3333,113.167 48.6667,114.833 49,116.5C 49.7189,112.855 50.2189,109.188 50.5,105.5C 51.6601,103.831 51.6601,101.997 50.5,100C 51,98.5 51.5,97 52,95.5C 52.3333,96.5 52.6667,97.5 53,98.5C 54.1356,95.9036 54.969,93.237 55.5,90.5C 56.8333,89.8333 56.8333,89.1667 55.5,88.5C 55.7086,87.0783 56.2086,85.745 57,84.5C 57.3333,85.1667 57.6667,85.8333 58,86.5C 63.3328,76.1684 70.4994,67.3351 79.5,60C 78.3463,59.0862 78.513,58.2529 80,57.5C 80.3333,57.8333 80.6667,58.1667 81,58.5C 87.3539,53.5769 94.1873,49.5769 101.5,46.5C 104.785,46.0719 107.785,45.0719 110.5,43.5C 112.099,43.7678 113.432,43.4345 114.5,42.5C 127.557,40.9519 140.557,41.2853 153.5,43.5C 154.568,44.4345 155.901,44.7678 157.5,44.5C 158.78,45.9313 160.447,46.5979 162.5,46.5C 163.209,47.404 164.209,47.7373 165.5,47.5C 167.902,48.5281 169.402,47.5281 170,44.5C 170.556,46.5951 171.056,46.7618 171.5,45C 170.71,40.847 170.044,36.6803 169.5,32.5C 171.831,31.0048 173.831,31.3382 175.5,33.5 Z"/></g>
<g><path style="opacity:0.016" fill="#74beb2" d="M 165.5,46.5 C 166.833,47.1667 166.833,47.1667 165.5,46.5 Z"/></g>
<g><path style="opacity:0.016" fill="#74beb2" d="M 162.5,46.5 C 162.5,46.1667 162.5,45.8333 162.5,45.5C 165.167,45.8333 165.167,46.1667 162.5,46.5 Z"/></g>
<g><path style="opacity:0.004" fill="#74beb2" d="M 162.5,45.5 C 161.761,45.631 161.094,45.4643 160.5,45C 161.437,44.3083 162.103,44.475 162.5,45.5 Z"/></g>
<g><path style="opacity:0.004" fill="#74beb2" d="M 157.5,44.5 C 157.897,43.475 158.563,43.3083 159.5,44C 158.906,44.4643 158.239,44.631 157.5,44.5 Z"/></g>
<g><path style="opacity:0.016" fill="#74beb2" d="M 153.5,43.5 C 154.251,42.4265 155.251,42.2599 156.5,43C 155.552,43.4828 154.552,43.6495 153.5,43.5 Z"/></g>
<g><path style="opacity:0.004" fill="#74beb2" d="M 150.5,42.5 C 150.897,41.475 151.563,41.3083 152.5,42C 151.906,42.4643 151.239,42.631 150.5,42.5 Z"/></g>
<g><path style="opacity:0.004" fill="#74beb2" d="M 290.5,57.5 C 290.5,57.8333 290.5,58.1667 290.5,58.5C 287.833,58.1667 287.833,57.8333 290.5,57.5 Z"/></g>
<g><path style="opacity:0.016" fill="#74beb2" d="M 300.5,56.5 C 301.573,57.2506 301.74,58.2506 301,59.5C 300.517,58.552 300.351,57.552 300.5,56.5 Z"/></g>
<g><path style="opacity:0.016" fill="#74beb2" d="M 290.5,58.5 C 291.833,59.1667 291.833,59.1667 290.5,58.5 Z"/></g>
<g><path style="opacity:0.016" fill="#74beb2" d="M 295.5,60.5 C 295.5,60.8333 295.5,61.1667 295.5,61.5C 292.833,61.1667 292.833,60.8333 295.5,60.5 Z"/></g>
<g><path style="opacity:0.016" fill="#74beb2" d="M 295.5,61.5 C 296.552,61.3505 297.552,61.5172 298.5,62C 297.251,62.7401 296.251,62.5735 295.5,61.5 Z"/></g>
<g><path style="opacity:0.016" fill="#74beb2" d="M 309.5,68.5 C 310.573,69.2506 310.74,70.2506 310,71.5C 309.517,70.552 309.351,69.552 309.5,68.5 Z"/></g>
<g><path style="opacity:1" fill="#74beb2" d="M 331.5,85.5 C 330.391,85.5569 329.391,85.8902 328.5,86.5C 324.391,81.0524 319.391,76.7191 313.5,73.5C 310.395,69.9659 311.062,68.1326 315.5,68C 320.667,72.5 325.833,77 331,81.5C 331.49,82.7932 331.657,84.1266 331.5,85.5 Z"/></g>
<g><path style="opacity:0.016" fill="#74beb2" d="M 313.5,73.5 C 313.5,73.8333 313.5,74.1667 313.5,74.5C 312.83,74.0187 312.83,73.6853 313.5,73.5 Z"/></g>
<g><path style="opacity:0.004" fill="#74beb2" d="M 200.5,75.5 C 199.833,74.1667 199.833,74.1667 200.5,75.5 Z"/></g>
<g><path style="opacity:0.004" fill="#74beb2" d="M 313.5,74.5 C 314.833,75.1667 314.833,75.1667 313.5,74.5 Z"/></g>
<g><path style="opacity:0.004" fill="#74beb2" d="M 200.5,75.5 C 201.167,75.5 201.5,75.8333 201.5,76.5C 201.167,76.1667 200.833,75.8333 200.5,75.5 Z"/></g>
<g><path style="opacity:0.004" fill="#74beb2" d="M 61.5,76.5 C 62.8333,77.1667 62.8333,77.1667 61.5,76.5 Z"/></g>
<g><path style="opacity:0.008" fill="#74beb2" d="M 201.5,76.5 C 205.846,76.3343 210.179,76.501 214.5,77C 209.98,77.8136 205.646,77.647 201.5,76.5 Z"/></g>
<g><path style="opacity:0.008" fill="#74beb2" d="M 217.5,78.5 C 219.288,77.3775 221.288,77.2109 223.5,78C 221.527,78.4955 219.527,78.6621 217.5,78.5 Z"/></g>
<g><path style="opacity:0.995" fill="#74beb2" d="M 200.5,78.5 C 209.891,78.8396 219.224,79.0063 228.5,79C 227.5,79.3333 226.5,79.6667 225.5,80C 229.782,81.1566 234.116,81.9899 238.5,82.5C 242.216,84.4053 246.216,85.7387 250.5,86.5C 252.396,87.4805 254.396,88.4805 256.5,89.5C 257.167,89.1667 257.833,88.8333 258.5,88.5C 258.736,89.2472 259.07,90.0805 259.5,91C 261.706,92.8071 264.039,93.3071 266.5,92.5C 267.696,92.8457 267.696,93.3457 266.5,94C 267.244,95.0386 268.244,95.5386 269.5,95.5C 271.724,98.1224 274.391,99.289 277.5,99C 277.167,99.3333 276.833,99.6667 276.5,100C 278.909,102.541 281.576,103.874 284.5,104C 283.833,104.333 283.167,104.667 282.5,105C 284.604,107.238 286.938,108.238 289.5,108C 288.833,108.333 288.167,108.667 287.5,109C 291,111.669 294.333,114.502 297.5,117.5C 297.5,118.167 297.833,118.5 298.5,118.5C 290.83,119.972 288.33,124.638 291,132.5C 292.019,133.687 293.186,134.687 294.5,135.5C 295.833,154.167 295.833,172.833 294.5,191.5C 288.668,184.083 281.001,180.083 271.5,179.5C 271.187,176.753 271.52,174.086 272.5,171.5C 278.364,167.776 281.698,162.442 282.5,155.5C 285.47,154.363 287.636,152.363 289,149.5C 287.953,140.672 287.287,131.672 287,122.5C 286.07,119.638 284.403,117.305 282,115.5C 281.506,113.866 281.34,112.199 281.5,110.5C 269.495,110.333 257.495,110.5 245.5,111C 241.281,113.552 238.114,117.052 236,121.5C 236.029,129.696 235.196,137.696 233.5,145.5C 233.648,150.971 236.315,154.304 241.5,155.5C 241.408,162.657 244.408,167.99 250.5,171.5C 251.48,174.086 251.813,176.753 251.5,179.5C 237.394,181.095 228.227,188.762 224,202.5C 223.333,222.833 223.333,243.167 224,263.5C 226.629,268.564 230.796,270.564 236.5,269.5C 236.5,273.833 236.5,278.167 236.5,282.5C 238.099,282.768 239.432,282.434 240.5,281.5C 247.167,281.5 253.833,281.5 260.5,281.5C 261.209,282.404 262.209,282.737 263.5,282.5C 263.5,273.167 263.5,263.833 263.5,254.5C 264.493,263.318 264.827,272.318 264.5,281.5C 270.833,281.5 277.167,281.5 283.5,281.5C 283.833,281.5 284.167,281.5 284.5,281.5C 285.209,282.404 286.209,282.737 287.5,282.5C 287.333,262.831 287.5,243.164 288,223.5C 292.401,232.291 299.568,236.958 309.5,237.5C 311.374,237.61 312.874,236.944 314,235.5C 315.057,231.547 316.557,227.88 318.5,224.5C 324.167,224.5 329.833,224.5 335.5,224.5C 335.5,224.833 335.5,225.167 335.5,225.5C 333.777,227.78 333.111,230.447 333.5,233.5C 324.679,236.457 315.679,238.957 306.5,241C 302.634,243.755 302.634,246.421 306.5,249C 310.07,250.31 313.737,251.143 317.5,251.5C 317.334,258.175 317.5,264.842 318,271.5C 318.513,272.527 319.013,273.527 319.5,274.5C 318.5,274.833 317.833,275.5 317.5,276.5C 316.662,276.842 316.328,277.508 316.5,278.5C 315.833,278.5 315.5,278.833 315.5,279.5C 314.662,279.842 314.328,280.508 314.5,281.5C 313.833,281.5 313.5,281.833 313.5,282.5C 312.167,283.167 312.167,283.833 313.5,284.5C 311.959,285.667 310.625,287 309.5,288.5C 308.167,288.833 308.167,289.167 309.5,289.5C 308.92,291.749 307.587,293.415 305.5,294.5C 305.167,293.167 304.833,293.167 304.5,294.5C 301.949,295.775 300.949,297.609 301.5,300C 300.295,301.376 298.962,302.542 297.5,303.5C 297.167,302.167 296.833,302.167 296.5,303.5C 295.833,303.5 295.5,303.833 295.5,304.5C 294.167,304.833 294.167,305.167 295.5,305.5C 295.167,306.5 294.5,307.167 293.5,307.5C 293.167,306.167 292.833,306.167 292.5,307.5C 291.833,307.5 291.5,307.833 291.5,308.5C 290.833,308.5 290.5,308.833 290.5,309.5C 289.508,309.328 288.842,309.662 288.5,310.5C 287.833,310.5 287.5,310.833 287.5,311.5C 286.833,311.5 286.5,311.833 286.5,312.5C 285.833,312.5 285.5,312.833 285.5,313.5C 284.508,313.328 283.842,313.662 283.5,314.5C 282.833,314.5 282.5,314.833 282.5,315.5C 281.833,315.5 281.5,315.833 281.5,316.5C 280.508,316.328 279.842,316.662 279.5,317.5C 278.833,317.5 278.5,317.833 278.5,318.5C 277.508,318.328 276.842,318.662 276.5,319.5C 275.833,319.5 275.5,319.833 275.5,320.5C 273.973,320.427 272.973,321.094 272.5,322.5C 271.508,322.328 270.842,322.662 270.5,323.5C 268.973,323.427 267.973,324.094 267.5,325.5C 266.833,326.167 266.167,326.833 265.5,327.5C 264.833,326.167 264.167,326.167 263.5,327.5C 260.833,327.833 260.833,328.167 263.5,328.5C 261.684,330.441 259.684,331.108 257.5,330.5C 256.778,330.918 256.278,331.584 256,332.5C 255.147,330.397 253.98,330.397 252.5,332.5C 251.448,332.351 250.448,332.517 249.5,333C 248.167,333.667 248.167,334.333 249.5,335C 248.551,335.617 247.718,335.451 247,334.5C 246.692,335.308 246.192,335.975 245.5,336.5C 243.088,335.182 240.754,335.349 238.5,337C 240.595,337.556 240.762,338.056 239,338.5C 237.535,337.67 236.035,337.504 234.5,338C 235.167,338.333 235.833,338.667 236.5,339C 234.645,339.422 232.811,339.922 231,340.5C 229.989,340.108 229.489,339.441 229.5,338.5C 227.929,339.309 226.262,339.643 224.5,339.5C 223.62,337.863 222.954,336.03 222.5,334C 224.131,330.34 226.797,328.34 230.5,328C 232.013,330.846 234.179,333.013 237,334.5C 237.945,334.095 238.612,333.428 239,332.5C 239.815,322.168 240.148,311.835 240,301.5C 239.167,300.667 238.333,299.833 237.5,299C 227.172,298.5 216.839,298.334 206.5,298.5C 207.665,301.693 209.331,304.693 211.5,307.5C 211.167,308.5 210.5,309.167 209.5,309.5C 206.95,308.058 204.284,306.892 201.5,306C 191.833,305.667 182.167,305.333 172.5,305C 168.969,299.133 163.969,295.133 157.5,293C 145.833,292.333 134.167,292.333 122.5,293C 117.404,295.282 113.071,298.449 109.5,302.5C 108.58,301.933 108.246,302.599 108.5,304.5C 108.167,304.5 107.833,304.5 107.5,304.5C 106.757,302.304 106.424,300.304 106.5,298.5C 115.128,294.974 120.794,288.641 123.5,279.5C 130.849,285.247 139.183,287.08 148.5,285C 151.329,283.753 153.995,282.253 156.5,280.5C 166.722,300.408 181.389,304.575 200.5,293C 208.995,283.4 210.828,272.566 206,260.5C 195.178,246.446 182.011,243.78 166.5,252.5C 157.404,234.414 143.737,229.58 125.5,238C 120.495,241.856 116.828,246.69 114.5,252.5C 102.51,245.529 90.843,245.863 79.5,253.5C 78.7701,252.288 77.7701,251.288 76.5,250.5C 77.1667,250.167 77.8333,249.833 78.5,249.5C 78.0576,248.261 77.3909,247.261 76.5,246.5C 75.016,245.527 74.516,244.193 75,242.5C 76.2465,244.881 76.5798,244.547 76,241.5C 75.3333,240.167 74.6667,240.167 74,241.5C 73.342,239.892 73.842,238.725 75.5,238C 75.0236,234.558 73.6903,231.558 71.5,229C 71.5852,227.893 71.9186,226.893 72.5,226C 70.9716,224.352 70.3049,222.352 70.5,220C 70.2425,216.939 70.9092,214.939 72.5,214C 72.0366,208.8 71.8699,203.3 72,197.5C 71.6667,199.833 71.3333,202.167 71,204.5C 70.8333,203 70.6667,201.5 70.5,200C 71.8666,197.519 72.8666,194.186 73.5,190C 72.9695,187.183 72.6361,184.35 72.5,181.5C 72.8333,181.5 73.1667,181.5 73.5,181.5C 73.8333,185.5 74.1667,185.5 74.5,181.5C 78.2458,184.585 82.2458,187.251 86.5,189.5C 86.0705,197.784 86.5705,206.118 88,214.5C 89.0113,215.337 90.1779,215.67 91.5,215.5C 91.4495,209.263 90.7828,203.096 89.5,197C 89.8333,196.5 90.1667,196 90.5,195.5C 129.717,214.714 164.55,208.714 195,177.5C 218.632,145.594 220.465,112.594 200.5,78.5 Z"/></g>
<g><path style="opacity:0.008" fill="#74beb2" d="M 230.5,80.5 C 231.251,79.4265 232.251,79.2599 233.5,80C 232.552,80.4828 231.552,80.6495 230.5,80.5 Z"/></g>
<g><path style="opacity:0.008" fill="#74beb2" d="M 235.5,81.5 C 235.897,80.475 236.563,80.3083 237.5,81C 236.906,81.4643 236.239,81.631 235.5,81.5 Z"/></g>
<g><path style="opacity:0.02" fill="#74beb2" d="M 238.5,82.5 C 239.251,81.4265 240.251,81.2599 241.5,82C 240.552,82.4828 239.552,82.6495 238.5,82.5 Z"/></g>
<g><path style="opacity:0.004" fill="#74beb2" d="M 332.5,85.5 C 332.343,84.1266 332.51,82.7932 333,81.5C 333.765,83.0657 333.598,84.3991 332.5,85.5 Z"/></g>
<g><path style="opacity:0.004" fill="#74beb2" d="M 242.5,83.5 C 242.897,82.475 243.563,82.3083 244.5,83C 243.906,83.4643 243.239,83.631 242.5,83.5 Z"/></g>
<g><path style="opacity:0.004" fill="#74beb2" d="M 245.5,84.5 C 245.897,83.475 246.563,83.3083 247.5,84C 246.906,84.4643 246.239,84.631 245.5,84.5 Z"/></g>
<g><path style="opacity:0.008" fill="#74beb2" d="M 250.5,86.5 C 250.897,85.475 251.563,85.3083 252.5,86C 251.906,86.4643 251.239,86.631 250.5,86.5 Z"/></g>
<g><path style="opacity:0.004" fill="#74beb2" d="M 331.5,85.5 C 331.833,85.5 332.167,85.5 332.5,85.5C 332.315,86.1701 331.981,86.1701 331.5,85.5 Z"/></g>
<g><path style="opacity:0.004" fill="#74beb2" d="M 328.5,86.5 C 327.833,87.1667 327.833,87.1667 328.5,86.5 Z"/></g>
<g><path style="opacity:0.004" fill="#74beb2" d="M 331.5,86.5 C 330.833,87.1667 330.833,87.1667 331.5,86.5 Z"/></g>
<g><path style="opacity:0.016" fill="#74beb2" d="M 55.5,88.5 C 55.5,89.1667 55.5,89.8333 55.5,90.5C 55.1667,90.5 54.8333,90.5 54.5,90.5C 54.3284,89.5084 54.6618,88.8417 55.5,88.5 Z"/></g>
<g><path style="opacity:0.016" fill="#74beb2" d="M 54.5,90.5 C 54.631,91.2389 54.4643,91.9056 54,92.5C 53.3083,91.5632 53.475,90.8966 54.5,90.5 Z"/></g>
<g><path style="opacity:0.008" fill="#74beb2" d="M 269.5,94.5 C 270.833,95.1667 270.833,95.1667 269.5,94.5 Z"/></g>
<g><path style="opacity:0.008" fill="#74beb2" d="M 271.5,95.5 C 272.833,96.1667 272.833,96.1667 271.5,95.5 Z"/></g>
<g><path style="opacity:0.016" fill="#74beb2" d="M 50.5,105.5 C 49.4265,104.749 49.2599,103.749 50,102.5C 50.4828,103.448 50.6495,104.448 50.5,105.5 Z"/></g>
<g><path style="opacity:0.016" fill="#74beb2" d="M 48.5,106.5 C 49.5735,107.251 49.7401,108.251 49,109.5C 48.5172,108.552 48.3505,107.552 48.5,106.5 Z"/></g>
<g><path style="opacity:0.016" fill="#74beb2" d="M 340.5,108.5 C 340.897,107.475 341.563,107.308 342.5,108C 341.906,108.464 341.239,108.631 340.5,108.5 Z"/></g>
<g><path style="opacity:0.016" fill="#74beb2" d="M 343.5,108.5 C 344.251,107.427 345.251,107.26 346.5,108C 345.552,108.483 344.552,108.649 343.5,108.5 Z"/></g>
<g><path style="opacity:0.004" fill="#74beb2" d="M 351.5,113.5 C 351.167,113.5 350.833,113.5 350.5,113.5C 350.833,110.833 351.167,110.833 351.5,113.5 Z"/></g>
<g><path style="opacity:0.016" fill="#74beb2" d="M 351.5,113.5 C 352.598,114.601 352.765,115.934 352,117.5C 351.51,116.207 351.343,114.873 351.5,113.5 Z"/></g>
<g><path style="opacity:0.998" fill="#74beb2" d="M 132.5,87.5 C 154.677,92.1669 176.51,98.1669 198,105.5C 198.743,107.441 198.576,109.274 197.5,111C 190.567,112.94 183.734,115.106 177,117.5C 176.667,128.5 176.333,139.5 176,150.5C 175.535,151.931 174.701,153.097 173.5,154C 149.304,162.255 124.97,162.588 100.5,155C 98.9512,153.786 97.7845,152.286 97,150.5C 96.8324,139.485 96.3324,128.485 95.5,117.5C 90.1667,115.833 84.8333,114.167 79.5,112.5C 78.6681,121.148 78.1681,129.814 78,138.5C 76.9887,139.337 75.8221,139.67 74.5,139.5C 74.1789,127.919 74.5122,116.419 75.5,105C 94.5563,99.0344 113.556,93.2011 132.5,87.5 Z"/></g>
<g><path style="opacity:1" fill="#74beb2" d="M 131.5,91.5 C 134.518,91.3354 137.518,91.502 140.5,92C 158.305,96.9586 175.971,102.292 193.5,108C 175.874,113.489 158.208,118.823 140.5,124C 136.095,124.696 131.761,124.363 127.5,123C 111.093,118.15 94.7593,113.15 78.5,108C 96.315,102.559 113.982,97.0591 131.5,91.5 Z"/></g>
<g><path style="opacity:1" fill="#74beb2" d="M 102.5,119.5 C 100.526,129.111 99.859,139.111 100.5,149.5C 99.5058,139.347 99.1724,129.014 99.5,118.5C 100.791,118.263 101.791,118.596 102.5,119.5 Z"/></g>
<g><path style="opacity:1" fill="#74beb2" d="M 102.5,119.5 C 113.44,122.702 124.44,125.702 135.5,128.5C 147.83,125.369 160.163,122.369 172.5,119.5C 172.82,130.082 172.487,140.582 171.5,151C 148.608,157.885 125.608,158.218 102.5,152C 101.619,151.292 100.953,150.458 100.5,149.5C 99.859,139.111 100.526,129.111 102.5,119.5 Z"/></g>
<g><path style="opacity:1" fill="#74beb2" d="M 295.5,123.5 C 327.833,123.5 360.167,123.5 392.5,123.5C 392.5,126.167 392.5,128.833 392.5,131.5C 359.833,131.5 327.167,131.5 294.5,131.5C 294.194,128.615 294.527,125.948 295.5,123.5 Z"/></g>
<g><path style="opacity:0.004" fill="#74beb2" d="M 397.5,133.5 C 397.334,129.486 397.501,125.486 398,121.5C 398.812,125.689 398.645,129.689 397.5,133.5 Z"/></g>
<g><path style="opacity:0.016" fill="#74beb2" d="M 396.5,133.5 C 396.833,133.5 397.167,133.5 397.5,133.5C 397.315,134.17 396.981,134.17 396.5,133.5 Z"/></g>
<g><path style="opacity:0.004" fill="#74beb2" d="M 395.5,134.5 C 395.833,134.5 396.167,134.5 396.5,134.5C 396.315,135.17 395.981,135.17 395.5,134.5 Z"/></g>
<g><path style="opacity:1" fill="#74beb2" d="M 295.5,123.5 C 329.069,122.171 362.736,122.171 396.5,123.5C 396.5,126.833 396.5,130.167 396.5,133.5C 395.833,133.5 395.5,133.833 395.5,134.5C 394.833,134.5 394.5,134.833 394.5,135.5C 393.833,135.5 393.5,135.833 393.5,136.5C 393.167,136.5 392.833,136.5 392.5,136.5C 391.883,136.389 391.383,136.056 391,135.5C 390.833,137 390.667,138.5 390.5,140C 390.256,163.026 390.589,186.36 391.5,210C 390.707,213.411 390.207,216.911 390,220.5C 389.667,192.167 389.333,163.833 389,135.5C 388.832,163.336 388.332,191.003 387.5,218.5C 387.5,190.833 387.5,163.167 387.5,135.5C 358.167,135.5 328.833,135.5 299.5,135.5C 330.045,134.969 360.712,134.136 391.5,133C 358.997,132.832 326.664,132.332 294.5,131.5C 327.167,131.5 359.833,131.5 392.5,131.5C 392.5,128.833 392.5,126.167 392.5,123.5C 360.167,123.5 327.833,123.5 295.5,123.5 Z"/></g>
<g><path style="opacity:0.004" fill="#74beb2" d="M 394.5,135.5 C 394.833,135.5 395.167,135.5 395.5,135.5C 395.315,136.17 394.981,136.17 394.5,135.5 Z"/></g>
<g><path style="opacity:0.004" fill="#74beb2" d="M 393.5,136.5 C 393.833,136.5 394.167,136.5 394.5,136.5C 394.167,245.833 393.833,245.833 393.5,136.5 Z"/></g>
<g><path style="opacity:0.004" fill="#74beb2" d="M 48.5,138.5 C 49.5983,139.601 49.765,140.934 49,142.5C 48.51,141.207 48.3433,139.873 48.5,138.5 Z"/></g>
<g><path style="opacity:0.016" fill="#74beb2" d="M 50.5,146.5 C 49.4265,145.749 49.2599,144.749 50,143.5C 50.4828,144.448 50.6495,145.448 50.5,146.5 Z"/></g>
<g><path style="opacity:0.016" fill="#74beb2" d="M 50.5,146.5 C 50.8333,146.5 51.1667,146.5 51.5,146.5C 51.1667,150.5 50.8333,150.5 50.5,146.5 Z"/></g>
<g><path style="opacity:0.004" fill="#74beb2" d="M 51.5,150.5 C 52.525,150.897 52.6917,151.563 52,152.5C 51.5357,151.906 51.369,151.239 51.5,150.5 Z"/></g>
<g><path style="opacity:0.016" fill="#74beb2" d="M 53.5,153.5 C 52.8333,154.167 52.8333,154.167 53.5,153.5 Z"/></g>
<g><path style="opacity:0.016" fill="#74beb2" d="M 31.5,155.5 C 31.8966,154.475 32.5632,154.308 33.5,155C 32.9056,155.464 32.2389,155.631 31.5,155.5 Z"/></g>
<g><path style="opacity:0.004" fill="#74beb2" d="M 35.5,156.5 C 36.8333,157.167 36.8333,157.167 35.5,156.5 Z"/></g>
<g><path style="opacity:0.004" fill="#74beb2" d="M 54.5,155.5 C 54.5,156.167 54.5,156.833 54.5,157.5C 53.1667,156.833 53.1667,156.167 54.5,155.5 Z"/></g>
<g><path style="opacity:0.016" fill="#74beb2" d="M 28.5,157.5 C 29.8333,158.167 29.8333,158.167 28.5,157.5 Z"/></g>
<g><path style="opacity:1" fill="#74beb2" d="M 350.5,113.5 C 350.338,115.527 350.505,117.527 351,119.5C 364.758,118.344 378.592,118.177 392.5,119C 394.751,119.748 396.084,121.248 396.5,123.5C 362.736,122.171 329.069,122.171 295.5,123.5C 294.527,125.948 294.194,128.615 294.5,131.5C 326.664,132.332 358.997,132.832 391.5,133C 360.712,134.136 330.045,134.969 299.5,135.5C 298.172,157.004 298.172,178.67 299.5,200.5C 300.107,200.376 300.44,200.043 300.5,199.5C 304.401,198.857 307.734,199.857 310.5,202.5C 316.482,187.725 321.982,172.725 327,157.5C 327.572,154.293 329.405,152.626 332.5,152.5C 327.04,168.879 321.373,185.212 315.5,201.5C 315.608,202.442 315.941,203.275 316.5,204C 319.548,204.606 322.048,206.106 324,208.5C 323.45,212.554 322.616,216.554 321.5,220.5C 343.169,220.667 364.836,220.5 386.5,220C 387.056,219.617 387.389,219.117 387.5,218.5C 388.332,191.003 388.832,163.336 389,135.5C 389.333,163.833 389.667,192.167 390,220.5C 390.207,216.911 390.707,213.411 391.5,210C 390.589,186.36 390.256,163.026 390.5,140C 390.667,138.5 390.833,137 391,135.5C 391.383,136.056 391.883,136.389 392.5,136.5C 392.5,164.167 392.5,191.833 392.5,219.5C 391.662,219.842 391.328,220.508 391.5,221.5C 390.833,221.5 390.5,221.833 390.5,222.5C 389.833,222.5 389.5,222.833 389.5,223.5C 388.833,223.5 388.5,223.833 388.5,224.5C 386.621,224.393 386.288,224.893 387.5,226C 369.995,226.829 352.662,226.662 335.5,225.5C 400.833,225.167 400.833,224.833 335.5,224.5C 329.833,224.5 324.167,224.5 318.5,224.5C 316.557,227.88 315.057,231.547 314,235.5C 312.874,236.944 311.374,237.61 309.5,237.5C 299.568,236.958 292.401,232.291 288,223.5C 287.5,243.164 287.333,262.831 287.5,282.5C 286.209,282.737 285.209,282.404 284.5,281.5C 284.5,269.5 284.5,257.5 284.5,245.5C 269.657,245.171 254.99,245.504 240.5,246.5C 240.5,258.167 240.5,269.833 240.5,281.5C 239.432,282.434 238.099,282.768 236.5,282.5C 236.5,278.167 236.5,273.833 236.5,269.5C 230.796,270.564 226.629,268.564 224,263.5C 223.333,243.167 223.333,222.833 224,202.5C 228.227,188.762 237.394,181.095 251.5,179.5C 251.813,176.753 251.48,174.086 250.5,171.5C 244.408,167.99 241.408,162.657 241.5,155.5C 236.315,154.304 233.648,150.971 233.5,145.5C 235.196,137.696 236.029,129.696 236,121.5C 238.114,117.052 241.281,113.552 245.5,111C 257.495,110.5 269.495,110.333 281.5,110.5C 281.34,112.199 281.506,113.866 282,115.5C 284.403,117.305 286.07,119.638 287,122.5C 287.287,131.672 287.953,140.672 289,149.5C 287.636,152.363 285.47,154.363 282.5,155.5C 281.698,162.442 278.364,167.776 272.5,171.5C 271.52,174.086 271.187,176.753 271.5,179.5C 281.001,180.083 288.668,184.083 294.5,191.5C 295.833,172.833 295.833,154.167 294.5,135.5C 293.186,134.687 292.019,133.687 291,132.5C 288.33,124.638 290.83,119.972 298.5,118.5C 311.08,118.178 323.58,118.511 336,119.5C 336.062,110.555 340.228,107.722 348.5,111C 349.066,111.995 349.733,112.828 350.5,113.5 Z M 341.5,114.5 C 342.833,114.5 344.167,114.5 345.5,114.5C 345.66,116.199 345.494,117.866 345,119.5C 343.989,118.663 342.822,118.33 341.5,118.5C 341.5,117.167 341.5,115.833 341.5,114.5 Z"/></g>
<g><path style="opacity:1" fill="#74beb2" d="M 299.5,135.5 C 299.169,157.007 299.503,178.34 300.5,199.5C 300.44,200.043 300.107,200.376 299.5,200.5C 298.172,178.67 298.172,157.004 299.5,135.5 Z"/></g>
<g><path style="opacity:1" fill="#fbfbfc" d="M 299.5,135.5 C 328.833,135.5 358.167,135.5 387.5,135.5C 387.5,163.167 387.5,190.833 387.5,218.5C 387.389,219.117 387.056,219.617 386.5,220C 364.836,220.5 343.169,220.667 321.5,220.5C 322.616,216.554 323.45,212.554 324,208.5C 322.048,206.106 319.548,204.606 316.5,204C 315.941,203.275 315.608,202.442 315.5,201.5C 321.373,185.212 327.04,168.879 332.5,152.5C 329.405,152.626 327.572,154.293 327,157.5C 321.982,172.725 316.482,187.725 310.5,202.5C 307.734,199.857 304.401,198.857 300.5,199.5C 299.503,178.34 299.169,157.007 299.5,135.5 Z"/></g>
<g><path style="opacity:1" fill="#909054" d="M 239.5,123.5 C 239.182,128.032 239.515,132.366 240.5,136.5C 240.44,137.043 240.107,137.376 239.5,137.5C 238.188,132.682 238.188,128.015 239.5,123.5 Z"/></g>
<g><path style="opacity:1" fill="#f9fafc" d="M 255.5,122.5 C 265.65,120.203 273.15,123.536 278,132.5C 278.497,135.146 278.664,137.813 278.5,140.5C 282.865,139.993 285.198,141.826 285.5,146C 285.296,150.369 282.963,152.535 278.5,152.5C 279.127,160.415 275.794,165.915 268.5,169C 253.783,172.923 245.616,167.423 244,152.5C 237.791,151.642 235.957,148.308 238.5,142.5C 240.173,140.914 242.173,140.247 244.5,140.5C 243.621,131.572 247.288,125.572 255.5,122.5 Z"/></g>
<g><path style="opacity:0.02" fill="#74beb2" d="M 297.5,116.5 C 298.833,117.167 298.833,117.167 297.5,116.5 Z"/></g>
<g><path style="opacity:1" fill="#e7dc39" d="M 240.5,136.5 C 239.515,132.366 239.182,128.032 239.5,123.5C 240.921,118.91 243.921,115.744 248.5,114C 258.184,113.168 267.851,113.335 277.5,114.5C 276.129,117.326 277.129,118.826 280.5,119C 282.041,120.579 283.208,122.413 284,124.5C 284.828,128.871 284.661,133.205 283.5,137.5C 279.321,121.588 268.988,115.755 252.5,120C 245.16,123.216 241.16,128.716 240.5,136.5 Z"/></g>
<g><path style="opacity:0.016" fill="#74beb2" d="M 334.5,113.5 C 335.598,114.601 335.765,115.934 335,117.5C 334.51,116.207 334.343,114.873 334.5,113.5 Z"/></g>
<g><path style="opacity:0.016" fill="#74beb2" d="M 342.5,115.5 C 344.337,115.639 344.67,116.306 343.5,117.5C 342.702,117.043 342.369,116.376 342.5,115.5 Z"/></g>
<g><path style="opacity:0.004" fill="#74beb2" d="M 36.5,158.5 C 37.8333,159.167 37.8333,159.167 36.5,158.5 Z"/></g>
<g><path style="opacity:0.016" fill="#74beb2" d="M 54.5,157.5 C 54.8333,157.5 55.1667,157.5 55.5,157.5C 55.5,158.167 55.5,158.833 55.5,159.5C 54.6618,159.158 54.3284,158.492 54.5,157.5 Z"/></g>
<g><path style="opacity:0.016" fill="#74beb2" d="M 27.5,159.5 C 28.5735,160.251 28.7401,161.251 28,162.5C 27.5172,161.552 27.3505,160.552 27.5,159.5 Z"/></g>
<g><path style="opacity:0.016" fill="#74beb2" d="M 55.5,159.5 C 55.8333,159.5 56.1667,159.5 56.5,159.5C 56.1667,162.167 55.8333,162.167 55.5,159.5 Z"/></g>
<g><path style="opacity:0.692" fill="#74beb2" d="M 35.5,157.5 C 36.0138,159.512 36.1805,161.512 36,163.5C 35.3333,162.167 34.6667,162.167 34,163.5C 33.51,164.793 33.3433,166.127 33.5,167.5C 31.8816,171.575 30.8816,175.908 30.5,180.5C 29.8333,180.5 29.5,180.833 29.5,181.5C 28.5,181.5 27.5,181.5 26.5,181.5C 25.715,177.292 24.8817,176.958 24,180.5C 23.36,178.457 23.86,176.79 25.5,175.5C 26.913,172.781 27.5797,169.781 27.5,166.5C 28.8059,163.662 29.9725,160.662 31,157.5C 32.4902,156.272 33.9902,156.272 35.5,157.5 Z"/></g>
<g><path style="opacity:0.016" fill="#74beb2" d="M 27.5,166.5 C 26.4265,165.749 26.2599,164.749 27,163.5C 27.4828,164.448 27.6495,165.448 27.5,166.5 Z"/></g>
<g><path style="opacity:1" fill="#74beb2" d="M 196.5,75.5 C 197.833,75.8333 199.167,76.1667 200.5,76.5C 200.5,77.1667 200.5,77.8333 200.5,78.5C 220.465,112.594 218.632,145.594 195,177.5C 164.55,208.714 129.717,214.714 90.5,195.5C 90.1667,196 89.8333,196.5 89.5,197C 90.7828,203.096 91.4495,209.263 91.5,215.5C 90.1779,215.67 89.0113,215.337 88,214.5C 86.5705,206.118 86.0705,197.784 86.5,189.5C 93.1395,185.846 99.8062,182.179 106.5,178.5C 108.101,179.035 108.601,180.035 108,181.5C 103.249,184.459 98.4155,187.293 93.5,190C 92.1667,191 92.1667,192 93.5,193C 125.377,208.096 155.377,205.096 183.5,184C 214.347,152.615 218.847,117.781 197,79.5C 196.51,78.2068 196.343,76.8734 196.5,75.5 Z"/></g>
<g><path style="opacity:0.004" fill="#74beb2" d="M 34.5,164.5 C 35.525,164.897 35.6917,165.563 35,166.5C 34.5357,165.906 34.369,165.239 34.5,164.5 Z"/></g>
<g><path style="opacity:0.016" fill="#74beb2" d="M 25.5,167.5 C 26.5735,168.251 26.7401,169.251 26,170.5C 25.5172,169.552 25.3505,168.552 25.5,167.5 Z"/></g>
<g><path style="opacity:0.004" fill="#74beb2" d="M 33.5,167.5 C 34.5983,168.601 34.765,169.934 34,171.5C 33.51,170.207 33.3433,168.873 33.5,167.5 Z"/></g>
<g><path style="opacity:0.004" fill="#74beb2" d="M 60.5,168.5 C 60.8333,168.5 61.1667,168.5 61.5,168.5C 61.1667,171.167 60.8333,171.167 60.5,168.5 Z"/></g>
<g><path style="opacity:0.004" fill="#74beb2" d="M 25.5,175.5 C 24.4017,174.399 24.235,173.066 25,171.5C 25.49,172.793 25.6567,174.127 25.5,175.5 Z"/></g>
<g><path style="opacity:0.016" fill="#74beb2" d="M 32.5,172.5 C 33.5735,173.251 33.7401,174.251 33,175.5C 32.5172,174.552 32.3505,173.552 32.5,172.5 Z"/></g>
<g><path style="opacity:1" fill="#f8f8fb" d="M 267.5,181.5 C 266.157,186.078 263.157,187.578 258.5,186C 256.859,184.871 255.859,183.371 255.5,181.5C 255.5,178.833 255.5,176.167 255.5,173.5C 259.5,173.5 263.5,173.5 267.5,173.5C 267.5,176.167 267.5,178.833 267.5,181.5 Z"/></g>
<g><path style="opacity:1" fill="#74beb2" d="M 267.5,181.5 C 267.5,178.833 267.5,176.167 267.5,173.5C 263.5,173.5 259.5,173.5 255.5,173.5C 255.5,176.167 255.5,178.833 255.5,181.5C 254.523,178.713 254.19,175.713 254.5,172.5C 259.167,172.5 263.833,172.5 268.5,172.5C 268.81,175.713 268.477,178.713 267.5,181.5 Z"/></g>
<g><path style="opacity:1" fill="#74beb2" d="M 373.5,146.5 C 381.242,146.063 383.742,149.396 381,156.5C 379.22,157.594 377.386,158.594 375.5,159.5C 374.872,161.258 373.872,162.758 372.5,164C 367.409,164.986 362.409,166.153 357.5,167.5C 354.322,167.327 352.322,165.66 351.5,162.5C 346.297,160.195 342.964,161.695 341.5,167C 345.11,172.799 343.777,176.966 337.5,179.5C 331.909,178.349 330.075,175.016 332,169.5C 336.27,165.809 340.437,161.976 344.5,158C 349.044,157.853 353.377,157.02 357.5,155.5C 361.249,156.08 363.582,158.247 364.5,162C 368.472,162.847 371.138,161.347 372.5,157.5C 369.595,153.407 369.928,149.74 373.5,146.5 Z"/></g>
<g><path style="opacity:1" fill="#dcdded" d="M 335.5,170.5 C 339.161,170.35 340.161,171.85 338.5,175C 334.707,175.487 333.707,173.987 335.5,170.5 Z"/></g>
<g><path style="opacity:1" fill="#dfe1ee" d="M 355.5,159.5 C 356.873,159.343 358.207,159.51 359.5,160C 360.474,162.702 359.474,164.035 356.5,164C 355.62,162.644 355.286,161.144 355.5,159.5 Z"/></g>
<g><path style="opacity:1" fill="#eff0f7" d="M 375.5,149.5 C 378.389,149.999 379.056,151.499 377.5,154C 376.552,154.483 375.552,154.649 374.5,154.5C 374.366,152.708 374.699,151.042 375.5,149.5 Z"/></g>
<g><path style="opacity:0.016" fill="#74beb2" d="M 31.5,177.5 C 32.525,177.897 32.6917,178.563 32,179.5C 31.5357,178.906 31.369,178.239 31.5,177.5 Z"/></g>
<g><path style="opacity:0.008" fill="#74beb2" d="M 71.5,180.5 C 70.8333,179.167 70.8333,179.167 71.5,180.5 Z"/></g>
<g><path style="opacity:0.004" fill="#74beb2" d="M 30.5,180.5 C 31.8333,181.167 31.8333,181.167 30.5,180.5 Z"/></g>
<g><path style="opacity:0.008" fill="#74beb2" d="M 71.5,180.5 C 72.1667,180.5 72.5,180.833 72.5,181.5C 72.1667,181.167 71.8333,180.833 71.5,180.5 Z"/></g>
<g><path style="opacity:0.004" fill="#74beb2" d="M 26.5,181.5 C 25.8333,182.167 25.8333,182.167 26.5,181.5 Z"/></g>
<g><path style="opacity:0.004" fill="#74beb2" d="M 29.5,181.5 C 29.8333,181.5 30.1667,181.5 30.5,181.5C 30.3147,182.17 29.9813,182.17 29.5,181.5 Z"/></g>
<g><path style="opacity:0.004" fill="#74beb2" d="M 29.5,182.5 C 29.1034,183.525 28.4368,183.692 27.5,183C 28.0944,182.536 28.7611,182.369 29.5,182.5 Z"/></g>
<g><path style="opacity:1" fill="#f9eb2e" d="M 284.5,206.5 C 283.505,217.988 283.172,229.655 283.5,241.5C 269.167,241.5 254.833,241.5 240.5,241.5C 240.5,229.5 240.5,217.5 240.5,205.5C 239.5,205.5 238.5,205.5 237.5,205.5C 236.504,218.656 236.171,231.99 236.5,245.5C 233.5,245.5 230.5,245.5 227.5,245.5C 227.5,232.167 227.5,218.833 227.5,205.5C 230.212,191.432 238.545,184.432 252.5,184.5C 256.486,189.63 261.486,190.797 267.5,188C 269.24,185.965 271.074,184.131 273,182.5C 294.317,188.464 300.484,201.464 291.5,221.5C 290.139,219.972 288.972,218.305 288,216.5C 287.501,212.848 287.335,209.182 287.5,205.5C 286.209,205.263 285.209,205.596 284.5,206.5 Z"/></g>
<g><path style="opacity:0.008" fill="#74beb2" d="M 71.5,188.5 C 72.5983,189.601 72.765,190.934 72,192.5C 71.51,191.207 71.3433,189.873 71.5,188.5 Z"/></g>
<g><path style="opacity:0.004" fill="#74beb2" d="M 24.5,195.5 C 24.8966,194.475 25.5632,194.308 26.5,195C 25.9056,195.464 25.2389,195.631 24.5,195.5 Z"/></g>
<g><path style="opacity:0.004" fill="#74beb2" d="M 22.5,198.5 C 21.8333,197.167 21.8333,197.167 22.5,198.5 Z"/></g>
<g><path style="opacity:0.004" fill="#74beb2" d="M 28.5,197.5 C 29.8333,198.167 29.8333,198.167 28.5,197.5 Z"/></g>
<g><path style="opacity:1" fill="#74beb2" d="M 367.5,179.5 C 368.833,179.5 370.167,179.5 371.5,179.5C 371.5,186.5 371.5,193.5 371.5,200.5C 375.167,200.5 378.833,200.5 382.5,200.5C 382.67,201.822 382.337,202.989 381.5,204C 363.503,204.5 345.503,204.667 327.5,204.5C 327.5,203.167 327.5,201.833 327.5,200.5C 330.5,200.5 333.5,200.5 336.5,200.5C 336.334,196.154 336.501,191.821 337,187.5C 338,186.167 339,186.167 340,187.5C 340.499,191.821 340.666,196.154 340.5,200.5C 344.5,200.5 348.5,200.5 352.5,200.5C 352.5,194.5 352.5,188.5 352.5,182.5C 353.5,182.5 354.5,182.5 355.5,182.5C 355.5,188.5 355.5,194.5 355.5,200.5C 359.5,200.5 363.5,200.5 367.5,200.5C 367.5,193.5 367.5,186.5 367.5,179.5 Z"/></g>
<g><path style="opacity:1" fill="#edeef6" d="M 301.5,202.5 C 304.822,202.489 306.489,204.155 306.5,207.5C 306.693,209.688 305.859,211.355 304,212.5C 303.854,216.069 303.02,219.402 301.5,222.5C 301.68,223.554 302.013,224.554 302.5,225.5C 301.05,226.85 300.383,228.516 300.5,230.5C 297.075,230.243 295.075,228.41 294.5,225C 296.743,217.439 299.077,209.939 301.5,202.5 Z"/></g>
<g><path style="opacity:0.004" fill="#74beb2" d="M 28.5,205.5 C 29.6378,208.304 29.8045,211.304 29,214.5C 28.502,211.518 28.3354,208.518 28.5,205.5 Z"/></g>
<g><path style="opacity:1" fill="#ecedf5" d="M 309.5,206.5 C 313.049,206.439 316.382,207.273 319.5,209C 320.337,210.011 320.67,211.178 320.5,212.5C 318.335,212.116 316.668,212.783 315.5,214.5C 316.95,215.85 317.617,217.516 317.5,219.5C 312.381,219.241 311.381,221.074 314.5,225C 314.355,225.772 314.022,226.439 313.5,227C 312.062,227.219 310.729,227.719 309.5,228.5C 312.019,230.641 312.019,232.641 309.5,234.5C 307.118,233.649 305.118,232.316 303.5,230.5C 305.167,229.167 306.833,227.833 308.5,226.5C 304.171,222.822 304.837,220.822 310.5,220.5C 309.199,218.328 308.199,215.995 307.5,213.5C 309.346,213.778 310.68,213.111 311.5,211.5C 310.05,210.15 309.383,208.484 309.5,206.5 Z"/></g>
<g><path style="opacity:1" fill="#75775f" d="M 227.5,205.5 C 227.5,218.833 227.5,232.167 227.5,245.5C 230.5,245.5 233.5,245.5 236.5,245.5C 236.171,231.99 236.504,218.656 237.5,205.5C 237.5,219.167 237.5,232.833 237.5,246.5C 233.833,246.5 230.167,246.5 226.5,246.5C 226.171,232.656 226.504,218.99 227.5,205.5 Z"/></g>
<g><path style="opacity:0.729" fill="#74beb2" d="M 28.5,198.5 C 27.2101,205.841 27.2101,213.174 28.5,220.5C 27.5,220.833 26.8333,221.5 26.5,222.5C 25.8333,222.5 25.1667,222.5 24.5,222.5C 24.0133,221.527 23.5133,220.527 23,219.5C 22.5968,212.297 22.4301,205.297 22.5,198.5C 24.6104,195.998 26.6104,195.998 28.5,198.5 Z"/></g>
<g><path style="opacity:0.004" fill="#74beb2" d="M 392.5,219.5 C 393.833,220.167 393.833,220.833 392.5,221.5C 392.5,220.833 392.5,220.167 392.5,219.5 Z"/></g>
<g><path style="opacity:0.004" fill="#74beb2" d="M 21.5,220.5 C 22.8333,221.167 22.8333,221.167 21.5,220.5 Z"/></g>
<g><path style="opacity:0.004" fill="#74beb2" d="M 28.5,220.5 C 29.8333,221.167 29.8333,221.167 28.5,220.5 Z"/></g>
<g><path style="opacity:0.016" fill="#74beb2" d="M 391.5,221.5 C 391.833,221.5 392.167,221.5 392.5,221.5C 392.315,222.17 391.981,222.17 391.5,221.5 Z"/></g>
<g><path style="opacity:0.004" fill="#74beb2" d="M 24.5,222.5 C 24.5,222.833 24.5,223.167 24.5,223.5C 23.8299,223.019 23.8299,222.685 24.5,222.5 Z"/></g>
<g><path style="opacity:0.004" fill="#74beb2" d="M 26.5,222.5 C 27.8333,223.167 27.8333,223.167 26.5,222.5 Z"/></g>
<g><path style="opacity:0.016" fill="#74beb2" d="M 390.5,222.5 C 390.833,222.5 391.167,222.5 391.5,222.5C 391.315,223.17 390.981,223.17 390.5,222.5 Z"/></g>
<g><path style="opacity:0.004" fill="#74beb2" d="M 24.5,223.5 C 25.8333,224.167 25.8333,224.167 24.5,223.5 Z"/></g>
<g><path style="opacity:0.016" fill="#74beb2" d="M 389.5,223.5 C 389.833,223.5 390.167,223.5 390.5,223.5C 390.315,224.17 389.981,224.17 389.5,223.5 Z"/></g>
<g><path style="opacity:0.004" fill="#74beb2" d="M 388.5,224.5 C 388.833,224.5 389.167,224.5 389.5,224.5C 389.315,225.17 388.981,225.17 388.5,224.5 Z"/></g>
<g><path style="opacity:0.004" fill="#74beb2" d="M 348.5,228.5 C 348.897,227.475 349.563,227.308 350.5,228C 349.906,228.464 349.239,228.631 348.5,228.5 Z"/></g>
<g><path style="opacity:0.004" fill="#74beb2" d="M 344.5,229.5 C 345.251,228.427 346.251,228.26 347.5,229C 346.552,229.483 345.552,229.649 344.5,229.5 Z"/></g>
<g><path style="opacity:0.016" fill="#74beb2" d="M 351.5,229.5 C 352.251,228.427 353.251,228.26 354.5,229C 353.552,229.483 352.552,229.649 351.5,229.5 Z"/></g>
<g><path style="opacity:0.016" fill="#74beb2" d="M 341.5,230.5 C 341.897,229.475 342.563,229.308 343.5,230C 342.906,230.464 342.239,230.631 341.5,230.5 Z"/></g>
<g><path style="opacity:0.016" fill="#74beb2" d="M 355.5,230.5 C 356.251,229.427 357.251,229.26 358.5,230C 357.552,230.483 356.552,230.649 355.5,230.5 Z"/></g>
<g><path style="opacity:0.016" fill="#74beb2" d="M 340.5,231.5 C 339.448,231.649 338.448,231.483 337.5,231C 338.749,230.26 339.749,230.427 340.5,231.5 Z"/></g>
<g><path style="opacity:0.004" fill="#74beb2" d="M 336.5,232.5 C 334.656,231.796 334.156,230.463 335,228.5C 335.41,229.901 335.91,231.234 336.5,232.5 Z"/></g>
<g><path style="opacity:0.016" fill="#74beb2" d="M 363.5,232.5 C 364.251,231.427 365.251,231.26 366.5,232C 365.552,232.483 364.552,232.649 363.5,232.5 Z"/></g>
<g><path style="opacity:0.016" fill="#74beb2" d="M 367.5,233.5 C 368.251,232.427 369.251,232.26 370.5,233C 369.552,233.483 368.552,233.649 367.5,233.5 Z"/></g>
<g><path style="opacity:0.016" fill="#74beb2" d="M 371.5,234.5 C 372.251,233.427 373.251,233.26 374.5,234C 373.552,234.483 372.552,234.649 371.5,234.5 Z"/></g>
<g><path style="opacity:0.02" fill="#74beb2" d="M 72.5,233.5 C 73.5983,234.601 73.765,235.934 73,237.5C 72.51,236.207 72.3433,234.873 72.5,233.5 Z"/></g>
<g><path style="opacity:0.016" fill="#74beb2" d="M 375.5,235.5 C 376.251,234.427 377.251,234.26 378.5,235C 377.552,235.483 376.552,235.649 375.5,235.5 Z"/></g>
<g><path style="opacity:0.016" fill="#74beb2" d="M 379.5,236.5 C 380.251,235.427 381.251,235.26 382.5,236C 381.552,236.483 380.552,236.649 379.5,236.5 Z"/></g>
<g><path style="opacity:0.016" fill="#74beb2" d="M 383.5,237.5 C 384.251,236.427 385.251,236.26 386.5,237C 385.552,237.483 384.552,237.649 383.5,237.5 Z"/></g>
<g><path style="opacity:0.004" fill="#74beb2" d="M 30.5,237.5 C 31.8333,238.167 31.8333,238.167 30.5,237.5 Z"/></g>
<g><path style="opacity:0.016" fill="#74beb2" d="M 387.5,238.5 C 388.251,237.427 389.251,237.26 390.5,238C 389.552,238.483 388.552,238.649 387.5,238.5 Z"/></g>
<g><path style="opacity:0.004" fill="#74beb2" d="M 391.5,239.5 C 391.897,238.475 392.563,238.308 393.5,239C 392.906,239.464 392.239,239.631 391.5,239.5 Z"/></g>
<g><path style="opacity:0.004" fill="#74beb2" d="M 394.5,239.5 C 395.833,240.167 395.833,240.167 394.5,239.5 Z"/></g>
<g><path style="opacity:0.016" fill="#74beb2" d="M 31.5,239.5 C 32.5735,240.251 32.7401,241.251 32,242.5C 31.5172,241.552 31.3505,240.552 31.5,239.5 Z"/></g>
<g><path style="opacity:1" fill="#8c8d56" d="M 284.5,206.5 C 284.5,218.5 284.5,230.5 284.5,242.5C 269.657,242.829 254.99,242.496 240.5,241.5C 254.833,241.5 269.167,241.5 283.5,241.5C 283.172,229.655 283.505,217.988 284.5,206.5 Z"/></g>
<g><path style="opacity:0.004" fill="#74beb2" d="M 32.5,243.5 C 33.5983,244.601 33.765,245.934 33,247.5C 32.51,246.207 32.3433,244.873 32.5,243.5 Z"/></g>
<g><path style="opacity:0.996" fill="#74beb2" d="M 106.5,298.5 C 102.343,300.062 98.0097,300.729 93.5,300.5C 91.983,299.265 90.3163,299.265 88.5,300.5C 88.3054,298.133 86.6387,296.8 83.5,296.5C 83.0269,295.094 82.0269,294.427 80.5,294.5C 77.5186,290.187 74.1852,286.187 70.5,282.5C 71.7537,280.357 71.7537,278.357 70.5,276.5C 70.7244,272.821 71.0578,269.154 71.5,265.5C 72.404,264.791 72.7373,263.791 72.5,262.5C 74.5805,259.358 76.9138,256.358 79.5,253.5C 90.843,245.863 102.51,245.529 114.5,252.5C 116.828,246.69 120.495,241.856 125.5,238C 143.737,229.58 157.404,234.414 166.5,252.5C 182.011,243.78 195.178,246.446 206,260.5C 210.828,272.566 208.995,283.4 200.5,293C 181.389,304.575 166.722,300.408 156.5,280.5C 153.995,282.253 151.329,283.753 148.5,285C 139.183,287.08 130.849,285.247 123.5,279.5C 120.794,288.641 115.128,294.974 106.5,298.5 Z"/></g>
<g><path style="opacity:1" fill="#fafbfc" d="M 133.5,237.5 C 146.41,235.372 155.91,240.039 162,251.5C 162.667,253.5 162.667,255.5 162,257.5C 157.796,263.112 155.796,269.445 156,276.5C 145.193,284.768 134.693,284.434 124.5,275.5C 124.417,268.92 122.584,262.92 119,257.5C 118.495,253.486 119.495,249.819 122,246.5C 125.449,242.877 129.283,239.877 133.5,237.5 Z"/></g>
<g><path style="opacity:0.016" fill="#74beb2" d="M 397.5,247.5 C 397.34,245.801 397.506,244.134 398,242.5C 398.78,244.387 398.613,246.054 397.5,247.5 Z"/></g>
<g><path style="opacity:0.016" fill="#74beb2" d="M 24.5,244.5 C 25.5735,245.251 25.7401,246.251 25,247.5C 24.5172,246.552 24.3505,245.552 24.5,244.5 Z"/></g>
<g><path style="opacity:1" fill="#fcfcfe" d="M 240.5,246.5 C 254.833,246.5 269.167,246.5 283.5,246.5C 283.5,258.167 283.5,269.833 283.5,281.5C 277.167,281.5 270.833,281.5 264.5,281.5C 264.827,272.318 264.493,263.318 263.5,254.5C 262.811,253.226 261.977,253.226 261,254.5C 260.5,263.494 260.334,272.494 260.5,281.5C 253.833,281.5 247.167,281.5 240.5,281.5C 240.5,269.833 240.5,258.167 240.5,246.5 Z"/></g>
<g><path style="opacity:0.008" fill="#74beb2" d="M 76.5,246.5 C 76.631,247.239 76.4643,247.906 76,248.5C 75.3083,247.563 75.475,246.897 76.5,246.5 Z"/></g>
<g><path style="opacity:1" fill="#74beb2" d="M 240.5,246.5 C 254.99,245.504 269.657,245.171 284.5,245.5C 284.5,257.5 284.5,269.5 284.5,281.5C 284.167,281.5 283.833,281.5 283.5,281.5C 283.5,269.833 283.5,258.167 283.5,246.5C 269.167,246.5 254.833,246.5 240.5,246.5 Z"/></g>
<g><path style="opacity:0.016" fill="#74beb2" d="M 25.5,249.5 C 26.5735,250.251 26.7401,251.251 26,252.5C 25.5172,251.552 25.3505,250.552 25.5,249.5 Z"/></g>
<g><path style="opacity:0.016" fill="#74beb2" d="M 33.5,248.5 C 34.5735,249.251 34.7401,250.251 34,251.5C 33.5172,250.552 33.3505,249.552 33.5,248.5 Z"/></g>
<g><path style="opacity:1" fill="#fbfcfd" d="M 227.5,250.5 C 230.5,250.5 233.5,250.5 236.5,250.5C 236.5,255.5 236.5,260.5 236.5,265.5C 233.315,265.98 230.481,265.314 228,263.5C 227.501,259.179 227.334,254.846 227.5,250.5 Z"/></g>
<g><path style="opacity:1" fill="#fbfcfd" d="M 89.5,251.5 C 103.128,248.634 112.961,253.3 119,265.5C 122.581,279.405 117.748,289.238 104.5,295C 83.6878,296.854 74.1878,287.354 76,266.5C 78.9716,260.033 83.4716,255.033 89.5,251.5 Z"/></g>
<g><path style="opacity:1" fill="#fafbfc" d="M 177.5,250.5 C 196.684,250.183 205.851,259.516 205,278.5C 198.546,294.142 187.38,298.976 171.5,293C 159.877,284.37 157.377,273.537 164,260.5C 167.802,256.037 172.302,252.703 177.5,250.5 Z"/></g>
<g><path style="opacity:0.016" fill="#74beb2" d="M 27.5,253.5 C 27.6495,254.552 27.4828,255.552 27,256.5C 26.2599,255.251 26.4265,254.251 27.5,253.5 Z"/></g>
<g><path style="opacity:0.016" fill="#74beb2" d="M 34.5,255.5 C 34.3505,254.448 34.5172,253.448 35,252.5C 35.7401,253.749 35.5735,254.749 34.5,255.5 Z"/></g>
<g><path style="opacity:1" fill="#74beb2" d="M 263.5,254.5 C 263.5,263.833 263.5,273.167 263.5,282.5C 262.209,282.737 261.209,282.404 260.5,281.5C 260.334,272.494 260.5,263.494 261,254.5C 261.977,253.226 262.811,253.226 263.5,254.5 Z"/></g>
<g><path style="opacity:0.016" fill="#74beb2" d="M 28.5,260.5 C 27.4265,259.749 27.2599,258.749 28,257.5C 28.4828,258.448 28.6495,259.448 28.5,260.5 Z"/></g>
<g><path style="opacity:0.016" fill="#74beb2" d="M 35.5,256.5 C 36.5735,257.251 36.7401,258.251 36,259.5C 35.5172,258.552 35.3505,257.552 35.5,256.5 Z"/></g>
<g><path style="opacity:0.004" fill="#74beb2" d="M 73.5,257.5 C 74.8333,258.167 74.8333,258.167 73.5,257.5 Z"/></g>
<g><path style="opacity:0.669" fill="#74beb2" d="M 30.5,238.5 C 30.8327,244.516 32.166,250.183 34.5,255.5C 34.5,257.833 34.5,260.167 34.5,262.5C 32.4458,262.635 30.7791,261.968 29.5,260.5C 29.5905,257.848 28.9238,255.515 27.5,253.5C 27.3256,250.126 26.8256,246.793 26,243.5C 24.9869,242.504 24.1535,241.504 23.5,240.5C 23.5565,239.263 24.0565,238.263 25,237.5C 26.7468,237.387 28.5801,237.721 30.5,238.5 Z"/></g>
<g><path style="opacity:0.004" fill="#74beb2" d="M 28.5,260.5 C 28.8333,260.5 29.1667,260.5 29.5,260.5C 29.3147,261.17 28.9813,261.17 28.5,260.5 Z"/></g>
<g><path style="opacity:0.004" fill="#74beb2" d="M 35.5,260.5 C 36.8333,261.167 36.8333,261.167 35.5,260.5 Z"/></g>
<g><path style="opacity:0.016" fill="#74beb2" d="M 72.5,262.5 C 71.475,262.103 71.3083,261.437 72,260.5C 72.4643,261.094 72.631,261.761 72.5,262.5 Z"/></g>
<g><path style="opacity:0.016" fill="#74beb2" d="M 31.5,264.5 C 31.8966,263.475 32.5632,263.308 33.5,264C 32.9056,264.464 32.2389,264.631 31.5,264.5 Z"/></g>
<g><path style="opacity:0.004" fill="#74beb2" d="M 71.5,265.5 C 70.475,265.103 70.3083,264.437 71,263.5C 71.4643,264.094 71.631,264.761 71.5,265.5 Z"/></g>
<g><path style="opacity:0.016" fill="#74beb2" d="M 69.5,266.5 C 70.5735,267.251 70.7401,268.251 70,269.5C 69.5172,268.552 69.3505,267.552 69.5,266.5 Z"/></g>
<g><path style="opacity:0.004" fill="#74beb2" d="M 382.5,272.5 C 382.833,272.5 383.167,272.5 383.5,272.5C 383.672,273.492 383.338,274.158 382.5,274.5C 382.5,273.833 382.5,273.167 382.5,272.5 Z"/></g>
<g><path style="opacity:0.004" fill="#74beb2" d="M 381.5,274.5 C 381.833,274.5 382.167,274.5 382.5,274.5C 382.315,275.17 381.981,275.17 381.5,274.5 Z"/></g>
<g><path style="opacity:0.004" fill="#74beb2" d="M 380.5,275.5 C 380.833,275.5 381.167,275.5 381.5,275.5C 381.315,276.17 380.981,276.17 380.5,275.5 Z"/></g>
<g><path style="opacity:0.02" fill="#74beb2" d="M 317.5,276.5 C 318.833,277.167 318.833,277.167 317.5,276.5 Z"/></g>
<g><path style="opacity:0.004" fill="#74beb2" d="M 378.5,277.5 C 378.5,277.167 378.5,276.833 378.5,276.5C 379.167,276.5 379.833,276.5 380.5,276.5C 380.158,277.338 379.492,277.672 378.5,277.5 Z"/></g>
<g><path style="opacity:0.016" fill="#74beb2" d="M 70.5,276.5 C 70.6567,277.873 70.49,279.207 70,280.5C 69.235,278.934 69.4017,277.601 70.5,276.5 Z"/></g>
<g><path style="opacity:0.004" fill="#74beb2" d="M 323.5,277.5 C 323.103,278.525 322.437,278.692 321.5,278C 322.094,277.536 322.761,277.369 323.5,277.5 Z"/></g>
<g><path style="opacity:0.891" fill="#74beb2" d="M 351.5,229.5 C 352.568,230.434 353.901,230.768 355.5,230.5C 357.169,231.66 359.003,231.66 361,230.5C 362.762,230.944 362.595,231.444 360.5,232C 361.448,232.483 362.448,232.649 363.5,232.5C 364.568,233.434 365.901,233.768 367.5,233.5C 368.568,234.434 369.901,234.768 371.5,234.5C 373.838,236.04 376.505,236.706 379.5,236.5C 380.568,237.434 381.901,237.768 383.5,237.5C 387.39,238.985 391.39,240.485 395.5,242C 396.109,243.948 396.776,245.782 397.5,247.5C 396.271,250.456 394.271,251.456 391.5,250.5C 391.511,251.441 391.011,252.108 390,252.5C 388.989,252.108 388.489,251.441 388.5,250.5C 387.205,251.098 385.872,251.598 384.5,252C 388.449,252.807 388.449,253.307 384.5,253.5C 384.823,260.022 384.49,266.355 383.5,272.5C 383.167,269.833 382.833,269.833 382.5,272.5C 381.662,272.842 381.328,273.508 381.5,274.5C 380.833,274.5 380.5,274.833 380.5,275.5C 379.508,275.328 378.842,275.662 378.5,276.5C 377.508,276.328 376.842,276.662 376.5,277.5C 374.901,277.232 373.568,277.566 372.5,278.5C 368.346,278.631 364.346,279.464 360.5,281C 360.833,281.333 361.167,281.667 361.5,282C 359.5,282.667 357.5,282.667 355.5,282C 360.774,281.187 360.774,280.687 355.5,280.5C 349.138,281.299 342.804,280.965 336.5,279.5C 335.304,279.846 335.304,280.346 336.5,281C 334.457,281.64 332.79,281.14 331.5,279.5C 330.432,278.566 329.099,278.232 327.5,278.5C 326.432,277.566 325.099,277.232 323.5,277.5C 322.167,276.5 320.833,275.5 319.5,274.5C 319.013,273.527 318.513,272.527 318,271.5C 317.5,264.842 317.334,258.175 317.5,251.5C 313.737,251.143 310.07,250.31 306.5,249C 302.634,246.421 302.634,243.755 306.5,241C 315.679,238.957 324.679,236.457 333.5,233.5C 334.791,233.737 335.791,233.404 336.5,232.5C 338.099,232.768 339.432,232.434 340.5,231.5C 344.197,230.992 347.864,230.326 351.5,229.5 Z"/></g>
<g><path style="opacity:1" fill="#74beb2" d="M 376.5,252.5 C 377.818,255.258 378.485,258.424 378.5,262C 378.167,265.167 377.833,268.333 377.5,271.5C 359.232,277.966 340.899,278.133 322.5,272C 321.524,265.924 321.19,259.758 321.5,253.5C 330.698,255.348 339.865,257.348 349,259.5C 358.448,257.843 367.615,255.509 376.5,252.5 Z"/></g>
<g><path style="opacity:1" fill="#74beb2" d="M 345.5,234.5 C 361.035,237.041 376.369,240.541 391.5,245C 377.505,248.832 363.505,252.666 349.5,256.5C 335.417,252.979 321.417,249.146 307.5,245C 320.284,241.474 332.951,237.974 345.5,234.5 Z"/></g>
<g><path style="opacity:0.004" fill="#74beb2" d="M 376.5,277.5 C 377.167,277.5 377.833,277.5 378.5,277.5C 377.833,278.833 377.167,278.833 376.5,277.5 Z"/></g>
<g><path style="opacity:0.008" fill="#74beb2" d="M 316.5,278.5 C 317.833,279.167 317.833,279.167 316.5,278.5 Z"/></g>
<g><path style="opacity:0.016" fill="#74beb2" d="M 327.5,278.5 C 326.749,279.573 325.749,279.74 324.5,279C 325.448,278.517 326.448,278.351 327.5,278.5 Z"/></g>
<g><path style="opacity:0.016" fill="#74beb2" d="M 372.5,278.5 C 373.552,278.351 374.552,278.517 375.5,279C 374.251,279.74 373.251,279.573 372.5,278.5 Z"/></g>
<g><path style="opacity:0.705" fill="#74beb2" d="M 45.5,285.5 C 45.3284,286.492 45.6618,287.158 46.5,287.5C 46.3284,288.492 46.6618,289.158 47.5,289.5C 47.9925,291.819 48.9925,293.819 50.5,295.5C 50.5,296.833 50.5,298.167 50.5,299.5C 49.8333,299.5 49.5,299.833 49.5,300.5C 47.9382,300.267 46.6049,299.6 45.5,298.5C 45.6716,297.508 45.3382,296.842 44.5,296.5C 44.4588,294.255 43.6255,293.588 42,294.5C 42.3212,291.621 41.4879,288.954 39.5,286.5C 39.3404,284.847 38.6737,283.514 37.5,282.5C 37.6716,281.508 37.3382,280.842 36.5,280.5C 36.1667,279.167 35.8333,279.167 35.5,280.5C 34.2875,279.503 34.4542,278.503 36,277.5C 36.3333,277.833 36.6667,278.167 37,278.5C 37.2929,275.046 38.6262,274.712 41,277.5C 42.2742,280.391 43.7742,283.058 45.5,285.5 Z"/></g>
<g><path style="opacity:0.016" fill="#74beb2" d="M 331.5,279.5 C 330.749,280.573 329.749,280.74 328.5,280C 329.448,279.517 330.448,279.351 331.5,279.5 Z"/></g>
<g><path style="opacity:0.016" fill="#74beb2" d="M 368.5,280.5 C 369.251,279.427 370.251,279.26 371.5,280C 370.552,280.483 369.552,280.649 368.5,280.5 Z"/></g>
<g><path style="opacity:0.004" fill="#74beb2" d="M 315.5,279.5 C 315.833,279.5 316.167,279.5 316.5,279.5C 316.672,280.492 316.338,281.158 315.5,281.5C 315.5,280.833 315.5,280.167 315.5,279.5 Z"/></g>
<g><path style="opacity:0.004" fill="#74beb2" d="M 363.5,281.5 C 364.601,280.402 365.934,280.235 367.5,281C 366.207,281.49 364.873,281.657 363.5,281.5 Z"/></g>
<g><path style="opacity:0.004" fill="#74beb2" d="M 35.5,280.5 C 35.8333,280.5 36.1667,280.5 36.5,280.5C 36.5,281.167 36.5,281.833 36.5,282.5C 35.6618,282.158 35.3284,281.492 35.5,280.5 Z"/></g>
<g><path style="opacity:0.008" fill="#74beb2" d="M 314.5,281.5 C 314.833,281.5 315.167,281.5 315.5,281.5C 315.315,282.17 314.981,282.17 314.5,281.5 Z"/></g>
<g><path style="opacity:0.016" fill="#74beb2" d="M 338.5,282.5 C 340.288,281.378 342.288,281.211 344.5,282C 342.527,282.495 340.527,282.662 338.5,282.5 Z"/></g>
<g><path style="opacity:0.004" fill="#74beb2" d="M 36.5,282.5 C 36.8333,282.5 37.1667,282.5 37.5,282.5C 37.1667,285.167 36.8333,285.167 36.5,282.5 Z"/></g>
<g><path style="opacity:0.004" fill="#74beb2" d="M 313.5,282.5 C 313.833,282.5 314.167,282.5 314.5,282.5C 314.672,283.492 314.338,284.158 313.5,284.5C 313.5,283.833 313.5,283.167 313.5,282.5 Z"/></g>
<g><path style="opacity:0.016" fill="#74beb2" d="M 45.5,285.5 C 45.369,284.761 45.5357,284.094 46,283.5C 46.6917,284.437 46.525,285.103 45.5,285.5 Z"/></g>
<g><path style="opacity:0.016" fill="#74beb2" d="M 71.5,284.5 C 72.8333,285.167 72.8333,285.167 71.5,284.5 Z"/></g>
<g><path style="opacity:0.016" fill="#74beb2" d="M 46.5,286.5 C 47.8333,287.167 47.8333,287.167 46.5,286.5 Z"/></g>
<g><path style="opacity:0.004" fill="#74beb2" d="M 72.5,286.5 C 73.8333,287.167 73.8333,287.167 72.5,286.5 Z"/></g>
<g><path style="opacity:0.016" fill="#74beb2" d="M 39.5,286.5 C 39.631,287.239 39.4643,287.906 39,288.5C 38.3083,287.563 38.475,286.897 39.5,286.5 Z"/></g>
<g><path style="opacity:0.008" fill="#74beb2" d="M 310.5,287.5 C 311.833,288.167 311.833,288.167 310.5,287.5 Z"/></g>
<g><path style="opacity:0.016" fill="#74beb2" d="M 47.5,288.5 C 48.8333,289.167 48.8333,289.167 47.5,288.5 Z"/></g>
<g><path style="opacity:0.02" fill="#74beb2" d="M 309.5,288.5 C 309.833,288.5 310.167,288.5 310.5,288.5C 310.315,289.17 309.981,289.17 309.5,288.5 Z"/></g>
<g><path style="opacity:0.016" fill="#74beb2" d="M 39.5,289.5 C 40.8333,290.167 40.8333,290.167 39.5,289.5 Z"/></g>
<g><path style="opacity:0.016" fill="#74beb2" d="M 51.5,295.5 C 51.1667,295.5 50.8333,295.5 50.5,295.5C 50.8333,292.833 51.1667,292.833 51.5,295.5 Z"/></g>
<g><path style="opacity:0.016" fill="#74beb2" d="M 80.5,294.5 C 80.5,294.833 80.5,295.167 80.5,295.5C 79.8299,295.019 79.8299,294.685 80.5,294.5 Z"/></g>
<g><path style="opacity:0.008" fill="#74beb2" d="M 304.5,294.5 C 304.833,294.5 305.167,294.5 305.5,294.5C 305.315,295.17 304.981,295.17 304.5,294.5 Z"/></g>
<g><path style="opacity:0.004" fill="#74beb2" d="M 51.5,295.5 C 52.525,295.897 52.6917,296.563 52,297.5C 51.5357,296.906 51.369,296.239 51.5,295.5 Z"/></g>
<g><path style="opacity:0.004" fill="#74beb2" d="M 80.5,295.5 C 81.8333,296.167 81.8333,296.167 80.5,295.5 Z"/></g>
<g><path style="opacity:0.016" fill="#74beb2" d="M 83.5,296.5 C 83.5,296.833 83.5,297.167 83.5,297.5C 82.8299,297.019 82.8299,296.685 83.5,296.5 Z"/></g>
<g><path style="opacity:0.004" fill="#74beb2" d="M 44.5,296.5 C 44.5,297.167 44.5,297.833 44.5,298.5C 43.1667,297.833 43.1667,297.167 44.5,296.5 Z"/></g>
<g><path style="opacity:0.004" fill="#74beb2" d="M 83.5,297.5 C 84.8333,298.167 84.8333,298.167 83.5,297.5 Z"/></g>
<g><path style="opacity:0.016" fill="#74beb2" d="M 44.5,298.5 C 44.8333,298.5 45.1667,298.5 45.5,298.5C 45.3147,299.17 44.9813,299.17 44.5,298.5 Z"/></g>
<g><path style="opacity:0.004" fill="#74beb2" d="M 51.5,298.5 C 52.8333,299.167 52.8333,299.167 51.5,298.5 Z"/></g>
<g><path style="opacity:0.016" fill="#74beb2" d="M 85.5,298.5 C 86.8333,299.167 86.8333,299.167 85.5,298.5 Z"/></g>
<g><path style="opacity:0.004" fill="#74beb2" d="M 50.5,299.5 C 50.8333,299.5 51.1667,299.5 51.5,299.5C 51.3147,300.17 50.9813,300.17 50.5,299.5 Z"/></g>
<g><path style="opacity:0.016" fill="#74beb2" d="M 353.5,300.5 C 354.251,299.427 355.251,299.26 356.5,300C 355.552,300.483 354.552,300.649 353.5,300.5 Z"/></g>
<g><path style="opacity:0.004" fill="#74beb2" d="M 49.5,300.5 C 49.8333,300.5 50.1667,300.5 50.5,300.5C 50.3147,301.17 49.9813,301.17 49.5,300.5 Z"/></g>
<g><path style="opacity:0.016" fill="#74beb2" d="M 93.5,300.5 C 92.7494,301.573 91.7494,301.74 90.5,301C 91.448,300.517 92.448,300.351 93.5,300.5 Z"/></g>
<g><path style="opacity:0.016" fill="#74beb2" d="M 102.5,301.5 C 103.251,300.427 104.251,300.26 105.5,301C 104.552,301.483 103.552,301.649 102.5,301.5 Z"/></g>
<g><path style="opacity:0.004" fill="#74beb2" d="M 49.5,301.5 C 49.1034,302.525 48.4368,302.692 47.5,302C 48.0944,301.536 48.7611,301.369 49.5,301.5 Z"/></g>
<g><path style="opacity:0.004" fill="#74beb2" d="M 95.5,302.5 C 96.9464,301.387 98.6131,301.22 100.5,302C 98.8659,302.494 97.1992,302.66 95.5,302.5 Z"/></g>
<g><path style="opacity:0.999" fill="#fafbfc" d="M 77.5,376.5 C 76.2825,375.839 74.9492,375.172 73.5,374.5C 73.7093,373.914 74.0426,373.414 74.5,373C 73.2668,371.333 71.9335,369.833 70.5,368.5C 69.1667,367.5 67.8333,366.5 66.5,365.5C 67.8333,364.833 67.8333,364.167 66.5,363.5C 84.8017,344.868 103.802,326.868 123.5,309.5C 135.49,322.325 147.323,335.325 159,348.5C 161.684,352.713 165.184,353.546 169.5,351C 184.667,337.167 199.833,323.333 215,309.5C 215.687,307.08 215.187,304.913 213.5,303C 221.413,302.186 229.246,302.353 237,303.5C 236.778,311.494 236.112,319.494 235,327.5C 232.859,324.509 230.025,323.342 226.5,324C 206.167,342.333 185.833,360.667 165.5,379C 164.5,379.667 163.5,379.667 162.5,379C 151,366.167 139.5,353.333 128,340.5C 124.974,337.136 121.474,336.636 117.5,339C 104.297,351.705 90.9638,364.205 77.5,376.5 Z M 142.5,363.5 C 144.262,364.262 145.262,365.596 145.5,367.5C 143.738,366.738 142.738,365.404 142.5,363.5 Z M 91.5,370.5 C 91.1667,371.5 90.5,372.167 89.5,372.5C 89.5,371.167 90.1667,370.5 91.5,370.5 Z M 89.5,372.5 C 89.0269,373.906 88.0269,374.573 86.5,374.5C 86.9731,373.094 87.9731,372.427 89.5,372.5 Z"/></g>
<g><path style="opacity:0.02" fill="#74beb2" d="M 296.5,303.5 C 296.833,303.5 297.167,303.5 297.5,303.5C 297.315,304.17 296.981,304.17 296.5,303.5 Z"/></g>
<g><path style="opacity:0.016" fill="#74beb2" d="M 79.5,305.5 C 80.9464,304.387 82.6131,304.22 84.5,305C 82.8659,305.494 81.1992,305.66 79.5,305.5 Z"/></g>
<g><path style="opacity:0.016" fill="#74beb2" d="M 107.5,304.5 C 107.103,305.525 106.437,305.692 105.5,305C 106.094,304.536 106.761,304.369 107.5,304.5 Z"/></g>
<g><path style="opacity:0.02" fill="#74beb2" d="M 295.5,304.5 C 295.833,304.5 296.167,304.5 296.5,304.5C 296.315,305.17 295.981,305.17 295.5,304.5 Z"/></g>
<g><path style="opacity:0.016" fill="#74beb2" d="M 357.5,305.5 C 357.833,305.5 358.167,305.5 358.5,305.5C 358.315,306.17 357.981,306.17 357.5,305.5 Z"/></g>
<g><path style="opacity:0.008" fill="#74beb2" d="M 292.5,307.5 C 292.833,307.5 293.167,307.5 293.5,307.5C 293.315,308.17 292.981,308.17 292.5,307.5 Z"/></g>
<g><path style="opacity:0.004" fill="#74beb2" d="M 356.5,307.5 C 357.833,308.167 357.833,308.167 356.5,307.5 Z"/></g>
<g><path style="opacity:0.008" fill="#74beb2" d="M 291.5,308.5 C 291.833,308.5 292.167,308.5 292.5,308.5C 292.315,309.17 291.981,309.17 291.5,308.5 Z"/></g>
<g><path style="opacity:0.016" fill="#74beb2" d="M 355.5,308.5 C 355.833,308.5 356.167,308.5 356.5,308.5C 356.315,309.17 355.981,309.17 355.5,308.5 Z"/></g>
<g><path style="opacity:0.999" fill="#74beb2" d="M 224.5,339.5 C 224.363,346.626 225.03,346.959 226.5,340.5C 226.833,340.667 227.167,340.833 227.5,341C 226.26,344.099 225.26,347.266 224.5,350.5C 222.973,350.427 221.973,351.094 221.5,352.5C 220.167,352.833 220.167,353.167 221.5,353.5C 218.415,353.016 215.415,353.683 212.5,355.5C 206.949,355.527 201.616,356.194 196.5,357.5C 195.833,357.5 195.5,357.833 195.5,358.5C 194.833,358.5 194.5,358.833 194.5,359.5C 193.508,359.328 192.842,359.662 192.5,360.5C 191.833,360.5 191.5,360.833 191.5,361.5C 190.833,361.5 190.5,361.833 190.5,362.5C 189.833,362.5 189.5,362.833 189.5,363.5C 188.833,363.5 188.5,363.833 188.5,364.5C 187.833,364.5 187.5,364.833 187.5,365.5C 186.833,365.5 186.5,365.833 186.5,366.5C 185.833,366.5 185.5,366.833 185.5,367.5C 184.833,367.5 184.5,367.833 184.5,368.5C 183.508,368.328 182.842,368.662 182.5,369.5C 181.833,369.5 181.5,369.833 181.5,370.5C 180.833,370.5 180.5,370.833 180.5,371.5C 179.833,371.5 179.5,371.833 179.5,372.5C 178.167,372.833 178.167,373.167 179.5,373.5C 179.167,374.5 178.5,375.167 177.5,375.5C 177.167,374.167 176.833,374.167 176.5,375.5C 173.891,376.443 171.891,378.11 170.5,380.5C 169.833,380.5 169.5,380.833 169.5,381.5C 168.833,381.5 168.5,381.833 168.5,382.5C 167.833,382.5 167.5,382.833 167.5,383.5C 166.209,383.263 165.209,383.596 164.5,384.5C 164.167,384.5 163.833,384.5 163.5,384.5C 158.26,381.096 153.76,376.763 150,371.5C 149.086,372.654 148.253,372.487 147.5,371C 148.172,369.421 147.505,368.254 145.5,367.5C 145.262,365.596 144.262,364.262 142.5,363.5C 140.038,360.536 137.371,357.703 134.5,355C 131.942,354.725 129.608,355.225 127.5,356.5C 126.21,358.14 124.543,358.64 122.5,358C 123.5,357.667 124.5,357.333 125.5,357C 118.186,357.367 110.853,358.034 103.5,359C 105.5,359.333 107.5,359.667 109.5,360C 107.19,360.497 104.857,360.663 102.5,360.5C 102.167,359.167 101.833,359.167 101.5,360.5C 100.833,360.5 100.5,360.833 100.5,361.5C 99.8333,361.5 99.5,361.833 99.5,362.5C 98.8333,362.5 98.5,362.833 98.5,363.5C 97.8333,363.5 97.5,363.833 97.5,364.5C 96.1667,364.833 96.1667,365.167 97.5,365.5C 96.8333,366.833 95.8333,367.833 94.5,368.5C 94.1667,367.167 93.8333,367.167 93.5,368.5C 92.8333,368.5 92.5,368.833 92.5,369.5C 91.8333,369.5 91.5,369.833 91.5,370.5C 90.1667,370.5 89.5,371.167 89.5,372.5C 87.9731,372.427 86.9731,373.094 86.5,374.5C 85.8333,374.5 85.5,374.833 85.5,375.5C 84.8333,375.5 84.5,375.833 84.5,376.5C 83.1667,376.833 83.1667,377.167 84.5,377.5C 84.1667,378.5 83.5,379.167 82.5,379.5C 82.1667,378.167 81.8333,378.167 81.5,379.5C 80.8333,379.5 80.5,379.833 80.5,380.5C 78.9382,380.267 77.6049,379.6 76.5,378.5C 76.1667,377.167 75.8333,377.167 75.5,378.5C 74.9569,378.44 74.6236,378.107 74.5,377.5C 75.325,376.614 76.325,376.281 77.5,376.5C 90.9638,364.205 104.297,351.705 117.5,339C 121.474,336.636 124.974,337.136 128,340.5C 139.5,353.333 151,366.167 162.5,379C 163.5,379.667 164.5,379.667 165.5,379C 185.833,360.667 206.167,342.333 226.5,324C 230.025,323.342 232.859,324.509 235,327.5C 236.112,319.494 236.778,311.494 237,303.5C 229.246,302.353 221.413,302.186 213.5,303C 215.187,304.913 215.687,307.08 215,309.5C 199.833,323.333 184.667,337.167 169.5,351C 165.184,353.546 161.684,352.713 159,348.5C 147.323,335.325 135.49,322.325 123.5,309.5C 103.802,326.868 84.8017,344.868 66.5,363.5C 65.0413,363.567 63.7079,363.234 62.5,362.5C 62.0825,361.778 61.4158,361.278 60.5,361C 62.766,360.068 64.766,358.734 66.5,357C 64.9052,357.617 63.5719,357.284 62.5,356C 63.4119,354.375 62.7453,353.541 60.5,353.5C 56.5233,352.723 55.8567,350.89 58.5,348C 55.6406,344.021 55.9739,340.355 59.5,337C 59.0556,335.238 58.5556,335.405 58,337.5C 57.8333,336.833 57.6667,336.167 57.5,335.5C 58.1953,334.524 58.862,333.524 59.5,332.5C 60.4345,331.432 60.7678,330.099 60.5,328.5C 61.404,327.791 61.7373,326.791 61.5,325.5C 64.6222,318.491 68.6222,312.491 73.5,307.5C 75.2237,308.661 76.8904,308.495 78.5,307C 87.1731,305.83 95.8397,305.664 104.5,306.5C 106.333,306.415 107.666,305.748 108.5,304.5C 109.338,304.158 109.672,303.492 109.5,302.5C 113.071,298.449 117.404,295.282 122.5,293C 134.167,292.333 145.833,292.333 157.5,293C 163.969,295.133 168.969,299.133 172.5,305C 182.167,305.333 191.833,305.667 201.5,306C 204.284,306.892 206.95,308.058 209.5,309.5C 210.5,309.167 211.167,308.5 211.5,307.5C 209.331,304.693 207.665,301.693 206.5,298.5C 216.839,298.334 227.172,298.5 237.5,299C 238.333,299.833 239.167,300.667 240,301.5C 240.148,311.835 239.815,322.168 239,332.5C 238.612,333.428 237.945,334.095 237,334.5C 234.179,333.013 232.013,330.846 230.5,328C 226.797,328.34 224.131,330.34 222.5,334C 222.954,336.03 223.62,337.863 224.5,339.5 Z M 142.5,363.5 C 144.262,364.262 145.262,365.596 145.5,367.5C 143.738,366.738 142.738,365.404 142.5,363.5 Z M 91.5,370.5 C 91.1667,371.5 90.5,372.167 89.5,372.5C 89.5,371.167 90.1667,370.5 91.5,370.5 Z M 89.5,372.5 C 89.0269,373.906 88.0269,374.573 86.5,374.5C 86.9731,373.094 87.9731,372.427 89.5,372.5 Z"/></g>
<g><path style="opacity:1" fill="#f5e831" d="M 168.5,308.5 C 179.172,308.333 189.839,308.5 200.5,309C 202.664,309.914 204.664,311.081 206.5,312.5C 193.393,325.207 179.727,337.207 165.5,348.5C 161.596,345.1 157.763,341.434 154,337.5C 152.692,335.866 151.858,334.032 151.5,332C 153.426,321.262 159.093,313.429 168.5,308.5 Z"/></g>
<g><path style="opacity:1" fill="#74beb2" d="M 123.5,296.5 C 134.838,296.333 146.172,296.5 157.5,297C 161.825,298.156 165.158,300.656 167.5,304.5C 156.895,310.026 150.395,318.693 148,330.5C 140.833,322.667 133.667,314.833 126.5,307C 123.248,306.209 120.248,306.709 117.5,308.5C 115.67,308.224 114.003,307.557 112.5,306.5C 115.209,302.001 118.875,298.667 123.5,296.5 Z"/></g>
<g><path style="opacity:0.008" fill="#74beb2" d="M 290.5,309.5 C 290.833,309.5 291.167,309.5 291.5,309.5C 291.315,310.17 290.981,310.17 290.5,309.5 Z"/></g>
<g><path style="opacity:0.004" fill="#74beb2" d="M 288.5,311.5 C 288.5,311.167 288.5,310.833 288.5,310.5C 289.167,310.5 289.833,310.5 290.5,310.5C 290.158,311.338 289.492,311.672 288.5,311.5 Z"/></g>
<g><path style="opacity:0.004" fill="#74beb2" d="M 354.5,310.5 C 355.833,311.167 355.833,311.167 354.5,310.5 Z"/></g>
<g><path style="opacity:1" fill="#f6e830" d="M 79.5,310.5 C 90.8382,310.333 102.172,310.5 113.5,311C 113.957,311.414 114.291,311.914 114.5,312.5C 104.011,322.821 93.3445,332.988 82.5,343C 78.6181,346.389 74.6181,349.556 70.5,352.5C 67.7894,351.986 65.2894,350.986 63,349.5C 62.0167,338.432 64.35,328.099 70,318.5C 72.772,315.217 75.9386,312.55 79.5,310.5 Z"/></g>
<g><path style="opacity:0.02" fill="#74beb2" d="M 287.5,311.5 C 287.833,311.5 288.167,311.5 288.5,311.5C 288.315,312.17 287.981,312.17 287.5,311.5 Z"/></g>
<g><path style="opacity:0.016" fill="#74beb2" d="M 353.5,311.5 C 353.833,311.5 354.167,311.5 354.5,311.5C 354.315,312.17 353.981,312.17 353.5,311.5 Z"/></g>
<g><path style="opacity:0.02" fill="#74beb2" d="M 286.5,312.5 C 286.833,312.5 287.167,312.5 287.5,312.5C 287.315,313.17 286.981,313.17 286.5,312.5 Z"/></g>
<g><path style="opacity:0.008" fill="#74beb2" d="M 285.5,313.5 C 285.833,313.5 286.167,313.5 286.5,313.5C 286.315,314.17 285.981,314.17 285.5,313.5 Z"/></g>
<g><path style="opacity:0.004" fill="#74beb2" d="M 352.5,313.5 C 353.833,314.167 353.833,314.167 352.5,313.5 Z"/></g>
<g><path style="opacity:0.004" fill="#74beb2" d="M 283.5,315.5 C 283.5,315.167 283.5,314.833 283.5,314.5C 284.167,314.5 284.833,314.5 285.5,314.5C 285.158,315.338 284.492,315.672 283.5,315.5 Z"/></g>
<g><path style="opacity:0.016" fill="#74beb2" d="M 351.5,314.5 C 351.833,314.5 352.167,314.5 352.5,314.5C 352.315,315.17 351.981,315.17 351.5,314.5 Z"/></g>
<g><path style="opacity:0.008" fill="#74beb2" d="M 282.5,315.5 C 282.833,315.5 283.167,315.5 283.5,315.5C 283.315,316.17 282.981,316.17 282.5,315.5 Z"/></g>
<g><path style="opacity:0.004" fill="#74beb2" d="M 350.5,315.5 C 350.833,315.5 351.167,315.5 351.5,315.5C 351.672,316.492 351.338,317.158 350.5,317.5C 350.5,316.833 350.5,316.167 350.5,315.5 Z"/></g>
<g><path style="opacity:0.008" fill="#74beb2" d="M 281.5,316.5 C 281.833,316.5 282.167,316.5 282.5,316.5C 282.315,317.17 281.981,317.17 281.5,316.5 Z"/></g>
<g><path style="opacity:0.004" fill="#74beb2" d="M 279.5,318.5 C 279.5,318.167 279.5,317.833 279.5,317.5C 280.167,317.5 280.833,317.5 281.5,317.5C 281.158,318.338 280.492,318.672 279.5,318.5 Z"/></g>
<g><path style="opacity:0.02" fill="#74beb2" d="M 278.5,318.5 C 278.833,318.5 279.167,318.5 279.5,318.5C 279.315,319.17 278.981,319.17 278.5,318.5 Z"/></g>
<g><path style="opacity:0.684" fill="#74beb2" d="M 358.5,305.5 C 358.167,304.167 357.833,304.167 357.5,305.5C 356.094,305.973 355.427,306.973 355.5,308.5C 354.094,308.973 353.427,309.973 353.5,311.5C 352.094,311.973 351.427,312.973 351.5,314.5C 350.833,314.5 350.5,314.833 350.5,315.5C 349.167,316.167 349.167,316.833 350.5,317.5C 349.158,320.166 347.325,322.499 345,324.5C 344.29,323.027 343.124,322.36 341.5,322.5C 340.644,320.077 341.311,317.911 343.5,316C 342.72,314.927 342.887,313.76 344,312.5C 344.333,313.167 344.667,313.833 345,314.5C 347.667,310.5 350.333,306.5 353,302.5C 355.272,301.76 357.272,301.76 359,302.5C 359.74,303.749 359.573,304.749 358.5,305.5 Z"/></g>
<g><path style="opacity:0.016" fill="#74beb2" d="M 62.5,319.5 C 63.8333,320.167 63.8333,320.167 62.5,319.5 Z"/></g>
<g><path style="opacity:0.008" fill="#74beb2" d="M 276.5,320.5 C 276.5,320.167 276.5,319.833 276.5,319.5C 277.167,319.5 277.833,319.5 278.5,319.5C 278.158,320.338 277.492,320.672 276.5,320.5 Z"/></g>
<g><path style="opacity:0.02" fill="#74beb2" d="M 275.5,320.5 C 275.833,320.5 276.167,320.5 276.5,320.5C 276.315,321.17 275.981,321.17 275.5,320.5 Z"/></g>
<g><path style="opacity:0.016" fill="#74beb2" d="M 61.5,321.5 C 62.8333,322.167 62.8333,322.167 61.5,321.5 Z"/></g>
<g><path style="opacity:0.008" fill="#74beb2" d="M 275.5,321.5 C 274.833,322.167 274.833,322.167 275.5,321.5 Z"/></g>
<g><path style="opacity:0.008" fill="#74beb2" d="M 272.5,322.5 C 273.833,323.167 273.833,323.167 272.5,322.5 Z"/></g>
<g><path style="opacity:0.004" fill="#74beb2" d="M 341.5,322.5 C 341.5,322.833 341.5,323.167 341.5,323.5C 340.83,323.019 340.83,322.685 341.5,322.5 Z"/></g>
<g><path style="opacity:0.004" fill="#74beb2" d="M 270.5,324.5 C 270.5,324.167 270.5,323.833 270.5,323.5C 271.167,323.5 271.833,323.5 272.5,323.5C 272.158,324.338 271.492,324.672 270.5,324.5 Z"/></g>
<g><path style="opacity:0.004" fill="#74beb2" d="M 341.5,323.5 C 342.833,324.167 342.833,324.167 341.5,323.5 Z"/></g>
<g><path style="opacity:0.016" fill="#74beb2" d="M 61.5,325.5 C 60.475,325.103 60.3083,324.437 61,323.5C 61.4643,324.094 61.631,324.761 61.5,325.5 Z"/></g>
<g><path style="opacity:0.008" fill="#74beb2" d="M 270.5,324.5 C 269.833,325.167 269.833,325.167 270.5,324.5 Z"/></g>
<g><path style="opacity:0.008" fill="#74beb2" d="M 267.5,325.5 C 268.833,326.167 268.833,326.167 267.5,325.5 Z"/></g>
<g><path style="opacity:0.016" fill="#74beb2" d="M 60.5,328.5 C 59.475,328.103 59.3083,327.437 60,326.5C 60.4643,327.094 60.631,327.761 60.5,328.5 Z"/></g>
<g><path style="opacity:0.004" fill="#74beb2" d="M 263.5,328.5 C 263.5,328.167 263.5,327.833 263.5,327.5C 264.167,327.5 264.833,327.5 265.5,327.5C 265.158,328.338 264.492,328.672 263.5,328.5 Z"/></g>
<g><path style="opacity:0.016" fill="#74beb2" d="M 59.5,332.5 C 58.4265,331.749 58.2599,330.749 59,329.5C 59.4828,330.448 59.6495,331.448 59.5,332.5 Z"/></g>
<g><path style="opacity:0.008" fill="#74beb2" d="M 257.5,330.5 C 258.833,331.167 258.833,331.167 257.5,330.5 Z"/></g>
<g><path style="opacity:0.004" fill="#74beb2" d="M 328.5,332.5 C 329.251,331.427 330.251,331.26 331.5,332C 330.552,332.483 329.552,332.649 328.5,332.5 Z"/></g>
<g><path style="opacity:0.008" fill="#74beb2" d="M 252.5,333.5 C 252.5,333.167 252.5,332.833 252.5,332.5C 255.167,332.833 255.167,333.167 252.5,333.5 Z"/></g>
<g><path style="opacity:0.004" fill="#74beb2" d="M 326.5,332.5 C 327.833,333.167 327.833,333.167 326.5,332.5 Z"/></g>
<g><path style="opacity:0.004" fill="#74beb2" d="M 252.5,333.5 C 252.103,334.525 251.437,334.692 250.5,334C 251.094,333.536 251.761,333.369 252.5,333.5 Z"/></g>
<g><path style="opacity:0.004" fill="#74beb2" d="M 333.5,334.5 C 332.833,333.167 332.833,333.167 333.5,334.5 Z"/></g>
<g><path style="opacity:0.004" fill="#74beb2" d="M 333.5,334.5 C 334.525,334.897 334.692,335.563 334,336.5C 333.536,335.906 333.369,335.239 333.5,334.5 Z"/></g>
<g><path style="opacity:0.008" fill="#74beb2" d="M 241.5,337.5 C 241.897,336.475 242.563,336.308 243.5,337C 242.906,337.464 242.239,337.631 241.5,337.5 Z"/></g>
<g><path style="opacity:0.004" fill="#74beb2" d="M 332.5,337.5 C 333.833,338.167 333.833,338.167 332.5,337.5 Z"/></g>
<g><path style="opacity:0.004" fill="#74beb2" d="M 332.5,338.5 C 331.833,339.167 331.833,339.167 332.5,338.5 Z"/></g>
<g><path style="opacity:0.004" fill="#74beb2" d="M 331.5,339.5 C 330.833,340.167 330.833,340.167 331.5,339.5 Z"/></g>
<g><path style="opacity:1" fill="#f1e433" d="M 217.5,336.5 C 218.931,336.881 219.764,337.881 220,339.5C 220.498,342.482 220.665,345.482 220.5,348.5C 214.591,350.155 208.591,350.988 202.5,351C 207.395,345.936 212.395,341.103 217.5,336.5 Z"/></g>
<g><path style="opacity:0.004" fill="#74beb2" d="M 329.5,340.5 C 329.833,340.5 330.167,340.5 330.5,340.5C 330.315,341.17 329.981,341.17 329.5,340.5 Z"/></g>
<g><path style="opacity:0.004" fill="#74beb2" d="M 328.5,341.5 C 328.833,341.5 329.167,341.5 329.5,341.5C 329.315,342.17 328.981,342.17 328.5,341.5 Z"/></g>
<g><path style="opacity:0.735" fill="#72BDB1" d="M 332.5,334.5 C 331.5,336.5 330.5,338.5 329.5,340.5C 328.833,340.5 328.5,340.833 328.5,341.5C 327.508,341.328 326.842,341.662 326.5,342.5C 325.833,342.5 325.5,342.833 325.5,343.5C 324.833,343.5 324.5,343.833 324.5,344.5C 323.833,344.5 323.5,344.833 323.5,345.5C 322.833,345.5 322.5,345.833 322.5,346.5C 321.833,346.5 321.5,346.833 321.5,347.5C 320.833,347.5 320.5,347.833 320.5,348.5C 319.508,348.328 318.842,348.662 318.5,349.5C 317.833,349.5 317.5,349.833 317.5,350.5C 316.833,350.5 316.5,350.833 316.5,351.5C 315.167,351.5 313.833,351.5 312.5,351.5C 312.768,349.901 312.434,348.568 311.5,347.5C 312.008,345.767 312.841,345.434 314,346.5C 318.674,342.657 323.174,338.657 327.5,334.5C 329.199,333.185 330.865,333.185 332.5,334.5 Z"/></g>
<g><path style="opacity:0.004" fill="#74beb2" d="M 326.5,343.5 C 326.5,343.167 326.5,342.833 326.5,342.5C 327.167,342.5 327.833,342.5 328.5,342.5C 328.158,343.338 327.492,343.672 326.5,343.5 Z"/></g>
<g><path style="opacity:1" fill="#f1e533" d="M 121.5,340.5 C 124.891,343.385 128.224,346.552 131.5,350C 124.074,352.72 116.407,353.72 108.5,353C 112.729,348.602 117.062,344.436 121.5,340.5 Z"/></g>
<g><path style="opacity:0.004" fill="#74beb2" d="M 325.5,343.5 C 325.833,343.5 326.167,343.5 326.5,343.5C 326.315,344.17 325.981,344.17 325.5,343.5 Z"/></g>
<g><path style="opacity:0.016" fill="#74beb2" d="M 324.5,344.5 C 324.833,344.5 325.167,344.5 325.5,344.5C 325.315,345.17 324.981,345.17 324.5,344.5 Z"/></g>
<g><path style="opacity:0.016" fill="#74beb2" d="M 323.5,345.5 C 323.833,345.5 324.167,345.5 324.5,345.5C 324.315,346.17 323.981,346.17 323.5,345.5 Z"/></g>
<g><path style="opacity:0.016" fill="#74beb2" d="M 322.5,346.5 C 322.833,346.5 323.167,346.5 323.5,346.5C 323.315,347.17 322.981,347.17 322.5,346.5 Z"/></g>
<g><path style="opacity:0.004" fill="#74beb2" d="M 311.5,347.5 C 310.833,348.167 310.833,348.167 311.5,347.5 Z"/></g>
<g><path style="opacity:0.016" fill="#74beb2" d="M 321.5,347.5 C 321.833,347.5 322.167,347.5 322.5,347.5C 322.315,348.17 321.981,348.17 321.5,347.5 Z"/></g>
<g><path style="opacity:0.016" fill="#74beb2" d="M 320.5,348.5 C 320.833,348.5 321.167,348.5 321.5,348.5C 321.315,349.17 320.981,349.17 320.5,348.5 Z"/></g>
<g><path style="opacity:0.004" fill="#72BDB1" d="M 225.5,350.5 C 225.369,349.761 225.536,349.094 226,348.5C 226.692,349.437 226.525,350.103 225.5,350.5 Z"/></g>
<g><path style="opacity:0.004" fill="#74beb2" d="M 311.5,351.5 C 310.475,351.103 310.308,350.437 311,349.5C 311.464,350.094 311.631,350.761 311.5,351.5 Z"/></g>
<g><path style="opacity:0.004" fill="#74beb2" d="M 318.5,350.5 C 318.5,350.167 318.5,349.833 318.5,349.5C 319.167,349.5 319.833,349.5 320.5,349.5C 320.158,350.338 319.492,350.672 318.5,350.5 Z"/></g>
<g><path style="opacity:0.004" fill="#74beb2" d="M 224.5,350.5 C 224.833,350.5 225.167,350.5 225.5,350.5C 225.315,351.17 224.981,351.17 224.5,350.5 Z"/></g>
<g><path style="opacity:0.016" fill="#74beb2" d="M 317.5,350.5 C 317.833,350.5 318.167,350.5 318.5,350.5C 318.315,351.17 317.981,351.17 317.5,350.5 Z"/></g>
<g><path style="opacity:0.004" fill="#74beb2" d="M 224.5,351.5 C 223.833,352.167 223.833,352.167 224.5,351.5 Z"/></g>
<g><path style="opacity:0.004" fill="#74beb2" d="M 311.5,351.5 C 311.833,351.5 312.167,351.5 312.5,351.5C 312.5,351.833 312.5,352.167 312.5,352.5C 312.167,352.167 311.833,351.833 311.5,351.5 Z"/></g>
<g><path style="opacity:0.016" fill="#74beb2" d="M 316.5,351.5 C 316.833,351.5 317.167,351.5 317.5,351.5C 317.315,352.17 316.981,352.17 316.5,351.5 Z"/></g>
<g><path style="opacity:0.016" fill="#74beb2" d="M 221.5,352.5 C 222.833,353.167 222.833,353.167 221.5,352.5 Z"/></g>
<g><path style="opacity:0.004" fill="#74beb2" d="M 312.5,352.5 C 313.239,352.369 313.906,352.536 314.5,353C 313.563,353.692 312.897,353.525 312.5,352.5 Z"/></g>
<g><path style="opacity:0.004" fill="#74beb2" d="M 316.5,352.5 C 315.833,353.167 315.833,353.167 316.5,352.5 Z"/></g>
<g><path style="opacity:0.004" fill="#74beb2" d="M 60.5,353.5 C 60.5,353.833 60.5,354.167 60.5,354.5C 59.8299,354.019 59.8299,353.685 60.5,353.5 Z"/></g>
<g><path style="opacity:0.004" fill="#74beb2" d="M 60.5,354.5 C 61.8333,355.167 61.8333,355.167 60.5,354.5 Z"/></g>
<g><path style="opacity:0.016" fill="#74beb2" d="M 216.5,355.5 C 216.897,354.475 217.563,354.308 218.5,355C 217.906,355.464 217.239,355.631 216.5,355.5 Z"/></g>
<g><path style="opacity:0.016" fill="#74beb2" d="M 212.5,355.5 C 213.552,355.351 214.552,355.517 215.5,356C 214.251,356.74 213.251,356.573 212.5,355.5 Z"/></g>
<g><path style="opacity:0.016" fill="#74beb2" d="M 127.5,356.5 C 128.552,356.351 129.552,356.517 130.5,357C 129.251,357.74 128.251,357.573 127.5,356.5 Z"/></g>
<g><path style="opacity:0.004" fill="#72BDB1" d="M 205.5,357.5 C 206.946,356.387 208.613,356.22 210.5,357C 208.866,357.494 207.199,357.66 205.5,357.5 Z"/></g>
<g><path style="opacity:0.004" fill="#74beb2" d="M 296.5,357.5 C 296.897,356.475 297.563,356.308 298.5,357C 297.906,357.464 297.239,357.631 296.5,357.5 Z"/></g>
<g><path style="opacity:0.004" fill="#72BDB1" d="M 196.5,358.5 C 196.5,358.167 196.5,357.833 196.5,357.5C 204.5,357.833 204.5,358.167 196.5,358.5 Z"/></g>
<g><path style="opacity:0.016" fill="#74beb2" d="M 296.5,357.5 C 296.5,357.833 296.5,358.167 296.5,358.5C 295.83,358.019 295.83,357.685 296.5,357.5 Z"/></g>
<g><path style="opacity:0.004" fill="#74beb2" d="M 61.5,358.5 C 62.8333,359.167 62.8333,359.167 61.5,358.5 Z"/></g>
<g><path style="opacity:0.016" fill="#74beb2" d="M 113.5,359.5 C 115.628,358.371 117.961,358.204 120.5,359C 118.19,359.497 115.857,359.663 113.5,359.5 Z"/></g>
<g><path style="opacity:0.016" fill="#74beb2" d="M 195.5,358.5 C 195.833,358.5 196.167,358.5 196.5,358.5C 196.315,359.17 195.981,359.17 195.5,358.5 Z"/></g>
<g><path style="opacity:0.004" fill="#74beb2" d="M 293.5,358.5 C 294.833,359.167 294.833,359.167 293.5,358.5 Z"/></g>
<g><path style="opacity:0.004" fill="#74beb2" d="M 194.5,359.5 C 194.833,359.5 195.167,359.5 195.5,359.5C 195.315,360.17 194.981,360.17 194.5,359.5 Z"/></g>
<g><path style="opacity:0.004" fill="#74beb2" d="M 101.5,360.5 C 101.833,360.5 102.167,360.5 102.5,360.5C 102.315,361.17 101.981,361.17 101.5,360.5 Z"/></g>
<g><path style="opacity:0.004" fill="#74beb2" d="M 192.5,360.5 C 193.167,360.5 193.833,360.5 194.5,360.5C 194.027,361.906 193.027,362.573 191.5,362.5C 191.5,362.167 191.5,361.833 191.5,361.5C 192.167,361.5 192.5,361.167 192.5,360.5 Z"/></g>
<g><path style="opacity:0.016" fill="#74beb2" d="M 100.5,361.5 C 100.833,361.5 101.167,361.5 101.5,361.5C 101.315,362.17 100.981,362.17 100.5,361.5 Z"/></g>
<g><path style="opacity:0.004" fill="#74beb2" d="M 62.5,362.5 C 61.8333,363.167 61.8333,363.167 62.5,362.5 Z"/></g>
<g><path style="opacity:0.016" fill="#74beb2" d="M 99.5,362.5 C 99.8333,362.5 100.167,362.5 100.5,362.5C 100.315,363.17 99.9813,363.17 99.5,362.5 Z"/></g>
<g><path style="opacity:0.016" fill="#74beb2" d="M 190.5,362.5 C 190.833,362.5 191.167,362.5 191.5,362.5C 191.315,363.17 190.981,363.17 190.5,362.5 Z"/></g>
<g><path style="opacity:0.016" fill="#74beb2" d="M 98.5,363.5 C 98.8333,363.5 99.1667,363.5 99.5,363.5C 99.3147,364.17 98.9813,364.17 98.5,363.5 Z"/></g>
<g><path style="opacity:0.016" fill="#74beb2" d="M 189.5,363.5 C 189.833,363.5 190.167,363.5 190.5,363.5C 190.315,364.17 189.981,364.17 189.5,363.5 Z"/></g>
<g><path style="opacity:0.02" fill="#5361af" d="M 66.5,365.5 C 65.7611,365.631 65.0944,365.464 64.5,365C 65.4368,364.308 66.1034,364.475 66.5,365.5 Z"/></g>
<g><path style="opacity:0.016" fill="#74beb2" d="M 97.5,364.5 C 97.8333,364.5 98.1667,364.5 98.5,364.5C 98.3147,365.17 97.9813,365.17 97.5,364.5 Z"/></g>
<g><path style="opacity:0.016" fill="#74beb2" d="M 188.5,364.5 C 188.833,364.5 189.167,364.5 189.5,364.5C 189.315,365.17 188.981,365.17 188.5,364.5 Z"/></g>
<g><path style="opacity:0.016" fill="#74beb2" d="M 187.5,365.5 C 187.833,365.5 188.167,365.5 188.5,365.5C 188.315,366.17 187.981,366.17 187.5,365.5 Z"/></g>
<g><path style="opacity:0.755" fill="#72BDB1" d="M 296.5,358.5 C 298.738,359.741 300.738,360.741 302.5,361.5C 300.774,364.299 298.774,365.966 296.5,366.5C 295.833,365.167 295.167,365.167 294.5,366.5C 292.973,366.427 291.973,367.094 291.5,368.5C 290.508,368.328 289.842,368.662 289.5,369.5C 288.508,369.328 287.842,369.662 287.5,370.5C 286.508,370.328 285.842,370.662 285.5,371.5C 284.508,371.328 283.842,371.662 283.5,372.5C 282.508,372.328 281.842,372.662 281.5,373.5C 278.32,373.824 277.153,372.49 278,369.5C 284.643,366.437 290.81,362.77 296.5,358.5 Z"/></g>
<g><path style="opacity:0.016" fill="#74beb2" d="M 186.5,366.5 C 186.833,366.5 187.167,366.5 187.5,366.5C 187.315,367.17 186.981,367.17 186.5,366.5 Z"/></g>
<g><path style="opacity:0.004" fill="#72BDB1" d="M 294.5,367.5 C 294.5,367.167 294.5,366.833 294.5,366.5C 295.167,366.5 295.833,366.5 296.5,366.5C 296.158,367.338 295.492,367.672 294.5,367.5 Z"/></g>
<g><path style="opacity:0.004" fill="#74beb2" d="M 185.5,367.5 C 185.833,367.5 186.167,367.5 186.5,367.5C 186.315,368.17 185.981,368.17 185.5,367.5 Z"/></g>
<g><path style="opacity:0.004" fill="#74beb2" d="M 294.5,367.5 C 293.833,368.167 293.833,368.167 294.5,367.5 Z"/></g>
<g><path style="opacity:0.008" fill="#a5c1ff" d="M 70.5,368.5 C 69.8333,369.167 69.8333,369.167 70.5,368.5 Z"/></g>
<g><path style="opacity:0.016" fill="#74beb2" d="M 93.5,368.5 C 93.8333,368.5 94.1667,368.5 94.5,368.5C 94.3147,369.17 93.9813,369.17 93.5,368.5 Z"/></g>
<g><path style="opacity:0.004" fill="#74beb2" d="M 184.5,368.5 C 184.833,368.5 185.167,368.5 185.5,368.5C 185.315,369.17 184.981,369.17 184.5,368.5 Z"/></g>
<g><path style="opacity:0.016" fill="#74beb2" d="M 291.5,368.5 C 292.833,369.167 292.833,369.167 291.5,368.5 Z"/></g>
<g><path style="opacity:0.016" fill="#74beb2" d="M 92.5,369.5 C 92.8333,369.5 93.1667,369.5 93.5,369.5C 93.3147,370.17 92.9813,370.17 92.5,369.5 Z"/></g>
<g><path style="opacity:0.004" fill="#74beb2" d="M 182.5,370.5 C 182.5,370.167 182.5,369.833 182.5,369.5C 183.167,369.5 183.833,369.5 184.5,369.5C 184.158,370.338 183.492,370.672 182.5,370.5 Z"/></g>
<g><path style="opacity:0.004" fill="#72BDB1" d="M 289.5,370.5 C 289.5,370.167 289.5,369.833 289.5,369.5C 290.167,369.5 290.833,369.5 291.5,369.5C 291.158,370.338 290.492,370.672 289.5,370.5 Z"/></g>
<g><path style="opacity:0.008" fill="#a5c1ff" d="M 70.5,370.5 C 71.8333,371.167 71.8333,371.167 70.5,370.5 Z"/></g>
<g><path style="opacity:0.004" fill="#74beb2" d="M 181.5,370.5 C 181.833,370.5 182.167,370.5 182.5,370.5C 182.315,371.17 181.981,371.17 181.5,370.5 Z"/></g>
<g><path style="opacity:0.016" fill="#74beb2" d="M 275.5,369.5 C 276.573,370.251 276.74,371.251 276,372.5C 275.517,371.552 275.351,370.552 275.5,369.5 Z"/></g>
<g><path style="opacity:0.004" fill="#72BDB1" d="M 287.5,371.5 C 287.5,371.167 287.5,370.833 287.5,370.5C 288.167,370.5 288.833,370.5 289.5,370.5C 289.158,371.338 288.492,371.672 287.5,371.5 Z"/></g>
<g><path style="opacity:0.016" fill="#74beb2" d="M 180.5,371.5 C 180.833,371.5 181.167,371.5 181.5,371.5C 181.315,372.17 180.981,372.17 180.5,371.5 Z"/></g>
<g><path style="opacity:0.004" fill="#72BDB1" d="M 285.5,372.5 C 285.5,372.167 285.5,371.833 285.5,371.5C 286.167,371.5 286.833,371.5 287.5,371.5C 287.158,372.338 286.492,372.672 285.5,372.5 Z"/></g>
<g><path style="opacity:0.016" fill="#74beb2" d="M 179.5,372.5 C 179.833,372.5 180.167,372.5 180.5,372.5C 180.315,373.17 179.981,373.17 179.5,372.5 Z"/></g>
<g><path style="opacity:0.004" fill="#72BDB1" d="M 283.5,373.5 C 283.5,373.167 283.5,372.833 283.5,372.5C 284.167,372.5 284.833,372.5 285.5,372.5C 285.158,373.338 284.492,373.672 283.5,373.5 Z"/></g>
<g><path style="opacity:0.004" fill="#72BDB1" d="M 281.5,374.5 C 281.5,374.167 281.5,373.833 281.5,373.5C 282.167,373.5 282.833,373.5 283.5,373.5C 283.158,374.338 282.492,374.672 281.5,374.5 Z"/></g>
<g><path style="opacity:0.016" fill="#74beb2" d="M 258.5,375.5 C 259.601,374.402 260.934,374.235 262.5,375C 261.207,375.49 259.873,375.657 258.5,375.5 Z"/></g>
<g><path style="opacity:0.016" fill="#74beb2" d="M 281.5,374.5 C 280.749,375.573 279.749,375.74 278.5,375C 279.448,374.517 280.448,374.351 281.5,374.5 Z"/></g>
<g><path style="opacity:0.004" fill="#74beb2" d="M 85.5,375.5 C 86.8333,376.167 86.8333,376.167 85.5,375.5 Z"/></g>
<g><path style="opacity:0.016" fill="#74beb2" d="M 176.5,375.5 C 176.833,375.5 177.167,375.5 177.5,375.5C 177.315,376.17 176.981,376.17 176.5,375.5 Z"/></g>
<g><path style="opacity:0.016" fill="#74beb2" d="M 255.5,376.5 C 255.897,375.475 256.563,375.308 257.5,376C 256.906,376.464 256.239,376.631 255.5,376.5 Z"/></g>
<g><path style="opacity:0.016" fill="#74beb2" d="M 84.5,376.5 C 84.8333,376.5 85.1667,376.5 85.5,376.5C 85.3147,377.17 84.9813,377.17 84.5,376.5 Z"/></g>
<g><path style="opacity:0.016" fill="#74beb2" d="M 252.5,377.5 C 252.897,376.475 253.563,376.308 254.5,377C 253.906,377.464 253.239,377.631 252.5,377.5 Z"/></g>
<g><path style="opacity:0.016" fill="#74beb2" d="M 251.5,378.5 C 250.448,378.649 249.448,378.483 248.5,378C 249.749,377.26 250.749,377.427 251.5,378.5 Z"/></g>
<g><path style="opacity:0.004" fill="#74beb2" d="M 75.5,378.5 C 75.8333,378.5 76.1667,378.5 76.5,378.5C 76.3147,379.17 75.9813,379.17 75.5,378.5 Z"/></g>
<g><path style="opacity:0.016" fill="#74beb2" d="M 244.5,379.5 C 245.251,378.427 246.251,378.26 247.5,379C 246.552,379.483 245.552,379.649 244.5,379.5 Z"/></g>
<g><path style="opacity:0.016" fill="#74beb2" d="M 81.5,379.5 C 81.8333,379.5 82.1667,379.5 82.5,379.5C 82.3147,380.17 81.9813,380.17 81.5,379.5 Z"/></g>
<g><path style="opacity:0.016" fill="#74beb2" d="M 243.5,380.5 C 242.448,380.649 241.448,380.483 240.5,380C 241.749,379.26 242.749,379.427 243.5,380.5 Z"/></g>
<g><path style="opacity:0.004" fill="#74beb2" d="M 80.5,380.5 C 80.8333,380.5 81.1667,380.5 81.5,380.5C 81.3147,381.17 80.9813,381.17 80.5,380.5 Z"/></g>
<g><path style="opacity:0.016" fill="#74beb2" d="M 170.5,380.5 C 171.833,381.167 171.833,381.167 170.5,380.5 Z"/></g>
<g><path style="opacity:0.004" fill="#74beb2" d="M 238.5,380.5 C 239.833,381.167 239.833,381.167 238.5,380.5 Z"/></g>
<g><path style="opacity:0.004" fill="#74beb2" d="M 80.5,381.5 C 80.1034,382.525 79.4368,382.692 78.5,382C 79.0944,381.536 79.7611,381.369 80.5,381.5 Z"/></g>
<g><path style="opacity:0.016" fill="#74beb2" d="M 169.5,381.5 C 169.833,381.5 170.167,381.5 170.5,381.5C 170.315,382.17 169.981,382.17 169.5,381.5 Z"/></g>
<g><path style="opacity:0.727" fill="#74beb2" d="M 261.5,381.5 C 258.215,381.928 255.215,382.928 252.5,384.5C 251.209,384.263 250.209,384.596 249.5,385.5C 246.402,385.413 246.068,385.913 248.5,387C 246.765,387.651 245.098,387.485 243.5,386.5C 242.304,386.846 242.304,387.346 243.5,388C 242.167,388.667 240.833,388.667 239.5,388C 240.167,387.667 240.833,387.333 241.5,387C 239.82,386.653 238.82,385.653 238.5,384C 239.921,382.377 241.588,381.21 243.5,380.5C 246.495,380.706 249.162,380.04 251.5,378.5C 255.826,377.408 259.993,376.742 264,376.5C 264.692,377.025 265.192,377.692 265.5,378.5C 264.053,378.677 262.719,379.677 261.5,381.5 Z"/></g>
<g><path style="opacity:0.004" fill="#74beb2" d="M 261.5,381.5 C 262.833,382.167 262.833,382.167 261.5,381.5 Z"/></g>
<g><path style="opacity:0.016" fill="#74beb2" d="M 168.5,382.5 C 168.833,382.5 169.167,382.5 169.5,382.5C 169.315,383.17 168.981,383.17 168.5,382.5 Z"/></g>
<g><path style="opacity:0.004" fill="#72BDB1" d="M 261.5,382.5 C 261.103,383.525 260.437,383.692 259.5,383C 260.094,382.536 260.761,382.369 261.5,382.5 Z"/></g>
<g><path style="opacity:0.016" fill="#74beb2" d="M 167.5,383.5 C 167.833,383.5 168.167,383.5 168.5,383.5C 168.315,384.17 167.981,384.17 167.5,383.5 Z"/></g>
<g><path style="opacity:0.016" fill="#72BDB1" d="M 199.5,384.5 C 204.985,383.348 210.651,383.182 216.5,384C 210.843,384.499 205.176,384.666 199.5,384.5 Z"/></g>
<g><path style="opacity:0.016" fill="#74beb2" d="M 236.5,382.5 C 237.573,383.251 237.74,384.251 237,385.5C 236.517,384.552 236.351,383.552 236.5,382.5 Z"/></g>
<g><path style="opacity:0.004" fill="#72BDB1" d="M 256.5,384.5 C 256.897,383.475 257.563,383.308 258.5,384C 257.906,384.464 257.239,384.631 256.5,384.5 Z"/></g>
<g><path style="opacity:0.016" fill="#74beb2" d="M 163.5,384.5 C 162.749,385.573 161.749,385.74 160.5,385C 161.448,384.517 162.448,384.351 163.5,384.5 Z"/></g>
<g><path style="opacity:0.016" fill="#74beb2" d="M 164.5,384.5 C 165.5,384.5 166.5,384.5 167.5,384.5C 166.5,385.833 165.5,385.833 164.5,384.5 Z"/></g>
<g><path style="opacity:0.016" fill="#74beb2" d="M 252.5,384.5 C 253.552,384.351 254.552,384.517 255.5,385C 254.251,385.74 253.251,385.573 252.5,384.5 Z"/></g>
<g><path style="opacity:0.681" fill="#74beb2" d="M 220.5,390.5 C 213.159,390.666 205.826,390.5 198.5,390C 197.289,388.887 197.289,387.72 198.5,386.5C 205.678,385.783 212.845,385.117 220,384.5C 221.947,386.104 223.78,387.104 225.5,387.5C 223.64,388.325 221.974,389.325 220.5,390.5 Z"/></g>
<g><path style="opacity:0.004" fill="#72BDB1" d="M 249.5,385.5 C 250.239,385.369 250.906,385.536 251.5,386C 250.563,386.692 249.897,386.525 249.5,385.5 Z"/></g>
<g><path style="opacity:0.004" fill="#74beb2" d="M 195.5,387.5 C 196.833,388.167 196.833,388.167 195.5,387.5 Z"/></g>
<g><path style="opacity:0.016" fill="#74beb2" d="M 220.5,390.5 C 221.239,390.369 221.906,390.536 222.5,391C 221.563,391.692 220.897,391.525 220.5,390.5 Z"/></g>
<g><path style="opacity:0.004" fill="#74beb2" d="M 199.5,392.5 C 205.319,391.347 211.319,391.181 217.5,392C 211.509,392.499 205.509,392.666 199.5,392.5 Z"/></g>
</svg>
