<?xml version="1.0" encoding="UTF-8"?>
<!DOCTYPE svg PUBLIC "-//W3C//DTD SVG 1.1//EN" "http://www.w3.org/Graphics/SVG/1.1/DTD/svg11.dtd">
<svg xmlns="http://www.w3.org/2000/svg" version="1.1" width="420px" height="420px" style="shape-rendering:geometricPrecision; text-rendering:geometricPrecision; image-rendering:optimizeQuality; fill-rule:evenodd; clip-rule:evenodd" xmlns:xlink="http://www.w3.org/1999/xlink">
<g><path style="opacity:0.008" fill="#fefffe" d="M 169.5,26.5 C 169.897,25.475 170.563,25.3083 171.5,26C 170.906,26.4643 170.239,26.631 169.5,26.5 Z"/></g>
<g><path style="opacity:0.008" fill="#fefffe" d="M 262.5,26.5 C 262.897,25.475 263.563,25.3083 264.5,26C 263.906,26.4643 263.239,26.631 262.5,26.5 Z"/></g>
<g><path style="opacity:0.874" fill="#fefffe" d="M 269.5,30.5 C 270.167,31.8333 271.167,32.8333 272.5,33.5C 272.328,34.4916 272.662,35.1583 273.5,35.5C 274.833,72.1667 274.833,108.833 273.5,145.5C 272.662,145.842 272.328,146.508 272.5,147.5C 271.833,147.5 271.5,147.833 271.5,148.5C 270.5,148.833 269.833,149.5 269.5,150.5C 268.833,150.5 268.5,150.833 268.5,151.5C 267.833,151.5 267.5,151.833 267.5,152.5C 266.508,152.328 265.842,152.662 265.5,153.5C 234.19,154.637 202.856,154.803 171.5,154C 169.146,153.153 166.812,152.32 164.5,151.5C 163.136,149.809 161.803,148.142 160.5,146.5C 159.346,109.875 159.18,73.2082 160,36.5C 162.462,30.5129 166.962,27.3463 173.5,27C 202.5,26.3333 231.5,26.3333 260.5,27C 263.828,27.4949 266.828,28.6615 269.5,30.5 Z M 261.5,40.5 C 262.833,73.8333 262.833,107.167 261.5,140.5C 231.671,141.498 201.671,141.831 171.5,141.5C 171.5,107.5 171.5,73.5 171.5,39.5C 201.671,39.1686 231.671,39.5019 261.5,40.5 Z M 189.5,86.5 C 190.167,86.5 190.833,86.5 191.5,86.5C 191.214,88.9327 190.548,88.9327 189.5,86.5 Z"/></g>
<g><path style="opacity:0.008" fill="#fefffe" d="M 265.5,26.5 C 266.833,27.1667 266.833,27.1667 265.5,26.5 Z"/></g>
<g><path style="opacity:0.008" fill="#fefffe" d="M 269.5,29.5 C 270.833,30.1667 270.833,30.1667 269.5,29.5 Z"/></g>
<g><path style="opacity:0.008" fill="#fefffe" d="M 272.5,32.5 C 273.833,33.1667 273.833,33.1667 272.5,32.5 Z"/></g>
<g><path style="opacity:0.008" fill="#fefffe" d="M 273.5,34.5 C 274.833,35.1667 274.833,35.1667 273.5,34.5 Z"/></g>
<g><path style="opacity:0.008" fill="#fefffe" d="M 274.5,36.5 C 275.833,37.1667 275.833,37.1667 274.5,36.5 Z"/></g>
<g><path style="opacity:0.012" fill="#fefffe" d="M 157.5,37.5 C 158.525,37.8966 158.692,38.5632 158,39.5C 157.536,38.9056 157.369,38.2389 157.5,37.5 Z"/></g>
<g><path style="opacity:0.008" fill="#fefffe" d="M 275.5,40.5 C 276.664,73.6641 276.831,106.997 276,140.5C 275.5,107.168 275.333,73.835 275.5,40.5 Z"/></g>
<g><path style="opacity:0.891" fill="#fefffe" d="M 208.5,42.5 C 213.302,44.7834 214.636,48.45 212.5,53.5C 211.5,53.8333 210.833,54.5 210.5,55.5C 209.094,55.9731 208.427,56.9731 208.5,58.5C 207.167,59.1667 206.167,60.1667 205.5,61.5C 204.094,61.9731 203.427,62.9731 203.5,64.5C 202.167,65.1667 201.167,66.1667 200.5,67.5C 199.094,67.9731 198.427,68.9731 198.5,70.5C 197.5,70.8333 196.833,71.5 196.5,72.5C 195.508,72.3284 194.842,72.6618 194.5,73.5C 192.784,73.3713 191.117,73.038 189.5,72.5C 186.833,69.1667 183.833,66.1667 180.5,63.5C 180.672,62.5084 180.338,61.8417 179.5,61.5C 180.712,55.0601 184.379,53.0601 190.5,55.5C 190.5,56.1667 190.833,56.5 191.5,56.5C 191.369,57.2389 191.536,57.9056 192,58.5C 193.481,57.5291 194.315,56.1958 194.5,54.5C 195.833,53.8333 196.833,52.8333 197.5,51.5C 198.906,51.0269 199.573,50.0269 199.5,48.5C 201.5,47.1667 203.167,45.5 204.5,43.5C 205.959,43.5674 207.292,43.2341 208.5,42.5 Z"/></g>
<g><path style="opacity:0.881" fill="#fefffe" d="M 226.5,56.5 C 234.84,56.3336 243.173,56.5003 251.5,57C 252.901,57.4101 254.234,57.9101 255.5,58.5C 256.265,61.0961 256.599,63.7628 256.5,66.5C 255.167,67.1667 254.167,68.1667 253.5,69.5C 243.833,69.5 234.167,69.5 224.5,69.5C 223.833,68.1667 222.833,67.1667 221.5,66.5C 221.5,64.5 221.5,62.5 221.5,60.5C 222.984,58.9263 224.651,57.593 226.5,56.5 Z"/></g>
<g><path style="opacity:0.888" fill="#fefffe" d="M 209.5,73.5 C 209.833,74.5 210.5,75.1667 211.5,75.5C 211.328,76.4916 211.662,77.1583 212.5,77.5C 212.043,80.4056 211.043,83.0722 209.5,85.5C 208.167,86.1667 207.167,87.1667 206.5,88.5C 205.094,88.9731 204.427,89.9731 204.5,91.5C 203.167,92.1667 202.167,93.1667 201.5,94.5C 200.094,94.9731 199.427,95.9731 199.5,97.5C 198.167,98.1667 197.167,99.1667 196.5,100.5C 195.167,101.167 194.167,102.167 193.5,103.5C 191.435,103.483 189.435,103.15 187.5,102.5C 184.833,99.1667 181.833,96.1667 178.5,93.5C 178.5,91.5 178.5,89.5 178.5,87.5C 179.5,87.1667 180.167,86.5 180.5,85.5C 183.167,84.1667 185.833,84.1667 188.5,85.5C 188.5,86.1667 188.833,86.5 189.5,86.5C 190.548,88.9327 191.214,88.9327 191.5,86.5C 192.833,85.8333 193.833,84.8333 194.5,83.5C 195.906,83.0269 196.573,82.0269 196.5,80.5C 197.833,79.8333 198.833,78.8333 199.5,77.5C 201.891,74.083 205.225,72.7497 209.5,73.5 Z M 189.5,86.5 C 190.167,86.5 190.833,86.5 191.5,86.5C 191.214,88.9327 190.548,88.9327 189.5,86.5 Z"/></g>
<g><path style="opacity:0.876" fill="#fefffe" d="M 225.5,81.5 C 234.5,81.5 243.5,81.5 252.5,81.5C 252.842,82.3382 253.508,82.6716 254.5,82.5C 254.5,83.1667 254.833,83.5 255.5,83.5C 256.265,86.0961 256.599,88.7628 256.5,91.5C 255.167,92.1667 254.167,93.1667 253.5,94.5C 243.833,94.5 234.167,94.5 224.5,94.5C 223.833,93.1667 222.833,92.1667 221.5,91.5C 221.401,88.7628 221.735,86.0961 222.5,83.5C 223.71,83.0679 224.71,82.4013 225.5,81.5 Z"/></g>
<g><path style="opacity:0.008" fill="#fefffe" d="M 138.5,87.5 C 137.833,86.1667 137.833,86.1667 138.5,87.5 Z"/></g>
<g><path style="opacity:0.008" fill="#fefffe" d="M 142.5,86.5 C 143.833,87.1667 143.833,87.1667 142.5,86.5 Z"/></g>
<g><path style="opacity:0.008" fill="#fefffe" d="M 300.5,86.5 C 301.833,87.1667 301.833,87.1667 300.5,86.5 Z"/></g>
<g><path style="opacity:0.893" fill="#fefffe" d="M 138.5,87.5 C 139.833,87.5 141.167,87.5 142.5,87.5C 143.5,89.1667 144.833,90.5 146.5,91.5C 146.483,93.5648 146.15,95.5648 145.5,97.5C 144.833,97.5 144.5,97.8333 144.5,98.5C 143.833,98.5 143.5,98.8333 143.5,99.5C 142.833,99.5 142.5,99.8333 142.5,100.5C 141.508,100.328 140.842,100.662 140.5,101.5C 139.833,101.5 139.5,101.833 139.5,102.5C 137.973,102.427 136.973,103.094 136.5,104.5C 135.833,104.5 135.5,104.833 135.5,105.5C 134.833,105.5 134.5,105.833 134.5,106.5C 133.833,106.5 133.5,106.833 133.5,107.5C 131.596,107.738 130.262,108.738 129.5,110.5C 128.833,110.5 128.5,110.833 128.5,111.5C 127.833,111.5 127.5,111.833 127.5,112.5C 126.833,112.5 126.5,112.833 126.5,113.5C 125.833,113.5 125.5,113.833 125.5,114.5C 124.833,114.5 124.5,114.833 124.5,115.5C 123.833,115.5 123.5,115.833 123.5,116.5C 122.833,116.5 122.5,116.833 122.5,117.5C 121.833,117.5 121.5,117.833 121.5,118.5C 119.738,119.262 118.738,120.596 118.5,122.5C 117.833,122.5 117.5,122.833 117.5,123.5C 116.833,123.5 116.5,123.833 116.5,124.5C 115.094,124.973 114.427,125.973 114.5,127.5C 113.833,127.5 113.5,127.833 113.5,128.5C 112.094,128.973 111.427,129.973 111.5,131.5C 110.833,131.5 110.5,131.833 110.5,132.5C 109.662,132.842 109.328,133.508 109.5,134.5C 108.833,134.5 108.5,134.833 108.5,135.5C 107.662,135.842 107.328,136.508 107.5,137.5C 106.833,137.5 106.5,137.833 106.5,138.5C 105.167,139.167 104.167,140.167 103.5,141.5C 101.833,141.5 100.167,141.5 98.5,141.5C 94.4444,138.407 93.7777,134.741 96.5,130.5C 107.79,113.543 121.79,99.2094 138.5,87.5 Z"/></g>
<g><path style="opacity:0.893" fill="#fefffe" d="M 305.5,91.5 C 306.795,92.4884 308.128,93.4884 309.5,94.5C 312.126,96.8235 314.793,99.1568 317.5,101.5C 321.5,106.167 325.833,110.5 330.5,114.5C 331.08,116.749 332.413,118.415 334.5,119.5C 334.738,121.404 335.738,122.738 337.5,123.5C 338.34,125.853 339.674,127.853 341.5,129.5C 341.427,131.027 342.094,132.027 343.5,132.5C 343.5,134.5 343.5,136.5 343.5,138.5C 342.833,138.5 342.5,138.833 342.5,139.5C 341.833,139.5 341.5,139.833 341.5,140.5C 340.833,140.5 340.5,140.833 340.5,141.5C 338.833,141.5 337.167,141.5 335.5,141.5C 333.614,140.07 331.947,138.403 330.5,136.5C 330.573,134.973 329.906,133.973 328.5,133.5C 327.551,131.223 326.218,129.223 324.5,127.5C 323.396,125.611 322.063,123.945 320.5,122.5C 314.777,115.775 308.444,109.775 301.5,104.5C 298.905,102.184 296.239,99.8508 293.5,97.5C 291.177,92.3688 292.677,89.0354 298,87.5C 300.633,88.644 303.133,89.9773 305.5,91.5 Z"/></g>
<g><path style="opacity:0.008" fill="#fefffe" d="M 146.5,90.5 C 147.833,91.1667 147.833,91.1667 146.5,90.5 Z"/></g>
<g><path style="opacity:0.008" fill="#fefffe" d="M 305.5,90.5 C 306.833,91.1667 306.833,91.1667 305.5,90.5 Z"/></g>
<g><path style="opacity:0.008" fill="#fefffe" d="M 290.5,91.5 C 291.833,92.1667 291.833,92.1667 290.5,91.5 Z"/></g>
<g><path style="opacity:0.008" fill="#fefffe" d="M 147.5,92.5 C 148.573,93.2506 148.74,94.2506 148,95.5C 147.517,94.552 147.351,93.552 147.5,92.5 Z"/></g>
<g><path style="opacity:0.016" fill="#fefffe" d="M 309.5,93.5 C 310.833,94.1667 310.833,94.1667 309.5,93.5 Z"/></g>
<g><path style="opacity:0.008" fill="#fefffe" d="M 290.5,94.5 C 291.525,94.8966 291.692,95.5632 291,96.5C 290.536,95.9056 290.369,95.2389 290.5,94.5 Z"/></g>
<g><path style="opacity:0.008" fill="#fefffe" d="M 312.5,95.5 C 313.833,96.1667 313.833,96.1667 312.5,95.5 Z"/></g>
<g><path style="opacity:0.008" fill="#fefffe" d="M 146.5,96.5 C 147.833,97.1667 147.833,97.1667 146.5,96.5 Z"/></g>
<g><path style="opacity:0.008" fill="#fefffe" d="M 122.5,97.5 C 123.833,98.1667 123.833,98.1667 122.5,97.5 Z"/></g>
<g><path style="opacity:0.008" fill="#fefffe" d="M 145.5,97.5 C 145.833,97.5 146.167,97.5 146.5,97.5C 146.315,98.1701 145.981,98.1701 145.5,97.5 Z"/></g>
<g><path style="opacity:0.008" fill="#fefffe" d="M 144.5,98.5 C 144.833,98.5 145.167,98.5 145.5,98.5C 145.315,99.1701 144.981,99.1701 144.5,98.5 Z"/></g>
<g><path style="opacity:0.008" fill="#fefffe" d="M 143.5,99.5 C 143.833,99.5 144.167,99.5 144.5,99.5C 144.315,100.17 143.981,100.17 143.5,99.5 Z"/></g>
<g><path style="opacity:0.008" fill="#fefffe" d="M 142.5,100.5 C 142.833,100.5 143.167,100.5 143.5,100.5C 143.315,101.17 142.981,101.17 142.5,100.5 Z"/></g>
<g><path style="opacity:0.008" fill="#fefffe" d="M 317.5,100.5 C 318.833,101.167 318.833,101.167 317.5,100.5 Z"/></g>
<g><path style="opacity:0.008" fill="#fefffe" d="M 140.5,102.5 C 140.5,102.167 140.5,101.833 140.5,101.5C 141.167,101.5 141.833,101.5 142.5,101.5C 142.158,102.338 141.492,102.672 140.5,102.5 Z"/></g>
<g><path style="opacity:0.016" fill="#fefffe" d="M 139.5,102.5 C 139.833,102.5 140.167,102.5 140.5,102.5C 140.315,103.17 139.981,103.17 139.5,102.5 Z"/></g>
<g><path style="opacity:0.008" fill="#fefffe" d="M 139.5,103.5 C 138.833,104.167 138.833,104.167 139.5,103.5 Z"/></g>
<g><path style="opacity:0.884" fill="#fefffe" d="M 207.5,103.5 C 208.167,104.833 209.167,105.833 210.5,106.5C 210.552,108.903 210.219,111.236 209.5,113.5C 208.833,113.5 208.5,113.833 208.5,114.5C 207.094,114.973 206.427,115.973 206.5,117.5C 205.167,118.167 204.167,119.167 203.5,120.5C 202.094,120.973 201.427,121.973 201.5,123.5C 200.167,124.167 199.167,125.167 198.5,126.5C 197.094,126.973 196.427,127.973 196.5,129.5C 195.167,130.167 194.167,131.167 193.5,132.5C 191.236,133.219 188.903,133.552 186.5,133.5C 183.138,129.808 179.805,126.141 176.5,122.5C 176.833,117.5 179.5,114.833 184.5,114.5C 186.103,115.596 187.603,116.93 189,118.5C 189.717,117.956 190.217,117.289 190.5,116.5C 191.906,116.027 192.573,115.027 192.5,113.5C 193.833,112.833 194.833,111.833 195.5,110.5C 196.906,110.027 197.573,109.027 197.5,107.5C 198.833,106.833 199.833,105.833 200.5,104.5C 202.764,103.781 205.097,103.448 207.5,103.5 Z"/></g>
<g><path style="opacity:0.008" fill="#fefffe" d="M 136.5,104.5 C 137.833,105.167 137.833,105.167 136.5,104.5 Z"/></g>
<g><path style="opacity:0.016" fill="#fefffe" d="M 301.5,104.5 C 301.5,104.833 301.5,105.167 301.5,105.5C 300.83,105.019 300.83,104.685 301.5,104.5 Z"/></g>
<g><path style="opacity:0.016" fill="#fefffe" d="M 135.5,105.5 C 135.833,105.5 136.167,105.5 136.5,105.5C 136.315,106.17 135.981,106.17 135.5,105.5 Z"/></g>
<g><path style="opacity:0.008" fill="#fefffe" d="M 301.5,105.5 C 302.833,106.167 302.833,106.167 301.5,105.5 Z"/></g>
<g><path style="opacity:0.016" fill="#fefffe" d="M 134.5,106.5 C 134.833,106.5 135.167,106.5 135.5,106.5C 135.315,107.17 134.981,107.17 134.5,106.5 Z"/></g>
<g><path style="opacity:0.008" fill="#fefffe" d="M 133.5,107.5 C 133.833,107.5 134.167,107.5 134.5,107.5C 134.315,108.17 133.981,108.17 133.5,107.5 Z"/></g>
<g><path style="opacity:0.008" fill="#fefffe" d="M 133.5,108.5 C 132.833,109.167 132.833,109.167 133.5,108.5 Z"/></g>
<g><path style="opacity:0.008" fill="#fefffe" d="M 129.5,110.5 C 130.833,111.167 130.833,111.167 129.5,110.5 Z"/></g>
<g><path style="opacity:0.008" fill="#fefffe" d="M 108.5,111.5 C 109.833,112.167 109.833,112.167 108.5,111.5 Z"/></g>
<g><path style="opacity:0.008" fill="#fefffe" d="M 128.5,111.5 C 128.833,111.5 129.167,111.5 129.5,111.5C 129.315,112.17 128.981,112.17 128.5,111.5 Z"/></g>
<g><path style="opacity:0.841" fill="#fefffe" d="M 256.5,115.5 C 256.5,117.5 256.5,119.5 256.5,121.5C 255.5,122.5 254.5,123.5 253.5,124.5C 243.833,125.833 234.167,125.833 224.5,124.5C 223.833,123.167 222.833,122.167 221.5,121.5C 221.5,119.5 221.5,117.5 221.5,115.5C 222.833,114.833 223.833,113.833 224.5,112.5C 233.132,111.422 241.798,111.256 250.5,112C 253.025,112.424 255.025,113.59 256.5,115.5 Z"/></g>
<g><path style="opacity:0.008" fill="#fefffe" d="M 127.5,112.5 C 127.833,112.5 128.167,112.5 128.5,112.5C 128.315,113.17 127.981,113.17 127.5,112.5 Z"/></g>
<g><path style="opacity:0.008" fill="#fefffe" d="M 126.5,113.5 C 126.833,113.5 127.167,113.5 127.5,113.5C 127.315,114.17 126.981,114.17 126.5,113.5 Z"/></g>
<g><path style="opacity:0.008" fill="#fefffe" d="M 331.5,114.5 C 330.833,113.167 330.833,113.167 331.5,114.5 Z"/></g>
<g><path style="opacity:0.008" fill="#fefffe" d="M 125.5,114.5 C 125.833,114.5 126.167,114.5 126.5,114.5C 126.315,115.17 125.981,115.17 125.5,114.5 Z"/></g>
<g><path style="opacity:0.008" fill="#fefffe" d="M 331.5,114.5 C 332.833,115.167 332.833,115.167 331.5,114.5 Z"/></g>
<g><path style="opacity:0.008" fill="#fefffe" d="M 124.5,115.5 C 124.833,115.5 125.167,115.5 125.5,115.5C 125.315,116.17 124.981,116.17 124.5,115.5 Z"/></g>
<g><path style="opacity:0.008" fill="#fefffe" d="M 123.5,116.5 C 123.833,116.5 124.167,116.5 124.5,116.5C 124.315,117.17 123.981,117.17 123.5,116.5 Z"/></g>
<g><path style="opacity:0.008" fill="#fefffe" d="M 122.5,117.5 C 122.833,117.5 123.167,117.5 123.5,117.5C 123.315,118.17 122.981,118.17 122.5,117.5 Z"/></g>
<g><path style="opacity:0.008" fill="#fefffe" d="M 121.5,118.5 C 121.833,118.5 122.167,118.5 122.5,118.5C 122.315,119.17 121.981,119.17 121.5,118.5 Z"/></g>
<g><path style="opacity:0.008" fill="#fefffe" d="M 335.5,119.5 C 334.833,118.167 334.833,118.167 335.5,119.5 Z"/></g>
<g><path style="opacity:0.008" fill="#fefffe" d="M 335.5,119.5 C 336.833,120.167 336.833,120.167 335.5,119.5 Z"/></g>
<g><path style="opacity:0.008" fill="#fefffe" d="M 100.5,121.5 C 101.833,122.167 101.833,122.167 100.5,121.5 Z"/></g>
<g><path style="opacity:0.008" fill="#fefffe" d="M 119.5,121.5 C 120.833,122.167 120.833,122.167 119.5,121.5 Z"/></g>
<g><path style="opacity:0.008" fill="#fefffe" d="M 118.5,122.5 C 118.833,122.5 119.167,122.5 119.5,122.5C 119.315,123.17 118.981,123.17 118.5,122.5 Z"/></g>
<g><path style="opacity:0.008" fill="#fefffe" d="M 320.5,122.5 C 319.833,123.167 319.833,123.167 320.5,122.5 Z"/></g>
<g><path style="opacity:0.008" fill="#fefffe" d="M 337.5,122.5 C 338.833,123.167 338.833,123.167 337.5,122.5 Z"/></g>
<g><path style="opacity:0.016" fill="#fefffe" d="M 117.5,123.5 C 117.833,123.5 118.167,123.5 118.5,123.5C 118.315,124.17 117.981,124.17 117.5,123.5 Z"/></g>
<g><path style="opacity:0.016" fill="#fefffe" d="M 116.5,124.5 C 116.833,124.5 117.167,124.5 117.5,124.5C 117.315,125.17 116.981,125.17 116.5,124.5 Z"/></g>
<g><path style="opacity:0.008" fill="#fefffe" d="M 320.5,124.5 C 321.833,125.167 321.833,125.167 320.5,124.5 Z"/></g>
<g><path style="opacity:0.008" fill="#fefffe" d="M 115.5,126.5 C 116.833,127.167 116.833,127.167 115.5,126.5 Z"/></g>
<g><path style="opacity:0.008" fill="#fefffe" d="M 114.5,127.5 C 114.833,127.5 115.167,127.5 115.5,127.5C 115.315,128.17 114.981,128.17 114.5,127.5 Z"/></g>
<g><path style="opacity:0.008" fill="#fefffe" d="M 324.5,127.5 C 323.833,128.167 323.833,128.167 324.5,127.5 Z"/></g>
<g><path style="opacity:0.016" fill="#fefffe" d="M 113.5,128.5 C 113.833,128.5 114.167,128.5 114.5,128.5C 114.315,129.17 113.981,129.17 113.5,128.5 Z"/></g>
<g><path style="opacity:0.016" fill="#fefffe" d="M 341.5,128.5 C 342.833,129.167 342.833,129.167 341.5,128.5 Z"/></g>
<g><path style="opacity:0.008" fill="#fefffe" d="M 96.5,130.5 C 95.8333,129.167 95.8333,129.167 96.5,130.5 Z"/></g>
<g><path style="opacity:0.008" fill="#fefffe" d="M 95.5,130.5 C 94.8333,131.167 94.8333,131.167 95.5,130.5 Z"/></g>
<g><path style="opacity:0.008" fill="#fefffe" d="M 112.5,130.5 C 113.833,131.167 113.833,131.167 112.5,130.5 Z"/></g>
<g><path style="opacity:0.016" fill="#fefffe" d="M 111.5,131.5 C 111.833,131.5 112.167,131.5 112.5,131.5C 112.315,132.17 111.981,132.17 111.5,131.5 Z"/></g>
<g><path style="opacity:0.008" fill="#fefffe" d="M 343.5,131.5 C 344.833,132.167 344.833,132.167 343.5,131.5 Z"/></g>
<g><path style="opacity:0.008" fill="#fefffe" d="M 93.5,132.5 C 94.8333,133.167 94.8333,133.167 93.5,132.5 Z"/></g>
<g><path style="opacity:0.008" fill="#fefffe" d="M 110.5,132.5 C 110.833,132.5 111.167,132.5 111.5,132.5C 111.315,133.17 110.981,133.17 110.5,132.5 Z"/></g>
<g><path style="opacity:0.016" fill="#fefffe" d="M 328.5,133.5 C 327.833,134.167 327.833,134.167 328.5,133.5 Z"/></g>
<g><path style="opacity:0.012" fill="#fefffe" d="M 344.5,133.5 C 345.598,134.601 345.765,135.934 345,137.5C 344.51,136.207 344.343,134.873 344.5,133.5 Z"/></g>
<g><path style="opacity:0.008" fill="#fefffe" d="M 109.5,134.5 C 110.833,135.167 110.833,135.167 109.5,134.5 Z"/></g>
<g><path style="opacity:0.008" fill="#fefffe" d="M 108.5,135.5 C 108.833,135.5 109.167,135.5 109.5,135.5C 109.315,136.17 108.981,136.17 108.5,135.5 Z"/></g>
<g><path style="opacity:0.008" fill="#fefffe" d="M 329.5,136.5 C 328.833,135.167 328.833,135.167 329.5,136.5 Z"/></g>
<g><path style="opacity:0.016" fill="#fefffe" d="M 329.5,136.5 C 329.833,136.5 330.167,136.5 330.5,136.5C 330.315,137.17 329.981,137.17 329.5,136.5 Z"/></g>
<g><path style="opacity:0.008" fill="#fefffe" d="M 93.5,137.5 C 94.8333,138.167 94.8333,138.167 93.5,137.5 Z"/></g>
<g><path style="opacity:0.016" fill="#fefffe" d="M 107.5,137.5 C 108.833,138.167 108.833,138.167 107.5,137.5 Z"/></g>
<g><path style="opacity:0.008" fill="#fefffe" d="M 106.5,138.5 C 106.833,138.5 107.167,138.5 107.5,138.5C 107.315,139.17 106.981,139.17 106.5,138.5 Z"/></g>
<g><path style="opacity:0.008" fill="#fefffe" d="M 330.5,138.5 C 331.833,139.167 331.833,139.167 330.5,138.5 Z"/></g>
<g><path style="opacity:0.008" fill="#fefffe" d="M 343.5,138.5 C 344.833,139.167 344.833,139.167 343.5,138.5 Z"/></g>
<g><path style="opacity:0.01" fill="#fefffe" d="M 66.5,140.5 C 67.2506,139.427 68.2506,139.26 69.5,140C 68.552,140.483 67.552,140.649 66.5,140.5 Z"/></g>
<g><path style="opacity:0.01" fill="#fefffe" d="M 82.5,140.5 C 83.6009,139.402 84.9343,139.235 86.5,140C 85.2068,140.49 83.8734,140.657 82.5,140.5 Z"/></g>
<g><path style="opacity:0.008" fill="#fefffe" d="M 342.5,139.5 C 342.833,139.5 343.167,139.5 343.5,139.5C 343.315,140.17 342.981,140.17 342.5,139.5 Z"/></g>
<g><path style="opacity:0.01" fill="#fefffe" d="M 60.5,141.5 C 61.2506,140.427 62.2506,140.26 63.5,141C 62.552,141.483 61.552,141.649 60.5,141.5 Z"/></g>
<g><path style="opacity:0.936" fill="#fffefd" d="M 92.5,142.5 C 93.209,143.404 94.209,143.737 95.5,143.5C 96.7804,144.931 98.4471,145.598 100.5,145.5C 100.842,146.338 101.508,146.672 102.5,146.5C 102.842,147.338 103.508,147.672 104.5,147.5C 104.973,148.906 105.973,149.573 107.5,149.5C 108.29,150.401 109.29,151.068 110.5,151.5C 114.807,155.472 119.141,159.472 123.5,163.5C 124.34,165.853 125.674,167.853 127.5,169.5C 127.328,170.492 127.662,171.158 128.5,171.5C 128.992,173.819 129.992,175.819 131.5,177.5C 131.328,178.492 131.662,179.158 132.5,179.5C 132.263,180.791 132.596,181.791 133.5,182.5C 135.681,193.103 136.015,203.769 134.5,214.5C 132.928,217.215 131.928,220.215 131.5,223.5C 130.662,223.842 130.328,224.508 130.5,225.5C 129.662,225.842 129.328,226.508 129.5,227.5C 128.662,227.842 128.328,228.508 128.5,229.5C 127.094,229.973 126.427,230.973 126.5,232.5C 125.662,232.842 125.328,233.508 125.5,234.5C 124.833,234.5 124.5,234.833 124.5,235.5C 123.094,235.973 122.427,236.973 122.5,238.5C 121.833,238.5 121.5,238.833 121.5,239.5C 120.833,239.5 120.5,239.833 120.5,240.5C 119.833,240.5 119.5,240.833 119.5,241.5C 118.833,241.5 118.5,241.833 118.5,242.5C 117.833,242.5 117.5,242.833 117.5,243.5C 116.833,243.5 116.5,243.833 116.5,244.5C 115.833,244.5 115.5,244.833 115.5,245.5C 114.833,245.5 114.5,245.833 114.5,246.5C 112.973,246.427 111.973,247.094 111.5,248.5C 110.833,248.5 110.5,248.833 110.5,249.5C 109.508,249.328 108.842,249.662 108.5,250.5C 107.833,250.5 107.5,250.833 107.5,251.5C 106.508,251.328 105.842,251.662 105.5,252.5C 104.508,252.328 103.842,252.662 103.5,253.5C 102.508,253.328 101.842,253.662 101.5,254.5C 100.508,254.328 99.8417,254.662 99.5,255.5C 98.5084,255.328 97.8417,255.662 97.5,256.5C 96.209,256.263 95.209,256.596 94.5,257.5C 93.209,257.263 92.209,257.596 91.5,258.5C 80.0947,260.068 68.7614,259.734 57.5,257.5C 56.2196,256.069 54.5529,255.402 52.5,255.5C 51.4863,254.326 50.153,253.66 48.5,253.5C 46.3374,251.917 44.0041,250.584 41.5,249.5C 40.4154,247.413 38.7488,246.08 36.5,245.5C 33.8046,242.474 31.1379,239.474 28.5,236.5C 27.9744,234.77 26.9744,233.436 25.5,232.5C 25.2503,230.326 24.2503,228.659 22.5,227.5C 22.6716,226.508 22.3382,225.842 21.5,225.5C 21.5979,223.447 20.9313,221.78 19.5,220.5C 19.7373,219.209 19.404,218.209 18.5,217.5C 15.4022,203.969 16.0689,190.636 20.5,177.5C 21.3382,177.158 21.6716,176.492 21.5,175.5C 22.3382,175.158 22.6716,174.492 22.5,173.5C 23.3382,173.158 23.6716,172.492 23.5,171.5C 31.0448,159.288 41.3781,150.288 54.5,144.5C 61.4997,142.38 68.6664,141.047 76,140.5C 81.5027,141.215 87.0027,141.882 92.5,142.5 Z"/></g>
<g><path style="opacity:0.008" fill="#fefffe" d="M 88.5,141.5 C 88.8966,140.475 89.5632,140.308 90.5,141C 89.9056,141.464 89.2389,141.631 88.5,141.5 Z"/></g>
<g><path style="opacity:0.01" fill="#fefffe" d="M 157.5,140.5 C 158.573,141.251 158.74,142.251 158,143.5C 157.517,142.552 157.351,141.552 157.5,140.5 Z"/></g>
<g><path style="opacity:0.008" fill="#fefffe" d="M 341.5,140.5 C 341.833,140.5 342.167,140.5 342.5,140.5C 342.315,141.17 341.981,141.17 341.5,140.5 Z"/></g>
<g><path style="opacity:0.012" fill="#fefffe" d="M 57.5,142.5 C 57.8966,141.475 58.5632,141.308 59.5,142C 58.9056,142.464 58.2389,142.631 57.5,142.5 Z"/></g>
<g><path style="opacity:0.008" fill="#fefffe" d="M 92.5,142.5 C 92.8966,141.475 93.5632,141.308 94.5,142C 93.9056,142.464 93.2389,142.631 92.5,142.5 Z"/></g>
<g><path style="opacity:0.008" fill="#fefffe" d="M 98.5,141.5 C 98.5,141.833 98.5,142.167 98.5,142.5C 97.8299,142.019 97.8299,141.685 98.5,141.5 Z"/></g>
<g><path style="opacity:0.008" fill="#fefffe" d="M 103.5,141.5 C 104.833,142.167 104.833,142.167 103.5,141.5 Z"/></g>
<g><path style="opacity:0.008" fill="#fefffe" d="M 335.5,141.5 C 335.5,141.833 335.5,142.167 335.5,142.5C 332.833,142.167 332.833,141.833 335.5,141.5 Z"/></g>
<g><path style="opacity:0.008" fill="#fefffe" d="M 340.5,141.5 C 340.833,141.5 341.167,141.5 341.5,141.5C 341.315,142.17 340.981,142.17 340.5,141.5 Z"/></g>
<g><path style="opacity:0.008" fill="#fefffe" d="M 54.5,143.5 C 54.8966,142.475 55.5632,142.308 56.5,143C 55.9056,143.464 55.2389,143.631 54.5,143.5 Z"/></g>
<g><path style="opacity:0.008" fill="#fefffe" d="M 95.5,143.5 C 95.8417,142.662 96.5084,142.328 97.5,142.5C 97.1583,143.338 96.4916,143.672 95.5,143.5 Z"/></g>
<g><path style="opacity:0.009" fill="#fefffe" d="M 98.5,142.5 C 103.539,142.451 103.705,143.118 99,144.5C 98.5357,143.906 98.369,143.239 98.5,142.5 Z"/></g>
<g><path style="opacity:0.012" fill="#fefffe" d="M 335.5,142.5 C 336.873,142.343 338.207,142.51 339.5,143C 337.934,143.765 336.601,143.598 335.5,142.5 Z"/></g>
<g><path style="opacity:0.008" fill="#fefffe" d="M 54.5,143.5 C 54.5,143.833 54.5,144.167 54.5,144.5C 51.8333,144.167 51.8333,143.833 54.5,143.5 Z"/></g>
<g><path style="opacity:0.008" fill="#fefffe" d="M 274.5,143.5 C 275.833,144.167 275.833,144.167 274.5,143.5 Z"/></g>
<g><path style="opacity:0.008" fill="#fefffe" d="M 50.5,144.5 C 51.8333,145.167 51.8333,145.167 50.5,144.5 Z"/></g>
<g><path style="opacity:0.008" fill="#fefffe" d="M 100.5,144.5 C 101.833,145.167 101.833,145.167 100.5,144.5 Z"/></g>
<g><path style="opacity:0.008" fill="#fefffe" d="M 48.5,145.5 C 49.8333,146.167 49.8333,146.167 48.5,145.5 Z"/></g>
<g><path style="opacity:0.008" fill="#fefffe" d="M 102.5,145.5 C 103.833,146.167 103.833,146.167 102.5,145.5 Z"/></g>
<g><path style="opacity:0.008" fill="#fefffe" d="M 273.5,145.5 C 274.833,146.167 274.833,146.167 273.5,145.5 Z"/></g>
<g><path style="opacity:0.008" fill="#fefffe" d="M 46.5,146.5 C 47.8333,147.167 47.8333,147.167 46.5,146.5 Z"/></g>
<g><path style="opacity:0.008" fill="#fefffe" d="M 104.5,146.5 C 105.833,147.167 105.833,147.167 104.5,146.5 Z"/></g>
<g><path style="opacity:0.008" fill="#fefffe" d="M 160.5,146.5 C 159.833,147.167 159.833,147.167 160.5,146.5 Z"/></g>
<g><path style="opacity:0.008" fill="#fefffe" d="M 107.5,148.5 C 106.833,147.167 106.833,147.167 107.5,148.5 Z"/></g>
<g><path style="opacity:0.008" fill="#fefffe" d="M 272.5,147.5 C 273.833,148.167 273.833,148.167 272.5,147.5 Z"/></g>
<g><path style="opacity:0.008" fill="#fefffe" d="M 107.5,148.5 C 108.833,149.167 108.833,149.167 107.5,148.5 Z"/></g>
<g><path style="opacity:0.008" fill="#fefffe" d="M 271.5,148.5 C 271.833,148.5 272.167,148.5 272.5,148.5C 272.315,149.17 271.981,149.17 271.5,148.5 Z"/></g>
<g><path style="opacity:0.008" fill="#fefffe" d="M 334.5,150.5 C 343.657,149.342 352.991,149.176 362.5,150C 353.173,150.5 343.839,150.666 334.5,150.5 Z"/></g>
<g><path style="opacity:0.008" fill="#fefffe" d="M 110.5,150.5 C 111.833,151.167 111.833,151.167 110.5,150.5 Z"/></g>
<g><path style="opacity:0.008" fill="#fefffe" d="M 269.5,150.5 C 270.833,151.167 270.833,151.167 269.5,150.5 Z"/></g>
<g><path style="opacity:0.008" fill="#fefffe" d="M 330.5,150.5 C 331.833,151.167 331.833,151.167 330.5,150.5 Z"/></g>
<g><path style="opacity:0.008" fill="#fefffe" d="M 363.5,150.5 C 364.833,151.167 364.833,151.167 363.5,150.5 Z"/></g>
<g><path style="opacity:0.008" fill="#fefffe" d="M 112.5,151.5 C 113.833,152.167 113.833,152.167 112.5,151.5 Z"/></g>
<g><path style="opacity:0.008" fill="#fefffe" d="M 164.5,151.5 C 163.833,152.167 163.833,152.167 164.5,151.5 Z"/></g>
<g><path style="opacity:0.008" fill="#fefffe" d="M 268.5,151.5 C 268.833,151.5 269.167,151.5 269.5,151.5C 269.315,152.17 268.981,152.17 268.5,151.5 Z"/></g>
<g><path style="opacity:0.937" fill="#fffefe" d="M 365.5,152.5 C 366.436,153.974 367.77,154.974 369.5,155.5C 369.427,157.027 370.094,158.027 371.5,158.5C 372.272,162.452 372.605,166.452 372.5,170.5C 379.175,170.334 385.842,170.5 392.5,171C 393.901,171.41 395.234,171.91 396.5,172.5C 397.5,174.167 398.833,175.5 400.5,176.5C 400.66,178.153 401.326,179.486 402.5,180.5C 402.798,200.867 402.465,221.2 401.5,241.5C 400.094,241.973 399.427,242.973 399.5,244.5C 398.833,244.5 398.5,244.833 398.5,245.5C 397.833,245.5 397.5,245.833 397.5,246.5C 396.508,246.328 395.842,246.662 395.5,247.5C 394.508,247.328 393.842,247.662 393.5,248.5C 362.833,248.5 332.167,248.5 301.5,248.5C 300.101,247.11 298.434,246.11 296.5,245.5C 296.068,244.29 295.401,243.29 294.5,242.5C 294.011,241.005 293.345,239.671 292.5,238.5C 292.5,219.167 292.5,199.833 292.5,180.5C 293.674,179.486 294.34,178.153 294.5,176.5C 296.167,175.5 297.5,174.167 298.5,172.5C 300.153,172.34 301.486,171.674 302.5,170.5C 309.167,170.5 315.833,170.5 322.5,170.5C 321.22,163.165 323.553,157.331 329.5,153C 341.461,151.168 353.461,151.002 365.5,152.5 Z M 335.5,164.5 C 343.65,163.507 351.983,163.174 360.5,163.5C 360.5,165.833 360.5,168.167 360.5,170.5C 351.833,170.5 343.167,170.5 334.5,170.5C 334.205,168.265 334.539,166.265 335.5,164.5 Z M 336.5,165.5 C 343.833,165.5 351.167,165.5 358.5,165.5C 358.5,166.5 358.5,167.5 358.5,168.5C 351.167,168.5 343.833,168.5 336.5,168.5C 336.5,167.5 336.5,166.5 336.5,165.5 Z M 381.5,184.5 C 358.833,183.167 336.167,183.167 313.5,184.5C 312.078,184.291 310.745,183.791 309.5,183C 334.833,182.333 360.167,182.333 385.5,183C 384.255,183.791 382.922,184.291 381.5,184.5 Z M 317.5,185.5 C 338.069,184.174 358.736,184.174 379.5,185.5C 379.158,186.338 378.492,186.672 377.5,186.5C 377.158,187.338 376.492,187.672 375.5,187.5C 375.158,188.338 374.492,188.672 373.5,188.5C 373.158,189.338 372.492,189.672 371.5,189.5C 370.341,191.25 368.674,192.25 366.5,192.5C 365.279,191.535 363.946,191.702 362.5,193C 361.262,193.69 361.262,194.19 362.5,194.5C 362.158,195.338 361.492,195.672 360.5,195.5C 359.503,194.287 358.503,194.454 357.5,196C 357.728,196.399 358.062,196.565 358.5,196.5C 358.158,197.338 357.492,197.672 356.5,197.5C 356.158,198.338 355.492,198.672 354.5,198.5C 354.44,199.043 354.107,199.376 353.5,199.5C 349.5,195.5 345.5,195.5 341.5,199.5C 340.893,199.376 340.56,199.043 340.5,198.5C 339.508,198.672 338.842,198.338 338.5,197.5C 339.738,197.19 339.738,196.69 338.5,196C 337.563,195.308 336.897,195.475 336.5,196.5C 335.508,196.672 334.842,196.338 334.5,195.5C 335.738,195.19 335.738,194.69 334.5,194C 333.054,192.702 331.721,192.535 330.5,193.5C 327.669,192.921 325.336,191.588 323.5,189.5C 322.508,189.672 321.842,189.338 321.5,188.5C 320.508,188.672 319.842,188.338 319.5,187.5C 319.938,187.565 320.272,187.399 320.5,187C 319.756,185.961 318.756,185.461 317.5,185.5 Z"/></g>
<g><path style="opacity:0.008" fill="#fefffe" d="M 365.5,151.5 C 366.833,152.167 366.833,152.167 365.5,151.5 Z"/></g>
<g><path style="opacity:0.008" fill="#fefffe" d="M 37.5,152.5 C 38.8333,153.167 38.8333,153.167 37.5,152.5 Z"/></g>
<g><path style="opacity:0.008" fill="#fefffe" d="M 267.5,152.5 C 267.833,152.5 268.167,152.5 268.5,152.5C 268.315,153.17 267.981,153.17 267.5,152.5 Z"/></g>
<g><path style="opacity:0.008" fill="#fefffe" d="M 166.5,153.5 C 167.833,154.167 167.833,154.167 166.5,153.5 Z"/></g>
<g><path style="opacity:0.008" fill="#fefffe" d="M 265.5,153.5 C 266.167,153.5 266.833,153.5 267.5,153.5C 266.833,154.833 266.167,154.833 265.5,153.5 Z"/></g>
<g><path style="opacity:1" fill="#fbed31" d="M 66.5,152.5 C 96.9776,150.497 116.144,164.164 124,193.5C 123.627,230.207 105.127,248.373 68.5,248C 47.1176,243.618 33.9509,230.784 29,209.5C 26.09,180.261 38.59,161.261 66.5,152.5 Z"/></g>
<g><path style="opacity:0.008" fill="#fefffe" d="M 168.5,155.5 C 168.897,154.475 169.563,154.308 170.5,155C 169.906,155.464 169.239,155.631 168.5,155.5 Z"/></g>
<g><path style="opacity:0.008" fill="#fefffe" d="M 262.5,155.5 C 262.897,154.475 263.563,154.308 264.5,155C 263.906,155.464 263.239,155.631 262.5,155.5 Z"/></g>
<g><path style="opacity:0.008" fill="#fefffe" d="M 369.5,154.5 C 370.833,155.167 370.833,155.167 369.5,154.5 Z"/></g>
<g><path style="opacity:0.998" fill="#fffef5" d="M 73.5,155.5 C 76.6516,154.959 79.1516,155.959 81,158.5C 81.6667,162.833 81.6667,167.167 81,171.5C 77.6667,175.5 74.3333,175.5 71,171.5C 69.7512,165.718 70.5846,160.385 73.5,155.5 Z"/></g>
<g><path style="opacity:0.008" fill="#fefffe" d="M 371.5,157.5 C 372.833,158.167 372.833,158.167 371.5,157.5 Z"/></g>
<g><path style="opacity:0.008" fill="#fefffe" d="M 321.5,159.5 C 322.833,160.167 322.833,160.167 321.5,159.5 Z"/></g>
<g><path style="opacity:0.008" fill="#fefffe" d="M 372.5,159.5 C 373.833,160.167 373.833,160.167 372.5,159.5 Z"/></g>
<g><path style="opacity:0.008" fill="#fefffe" d="M 123.5,162.5 C 124.833,163.167 124.833,163.167 123.5,162.5 Z"/></g>
<g><path style="opacity:0.008" fill="#fefffe" d="M 320.5,162.5 C 321.468,164.607 321.802,166.941 321.5,169.5C 315.491,169.666 309.491,169.499 303.5,169C 309.157,168.501 314.824,168.334 320.5,168.5C 320.5,166.5 320.5,164.5 320.5,162.5 Z"/></g>
<g><path style="opacity:0.01" fill="#fefffe" d="M 373.5,162.5 C 374.461,164.265 374.795,166.265 374.5,168.5C 380.176,168.334 385.843,168.501 391.5,169C 385.509,169.499 379.509,169.666 373.5,169.5C 373.5,167.167 373.5,164.833 373.5,162.5 Z"/></g>
<g><path style="opacity:0.009" fill="#fefffe" d="M 335.5,164.5 C 343.5,164.5 351.5,164.5 359.5,164.5C 359.5,166.167 359.5,167.833 359.5,169.5C 351.5,169.5 343.5,169.5 335.5,169.5C 335.5,167.833 335.5,166.167 335.5,164.5 Z M 336.5,165.5 C 336.5,166.5 336.5,167.5 336.5,168.5C 343.833,168.5 351.167,168.5 358.5,168.5C 358.5,167.5 358.5,166.5 358.5,165.5C 351.167,165.5 343.833,165.5 336.5,165.5 Z"/></g>
<g><path style="opacity:0.008" fill="#fefffe" d="M 127.5,168.5 C 128.833,169.167 128.833,169.167 127.5,168.5 Z"/></g>
<g><path style="opacity:0.008" fill="#fefffe" d="M 302.5,170.5 C 301.761,170.631 301.094,170.464 300.5,170C 301.437,169.308 302.103,169.475 302.5,170.5 Z"/></g>
<g><path style="opacity:0.008" fill="#fefffe" d="M 393.5,169.5 C 394.833,170.167 394.833,170.167 393.5,169.5 Z"/></g>
<g><path style="opacity:0.008" fill="#fefffe" d="M 23.5,171.5 C 22.8333,170.167 22.8333,170.167 23.5,171.5 Z"/></g>
<g><path style="opacity:0.998" fill="#fffef7" d="M 97.5,170.5 C 103.938,168.784 106.772,171.117 106,177.5C 98.8645,185.636 91.3645,193.47 83.5,201C 87.2362,204.552 89.9029,208.719 91.5,213.5C 90.8074,218.151 88.1407,219.651 83.5,218C 78.9735,213.108 74.8068,207.941 71,202.5C 70.3333,201.167 70.3333,199.833 71,198.5C 79.6721,188.995 88.5055,179.662 97.5,170.5 Z"/></g>
<g><path style="opacity:0.008" fill="#fefffe" d="M 129.5,171.5 C 128.833,170.167 128.833,170.167 129.5,171.5 Z"/></g>
<g><path style="opacity:0.008" fill="#fefffe" d="M 298.5,170.5 C 299.833,171.167 299.833,171.167 298.5,170.5 Z"/></g>
<g><path style="opacity:0.008" fill="#fefffe" d="M 129.5,171.5 C 130.833,172.167 130.833,172.167 129.5,171.5 Z"/></g>
<g><path style="opacity:0.008" fill="#fefffe" d="M 298.5,171.5 C 298.5,171.833 298.5,172.167 298.5,172.5C 297.83,172.019 297.83,171.685 298.5,171.5 Z"/></g>
<g><path style="opacity:0.008" fill="#fefffe" d="M 396.5,171.5 C 397.833,172.167 397.833,172.167 396.5,171.5 Z"/></g>
<g><path style="opacity:0.008" fill="#fefffe" d="M 22.5,173.5 C 21.8333,172.167 21.8333,172.167 22.5,173.5 Z"/></g>
<g><path style="opacity:0.008" fill="#fefffe" d="M 130.5,173.5 C 131.833,174.167 131.833,174.167 130.5,173.5 Z"/></g>
<g><path style="opacity:0.008" fill="#fefffe" d="M 21.5,175.5 C 20.8333,174.167 20.8333,174.167 21.5,175.5 Z"/></g>
<g><path style="opacity:0.008" fill="#fefffe" d="M 131.5,177.5 C 131.369,176.761 131.536,176.094 132,175.5C 132.692,176.437 132.525,177.103 131.5,177.5 Z"/></g>
<g><path style="opacity:0.008" fill="#fefffe" d="M 294.5,176.5 C 293.833,175.167 293.833,175.167 294.5,176.5 Z"/></g>
<g><path style="opacity:0.008" fill="#fefffe" d="M 401.5,176.5 C 400.833,175.167 400.833,175.167 401.5,176.5 Z"/></g>
<g><path style="opacity:0.008" fill="#fefffe" d="M 20.5,177.5 C 19.8333,176.167 19.8333,176.167 20.5,177.5 Z"/></g>
<g><path style="opacity:0.008" fill="#fefffe" d="M 293.5,176.5 C 292.833,177.167 292.833,177.167 293.5,176.5 Z"/></g>
<g><path style="opacity:0.008" fill="#fefffe" d="M 401.5,176.5 C 402.833,177.167 402.833,177.167 401.5,176.5 Z"/></g>
<g><path style="opacity:0.008" fill="#fefffe" d="M 18.5,178.5 C 19.8333,179.167 19.8333,179.167 18.5,178.5 Z"/></g>
<g><path style="opacity:0.008" fill="#fefffe" d="M 132.5,178.5 C 133.833,179.167 133.833,179.167 132.5,178.5 Z"/></g>
<g><path style="opacity:0.008" fill="#fefffe" d="M 292.5,180.5 C 291.475,180.103 291.308,179.437 292,178.5C 292.464,179.094 292.631,179.761 292.5,180.5 Z"/></g>
<g><path style="opacity:0.008" fill="#fefffe" d="M 402.5,180.5 C 402.369,179.761 402.536,179.094 403,178.5C 403.692,179.437 403.525,180.103 402.5,180.5 Z"/></g>
<g><path style="opacity:0.008" fill="#fefffe" d="M 133.5,182.5 C 133.369,181.761 133.536,181.094 134,180.5C 134.692,181.437 134.525,182.103 133.5,182.5 Z"/></g>
<g><path style="opacity:0.008" fill="#fefffe" d="M 17.5,181.5 C 18.8333,182.167 18.8333,182.167 17.5,181.5 Z"/></g>
<g><path style="opacity:0.008" fill="#fefffe" d="M 290.5,182.5 C 291.662,200.329 291.829,218.329 291,236.5C 290.5,218.503 290.333,200.503 290.5,182.5 Z"/></g>
<g><path style="opacity:0.008" fill="#fefffe" d="M 403.5,182.5 C 404.662,200.662 404.829,218.995 404,237.5C 403.5,219.17 403.333,200.836 403.5,182.5 Z"/></g>
<g><path style="opacity:0.012" fill="#fefffe" d="M 134.5,183.5 C 135.525,183.897 135.692,184.563 135,185.5C 134.536,184.906 134.369,184.239 134.5,183.5 Z"/></g>
<g><path style="opacity:0.008" fill="#fefffe" d="M 313.5,184.5 C 336.167,183.167 358.833,183.167 381.5,184.5C 380.508,184.328 379.842,184.662 379.5,185.5C 358.736,184.174 338.069,184.174 317.5,185.5C 316.833,185.5 316.167,185.5 315.5,185.5C 315.158,184.662 314.492,184.328 313.5,184.5 Z"/></g>
<g><path style="opacity:0.008" fill="#fefffe" d="M 16.5,184.5 C 17.525,184.897 17.6917,185.563 17,186.5C 16.5357,185.906 16.369,185.239 16.5,184.5 Z"/></g>
<g><path style="opacity:0.01" fill="#fefffe" d="M 135.5,187.5 C 136.573,188.251 136.74,189.251 136,190.5C 135.517,189.552 135.351,188.552 135.5,187.5 Z"/></g>
<g><path style="opacity:0.01" fill="#fefffe" d="M 15.5,188.5 C 16.5735,189.251 16.7401,190.251 16,191.5C 15.5172,190.552 15.3505,189.552 15.5,188.5 Z"/></g>
<g><path style="opacity:0.012" fill="#fefffe" d="M 136.5,194.5 C 137.645,198.311 137.812,202.311 137,206.5C 136.501,202.514 136.334,198.514 136.5,194.5 Z"/></g>
<g><path style="opacity:0.999" fill="#fffef4" d="M 35.5,194.5 C 39.9671,194.133 44.3004,194.633 48.5,196C 51.4052,199.374 51.0719,202.374 47.5,205C 43.1667,205.667 38.8333,205.667 34.5,205C 30.5141,201.105 30.8475,197.605 35.5,194.5 Z"/></g>
<g><path style="opacity:0.999" fill="#fffef7" d="M 105.5,194.5 C 109.967,194.133 114.3,194.633 118.5,196C 121.299,199.339 120.966,202.339 117.5,205C 113.167,205.667 108.833,205.667 104.5,205C 101.711,201.225 102.045,197.725 105.5,194.5 Z"/></g>
<g><path style="opacity:1" fill="#fbed34" d="M 305.5,193.5 C 317.473,199.821 329.473,206.154 341.5,212.5C 342.518,219.576 346.018,221.242 352,217.5C 352.202,215.744 352.702,214.078 353.5,212.5C 365.952,205.607 378.619,199.274 391.5,193.5C 391.824,208.079 391.49,222.579 390.5,237C 361.664,237.83 332.997,237.664 304.5,236.5C 304.171,221.99 304.504,207.657 305.5,193.5 Z"/></g>
<g><path style="opacity:1" fill="#fdf9c2" d="M 305.5,193.5 C 304.504,207.657 304.171,221.99 304.5,236.5C 303.174,221.995 303.174,207.328 304.5,192.5C 305.107,192.624 305.44,192.957 305.5,193.5 Z"/></g>
<g><path style="opacity:0.01" fill="#fefffe" d="M 15.5,208.5 C 16.5735,209.251 16.7401,210.251 16,211.5C 15.5172,210.552 15.3505,209.552 15.5,208.5 Z"/></g>
<g><path style="opacity:0.012" fill="#fefffe" d="M 135.5,210.5 C 136.525,210.897 136.692,211.563 136,212.5C 135.536,211.906 135.369,211.239 135.5,210.5 Z"/></g>
<g><path style="opacity:0.012" fill="#fefffe" d="M 16.5,214.5 C 17.525,214.897 17.6917,215.563 17,216.5C 16.5357,215.906 16.369,215.239 16.5,214.5 Z"/></g>
<g><path style="opacity:0.012" fill="#fefffe" d="M 134.5,214.5 C 135.525,214.897 135.692,215.563 135,216.5C 134.536,215.906 134.369,215.239 134.5,214.5 Z"/></g>
<g><path style="opacity:0.008" fill="#fefffe" d="M 18.5,217.5 C 18.631,218.239 18.4643,218.906 18,219.5C 17.3083,218.563 17.475,217.897 18.5,217.5 Z"/></g>
<g><path style="opacity:0.016" fill="#fefffe" d="M 133.5,218.5 C 134.833,219.167 134.833,219.167 133.5,218.5 Z"/></g>
<g><path style="opacity:0.008" fill="#fefffe" d="M 19.5,220.5 C 19.631,221.239 19.4643,221.906 19,222.5C 18.3083,221.563 18.475,220.897 19.5,220.5 Z"/></g>
<g><path style="opacity:0.008" fill="#fefffe" d="M 132.5,221.5 C 133.833,222.167 133.833,222.167 132.5,221.5 Z"/></g>
<g><path style="opacity:0.008" fill="#fefffe" d="M 19.5,223.5 C 20.8333,224.167 20.8333,224.167 19.5,223.5 Z"/></g>
<g><path style="opacity:0.008" fill="#fefffe" d="M 131.5,223.5 C 132.833,224.167 132.833,224.167 131.5,223.5 Z"/></g>
<g><path style="opacity:0.008" fill="#fefffe" d="M 21.5,225.5 C 20.8333,226.167 20.8333,226.167 21.5,225.5 Z"/></g>
<g><path style="opacity:0.008" fill="#fefffe" d="M 130.5,225.5 C 131.833,226.167 131.833,226.833 130.5,227.5C 130.5,226.833 130.5,226.167 130.5,225.5 Z"/></g>
<g><path style="opacity:0.999" fill="#fffef9" d="M 73.5,226.5 C 76.6516,225.959 79.1516,226.959 81,229.5C 81.6667,233.5 81.6667,237.5 81,241.5C 77.714,245.485 74.3807,245.485 71,241.5C 70.3333,237.5 70.3333,233.5 71,229.5C 72.045,228.627 72.8783,227.627 73.5,226.5 Z"/></g>
<g><path style="opacity:0.008" fill="#fefffe" d="M 22.5,227.5 C 21.8333,228.167 21.8333,228.167 22.5,227.5 Z"/></g>
<g><path style="opacity:0.008" fill="#fefffe" d="M 129.5,227.5 C 129.833,227.5 130.167,227.5 130.5,227.5C 130.315,228.17 129.981,228.17 129.5,227.5 Z"/></g>
<g><path style="opacity:0.008" fill="#fefffe" d="M 22.5,229.5 C 23.8333,230.167 23.8333,230.167 22.5,229.5 Z"/></g>
<g><path style="opacity:0.008" fill="#fefffe" d="M 128.5,229.5 C 129.833,230.167 129.833,230.167 128.5,229.5 Z"/></g>
<g><path style="opacity:0.008" fill="#fefffe" d="M 127.5,231.5 C 128.833,232.167 128.833,232.167 127.5,231.5 Z"/></g>
<g><path style="opacity:0.016" fill="#fefffe" d="M 25.5,232.5 C 24.8333,233.167 24.8333,233.167 25.5,232.5 Z"/></g>
<g><path style="opacity:0.008" fill="#fefffe" d="M 126.5,232.5 C 126.833,232.5 127.167,232.5 127.5,232.5C 127.315,233.17 126.981,233.17 126.5,232.5 Z"/></g>
<g><path style="opacity:0.008" fill="#fefffe" d="M 25.5,234.5 C 26.8333,235.167 26.8333,235.167 25.5,234.5 Z"/></g>
<g><path style="opacity:0.008" fill="#fefffe" d="M 125.5,234.5 C 126.833,235.167 126.833,235.167 125.5,234.5 Z"/></g>
<g><path style="opacity:0.01" fill="#fefffe" d="M 211.5,235.5 C 212.251,234.427 213.251,234.26 214.5,235C 213.552,235.483 212.552,235.649 211.5,235.5 Z"/></g>
<g><path style="opacity:0.012" fill="#fefffe" d="M 224.5,235.5 C 224.897,234.475 225.563,234.308 226.5,235C 225.906,235.464 225.239,235.631 224.5,235.5 Z"/></g>
<g><path style="opacity:0.008" fill="#fefffe" d="M 124.5,235.5 C 124.833,235.5 125.167,235.5 125.5,235.5C 125.315,236.17 124.981,236.17 124.5,235.5 Z"/></g>
<g><path style="opacity:0.008" fill="#fefffe" d="M 210.5,236.5 C 209.761,236.631 209.094,236.464 208.5,236C 209.437,235.308 210.103,235.475 210.5,236.5 Z"/></g>
<g><path style="opacity:0.901" fill="#fefffe" d="M 230.5,237.5 C 231.514,238.674 232.847,239.34 234.5,239.5C 235.29,240.401 236.29,241.068 237.5,241.5C 239.5,244.167 241.833,246.5 244.5,248.5C 244.427,250.027 245.094,251.027 246.5,251.5C 246.328,252.492 246.662,253.158 247.5,253.5C 249.206,260.033 249.872,266.699 249.5,273.5C 248.596,274.209 248.263,275.209 248.5,276.5C 246.992,278.181 245.992,280.181 245.5,282.5C 244.094,282.973 243.427,283.973 243.5,285.5C 242.833,285.5 242.5,285.833 242.5,286.5C 241.833,286.5 241.5,286.833 241.5,287.5C 240.833,287.5 240.5,287.833 240.5,288.5C 239.833,288.5 239.5,288.833 239.5,289.5C 238.833,289.5 238.5,289.833 238.5,290.5C 236.973,290.427 235.973,291.094 235.5,292.5C 234.508,292.328 233.842,292.662 233.5,293.5C 231.847,293.66 230.514,294.326 229.5,295.5C 222.5,296.833 215.5,296.833 208.5,295.5C 208.158,294.662 207.492,294.328 206.5,294.5C 205.101,293.11 203.434,292.11 201.5,291.5C 199.5,288.833 197.167,286.5 194.5,284.5C 194.068,283.29 193.401,282.29 192.5,281.5C 188.724,273.851 187.724,265.851 189.5,257.5C 190.404,256.791 190.737,255.791 190.5,254.5C 191.338,254.158 191.672,253.492 191.5,252.5C 195.167,246.833 199.833,242.167 205.5,238.5C 207.553,238.598 209.22,237.931 210.5,236.5C 217.258,235.011 223.925,235.345 230.5,237.5 Z M 225.5,249.5 C 227.38,249.229 228.713,249.896 229.5,251.5C 228.561,252.327 228.895,252.994 230.5,253.5C 230.5,254.167 230.833,254.5 231.5,254.5C 231.5,255.167 231.833,255.5 232.5,255.5C 233.32,257.14 234.153,258.807 235,260.5C 235.464,259.906 235.631,259.239 235.5,258.5C 236.952,260.848 237.618,263.514 237.5,266.5C 237.684,269.205 237.017,271.538 235.5,273.5C 235.672,274.492 235.338,275.158 234.5,275.5C 234.672,276.492 234.338,277.158 233.5,277.5C 233.565,277.062 233.399,276.728 233,276.5C 231.833,277.667 230.667,278.833 229.5,280C 229.728,280.399 230.062,280.565 230.5,280.5C 230.158,281.338 229.492,281.672 228.5,281.5C 228.158,282.338 227.492,282.672 226.5,282.5C 225.791,283.404 224.791,283.737 223.5,283.5C 222.207,284.158 220.707,284.492 219,284.5C 216.179,284.592 213.679,283.926 211.5,282.5C 212.552,282.649 213.552,282.483 214.5,282C 212.359,281.427 210.359,280.594 208.5,279.5C 208.5,278.833 208.167,278.5 207.5,278.5C 207.5,277.833 207.167,277.5 206.5,277.5C 206.5,276.833 206.167,276.5 205.5,276.5C 205.167,275.167 204.833,275.167 204.5,276.5C 203.662,276.158 203.328,275.492 203.5,274.5C 202.662,274.158 202.328,273.492 202.5,272.5C 199.975,267.369 200.308,262.369 203.5,257.5C 203.427,255.973 204.094,254.973 205.5,254.5C 205.435,254.938 205.601,255.272 206,255.5C 206.833,254.667 207.667,253.833 208.5,253C 208.272,252.601 207.938,252.435 207.5,252.5C 207.973,251.094 208.973,250.427 210.5,250.5C 215.431,247.614 220.431,247.28 225.5,249.5 Z M 230.5,253.5 C 230.5,253.167 230.5,252.833 230.5,252.5C 232.5,252.5 233.5,253.5 233.5,255.5C 233.167,255.5 232.833,255.5 232.5,255.5C 231.833,255.5 231.5,255.167 231.5,254.5C 230.833,254.5 230.5,254.167 230.5,253.5 Z M 204.5,276.5 C 204.833,276.5 205.167,276.5 205.5,276.5C 206.167,276.5 206.5,276.833 206.5,277.5C 207.167,277.5 207.5,277.833 207.5,278.5C 208.167,278.5 208.5,278.833 208.5,279.5C 208.5,279.833 208.5,280.167 208.5,280.5C 206.167,280.167 204.833,278.833 204.5,276.5 Z"/></g>
<g><path style="opacity:0.008" fill="#fefffe" d="M 230.5,236.5 C 229.761,236.631 229.094,236.464 228.5,236C 229.437,235.308 230.103,235.475 230.5,236.5 Z"/></g>
<g><path style="opacity:0.008" fill="#fefffe" d="M 28.5,236.5 C 27.8333,237.167 27.8333,237.167 28.5,236.5 Z"/></g>
<g><path style="opacity:0.008" fill="#fefffe" d="M 205.5,237.5 C 205.897,236.475 206.563,236.308 207.5,237C 206.906,237.464 206.239,237.631 205.5,237.5 Z"/></g>
<g><path style="opacity:0.008" fill="#fefffe" d="M 230.5,237.5 C 230.5,237.167 230.5,236.833 230.5,236.5C 233.167,236.833 233.167,237.167 230.5,237.5 Z"/></g>
<g><path style="opacity:0.008" fill="#fefffe" d="M 205.5,237.5 C 205.5,237.833 205.5,238.167 205.5,238.5C 204.83,238.019 204.83,237.685 205.5,237.5 Z"/></g>
<g><path style="opacity:0.008" fill="#fefffe" d="M 234.5,238.5 C 233.833,237.167 233.833,237.167 234.5,238.5 Z"/></g>
<g><path style="opacity:0.008" fill="#fefffe" d="M 28.5,238.5 C 29.8333,239.167 29.8333,239.167 28.5,238.5 Z"/></g>
<g><path style="opacity:0.008" fill="#fefffe" d="M 122.5,238.5 C 123.833,239.167 123.833,239.167 122.5,238.5 Z"/></g>
<g><path style="opacity:0.008" fill="#fefffe" d="M 234.5,238.5 C 235.833,239.167 235.833,239.167 234.5,238.5 Z"/></g>
<g><path style="opacity:0.008" fill="#fefffe" d="M 292.5,238.5 C 292.631,239.239 292.464,239.906 292,240.5C 291.308,239.563 291.475,238.897 292.5,238.5 Z"/></g>
<g><path style="opacity:0.008" fill="#fefffe" d="M 121.5,239.5 C 121.833,239.5 122.167,239.5 122.5,239.5C 122.315,240.17 121.981,240.17 121.5,239.5 Z"/></g>
<g><path style="opacity:0.008" fill="#fefffe" d="M 402.5,239.5 C 403.833,240.167 403.833,240.167 402.5,239.5 Z"/></g>
<g><path style="opacity:0.016" fill="#fefffe" d="M 120.5,240.5 C 120.833,240.5 121.167,240.5 121.5,240.5C 121.315,241.17 120.981,241.17 120.5,240.5 Z"/></g>
<g><path style="opacity:0.008" fill="#fefffe" d="M 237.5,240.5 C 238.833,241.167 238.833,241.167 237.5,240.5 Z"/></g>
<g><path style="opacity:0.016" fill="#fefffe" d="M 119.5,241.5 C 119.833,241.5 120.167,241.5 120.5,241.5C 120.315,242.17 119.981,242.17 119.5,241.5 Z"/></g>
<g><path style="opacity:0.008" fill="#fefffe" d="M 401.5,241.5 C 402.833,242.167 402.833,242.167 401.5,241.5 Z"/></g>
<g><path style="opacity:0.016" fill="#fefffe" d="M 118.5,242.5 C 118.833,242.5 119.167,242.5 119.5,242.5C 119.315,243.17 118.981,243.17 118.5,242.5 Z"/></g>
<g><path style="opacity:0.008" fill="#fefffe" d="M 241.5,243.5 C 240.833,242.167 240.833,242.167 241.5,243.5 Z"/></g>
<g><path style="opacity:0.008" fill="#fefffe" d="M 294.5,242.5 C 293.833,243.167 293.833,243.167 294.5,242.5 Z"/></g>
<g><path style="opacity:0.016" fill="#fefffe" d="M 117.5,243.5 C 117.833,243.5 118.167,243.5 118.5,243.5C 118.315,244.17 117.981,244.17 117.5,243.5 Z"/></g>
<g><path style="opacity:0.008" fill="#fefffe" d="M 241.5,243.5 C 242.167,243.5 242.5,243.833 242.5,244.5C 242.167,244.167 241.833,243.833 241.5,243.5 Z"/></g>
<g><path style="opacity:0.008" fill="#fefffe" d="M 400.5,243.5 C 401.833,244.167 401.833,244.167 400.5,243.5 Z"/></g>
<g><path style="opacity:0.016" fill="#fefffe" d="M 116.5,244.5 C 116.833,244.5 117.167,244.5 117.5,244.5C 117.315,245.17 116.981,245.17 116.5,244.5 Z"/></g>
<g><path style="opacity:0.008" fill="#fefffe" d="M 242.5,244.5 C 243.833,245.167 243.833,245.167 242.5,244.5 Z"/></g>
<g><path style="opacity:0.008" fill="#fefffe" d="M 399.5,244.5 C 399.833,244.5 400.167,244.5 400.5,244.5C 400.315,245.17 399.981,245.17 399.5,244.5 Z"/></g>
<g><path style="opacity:0.008" fill="#fefffe" d="M 36.5,245.5 C 36.5,245.833 36.5,246.167 36.5,246.5C 35.8299,246.019 35.8299,245.685 36.5,245.5 Z"/></g>
<g><path style="opacity:0.008" fill="#fefffe" d="M 115.5,245.5 C 115.833,245.5 116.167,245.5 116.5,245.5C 116.315,246.17 115.981,246.17 115.5,245.5 Z"/></g>
<g><path style="opacity:0.008" fill="#fefffe" d="M 296.5,245.5 C 295.833,246.167 295.833,246.167 296.5,245.5 Z"/></g>
<g><path style="opacity:0.008" fill="#fefffe" d="M 398.5,245.5 C 398.833,245.5 399.167,245.5 399.5,245.5C 399.315,246.17 398.981,246.17 398.5,245.5 Z"/></g>
<g><path style="opacity:0.008" fill="#fefffe" d="M 36.5,246.5 C 37.8333,247.167 37.8333,247.167 36.5,246.5 Z"/></g>
<g><path style="opacity:0.008" fill="#fefffe" d="M 114.5,246.5 C 114.833,246.5 115.167,246.5 115.5,246.5C 115.315,247.17 114.981,247.17 114.5,246.5 Z"/></g>
<g><path style="opacity:0.008" fill="#fefffe" d="M 397.5,246.5 C 397.833,246.5 398.167,246.5 398.5,246.5C 398.315,247.17 397.981,247.17 397.5,246.5 Z"/></g>
<g><path style="opacity:0.01" fill="#fefffe" d="M 145.5,248.5 C 147.966,247.366 150.633,247.199 153.5,248C 150.854,248.497 148.187,248.664 145.5,248.5 Z"/></g>
<g><path style="opacity:0.016" fill="#fefffe" d="M 245.5,248.5 C 244.833,247.167 244.833,247.167 245.5,248.5 Z"/></g>
<g><path style="opacity:0.011" fill="#fefffe" d="M 285.5,248.5 C 287.966,247.366 290.633,247.199 293.5,248C 290.854,248.497 288.187,248.664 285.5,248.5 Z"/></g>
<g><path style="opacity:0.008" fill="#fefffe" d="M 395.5,248.5 C 395.5,248.167 395.5,247.833 395.5,247.5C 396.167,247.5 396.833,247.5 397.5,247.5C 397.158,248.338 396.492,248.672 395.5,248.5 Z"/></g>
<g><path style="opacity:0.016" fill="#fefffe" d="M 111.5,248.5 C 112.833,249.167 112.833,249.167 111.5,248.5 Z"/></g>
<g><path style="opacity:0.008" fill="#fefffe" d="M 154.5,249.5 C 154.897,248.475 155.563,248.308 156.5,249C 155.906,249.464 155.239,249.631 154.5,249.5 Z"/></g>
<g><path style="opacity:0.008" fill="#fefffe" d="M 245.5,248.5 C 246.833,249.167 246.833,249.167 245.5,248.5 Z"/></g>
<g><path style="opacity:0.008" fill="#fefffe" d="M 284.5,249.5 C 283.761,249.631 283.094,249.464 282.5,249C 283.437,248.308 284.103,248.475 284.5,249.5 Z"/></g>
<g><path style="opacity:0.008" fill="#fefffe" d="M 294.5,249.5 C 294.897,248.475 295.563,248.308 296.5,249C 295.906,249.464 295.239,249.631 294.5,249.5 Z"/></g>
<g><path style="opacity:0.008" fill="#fefffe" d="M 301.5,248.5 C 301.103,249.525 300.437,249.692 299.5,249C 300.094,248.536 300.761,248.369 301.5,248.5 Z"/></g>
<g><path style="opacity:0.008" fill="#fefffe" d="M 393.5,249.5 C 393.5,249.167 393.5,248.833 393.5,248.5C 394.167,248.5 394.833,248.5 395.5,248.5C 395.158,249.338 394.492,249.672 393.5,249.5 Z"/></g>
<g><path style="opacity:0.008" fill="#fefffe" d="M 41.5,249.5 C 40.8333,250.167 40.8333,250.167 41.5,249.5 Z"/></g>
<g><path style="opacity:0.008" fill="#fefffe" d="M 110.5,249.5 C 110.833,249.5 111.167,249.5 111.5,249.5C 111.315,250.17 110.981,250.17 110.5,249.5 Z"/></g>
<g><path style="opacity:0.94" fill="#fffefd" d="M 158.5,251.5 C 160.475,253.137 162.475,254.804 164.5,256.5C 166.094,259.764 168.427,262.431 171.5,264.5C 173.094,267.764 175.427,270.431 178.5,272.5C 180.094,275.764 182.427,278.431 185.5,280.5C 186.757,283.427 188.757,285.761 191.5,287.5C 193.094,290.764 195.427,293.431 198.5,295.5C 200.5,299.5 203.5,302.5 207.5,304.5C 207.842,305.338 208.508,305.672 209.5,305.5C 215.025,308.813 220.692,309.146 226.5,306.5C 229.089,306.539 231.089,305.539 232.5,303.5C 234.833,303.167 236.167,301.833 236.5,299.5C 251.16,282.841 266.16,266.507 281.5,250.5C 282.791,250.737 283.791,250.404 284.5,249.5C 287.833,249.5 291.167,249.5 294.5,249.5C 295.514,250.674 296.847,251.34 298.5,251.5C 300.475,253.137 302.475,254.804 304.5,256.5C 304.427,258.027 305.094,259.027 306.5,259.5C 307.314,264.119 307.647,268.786 307.5,273.5C 306.662,273.842 306.328,274.508 306.5,275.5C 305.662,275.842 305.328,276.508 305.5,277.5C 304.094,277.973 303.427,278.973 303.5,280.5C 302.833,280.5 302.5,280.833 302.5,281.5C 301.833,281.5 301.5,281.833 301.5,282.5C 300.094,282.973 299.427,283.973 299.5,285.5C 298.833,285.5 298.5,285.833 298.5,286.5C 297.833,286.5 297.5,286.833 297.5,287.5C 296.833,287.5 296.5,287.833 296.5,288.5C 295.094,288.973 294.427,289.973 294.5,291.5C 293.833,291.5 293.5,291.833 293.5,292.5C 292.833,292.5 292.5,292.833 292.5,293.5C 291.833,293.5 291.5,293.833 291.5,294.5C 290.094,294.973 289.427,295.973 289.5,297.5C 288.833,297.5 288.5,297.833 288.5,298.5C 287.833,298.5 287.5,298.833 287.5,299.5C 285.738,300.262 284.738,301.596 284.5,303.5C 283.833,303.5 283.5,303.833 283.5,304.5C 282.833,304.5 282.5,304.833 282.5,305.5C 281.094,305.973 280.427,306.973 280.5,308.5C 279.833,308.5 279.5,308.833 279.5,309.5C 278.833,309.5 278.5,309.833 278.5,310.5C 277.833,310.5 277.5,310.833 277.5,311.5C 276.094,311.973 275.427,312.973 275.5,314.5C 274.833,314.5 274.5,314.833 274.5,315.5C 273.833,315.5 273.5,315.833 273.5,316.5C 272.833,316.5 272.5,316.833 272.5,317.5C 271.094,317.973 270.427,318.973 270.5,320.5C 269.833,320.5 269.5,320.833 269.5,321.5C 268.833,321.5 268.5,321.833 268.5,322.5C 266.738,323.262 265.738,324.596 265.5,326.5C 264.833,326.5 264.5,326.833 264.5,327.5C 263.662,327.842 263.328,328.508 263.5,329.5C 262.073,331.148 261.24,333.148 261,335.5C 260.5,350.83 260.333,366.163 260.5,381.5C 259.662,381.842 259.328,382.508 259.5,383.5C 258.662,383.842 258.328,384.508 258.5,385.5C 257.833,385.5 257.5,385.833 257.5,386.5C 256.833,386.5 256.5,386.833 256.5,387.5C 255.833,387.5 255.5,387.833 255.5,388.5C 254.833,388.5 254.5,388.833 254.5,389.5C 251.946,390.606 249.279,391.439 246.5,392C 226.809,392.784 207.142,392.618 187.5,391.5C 187.158,390.662 186.492,390.328 185.5,390.5C 183.833,388.167 181.833,386.167 179.5,384.5C 179.672,383.508 179.338,382.842 178.5,382.5C 178.737,381.209 178.404,380.209 177.5,379.5C 177.667,364.163 177.5,348.83 177,333.5C 176.768,332.263 176.268,331.263 175.5,330.5C 175.25,328.326 174.25,326.659 172.5,325.5C 171.396,323.611 170.063,321.945 168.5,320.5C 166.823,318.46 165.156,316.46 163.5,314.5C 161.823,312.46 160.156,310.46 158.5,308.5C 157.396,306.611 156.063,304.945 154.5,303.5C 152.823,301.46 151.156,299.46 149.5,297.5C 147.823,295.46 146.156,293.46 144.5,291.5C 143.299,289.091 141.633,287.091 139.5,285.5C 138.396,283.611 137.063,281.945 135.5,280.5C 134.488,279.128 133.488,277.795 132.5,276.5C 132.204,274.597 131.537,272.93 130.5,271.5C 130.552,267.802 130.886,264.135 131.5,260.5C 137.981,250.117 146.981,247.117 158.5,251.5 Z M 230.5,253.5 C 230.5,253.167 230.5,252.833 230.5,252.5C 232.5,252.5 233.5,253.5 233.5,255.5C 233.167,255.5 232.833,255.5 232.5,255.5C 231.833,255.5 231.5,255.167 231.5,254.5C 230.833,254.5 230.5,254.167 230.5,253.5 Z M 204.5,276.5 C 204.833,276.5 205.167,276.5 205.5,276.5C 206.167,276.5 206.5,276.833 206.5,277.5C 207.167,277.5 207.5,277.833 207.5,278.5C 208.167,278.5 208.5,278.833 208.5,279.5C 208.5,279.833 208.5,280.167 208.5,280.5C 206.167,280.167 204.833,278.833 204.5,276.5 Z M 236.5,299.5 C 236.167,301.833 234.833,303.167 232.5,303.5C 233.5,301.833 234.833,300.5 236.5,299.5 Z M 224.5,353.5 C 224.565,353.062 224.399,352.728 224,352.5C 223.167,353.333 222.333,354.167 221.5,355C 221.728,355.399 222.062,355.565 222.5,355.5C 221.625,357.806 220.292,358.473 218.5,357.5C 218.262,355.522 216.929,353.855 214.5,352.5C 214.5,351.833 214.167,351.5 213.5,351.5C 214.549,342.923 216.215,334.589 218.5,326.5C 218.338,324.473 218.505,322.473 219,320.5C 222.114,331.532 223.948,342.532 224.5,353.5 Z M 213.5,351.5 C 214.167,351.5 214.5,351.833 214.5,352.5C 214.5,352.833 214.5,353.167 214.5,353.5C 212.576,353.289 212.243,352.623 213.5,351.5 Z"/></g>
<g><path style="opacity:0.008" fill="#fefffe" d="M 281.5,250.5 C 280.833,249.167 280.833,249.167 281.5,250.5 Z"/></g>
<g><path style="opacity:0.008" fill="#fefffe" d="M 298.5,250.5 C 297.833,249.167 297.833,249.167 298.5,250.5 Z"/></g>
<g><path style="opacity:0.01" fill="#fefffe" d="M 302.5,250.5 C 303.251,249.427 304.251,249.26 305.5,250C 304.552,250.483 303.552,250.649 302.5,250.5 Z"/></g>
<g><path style="opacity:0.01" fill="#fefffe" d="M 393.5,249.5 C 392.399,250.598 391.066,250.765 389.5,250C 390.793,249.51 392.127,249.343 393.5,249.5 Z"/></g>
<g><path style="opacity:0.008" fill="#fefffe" d="M 108.5,250.5 C 109.833,251.167 109.833,251.167 108.5,250.5 Z"/></g>
<g><path style="opacity:0.008" fill="#fefffe" d="M 158.5,250.5 C 159.833,251.167 159.833,251.167 158.5,250.5 Z"/></g>
<g><path style="opacity:0.008" fill="#fefffe" d="M 246.5,250.5 C 247.833,251.167 247.833,251.167 246.5,250.5 Z"/></g>
<g><path style="opacity:0.008" fill="#fefffe" d="M 298.5,250.5 C 299.833,251.167 299.833,251.167 298.5,250.5 Z"/></g>
<g><path style="opacity:0.008" fill="#fefffe" d="M 107.5,251.5 C 107.833,251.5 108.167,251.5 108.5,251.5C 108.315,252.17 107.981,252.17 107.5,251.5 Z"/></g>
<g><path style="opacity:0.008" fill="#fefffe" d="M 191.5,252.5 C 190.833,251.167 190.833,251.167 191.5,252.5 Z"/></g>
<g><path style="opacity:0.008" fill="#fefffe" d="M 105.5,252.5 C 106.833,253.167 106.833,253.167 105.5,252.5 Z"/></g>
<g><path style="opacity:0.008" fill="#fefffe" d="M 247.5,252.5 C 248.833,253.167 248.833,253.167 247.5,252.5 Z"/></g>
<g><path style="opacity:0.008" fill="#fefffe" d="M 48.5,253.5 C 48.5,253.833 48.5,254.167 48.5,254.5C 45.8333,254.167 45.8333,253.833 48.5,253.5 Z"/></g>
<g><path style="opacity:0.008" fill="#fefffe" d="M 103.5,254.5 C 103.5,254.167 103.5,253.833 103.5,253.5C 104.167,253.5 104.833,253.5 105.5,253.5C 105.158,254.338 104.492,254.672 103.5,254.5 Z"/></g>
<g><path style="opacity:0.008" fill="#fefffe" d="M 134.5,253.5 C 135.833,254.167 135.833,254.167 134.5,253.5 Z"/></g>
<g><path style="opacity:0.008" fill="#fefffe" d="M 190.5,254.5 C 189.833,253.167 189.833,253.167 190.5,254.5 Z"/></g>
<g><path style="opacity:0.008" fill="#fefffe" d="M 48.5,254.5 C 49.8333,255.167 49.8333,255.167 48.5,254.5 Z"/></g>
<g><path style="opacity:0.008" fill="#fefffe" d="M 101.5,255.5 C 101.5,255.167 101.5,254.833 101.5,254.5C 102.167,254.5 102.833,254.5 103.5,254.5C 103.158,255.338 102.492,255.672 101.5,255.5 Z"/></g>
<g><path style="opacity:0.008" fill="#fefffe" d="M 248.5,254.5 C 249.833,255.167 249.833,255.167 248.5,254.5 Z"/></g>
<g><path style="opacity:0.008" fill="#fefffe" d="M 52.5,255.5 C 52.1034,256.525 51.4368,256.692 50.5,256C 51.0944,255.536 51.7611,255.369 52.5,255.5 Z"/></g>
<g><path style="opacity:0.008" fill="#fefffe" d="M 99.5,256.5 C 99.5,256.167 99.5,255.833 99.5,255.5C 100.167,255.5 100.833,255.5 101.5,255.5C 101.158,256.338 100.492,256.672 99.5,256.5 Z"/></g>
<g><path style="opacity:0.008" fill="#fefffe" d="M 165.5,256.5 C 164.833,255.167 164.833,255.167 165.5,256.5 Z"/></g>
<g><path style="opacity:0.008" fill="#fefffe" d="M 189.5,257.5 C 188.475,257.103 188.308,256.437 189,255.5C 189.464,256.094 189.631,256.761 189.5,257.5 Z"/></g>
<g><path style="opacity:0.008" fill="#fefffe" d="M 305.5,256.5 C 304.833,255.167 304.833,255.167 305.5,256.5 Z"/></g>
<g><path style="opacity:0.008" fill="#fefffe" d="M 53.5,256.5 C 54.8333,257.167 54.8333,257.167 53.5,256.5 Z"/></g>
<g><path style="opacity:0.008" fill="#fefffe" d="M 97.5,256.5 C 98.1667,256.5 98.8333,256.5 99.5,256.5C 98.8333,257.833 98.1667,257.833 97.5,256.5 Z"/></g>
<g><path style="opacity:0.008" fill="#fefffe" d="M 165.5,256.5 C 166.833,257.167 166.833,257.167 165.5,256.5 Z"/></g>
<g><path style="opacity:0.008" fill="#fefffe" d="M 305.5,256.5 C 306.833,257.167 306.833,257.167 305.5,256.5 Z"/></g>
<g><path style="opacity:0.008" fill="#fefffe" d="M 57.5,257.5 C 57.1034,258.525 56.4368,258.692 55.5,258C 56.0944,257.536 56.7611,257.369 57.5,257.5 Z"/></g>
<g><path style="opacity:0.008" fill="#fefffe" d="M 94.5,257.5 C 95.2389,257.369 95.9056,257.536 96.5,258C 95.5632,258.692 94.8966,258.525 94.5,257.5 Z"/></g>
<g><path style="opacity:0.016" fill="#fefffe" d="M 249.5,257.5 C 250.833,258.167 250.833,258.167 249.5,257.5 Z"/></g>
<g><path style="opacity:0.008" fill="#fefffe" d="M 58.5,259.5 C 58.8966,258.475 59.5632,258.308 60.5,259C 59.9056,259.464 59.2389,259.631 58.5,259.5 Z"/></g>
<g><path style="opacity:0.008" fill="#fefffe" d="M 91.5,258.5 C 92.2389,258.369 92.9056,258.536 93.5,259C 92.5632,259.692 91.8966,259.525 91.5,258.5 Z"/></g>
<g><path style="opacity:0.012" fill="#fefffe" d="M 187.5,258.5 C 188.525,258.897 188.692,259.563 188,260.5C 187.536,259.906 187.369,259.239 187.5,258.5 Z"/></g>
<g><path style="opacity:0.008" fill="#fefffe" d="M 306.5,258.5 C 307.833,259.167 307.833,259.167 306.5,258.5 Z"/></g>
<g><path style="opacity:0.008" fill="#fefffe" d="M 62.5,260.5 C 62.8966,259.475 63.5632,259.308 64.5,260C 63.9056,260.464 63.2389,260.631 62.5,260.5 Z"/></g>
<g><path style="opacity:0.01" fill="#fefffe" d="M 87.5,260.5 C 88.2506,259.427 89.2506,259.26 90.5,260C 89.552,260.483 88.552,260.649 87.5,260.5 Z"/></g>
<g><path style="opacity:0.008" fill="#fefffe" d="M 131.5,260.5 C 130.833,259.167 130.833,259.167 131.5,260.5 Z"/></g>
<g><path style="opacity:0.009" fill="#fefffe" d="M 66.5,261.5 C 67.9464,260.387 69.6131,260.22 71.5,261C 69.8659,261.494 68.1992,261.66 66.5,261.5 Z"/></g>
<g><path style="opacity:0.01" fill="#fefffe" d="M 77.5,261.5 C 79.6282,260.371 81.9615,260.204 84.5,261C 82.1902,261.497 79.8568,261.663 77.5,261.5 Z"/></g>
<g><path style="opacity:0.008" fill="#fefffe" d="M 307.5,260.5 C 308.833,261.167 308.833,261.167 307.5,260.5 Z"/></g>
<g><path style="opacity:0.008" fill="#fefffe" d="M 129.5,261.5 C 130.525,261.897 130.692,262.563 130,263.5C 129.536,262.906 129.369,262.239 129.5,261.5 Z"/></g>
<g><path style="opacity:1" fill="#fbed32" d="M 146.5,260.5 C 149.564,260.144 152.231,260.977 154.5,263C 168.931,279.854 183.598,296.521 198.5,313C 201.005,314.753 203.671,316.253 206.5,317.5C 206.833,318.5 207.167,319.5 207.5,320.5C 204.462,332.73 202.295,345.064 201,357.5C 205.801,361.299 210.301,365.466 214.5,370C 217.03,371.422 219.697,371.755 222.5,371C 227.634,366.867 232.468,362.367 237,357.5C 237.667,354.5 237.667,351.5 237,348.5C 234.64,338.534 232.474,328.534 230.5,318.5C 235.43,316.12 239.93,313.12 244,309.5C 257.833,293.667 271.667,277.833 285.5,262C 291.53,259.516 295.197,261.516 296.5,268C 296.142,270.032 295.308,271.866 294,273.5C 279.242,290.254 265.242,307.588 252,325.5C 251.333,327.5 250.667,329.5 250,331.5C 249.667,347.167 249.333,362.833 249,378.5C 248.5,379 248,379.5 247.5,380C 228.833,380.667 210.167,380.667 191.5,380C 191,379.5 190.5,379 190,378.5C 189.94,362.114 189.273,345.78 188,329.5C 186.772,325.941 185.106,322.608 183,319.5C 170,303.833 157,288.167 144,272.5C 141.511,267.757 142.345,263.757 146.5,260.5 Z M 204.5,276.5 C 204.833,276.5 205.167,276.5 205.5,276.5C 206.167,276.5 206.5,276.833 206.5,277.5C 207.167,277.5 207.5,277.833 207.5,278.5C 208.167,278.5 208.5,278.833 208.5,279.5C 208.5,279.833 208.5,280.167 208.5,280.5C 206.167,280.167 204.833,278.833 204.5,276.5 Z M 236.5,299.5 C 236.167,301.833 234.833,303.167 232.5,303.5C 233.5,301.833 234.833,300.5 236.5,299.5 Z M 224.5,353.5 C 224.565,353.062 224.399,352.728 224,352.5C 223.167,353.333 222.333,354.167 221.5,355C 221.728,355.399 222.062,355.565 222.5,355.5C 221.625,357.806 220.292,358.473 218.5,357.5C 218.262,355.522 216.929,353.855 214.5,352.5C 214.5,351.833 214.167,351.5 213.5,351.5C 214.549,342.923 216.215,334.589 218.5,326.5C 218.338,324.473 218.505,322.473 219,320.5C 222.114,331.532 223.948,342.532 224.5,353.5 Z M 213.5,351.5 C 214.167,351.5 214.5,351.833 214.5,352.5C 214.5,352.833 214.5,353.167 214.5,353.5C 212.576,353.289 212.243,352.623 213.5,351.5 Z"/></g>
<g><path style="opacity:0.01" fill="#fefffe" d="M 250.5,261.5 C 251.573,262.251 251.74,263.251 251,264.5C 250.517,263.552 250.351,262.552 250.5,261.5 Z"/></g>
<g><path style="opacity:0.008" fill="#fefffe" d="M 268.5,260.5 C 269.833,261.167 269.833,261.167 268.5,260.5 Z"/></g>
<g><path style="opacity:0.008" fill="#fefffe" d="M 172.5,264.5 C 171.833,263.167 171.833,263.167 172.5,264.5 Z"/></g>
<g><path style="opacity:0.01" fill="#fefffe" d="M 308.5,263.5 C 309.573,264.251 309.74,265.251 309,266.5C 308.517,265.552 308.351,264.552 308.5,263.5 Z"/></g>
<g><path style="opacity:0.008" fill="#fefffe" d="M 172.5,264.5 C 173.833,265.167 173.833,265.167 172.5,264.5 Z"/></g>
<g><path style="opacity:0.008" fill="#fefffe" d="M 186.5,265.5 C 187.833,266.167 187.833,266.167 186.5,265.5 Z"/></g>
<g><path style="opacity:0.011" fill="#fefffe" d="M 250.5,266.5 C 251.613,267.946 251.78,269.613 251,271.5C 250.506,269.866 250.34,268.199 250.5,266.5 Z"/></g>
<g><path style="opacity:0.008" fill="#fefffe" d="M 128.5,267.5 C 129.833,268.167 129.833,268.167 128.5,267.5 Z"/></g>
<g><path style="opacity:0.008" fill="#fefffe" d="M 261.5,268.5 C 262.833,269.167 262.833,269.167 261.5,268.5 Z"/></g>
<g><path style="opacity:0.012" fill="#fefffe" d="M 308.5,268.5 C 309.598,269.601 309.765,270.934 309,272.5C 308.51,271.207 308.343,269.873 308.5,268.5 Z"/></g>
<g><path style="opacity:0.012" fill="#fefffe" d="M 130.5,271.5 C 130.631,272.239 130.464,272.906 130,273.5C 129.308,272.563 129.475,271.897 130.5,271.5 Z"/></g>
<g><path style="opacity:0.008" fill="#fefffe" d="M 179.5,272.5 C 178.833,271.167 178.833,271.167 179.5,272.5 Z"/></g>
<g><path style="opacity:0.008" fill="#fefffe" d="M 187.5,271.5 C 188.525,271.897 188.692,272.563 188,273.5C 187.536,272.906 187.369,272.239 187.5,271.5 Z"/></g>
<g><path style="opacity:0.008" fill="#fefffe" d="M 179.5,272.5 C 180.833,273.167 180.833,273.167 179.5,272.5 Z"/></g>
<g><path style="opacity:0.008" fill="#fefffe" d="M 249.5,273.5 C 250.525,273.897 250.692,274.563 250,275.5C 249.536,274.906 249.369,274.239 249.5,273.5 Z"/></g>
<g><path style="opacity:0.008" fill="#fefffe" d="M 307.5,273.5 C 308.833,274.167 308.833,274.833 307.5,275.5C 307.5,274.833 307.5,274.167 307.5,273.5 Z"/></g>
<g><path style="opacity:0.008" fill="#fefffe" d="M 188.5,275.5 C 189.525,275.897 189.692,276.563 189,277.5C 188.536,276.906 188.369,276.239 188.5,275.5 Z"/></g>
<g><path style="opacity:0.008" fill="#fefffe" d="M 255.5,275.5 C 256.833,276.167 256.833,276.167 255.5,275.5 Z"/></g>
<g><path style="opacity:0.008" fill="#fefffe" d="M 306.5,275.5 C 306.833,275.5 307.167,275.5 307.5,275.5C 307.672,276.492 307.338,277.158 306.5,277.5C 306.5,276.833 306.5,276.167 306.5,275.5 Z"/></g>
<g><path style="opacity:0.008" fill="#fefffe" d="M 132.5,276.5 C 131.833,277.167 131.833,277.167 132.5,276.5 Z"/></g>
<g><path style="opacity:0.008" fill="#fefffe" d="M 248.5,276.5 C 249.525,276.897 249.692,277.563 249,278.5C 248.536,277.906 248.369,277.239 248.5,276.5 Z"/></g>
<g><path style="opacity:0.008" fill="#fefffe" d="M 305.5,277.5 C 305.833,277.5 306.167,277.5 306.5,277.5C 306.315,278.17 305.981,278.17 305.5,277.5 Z"/></g>
<g><path style="opacity:0.008" fill="#fefffe" d="M 189.5,278.5 C 190.833,279.167 190.833,279.167 189.5,278.5 Z"/></g>
<g><path style="opacity:0.008" fill="#fefffe" d="M 186.5,280.5 C 185.833,279.167 185.833,279.167 186.5,280.5 Z"/></g>
<g><path style="opacity:0.008" fill="#fefffe" d="M 247.5,279.5 C 248.833,280.167 248.833,280.167 247.5,279.5 Z"/></g>
<g><path style="opacity:0.008" fill="#fefffe" d="M 304.5,279.5 C 305.833,280.167 305.833,280.167 304.5,279.5 Z"/></g>
<g><path style="opacity:0.008" fill="#fefffe" d="M 135.5,280.5 C 134.833,281.167 134.833,281.167 135.5,280.5 Z"/></g>
<g><path style="opacity:0.008" fill="#fefffe" d="M 186.5,280.5 C 187.833,281.167 187.833,281.167 186.5,280.5 Z"/></g>
<g><path style="opacity:0.008" fill="#fefffe" d="M 191.5,281.5 C 190.833,280.167 190.833,280.167 191.5,281.5 Z"/></g>
<g><path style="opacity:0.008" fill="#fefffe" d="M 303.5,280.5 C 303.833,280.5 304.167,280.5 304.5,280.5C 304.315,281.17 303.981,281.17 303.5,280.5 Z"/></g>
<g><path style="opacity:0.008" fill="#fefffe" d="M 191.5,281.5 C 191.833,281.5 192.167,281.5 192.5,281.5C 192.315,282.17 191.981,282.17 191.5,281.5 Z"/></g>
<g><path style="opacity:0.008" fill="#fefffe" d="M 246.5,281.5 C 247.833,282.167 247.833,282.167 246.5,281.5 Z"/></g>
<g><path style="opacity:0.016" fill="#fefffe" d="M 302.5,281.5 C 302.833,281.5 303.167,281.5 303.5,281.5C 303.315,282.17 302.981,282.17 302.5,281.5 Z"/></g>
<g><path style="opacity:0.008" fill="#fefffe" d="M 135.5,282.5 C 136.833,283.167 136.833,283.167 135.5,282.5 Z"/></g>
<g><path style="opacity:0.008" fill="#fefffe" d="M 245.5,282.5 C 245.833,282.5 246.167,282.5 246.5,282.5C 246.315,283.17 245.981,283.17 245.5,282.5 Z"/></g>
<g><path style="opacity:0.008" fill="#fefffe" d="M 301.5,282.5 C 301.833,282.5 302.167,282.5 302.5,282.5C 302.315,283.17 301.981,283.17 301.5,282.5 Z"/></g>
<g><path style="opacity:0.008" fill="#fefffe" d="M 248.5,283.5 C 249.833,284.167 249.833,284.167 248.5,283.5 Z"/></g>
<g><path style="opacity:0.008" fill="#fefffe" d="M 194.5,284.5 C 193.833,285.167 193.833,285.167 194.5,284.5 Z"/></g>
<g><path style="opacity:0.008" fill="#fefffe" d="M 244.5,284.5 C 245.833,285.167 245.833,285.167 244.5,284.5 Z"/></g>
<g><path style="opacity:0.008" fill="#fefffe" d="M 248.5,284.5 C 247.833,285.167 247.833,285.167 248.5,284.5 Z"/></g>
<g><path style="opacity:0.016" fill="#fefffe" d="M 139.5,285.5 C 138.833,286.167 138.833,286.167 139.5,285.5 Z"/></g>
<g><path style="opacity:0.008" fill="#fefffe" d="M 243.5,285.5 C 243.833,285.5 244.167,285.5 244.5,285.5C 244.315,286.17 243.981,286.17 243.5,285.5 Z"/></g>
<g><path style="opacity:0.008" fill="#fefffe" d="M 299.5,285.5 C 300.833,286.167 300.833,286.167 299.5,285.5 Z"/></g>
<g><path style="opacity:0.008" fill="#fefffe" d="M 192.5,287.5 C 191.833,286.167 191.833,286.167 192.5,287.5 Z"/></g>
<g><path style="opacity:0.016" fill="#fefffe" d="M 242.5,286.5 C 242.833,286.5 243.167,286.5 243.5,286.5C 243.315,287.17 242.981,287.17 242.5,286.5 Z"/></g>
<g><path style="opacity:0.016" fill="#fefffe" d="M 298.5,286.5 C 298.833,286.5 299.167,286.5 299.5,286.5C 299.315,287.17 298.981,287.17 298.5,286.5 Z"/></g>
<g><path style="opacity:0.008" fill="#fefffe" d="M 192.5,287.5 C 193.167,287.5 193.5,287.833 193.5,288.5C 193.167,288.167 192.833,287.833 192.5,287.5 Z"/></g>
<g><path style="opacity:0.008" fill="#fefffe" d="M 196.5,288.5 C 195.833,287.167 195.833,287.167 196.5,288.5 Z"/></g>
<g><path style="opacity:0.016" fill="#fefffe" d="M 241.5,287.5 C 241.833,287.5 242.167,287.5 242.5,287.5C 242.315,288.17 241.981,288.17 241.5,287.5 Z"/></g>
<g><path style="opacity:0.016" fill="#fefffe" d="M 297.5,287.5 C 297.833,287.5 298.167,287.5 298.5,287.5C 298.315,288.17 297.981,288.17 297.5,287.5 Z"/></g>
<g><path style="opacity:0.008" fill="#fefffe" d="M 140.5,288.5 C 141.833,289.167 141.833,289.167 140.5,288.5 Z"/></g>
<g><path style="opacity:0.008" fill="#fefffe" d="M 193.5,288.5 C 194.833,289.167 194.833,289.167 193.5,288.5 Z"/></g>
<g><path style="opacity:0.008" fill="#fefffe" d="M 196.5,288.5 C 197.167,288.5 197.5,288.833 197.5,289.5C 197.167,289.167 196.833,288.833 196.5,288.5 Z"/></g>
<g><path style="opacity:0.016" fill="#fefffe" d="M 240.5,288.5 C 240.833,288.5 241.167,288.5 241.5,288.5C 241.315,289.17 240.981,289.17 240.5,288.5 Z"/></g>
<g><path style="opacity:0.008" fill="#fefffe" d="M 296.5,288.5 C 296.833,288.5 297.167,288.5 297.5,288.5C 297.315,289.17 296.981,289.17 296.5,288.5 Z"/></g>
<g><path style="opacity:0.008" fill="#fefffe" d="M 197.5,289.5 C 198.833,290.167 198.833,290.167 197.5,289.5 Z"/></g>
<g><path style="opacity:0.016" fill="#fefffe" d="M 239.5,289.5 C 239.833,289.5 240.167,289.5 240.5,289.5C 240.315,290.17 239.981,290.17 239.5,289.5 Z"/></g>
<g><path style="opacity:0.008" fill="#fefffe" d="M 238.5,290.5 C 238.833,290.5 239.167,290.5 239.5,290.5C 239.315,291.17 238.981,291.17 238.5,290.5 Z"/></g>
<g><path style="opacity:0.008" fill="#fefffe" d="M 295.5,290.5 C 296.833,291.167 296.833,291.167 295.5,290.5 Z"/></g>
<g><path style="opacity:0.008" fill="#fefffe" d="M 144.5,291.5 C 143.833,292.167 143.833,292.167 144.5,291.5 Z"/></g>
<g><path style="opacity:0.008" fill="#fefffe" d="M 201.5,291.5 C 201.5,291.833 201.5,292.167 201.5,292.5C 200.83,292.019 200.83,291.685 201.5,291.5 Z"/></g>
<g><path style="opacity:0.008" fill="#fefffe" d="M 238.5,291.5 C 237.833,292.167 237.833,292.167 238.5,291.5 Z"/></g>
<g><path style="opacity:0.008" fill="#fefffe" d="M 241.5,291.5 C 242.833,292.167 242.833,292.167 241.5,291.5 Z"/></g>
<g><path style="opacity:0.008" fill="#fefffe" d="M 294.5,291.5 C 294.833,291.5 295.167,291.5 295.5,291.5C 295.315,292.17 294.981,292.17 294.5,291.5 Z"/></g>
<g><path style="opacity:0.008" fill="#fefffe" d="M 201.5,292.5 C 202.833,293.167 202.833,293.167 201.5,292.5 Z"/></g>
<g><path style="opacity:0.008" fill="#fefffe" d="M 235.5,292.5 C 236.833,293.167 236.833,293.167 235.5,292.5 Z"/></g>
<g><path style="opacity:0.016" fill="#fefffe" d="M 293.5,292.5 C 293.833,292.5 294.167,292.5 294.5,292.5C 294.315,293.17 293.981,293.17 293.5,292.5 Z"/></g>
<g><path style="opacity:0.008" fill="#fefffe" d="M 144.5,293.5 C 145.833,294.167 145.833,294.167 144.5,293.5 Z"/></g>
<g><path style="opacity:0.008" fill="#fefffe" d="M 233.5,294.5 C 233.5,294.167 233.5,293.833 233.5,293.5C 234.167,293.5 234.833,293.5 235.5,293.5C 235.158,294.338 234.492,294.672 233.5,294.5 Z"/></g>
<g><path style="opacity:0.016" fill="#fefffe" d="M 292.5,293.5 C 292.833,293.5 293.167,293.5 293.5,293.5C 293.315,294.17 292.981,294.17 292.5,293.5 Z"/></g>
<g><path style="opacity:0.008" fill="#fefffe" d="M 199.5,295.5 C 198.833,294.167 198.833,294.167 199.5,295.5 Z"/></g>
<g><path style="opacity:0.008" fill="#fefffe" d="M 206.5,294.5 C 206.103,295.525 205.437,295.692 204.5,295C 205.094,294.536 205.761,294.369 206.5,294.5 Z"/></g>
<g><path style="opacity:0.008" fill="#fefffe" d="M 233.5,294.5 C 232.833,295.167 232.833,295.167 233.5,294.5 Z"/></g>
<g><path style="opacity:0.008" fill="#fefffe" d="M 291.5,294.5 C 291.833,294.5 292.167,294.5 292.5,294.5C 292.315,295.17 291.981,295.17 291.5,294.5 Z"/></g>
<g><path style="opacity:0.008" fill="#fefffe" d="M 199.5,295.5 C 200.833,296.167 200.833,296.167 199.5,295.5 Z"/></g>
<g><path style="opacity:0.008" fill="#fefffe" d="M 208.5,295.5 C 207.833,296.167 207.833,296.167 208.5,295.5 Z"/></g>
<g><path style="opacity:0.008" fill="#fefffe" d="M 229.5,295.5 C 230.239,295.369 230.906,295.536 231.5,296C 230.563,296.692 229.897,296.525 229.5,295.5 Z"/></g>
<g><path style="opacity:0.012" fill="#fefffe" d="M 209.5,297.5 C 209.897,296.475 210.563,296.308 211.5,297C 210.906,297.464 210.239,297.631 209.5,297.5 Z"/></g>
<g><path style="opacity:0.012" fill="#fefffe" d="M 226.5,297.5 C 226.897,296.475 227.563,296.308 228.5,297C 227.906,297.464 227.239,297.631 226.5,297.5 Z"/></g>
<g><path style="opacity:0.008" fill="#fefffe" d="M 290.5,296.5 C 291.833,297.167 291.833,297.167 290.5,296.5 Z"/></g>
<g><path style="opacity:0.008" fill="#fefffe" d="M 149.5,297.5 C 148.833,298.167 148.833,298.167 149.5,297.5 Z"/></g>
<g><path style="opacity:0.01" fill="#fefffe" d="M 214.5,298.5 C 215.601,297.402 216.934,297.235 218.5,298C 217.207,298.49 215.873,298.657 214.5,298.5 Z"/></g>
<g><path style="opacity:0.009" fill="#fefffe" d="M 220.5,298.5 C 221.946,297.387 223.613,297.22 225.5,298C 223.866,298.494 222.199,298.66 220.5,298.5 Z"/></g>
<g><path style="opacity:0.008" fill="#fefffe" d="M 289.5,297.5 C 289.833,297.5 290.167,297.5 290.5,297.5C 290.315,298.17 289.981,298.17 289.5,297.5 Z"/></g>
<g><path style="opacity:0.016" fill="#fefffe" d="M 288.5,298.5 C 288.833,298.5 289.167,298.5 289.5,298.5C 289.315,299.17 288.981,299.17 288.5,298.5 Z"/></g>
<g><path style="opacity:0.008" fill="#fefffe" d="M 149.5,299.5 C 150.833,300.167 150.833,300.167 149.5,299.5 Z"/></g>
<g><path style="opacity:0.016" fill="#fefffe" d="M 287.5,299.5 C 287.833,299.5 288.167,299.5 288.5,299.5C 288.315,300.17 287.981,300.17 287.5,299.5 Z"/></g>
<g><path style="opacity:0.008" fill="#fefffe" d="M 285.5,302.5 C 286.833,303.167 286.833,303.167 285.5,302.5 Z"/></g>
<g><path style="opacity:0.008" fill="#fefffe" d="M 154.5,303.5 C 153.833,304.167 153.833,304.167 154.5,303.5 Z"/></g>
<g><path style="opacity:0.016" fill="#fefffe" d="M 207.5,303.5 C 208.833,304.167 208.833,304.167 207.5,303.5 Z"/></g>
<g><path style="opacity:0.008" fill="#fefffe" d="M 284.5,303.5 C 284.833,303.5 285.167,303.5 285.5,303.5C 285.315,304.17 284.981,304.17 284.5,303.5 Z"/></g>
<g><path style="opacity:0.016" fill="#fefffe" d="M 209.5,304.5 C 210.833,305.167 210.833,305.167 209.5,304.5 Z"/></g>
<g><path style="opacity:0.016" fill="#fefffe" d="M 283.5,304.5 C 283.833,304.5 284.167,304.5 284.5,304.5C 284.315,305.17 283.981,305.17 283.5,304.5 Z"/></g>
<g><path style="opacity:0.008" fill="#fefffe" d="M 154.5,305.5 C 155.833,306.167 155.833,306.167 154.5,305.5 Z"/></g>
<g><path style="opacity:0.012" fill="#fefffe" d="M 212.5,306.5 C 212.897,305.475 213.563,305.308 214.5,306C 213.906,306.464 213.239,306.631 212.5,306.5 Z"/></g>
<g><path style="opacity:0.008" fill="#fefffe" d="M 226.5,306.5 C 225.761,306.631 225.094,306.464 224.5,306C 225.437,305.308 226.103,305.475 226.5,306.5 Z"/></g>
<g><path style="opacity:0.008" fill="#fefffe" d="M 282.5,305.5 C 282.833,305.5 283.167,305.5 283.5,305.5C 283.315,306.17 282.981,306.17 282.5,305.5 Z"/></g>
<g><path style="opacity:0.008" fill="#fefffe" d="M 218.5,307.5 C 218.897,306.475 219.563,306.308 220.5,307C 219.906,307.464 219.239,307.631 218.5,307.5 Z"/></g>
<g><path style="opacity:0.008" fill="#fefffe" d="M 158.5,308.5 C 157.833,309.167 157.833,309.167 158.5,308.5 Z"/></g>
<g><path style="opacity:0.008" fill="#fefffe" d="M 280.5,308.5 C 281.833,309.167 281.833,309.167 280.5,308.5 Z"/></g>
<g><path style="opacity:0.016" fill="#fefffe" d="M 279.5,309.5 C 279.833,309.5 280.167,309.5 280.5,309.5C 280.315,310.17 279.981,310.17 279.5,309.5 Z"/></g>
<g><path style="opacity:0.016" fill="#fefffe" d="M 278.5,310.5 C 278.833,310.5 279.167,310.5 279.5,310.5C 279.315,311.17 278.981,311.17 278.5,310.5 Z"/></g>
<g><path style="opacity:0.008" fill="#fefffe" d="M 277.5,311.5 C 277.833,311.5 278.167,311.5 278.5,311.5C 278.315,312.17 277.981,312.17 277.5,311.5 Z"/></g>
<g><path style="opacity:0.008" fill="#fefffe" d="M 276.5,313.5 C 277.833,314.167 277.833,314.167 276.5,313.5 Z"/></g>
<g><path style="opacity:0.008" fill="#fefffe" d="M 163.5,314.5 C 162.833,315.167 162.833,315.167 163.5,314.5 Z"/></g>
<g><path style="opacity:0.008" fill="#fefffe" d="M 275.5,314.5 C 275.833,314.5 276.167,314.5 276.5,314.5C 276.315,315.17 275.981,315.17 275.5,314.5 Z"/></g>
<g><path style="opacity:0.016" fill="#fefffe" d="M 274.5,315.5 C 274.833,315.5 275.167,315.5 275.5,315.5C 275.315,316.17 274.981,316.17 274.5,315.5 Z"/></g>
<g><path style="opacity:0.008" fill="#fefffe" d="M 163.5,316.5 C 164.833,317.167 164.833,317.167 163.5,316.5 Z"/></g>
<g><path style="opacity:0.016" fill="#fefffe" d="M 273.5,316.5 C 273.833,316.5 274.167,316.5 274.5,316.5C 274.315,317.17 273.981,317.17 273.5,316.5 Z"/></g>
<g><path style="opacity:0.008" fill="#fefffe" d="M 272.5,317.5 C 272.833,317.5 273.167,317.5 273.5,317.5C 273.315,318.17 272.981,318.17 272.5,317.5 Z"/></g>
<g><path style="opacity:0.008" fill="#fefffe" d="M 271.5,319.5 C 272.833,320.167 272.833,320.167 271.5,319.5 Z"/></g>
<g><path style="opacity:0.008" fill="#fefffe" d="M 168.5,320.5 C 167.833,321.167 167.833,321.167 168.5,320.5 Z"/></g>
<g><path style="opacity:0.008" fill="#fefffe" d="M 270.5,320.5 C 270.833,320.5 271.167,320.5 271.5,320.5C 271.315,321.17 270.981,321.17 270.5,320.5 Z"/></g>
<g><path style="opacity:0.016" fill="#fefffe" d="M 269.5,321.5 C 269.833,321.5 270.167,321.5 270.5,321.5C 270.315,322.17 269.981,322.17 269.5,321.5 Z"/></g>
<g><path style="opacity:0.008" fill="#fefffe" d="M 168.5,322.5 C 169.833,323.167 169.833,323.167 168.5,322.5 Z"/></g>
<g><path style="opacity:0.016" fill="#fefffe" d="M 268.5,322.5 C 268.833,322.5 269.167,322.5 269.5,322.5C 269.315,323.17 268.981,323.17 268.5,322.5 Z"/></g>
<g><path style="opacity:0.016" fill="#fefffe" d="M 172.5,325.5 C 171.833,326.167 171.833,326.167 172.5,325.5 Z"/></g>
<g><path style="opacity:0.008" fill="#fefffe" d="M 266.5,325.5 C 267.833,326.167 267.833,326.167 266.5,325.5 Z"/></g>
<g><path style="opacity:0.011" fill="#fefffe" d="M 218.5,326.5 C 219.905,328.225 220.405,330.225 220,332.5C 218.872,330.655 218.372,328.655 218.5,326.5 Z"/></g>
<g><path style="opacity:0.016" fill="#fefffe" d="M 265.5,326.5 C 265.833,326.5 266.167,326.5 266.5,326.5C 266.315,327.17 265.981,327.17 265.5,326.5 Z"/></g>
<g><path style="opacity:0.008" fill="#fefffe" d="M 172.5,327.5 C 173.833,328.167 173.833,328.167 172.5,327.5 Z"/></g>
<g><path style="opacity:0.008" fill="#fefffe" d="M 264.5,327.5 C 264.833,327.5 265.167,327.5 265.5,327.5C 265.672,328.492 265.338,329.158 264.5,329.5C 264.5,328.833 264.5,328.167 264.5,327.5 Z"/></g>
<g><path style="opacity:0.008" fill="#fefffe" d="M 263.5,329.5 C 263.833,329.5 264.167,329.5 264.5,329.5C 264.167,332.167 263.833,332.167 263.5,329.5 Z"/></g>
<g><path style="opacity:0.008" fill="#fefffe" d="M 175.5,330.5 C 175.631,331.239 175.464,331.906 175,332.5C 174.308,331.563 174.475,330.897 175.5,330.5 Z"/></g>
<g><path style="opacity:0.008" fill="#fefffe" d="M 262.5,332.5 C 263.525,332.897 263.692,333.563 263,334.5C 262.536,333.906 262.369,333.239 262.5,332.5 Z"/></g>
<g><path style="opacity:0.01" fill="#fefffe" d="M 175.5,334.5 C 176.573,335.251 176.74,336.251 176,337.5C 175.517,336.552 175.351,335.552 175.5,334.5 Z"/></g>
<g><path style="opacity:0.008" fill="#fefffe" d="M 261.5,337.5 C 262.661,351.661 262.827,365.994 262,380.5C 261.5,366.171 261.333,351.837 261.5,337.5 Z"/></g>
<g><path style="opacity:0.008" fill="#fefffe" d="M 177.5,379.5 C 177.631,380.239 177.464,380.906 177,381.5C 176.308,380.563 176.475,379.897 177.5,379.5 Z"/></g>
<g><path style="opacity:0.008" fill="#fefffe" d="M 260.5,381.5 C 261.833,382.167 261.833,382.167 260.5,381.5 Z"/></g>
<g><path style="opacity:0.008" fill="#fefffe" d="M 178.5,382.5 C 177.833,383.167 177.833,383.167 178.5,382.5 Z"/></g>
<g><path style="opacity:0.008" fill="#fefffe" d="M 259.5,383.5 C 260.833,384.167 260.833,384.167 259.5,383.5 Z"/></g>
<g><path style="opacity:0.008" fill="#fefffe" d="M 179.5,384.5 C 178.833,385.167 178.833,385.167 179.5,384.5 Z"/></g>
<g><path style="opacity:0.008" fill="#fefffe" d="M 258.5,385.5 C 259.833,386.167 259.833,386.167 258.5,385.5 Z"/></g>
<g><path style="opacity:0.008" fill="#fefffe" d="M 257.5,386.5 C 257.833,386.5 258.167,386.5 258.5,386.5C 258.315,387.17 257.981,387.17 257.5,386.5 Z"/></g>
<g><path style="opacity:0.008" fill="#fefffe" d="M 181.5,388.5 C 180.833,387.167 180.833,387.167 181.5,388.5 Z"/></g>
<g><path style="opacity:0.008" fill="#fefffe" d="M 256.5,387.5 C 256.833,387.5 257.167,387.5 257.5,387.5C 257.315,388.17 256.981,388.17 256.5,387.5 Z"/></g>
<g><path style="opacity:0.008" fill="#fefffe" d="M 181.5,388.5 C 182.833,389.167 182.833,389.167 181.5,388.5 Z"/></g>
<g><path style="opacity:0.016" fill="#fefffe" d="M 255.5,388.5 C 255.833,388.5 256.167,388.5 256.5,388.5C 256.315,389.17 255.981,389.17 255.5,388.5 Z"/></g>
<g><path style="opacity:0.008" fill="#fefffe" d="M 254.5,389.5 C 254.833,389.5 255.167,389.5 255.5,389.5C 255.315,390.17 254.981,390.17 254.5,389.5 Z"/></g>
<g><path style="opacity:0.008" fill="#fefffe" d="M 185.5,390.5 C 184.833,391.167 184.833,391.167 185.5,390.5 Z"/></g>
<g><path style="opacity:0.008" fill="#fefffe" d="M 254.5,390.5 C 253.833,391.167 253.833,391.167 254.5,390.5 Z"/></g>
<g><path style="opacity:0.008" fill="#fefffe" d="M 187.5,391.5 C 186.833,392.167 186.833,392.167 187.5,391.5 Z"/></g>
<g><path style="opacity:0.008" fill="#fefffe" d="M 251.5,391.5 C 252.833,392.167 252.833,392.167 251.5,391.5 Z"/></g>
<g><path style="opacity:0.012" fill="#fefffe" d="M 188.5,393.5 C 188.897,392.475 189.563,392.308 190.5,393C 189.906,393.464 189.239,393.631 188.5,393.5 Z"/></g>
<g><path style="opacity:0.01" fill="#fefffe" d="M 247.5,393.5 C 248.251,392.427 249.251,392.26 250.5,393C 249.552,393.483 248.552,393.649 247.5,393.5 Z"/></g>
</svg>
