<?xml version="1.0" encoding="UTF-8"?>
<!DOCTYPE svg PUBLIC "-//W3C//DTD SVG 1.1//EN" "http://www.w3.org/Graphics/SVG/1.1/DTD/svg11.dtd">
<svg xmlns="http://www.w3.org/2000/svg" version="1.1" width="1024px" height="1024px" style="shape-rendering:geometricPrecision; text-rendering:geometricPrecision; image-rendering:optimizeQuality; fill-rule:evenodd; clip-rule:evenodd" xmlns:xlink="http://www.w3.org/1999/xlink">
<g><path style="opacity:1" fill="#fefefe" d="M -0.5,-0.5 C 340.833,-0.5 682.167,-0.5 1023.5,-0.5C 1023.5,340.833 1023.5,682.167 1023.5,1023.5C 682.167,1023.5 340.833,1023.5 -0.5,1023.5C -0.5,682.167 -0.5,340.833 -0.5,-0.5 Z"/></g>
<g><path style="opacity:1" fill="#74beb2" d="M 472.5,46.5 C 611.734,38.513 732.401,81.3463 834.5,175C 942.935,283.276 989.769,414.109 975,567.5C 954.186,714.843 881.686,828.676 757.5,909C 649.641,973.733 533.974,993.399 410.5,968C 268.425,933.221 163.258,851.388 95,722.5C 36.9606,602.215 29.6273,478.882 73,352.5C 115.556,240.614 189.389,156.114 294.5,99C 350.583,70.023 409.917,52.523 472.5,46.5 Z"/></g>
<g><path style="opacity:1" fill="#fcfdfe" d="M 482.5,126.5 C 578.998,120.554 663.665,148.888 736.5,211.5C 743.167,205.167 749.833,198.833 756.5,192.5C 767.456,232.989 777.789,273.656 787.5,314.5C 746.187,305.422 705.187,295.255 664.5,284C 672.667,275.833 680.833,267.667 689,259.5C 689.667,258.833 689.667,258.167 689,257.5C 628.643,207.275 559.143,185.775 480.5,193C 466.608,194.512 452.942,197.178 439.5,201C 430.838,201.655 422.172,202.155 413.5,202.5C 413.333,181.831 413.5,161.164 414,140.5C 436.473,133.67 459.307,129.003 482.5,126.5 Z"/></g>
<g><path style="opacity:1" fill="#74beb2" d="M 481.5,148.5 C 580.897,142.154 666.064,173.487 737,242.5C 739.667,239.833 742.333,237.167 745,234.5C 749.012,250.882 753.179,267.215 757.5,283.5C 756.833,283.833 756.167,284.167 755.5,284.5C 739.332,281.125 723.332,277.125 707.5,272.5C 711.985,267.515 716.651,262.681 721.5,258C 654.931,192.803 574.931,163.803 481.5,171C 466.047,172.657 450.88,175.49 436,179.5C 435.5,171.841 435.334,164.174 435.5,156.5C 450.936,153.66 466.269,150.993 481.5,148.5 Z"/></g>
<g><path style="opacity:1" fill="#fcfdfe" d="M 359.5,187.5 C 360.5,187.5 361.5,187.5 362.5,187.5C 352.812,228.587 342.645,269.587 332,310.5C 323.833,302.333 315.667,294.167 307.5,286C 306.833,285.333 306.167,285.333 305.5,286C 255.116,345.164 233.616,413.664 241,491.5C 242.765,506.659 245.432,521.659 249,536.5C 250.053,544.802 250.553,553.135 250.5,561.5C 229.434,562.148 208.601,561.482 188,559.5C 158.672,453.465 175.338,355.465 238,265.5C 244.977,256.356 252.143,247.356 259.5,238.5C 253.167,231.833 246.833,225.167 240.5,218.5C 280.223,207.987 319.89,197.654 359.5,187.5 Z"/></g>
<g><path style="opacity:1" fill="#74beb2" d="M 329.5,217.5 C 330.5,217.5 331.5,217.5 332.5,217.5C 328.961,234.321 324.795,250.988 320,267.5C 315.333,262.833 310.667,258.167 306,253.5C 237.761,322.543 209.094,405.543 220,502.5C 222.183,514.913 224.683,527.247 227.5,539.5C 219.833,539.5 212.167,539.5 204.5,539.5C 179.945,423.518 208.612,323.018 290.5,238C 287.833,235.333 285.167,232.667 282.5,230C 298.327,225.962 313.994,221.795 329.5,217.5 Z"/></g>
<g><path style="opacity:1" fill="#a5ccef" d="M 533.5,322.5 C 453.833,322.5 374.167,322.5 294.5,322.5C 294.832,380.669 294.499,438.669 293.5,496.5C 293.5,496.167 293.5,495.833 293.5,495.5C 293.5,437.5 293.5,379.5 293.5,321.5C 373.668,321.167 453.668,321.501 533.5,322.5 Z"/></g>
<g><path style="opacity:1" fill="#fefefe" d="M 533.5,322.5 C 533.5,329.5 533.5,336.5 533.5,343.5C 547.504,343.333 561.504,343.5 575.5,344C 612.302,351.469 634.469,373.636 642,410.5C 652.661,399.583 665.494,392.416 680.5,389C 704.128,387.562 727.795,387.062 751.5,387.5C 752.837,431.716 732.503,460.216 690.5,473C 674.536,474.366 658.536,474.866 642.5,474.5C 642.333,489.17 642.5,503.837 643,518.5C 657.004,504.75 673.838,497.416 693.5,496.5C 712.5,496.5 731.5,496.5 750.5,496.5C 750.5,502.833 750.5,509.167 750.5,515.5C 744.701,550.467 724.701,572.633 690.5,582C 674.536,583.366 658.536,583.866 642.5,583.5C 642.5,626.833 642.5,670.167 642.5,713.5C 710.998,714.499 779.665,714.833 848.5,714.5C 848.5,721.5 848.5,728.5 848.5,735.5C 623.833,735.5 399.167,735.5 174.5,735.5C 174.5,728.5 174.5,721.5 174.5,714.5C 207.167,714.5 239.833,714.5 272.5,714.5C 272.5,641.833 272.5,569.167 272.5,496.5C 279.5,496.5 286.5,496.5 293.5,496.5C 294.499,438.669 294.832,380.669 294.5,322.5C 374.167,322.5 453.833,322.5 533.5,322.5 Z"/></g>
<g><path style="opacity:1" fill="#fcfdfe" d="M 772.5,332.5 C 793.409,332.173 814.242,332.507 835,333.5C 860.392,424.25 851.058,511.25 807,594.5C 794.629,615.91 780.295,635.91 764,654.5C 763.333,655.5 763.333,656.5 764,657.5C 770.167,663.667 776.333,669.833 782.5,676C 741.974,686.798 701.308,696.965 660.5,706.5C 669.736,665.558 679.902,624.891 691,584.5C 699.167,592.667 707.333,600.833 715.5,609C 716.167,609.667 716.833,609.667 717.5,609C 777.978,535.502 796.811,452.335 774,359.5C 773.441,350.499 772.941,341.499 772.5,332.5 Z"/></g>
<g><path style="opacity:1" fill="#74beb2" d="M 511.5,713.5 C 497.167,713.5 482.833,713.5 468.5,713.5C 468.5,640.833 468.5,568.167 468.5,495.5C 417.5,495.5 366.5,495.5 315.5,495.5C 315.5,444.833 315.5,394.167 315.5,343.5C 380.833,343.5 446.167,343.5 511.5,343.5C 511.5,466.833 511.5,590.167 511.5,713.5 Z"/></g>
<g><path style="opacity:1" fill="#74beb2" d="M 818.5,356.5 C 811.068,355.189 803.735,355.189 796.5,356.5C 795.957,356.44 795.624,356.107 795.5,355.5C 799.333,355.167 803.167,354.833 807,354.5C 811.229,354.51 815.062,355.177 818.5,356.5 Z"/></g>
<g><path style="opacity:1" fill="#74beb2" d="M 818.5,356.5 C 839.851,456.598 819.684,547.265 758,628.5C 750.566,637.023 742.9,645.356 735,653.5C 734.018,654.759 733.685,656.092 734,657.5C 736.167,659.667 738.333,661.833 740.5,664C 724.064,669.109 707.397,673.276 690.5,676.5C 693.736,659.558 697.902,642.891 703,626.5C 707.681,631.349 712.515,636.015 717.5,640.5C 783.06,573.343 811.893,492.676 804,398.5C 802.25,384.329 799.75,370.329 796.5,356.5C 803.735,355.189 811.068,355.189 818.5,356.5 Z"/></g>
<g><path style="opacity:1" fill="#74beb2" d="M 571.5,366.5 C 559.12,365.854 547.12,366.521 535.5,368.5C 534.596,367.791 534.263,366.791 534.5,365.5C 547.011,365.171 559.345,365.505 571.5,366.5 Z"/></g>
<g><path style="opacity:1" fill="#fefffe" d="M 337.5,366.5 C 344.5,366.5 351.5,366.5 358.5,366.5C 358.5,373.5 358.5,380.5 358.5,387.5C 358.5,380.5 358.5,373.5 358.5,366.5C 351.5,366.5 344.5,366.5 337.5,366.5 Z"/></g>
<g><path style="opacity:1" fill="#74beb2" d="M 337.5,366.5 C 344.648,365.508 351.981,365.175 359.5,365.5C 359.825,373.019 359.492,380.352 358.5,387.5C 358.5,380.5 358.5,373.5 358.5,366.5C 351.5,366.5 344.5,366.5 337.5,366.5 Z"/></g>
<g><path style="opacity:1" fill="#74beb2" d="M 402.5,366.5 C 395.5,366.5 388.5,366.5 381.5,366.5C 381.5,373.5 381.5,380.5 381.5,387.5C 380.508,380.352 380.175,373.019 380.5,365.5C 388.019,365.175 395.352,365.508 402.5,366.5 Z"/></g>
<g><path style="opacity:1" fill="#fefffe" d="M 402.5,366.5 C 402.5,373.5 402.5,380.5 402.5,387.5C 395.5,387.5 388.5,387.5 381.5,387.5C 381.5,380.5 381.5,373.5 381.5,366.5C 388.5,366.5 395.5,366.5 402.5,366.5 Z"/></g>
<g><path style="opacity:1" fill="#fefffe" d="M 424.5,366.5 C 431.5,366.5 438.5,366.5 445.5,366.5C 445.5,373.5 445.5,380.5 445.5,387.5C 445.5,380.5 445.5,373.5 445.5,366.5C 438.5,366.5 431.5,366.5 424.5,366.5 Z"/></g>
<g><path style="opacity:1" fill="#74beb2" d="M 424.5,366.5 C 431.648,365.508 438.981,365.175 446.5,365.5C 446.825,373.019 446.492,380.352 445.5,387.5C 445.5,380.5 445.5,373.5 445.5,366.5C 438.5,366.5 431.5,366.5 424.5,366.5 Z"/></g>
<g><path style="opacity:1" fill="#74beb2" d="M 489.5,366.5 C 482.5,366.5 475.5,366.5 468.5,366.5C 468.5,373.5 468.5,380.5 468.5,387.5C 467.508,380.352 467.175,373.019 467.5,365.5C 475.019,365.175 482.352,365.508 489.5,366.5 Z"/></g>
<g><path style="opacity:1" fill="#fefffe" d="M 489.5,366.5 C 489.5,373.5 489.5,380.5 489.5,387.5C 482.5,387.5 475.5,387.5 468.5,387.5C 468.5,380.5 468.5,373.5 468.5,366.5C 475.5,366.5 482.5,366.5 489.5,366.5 Z"/></g>
<g><path style="opacity:1" fill="#74beb2" d="M 571.5,366.5 C 596.183,369.851 611.85,383.518 618.5,407.5C 605.677,408.495 592.677,408.829 579.5,408.5C 561.483,405.081 547.983,395.414 539,379.5C 537.326,375.979 536.16,372.313 535.5,368.5C 547.12,366.521 559.12,365.854 571.5,366.5 Z"/></g>
<g><path style="opacity:1" fill="#74beb2" d="M 618.5,407.5 C 619.043,407.56 619.376,407.893 619.5,408.5C 606.006,409.825 592.673,409.825 579.5,408.5C 592.677,408.829 605.677,408.495 618.5,407.5 Z"/></g>
<g><path style="opacity:1" fill="#c0dcf4" d="M 694.5,409.5 C 705.654,408.505 716.988,408.172 728.5,408.5C 728.737,409.791 728.404,410.791 727.5,411.5C 716.884,409.523 705.884,408.856 694.5,409.5 Z"/></g>
<g><path style="opacity:1" fill="#fefffe" d="M 358.5,409.5 C 358.5,416.5 358.5,423.5 358.5,430.5C 351.5,430.5 344.5,430.5 337.5,430.5C 337.5,423.5 337.5,416.5 337.5,409.5C 344.5,409.5 351.5,409.5 358.5,409.5 Z"/></g>
<g><path style="opacity:1" fill="#fefffe" d="M 381.5,409.5 C 388.5,409.5 395.5,409.5 402.5,409.5C 402.5,416.5 402.5,423.5 402.5,430.5C 402.5,423.5 402.5,416.5 402.5,409.5C 395.5,409.5 388.5,409.5 381.5,409.5 Z"/></g>
<g><path style="opacity:1" fill="#fefffe" d="M 445.5,409.5 C 445.5,416.5 445.5,423.5 445.5,430.5C 438.5,430.5 431.5,430.5 424.5,430.5C 424.5,423.5 424.5,416.5 424.5,409.5C 431.5,409.5 438.5,409.5 445.5,409.5 Z"/></g>
<g><path style="opacity:1" fill="#fefffe" d="M 468.5,409.5 C 475.5,409.5 482.5,409.5 489.5,409.5C 489.5,416.5 489.5,423.5 489.5,430.5C 489.5,423.5 489.5,416.5 489.5,409.5C 482.5,409.5 475.5,409.5 468.5,409.5 Z"/></g>
<g><path style="opacity:1" fill="#74beb2" d="M 533.5,408.5 C 544.855,419.846 558.521,427.013 574.5,430C 589.83,430.5 605.163,430.667 620.5,430.5C 620.667,445.504 620.5,460.504 620,475.5C 607.242,463.372 592.076,455.872 574.5,453C 560.837,452.5 547.171,452.333 533.5,452.5C 533.5,437.833 533.5,423.167 533.5,408.5 Z"/></g>
<g><path style="opacity:1" fill="#74beb2" d="M 694.5,409.5 C 705.884,408.856 716.884,409.523 727.5,411.5C 721.186,432.848 707.186,446.348 685.5,452C 671.504,452.5 657.504,452.667 643.5,452.5C 650.41,426.261 667.41,411.927 694.5,409.5 Z"/></g>
<g><path style="opacity:1" fill="#74beb2" d="M 358.5,409.5 C 359.492,416.648 359.825,423.981 359.5,431.5C 351.981,431.825 344.648,431.492 337.5,430.5C 344.5,430.5 351.5,430.5 358.5,430.5C 358.5,423.5 358.5,416.5 358.5,409.5 Z"/></g>
<g><path style="opacity:1" fill="#74beb2" d="M 381.5,409.5 C 381.5,416.5 381.5,423.5 381.5,430.5C 388.5,430.5 395.5,430.5 402.5,430.5C 395.352,431.492 388.019,431.825 380.5,431.5C 380.175,423.981 380.508,416.648 381.5,409.5 Z"/></g>
<g><path style="opacity:1" fill="#74beb2" d="M 445.5,409.5 C 446.492,416.648 446.825,423.981 446.5,431.5C 438.981,431.825 431.648,431.492 424.5,430.5C 431.5,430.5 438.5,430.5 445.5,430.5C 445.5,423.5 445.5,416.5 445.5,409.5 Z"/></g>
<g><path style="opacity:1" fill="#74beb2" d="M 468.5,409.5 C 468.5,416.5 468.5,423.5 468.5,430.5C 475.5,430.5 482.5,430.5 489.5,430.5C 482.352,431.492 475.019,431.825 467.5,431.5C 467.175,423.981 467.508,416.648 468.5,409.5 Z"/></g>
<g><path style="opacity:1" fill="#fefffe" d="M 337.5,453.5 C 344.5,453.5 351.5,453.5 358.5,453.5C 358.5,460.5 358.5,467.5 358.5,474.5C 358.5,467.5 358.5,460.5 358.5,453.5C 351.5,453.5 344.5,453.5 337.5,453.5 Z"/></g>
<g><path style="opacity:1" fill="#74beb2" d="M 337.5,453.5 C 344.648,452.508 351.981,452.175 359.5,452.5C 359.825,460.019 359.492,467.352 358.5,474.5C 358.5,467.5 358.5,460.5 358.5,453.5C 351.5,453.5 344.5,453.5 337.5,453.5 Z"/></g>
<g><path style="opacity:1" fill="#74beb2" d="M 402.5,453.5 C 395.5,453.5 388.5,453.5 381.5,453.5C 381.5,460.5 381.5,467.5 381.5,474.5C 380.508,467.352 380.175,460.019 380.5,452.5C 388.019,452.175 395.352,452.508 402.5,453.5 Z"/></g>
<g><path style="opacity:1" fill="#fefffe" d="M 402.5,453.5 C 402.5,460.5 402.5,467.5 402.5,474.5C 395.5,474.5 388.5,474.5 381.5,474.5C 381.5,467.5 381.5,460.5 381.5,453.5C 388.5,453.5 395.5,453.5 402.5,453.5 Z"/></g>
<g><path style="opacity:1" fill="#fefffe" d="M 424.5,453.5 C 431.5,453.5 438.5,453.5 445.5,453.5C 445.5,460.5 445.5,467.5 445.5,474.5C 445.5,467.5 445.5,460.5 445.5,453.5C 438.5,453.5 431.5,453.5 424.5,453.5 Z"/></g>
<g><path style="opacity:1" fill="#74beb2" d="M 424.5,453.5 C 431.648,452.508 438.981,452.175 446.5,452.5C 446.825,460.019 446.492,467.352 445.5,474.5C 445.5,467.5 445.5,460.5 445.5,453.5C 438.5,453.5 431.5,453.5 424.5,453.5 Z"/></g>
<g><path style="opacity:1" fill="#74beb2" d="M 489.5,453.5 C 482.5,453.5 475.5,453.5 468.5,453.5C 468.5,460.5 468.5,467.5 468.5,474.5C 467.508,467.352 467.175,460.019 467.5,452.5C 475.019,452.175 482.352,452.508 489.5,453.5 Z"/></g>
<g><path style="opacity:1" fill="#fefffe" d="M 489.5,453.5 C 489.5,460.5 489.5,467.5 489.5,474.5C 482.5,474.5 475.5,474.5 468.5,474.5C 468.5,467.5 468.5,460.5 468.5,453.5C 475.5,453.5 482.5,453.5 489.5,453.5 Z"/></g>
<g><path style="opacity:1" fill="#74beb2" d="M 618.5,516.5 C 606.345,517.495 594.011,517.829 581.5,517.5C 556.633,513.302 540.966,498.969 534.5,474.5C 546.838,474.333 559.171,474.5 571.5,475C 596.115,478.786 611.782,492.619 618.5,516.5 Z"/></g>
<g><path style="opacity:1" fill="#74beb2" d="M 693.5,496.5 C 712.659,495.503 731.993,495.17 751.5,495.5C 751.824,502.354 751.491,509.021 750.5,515.5C 750.5,509.167 750.5,502.833 750.5,496.5C 731.5,496.5 712.5,496.5 693.5,496.5 Z"/></g>
<g><path style="opacity:1" fill="#74beb2" d="M 315.5,495.5 C 366.5,495.5 417.5,495.5 468.5,495.5C 468.5,568.167 468.5,640.833 468.5,713.5C 482.833,713.5 497.167,713.5 511.5,713.5C 497.01,714.496 482.343,714.829 467.5,714.5C 467.5,641.833 467.5,569.167 467.5,496.5C 416.664,496.832 365.997,496.499 315.5,495.5 Z"/></g>
<g><path style="opacity:1" fill="#74beb2" d="M 534.5,517.5 C 533.501,582.665 533.168,647.998 533.5,713.5C 532.168,647.999 532.168,582.332 533.5,516.5C 534.107,516.624 534.44,516.957 534.5,517.5 Z"/></g>
<g><path style="opacity:1" fill="#74beb2" d="M 618.5,516.5 C 619.043,516.56 619.376,516.893 619.5,517.5C 606.673,518.825 594.006,518.825 581.5,517.5C 594.011,517.829 606.345,517.495 618.5,516.5 Z"/></g>
<g><path style="opacity:1" fill="#74beb2" d="M 690.5,518.5 C 703.006,517.175 715.673,517.175 728.5,518.5C 728.376,519.107 728.043,519.44 727.5,519.5C 715.345,518.505 703.011,518.171 690.5,518.5 Z"/></g>
<g><path style="opacity:1" fill="#74beb2" d="M 293.5,517.5 C 344.5,517.5 395.5,517.5 446.5,517.5C 446.5,583.167 446.5,648.833 446.5,714.5C 395.5,714.5 344.5,714.5 293.5,714.5C 293.5,648.833 293.5,583.167 293.5,517.5 Z"/></g>
<g><path style="opacity:1" fill="#74beb2" d="M 294.5,518.5 C 344.833,518.5 395.167,518.5 445.5,518.5C 445.5,583.5 445.5,648.5 445.5,713.5C 395.167,713.5 344.833,713.5 294.5,713.5C 294.5,648.5 294.5,583.5 294.5,518.5 Z"/></g>
<g><path style="opacity:1" fill="#74beb2" d="M 534.5,517.5 C 548.205,531.348 564.872,538.681 584.5,539.5C 595.988,540.495 607.655,540.828 619.5,540.5C 619.5,598.167 619.5,655.833 619.5,713.5C 590.833,713.5 562.167,713.5 533.5,713.5C 533.168,647.998 533.501,582.665 534.5,517.5 Z"/></g>
<g><path style="opacity:1" fill="#74beb2" d="M 690.5,518.5 C 703.011,518.171 715.345,518.505 727.5,519.5C 721.232,541.6 706.899,555.433 684.5,561C 670.837,561.5 657.171,561.667 643.5,561.5C 647.653,543.169 658.32,530.002 675.5,522C 680.318,520.045 685.318,518.879 690.5,518.5 Z"/></g>
<g><path style="opacity:1" fill="#fefefe" d="M 315.5,540.5 C 322.5,540.5 329.5,540.5 336.5,540.5C 336.5,547.5 336.5,554.5 336.5,561.5C 336.5,554.5 336.5,547.5 336.5,540.5C 329.5,540.5 322.5,540.5 315.5,540.5 Z"/></g>
<g><path style="opacity:1" fill="#74beb2" d="M 315.5,540.5 C 322.648,539.508 329.981,539.175 337.5,539.5C 337.825,547.019 337.492,554.352 336.5,561.5C 336.5,554.5 336.5,547.5 336.5,540.5C 329.5,540.5 322.5,540.5 315.5,540.5 Z"/></g>
<g><path style="opacity:1" fill="#fcfdfe" d="M 359.5,539.5 C 366.5,539.5 373.5,539.5 380.5,539.5C 380.5,546.833 380.5,554.167 380.5,561.5C 373.5,561.5 366.5,561.5 359.5,561.5C 359.5,554.167 359.5,546.833 359.5,539.5 Z"/></g>
<g><path style="opacity:1" fill="#74beb2" d="M 424.5,540.5 C 417.5,540.5 410.5,540.5 403.5,540.5C 403.5,547.5 403.5,554.5 403.5,561.5C 402.508,554.352 402.175,547.019 402.5,539.5C 410.019,539.175 417.352,539.508 424.5,540.5 Z"/></g>
<g><path style="opacity:1" fill="#fefefe" d="M 424.5,540.5 C 424.5,547.5 424.5,554.5 424.5,561.5C 417.5,561.5 410.5,561.5 403.5,561.5C 403.5,554.5 403.5,547.5 403.5,540.5C 410.5,540.5 417.5,540.5 424.5,540.5 Z"/></g>
<g><path style="opacity:1" fill="#74beb2" d="M 584.5,539.5 C 596.5,539.5 608.5,539.5 620.5,539.5C 620.5,597.833 620.5,656.167 620.5,714.5C 591.329,714.831 562.329,714.498 533.5,713.5C 562.167,713.5 590.833,713.5 619.5,713.5C 619.5,655.833 619.5,598.167 619.5,540.5C 607.655,540.828 595.988,540.495 584.5,539.5 Z"/></g>
<g><path style="opacity:1" fill="#74beb2" d="M 293.5,495.5 C 293.5,495.833 293.5,496.167 293.5,496.5C 286.5,496.5 279.5,496.5 272.5,496.5C 272.5,569.167 272.5,641.833 272.5,714.5C 239.833,714.5 207.167,714.5 174.5,714.5C 206.662,713.502 238.996,713.168 271.5,713.5C 271.5,640.833 271.5,568.167 271.5,495.5C 278.833,495.5 286.167,495.5 293.5,495.5 Z"/></g>
<g><path style="opacity:1" fill="#fefefe" d="M 336.5,583.5 C 336.5,590.5 336.5,597.5 336.5,604.5C 329.5,604.5 322.5,604.5 315.5,604.5C 315.5,597.5 315.5,590.5 315.5,583.5C 322.5,583.5 329.5,583.5 336.5,583.5 Z"/></g>
<g><path style="opacity:1" fill="#fefefe" d="M 403.5,583.5 C 410.5,583.5 417.5,583.5 424.5,583.5C 424.5,590.5 424.5,597.5 424.5,604.5C 424.5,597.5 424.5,590.5 424.5,583.5C 417.5,583.5 410.5,583.5 403.5,583.5 Z"/></g>
<g><path style="opacity:1" fill="#74beb2" d="M 336.5,583.5 C 337.492,590.648 337.825,597.981 337.5,605.5C 329.981,605.825 322.648,605.492 315.5,604.5C 322.5,604.5 329.5,604.5 336.5,604.5C 336.5,597.5 336.5,590.5 336.5,583.5 Z"/></g>
<g><path style="opacity:1" fill="#74beb2" d="M 359.5,583.5 C 359.5,590.5 359.5,597.5 359.5,604.5C 366.5,604.5 373.5,604.5 380.5,604.5C 380.5,597.5 380.5,590.5 380.5,583.5C 381.492,590.648 381.825,597.981 381.5,605.5C 373.833,605.5 366.167,605.5 358.5,605.5C 358.175,597.981 358.508,590.648 359.5,583.5 Z"/></g>
<g><path style="opacity:1" fill="#fefffe" d="M 359.5,583.5 C 366.5,583.5 373.5,583.5 380.5,583.5C 380.5,590.5 380.5,597.5 380.5,604.5C 373.5,604.5 366.5,604.5 359.5,604.5C 359.5,597.5 359.5,590.5 359.5,583.5 Z"/></g>
<g><path style="opacity:1" fill="#74beb2" d="M 403.5,583.5 C 403.5,590.5 403.5,597.5 403.5,604.5C 410.5,604.5 417.5,604.5 424.5,604.5C 417.352,605.492 410.019,605.825 402.5,605.5C 402.175,597.981 402.508,590.648 403.5,583.5 Z"/></g>
<g><path style="opacity:1" fill="#f7fafd" d="M 315.5,626.5 C 322.833,626.5 330.167,626.5 337.5,626.5C 337.5,633.833 337.5,641.167 337.5,648.5C 330.167,648.5 322.833,648.5 315.5,648.5C 315.5,641.167 315.5,633.833 315.5,626.5 Z"/></g>
<g><path style="opacity:1" fill="#74beb2" d="M 380.5,648.5 C 380.5,641.5 380.5,634.5 380.5,627.5C 373.5,627.5 366.5,627.5 359.5,627.5C 359.5,634.5 359.5,641.5 359.5,648.5C 358.508,641.352 358.175,634.019 358.5,626.5C 366.167,626.5 373.833,626.5 381.5,626.5C 381.825,634.019 381.492,641.352 380.5,648.5 Z"/></g>
<g><path style="opacity:1" fill="#fefffe" d="M 380.5,648.5 C 373.5,648.5 366.5,648.5 359.5,648.5C 359.5,641.5 359.5,634.5 359.5,627.5C 366.5,627.5 373.5,627.5 380.5,627.5C 380.5,634.5 380.5,641.5 380.5,648.5 Z"/></g>
<g><path style="opacity:1" fill="#f7fafd" d="M 402.5,626.5 C 409.833,626.5 417.167,626.5 424.5,626.5C 424.5,633.833 424.5,641.167 424.5,648.5C 417.167,648.5 409.833,648.5 402.5,648.5C 402.5,641.167 402.5,633.833 402.5,626.5 Z"/></g>
<g><path style="opacity:1" fill="#fefefe" d="M 336.5,670.5 C 336.5,677.5 336.5,684.5 336.5,691.5C 329.5,691.5 322.5,691.5 315.5,691.5C 315.5,684.5 315.5,677.5 315.5,670.5C 322.5,670.5 329.5,670.5 336.5,670.5 Z"/></g>
<g><path style="opacity:1" fill="#fefefe" d="M 403.5,670.5 C 410.5,670.5 417.5,670.5 424.5,670.5C 424.5,677.5 424.5,684.5 424.5,691.5C 424.5,684.5 424.5,677.5 424.5,670.5C 417.5,670.5 410.5,670.5 403.5,670.5 Z"/></g>
<g><path style="opacity:1" fill="#74beb2" d="M 336.5,670.5 C 337.492,677.648 337.825,684.981 337.5,692.5C 329.981,692.825 322.648,692.492 315.5,691.5C 322.5,691.5 329.5,691.5 336.5,691.5C 336.5,684.5 336.5,677.5 336.5,670.5 Z"/></g>
<g><path style="opacity:1" fill="#74beb2" d="M 359.5,670.5 C 359.5,677.5 359.5,684.5 359.5,691.5C 366.5,691.5 373.5,691.5 380.5,691.5C 380.5,684.5 380.5,677.5 380.5,670.5C 381.492,677.648 381.825,684.981 381.5,692.5C 373.833,692.5 366.167,692.5 358.5,692.5C 358.175,684.981 358.508,677.648 359.5,670.5 Z"/></g>
<g><path style="opacity:1" fill="#fefffe" d="M 359.5,670.5 C 366.5,670.5 373.5,670.5 380.5,670.5C 380.5,677.5 380.5,684.5 380.5,691.5C 373.5,691.5 366.5,691.5 359.5,691.5C 359.5,684.5 359.5,677.5 359.5,670.5 Z"/></g>
<g><path style="opacity:1" fill="#74beb2" d="M 403.5,670.5 C 403.5,677.5 403.5,684.5 403.5,691.5C 410.5,691.5 417.5,691.5 424.5,691.5C 417.352,692.492 410.019,692.825 402.5,692.5C 402.175,684.981 402.508,677.648 403.5,670.5 Z"/></g>
<g><path style="opacity:1" fill="#74beb2" d="M 642.5,713.5 C 711.5,713.5 780.5,713.5 849.5,713.5C 849.825,721.019 849.492,728.352 848.5,735.5C 848.5,728.5 848.5,721.5 848.5,714.5C 779.665,714.833 710.998,714.499 642.5,713.5 Z"/></g>
<g><path style="opacity:1" fill="#fefffe" d="M 174.5,779.5 C 399.167,779.5 623.833,779.5 848.5,779.5C 848.5,786.5 848.5,793.5 848.5,800.5C 623.833,800.5 399.167,800.5 174.5,800.5C 174.5,793.5 174.5,786.5 174.5,779.5 Z"/></g>
</svg>
