<?xml version="1.0" encoding="UTF-8"?>
<!DOCTYPE svg PUBLIC "-//W3C//DTD SVG 1.1//EN" "http://www.w3.org/Graphics/SVG/1.1/DTD/svg11.dtd">
<svg xmlns="http://www.w3.org/2000/svg" version="1.1" width="1024px" height="1024px" style="shape-rendering:geometricPrecision; text-rendering:geometricPrecision; image-rendering:optimizeQuality; fill-rule:evenodd; clip-rule:evenodd" xmlns:xlink="http://www.w3.org/1999/xlink">
<g><path style="opacity:1" fill="#fefefe" d="M -0.5,-0.5 C 340.833,-0.5 682.167,-0.5 1023.5,-0.5C 1023.5,340.833 1023.5,682.167 1023.5,1023.5C 682.167,1023.5 340.833,1023.5 -0.5,1023.5C -0.5,682.167 -0.5,340.833 -0.5,-0.5 Z"/></g>
<g><path style="opacity:1" fill="#74beb2" d="M 472.5,46.5 C 611.734,38.513 732.401,81.3463 834.5,175C 942.935,283.276 989.769,414.109 975,567.5C 954.186,714.843 881.686,828.676 757.5,909C 649.641,973.733 533.974,993.399 410.5,968C 268.425,933.221 163.258,851.388 95,722.5C 36.9606,602.215 29.6273,478.882 73,352.5C 115.556,240.614 189.389,156.114 294.5,99C 350.583,70.023 409.917,52.523 472.5,46.5 Z"/></g>
<g><path style="opacity:1" fill="#fcfdfe" d="M 580.5,140.5 C 588.798,139.829 596.798,140.995 604.5,144C 617.004,151.751 629.337,159.751 641.5,168C 653.818,169.156 666.151,170.156 678.5,171C 693.351,175.185 703.851,184.351 710,198.5C 712.736,208.048 715.069,217.714 717,227.5C 718,229.833 719,232.167 720,234.5C 728,243.833 736.667,252.5 746,260.5C 756.207,274.671 758.207,290.005 752,306.5C 746.893,315.944 742.226,325.611 738,335.5C 739.216,351.136 739.883,366.803 740,382.5C 736.18,398.301 726.68,409.135 711.5,415C 722.663,440.483 733.829,465.983 745,491.5C 748.864,502.314 745.197,508.314 734,509.5C 718.695,507.206 703.528,504.206 688.5,500.5C 686.171,501.998 684.337,503.998 683,506.5C 676.585,517.666 669.918,528.666 663,539.5C 658.223,545.944 652.39,547.111 645.5,543C 633.902,518.884 623.068,494.384 613,469.5C 601.992,464.201 590.492,462.368 578.5,464C 576.349,464.265 574.682,465.265 573.5,467C 559.47,497.56 545.303,528.06 531,558.5C 524.599,564.133 518.599,563.799 513,557.5C 504.967,544.297 497.134,530.963 489.5,517.5C 488.5,517.167 487.5,516.833 486.5,516.5C 471.297,518.895 456.13,521.562 441,524.5C 433.614,523.947 429.781,519.947 429.5,512.5C 430.039,509.752 430.872,507.085 432,504.5C 445.227,475.713 458.727,447.046 472.5,418.5C 460.594,414.739 450.761,408.073 443,398.5C 438.269,390.642 435.769,382.142 435.5,373C 437.119,360.2 437.952,347.366 438,334.5C 434.194,325.554 429.861,316.888 425,308.5C 417.383,290.889 419.383,274.556 431,259.5C 439.303,252.198 447.303,244.531 455,236.5C 459.909,224.2 463.575,211.533 466,198.5C 472.206,184.287 482.706,175.12 497.5,171C 509.805,169.81 522.139,168.81 534.5,168C 545.716,161.448 556.383,154.114 566.5,146C 571.159,143.842 575.825,142.009 580.5,140.5 Z"/></g>
<g><path style="opacity:1" fill="#74beb2" d="M 581.5,163.5 C 587.369,163.048 593.035,163.881 598.5,166C 606.167,171.667 613.833,177.333 621.5,183C 626.125,186.099 631.125,188.432 636.5,190C 648.11,191.606 659.777,192.606 671.5,193C 679.639,194.468 685.472,198.968 689,206.5C 691.27,219.918 694.937,232.918 700,245.5C 708.631,256.465 718.297,266.465 729,275.5C 733.44,281.693 734.44,288.359 732,295.5C 725.839,306.819 720.506,318.486 716,330.5C 714.991,344.444 715.824,358.278 718.5,372C 718.296,380.079 714.963,386.412 708.5,391C 695.244,396.294 682.578,402.628 670.5,410C 662.141,419.884 654.641,430.384 648,441.5C 641.693,448.602 633.86,451.102 624.5,449C 612.571,444.315 600.238,441.481 587.5,440.5C 575.12,441.61 563.12,444.444 551.5,449C 542.019,451.502 534.185,449.002 528,441.5C 521.664,430.165 514.164,419.665 505.5,410C 493.342,402.72 480.675,396.387 467.5,391C 463.338,388.188 460.505,384.355 459,379.5C 460.05,362.866 460.383,346.199 460,329.5C 455.213,317.925 449.88,306.592 444,295.5C 442.873,289.245 443.54,283.245 446,277.5C 455.642,268.19 464.975,258.524 474,248.5C 480.179,235.132 484.512,221.132 487,206.5C 490.314,199.851 495.481,195.351 502.5,193C 512.85,192.578 523.183,191.911 533.5,191C 538.279,190.074 542.946,188.741 547.5,187C 559.288,179.694 570.621,171.86 581.5,163.5 Z"/></g>
<g><path style="opacity:1" fill="#fcfdfe" d="M 570.5,203.5 C 621.804,198.894 659.304,219.228 683,264.5C 699.005,307.164 692.005,345.498 662,379.5C 628.423,410.25 590.257,417.75 547.5,402C 503.088,380.024 482.255,344.191 485,294.5C 491.365,254.799 512.865,226.632 549.5,210C 556.621,207.757 563.621,205.59 570.5,203.5 Z"/></g>
<g><path style="opacity:1" fill="#74beb2" d="M 580.5,225.5 C 619.947,224.461 647.78,241.794 664,277.5C 674.279,310.539 667.779,339.705 644.5,365C 618.135,388.118 588.469,393.451 555.5,381C 514.95,359.051 500.116,325.551 511,280.5C 523.672,248.616 546.839,230.282 580.5,225.5 Z"/></g>
<g><path style="opacity:1" fill="#fcfdfe" d="M 633.5,263.5 C 647.057,262.988 651.557,268.988 647,281.5C 622.116,304.352 596.949,326.852 571.5,349C 567.705,349.837 564.039,349.504 560.5,348C 549.303,337.137 538.47,325.971 528,314.5C 526.102,301.203 531.602,296.37 544.5,300C 552.014,307.681 559.681,315.181 567.5,322.5C 589.546,302.782 611.546,283.116 633.5,263.5 Z"/></g>
<g><path style="opacity:1" fill="#74beb2" d="M 688.5,424.5 C 689.675,424.281 690.675,424.614 691.5,425.5C 699.899,444.373 707.899,463.373 715.5,482.5C 705.412,481.207 695.412,479.374 685.5,477C 679.938,475.419 675.438,476.919 672,481.5C 666.333,490.833 660.667,500.167 655,509.5C 649.5,497.167 644,484.833 638.5,472.5C 649.355,469.493 658.522,463.826 666,455.5C 672.234,444.121 679.734,433.788 688.5,424.5 Z"/></g>
<g><path style="opacity:1" fill="#74beb2" d="M 491.5,429.5 C 493.193,430.475 494.693,431.808 496,433.5C 501.822,444.308 508.988,454.142 517.5,463C 525.862,468.956 535.195,472.456 545.5,473.5C 537.35,491.136 529.183,508.803 521,526.5C 515.667,517.167 510.333,507.833 505,498.5C 503.127,496.291 500.96,494.458 498.5,493C 485.839,494.331 473.172,495.664 460.5,497C 470.957,474.584 481.29,452.084 491.5,429.5 Z"/></g>
<g><path style="opacity:1" fill="#fcfdfe" d="M 418.5,562.5 C 427.626,562.066 436.626,562.899 445.5,565C 467.564,572.466 489.564,580.133 511.5,588C 530.586,593.938 549.919,598.938 569.5,603C 595.143,615.926 603.143,635.926 593.5,663C 593.833,663.5 594.167,664 594.5,664.5C 638.29,640.439 681.624,615.606 724.5,590C 737,582.749 750.334,577.749 764.5,575C 783.98,571.162 800.48,576.329 814,590.5C 828.576,614.253 826.076,636.086 806.5,656C 733.764,701.063 660.764,745.73 587.5,790C 570.776,797.369 553.443,799.369 535.5,796C 484.73,782.808 434.063,769.308 383.5,755.5C 377.286,758.433 371.619,762.1 366.5,766.5C 370,772.833 373.5,779.167 377,785.5C 380.273,798.244 377.107,809.077 367.5,818C 354.833,825 342.167,832 329.5,839C 313.742,844.204 301.576,839.704 293,825.5C 264.333,774.833 235.667,724.167 207,673.5C 203.711,667.257 200.711,660.924 198,654.5C 195.425,641.494 199.591,631.327 210.5,624C 223.372,616.731 236.372,609.731 249.5,603C 262.636,600.655 273.136,604.822 281,615.5C 283.667,620.167 286.333,624.833 289,629.5C 324.642,607.592 361.142,587.092 398.5,568C 405.208,565.826 411.875,563.993 418.5,562.5 Z"/></g>
<g><path style="opacity:1" fill="#74beb2" d="M 420.5,585.5 C 427.555,585.27 434.555,585.77 441.5,587C 480.18,602.56 519.847,614.894 560.5,624C 574.914,630.659 578.748,641.159 572,655.5C 567.61,661.609 561.61,664.275 554,663.5C 549.79,663.356 545.624,662.856 541.5,662C 518.45,655.988 495.45,649.821 472.5,643.5C 462.588,646.002 459.755,652.002 464,661.5C 465.543,663.378 467.376,664.878 469.5,666C 500.673,675.701 532.34,683.368 564.5,689C 579.745,691.035 594.412,689.035 608.5,683C 650.425,659.4 692.092,635.4 733.5,611C 746.837,602.577 761.337,597.743 777,596.5C 795.205,598.194 802.871,608.194 800,626.5C 798.377,632.457 794.877,636.957 789.5,640C 722.333,681.083 655.333,722.416 588.5,764C 574.328,772.725 558.995,776.058 542.5,774C 490.33,760.911 438.33,747.244 386.5,733C 383.5,732.333 380.5,732.333 377.5,733C 370.004,736.914 362.671,741.08 355.5,745.5C 354.522,745.023 353.689,744.357 353,743.5C 335.667,712.833 318.333,682.167 301,651.5C 300.333,650.5 300.333,649.5 301,648.5C 334.093,628.701 367.593,609.534 401.5,591C 407.939,588.979 414.272,587.146 420.5,585.5 Z"/></g>
<g><path style="opacity:1" fill="#74beb2" d="M 254.5,624.5 C 256.655,624.372 258.655,624.872 260.5,626C 292.127,681.419 323.627,736.919 355,792.5C 355.944,795.347 355.444,797.847 353.5,800C 342.833,806 332.167,812 321.5,818C 318.653,818.944 316.153,818.444 314,816.5C 282.667,761.167 251.333,705.833 220,650.5C 219.313,648.08 219.813,645.913 221.5,644C 232.893,637.978 243.893,631.478 254.5,624.5 Z"/></g>
<g><path style="opacity:1" fill="#f9fbfe" d="M 247.5,646.5 C 258.865,646.028 263.699,651.362 262,662.5C 257.63,669.7 251.797,671.2 244.5,667C 238.432,659.03 239.432,652.197 247.5,646.5 Z"/></g>
</svg>
