<?xml version="1.0" encoding="UTF-8"?>
<!DOCTYPE svg PUBLIC "-//W3C//DTD SVG 1.1//EN" "http://www.w3.org/Graphics/SVG/1.1/DTD/svg11.dtd">
<svg xmlns="http://www.w3.org/2000/svg" version="1.1" width="1024px" height="1024px" style="shape-rendering:geometricPrecision; text-rendering:geometricPrecision; image-rendering:optimizeQuality; fill-rule:evenodd; clip-rule:evenodd" xmlns:xlink="http://www.w3.org/1999/xlink">
<g><path style="opacity:1" fill="#fefefe" d="M -0.5,-0.5 C 340.833,-0.5 682.167,-0.5 1023.5,-0.5C 1023.5,340.833 1023.5,682.167 1023.5,1023.5C 682.167,1023.5 340.833,1023.5 -0.5,1023.5C -0.5,682.167 -0.5,340.833 -0.5,-0.5 Z"/></g>
<g><path style="opacity:1" fill="#74beb2" d="M 472.5,46.5 C 611.734,38.513 732.401,81.3463 834.5,175C 942.935,283.276 989.769,414.109 975,567.5C 954.186,714.843 881.686,828.676 757.5,909C 649.641,973.733 533.974,993.399 410.5,968C 268.425,933.221 163.258,851.388 95,722.5C 36.9606,602.215 29.6273,478.882 73,352.5C 115.556,240.614 189.389,156.114 294.5,99C 350.583,70.023 409.917,52.523 472.5,46.5 Z"/></g>
<g><path style="opacity:1" fill="#fdfdfe" d="M 693.5,185.5 C 706.259,184.751 716.925,189.085 725.5,198.5C 742.679,186.945 758.846,188.279 774,202.5C 776.6,206.097 778.766,209.93 780.5,214C 801.955,209.98 816.788,218.147 825,238.5C 825.285,299.844 825.285,361.177 825,422.5C 823.28,436.66 818.947,449.993 812,462.5C 802.814,476.691 792.48,490.024 781,502.5C 780.5,536.498 780.333,570.498 780.5,604.5C 803.484,607.986 813.984,621.319 812,644.5C 810.304,648.725 808.471,652.892 806.5,657C 820.652,674.193 819.652,690.526 803.5,706C 814.3,721.296 814.133,736.463 803,751.5C 798.654,755.838 793.654,759.171 788,761.5C 792.098,785.131 782.598,800.298 759.5,807C 750.833,807.167 742.167,807.333 733.5,807.5C 681.157,806.49 628.824,805.99 576.5,806C 555.014,802.089 536.014,793.089 519.5,779C 512.54,773.708 505.873,768.042 499.5,762C 465.835,761.5 432.168,761.333 398.5,761.5C 398.969,789.531 385.302,803.364 357.5,803C 353.275,801.304 349.108,799.471 345,797.5C 327.596,811.577 311.096,810.577 295.5,794.5C 280.362,805.322 265.362,805.155 250.5,794C 246.174,789.688 242.841,784.688 240.5,779C 222.601,782.971 208.768,777.138 199,761.5C 197.714,758.595 196.714,755.595 196,752.5C 195.574,692.152 195.574,631.818 196,571.5C 196.977,557.569 200.977,544.569 208,532.5C 217.211,517.421 227.878,503.421 240,490.5C 240.5,456.502 240.667,422.502 240.5,388.5C 218.162,385.192 207.662,372.192 209,349.5C 209.911,344.601 211.744,340.101 214.5,336C 200.341,318.582 201.341,302.082 217.5,286.5C 205.698,269.22 207.032,253.053 221.5,238C 224.642,235.096 228.309,233.262 232.5,232.5C 228.78,211.105 236.78,195.938 256.5,187C 276.5,186.833 296.5,186.667 316.5,186.5C 358.842,187.109 401.175,187.276 443.5,187C 465.422,190.63 484.756,199.63 501.5,214C 508.167,219.667 514.833,225.333 521.5,231C 555.165,231.5 588.832,231.667 622.5,231.5C 620.915,212.151 628.915,198.651 646.5,191C 657.26,187.983 667.093,189.816 676,196.5C 680.869,191.157 686.703,187.49 693.5,185.5 Z"/></g>
<g><path style="opacity:1" fill="#74beb2" d="M 620.5,274.5 C 619.833,281.5 619.167,288.5 618.5,295.5C 602.618,292.765 589.451,297.432 579,309.5C 575.612,313.609 573.279,318.275 572,323.5C 571.769,332.199 572.269,340.866 573.5,349.5C 573.5,351.5 573.5,353.5 573.5,355.5C 554.659,355.17 535.993,355.503 517.5,356.5C 515.407,357.045 513.407,357.878 511.5,359C 496.918,378.627 478.252,392.961 455.5,402C 444.088,405.376 432.421,407.376 420.5,408C 398.377,410.009 376.21,411.509 354,412.5C 343.587,414.087 339.254,409.754 341,399.5C 341.833,397.333 343.333,395.833 345.5,395C 352.857,393.406 360.19,391.739 367.5,390C 375.5,382.333 375.5,374.667 367.5,367C 324.842,365.313 282.176,363.98 239.5,363C 233.907,357.19 234.24,351.856 240.5,347C 277.167,346.931 313.834,346.931 350.5,347C 358.505,343.351 361.339,337.184 359,328.5C 356.688,324.42 353.188,321.92 348.5,321C 316.828,320.282 285.162,320.449 253.5,321.5C 248.833,321.333 244.167,321.167 239.5,321C 234.365,317.945 232.532,313.445 234,307.5C 235.5,306 237,304.5 238.5,303C 275.504,302.545 312.504,301.879 349.5,301C 358.044,297.748 361.211,291.581 359,282.5C 357.437,279.272 354.937,277.105 351.5,276C 314.83,275.521 278.163,274.854 241.5,274C 233.607,268.247 233.607,262.581 241.5,257C 278.5,256.667 315.5,256.333 352.5,256C 360.739,251.041 362.572,244.207 358,235.5C 356.59,234.213 355.09,233.046 353.5,232C 324.548,230.699 295.548,230.032 266.5,230C 259.474,228.122 256.974,223.622 259,216.5C 259.833,215.667 260.667,214.833 261.5,214C 270.237,212.86 279.07,212.36 288,212.5C 339.187,212.914 390.354,213.747 441.5,215C 468.356,219.927 490.023,233.26 506.5,255C 507.833,255.667 509.167,256.333 510.5,257C 547.165,257.5 583.832,257.667 620.5,257.5C 620.5,263.167 620.5,268.833 620.5,274.5 Z"/></g>
<g><path style="opacity:1" fill="#74beb2" d="M 754.5,494.5 C 753.502,529.996 753.168,565.663 753.5,601.5C 752.5,601.5 751.5,601.5 750.5,601.5C 735.833,601.5 721.167,601.5 706.5,601.5C 709.867,583.41 704.201,568.91 689.5,558C 680.41,552.823 670.743,551.323 660.5,553.5C 659.167,553.5 657.833,553.5 656.5,553.5C 656.83,535.326 656.497,517.326 655.5,499.5C 655.245,496.984 654.411,494.65 653,492.5C 631.463,476.622 616.463,455.955 608,430.5C 606.278,424.282 605.278,417.949 605,411.5C 602.199,383.549 600.532,355.549 600,327.5C 603.75,320.906 608.917,319.74 615.5,324C 616.46,325.419 617.293,326.919 618,328.5C 619.108,334.147 620.108,339.814 621,345.5C 624.234,354.121 630.401,356.954 639.5,354C 641.624,352.878 643.457,351.378 645,349.5C 646.27,337.904 646.936,326.238 647,314.5C 647.333,284.167 647.667,253.833 648,223.5C 649.846,217.005 654.012,214.838 660.5,217C 662.726,218.227 664.226,220.061 665,222.5C 665.058,258.834 665.058,295.167 665,331.5C 670.778,342.322 678.445,343.988 688,336.5C 689.197,333.911 690.197,331.244 691,328.5C 690.887,292.501 690.887,256.501 691,220.5C 693.633,215.268 697.799,213.435 703.5,215C 706,216.167 707.833,218 709,220.5C 709.247,257.509 709.914,294.509 711,331.5C 715.207,340.479 722.04,342.979 731.5,339C 734.181,336.806 735.681,333.973 736,330.5C 736.333,296.5 736.667,262.5 737,228.5C 737.11,219.392 741.61,215.892 750.5,218C 752.552,218.93 754.052,220.43 755,222.5C 755.295,258.836 755.295,295.17 755,331.5C 759.244,341.848 766.41,344.348 776.5,339C 778.43,336.742 779.93,334.242 781,331.5C 781.024,302.439 781.691,273.439 783,244.5C 786.366,239.391 790.866,238.224 796.5,241C 797.46,242.419 798.293,243.919 799,245.5C 799.062,302.833 798.728,360.166 798,417.5C 794.191,446.131 780.857,469.131 758,486.5C 756.007,488.818 754.841,491.484 754.5,494.5 Z"/></g>
<g><path style="opacity:1" fill="#74beb2" d="M 620.5,274.5 C 620.831,281.863 620.497,289.197 619.5,296.5C 618.893,296.376 618.56,296.043 618.5,295.5C 619.167,288.5 619.833,281.5 620.5,274.5 Z"/></g>
<g><path style="opacity:1" fill="#74beb2" d="M 573.5,349.5 C 574.468,351.607 574.802,353.941 574.5,356.5C 555.5,356.5 536.5,356.5 517.5,356.5C 535.993,355.503 554.659,355.17 573.5,355.5C 573.5,353.5 573.5,351.5 573.5,349.5 Z"/></g>
<g><path style="opacity:1" fill="#74beb2" d="M 525.5,382.5 C 542.5,382.5 559.5,382.5 576.5,382.5C 573.724,432.919 591.224,474.586 629,507.5C 629.5,523.83 629.667,540.163 629.5,556.5C 611.172,558 592.838,559.5 574.5,561C 542.88,567.97 516.88,583.97 496.5,609C 495.5,609.333 494.5,609.667 493.5,610C 477.17,610.5 460.837,610.667 444.5,610.5C 447.591,574.729 438.757,542.396 418,513.5C 410.012,503.513 401.345,494.179 392,485.5C 391.5,469.17 391.333,452.837 391.5,436.5C 409.485,434.911 427.485,433.411 445.5,432C 478.204,425.104 504.871,408.604 525.5,382.5 Z"/></g>
<g><path style="opacity:1" fill="#74beb2" d="M 274.5,391.5 C 272.167,391.5 269.833,391.5 267.5,391.5C 267.83,409.008 267.497,426.341 266.5,443.5C 266.5,425.833 266.5,408.167 266.5,390.5C 269.385,390.194 272.052,390.527 274.5,391.5 Z"/></g>
<g><path style="opacity:1" fill="#74beb2" d="M 274.5,391.5 C 279.833,391.5 285.167,391.5 290.5,391.5C 298.5,392.167 306.5,392.833 314.5,393.5C 311.682,416.371 321.016,431.871 342.5,440C 349.783,440.629 356.949,440.129 364,438.5C 364.333,456.833 364.667,475.167 365,493.5C 366,495.833 367,498.167 368,500.5C 392.053,518.217 407.72,541.55 415,570.5C 416.336,589.202 418.003,607.869 420,626.5C 420.967,639.493 421.3,652.493 421,665.5C 417.753,671.612 412.92,673.112 406.5,670C 404.959,668.421 403.792,666.587 403,664.5C 402,658.5 401,652.5 400,646.5C 396.345,639.262 390.512,636.762 382.5,639C 379.333,640.833 376.833,643.333 375,646.5C 374,688.5 373,730.5 372,772.5C 368.229,776.788 363.729,777.621 358.5,775C 357.54,773.581 356.707,772.081 356,770.5C 355.636,734.163 355.636,697.829 356,661.5C 352.219,653.695 346.053,650.862 337.5,653C 334.272,654.563 332.105,657.063 331,660.5C 330.667,697.833 330.333,735.167 330,772.5C 325.737,779.157 320.403,780.157 314,775.5C 313.333,774.167 312.667,772.833 312,771.5C 311.718,734.492 311.051,697.492 310,660.5C 305.707,653.728 299.54,651.228 291.5,653C 288.272,654.563 286.105,657.063 285,660.5C 284.134,697.906 283.134,735.239 282,772.5C 275.333,778.5 270,777.5 266,769.5C 265.667,732.5 265.333,695.5 265,658.5C 258.703,650.429 251.37,649.429 243,655.5C 241.561,657.275 240.561,659.275 240,661.5C 239.667,689.5 239.333,717.5 239,745.5C 236.691,753.237 231.858,755.404 224.5,752C 223.283,750.352 222.45,748.519 222,746.5C 221.313,689.161 221.647,631.828 223,574.5C 227.514,546.002 241.181,523.002 264,505.5C 264.862,503.913 265.529,502.246 266,500.5C 266.5,481.503 266.667,462.503 266.5,443.5C 267.497,426.341 267.83,409.008 267.5,391.5C 269.833,391.5 272.167,391.5 274.5,391.5 Z"/></g>
<g><path style="opacity:1" fill="#74beb2" d="M 290.5,391.5 C 298.86,391.169 307.193,391.502 315.5,392.5C 315.376,393.107 315.043,393.44 314.5,393.5C 306.5,392.833 298.5,392.167 290.5,391.5 Z"/></g>
<g><path style="opacity:1" fill="#74beb2" d="M 655.5,499.5 C 656.497,517.326 656.83,535.326 656.5,553.5C 657.833,553.5 659.167,553.5 660.5,553.5C 659.081,554.451 657.415,554.784 655.5,554.5C 655.5,536.167 655.5,517.833 655.5,499.5 Z"/></g>
<g><path style="opacity:1" fill="#74beb2" d="M 754.5,494.5 C 754.5,530.5 754.5,566.5 754.5,602.5C 752.901,602.768 751.568,602.434 750.5,601.5C 751.5,601.5 752.5,601.5 753.5,601.5C 753.168,565.663 753.502,529.996 754.5,494.5 Z"/></g>
<g><path style="opacity:1" fill="#74beb2" d="M 400.5,718.5 C 400.849,711.274 401.849,704.274 403.5,697.5C 420.852,699.551 434.685,693.551 445,679.5C 446.909,675.685 448.242,671.685 449,667.5C 449.488,659.439 448.988,651.439 447.5,643.5C 447.5,641.5 447.5,639.5 447.5,637.5C 466.341,637.83 485.007,637.497 503.5,636.5C 505.593,635.955 507.593,635.122 509.5,634C 527.206,609.962 550.54,594.295 579.5,587C 611.111,583.775 642.777,581.775 674.5,581C 680.095,583.354 681.928,587.521 680,593.5C 679.052,595.57 677.552,597.07 675.5,598C 668.926,599.763 662.259,601.096 655.5,602C 647.545,606.476 645.378,612.976 649,621.5C 650.873,623.709 653.04,625.542 655.5,627C 697.546,627.912 739.546,628.912 781.5,630C 785.788,633.771 786.621,638.271 784,643.5C 782.829,644.893 781.329,645.727 779.5,646C 742.5,646.333 705.5,646.667 668.5,647C 660.968,652.335 659.468,659.169 664,667.5C 666.251,669.377 668.751,670.877 671.5,672C 708.168,672.15 744.835,672.15 781.5,672C 787.742,675.816 789.075,680.983 785.5,687.5C 784.335,688.584 783.002,689.417 781.5,690C 744.495,690.376 707.495,691.042 670.5,692C 661.718,696.417 659.218,703.25 663,712.5C 664.731,714.617 666.898,716.117 669.5,717C 705.822,718.165 742.155,718.831 778.5,719C 786.5,723 787.5,728.333 781.5,735C 780.5,735.333 779.5,735.667 778.5,736C 741.833,736.333 705.167,736.667 668.5,737C 658.983,743.464 657.983,751.131 665.5,760C 666.833,760.667 668.167,761.333 669.5,762C 698.168,762.607 726.835,763.274 755.5,764C 762.072,765.239 764.238,769.073 762,775.5C 761.535,776.931 760.701,778.097 759.5,779C 739.896,780.149 720.229,780.649 700.5,780.5C 661.163,780.269 621.83,779.769 582.5,779C 554.759,774.633 532.425,761.3 515.5,739C 513.51,737.249 511.177,736.249 508.5,736C 472.502,735.5 436.502,735.333 400.5,735.5C 400.5,729.833 400.5,724.167 400.5,718.5 Z"/></g>
<g><path style="opacity:1" fill="#74beb2" d="M 503.5,636.5 C 485.007,637.497 466.341,637.83 447.5,637.5C 447.5,639.5 447.5,641.5 447.5,643.5C 446.532,641.393 446.198,639.059 446.5,636.5C 465.5,636.5 484.5,636.5 503.5,636.5 Z"/></g>
<g><path style="opacity:1" fill="#74beb2" d="M 403.5,697.5 C 401.849,704.274 400.849,711.274 400.5,718.5C 400.5,711.167 400.5,703.833 400.5,696.5C 401.791,696.263 402.791,696.596 403.5,697.5 Z"/></g>
</svg>
