<?xml version="1.0" encoding="UTF-8"?>
<!DOCTYPE svg PUBLIC "-//W3C//DTD SVG 1.1//EN" "http://www.w3.org/Graphics/SVG/1.1/DTD/svg11.dtd">
<svg xmlns="http://www.w3.org/2000/svg" version="1.1" width="1024px" height="1024px" style="shape-rendering:geometricPrecision; text-rendering:geometricPrecision; image-rendering:optimizeQuality; fill-rule:evenodd; clip-rule:evenodd" xmlns:xlink="http://www.w3.org/1999/xlink">
<g><path style="opacity:1" fill="#fefefe" d="M -0.5,-0.5 C 340.833,-0.5 682.167,-0.5 1023.5,-0.5C 1023.5,340.833 1023.5,682.167 1023.5,1023.5C 682.167,1023.5 340.833,1023.5 -0.5,1023.5C -0.5,682.167 -0.5,340.833 -0.5,-0.5 Z"/></g>
<g><path style="opacity:1" fill="#74beb2" d="M 472.5,46.5 C 611.734,38.513 732.401,81.3463 834.5,175C 942.935,283.276 989.769,414.109 975,567.5C 954.186,714.843 881.686,828.676 757.5,909C 649.641,973.733 533.974,993.399 410.5,968C 268.425,933.221 163.258,851.388 95,722.5C 36.9606,602.215 29.6273,478.882 73,352.5C 115.556,240.614 189.389,156.114 294.5,99C 350.583,70.023 409.917,52.523 472.5,46.5 Z"/></g>
<g><path style="opacity:1" fill="#fcfdfe" d="M 657.5,132.5 C 660.187,132.336 662.854,132.503 665.5,133C 688.753,139.313 712.086,145.313 735.5,151C 740.794,154.435 742.627,159.268 741,165.5C 739.76,168.412 738.094,171.079 736,173.5C 720.5,190.333 705,207.167 689.5,224C 683.611,227.634 678.111,227.134 673,222.5C 669.656,213.133 666.323,203.8 663,194.5C 589.381,215.813 515.215,235.313 440.5,253C 394.313,264.548 348.979,278.882 304.5,296C 282.908,304.788 262.908,316.122 244.5,330C 233.484,339.003 225.65,350.17 221,363.5C 218.929,375.261 220.929,386.261 227,396.5C 236.579,409.744 248.413,420.577 262.5,429C 281.497,439.67 301.164,449.003 321.5,457C 318.6,464.533 315.6,472.033 312.5,479.5C 281.279,468.395 252.612,452.895 226.5,433C 199.647,410.466 190.814,382.299 200,348.5C 206.138,334.69 214.971,322.857 226.5,313C 247.617,296.099 270.951,282.765 296.5,273C 344.904,254.567 394.238,239.234 444.5,227C 514.325,210.507 583.658,192.507 652.5,173C 654.223,172.477 655.556,171.477 656.5,170C 652.438,160.17 650.271,150.003 650,139.5C 651.742,136.254 654.242,133.921 657.5,132.5 Z"/></g>
<g><path style="opacity:1" fill="#74beb2" d="M 679.5,162.5 C 682.91,162.457 686.243,162.957 689.5,164C 695.23,165.682 700.896,167.515 706.5,169.5C 700.149,176.016 693.983,182.683 688,189.5C 684.856,180.569 682.023,171.569 679.5,162.5 Z"/></g>
<g><path style="opacity:1" fill="#fefefe" d="M 499.5,262.5 C 507.5,262.5 515.5,262.5 523.5,262.5C 523.5,273.833 523.5,285.167 523.5,296.5C 515.5,296.5 507.5,296.5 499.5,296.5C 499.5,285.167 499.5,273.833 499.5,262.5 Z"/></g>
<g><path style="opacity:1" fill="#fdfdfe" d="M 492.5,318.5 C 568.304,314.807 625.137,345.474 663,410.5C 687.65,462.793 687.65,515.127 663,567.5C 646.385,598.448 622.718,622.448 592,639.5C 591.667,664.167 591.333,688.833 591,713.5C 585.035,748.46 565.202,771.293 531.5,782C 492.501,789.576 462.334,776.743 441,743.5C 436.391,734.34 433.391,724.673 432,714.5C 431.833,689.493 431.333,664.493 430.5,639.5C 386.084,614.899 357.584,577.899 345,528.5C 331.643,463.395 348.81,407.895 396.5,362C 424.194,337.986 456.194,323.486 492.5,318.5 Z"/></g>
<g><path style="opacity:1" fill="#f9fbfe" d="M 358.5,320.5 C 367.425,327.756 375.759,335.756 383.5,344.5C 378.167,350.5 372.5,356.167 366.5,361.5C 358.833,353.5 351.167,345.5 343.5,337.5C 348.15,331.517 353.15,325.85 358.5,320.5 Z"/></g>
<g><path style="opacity:1" fill="#fcfdfe" d="M 662.5,320.5 C 668.479,325.812 674.146,331.479 679.5,337.5C 671.848,345.652 664.015,353.652 656,361.5C 650.318,355.985 644.818,350.319 639.5,344.5C 647.188,336.479 654.855,328.479 662.5,320.5 Z"/></g>
<g><path style="opacity:1" fill="#74beb2" d="M 567.5,629.5 C 566.511,634.975 566.178,640.642 566.5,646.5C 529.5,646.5 492.5,646.5 455.5,646.5C 455.666,640.491 455.499,634.491 455,628.5C 454.365,627.034 453.531,625.7 452.5,624.5C 388.761,591.708 359.927,539.375 366,467.5C 378.912,404.254 416.412,363.754 478.5,346C 546.13,334.413 598.964,356.913 637,413.5C 663.939,462.937 664.272,512.604 638,562.5C 622.325,589.092 600.491,608.925 572.5,622C 569.8,623.857 568.134,626.357 567.5,629.5 Z"/></g>
<g><path style="opacity:1" fill="#fcfdfe" d="M 490.5,386.5 C 504.504,386.333 518.504,386.5 532.5,387C 542.822,391.64 547.822,399.64 547.5,411C 553.376,413.188 558.876,416.021 564,419.5C 577.776,412.085 589.11,414.752 598,427.5C 603,436.167 608,444.833 613,453.5C 615.406,465.014 611.573,473.681 601.5,479.5C 600.336,485.807 600.169,492.141 601,498.5C 611.468,504.106 615.468,512.773 613,524.5C 607.17,535.497 600.837,546.164 594,556.5C 587.17,562.158 579.336,563.991 570.5,562C 568.238,560.953 566.071,559.787 564,558.5C 558.756,561.874 553.256,564.874 547.5,567.5C 547.717,579.264 542.383,587.097 531.5,591C 517.5,591.667 503.5,591.667 489.5,591C 479.491,586.469 474.491,578.636 474.5,567.5C 468.843,565.007 463.51,562.007 458.5,558.5C 450.841,562.69 442.841,563.523 434.5,561C 431.705,559.207 429.205,557.04 427,554.5C 420.479,544.125 414.479,533.458 409,522.5C 407.594,511.647 411.761,503.647 421.5,498.5C 422.833,492.167 422.833,485.833 421.5,479.5C 411.808,474.452 407.642,466.452 409,455.5C 415.005,443.498 421.838,431.998 429.5,421C 433.713,417.095 438.713,415.262 444.5,415.5C 449.963,416.418 455.296,417.585 460.5,419C 465.087,415.788 469.92,412.955 475,410.5C 474.903,399.014 480.069,391.014 490.5,386.5 Z"/></g>
<g><path style="opacity:1" fill="#74beb2" d="M 499.5,410.5 C 507.167,410.5 514.833,410.5 522.5,410.5C 522.655,418.31 525.655,424.81 531.5,430C 540.485,434.158 549.152,438.825 557.5,444C 564.502,445.379 571.002,444.212 577,440.5C 580.708,446.751 584.541,452.917 588.5,459C 582.608,461.892 578.441,466.392 576,472.5C 576.627,481.501 576.46,490.501 575.5,499.5C 576.044,508.43 580.044,515.263 587.5,520C 584.581,525.917 581.248,531.583 577.5,537C 574.216,536.243 570.883,535.243 567.5,534C 564.5,533.333 561.5,533.333 558.5,534C 549.485,539.509 540.151,544.509 530.5,549C 525.531,553.772 522.864,559.605 522.5,566.5C 514.862,567.497 507.196,567.831 499.5,567.5C 500.386,559.216 497.386,552.716 490.5,548C 481.136,543.318 471.802,538.651 462.5,534C 456.464,532.779 450.964,533.946 446,537.5C 441.928,531.699 438.095,525.699 434.5,519.5C 442.217,515.227 446.55,508.727 447.5,500C 446.192,492.832 446.192,485.665 447.5,478.5C 446.694,469.557 442.36,462.891 434.5,458.5C 438.167,452.5 441.833,446.5 445.5,440.5C 451.328,444.239 457.662,445.405 464.5,444C 472.676,439.412 481.009,435.078 489.5,431C 496.462,425.91 499.795,419.077 499.5,410.5 Z"/></g>
<g><path style="opacity:1" fill="#fcfdfe" d="M 504.5,448.5 C 536.516,448.681 552.016,464.681 551,496.5C 543.833,521.306 527.333,532.14 501.5,529C 478.14,520.118 468.306,503.284 472,478.5C 477.643,462.683 488.477,452.683 504.5,448.5 Z"/></g>
<g><path style="opacity:1" fill="#74beb2" d="M 505.5,473.5 C 515.718,471.395 522.884,475.062 527,484.5C 528.322,498.843 521.822,505.677 507.5,505C 494.948,499.339 492.115,490.506 499,478.5C 500.965,476.45 503.132,474.783 505.5,473.5 Z"/></g>
<g><path style="opacity:1" fill="#fcfdfe" d="M 696.5,563.5 C 731.852,573.843 764.185,590.009 793.5,612C 803.163,620.321 811.33,629.821 818,640.5C 830.925,667.029 828.925,692.363 812,716.5C 798.493,733.014 782.327,746.18 763.5,756C 729.504,773.33 694.17,787.33 657.5,798C 633.883,804.821 610.216,811.488 586.5,818C 526.591,832.227 466.924,847.227 407.5,863C 387.789,868.571 368.289,874.737 349,881.5C 345.856,873.58 343.023,865.58 340.5,857.5C 366.456,849.679 392.456,842.179 418.5,835C 491.297,816.635 563.963,797.968 636.5,779C 666.34,770.054 695.673,759.72 724.5,748C 749.283,738.204 771.116,724.037 790,705.5C 804.538,687.961 806.205,669.295 795,649.5C 783.622,634.788 769.788,622.954 753.5,614C 732.948,602.887 711.614,593.721 689.5,586.5C 691.635,578.762 693.968,571.096 696.5,563.5 Z"/></g>
<g><path style="opacity:1" fill="#74beb2" d="M 567.5,629.5 C 567.5,635.5 567.5,641.5 567.5,647.5C 529.996,647.832 492.663,647.498 455.5,646.5C 492.5,646.5 529.5,646.5 566.5,646.5C 566.178,640.642 566.511,634.975 567.5,629.5 Z"/></g>
<g><path style="opacity:1" fill="#74beb2" d="M 566.5,671.5 C 566.5,680.833 566.5,690.167 566.5,699.5C 529.5,699.5 492.5,699.5 455.5,699.5C 455.5,690.167 455.5,680.833 455.5,671.5C 492.5,671.5 529.5,671.5 566.5,671.5 Z"/></g>
<g><path style="opacity:1" fill="#74beb2" d="M 566.5,671.5 C 567.494,680.986 567.827,690.652 567.5,700.5C 529.996,700.832 492.663,700.498 455.5,699.5C 492.5,699.5 529.5,699.5 566.5,699.5C 566.5,690.167 566.5,680.833 566.5,671.5 Z"/></g>
<g><path style="opacity:1" fill="#74beb2" d="M 459.5,724.5 C 494.002,723.17 528.669,723.17 563.5,724.5C 563.376,725.107 563.043,725.44 562.5,725.5C 528.337,724.502 494.004,724.168 459.5,724.5 Z"/></g>
<g><path style="opacity:1" fill="#74beb2" d="M 459.5,724.5 C 494.004,724.168 528.337,724.502 562.5,725.5C 552.395,748.399 534.728,760.066 509.5,760.5C 485.416,758.792 468.749,746.792 459.5,724.5 Z"/></g>
</svg>
