<?xml version="1.0" encoding="UTF-8"?>
<!DOCTYPE svg PUBLIC "-//W3C//DTD SVG 1.1//EN" "http://www.w3.org/Graphics/SVG/1.1/DTD/svg11.dtd">
<svg xmlns="http://www.w3.org/2000/svg" version="1.1" width="1024px" height="1024px" style="shape-rendering:geometricPrecision; text-rendering:geometricPrecision; image-rendering:optimizeQuality; fill-rule:evenodd; clip-rule:evenodd" xmlns:xlink="http://www.w3.org/1999/xlink">
<g><path style="opacity:1" fill="#fefefe" d="M -0.5,-0.5 C 340.833,-0.5 682.167,-0.5 1023.5,-0.5C 1023.5,340.833 1023.5,682.167 1023.5,1023.5C 682.167,1023.5 340.833,1023.5 -0.5,1023.5C -0.5,682.167 -0.5,340.833 -0.5,-0.5 Z"/></g>
<g><path style="opacity:1" fill="#74beb2" d="M 472.5,46.5 C 611.734,38.513 732.401,81.3463 834.5,175C 942.935,283.276 989.769,414.109 975,567.5C 954.186,714.843 881.686,828.676 757.5,909C 649.641,973.733 533.974,993.399 410.5,968C 268.425,933.221 163.258,851.388 95,722.5C 36.9606,602.215 29.6273,478.882 73,352.5C 115.556,240.614 189.389,156.114 294.5,99C 350.583,70.023 409.917,52.523 472.5,46.5 Z"/></g>
<g><path style="opacity:1" fill="#fcfdfe" d="M 604.5,210.5 C 591.5,210.5 578.5,210.5 565.5,210.5C 565.333,287.501 565.5,364.501 566,441.5C 567.039,440.756 567.539,439.756 567.5,438.5C 596.424,379.415 642.091,339.249 704.5,318C 723.763,312.301 743.43,309.134 763.5,308.5C 763.333,295.163 763.5,281.829 764,268.5C 767.887,261.188 773.387,259.688 780.5,264C 810.333,295.167 840.167,326.333 870,357.5C 872,361.5 872,365.5 870,369.5C 839.833,401 809.667,432.5 779.5,464C 772.567,467.116 767.401,465.283 764,458.5C 763.5,445.171 763.333,431.837 763.5,418.5C 721.548,422.302 690.214,442.468 669.5,479C 678.597,486.217 681.43,495.384 678,506.5C 674.827,512.181 671.161,517.514 667,522.5C 659.615,539.991 663.115,554.825 677.5,567C 684.82,571.497 692.82,573.497 701.5,573C 710.263,575.43 716.096,580.93 719,589.5C 719.667,606.5 719.667,623.5 719,640.5C 716.956,649.081 711.789,654.914 703.5,658C 671.706,659.444 659.206,675.611 666,706.5C 668.557,711.723 671.891,716.39 676,720.5C 681.509,731.412 680.175,741.412 672,750.5C 663.167,759.333 654.333,768.167 645.5,777C 635.802,784.384 625.469,785.384 614.5,780C 599.811,765.46 583.811,763.794 566.5,775C 557.233,783.04 553.066,793.207 554,805.5C 551.682,816.075 545.182,822.242 534.5,824C 518.167,824.667 501.833,824.667 485.5,824C 478.481,821.649 473.314,817.149 470,810.5C 468.278,804.282 467.278,797.949 467,791.5C 459.649,773.237 446.149,765.403 426.5,768C 422.462,768.899 418.795,770.566 415.5,773C 405.583,784.113 393.916,786.446 380.5,780C 368.637,768.471 357.137,756.638 346,744.5C 340.56,731.5 343.227,720.5 354,711.5C 364.234,691.938 360.401,675.771 342.5,663C 334.958,659.263 326.958,657.596 318.5,658C 310.507,654.674 305.341,648.841 303,640.5C 302.333,623.833 302.333,607.167 303,590.5C 306.167,582 312,576.167 320.5,573C 349.75,571.743 362.25,556.576 358,527.5C 354.408,520.646 350.075,514.313 345,508.5C 343.544,502.903 343.211,497.237 344,491.5C 346.066,486.775 348.9,482.608 352.5,479C 332.069,442.097 300.735,421.931 258.5,418.5C 258.667,431.837 258.5,445.171 258,458.5C 255.514,464.62 251.014,466.787 244.5,465C 213.692,433.857 183.192,402.357 153,370.5C 150.247,366.667 149.914,362.667 152,358.5C 153.713,357.122 155.047,355.455 156,353.5C 184.803,323.029 213.97,292.863 243.5,263C 251.211,260.189 256.211,262.689 258.5,270.5C 257.853,283.544 258.52,296.211 260.5,308.5C 350.865,315.572 416.031,359.572 456,440.5C 456.5,364.167 456.667,287.834 456.5,211.5C 443.496,211.667 430.496,211.5 417.5,211C 410.495,207.826 408.328,202.659 411,195.5C 442.5,165.333 474,135.167 505.5,105C 509.997,102.879 514.33,103.212 518.5,106C 550.024,135.858 581.191,166.025 612,196.5C 613.711,203.592 611.211,208.259 604.5,210.5 Z"/></g>
<g><path style="opacity:1" fill="#74beb2" d="M 509.5,128.5 C 510.552,128.351 511.552,128.517 512.5,129C 534.136,148.968 555.469,169.302 576.5,190C 568.5,190.333 560.5,190.667 552.5,191C 549.667,192.5 547.5,194.667 546,197.5C 545.833,268.836 545.333,340.169 544.5,411.5C 542.167,410.333 539.833,409.167 537.5,408C 520.5,407.333 503.5,407.333 486.5,408C 483.376,408.479 480.543,409.646 478,411.5C 477.667,340.5 477.333,269.5 477,198.5C 475.895,195.063 473.728,192.563 470.5,191C 462.167,190.667 453.833,190.333 445.5,190C 467.336,169.997 488.669,149.497 509.5,128.5 Z"/></g>
<g><path style="opacity:1" fill="#74beb2" d="M 604.5,210.5 C 592.011,211.495 579.344,211.829 566.5,211.5C 566.167,287.335 566.501,363.002 567.5,438.5C 567.539,439.756 567.039,440.756 566,441.5C 565.5,364.501 565.333,287.501 565.5,210.5C 578.5,210.5 591.5,210.5 604.5,210.5 Z"/></g>
<g><path style="opacity:1" fill="#74beb2" d="M 258.5,270.5 C 259.185,283.068 259.851,295.735 260.5,308.5C 258.52,296.211 257.853,283.544 258.5,270.5 Z"/></g>
<g><path style="opacity:1" fill="#74beb2" d="M 238.5,319.5 C 237.833,312.833 237.167,306.167 236.5,299.5C 236.783,298.711 237.283,298.044 238,297.5C 238.5,304.826 238.666,312.159 238.5,319.5 Z"/></g>
<g><path style="opacity:1" fill="#74beb2" d="M 785.5,298.5 C 784.833,306.167 784.167,313.833 783.5,321.5C 783.169,313.472 783.502,305.472 784.5,297.5C 785.107,297.624 785.44,297.957 785.5,298.5 Z"/></g>
<g><path style="opacity:1" fill="#74beb2" d="M 236.5,299.5 C 237.167,306.167 237.833,312.833 238.5,319.5C 238.735,323.57 240.735,326.403 244.5,328C 335.606,330.606 400.773,372.773 440,454.5C 441.145,457.432 441.978,460.432 442.5,463.5C 434.564,465.192 426.897,464.359 419.5,461C 414.882,458.05 410.548,454.716 406.5,451C 398.139,446.395 389.805,446.395 381.5,451C 377.318,455.349 372.985,459.515 368.5,463.5C 339.11,419.302 297.776,397.469 244.5,398C 240.724,399.605 238.724,402.438 238.5,406.5C 237.833,413.5 237.167,420.5 236.5,427.5C 215.486,406.819 195.153,385.486 175.5,363.5C 195.883,342.12 216.216,320.786 236.5,299.5 Z"/></g>
<g><path style="opacity:1" fill="#74beb2" d="M 785.5,298.5 C 806.173,320.173 826.84,341.839 847.5,363.5C 826.812,385.187 806.145,406.854 785.5,428.5C 784.833,420.5 784.167,412.5 783.5,404.5C 782.316,401.151 779.983,398.985 776.5,398C 723.739,397.544 683.072,419.377 654.5,463.5C 649.982,459.148 645.316,454.981 640.5,451C 632.975,446.88 625.308,446.546 617.5,450C 611.621,455.545 604.955,459.878 597.5,463C 591.524,464.699 585.524,464.866 579.5,463.5C 601.915,404.585 642.582,363.752 701.5,341C 726.764,332.159 752.764,327.492 779.5,327C 781.439,325.568 782.772,323.735 783.5,321.5C 784.167,313.833 784.833,306.167 785.5,298.5 Z"/></g>
<g><path style="opacity:1" fill="#74beb2" d="M 238.5,406.5 C 238.666,414.174 238.5,421.841 238,429.5C 237.283,428.956 236.783,428.289 236.5,427.5C 237.167,420.5 237.833,413.5 238.5,406.5 Z"/></g>
<g><path style="opacity:1" fill="#74beb2" d="M 783.5,404.5 C 784.167,412.5 784.833,420.5 785.5,428.5C 785.44,429.043 785.107,429.376 784.5,429.5C 783.502,421.193 783.169,412.86 783.5,404.5 Z"/></g>
<g><path style="opacity:1" fill="#74beb2" d="M 489.5,427.5 C 503.837,427.333 518.171,427.5 532.5,428C 534.118,453.939 546.784,471.939 570.5,482C 591.367,487.808 609.7,483.475 625.5,469C 627.167,468.333 628.833,468.333 630.5,469C 639.667,478.167 648.833,487.333 658,496.5C 658.667,498.167 658.667,499.833 658,501.5C 644.505,514.991 639.672,531.157 643.5,550C 651.552,577.707 670.052,592.54 699,594.5C 699.667,608.833 699.667,623.167 699,637.5C 659.895,641.603 641.228,663.269 643,702.5C 645.392,713.287 650.392,722.621 658,730.5C 658.667,732.167 658.667,733.833 658,735.5C 648.592,745.411 638.759,754.744 628.5,763.5C 620.047,756.271 610.381,751.104 599.5,748C 559.392,745.438 536.725,764.105 531.5,804C 517.833,804.667 504.167,804.667 490.5,804C 484.766,761.947 460.766,743.614 418.5,749C 410.117,752.057 402.783,756.723 396.5,763C 395.167,763.667 393.833,763.667 392.5,763C 382.457,753.292 372.791,743.292 363.5,733C 365.933,728.896 368.767,725.063 372,721.5C 386.4,692.156 380.9,667.323 355.5,647C 345.644,641.603 335.144,638.436 324,637.5C 323.333,623.167 323.333,608.833 324,594.5C 364.015,589.477 382.348,566.81 379,526.5C 376.095,516.602 371.095,507.935 364,500.5C 363.48,498.711 363.813,497.044 365,495.5C 373.833,486.667 382.667,477.833 391.5,469C 392.333,468.833 393.167,468.667 394,468.5C 398.127,471.276 402.293,474.11 406.5,477C 428.486,488.204 449.486,486.537 469.5,472C 482.437,460.038 489.103,445.204 489.5,427.5 Z"/></g>
<g><path style="opacity:1" fill="#fcfdfe" d="M 498.5,508.5 C 555.071,506.684 593.571,532.017 614,584.5C 624.833,628.344 614,665.844 581.5,697C 545.253,725.422 505.919,730.422 463.5,712C 413.66,682.457 395.494,639.29 409,582.5C 425.136,541.192 454.969,516.525 498.5,508.5 Z"/></g>
<g><path style="opacity:1" fill="#74beb2" d="M 496.5,529.5 C 540.838,525.722 572.672,543.722 592,583.5C 602.968,615.398 598.301,644.731 578,671.5C 551.53,699.476 519.697,708.309 482.5,698C 440.378,679.443 421.378,647.109 425.5,601C 434.67,562.664 458.336,538.831 496.5,529.5 Z"/></g>
</svg>
