<?xml version="1.0" encoding="UTF-8"?>
<!DOCTYPE svg PUBLIC "-//W3C//DTD SVG 1.1//EN" "http://www.w3.org/Graphics/SVG/1.1/DTD/svg11.dtd">
<svg xmlns="http://www.w3.org/2000/svg" version="1.1" width="1024px" height="1024px" style="shape-rendering:geometricPrecision; text-rendering:geometricPrecision; image-rendering:optimizeQuality; fill-rule:evenodd; clip-rule:evenodd" xmlns:xlink="http://www.w3.org/1999/xlink">
<g><path style="opacity:1" fill="#fefefe" d="M -0.5,-0.5 C 340.833,-0.5 682.167,-0.5 1023.5,-0.5C 1023.5,340.833 1023.5,682.167 1023.5,1023.5C 682.167,1023.5 340.833,1023.5 -0.5,1023.5C -0.5,682.167 -0.5,340.833 -0.5,-0.5 Z"/></g>
<g><path style="opacity:1" fill="#74beb2" d="M 472.5,46.5 C 611.734,38.513 732.401,81.3463 834.5,175C 942.935,283.276 989.769,414.109 975,567.5C 954.186,714.843 881.686,828.676 757.5,909C 649.641,973.733 533.974,993.399 410.5,968C 268.425,933.221 163.258,851.388 95,722.5C 36.9606,602.215 29.6273,478.882 73,352.5C 115.556,240.614 189.389,156.114 294.5,99C 350.583,70.023 409.917,52.523 472.5,46.5 Z"/></g>
<g><path style="opacity:1" fill="#f9fbfe" d="M 506.5,75.5 C 510.355,74.8454 513.188,76.1788 515,79.5C 515.667,105.167 515.667,130.833 515,156.5C 511.952,160.01 508.619,160.343 505,157.5C 504.333,130.833 504.333,104.167 505,77.5C 505.717,76.9558 506.217,76.2891 506.5,75.5 Z"/></g>
<g><path style="opacity:1" fill="#fcfdfe" d="M 694.5,149.5 C 699.651,149.814 702.151,152.481 702,157.5C 683.833,175.667 665.667,193.833 647.5,212C 639.607,213.023 637.44,209.857 641,202.5C 659.34,185.327 677.173,167.66 694.5,149.5 Z"/></g>
<g><path style="opacity:1" fill="#f9fbfd" d="M 321.5,155.5 C 324.32,155.248 326.986,155.748 329.5,157C 346.667,174.167 363.833,191.333 381,208.5C 383.243,215.265 380.743,218.098 373.5,217C 355.667,199.167 337.833,181.333 320,163.5C 319.109,160.502 319.609,157.836 321.5,155.5 Z"/></g>
<g><path style="opacity:1" fill="#fdfdfe" d="M 499.5,202.5 C 519.088,201.154 538.088,203.821 556.5,210.5C 574.726,200.049 593.059,199.882 611.5,210C 625.079,219.654 632.579,232.821 634,249.5C 649.8,256.795 659.967,268.795 664.5,285.5C 715.657,286.331 763.823,298.664 809,322.5C 809.333,330.5 809.667,338.5 810,346.5C 819.508,351.674 828.175,358.007 836,365.5C 836.667,507.833 836.667,650.167 836,792.5C 834.675,794.338 832.841,795.338 830.5,795.5C 776.938,767.04 719.771,753.04 659,753.5C 627.889,753.294 597.389,757.461 567.5,766C 561.713,768.394 556.046,771.06 550.5,774C 524.5,774.667 498.5,774.667 472.5,774C 463.954,769.277 454.954,765.61 445.5,763C 370.873,746.497 297.873,751.83 226.5,779C 215.554,783.806 204.888,789.139 194.5,795C 190.834,796.271 188.334,795.104 187,791.5C 186.333,649.833 186.333,508.167 187,366.5C 194.367,357.944 203.2,351.61 213.5,347.5C 213.334,339.493 213.5,331.493 214,323.5C 215.167,322.333 216.333,321.167 217.5,320C 274.749,294.189 334.749,283.023 397.5,286.5C 415.572,239.134 449.572,211.134 499.5,202.5 Z"/></g>
<g><path style="opacity:1" fill="#74beb2" d="M 577.5,213.5 C 600.04,212.18 614.874,222.18 622,243.5C 623.983,256.267 621.15,267.767 613.5,278C 611.61,279.112 609.61,279.946 607.5,280.5C 605.399,280.368 603.899,279.368 603,277.5C 602.333,273.833 602.333,270.167 603,266.5C 609.319,255.179 608.986,244.179 602,233.5C 584.719,222.664 569.052,224.664 555,239.5C 551.048,243.793 548.381,248.793 547,254.5C 546.321,240.689 551.487,229.522 562.5,221C 567.313,217.927 572.313,215.427 577.5,213.5 Z"/></g>
<g><path style="opacity:1" fill="#74beb2" d="M 502.5,214.5 C 503.5,214.5 504.5,214.5 505.5,214.5C 505.5,255.5 505.5,296.5 505.5,337.5C 500.167,337.5 494.833,337.5 489.5,337.5C 489.821,331.974 489.488,326.64 488.5,321.5C 486.773,301.59 476.107,292.424 456.5,294C 440.003,302.505 434.169,315.672 439,333.5C 442.715,340.881 448.549,345.715 456.5,348C 463.437,349.288 470.437,349.788 477.5,349.5C 477.5,391.167 477.5,432.833 477.5,474.5C 473.5,474.5 469.5,474.5 465.5,474.5C 464.633,459.433 459.8,445.766 451,433.5C 413.035,404.216 396.368,365.55 401,317.5C 407.278,275.254 429.112,244.088 466.5,224C 477.853,218.329 489.853,215.162 502.5,214.5 Z"/></g>
<g><path style="opacity:1" fill="#74beb2" d="M 502.5,214.5 C 503.568,213.566 504.901,213.232 506.5,213.5C 506.832,255.337 506.499,297.003 505.5,338.5C 505.5,338.167 505.5,337.833 505.5,337.5C 505.5,296.5 505.5,255.5 505.5,214.5C 504.5,214.5 503.5,214.5 502.5,214.5 Z"/></g>
<g><path style="opacity:1" fill="#74beb2" d="M 633.5,263.5 C 633.897,262.475 634.563,262.308 635.5,263C 652.315,275.438 658.482,291.938 654,312.5C 644.741,336.392 627.241,347.226 601.5,345C 594.4,342.694 592.733,338.361 596.5,332C 606.074,330.679 615.407,328.345 624.5,325C 633.345,319.478 639.179,311.644 642,301.5C 644.798,287.375 641.964,274.708 633.5,263.5 Z"/></g>
<g><path style="opacity:1" fill="#74beb2" d="M 227.5,727.5 C 225.502,595.171 224.835,462.504 225.5,329.5C 278.698,304.56 334.698,294.227 393.5,298.5C 381.528,351.794 395.195,397.294 434.5,435C 437.333,437.167 440.167,439.333 443,441.5C 451.497,453.155 455.163,466.155 454,480.5C 448.969,485.424 446.802,491.424 447.5,498.5C 447.283,505.847 449.283,512.514 453.5,518.5C 450.891,521.383 449.058,524.717 448,528.5C 443.879,549.645 452.379,561.311 473.5,563.5C 478.272,579.608 488.939,588.941 505.5,591.5C 505.833,637.172 505.5,682.838 504.5,728.5C 412.236,683.53 319.902,683.196 227.5,727.5 Z"/></g>
<g><path style="opacity:1" fill="#74beb2" d="M 518.5,728.5 C 517.501,683.003 517.168,637.336 517.5,591.5C 534.096,588.902 544.763,579.568 549.5,563.5C 551.626,562.952 553.626,562.285 555.5,561.5C 566.065,561.1 572.565,555.767 575,545.5C 575.667,539.5 575.667,533.5 575,527.5C 573.682,524.199 571.848,521.199 569.5,518.5C 574.197,512.889 576.197,506.389 575.5,499C 576.181,491.214 574.015,484.381 569,478.5C 568.211,472.763 568.544,467.097 570,461.5C 581.444,460.242 592.277,456.742 602.5,451C 614.703,441.093 620.87,428.259 621,412.5C 636.083,404.731 645.083,392.398 648,375.5C 649.449,365.298 648.283,355.464 644.5,346C 659.244,333.336 666.577,317.169 666.5,297.5C 712.93,297.652 756.763,308.319 798,329.5C 798.833,462.501 798.667,595.501 797.5,728.5C 704.434,683.211 611.434,683.211 518.5,728.5 Z"/></g>
<g><path style="opacity:1" fill="#74beb2" d="M 459.5,304.5 C 469.727,304.219 475.56,309.219 477,319.5C 477.5,325.825 477.666,332.158 477.5,338.5C 467.487,340.26 458.654,337.927 451,331.5C 445.814,319.891 448.648,310.891 459.5,304.5 Z"/></g>
<g><path style="opacity:1" fill="#74beb2" d="M 225.5,329.5 C 224.835,462.504 225.502,595.171 227.5,727.5C 226.791,728.404 225.791,728.737 224.5,728.5C 224.167,595.332 224.5,462.332 225.5,329.5 Z"/></g>
<g><path style="opacity:1" fill="#fdfefe" d="M 700.5,334.5 C 726.502,334.333 752.502,334.5 778.5,335C 782.01,338.048 782.343,341.381 779.5,345C 752.833,345.667 726.167,345.667 699.5,345C 696.711,341.225 697.045,337.725 700.5,334.5 Z"/></g>
<g><path style="opacity:1" fill="#74beb2" d="M 488.5,321.5 C 489.488,326.64 489.821,331.974 489.5,337.5C 494.833,337.5 500.167,337.5 505.5,337.5C 505.5,337.833 505.5,338.167 505.5,338.5C 499.833,338.5 494.167,338.5 488.5,338.5C 488.5,332.833 488.5,327.167 488.5,321.5 Z"/></g>
<g><path style="opacity:1" fill="#f8fbfe" d="M 247.5,342.5 C 273.835,342.333 300.169,342.5 326.5,343C 330.582,346.697 330.249,350.03 325.5,353C 299.833,353.667 274.167,353.667 248.5,353C 243.653,349.818 243.32,346.318 247.5,342.5 Z"/></g>
<g><path style="opacity:1" fill="#74beb2" d="M 634.5,353.5 C 640.201,370.463 636.534,385.296 623.5,398C 616.621,402.624 609.121,405.458 601,406.5C 593.879,405.575 592.712,402.409 597.5,397C 603.317,394.712 609.317,393.046 615.5,392C 628.05,382.399 634.383,369.565 634.5,353.5 Z"/></g>
<g><path style="opacity:1" fill="#74beb2" d="M 212.5,359.5 C 213.666,480.333 213.833,601.333 213,722.5C 207.768,605.487 202.768,488.487 198,371.5C 202.627,367.123 207.461,363.123 212.5,359.5 Z"/></g>
<g><path style="opacity:1" fill="#74beb2" d="M 810.5,360.5 C 810.167,460.001 810.501,559.335 811.5,658.5C 810.901,675.16 810.401,691.827 810,708.5C 809.168,591.764 809.335,475.764 810.5,360.5 Z"/></g>
<g><path style="opacity:1" fill="#74beb2" d="M 810.5,360.5 C 816.348,363.015 821.348,366.682 825.5,371.5C 825.833,493.668 825.5,615.668 824.5,737.5C 822.305,635.164 819.972,532.83 817.5,430.5C 817.5,426.833 817.5,423.167 817.5,419.5C 817.666,413.158 817.5,406.825 817,400.5C 816.168,408.483 815.668,416.483 815.5,424.5C 815.5,432.833 815.5,441.167 815.5,449.5C 814.003,519.164 812.67,588.83 811.5,658.5C 810.501,559.335 810.167,460.001 810.5,360.5 Z"/></g>
<g><path style="opacity:1" fill="#74beb2" d="M 825.5,371.5 C 826.666,507.666 826.833,643.999 826,780.5C 824.73,766.196 824.23,751.863 824.5,737.5C 825.5,615.668 825.833,493.668 825.5,371.5 Z"/></g>
<g><path style="opacity:1" fill="#74beb2" d="M 544.5,395.5 C 547.325,395.081 549.491,396.081 551,398.5C 553.507,406.365 555.507,414.365 557,422.5C 564.318,435.386 575.151,439.552 589.5,435C 598.516,431.985 605.016,426.151 609,417.5C 607.199,431.984 599.366,441.817 585.5,447C 556.875,450.052 542.208,437.052 541.5,408C 541,403.364 542,399.197 544.5,395.5 Z"/></g>
<g><path style="opacity:1" fill="#74beb2" d="M 817.5,419.5 C 816.833,421.167 816.167,422.833 815.5,424.5C 815.668,416.483 816.168,408.483 817,400.5C 817.5,406.825 817.666,413.158 817.5,419.5 Z"/></g>
<g><path style="opacity:1" fill="#74beb2" d="M 817.5,419.5 C 817.5,423.167 817.5,426.833 817.5,430.5C 816.833,436.833 816.167,443.167 815.5,449.5C 815.5,441.167 815.5,432.833 815.5,424.5C 816.167,422.833 816.833,421.167 817.5,419.5 Z"/></g>
<g><path style="opacity:1" fill="#f7fafd" d="M 647.5,469.5 C 649.199,469.34 650.866,469.506 652.5,470C 670.667,488.167 688.833,506.333 707,524.5C 707.367,531.798 704.2,533.965 697.5,531C 680.333,513.833 663.167,496.667 646,479.5C 643.729,475.697 644.229,472.363 647.5,469.5 Z"/></g>
<g><path style="opacity:1" fill="#74beb2" d="M 489.5,349.5 C 489.5,390.833 489.5,432.167 489.5,473.5C 494.833,473.5 500.167,473.5 505.5,473.5C 505.5,432.167 505.5,390.833 505.5,349.5C 506.499,390.997 506.832,432.663 506.5,474.5C 500.5,474.5 494.5,474.5 488.5,474.5C 488.168,432.663 488.501,390.997 489.5,349.5 Z"/></g>
<g><path style="opacity:1" fill="#74beb2" d="M 489.5,349.5 C 494.833,349.5 500.167,349.5 505.5,349.5C 505.5,390.833 505.5,432.167 505.5,473.5C 500.167,473.5 494.833,473.5 489.5,473.5C 489.5,432.167 489.5,390.833 489.5,349.5 Z"/></g>
<g><path style="opacity:1" fill="#f7fafd" d="M 379.5,474.5 C 386.799,474.618 388.966,477.952 386,484.5C 368.5,502 351,519.5 333.5,537C 326.562,539.06 323.729,536.56 325,529.5C 343.368,511.299 361.535,492.965 379.5,474.5 Z"/></g>
<g><path style="opacity:1" fill="#74beb2" d="M 464.5,485.5 C 495.502,485.333 526.502,485.5 557.5,486C 560.583,486.786 562.749,488.619 564,491.5C 564.667,496.5 564.667,501.5 564,506.5C 563.027,508.64 561.527,510.307 559.5,511.5C 558.671,506.533 558.171,501.533 558,496.5C 556.833,494 555,492.167 552.5,491C 521.833,490.667 491.167,490.333 460.5,490C 462.041,488.629 463.375,487.129 464.5,485.5 Z"/></g>
<g><path style="opacity:1" fill="#74beb2" d="M 465.5,523.5 C 496.168,523.333 526.835,523.5 557.5,524C 559.96,525.458 562.127,527.291 564,529.5C 564.667,534.5 564.667,539.5 564,544.5C 563.027,546.64 561.527,548.307 559.5,549.5C 558.671,544.533 558.171,539.533 558,534.5C 556.337,532.083 554.171,530.25 551.5,529C 521.167,528.667 490.833,528.333 460.5,528C 462.063,526.264 463.73,524.764 465.5,523.5 Z"/></g>
<g><path style="opacity:1" fill="#74beb2" d="M 555.5,561.5 C 553.626,562.285 551.626,562.952 549.5,563.5C 550.918,561.692 552.918,561.025 555.5,561.5 Z"/></g>
<g><path style="opacity:1" fill="#74beb2" d="M 537.5,561.5 C 538.621,563.089 538.454,564.756 537,566.5C 529.85,577.655 519.684,582.155 506.5,580C 509.709,577.223 511.709,573.723 512.5,569.5C 521.187,567.575 529.52,564.909 537.5,561.5 Z"/></g>
<g><path style="opacity:1" fill="#c0dcf5" d="M 517.5,591.5 C 517.168,637.336 517.501,683.003 518.5,728.5C 518.44,729.043 518.107,729.376 517.5,729.5C 516.169,683.335 516.169,637.335 517.5,591.5 Z"/></g>
</svg>
