<?xml version="1.0" encoding="UTF-8"?>
<!DOCTYPE svg PUBLIC "-//W3C//DTD SVG 1.1//EN" "http://www.w3.org/Graphics/SVG/1.1/DTD/svg11.dtd">
<svg xmlns="http://www.w3.org/2000/svg" version="1.1" width="1024px" height="1024px" style="shape-rendering:geometricPrecision; text-rendering:geometricPrecision; image-rendering:optimizeQuality; fill-rule:evenodd; clip-rule:evenodd" xmlns:xlink="http://www.w3.org/1999/xlink">
<g><path style="opacity:1" fill="#fefefe" d="M -0.5,-0.5 C 340.833,-0.5 682.167,-0.5 1023.5,-0.5C 1023.5,340.833 1023.5,682.167 1023.5,1023.5C 682.167,1023.5 340.833,1023.5 -0.5,1023.5C -0.5,682.167 -0.5,340.833 -0.5,-0.5 Z"/></g>
<g><path style="opacity:1" fill="#74beb2" d="M 472.5,46.5 C 611.734,38.513 732.401,81.3463 834.5,175C 942.935,283.276 989.769,414.109 975,567.5C 954.186,714.843 881.686,828.676 757.5,909C 649.641,973.733 533.974,993.399 410.5,968C 268.425,933.221 163.258,851.388 95,722.5C 36.9606,602.215 29.6273,478.882 73,352.5C 115.556,240.614 189.389,156.114 294.5,99C 350.583,70.023 409.917,52.523 472.5,46.5 Z"/></g>
<g><path style="opacity:1" fill="#fcfdfe" d="M 335.5,176.5 C 384.761,173.811 429.428,186.644 469.5,215C 483.975,227.141 498.142,239.641 512,252.5C 523.855,240.978 536.022,229.811 548.5,219C 610.909,172.621 678.242,164.288 750.5,194C 828.212,233.889 866.046,297.722 864,385.5C 861.296,416.613 851.963,445.613 836,472.5C 820.819,493.677 805.652,514.844 790.5,536C 797.476,542.635 804.81,548.969 812.5,555C 836.111,575.241 839.945,598.741 824,625.5C 811.572,640.82 795.405,647.486 775.5,645.5C 773.275,678.06 755.941,695.06 723.5,696.5C 724.86,724.635 712.194,743.135 685.5,752C 678.181,753.679 670.848,753.846 663.5,752.5C 662.595,778.455 649.595,794.955 624.5,802C 611.728,804.215 599.728,802.215 588.5,796C 582.689,791.69 577.023,787.19 571.5,782.5C 561.681,791.819 552.014,801.319 542.5,811C 523.186,822.816 503.519,823.483 483.5,813C 470.909,804.247 462.909,792.414 459.5,777.5C 432.229,788.46 410.062,782.126 393,758.5C 388.039,750.197 385.539,741.197 385.5,731.5C 349.56,737.28 325.726,722.947 314,688.5C 312.985,684.56 312.485,680.56 312.5,676.5C 279.34,684.954 254.507,674.287 238,644.5C 229.194,623.713 231.194,604.046 244,585.5C 250.167,578.667 256.333,571.833 262.5,565C 239.667,537.5 216.833,510 194,482.5C 155.547,424.534 148.547,362.867 173,297.5C 205.114,227.553 259.281,187.22 335.5,176.5 Z"/></g>
<g><path style="opacity:1" fill="#74beb2" d="M 334.5,199.5 C 378.995,196.203 419.328,207.37 455.5,233C 511.474,283.251 566.974,334.084 622,385.5C 627.613,395.33 625.779,403.497 616.5,410C 580.974,422.06 547.641,417.726 516.5,397C 500.167,384 483.833,371 467.5,358C 459.807,354.731 453.64,356.565 449,363.5C 392,425.167 335,486.833 278,548.5C 256,521.833 234,495.167 212,468.5C 180.348,420.265 173.348,368.598 191,313.5C 209.27,266.463 241.437,232.629 287.5,212C 302.816,206.089 318.483,201.923 334.5,199.5 Z"/></g>
<g><path style="opacity:1" fill="#74beb2" d="M 634.5,606.5 C 633.518,609.962 633.185,613.629 633.5,617.5C 631.901,617.232 630.568,617.566 629.5,618.5C 615.281,619.193 603.448,624.86 594,635.5C 584.435,646.753 580.601,659.753 582.5,674.5C 554.706,675.46 537.539,689.46 531,716.5C 528.641,737.765 536.141,754.598 553.5,767C 545.531,775.97 537.197,784.637 528.5,793C 511.462,802.654 497.296,799.487 486,783.5C 482.644,776.195 481.644,768.529 483,760.5C 484.815,756.204 487.148,752.204 490,748.5C 502,735.167 514,721.833 526,708.5C 529.801,698.635 526.468,692.968 516,691.5C 513.109,691.26 510.609,692.093 508.5,694C 490.5,714 472.5,734 454.5,754C 434.123,765.613 418.957,760.78 409,739.5C 407.237,730.415 408.903,722.082 414,714.5C 432.369,695.133 450.369,675.466 468,655.5C 469.358,642.858 463.858,638.024 451.5,641C 431.5,662 411.5,683 391.5,704C 371.808,715.331 354.974,712.164 341,694.5C 331.962,677.627 333.962,662.293 347,648.5C 361.333,633.5 375.667,618.5 390,603.5C 393.283,589.205 387.783,584.038 373.5,588C 354.532,608.636 335.199,628.969 315.5,649C 302.087,657.82 288.087,658.82 273.5,652C 252.922,635.779 250.088,616.946 265,595.5C 330.867,525.301 396.367,454.801 461.5,384C 462.167,383.333 462.833,383.333 463.5,384C 479.215,396.716 495.215,409.049 511.5,421C 548.687,442.064 587.353,445.064 627.5,430C 644.964,418.69 651.131,402.857 646,382.5C 644.254,378.673 642.254,375.007 640,371.5C 603.333,337.5 566.667,303.5 530,269.5C 529.333,268.833 529.333,268.167 530,267.5C 542.2,255.632 554.7,244.132 567.5,233C 621.232,195.312 678.565,188.979 739.5,214C 797.483,242.336 831.316,288.503 841,352.5C 844.643,394.263 834.976,432.597 812,467.5C 799.167,485 786.333,502.5 773.5,520C 772.5,520.667 771.5,520.667 770.5,520C 755.499,506.331 738.166,502.331 718.5,508C 695.667,518.493 684.667,536.326 685.5,561.5C 661.618,562.694 645.118,574.36 636,596.5C 635.174,599.793 634.674,603.126 634.5,606.5 Z"/></g>
<g><path style="opacity:1" fill="#74beb2" d="M 727.5,528.5 C 735.206,527.665 742.539,528.831 749.5,532C 768.799,547.575 787.632,563.742 806,580.5C 813.969,595.334 811.469,608.167 798.5,619C 788.776,624.864 779.109,624.864 769.5,619C 750.201,603.425 731.368,587.258 713,570.5C 704.001,551.663 708.834,537.663 727.5,528.5 Z"/></g>
<g><path style="opacity:1" fill="#74beb2" d="M 677.5,584.5 C 685.05,583.543 692.05,585.043 698.5,589C 714.961,602.459 731.128,616.292 747,630.5C 754.913,643.218 754.08,655.385 744.5,667C 734.682,675.182 724.015,676.515 712.5,671C 695.038,656.54 677.872,641.707 661,626.5C 652.283,606.933 657.783,592.933 677.5,584.5 Z"/></g>
<g><path style="opacity:1" fill="#74beb2" d="M 634.5,606.5 C 634.5,610.5 634.5,614.5 634.5,618.5C 632.833,618.5 631.167,618.5 629.5,618.5C 630.568,617.566 631.901,617.232 633.5,617.5C 633.185,613.629 633.518,609.962 634.5,606.5 Z"/></g>
<g><path style="opacity:1" fill="#74beb2" d="M 625.5,641.5 C 633.413,640.416 640.747,641.916 647.5,646C 663.612,659.144 679.446,672.644 695,686.5C 703.779,701.132 701.946,714.299 689.5,726C 680.064,731.601 670.398,731.934 660.5,727C 644.333,713.5 628.167,700 612,686.5C 601.601,673.21 602.101,660.377 613.5,648C 617.157,645.008 621.157,642.841 625.5,641.5 Z"/></g>
<g><path style="opacity:1" fill="#74beb2" d="M 573.5,697.5 C 580.514,696.805 587.181,697.972 593.5,701C 608.256,712.418 622.423,724.585 636,737.5C 644.529,751.424 642.696,763.924 630.5,775C 618.95,782.587 607.617,782.254 596.5,774C 584.093,763.049 571.593,752.215 559,741.5C 548.452,721.673 553.286,707.006 573.5,697.5 Z"/></g>
</svg>
