<?xml version="1.0" encoding="UTF-8"?>
<!DOCTYPE svg PUBLIC "-//W3C//DTD SVG 1.1//EN" "http://www.w3.org/Graphics/SVG/1.1/DTD/svg11.dtd">
<svg xmlns="http://www.w3.org/2000/svg" version="1.1" width="1024px" height="1024px" style="shape-rendering:geometricPrecision; text-rendering:geometricPrecision; image-rendering:optimizeQuality; fill-rule:evenodd; clip-rule:evenodd" xmlns:xlink="http://www.w3.org/1999/xlink">
<g><path style="opacity:1" fill="#fefefe" d="M -0.5,-0.5 C 340.833,-0.5 682.167,-0.5 1023.5,-0.5C 1023.5,340.833 1023.5,682.167 1023.5,1023.5C 682.167,1023.5 340.833,1023.5 -0.5,1023.5C -0.5,682.167 -0.5,340.833 -0.5,-0.5 Z"/></g>
<g><path style="opacity:1" fill="#74beb2" d="M 472.5,46.5 C 611.734,38.513 732.401,81.3463 834.5,175C 942.935,283.276 989.769,414.109 975,567.5C 954.186,714.843 881.686,828.676 757.5,909C 649.641,973.733 533.974,993.399 410.5,968C 268.425,933.221 163.258,851.388 95,722.5C 36.9606,602.215 29.6273,478.882 73,352.5C 115.556,240.614 189.389,156.114 294.5,99C 350.583,70.023 409.917,52.523 472.5,46.5 Z"/></g>
<g><path style="opacity:1" fill="#f9fbfe" d="M 505.5,68.5 C 514.886,66.4419 521.386,69.7753 525,78.5C 525.667,98.8333 525.667,119.167 525,139.5C 520.237,150.421 512.737,152.921 502.5,147C 500.106,145.048 498.606,142.548 498,139.5C 497.333,118.833 497.333,98.1667 498,77.5C 499.642,73.6997 502.142,70.6997 505.5,68.5 Z"/></g>
<g><path style="opacity:1" fill="#fcfdfe" d="M 331.5,140.5 C 336.412,140.063 341.078,140.896 345.5,143C 361.1,157.596 375.6,173.096 389,189.5C 389.898,199.437 385.398,205.103 375.5,206.5C 372.567,206.534 369.9,205.701 367.5,204C 353.333,189.833 339.167,175.667 325,161.5C 321.352,152.556 323.519,145.556 331.5,140.5 Z"/></g>
<g><path style="opacity:1" fill="#fbfcfe" d="M 680.5,140.5 C 690.986,139.011 697.319,143.344 699.5,153.5C 699.17,156.324 698.336,158.991 697,161.5C 683.863,175.638 670.363,189.471 656.5,203C 646.5,208.925 639.333,206.425 635,195.5C 634.159,191.88 634.826,188.546 637,185.5C 651.395,170.274 665.895,155.274 680.5,140.5 Z"/></g>
<g><path style="opacity:1" fill="#fcfdfe" d="M 506.5,205.5 C 509.85,205.335 513.183,205.502 516.5,206C 562.054,224.61 607.72,242.943 653.5,261C 658.062,262.627 660.895,265.794 662,270.5C 662.89,308.182 662.557,345.849 661,383.5C 647.023,470.479 598.856,529.646 516.5,561C 512.5,561.667 508.5,561.667 504.5,561C 419.333,528.214 371.5,466.381 361,375.5C 360.333,340.167 360.333,304.833 361,269.5C 362.442,265.725 364.942,262.892 368.5,261C 414.702,242.723 460.702,224.223 506.5,205.5 Z"/></g>
<g><path style="opacity:1" fill="#74beb2" d="M 510.5,233.5 C 551.687,250.228 593.02,266.562 634.5,282.5C 634.667,313.835 634.5,345.168 634,376.5C 623.605,452.713 582.771,505.047 511.5,533.5C 440.792,505.956 399.958,454.622 389,379.5C 387.594,347.188 387.094,314.855 387.5,282.5C 428.802,266.737 469.802,250.403 510.5,233.5 Z"/></g>
<g><path style="opacity:1" fill="#fbfdfe" d="M 258.5,315.5 C 280.503,315.333 302.503,315.5 324.5,316C 331.759,319.693 334.259,325.526 332,333.5C 329.997,337.592 326.83,340.426 322.5,342C 301.833,342.667 281.167,342.667 260.5,342C 248.035,334.048 247.369,325.215 258.5,315.5 Z"/></g>
<g><path style="opacity:1" fill="#fbfdfe" d="M 560.5,315.5 C 576.445,314.592 581.945,321.592 577,336.5C 548.833,366 520,394.833 490.5,423C 484.734,425.446 479.401,424.779 474.5,421C 463.601,410.77 453.434,399.937 444,388.5C 441.779,374.721 447.613,368.887 461.5,371C 469.599,377.095 477.099,383.928 484,391.5C 509.395,365.938 534.895,340.605 560.5,315.5 Z"/></g>
<g><path style="opacity:1" fill="#fcfdfe" d="M 697.5,315.5 C 719.503,315.333 741.503,315.5 763.5,316C 772.132,321.474 773.799,328.64 768.5,337.5C 766.507,339.499 764.173,340.999 761.5,342C 740.833,342.667 720.167,342.667 699.5,342C 690.035,337.273 687.535,330.106 692,320.5C 693.812,318.7 695.645,317.033 697.5,315.5 Z"/></g>
<g><path style="opacity:1" fill="#fdfdfe" d="M 316.5,836.5 C 322.167,836.5 327.833,836.5 333.5,836.5C 333.829,823.656 333.495,810.989 332.5,798.5C 296.429,744.7 260.595,690.7 225,636.5C 223.366,614.564 223.033,592.564 224,570.5C 231.514,559.378 239.848,558.712 249,568.5C 250.309,587.744 250.976,607.077 251,626.5C 287.726,680.895 324.059,735.562 360,790.5C 360.5,805.496 360.667,820.496 360.5,835.5C 406.167,835.5 451.833,835.5 497.5,835.5C 497.667,796.832 497.5,758.165 497,719.5C 496.275,717.051 495.275,714.717 494,712.5C 462.44,678.939 429.606,646.772 395.5,616C 388.058,614.971 382.558,617.805 379,624.5C 378.146,628.625 378.48,632.625 380,636.5C 403.362,659.528 426.362,682.861 449,706.5C 451.535,712.791 450.368,718.291 445.5,723C 439.804,726.257 434.138,726.257 428.5,723C 379.028,674.528 329.861,625.694 281,576.5C 280.138,574.913 279.471,573.246 279,571.5C 278.976,532.787 278.309,494.12 277,455.5C 273.196,441.864 264.696,432.53 251.5,427.5C 250.952,442.556 250.119,457.556 249,472.5C 242.662,480.459 235.329,481.459 227,475.5C 225.561,473.725 224.561,471.725 224,469.5C 223.333,448.5 223.333,427.5 224,406.5C 226.731,400.053 231.565,397.053 238.5,397.5C 275.361,400.671 297.528,420.337 305,456.5C 305.333,491.833 305.667,527.167 306,562.5C 322.333,578.833 338.667,595.167 355,611.5C 370.904,588.066 391.404,582.899 416.5,596C 448.319,626.986 479.986,658.152 511.5,689.5C 543.347,657.819 575.347,626.319 607.5,595C 628.378,584.316 646.878,587.482 663,604.5C 664.586,606.67 665.92,609.004 667,611.5C 683.362,594.804 700.028,578.471 717,562.5C 717.333,525.833 717.667,489.167 718,452.5C 726.747,419.414 748.08,401.08 782,397.5C 790.395,396.233 796.062,399.567 799,407.5C 799.667,482.5 799.667,557.5 799,632.5C 798.64,634.608 797.973,636.608 797,638.5C 761.667,691.167 726.333,743.833 691,796.5C 689.537,809.735 689.037,823.068 689.5,836.5C 695.842,836.334 702.175,836.5 708.5,837C 715.78,840.731 718.28,846.565 716,854.5C 714.373,859.062 711.206,861.895 706.5,863C 575.833,863.667 445.167,863.667 314.5,863C 305.503,857.851 303.336,850.684 308,841.5C 310.357,838.909 313.191,837.242 316.5,836.5 Z"/></g>
<g><path style="opacity:1" fill="#74beb2" d="M 662.5,792.5 C 661.504,806.657 661.171,820.99 661.5,835.5C 616.167,835.5 570.833,835.5 525.5,835.5C 525.5,797.833 525.5,760.167 525.5,722.5C 526.136,718.219 527.636,714.219 530,710.5C 560.833,679.667 591.667,648.833 622.5,618C 630.249,613.778 636.749,615.278 642,622.5C 643.932,627.139 643.932,631.806 642,636.5C 619.362,660.139 596.362,683.472 573,706.5C 570.381,717.621 574.548,724.288 585.5,726.5C 588.324,726.17 590.991,725.336 593.5,724C 643,674.5 692.5,625 742,575.5C 742.667,574.167 743.333,572.833 744,571.5C 744.333,533.5 744.667,495.5 745,457.5C 748.639,443.362 757.139,433.362 770.5,427.5C 771.667,494.164 771.833,560.831 771,627.5C 735.333,680.833 699.667,734.167 664,787.5C 662.991,789.025 662.491,790.692 662.5,792.5 Z"/></g>
<g><path style="opacity:1" fill="#fbfcfe" d="M 231.5,507.5 C 246.512,506.337 252.345,513.004 249,527.5C 240.552,537.101 232.552,536.767 225,526.5C 223.595,522.928 223.262,519.261 224,515.5C 226.028,512.308 228.528,509.641 231.5,507.5 Z"/></g>
<g><path style="opacity:1" fill="#74beb2" d="M 332.5,798.5 C 333.495,810.989 333.829,823.656 333.5,836.5C 327.833,836.5 322.167,836.5 316.5,836.5C 321.64,835.512 326.974,835.179 332.5,835.5C 332.5,823.167 332.5,810.833 332.5,798.5 Z"/></g>
<g><path style="opacity:1" fill="#74beb2" d="M 525.5,722.5 C 525.5,760.167 525.5,797.833 525.5,835.5C 570.833,835.5 616.167,835.5 661.5,835.5C 661.171,820.99 661.504,806.657 662.5,792.5C 662.5,807.167 662.5,821.833 662.5,836.5C 616.5,836.5 570.5,836.5 524.5,836.5C 524.168,798.33 524.501,760.33 525.5,722.5 Z"/></g>
</svg>
