<?xml version="1.0" encoding="UTF-8"?>
<!DOCTYPE svg PUBLIC "-//W3C//DTD SVG 1.1//EN" "http://www.w3.org/Graphics/SVG/1.1/DTD/svg11.dtd">
<svg xmlns="http://www.w3.org/2000/svg" version="1.1" width="1024px" height="1024px" style="shape-rendering:geometricPrecision; text-rendering:geometricPrecision; image-rendering:optimizeQuality; fill-rule:evenodd; clip-rule:evenodd" xmlns:xlink="http://www.w3.org/1999/xlink">
<g><path style="opacity:1" fill="#fefefe" d="M -0.5,-0.5 C 340.833,-0.5 682.167,-0.5 1023.5,-0.5C 1023.5,340.833 1023.5,682.167 1023.5,1023.5C 682.167,1023.5 340.833,1023.5 -0.5,1023.5C -0.5,682.167 -0.5,340.833 -0.5,-0.5 Z"/></g>
<g><path style="opacity:1" fill="#74beb2" d="M 472.5,46.5 C 611.734,38.513 732.401,81.3463 834.5,175C 942.935,283.276 989.769,414.109 975,567.5C 954.186,714.843 881.686,828.676 757.5,909C 649.641,973.733 533.974,993.399 410.5,968C 268.425,933.221 163.258,851.388 95,722.5C 36.9606,602.215 29.6273,478.882 73,352.5C 115.556,240.614 189.389,156.114 294.5,99C 350.583,70.023 409.917,52.523 472.5,46.5 Z"/></g>
<g><path style="opacity:1" fill="#fbfdfe" d="M 444.5,187.5 C 444.56,188.043 444.893,188.376 445.5,188.5C 446.491,184.555 446.824,180.555 446.5,176.5C 448.569,161.584 456.569,151.084 470.5,145C 485.945,140.444 499.612,143.611 511.5,154.5C 527.924,141.124 545.257,139.957 563.5,151C 569.925,157.029 574.425,164.196 577,172.5C 590.377,165.526 603.543,166.026 616.5,174C 625.967,180.765 631.467,189.931 633,201.5C 633.667,256.833 633.667,312.167 633,367.5C 631.316,376.704 627.149,384.538 620.5,391C 613.039,396.793 605.872,402.959 599,409.5C 597.589,411.65 596.755,413.984 596.5,416.5C 622.835,416.333 649.169,416.5 675.5,417C 682.498,420.23 684.332,425.397 681,432.5C 679.421,434.041 677.587,435.208 675.5,436C 649.169,436.5 622.835,436.667 596.5,436.5C 596.333,467.168 596.5,497.835 597,528.5C 614,545.5 631,562.5 648,579.5C 651.699,588.44 648.866,593.773 639.5,595.5C 637.209,595.378 635.209,594.545 633.5,593C 617.167,576.667 600.833,560.333 584.5,544C 583.5,543.833 582.5,543.667 581.5,543.5C 535.861,555.288 490.195,555.454 444.5,544C 442.5,543.333 440.5,543.333 438.5,544C 421.833,560.667 405.167,577.333 388.5,594C 379.781,596.789 374.781,593.623 373.5,584.5C 373.622,582.209 374.455,580.209 376,578.5C 393,561.5 410,544.5 427,527.5C 427.5,497.168 427.667,466.835 427.5,436.5C 400.498,436.667 373.498,436.5 346.5,436C 338.244,429.206 338.577,422.873 347.5,417C 373.5,416.667 399.5,416.333 425.5,416C 417.031,406.53 408.197,397.363 399,388.5C 395.508,383.185 392.842,377.519 391,371.5C 390.333,318.833 390.333,266.167 391,213.5C 400.379,187.75 418.212,179.083 444.5,187.5 Z"/></g>
<g><path style="opacity:1" fill="#74beb2" d="M 479.5,162.5 C 489.412,161.703 496.578,165.703 501,174.5C 501.667,210.167 501.667,245.833 501,281.5C 496.781,293.193 488.615,297.36 476.5,294C 471.155,290.982 467.655,286.482 466,280.5C 465.333,245.833 465.333,211.167 466,176.5C 468.687,169.981 473.187,165.314 479.5,162.5 Z"/></g>
<g><path style="opacity:1" fill="#74beb2" d="M 534.5,162.5 C 545.291,161.308 552.791,165.641 557,175.5C 557.5,193.497 557.667,211.497 557.5,229.5C 547.7,228.973 538.034,229.806 528.5,232C 526.254,233.039 524.087,234.206 522,235.5C 521.333,215.5 521.333,195.5 522,175.5C 524.353,169.315 528.52,164.982 534.5,162.5 Z"/></g>
<g><path style="opacity:1" fill="#74beb2" d="M 446.5,176.5 C 446.824,180.555 446.491,184.555 445.5,188.5C 444.893,188.376 444.56,188.043 444.5,187.5C 445.167,183.833 445.833,180.167 446.5,176.5 Z"/></g>
<g><path style="opacity:1" fill="#74beb2" d="M 591.5,187.5 C 601.9,186.612 609.066,190.945 613,200.5C 613.667,212.167 613.667,223.833 613,235.5C 608.758,233.085 604.258,231.251 599.5,230C 592.174,229.5 584.841,229.334 577.5,229.5C 577.334,219.494 577.5,209.494 578,199.5C 580.866,193.457 585.366,189.457 591.5,187.5 Z"/></g>
<g><path style="opacity:1" fill="#74beb2" d="M 423.5,203.5 C 433.331,202.722 440.498,206.722 445,215.5C 445.667,237.833 445.667,260.167 445,282.5C 439.21,295.43 430.043,298.597 417.5,292C 414.131,289.635 411.964,286.468 411,282.5C 410.333,260.167 410.333,237.833 411,215.5C 413.744,209.921 417.911,205.921 423.5,203.5 Z"/></g>
<g><path style="opacity:1" fill="#74beb2" d="M 410.5,366.5 C 410.17,347.992 410.503,329.659 411.5,311.5C 427.919,318.024 442.752,315.357 456,303.5C 474.415,319.422 492.915,319.422 511.5,303.5C 524.803,316.074 539.803,318.574 556.5,311C 558.81,310.503 561.143,310.337 563.5,310.5C 563.762,311.978 563.429,313.311 562.5,314.5C 535.331,324.171 517.497,342.837 509,370.5C 505.877,380.326 503.377,390.326 501.5,400.5C 504.031,410.099 509.697,412.599 518.5,408C 522.09,395.488 525.923,382.988 530,370.5C 538.961,348.428 555.128,334.928 578.5,330C 580.378,328.457 581.878,326.624 583,324.5C 583.667,315.5 583.667,306.5 583,297.5C 582.215,295.714 581.049,294.214 579.5,293C 569.934,291.387 560.267,291.053 550.5,292C 536.638,298.816 527.138,294.982 522,280.5C 518.688,266.295 523.522,256.128 536.5,250C 557.167,249.333 577.833,249.333 598.5,250C 605.758,252.924 610.592,258.091 613,265.5C 613.667,299.167 613.667,332.833 613,366.5C 612.044,369.377 610.711,372.044 609,374.5C 600.37,381.461 592.037,388.795 584,396.5C 580.858,401.118 578.524,406.118 577,411.5C 576.5,449.165 576.333,486.832 576.5,524.5C 533.898,534.985 491.231,535.151 448.5,525C 447.971,488.199 447.138,451.366 446,414.5C 444.194,409.554 441.861,404.888 439,400.5C 430.667,392.167 422.333,383.833 414,375.5C 412.336,372.673 411.17,369.673 410.5,366.5 Z"/></g>
<g><path style="opacity:1" fill="#fcfdfe" d="M 771.5,264.5 C 797.21,263.433 814.043,275.1 822,299.5C 823.511,336.656 805.678,354.489 768.5,353C 740.366,343.24 729.533,323.74 736,294.5C 742.56,278.096 754.393,268.096 771.5,264.5 Z"/></g>
<g><path style="opacity:1" fill="#fbfdfe" d="M 236.5,264.5 C 264.286,263.138 281.786,275.804 289,302.5C 290.097,328.487 278.263,345.32 253.5,353C 226.635,355.656 209.135,344.156 201,318.5C 198.085,290.636 209.918,272.636 236.5,264.5 Z"/></g>
<g><path style="opacity:1" fill="#74beb2" d="M 238.5,284.5 C 259.489,283.657 269.656,293.657 269,314.5C 261.618,333.105 248.785,338.272 230.5,330C 216.752,317.223 216.086,303.89 228.5,290C 231.767,287.87 235.1,286.037 238.5,284.5 Z"/></g>
<g><path style="opacity:1" fill="#74beb2" d="M 771.5,284.5 C 793.689,283.188 803.855,293.521 802,315.5C 796.494,330.009 785.994,335.842 770.5,333C 757.035,327.242 751.535,317.075 754,302.5C 757.353,293.982 763.186,287.982 771.5,284.5 Z"/></g>
<g><path style="opacity:1" fill="#74beb2" d="M 411.5,311.5 C 410.503,329.659 410.17,347.992 410.5,366.5C 409.172,347.996 409.172,329.329 410.5,310.5C 411.107,310.624 411.44,310.957 411.5,311.5 Z"/></g>
<g><path style="opacity:1" fill="#fafcfe" d="M 185.5,358.5 C 194.994,357.895 204.328,358.729 213.5,361C 228.604,372.05 244.937,374.384 262.5,368C 268.531,364.984 274.531,361.984 280.5,359C 288.167,358.333 295.833,358.333 303.5,359C 314.263,362.097 321.43,368.931 325,379.5C 325.667,414.833 325.667,450.167 325,485.5C 321.833,496.667 314.667,503.833 303.5,507C 263.833,507.667 224.167,507.667 184.5,507C 173.497,503.329 166.663,495.829 164,484.5C 163.333,449.833 163.333,415.167 164,380.5C 167.324,369.344 174.49,362.01 185.5,358.5 Z"/></g>
<g><path style="opacity:1" fill="#fdfdfe" d="M 718.5,358.5 C 725.508,358.334 732.508,358.5 739.5,359C 747.537,361.52 755.204,364.853 762.5,369C 774.709,372.737 786.709,372.071 798.5,367C 812.921,357.595 828.254,355.928 844.5,362C 852.025,366.522 856.859,373.022 859,381.5C 859.667,415.5 859.667,449.5 859,483.5C 856.707,495.793 849.54,503.626 837.5,507C 797.833,507.667 758.167,507.667 718.5,507C 707.895,503.396 701.062,496.229 698,485.5C 697.333,449.833 697.333,414.167 698,378.5C 702.106,368.893 708.939,362.226 718.5,358.5 Z"/></g>
<g><path style="opacity:1" fill="#74beb2" d="M 188.5,378.5 C 193.844,378.334 199.177,378.501 204.5,379C 223.163,390.666 243.163,393.666 264.5,388C 271.227,385.803 277.561,382.803 283.5,379C 289.944,378.085 296.277,378.419 302.5,380C 303.333,380.833 304.167,381.667 305,382.5C 305.986,416.585 305.652,450.585 304,484.5C 303.097,485.701 301.931,486.535 300.5,487C 262.416,487.987 224.416,487.654 186.5,486C 185.299,485.097 184.465,483.931 184,482.5C 183.333,449.5 183.333,416.5 184,383.5C 185.025,381.313 186.525,379.646 188.5,378.5 Z"/></g>
<g><path style="opacity:1" fill="#74beb2" d="M 721.5,378.5 C 727.176,378.334 732.843,378.501 738.5,379C 760.129,392.07 782.795,394.07 806.5,385C 814.783,378.743 824.116,376.743 834.5,379C 836.333,380.167 837.833,381.667 839,383.5C 839.667,416.167 839.667,448.833 839,481.5C 838.167,485 836,487.167 832.5,488C 795.415,488.987 758.415,488.654 721.5,487C 719.622,485.457 718.122,483.624 717,481.5C 716.333,449.167 716.333,416.833 717,384.5C 718.332,382.34 719.832,380.34 721.5,378.5 Z"/></g>
<g><path style="opacity:1" fill="#fbfdfe" d="M 306.5,564.5 C 333.203,562.091 351.037,573.425 360,598.5C 363.288,625.115 352.455,642.948 327.5,652C 297.737,656.245 279.237,643.745 272,614.5C 270.87,589.087 282.37,572.42 306.5,564.5 Z"/></g>
<g><path style="opacity:1" fill="#fbfcfe" d="M 697.5,564.5 C 724.763,562.033 742.596,573.7 751,599.5C 754.01,625.659 743.176,643.159 718.5,652C 691.792,656.294 673.625,645.794 664,620.5C 659.695,592.354 670.862,573.687 697.5,564.5 Z"/></g>
<g><path style="opacity:1" fill="#74beb2" d="M 308.5,584.5 C 323.239,581.785 333.739,587.118 340,600.5C 342.337,625.498 331.171,635.998 306.5,632C 293.011,623.867 288.845,612.367 294,597.5C 297.705,591.899 302.539,587.566 308.5,584.5 Z"/></g>
<g><path style="opacity:1" fill="#74beb2" d="M 699.5,584.5 C 722.658,582.824 733.158,593.491 731,616.5C 723.51,631.887 711.676,636.72 695.5,631C 682.33,621.827 679.164,609.993 686,595.5C 689.702,590.748 694.202,587.082 699.5,584.5 Z"/></g>
<g><path style="opacity:1" fill="#fcfdfe" d="M 255.5,658.5 C 263.507,658.334 271.507,658.5 279.5,659C 287.956,663.111 296.622,666.778 305.5,670C 313.888,670.831 322.221,670.497 330.5,669C 337.859,665.619 345.193,662.286 352.5,659C 360.167,658.333 367.833,658.333 375.5,659C 386.64,662.14 393.807,669.307 397,680.5C 397.667,714.5 397.667,748.5 397,782.5C 394.279,795.554 386.446,803.721 373.5,807C 334.833,807.667 296.167,807.667 257.5,807C 246.333,803.833 239.167,796.667 236,785.5C 235.333,750.5 235.333,715.5 236,680.5C 239.163,670.172 245.663,662.839 255.5,658.5 Z"/></g>
<g><path style="opacity:1" fill="#fcfdfe" d="M 646.5,658.5 C 654.84,658.334 663.173,658.5 671.5,659C 678.652,662.077 685.652,665.41 692.5,669C 700.77,670.537 709.103,670.87 717.5,670C 726.378,666.778 735.044,663.111 743.5,659C 751.167,658.333 758.833,658.333 766.5,659C 778.535,662.369 785.702,670.202 788,682.5C 788.667,716.5 788.667,750.5 788,784.5C 784.401,796.433 776.568,803.933 764.5,807C 726.833,807.667 689.167,807.667 651.5,807C 639.09,805.258 630.923,798.424 627,786.5C 626.333,750.5 626.333,714.5 627,678.5C 628.815,674.204 631.148,670.204 634,666.5C 638.01,663.422 642.177,660.755 646.5,658.5 Z"/></g>
<g><path style="opacity:1" fill="#74beb2" d="M 260.5,677.5 C 265.511,677.334 270.511,677.501 275.5,678C 302.491,694.637 329.491,694.637 356.5,678C 362.281,677.097 367.947,677.43 373.5,679C 375.049,680.214 376.215,681.714 377,683.5C 377.986,716.919 377.652,750.252 376,783.5C 374.833,784.667 373.667,785.833 372.5,787C 334.416,787.987 296.416,787.654 258.5,786C 256.959,784.421 255.792,782.587 255,780.5C 254.333,748.5 254.333,716.5 255,684.5C 256.666,682.004 258.5,679.671 260.5,677.5 Z"/></g>
<g><path style="opacity:1" fill="#74beb2" d="M 651.5,677.5 C 656.844,677.334 662.177,677.501 667.5,678C 694.093,694.612 720.759,694.612 747.5,678C 753.755,676.873 759.755,677.54 765.5,680C 766.701,680.903 767.535,682.069 768,683.5C 768.979,716.894 768.645,750.227 767,783.5C 765.681,785.487 763.848,786.654 761.5,787C 724.082,787.987 686.749,787.654 649.5,786C 648.213,784.59 647.046,783.09 646,781.5C 645.333,748.833 645.333,716.167 646,683.5C 647.36,680.977 649.193,678.977 651.5,677.5 Z"/></g>
</svg>
