<?xml version="1.0" encoding="utf-8"?>
<!DOCTYPE svg PUBLIC "-//W3C//DTD SVG 1.1//EN" "http://www.w3.org/Graphics/SVG/1.1/DTD/svg11.dtd">
<svg version="1.1" xmlns="http://www.w3.org/2000/svg" xmlns:xlink="http://www.w3.org/1999/xlink" x="0px" y="0px" viewBox="0 0 256 256" enable-background="new 0 0 256 256" xml:space="preserve">
<metadata> Svg Vector Icons : http://www.onlinewebfonts.com/icon </metadata>
<g><g><path fill="#FFFFFF" d="M128,10C62.8,10,10,62.8,10,128c0,65.2,52.8,118,118,118c65.2,0,118-52.8,118-118C246,62.8,193.2,10,128,10z M128,239.3c-61.5,0-111.3-49.8-111.3-111.3C16.7,66.5,66.5,16.7,128,16.7c61.4,0,111.3,49.8,111.3,111.3C239.3,189.5,189.4,239.3,128,239.3z M172.4,123.3c-5.9-3.4-55.9-39.6-59.4-41.5c-4.3-2.5-8.6,0.7-8.6,4.9v83.3c0,4.6,4.8,6.9,8.5,4.8c5-2.8,55.3-39.2,59.6-41.7C176.2,130.8,176.2,125.5,172.4,123.3z"/></g></g>
</svg>