<?xml version="1.0" encoding="UTF-8"?>
<svg version="1.1" viewBox="0 0 1024 1024" width="1280" height="1280" xmlns="http://www.w3.org/2000/svg">
<path transform="translate(0)" d="m0 0h1024v1024h-1024z" fill="#F9FBF7"/>
<path transform="translate(474,202)" d="m0 0 4 1 14 13 8 7 10 9 4-2 8-7 20-18 4-3 5 2 16 13 11 9 16 13 13 10 11 9 14 11 15 12 14 11 5 3 27 8 24 8 7 2v314l-2 15-5 16-8 22-10 24v2l4-6 5-2-1 10-3 15h3l1-8 8-32 7-27 5-16 5-18 6-18h4l9 10v2l4 2 8 10-2 4-10 8-2 2v6l10 10 1-6 8-16 6-11 4 1 5 6 1-19 3-18 7-25 2-8 4 1 6 5h1l-4-18-2-25v-21l1-22 5 2 6 5-1-3-5-14-11-43v-4l5 1 10 7-12-16-6-11-7 1-10 5-5 1-8-9-9 3-9 4-7-1v-3l11-5 13-6 6 2 5 6 9-3 11-6h4l6 9 5 9 10 11v2h2v2l4 2 6 4-2-6-3-6 3 1 2 2-4-9-9-10-1-3-4-2-13-10-8-5v-2l-6-2-3-2 1-5 6-12 5-4 10-4h9l7 4 5 8 4 11 2 7v7h4l-5-19-6-16v-9l4-14 7-12 9-11 3-3 4 1 6 8 6 12 4 17v21l7-8h2l6 15 4 16v25l-3 13h2l2-4 4-4h2l4 13 2 7 1 8v19l-4 17-2 6h2v-2l5-3h3l1 14v15l-3 17-6 16-3 7h2v-2l5-3h3v13l-3 17-5 14-8 14-6 7h-2v2l6-3h3l-1 11-5 18-7 13-9 12 3 1-2 6-5 9h-2l-2 5-9 11-10 8-1 2 4 2v3l-13 5-8 1 4 4 6 4-6 7-11 9h-3v2l-15 7-11 4 11 6v4l-14 8-15 8-8 3h-3l3 3 3 2v2l13-9 10-5h25l11-4 9-5 2-2 5 1-3 16-5 15-5 11 24 1 3 5-4 7-12 12-9 8-4 3h-3v2l-9 5-14 8-10 4h-2l-2 11-3 6-5 6-9 5-5 1h-16l-6-2-8-5-4-5-3-7-1-5v-9l1-7-16 1 6 4v2l3 1 5 10 2 7v11l-3 13-8 11-9 6-8 3h-16l-8-4-7-8-1-5v-13l5-8 3-3h2v-2l12-5h12l6 4 2 5v9l-3 6-6 5-6 3-12 1-5-1 2 4 5 3h15l9-5 6-7 4-11v-11l-4-9-7-6-2-1h-20l-12 4-9 5-5 2v2h-3v2l-11 8h-2v2l-19 14-18 8-13 3-9 1-8 7-25 25h-2l-2 4-10 9-18 18-4 3h-2v-2l-4-1-53-53-8-7-3-3-19-3-12-4-6-3v-2l-6-2-13-10-18-14-10-6-10-5-7-2h-20l-6 4-5 6-1 3v18l4 8 4 5 7 5 3 1h15l4-1 3-6-9 1-11-2-8-6-4-8v-8l4-7 5-2h11l9 3 7 5 4 6 2 6v13l-5 8-4 4-6 3-10 1-14-3v-2l-4-1-8-7-4-5-4-10-1-6v-11l3-10 6-9 7-5h-16l1 11-3 14-6 8-10 5-4 1h-15l-10-3-9-8-4-10-1-8-6-1-13-7-14-8v-2h-3v-2h-3v-2l-5-2-10-8v-2h-2v-2h-2v-2h-2l-5-7v-2h-2l1-5 2-2h14l9-2-2-6-6-16-3-13v-7l5 1 10 6 12 4h25l9 5 12 7 3 1 3-6-10-3-14-7-10-6-6-3 1-4 10-6v-1l-7-2-10-4-12-7-13-11-2-2 1-4 7-4 1-2-9-1-10-4-1-4 2-4-13-11-10-13-6-11-1-4 2-1-2-4-6-8-8-18-5-18v-6l6 1h2l-8-9-8-14-4-13-3-18v-12l5 2 6 4-6-12-5-17-2-13v-13l1-14 5 1 3 2v2l2-1-3-8-3-19v-14l3-16 4-12 4 2 4 3v2h2l-3-15v-17l3-16 6-18 1-2 4 2 6 6-1-6v-13l3-15 5-12 6-10 3-4 4 2 8 9v2h2l7 11 6 18v7l-7 18-4 18h3l1-9 5-14 4-8 6-5 3-1h8l11 4 7 8 5 10v3l-6 3-19 13-10 8-7 7-6 10-1 7h3l-4 7 11-8 7-7 7-10 6-10 4-6 4 1v2l7 2 9 5 4 1 2-5 3-3 5-1 16 8 8 3-2 4-7-1-10-4-6-4-2 4-5 6-7-1-8-3-3-2-5-1-2 6-7 11-8 10 4-2 7-5h4l-2 11-2 5-3 14-3 11-4 13-6 12 4-3h2v-2l5-3h2l1 44-1 21-4 17v4l3-1 1-3 4-3h2l5 18 4 14 3 17 1 22 7-9 4 4 6 12 5 11 4 12v8h2l2-5h2v-2l4 1 8 9 7 11 4 9 3 8 1 8 1 22-2 5 10 8 5 3-10-16-2-3v-3l11-3-8-25-4-16-7-24-6-20-6-21v-2h-2l-2 4-6 8 1 4 7 7 4 14-1 4-2-4-4-4-6-9-10-9 1-4 9-10 7-8 5-5h3l5 17 5 18 12 41 11 44 2 1-4-20v-6l5 2 3 5-3-9-6-16-7-17-6-20-2-13v-317l27-8 33-11 16-13 4-1v-2l13-10 16-13 13-10 11-9 10-8 16-13 13-11z" fill="#031F3A"/>
<path transform="translate(316,778)" d="m0 0h20l18 3 21 7 17 9 9 5 8 5 6 3 14 8 12 5 24 8 14 3 17 2h28l18-2 22-5 20-6 19-10 21-11 8-5 16-8 16-6 17-4 12-1h11l16 2 13 4 12 6v2h3v2l4 1v2l4 2 2 3-6-2 5 5 3 2-1 3-5-4-4-2v2h2v2l5 2 5 5 2 3-6-2-6-3 6 4v2l4 2 5 6h-3l-9-6 7 6v2l4 2 2 4-8-4 10 11h-3l-4-1 8 9 1 4-2-1v-2l-4-2-6-2 9 7 4 4 1 6-3-2v-2l-4-2-9-5-9-4-15-4-7-1h-23l-16 3-19 7-13 6-8 3-10 5 4 1-13 7-3-1 5-2h-3l-28 14-19 7-25 6-22 3h-49l-25-4-21-6-16-6-21-10-5-3-17-9-16-8-15-6-16-5-13-2h-23l-16 3-9 3h-3v2l-11 6h-3v2l-6 6v-6l5-5 2-3-5 2 1-4 5-6 4-1v-2l-7 4-2-1 6-7 4-4h3-4l-6 4 1-4 5-6h2v-3l-6 5 1-4 6-7 4-4-5 3-3 3h-2l2-4 5-5 4-5-8 5 2-5 3-5 8-8h2v-2l14-7 13-4z" fill="#F4F7F5"/>
<path transform="translate(547,530)" d="m0 0h143v90l-4 16-8 17-9 11-10 10-10 8h-2v2l-11 7-4 3h-2v2l-9 6-14 10-34 25-12 9h-2v2l-11 7-5 4h-2v2l-9 6-3 1v-209l5-4h2v-2l7-4 2-3 1-13z" fill="#F6F8F5"/>
<path transform="translate(333,530)" d="m0 0h142l1 1 2 16 7 6 7 4v210l-11-7-6-5-2-1v-2l-5-2-8-6-2-1v-2l-5-2-18-14-17-12-19-14-5-3v-2l-5-2-19-14-9-7-6-5-9-12-4-6-6-14-3-13z" fill="#F6F9F6"/>
<path transform="translate(623,319)" d="m0 0 7 1 16 8 9 4 27 11 8 3v154h-141v-21l-14-2-12-4-5-3v-87l11-8 13-8 8-4 30-18 12-7 9-6 9-5 12-7z" fill="#0C2844"/>
<path transform="translate(389,321)" d="m0 0 6 1v2l5 2 25 16 17 11 3 1v2l4 1 22 14 15 10v96l-8 2h-5v22h-140l-1-72v-79l1-4 28-11 14-6 13-7z" fill="#F4F7F5"/>
<path transform="translate(381,287)" d="m0 0 4 1 12 8 7 4 13 8 16 11 7 4 11 7 9 6 7 4 14 10 9 5 18 12 4-1 23-14 26-16 20-12 21-13 24-15 13-8 4 2 5 3-1 3-23 13-18 11-23 14-20 12-24 14-19 11-7 4-7 1-6-3 1 4 2 1v2l3 1v89l-9 4-5 1-1-97-21-14-19-12-15-10-24-15-21-14-6 1v2l-17 8-18 8-24 9h-3l1 269 3 19 5 16 7 13 7 9 9 10 21 16 17 12 16 12 17 12 13 10 14 10 56 42 6-1 19-14 16-12 14-10 16-12 7-5h2v-2l9-6 12-9 10-7 18-13 24-18 10-9 8-9 7-11 6-13 4-16 2-12v-271l-13-4-20-8-13-5-5-3-8-3-6-3 1-3 8-4 1-1 8 1 12 4 8 3 36 13v302l-4 16-4 12-7 12-7 9-9 10-5 4h-2v2l-9 6-4 3h-2v2l-5 3h-2v2l-7 4-4 2v2l-11 7-10 8-9 6h-2v2l-9 6-12 9h-2v2l-9 6-4 3h-2v2l-6 4-4 3h-2v2l-5 3h-2v2l-5 3-16 12h-2v2l-6 4-3 1v2h-3v2l-4-1v-2l-5-2-6-4v-2l-4-2-19-14-16-12-38-28-10-7-13-10-36-26-16-12-11-11-9-13-7-16-4-18v-302l21-7 12-5 13-5 10-4 5-1-1-3-7-4 5-5 6-5h2z" fill="#F5F8F6"/>
<path transform="translate(401,544)" d="m0 0h12l14 2 15 6 12 9 9 10 6 10 4 9 2 10v19l-3 14-6 11-9 10-5 3h6l2 3v7l-2 5-6-1-28-1v3h10l6 3 2 4v7l-1 1h-48l-1-1v-9l3-4 5-1h8v-3h-27l-9-4-6-4-2-2v-5l7-9 7 1 3 3 1 4 18 1v-2l-9-3-5-2v-2l-5-1v-2l-5-2-7-8-5-10-3-10v-18l3-12 5-10 5-7 15-10 11-3v-8z" fill="#04203C"/>
<path transform="translate(596,558)" d="m0 0h20l15 4 11 7 10 9 6 8 5 9 4 17v15l-4 16-6 12-9 11-9 7-12 6-16 3h-13l-14-3-14-7-10-9-7-9-6-11-3-13v-21l3-12 8-14 9-10 6-5 6-2v-2l7-3z" fill="#031E39"/>
<path transform="translate(623,319)" d="m0 0 7 1 16 8 9 4 27 11 8 3v154h-141v-21l-14-2-12-4-5-3v-87l11-8 13-8 8-4 30-18 12-7 9-6 9-5 12-7zm-49 47-20 3-7 3-8 7-4 5-3 1v82l64 1 4 5 1 18 4-2 4-1 2 3h3l1-19 3-4 62-1v-82l-5-5-6-7-13-5-6-1h-26l-14 4-5 1-5-3-9-2z" fill="#F2F5F3"/>
<path transform="translate(409,356)" d="m0 0 4 1 2 3v3h2l3 6 8 13 2 3v3h2l4 7 4 5-1 64-4 3v14l-4 3-3 1h-35l-5-2-2-2v-11l1-4-4-2-1-1v-63h2l1-4 8-13 8-14 6-9z" fill="#04203B"/>
<path transform="translate(381,287)" d="m0 0 4 1 12 8 7 4 13 8 16 11 7 4 11 7 9 6 7 4 14 10 9 5 18 12 4-1 23-14 26-16 20-12 21-13 24-15 13-8 4 2 5 3-1 3-23 13-18 11-23 14-20 12-24 14-19 11-7 4-7 1-6-3 1 4 2 1v2l3 1v89l-9 4-5 1-1-97-21-14-19-12-15-10-24-15-21-14-3-1v-2l-5-2-7-2-1-3-7-4 5-5 6-5h2z" fill="#81B6DA"/>
<path transform="translate(751,249)" d="m0 0 7 1 18 8 12 6 9 6 10 9 8 10 5 10 4 17v18l-2 10-18 7-15 4h-17l-14-4-7-4 3-9 4-10 2-14 7 2 20 12 14 8 7 1-16-8-12-9-9-9-3-4v-3h-2l-8-16-5-15-3-17v-6z" fill="#031E3A"/>
<path transform="translate(268,249)" d="m0 0h5l-1 15-4 18-11 22-7 9-10 10-7 5-11 6-6 3-1 2 9-4 12-6 10-7 15-8h3l1 13 4 11 3 5v4l-16 7-6 1h-15l-15-4-10-3-8-4-2-7v-23l3-12 4-10 6-9 8-9 12-9 12-6 9-4 10-5z" fill="#031E39"/>
<path transform="translate(404,562)" d="m0 0h16l11 4 11 8 6 7 4 8 2 6v16l-4 11-9 11-10 6-7 3h-19l-11-4-8-5-10-13-3-8v-19l5-12 1-2h2l2-4 7-7 11-5z" fill="#F7FAF7"/>
<path transform="translate(625,372)" d="m0 0h25l13 4v70h-31l-10 2-8 5-2 3h-2v-78l10-5z" fill="#EEF4F3"/>
<path transform="translate(565,372)" d="m0 0h24l11 3 4 3v77l-5-2v-2l-4-1-8-3-10-2h-15v1h-11v-70l8-3z" fill="#F1F6F5"/>
<path transform="translate(507,116)" d="m0 0h8l10 3 8 6 4 5 3 7 1 11-3 9-6 11-1 2-1 19-1 1-1 9-7 6-3 1h-14l-5-2v-2l-4-2-1-5v-7h-2l-1-20-9-16v-13l4-10 5-6 7-4z" fill="#031E3A"/>
<path transform="translate(511,244)" d="m0 0 3 1 12 12 11 9 13 13 8 7 23 23-1 2-12-9-16-10-22-14v1l9 11 2 4-5-3-11-14-6-10-4-8-1-1-1 2-1 14v60l-2-1-5-26-1-4-10 12-10 13-3 2-19-19v-3h2l2-4 11-12 3-3-4 2h-3v2l-5 3h-3v2l-7 4-9 5h-2v2l-5 3 1-4 4-2 2-4 17-17 8-7 15-14 17-16z" fill="#F2F6F5"/>
<path transform="translate(510,480)" d="m0 0 12 6 15 5v24l-2 24-2 3-7 4-9 7h-2v2l-4 2-10-8-13-9-2-13-2-23v-13l16-5 8-4z" fill="#F3F7F5"/>
<path transform="translate(86,627)" d="m0 0h4v2h2l10 13 11 14 3 4h10l6 4 3 6 1 10 5 6 7 5 11 4 3 7 1 9 6 1 5 5 2 3v11l-2 6 9 9 6 4v2h3v2l4 1 15 8v4l-7-1-16-8-13-10-6-6-12 1-8-3-4-5-1-11-8-10-9-12-11-15-5-3-3-5v-8l2-5-1-4-13-16-1-4h-2l-8-11z" fill="#07243F"/>
<path transform="translate(933,627)" d="m0 0 5 1-1 5-14 18-8 10-2 4 2 4v11l-5 6-6 4-10 14-15 20h-2l1 2v9l-4 5-7 3h-7l-6-1-10 10-4 1v2l-13 8-11 4-5-1 2-4 11-5 10-6 11-9 4-4-2-7v-11l4-6 5-3h4l1-9 3-7 13-5 10-9 1-1 1-13 7-6 11-1 9-11 11-14z" fill="#082440"/>
<path transform="translate(528,560)" d="m0 0h1v209l-10 8h-2l1-210z" fill="#558CB3"/>
<path transform="translate(316,778)" d="m0 0h20l18 3 21 7 17 9 9 5 8 5 6 3 14 8 12 5 24 8 14 3 17 2h28l18-2 22-5 20-6 19-10 21-11 8-5 16-8 16-6 17-4 12-1h11l16 2 13 4 12 6v2h3v2l4 1v2l-6-2-8-4-15-5-13-2h-25l-15 3-15 5-16 7-18 10-14 8-15 8-21 8-21 5-21 3-14 1h-12l-21-2-23-5-18-6-25-12-18-11-18-10-14-6-14-4-11-2-21-1-21 3-16 6-11 6-5 4 2-4 5-5h2v-2l14-7 13-4z" fill="#E8F0F1"/>
<path transform="translate(496,561)" d="m0 0 9 5 2 2-1 211-8-6-2-2z" fill="#7FB5D9"/>
<path transform="translate(201,788)" d="m0 0 12 3h24l4 1v2l6 2 7 4v2l-5-1 3 4-1 4-4 1-2-1 4 4v3l-4-1h-1l3 5v2l-7-2v2l4 2 1 4-5-2-5-3-2-1v2h2v2l4 1v2l5 2v2l-4-1-6-3 1 3h3l5 5v2h-3l-1-2-9-4 10 7v2l-5-1-8-4 1 1v2l5 1 7 4v3l-7-1 5 4v2l-6-2-16-8-11-7-13-10-1-2 17-3 8-3-8-14-7-13z" fill="#E6EFF1"/>
<path transform="translate(820,788)" d="m0 0h2l-1 5-8 15-4 5-1 5 11 4 13 2-5 6-8 6-11 6-15 8-5 2-4-1 13-8-10 5h-3l1-3 8-6-8 5h-4l1-3 9-6 3-3-11 7-3 1 2-5 8-6h2v-2l-11 8-2-1 2-4 6-5 1-2h2v-2l-4 1v2l-7 5h-2l1-5h-2v-4l5-6-6 2-2 1 1-4 8-8-2 1h-3v2l-5 3-1-5 10-7-8 4-4 1v-3l14-9 2-1h25z" fill="#E3EDF0"/>
<path transform="translate(474,213)" d="m0 0 6 4v2l4 2 9 9 8 7 2 3-9 8-6-4-9-10-5-5v-2h-2l-1 6-11 23-6 10-1 2 6 2-1 3-26 14-6 3-3-1 13-12 15-15 1-2-35 9-12 4-4-1 16-12 14-11 9-7 1-2 5-3 13-11 11-9z" fill="#F3F7F6"/>
<path transform="translate(895,500)" d="m0 0h1v9l-4 11-9 15-11 14-11 11-4 3h-2l-1 2-1-2 3-10-1 1-3 5-4 21-6 25-6 17-7 18 5-1-5 7-6 5-4 6-7 11-4 7-2 4h5l1 2-5 2v2l-4 1v2l-6 4-10 10-1 2h-2l-2 4-17 17-11 9-5 2v2l-13 9h-2l2-4 17-13 15-13 18-18 13-17 14-22 7-12 9-19 7-19 6-21 3-15 1-9v-17l2 1 2 4 11-21 8-10 10-10 11-8h2v-2z" fill="#EBF2F3"/>
<path transform="translate(127,499)" d="m0 0 8 6 14 11 8 8 6 8 9 19 2 3 2-6h1l1 20 3 19 7 24 4 13 6 12 6 13 7 12 7 10 1 4h2l3 5 1 4h2l4 7 12 14 7 7 8 7 9 8 9 6v2l4 2 10 8-3 1-4-2v-2l-8-4v-2l-4-2-9-7-13-12-18-18v-2h-2l-5-5-9-7-3-3 4-2-1-5-18-27-5-3-2-4h4l-3-10-4-8-6-18-5-19-4-24-3-4 1 7-4-1-8-7-9-9-8-10-7-11-5-12-2-6z" fill="#E1ECEF"/>
<path transform="translate(512,255)" d="m0 0h1l-1 19v60l-2-1-5-26-1-4-10 12-10 13-3 2-19-19v-3h2l2-4 11-12 3-3-1-2 17-11 5-2-3 5-6 7h-2l-3 6 7-8h2l2-4 7-10 6-11z" fill="#81B6DB"/>
<path transform="translate(278,615)" d="m0 0h2l6 19 4 14 8 27 7 26 7 22v1l-12 2 4 8 8 12v2l-5-2-11-9 2-5-1-22-2-11-5-12-6-10-8-10-5-3v2l-3 3-1 2h-2l-2-14 5-2 5-4h2l1-3 5 6-4-16-8-8 1-5z" fill="#5990B6"/>
<path transform="translate(505,124)" d="m0 0h11l9 4 5 6 3 8v7l-4 10-4 6-2 11-1 1h-8l1-19 6-4-1-3-4 1-4 2-4-1-7-3 1 5 6 4v18l-9-1-1-9-7-12-1-3v-14l7-10z" fill="#80B5DA"/>
<path transform="translate(261,260)" d="m0 0h3l-1 9-4 13-8 16-9 11-9 8-13 8h-3v-2h2l2-4 6-10 1-6h-2l-2 5-8 8h-1v-8l4-13 6-9 11-11h2l1-3 13-8z" fill="#81B6DA"/>
<path transform="translate(759,259)" d="m0 0 16 8 14 10 9 8 7 11 3 10v9l-7-6-4-5-2-1 4 11 7 9 1 2-6-2-9-5-10-8-8-9-8-14-6-18z" fill="#82B7DB"/>
<path transform="translate(639,288)" d="m0 0 4 2 5 3-1 3-23 13-18 11-23 14-20 12-24 14-19 11-7 4-3-1v-6l10-7 15-9 26-16 20-12 21-13 24-15z" fill="#7DB3D7"/>
<path transform="translate(333,508)" d="m0 0h141v11l-141-1z" fill="#83B8DC"/>
<path transform="translate(689,508)" d="m0 0h1v10h-142v-9z" fill="#84B9DD"/>
<path transform="translate(887,436)" d="m0 0h2l1 5v9l-3 12-9 17-8 11-7 9-3 2v-14l-4 4-1 29-1 5-2-1-1-33-3-14-7-14-1-4h-2l-2-5 9 6 9 2 1 24h2l1-7 4-8 3-8 8-11 9-10z" fill="#EBF2F3"/>
<path transform="translate(134,435)" d="m0 0 3 1 7 8 8 9 6 9 5 11 4 9v3h2l1-23 9-2 6-4 2-1-1 4h-2l-1 4h-2l-1 4-4 7-3 12-1 7-1 32-2-3-1-7v-26h-2v-2h-2l1 4-1 10-7-6-12-17-7-14-4-14z" fill="#E5EEF1"/>
<path transform="translate(381,287)" d="m0 0 4 1 12 8 7 4 13 8 16 11 7 4 11 7 9 6 7 4 14 10 9 5 21 14v5l-2 2-5-1-2-1v-2l-5-2-11-7-17-11-15-10-7-5-9-5-15-10-23-14-22-14-2-2 3-3h2z" fill="#F4F8F6"/>
<path transform="translate(743,615)" d="m0 0 3 2v2h2l4 6 2 2-1 4-5 5-3 4-3 9-8 28-5 14-2 13-1 21-1 7 2 3-1 4-14 10-1-2 11-18v-3l-10-2 1-7 9-31 10-35 10-34z" fill="#ECF2F3"/>
<path transform="translate(510,480)" d="m0 0 12 6 15 5v24l-2 24-2 3-7 4-9 7h-2v2l-4 2-10-8-13-9-2-13-2-23v-13l16-5 8-4zm-1 9-6 4-13 4 2 29 1 11 13 10 5 3 5-2 3-2v-2l5-2 5-4 2-14 1-14v-12l-2-2-14-5-4-2z" fill="#DDE8EC"/>
<path transform="translate(411,407)" d="m0 0 9 5v54h-19v-54l7-2z" fill="#83B8DC"/>
<path transform="translate(812,501)" d="m0 0 5 4 6 8 1 3h2l7 14 5 18 1 14-1 8-3-3-8-25 1 7 4 20v6l-3-4-8-12-6-12-3-11-1-6v-28z" fill="#EAF1F2"/>
<path transform="translate(210,501)" d="m0 0h2v30l-3 14-8 17-9 12-1-2 6-31v-3l-9 30-2 2-1-1v-20l4-16 8-16 12-14z" fill="#E8F0F2"/>
<path transform="translate(546,214)" d="m0 0 5 2 26 22 16 12 16 13 11 8-2 1-12-4v-2l-5-1-9-6-18-13-14-11-8-6-5 1-7 8-9 10-5-2-6-7 18-18z" fill="#F4F8F6"/>
<path transform="translate(707,830)" d="m0 0 4 1v1l-20 4-19 7-13 7-14 8-18 11-19 10-23 9-28 7-29 4h-35l-18-2-25-5-21-7-38-18-21-11-25-10-12-4-12-2h-27l-12 2-18 7-6 3-4-1 11-6 12-5 14-3 8-1h15l20 3 21 7 29 14 38 19 21 8 25 6 14 2 13 1h29l20-2 26-5 20-6 17-7 15-8 14-7 10-6 18-11 15-7 15-5z" fill="#6DA3C9"/>
<path transform="translate(219,579)" d="m0 0h2l7 24 1 6v20l-3 13h-2l-1 4-3-8-4-16-1-7 1 16 1 9h-3l-4-9-1-4v-24l4-13z" fill="#E9F1F2"/>
<path transform="translate(802,578)" d="m0 0 4 4 5 10 3 11 1 16-2 11-5 12h-1l1-26-4 20-3 10h-2l-4-13-1-5v-18l4-19z" fill="#EBF2F3"/>
<path transform="translate(150,374)" d="m0 0 7 6 7 7 9 13 2 6v15l-5 14-2 1-6-11-8-17-4-14-1 8 1 8-2-2-1-4v-18z" fill="#7DB2D6"/>
<path transform="translate(785,791)" d="m0 0h33v2h-2v2l-5 5-8 9h-2v2l-2 1-1 3-10 7h-2v2l-7 5h-2l1-5h-2v-4l5-6-6 2-2 1 1-4 8-8-2 1h-3v2l-5 3-1-5 10-7-8 4-4 1v-3l14-9z" fill="#E6EFF1"/>
<path transform="translate(685,783)" d="m0 0h25l17 3 16 6 7 4 5 2 3 4-5-2-7-2-14-7-15-4-9-1h-20l-20 4-15 5-17 8-21 12-16 9-18 8-19 6-26 5-8 1h-35l-19-3-23-6-16-6-22-12-4-4 5 2 22 11 20 7 21 5 12 2 14 1h12l23-2 25-5 17-5 20-9 20-11 14-8 14-7 15-6 15-4z" fill="#71A7CC"/>
<path transform="translate(871,376)" d="m0 0h3l2 5-1 11-2 8-6 16-11 21-2-3-5-13v-13l4-10 5-8 11-12z" fill="#7EB3D7"/>
<path transform="translate(129,564)" d="m0 0 6 2 17 9 8 4 9 7 4 4 1 8-5-2-6-4-8-4 14 12 7 8 1 4-12-5-10-6-12-11-7-10 2 8-3-3-4-9z" fill="#7CB1D6"/>
<path transform="translate(891,565)" d="m0 0h2v9l-3 1-6 10-8 10-11 9-12 6-7 2 1-4 13-13 10-7-5 2-10 6-7 4 1-6 4-6 8-7 12-7 16-8z" fill="#E5EEF1"/>
<path transform="translate(176,258)" d="m0 0h7l8 4 4 8v7l-4 8-5 3-2 1h-10l-6-4v-2h-2l-2-6v-8l6-9z" fill="#04203B"/>
<path transform="translate(203,790)" d="m0 0 10 1h24l4 1v2l6 2 7 4v2l-5-1 3 4-1 4-4 1-2-1 4 4v3l-4-1h-1l3 5v2l-6-2-11-7-12-7-13-14z" fill="#EBF2F2"/>
<path transform="translate(841,258)" d="m0 0 9 1 5 3 3 5 1 9-3 8-5 4-3 1h-10l-6-4-3-5-1-3v-8l3-6 5-4z" fill="#04203B"/>
<path transform="translate(551,228)" d="m0 0 5 3 18 14 18 13 9 6 5 2-4 1-32-8 3 5 5 5 10 9 12 12-6-2-20-10-9-6 1-3 5-1-2-5-9-14-9-19z" fill="#5990B6"/>
<path transform="translate(471,228)" d="m0 0 1 2-9 20-10 18 6 2-1 3-26 14-6 3-3-1 13-12 15-15 1-2-20 5-4-1 4-2 5-5 12-11 11-9z" fill="#7FB4D8"/>
<path transform="translate(278,615)" d="m0 0h2l6 19 4 14 8 27 4 14v9h-6l-11-34-3-11-3-9-3-7-7-7 1-5z" fill="#F0F5F4"/>
<path transform="translate(852,678)" d="m0 0h2l-2 4-8 9-15 10-13 5-8 1h-9l2-2 10-5h-15v-2l9-6 14-7 21-5z" fill="#F0F5F4"/>
<path transform="translate(410,372)" d="m0 0 3 2 3 7 4-2 9 16 4 6v3l-4-2-5-4-2 5-5 2-4-5-4 1-4 4-4-2-3-3-4 1-2 3h-3l1-6 5-7 3-6 3-5h3v2h2l3-9z" fill="#F0F5F4"/>
<path transform="translate(874,628)" d="m0 0h3l-2 6-8 11-8 8-14 8-5 2h-4v-2l7-5-14 3h-4v-2l5-5 11-10 7-4 10-5z" fill="#EFF5F4"/>
<path transform="translate(588,622)" d="m0 0h34v12l-2 10h-29l-3-14z" fill="#82B7DC"/>
<path transform="translate(407,551)" d="m0 0h12l13 4 9 5 10 9 7 8 4 6 4 11 1 5v22l-3 11-6 11-5 5-8 6-3 1h-13l5-5 4-1v-2l7-4 8-8 8-15 1-6v-17l-3-9-5-10-9-10-6-5-10-5-17-3h-5z" fill="#E1ECEF"/>
<path transform="translate(169,679)" d="m0 0h8l20 4 13 5 12 7 5 5h-16l3 4 3 2h-9l-16-6-11-8-6-5z" fill="#EDF3F3"/>
<path transform="translate(844,579)" d="m0 0 2 3v8l-7 24-10 26 5-1-5 7-6 5-4 6-7 11-4 7-2 4h5l1 2-5 2v2l-4 1v2l-6 4-10 10-1 2h-2l-2 4-17 17-11 9-5 2v2l-13 9h-2l2-4 17-13 15-13 18-18 13-17 14-22 7-12 9-19 7-19 6-21z" fill="#DFEBF0"/>
<path transform="translate(147,628)" d="m0 0 12 3 13 5 10 6 13 12 3 4-1 2-15-4-2-1 2 5 2 2-6-1-12-7-11-11-6-9z" fill="#EFF5F4"/>
<path transform="translate(591,595)" d="m0 0h28l3 13v8h-34l1-11z" fill="#80B5D9"/>
<path transform="translate(212,444)" d="m0 0 1 4-6 15-7 11h-2l-2 5-1 2h-2l-1 4-9 11-4 4v-9l4-15 8-16h2l2-4 8-7z" fill="#EAF1F2"/>
<path transform="translate(810,443)" d="m0 0 11 6 10 10 6 10 7 19v12l-5-5-7-10-8-10v-3h-2l-5-10v-2h-2l-5-13z" fill="#EEF4F3"/>
<path transform="translate(847,322)" d="m0 0 4 1 2 4v15l-3 12-7 18h-2l-7-16v-10l3-8 4-8z" fill="#EEF4F4"/>
<path transform="translate(345,715)" d="m0 0 5 5 6 9v8l-3 12-2 2-6 1h-12l-10-3v-3l7-3h14l-4-6-1-10 4-10z" fill="#85B8DA"/>
<path transform="translate(754,574)" d="m0 0 8 1 9 4 4 5 1 8-4 6-4 3-8 1-7-3-3-3-1-8 4-8-2-1 1-4z" fill="#05213D"/>
<path transform="translate(655,730)" d="m0 0 4 2 3 6v13l-5 9 6-2h10l7 2v2l-8 4-4 1h-9l-5-3-7-2-1-3v-16l5-8z" fill="#80B6DA"/>
<path transform="translate(365,730)" d="m0 0 4 2 7 9 1 3v12l-2 7-12 4h-8l-12-5v-2l8-2h10 3l-3-7v-13z" fill="#80B4D8"/>
<path transform="translate(676,715)" d="m0 0 3 1 5 10v7l-5 10-2 2 6-2h10l8 4-2 3-11 2h-11l-6-2-2-3-2-12 1-8 7-10z" fill="#7FB5D9"/>
<path transform="translate(265,574)" d="m0 0h6l1 4-2 3 4 6v7l-5 6-10 2-7-3-3-3-1-3v-10l5-5z" fill="#05213C"/>
<path transform="translate(129,510)" d="m0 0h3l7 8 16 16 8 10 6 8 1 11-4-1-8-7-9-9-8-10-7-11-5-12z" fill="#81B6DA"/>
<path transform="translate(173,321)" d="m0 0h2l4 5v2h2l5 8 3 8v11l-4 10-3 6-3-3-8-24v-17z" fill="#EFF4F4"/>
<path transform="translate(782,727)" d="m0 0h31l3 2-10 7-14 6-8 2h-16v-1l13-2v-1l-21-3 5-5 12-4z" fill="#F1F6F5"/>
<path transform="translate(895,500)" d="m0 0h1v9l-4 11-9 15-11 14-11 11-4 3h-2l-1 2-1-2 3-11 2-4 8-10 13-13 7-8 5-6 2-2 1-8z" fill="#7DB3D7"/>
<path transform="translate(134,435)" d="m0 0 3 1-2 1 1 8 8 12 10 12 8 12 3 6-1 14-7-6-12-17-7-14-4-14z" fill="#80B5DA"/>
<path transform="translate(704,839)" d="m0 0h24l18 3 14 5 9 7 4 4 1 6-3-2v-2l-4-2-9-5-9-4-15-4-7-1h-23l-16 3-19 7-13 6-8 3-5 1 3-3 21-11 17-7 13-3z" fill="#E1ECF0"/>
<path transform="translate(887,436)" d="m0 0h2l1 5v9l-3 12-9 17-8 11-7 9-3 2-1-15 12-17 10-13 6-11z" fill="#7FB4D8"/>
<path transform="translate(208,727)" d="m0 0h32l12 3 11 5-1 2-14 2-20 2-14-7-7-5z" fill="#F2F6F5"/>
<path transform="translate(471,916)" d="m0 0 13 1 7 3 10 7 7 5v20l-8-6-25-25-4-3z" fill="#568DB4"/>
<path transform="translate(246,539)" d="m0 0h7l6 3 4 4v7l-4 4-13 6-8 1-2-6v-9l3-6z" fill="#05213D"/>
<path transform="translate(662,143)" d="m0 0 4 1-1 5-14 11-16 13-16 12h-2v2l-14 11-15 12h-4l1-4 11-9 13-11 14-11 11-9 14-11z" fill="#0C2A46"/>
<path transform="translate(707,830)" d="m0 0 4 1v1l-20 4-19 7-13 7-14 8-18 11-19 10-23 9-28 7-29 4h-35l-18-2v-2l20 1h29l20-2 26-5 20-6 17-7 15-8 14-7 10-6 18-11 15-7 15-5z" fill="#7CB1D6"/>
<path transform="translate(201,788)" d="m0 0 4 2 6 7 7 8 14 8 7 5 1 4 4 2 1 4-5-2-5-3-2-1v2h2v2l4 1v2l5 2v2l-4-1-6-3 1 2-4-2-11-7-4-4-8-14-7-13z" fill="#79AFD3"/>
<path transform="translate(771,539)" d="m0 0 8 1 6 4 2 4v13l-1 3-8-1-14-6-3-4-1-5 4-6z" fill="#05223D"/>
<path transform="translate(539,917)" d="m0 0h12l-6 7-17 17-7 6-5 5v-20l7-7 9-6z" fill="#568DB4"/>
<path transform="translate(246,642)" d="m0 0 3 3 5 11 2 9v11l-2 10-2-1-2 3-4-10v8l-2-1-4-12v-11l3-13z" fill="#EFF5F4"/>
<path transform="translate(358,144)" d="m0 0 5 1 5 4 3 3 2 1v2l5 2v2l5 2 14 12 7 5 4 4 14 11 13 11 3 3v3l-5-1-8-7-13-10-12-10-10-8-16-13-12-9-5-4z" fill="#0B2945"/>
<path transform="translate(775,643)" d="m0 0h2l4 11 1 5v18l-4 8-2-2-3 4-2-4-2 4-2-10v-13l4-13z" fill="#F2F7F5"/>
<path transform="translate(282,285)" d="m0 0h8l5 4 1 2 8 1 1 4-1 1-7 1-4 7-3 2h-9l-5-3-3-4 1-9 5-5z" fill="#06223E"/>
<path transform="translate(648,132)" d="m0 0 4 1-1 4-11 11-6 5h-2l-2 4-13 12-8 7-16 15-11 9-4 1 2-5 12-12 8-7 5-5h2l2-4 8-7 10-9 8-8 8-7z" fill="#0C2A47"/>
<path transform="translate(509,499)" d="m0 0 4 1 9 3-2 6-3 1-4-2h-4v4l10 4 3 3v7l-4 6-4 2-7-1-7-3 1-5 3-1 5 3 4-1 2-4-10-3-4-2-1-9 3-5z" fill="#07233F"/>
<path transform="translate(372,132)" d="m0 0h3l5 5 5 6 11 9 8 8 8 7 17 16 9 9 5 4 2 5-5-1-16-15-10-9-12-11-8-7-5-4v-2l-4-2-14-14z" fill="#0C2B48"/>
<path transform="translate(720,693)" d="m0 0 2 2h6l-1 9-1 21-1 7 2 3-1 4-14 10-1-2 11-18v-3l-10-2 1-7z" fill="#568DB4"/>
<path transform="translate(254,761)" d="m0 0h26l18 6 2 2-15 3h-24l-13-4-5-3v-1z" fill="#ECF3F3"/>
<path transform="translate(390,100)" d="m0 0h4l12 16 13 16 15 20 14 18 6 9v2l-4-2-11-13-9-11-11-13-10-13-13-16-6-9z" fill="#0C2A46"/>
<path transform="translate(735,285)" d="m0 0 9 1 5 5v9l-2 4-5 3h-9l-5-4-1-6h-7l-1-4 1-1h8l1-4 2-2z" fill="#05213D"/>
<path transform="translate(684,176)" d="m0 0h4l-1 5-14 7h-2v2l-29 14-10 6-17 8-12 6h-3l2-4 10-6 12-6 15-8h3v-2l14-7 15-8z" fill="#082642"/>
<path transform="translate(629,100)" d="m0 0 4 1-1 5-7 9h-2l-2 5-13 16-8 10-11 13-18 22-2 1 1-5 14-19 12-15 1-2h2l2-5 6-8h2l2-5 6-7 10-14z" fill="#0B2A46"/>
<path transform="translate(804,592)" d="m0 0 3 1 4 7 2-2 2 14-1 14-6 16h-1l1-26-4 20-3 10h-2l-4-13v-5l2 4h2l3-10 2-10z" fill="#81B6DA"/>
<path transform="translate(276,681)" d="m0 0 3 2 1 5h2l4 12 1 17-3 8-4-5-5-8 1 9-3-4-2-6v-11l3-12z" fill="#EDF3F3"/>
<path transform="translate(748,644)" d="m0 0 2 4 7 7 2 3-2 13-3-3-2-3-4 1-5 6h-2l-10 20-1 3h-2l1-6 8-25 4-15 2 1 3-3z" fill="#598FB6"/>
<path transform="translate(745,681)" d="m0 0 2 1 4 14 1 4v10l-2 8-2-1 1-7-4 9-2-1-3 7-3-2-1-5v-14l3-11 4-8z" fill="#ECF2F3"/>
<path transform="translate(128,683)" d="m0 0h2l5 5 6 5 9 4 4 2 3 6v6l-6 3-4 4-12-16-7-9-4-6v-2z" fill="#EFF5F4"/>
<path transform="translate(336,176)" d="m0 0 6 1 10 6 10 5 13 7 22 12 16 8 9 6v3l-5-1-6-4-9-4-17-9-24-12-19-10-7-4z" fill="#07243F"/>
<path transform="translate(323,193)" d="m0 0 7 1 20 8 14 5 12 5 23 10 10 4 4 2v4l-10-3-14-6-13-5-16-6-12-5-25-10z" fill="#05213C"/>
<path transform="translate(893,683)" d="m0 0 4 1 2 4-8 9-9 13-1 2h-2l-2 5-4-2-4-3-3-1 1-9 1-3 10-4 6-3 8-7z" fill="#F1F6F5"/>
<path transform="translate(435,582)" d="m0 0 4 1v5l-15 15-8 7-4-2-8-8-3-2v-2l-4-2-5-5v-5l4-1 8 7 10 10 4-2 13-13z" fill="#092643"/>
<path transform="translate(423,93)" d="m0 0 4 1 10 17 9 14 6 11 5 8 4 7 6 10 6 11 1 5h-3l-6-11v-2h-2l-12-20-8-13-13-21-7-11-1-5z" fill="#0B2945"/>
<path transform="translate(631,922)" d="m0 0 9 1 3 4 1 6-4 13-4 6-11-6-9-6-6-7 1-4 4-1 6 7 7 5 5 3 3-6v-7l-4-1-3 3h-4l1-8z" fill="#07233F"/>
<path transform="translate(696,193)" d="m0 0 4 1-1 4-15 6-32 12-24 10-14 5h-4v-3l41-17 18-7 10-4z" fill="#04203B"/>
<path transform="translate(384,922)" d="m0 0h9l5 5v5l-4 1-3-4-4-1-1 7 4 7 6-3 9-7 3-4 5 2-1 5-8 7h-3v2l-9 5-2 2-5-1-6-16 1-8z" fill="#082541"/>
<path transform="translate(217,592)" d="m0 0h2v16l2 14 5 12 1 5-1 3h-2l-1 4-3-8-4-16-1-7 1 16 1 9h-3l-4-9-1-4v-24l2 1z" fill="#83B7DB"/>
<path transform="translate(745,761)" d="m0 0h23l10 3v2l-8 4-9 2h-19l-17-3 1-2 15-5z" fill="#EBF2F2"/>
<path transform="translate(929,459)" d="m0 0 5 2 9 3 14 3v2l-16 6-9 4-5-1-10-5 2-1 1-3-4-4 12-5z" fill="#7EB3D8"/>
<path transform="translate(871,376)" d="m0 0h2l-1 10-6 12-8 14-6 13h-2l-1-4v-13l4-10 5-8 11-12z" fill="#F3F7F5"/>
<path transform="translate(563,622)" d="m0 0h19l2 16v6l-12 3-3-1-5-15z" fill="#82B7DB"/>
<path transform="translate(284,859)" d="m0 0 3 1 1 2v11l-4 7-7 3h-10l-11-4-1-4 5-5 24 4 1-2h-9l-10-2-1-2h8l10 1-14-3 4-2 9 2 2 1v-2l-6-2 2-2z" fill="#78ADD1"/>
<path transform="translate(596,93)" d="m0 0 4 1-1 5-7 11-1 3h-2l-1 4-10 16-4 7-6 9-1 3h-2l-1 4-7 12-6 9h-2l1-6 8-14 8-13 9-16 6-10 1-2h2l2-6z" fill="#092642"/>
<path transform="translate(302,693)" d="m0 0h1l5 17 4 14-12 2 4 8 8 12v2l-5-2-11-9 2-5-1-22-1-11 1-1h5z" fill="#558CB3"/>
<path transform="translate(629,622)" d="m0 0h19l-2 12-5 12-14-1 1-15z" fill="#8ABBDC"/>
<path transform="translate(320,782)" d="m0 0 21 1 16 3 16 6 16 8 18 10 2 3-6-2-18-10-18-8-16-5-12-2-13-1-14 1-25 6-15 8-3 3 6-2 13-4 2 1-18 9-3-1-8 5 2-5 3-5 4-2 9-6 11-5 9-3z" fill="#6DA3C8"/>
<path transform="translate(635,593)" d="m0 0h6l5 12 2 10-1 1h-18l-4-21z" fill="#82B6DA"/>
<path transform="translate(380,815)" d="m0 0 5 1 1 1v9h2l2-4 3-1 5 2-2 5-10 14-3 1-2-1 1-5 4-5-9 6-3-1 1-5v-4l-4 7h-4l1-5 8-10z" fill="#06223E"/>
<path transform="translate(674,802)" d="m0 0 6 1 6 7 1 4v7l-4 5h-9l-5-5-3-5v-8l5-5z" fill="#06223E"/>
<path transform="translate(736,860)" d="m0 0h5v3h-2l1 2 5-2 8 1 1 2-10 3-2-1-2 2 11-2 7-1v2l-12 4-5 1 10-1 10-4 3 3-16 6-5 1 10-2 10-3h5v4l-7 4-4 1h-11l-7-3-4-6-1-10z" fill="#77ACD1"/>
<path transform="translate(346,159)" d="m0 0 4 1 10 7 3 1v2l4 1 2 1v2l4 1 23 15 2 1v2l4 1 12 8 4 3v3l-4-1-10-6-13-8-16-10-14-9-12-8-4-2z" fill="#0B2946"/>
<path transform="translate(638,119)" d="m0 0 3 1-1 4-8 8-7 8h-2l-2 4-14 15-26 26h-2l1-4 10-11 1-2h2l2-4 16-17 13-14 4-5h2l2-4z" fill="#0D2C49"/>
<path transform="translate(570,593)" d="m0 0 14 1 1 3-3 19h-18v-7l3-10z" fill="#80B5DA"/>
<path transform="translate(673,160)" d="m0 0h5l-1 4-5 4-7 4-7 5-7 4-7 5h-3v2l-25 15-8 5h-3v-3l12-8h2v-2l10-6 7-5 6-2v-2h3v-2h3v-2l10-6 10-7z" fill="#0A2844"/>
<path transform="translate(649,812)" d="m0 0h6l6 5 3 7-1 8-4 4h-7l-6-5-2-3-1-9 2-5z" fill="#05213C"/>
<path transform="translate(150,374)" d="m0 0 7 6 7 7 9 13 2 6v15l-3 2-7-17-10-15-5-9z" fill="#F4F8F6"/>
<path transform="translate(442,849)" d="m0 0h6l5 4v11l-4 8-4 2h-5l-5-5-1-2v-7l3-7z" fill="#031F3A"/>
<path transform="translate(884,577)" d="m0 0h3l1 2-10 14-10 9-12 7-10 3 1-4 13-13 10-7 5-5z" fill="#7CB1D5"/>
<path transform="translate(131,566)" d="m0 0 6 1 15 8 8 4 9 7 4 4 1 8-5-2-6-4-9-5-12-8-9-7z" fill="#EFF4F4"/>
<path transform="translate(382,120)" d="m0 0h5l9 10 7 7 7 8 7 7 7 8 10 11 9 11v2l-4-1-8-8-7-8-19-19-7-8-8-8-7-8z" fill="#0A2844"/>
<path transform="translate(359,805)" d="m0 0 6 1v9l4-6 7 2-2 5-9 12h-2v3l-6-1-1-8 1-2h-2l-1 5-1 2h-4l3-11 6-10z" fill="#092642"/>
<path transform="translate(414,105)" d="m0 0 4 1 15 22 16 24 9 14 8 12v3l-4-2-6-10-12-16-15-22-2-5h-2l-10-15v-2h-2z" fill="#0F2E4B"/>
<path transform="translate(544,379)" d="m0 0h2v72l7-1h23l12 2 5 3-3 1-9-2-37-1-1-2v-70z" fill="#A0C2D9"/>
<path transform="translate(593,650)" d="m0 0h25l-6 15-5 7-4-2-7-10z" fill="#8FBEDE"/>
<path transform="translate(216,673)" d="m0 0h3v2h2l3 5 1 4h2l4 7 12 14 7 7 8 7 9 8 9 6v2l4 2 10 8-3 1-4-2v-2l-8-4v-2l-4-2-9-7-13-12-18-18v-2h-2l-5-5-9-7-3-3 4-2z" fill="#E2EDF1"/>
<path transform="translate(713,836)" d="m0 0 15 1 15 2 13 4 4 3-4 1-10-4-18-3h-24l-16 3-16 6-28 14 1 2-7 3 4 1-13 7-3-1 5-2h-3l-4 1 3-3 12-7 11-7 15-8 16-7 14-4z" fill="#689EC4"/>
<path transform="translate(605,105)" d="m0 0h4l-1 5-5 8h-2l-2 5-8 12-4 5-4 7h-2l-2 5-12 17-8 11-3 1 2-5 5-8h2l1-4 7-11 10-14 3-6h2l1-4 10-14 4-7z" fill="#0E2D4A"/>
<path transform="translate(393,409)" d="m0 0h2v55l-6-3-1-50z" fill="#D9E6EB"/>
<path transform="translate(327,884)" d="m0 0h10l8 5 4 4v6l-5 2h-10l-8-6-1-1v-8z" fill="#EFF5F4"/>
<path transform="translate(768,507)" d="m0 0h16l3 2v14h-17l-3-2-1-7z" fill="#031F3A"/>
<path transform="translate(537,859)" d="m0 0h5l4 20v3h-6l-5-6v-3h-2l2 8v3h-5l-3-16v-8h6l4 7z" fill="#031F3A"/>
<path transform="translate(819,519)" d="m0 0 5 5 7 8v2l3-1 4 15 1 14-1 8-3-3-8-25-2-3-2-4-4-13z" fill="#7CB1D6"/>
<path transform="translate(686,884)" d="m0 0h10l2 3v7l-1 2h-2v2l-4 2h-15l-3-2 1-4 7-8z" fill="#F0F5F4"/>
<path transform="translate(461,855)" d="m0 0 6 1 3 10 2-9 5 1-4 23h-6l-3-12-2 10h-5l2-15z" fill="#021E39"/>
<path transform="translate(604,568)" d="m0 0 4 1 6 10 3 10h-24l4-10 6-10z" fill="#8ABBDC"/>
<path transform="translate(632,821)" d="m0 0 3 1 9 18v3l-5 1-3-5v-2l-5 1 3 7-1 4-5-1-8-16 1-5 4 1 3 5h3v-5l-2-2v-4z" fill="#082642"/>
<path transform="translate(240,507)" d="m0 0h13l2 1 1 3v8l-1 3-3 1h-16v-13l1-2z" fill="#031E39"/>
<path transform="translate(316,213)" d="m0 0 8 1 48 12 9 3v3l-10-1-39-9-15-4z" fill="#041F3B"/>
<path transform="translate(703,213)" d="m0 0h4l1 4-6 2-35 9-18 4h-6v-3l9-3 32-8z" fill="#031E39"/>
<path transform="translate(852,678)" d="m0 0h2l-2 4-8 9-15 10-13 5-8 1h-9l2-2 10-5-4-2 13-2 16-6 11-7 3-2-3-2z" fill="#5990B6"/>
<path transform="translate(308,666)" d="m0 0 2 3 9 21 5 13-1 4-4-7-4-2 4 20v6l-3-1-8-33 1-3h1v-7l-2-8z" fill="#81B4D8"/>
<path transform="translate(821,398)" d="m0 0 19 1 2 16 6 22 1 6v9l-2-1-6-25-5-11-6-8-9-8z" fill="#DAE8EE"/>
<path transform="translate(202,522)" d="m0 0 1 3-4 13h-2l-9 30-2 2-1-1v-20l4-16 2 2 5-7 5-5z" fill="#7EB3D7"/>
<path transform="translate(426,408)" d="m0 0h2v2l4-1 1 36v16l-6 2z" fill="#85BADE"/>
<path transform="translate(633,745)" d="m0 0 3 1 3 6v9l-7 8-5-1-5-5 1-7 6-8z" fill="#7EB3D8"/>
<path transform="translate(200,398)" d="m0 0 2 1-11 10-7 14-5 18-3 11-2-1 2-15 7-27 1-10z" fill="#E0EBEF"/>
<path transform="translate(709,678)" d="m0 0h1l1 5 4 4-2 11-6 25h-3v-7l3-13v-4l-4 1-2 4-3 3 1-6z" fill="#5A90B7"/>
<path transform="translate(850,323)" d="m0 0 2 1 1 3v15l-3 12-7 18h-2l-3-9 11-31z" fill="#7EB3D7"/>
<path transform="translate(388,745)" d="m0 0 4 2 8 9v8l-6 5-5-1-4-5-1-9z" fill="#7FB4D8"/>
<path transform="translate(169,679)" d="m0 0h8l-4 2 13 8 11 5 16 4-2 2 3 4 3 2h-9l-16-6-11-8-6-5z" fill="#5990B7"/>
<path transform="translate(804,363)" d="m0 0h9l4 4 2 9v5l-2-2-10-3 6 4v3l-14-8v-8l3-3z" fill="#F0F5F4"/>
<path transform="translate(638,248)" d="m0 0 52 6 4 1v4h-10l-40-5-6-1z" fill="#021E39"/>
<path transform="translate(337,799)" d="m0 0h6l-3 10-2 9 3-1 5-13 1-3 6 1-2 6-5 12-3 3h-8l-3-4 1-9z" fill="#06233E"/>
<path transform="translate(91,459)" d="m0 0 5 1 10 5v2h-2v3h2v3l-8 4h-4l-1-5-12-2v-5l7-1v-3z" fill="#6A9FC4"/>
<path transform="translate(558,854)" d="m0 0h4v5l-7 1 1 5 7-1-1 5h-5v5l7-2h4v6l-11 2h-4l-5-21v-3z" fill="#031F3A"/>
<path transform="translate(381,248)" d="m0 0h4v4l-15 3-31 4h-9l-1-4 37-5z" fill="#021D38"/>
<path transform="translate(874,628)" d="m0 0h3l-2 6-8 11-8 8-14 8-5 2h-4v-2l7-5-1-2 11-6 14-10 6-7z" fill="#598FB6"/>
<path transform="translate(587,844)" d="m0 0 6 1 1 5-7-1v4h9l4 3v8l-5 4h-7l-2-2v-4h9v-3l-11-1-3-3v-7l3-3z" fill="#031F3A"/>
<path transform="translate(319,796)" d="m0 0 9 1 1 1v6l-4-1-3-2 1 4 4 3v7l-5 5-9-1-2-3v-5l5 1 1 2h3l-1-4-4-4v-6l4-2z" fill="#0B2945"/>
<path transform="translate(613,760)" d="m0 0h2l1 7 5 2 6 5 2 5v7l-3 2-3-4v-2h-2v-2l-4-2-10-6 2-6z" fill="#7BB0D5"/>
<path transform="translate(731,751)" d="m0 0h6l5 4v2l-42 11-6 1h-8l3-2 21-6 20-9z" fill="#DCE9EE"/>
<path transform="translate(607,835)" d="m0 0 7 1 2 4-1 1-8-1 2 8 3 4 3 1 1-5 2-2h3v7l-5 5h-6l-7-6-2-4v-9l3-3z" fill="#0A2743"/>
<path transform="translate(147,628)" d="m0 0h2l3 5 13 11 15 9 2 2h-2l2 5 2 2-6-1-12-7-11-11-6-9z" fill="#5A91B7"/>
<path transform="translate(285,751)" d="m0 0h8l21 10 24 7v1h-8l-17-4-18-5-14-3 1-4z" fill="#DCE9EE"/>
<path transform="translate(668,380)" d="m0 0h1v73l-38 1-9 3-4 1 4-4 8-3h37v-64z" fill="#BCD3E1"/>
<path transform="translate(820,788)" d="m0 0h2l-1 5-8 15-4 5-1 6-9-1-9 4v-3l6-4h2l1-4h2v-2l6-5 7-9h2v-2h2v-2l-3-1z" fill="#7EB2D6"/>
<path transform="translate(917,572)" d="m0 0h5v2h21l9 1v5l-12 1-18-1v2h-6v-2h-2v-5z" fill="#082540"/>
<path transform="translate(102,572)" d="m0 0 5 1 2 3-1 4-3 3-5-2h-28v-6l13-1h15z" fill="#06233E"/>
<path transform="translate(408,760)" d="m0 0 5 5 2 7-9 6-5 5-3 4-4-1-1-5 4-9 8-5h2z" fill="#7CB1D5"/>
<path transform="translate(571,265)" d="m0 0 5 1 24 24-6-2-20-10-9-6 1-3 5-1z" fill="#5C93B9"/>
<path transform="translate(840,265)" d="m0 0h6l5 4 1 7-2 4-3 2h-8v-2h-2l-2-3v-6l2-4z" fill="#ECF3F4"/>
<path transform="translate(176,265)" d="m0 0h6l5 4 1 7-2 4-3 2h-7l-5-5v-6l3-5z" fill="#EDF4F4"/>
<path transform="translate(453,792)" d="m0 0 5 2 5 6 1 6-3 7-3 2-9-1-5-2v-2l8-3 1-6z" fill="#79AFD3"/>
<path transform="translate(232,455)" d="m0 0 47 3 6 2-1 3-23-1-28-2-2-4z" fill="#021D38"/>
<path transform="translate(299,836)" d="m0 0h15l20 3 10 3v2l-7-1-16-3h-27l-12 2-18 7-6 3-4-1 11-6 12-5 14-3z" fill="#689EC3"/>
<path transform="translate(786,455)" d="m0 0h5v4l-3 1-38 3h-12v-4z" fill="#021E39"/>
<path transform="translate(567,793)" d="m0 0h3l1 14 7 3v2l-10 4-5-1-3-5v-9l3-5z" fill="#7CB0D3"/>
<path transform="translate(240,424)" d="m0 0 35 7 11 2-1 4-12-1-31-6-3-1z" fill="#041F3B"/>
<path transform="translate(438,88)" d="m0 0 4 1 6 11 15 30v4h-3l-5-9-10-19-7-13z" fill="#092642"/>
<path transform="translate(401,412)" d="m0 0 4 1v51l-4 1z" fill="#FAFBF7"/>
<path transform="translate(778,425)" d="m0 0h6v4l-28 6-11 2h-7l-1-4 36-7z" fill="#031E39"/>
<path transform="translate(261,260)" d="m0 0h3l-1 9-3 11h-2l2-14-16 10-12 6-2-1 4-5 4-1 1-3 13-8z" fill="#E0EBEF"/>
<path transform="translate(254,326)" d="m0 0h2l4 12v3h-23l3-2 5-1-10 1 5-5 10-6z" fill="#7FB4D8"/>
<path transform="translate(929,459)" d="m0 0h2l1 3h-3v5l9-2 2 1-1 4-9 3-2 2 1 3-5-2-7-3 2-1 1-3-4-4 12-5z" fill="#679DC3"/>
<path transform="translate(582,87)" d="m0 0 3 1-1 6-8 16-8 14-5 10h-3l1-5 10-21 8-16z" fill="#07233F"/>
<path transform="translate(509,44)" d="m0 0h5v38l-3 3-2-3z" fill="#021D38"/>
<path transform="translate(505,124)" d="m0 0h7v2l-11 7-4 5-2 6v10l1 6h-2l-4-8v-14l7-10z" fill="#EBF2F3"/>
<path transform="translate(539,917)" d="m0 0h12l-6 7-9 9-3-1-4-6 1-5 3-3z" fill="#EEF4F4"/>
<path transform="translate(640,767)" d="m0 0h9l12 5-4 2-7 3-10 1-5-2v-2l-3-1 3-3z" fill="#88B8D8"/>
<path transform="translate(783,214)" d="m0 0h1l1 5 2-1 1-4h2v2h2l2 5-3 9-1 8-5-1v-7l1-2h3v-6h-6v15h-3l-2-18z" fill="#04203B"/>
<path transform="translate(767,326)" d="m0 0 5 2 12 6 6 5h-3-7l-16 2 1-7z" fill="#D8E6EC"/>
<path transform="translate(373,767)" d="m0 0h9l8 5v2l-5 3h-12l-11-4 4-3z" fill="#80B5D9"/>
<path transform="translate(211,363)" d="m0 0h8l4 2 1 4-8 5-3 1-3 3-6 3 1-10 3-6z" fill="#F0F5F5"/>
<path transform="translate(471,916)" d="m0 0 13 1 7 3 2 7-3 7-4-2-11-11-4-3z" fill="#EDF3F3"/>
<path transform="translate(409,813)" d="m0 0 5 2 22 11 20 7 21 5 17 3v1h-16l-24-6-19-7-22-12z" fill="#75ABD0"/>
<path transform="translate(450,596)" d="m0 0 2 4v8l-4 13-7 9-9 6-12 4h-12l-13-5 3-1 10 3h10l10-3 11-7 4-5 4-8z" fill="#6FA5CB"/>
<path transform="translate(412,833)" d="m0 0 5 2 8 5-1 5-4-1-2-1-2 5-7 9-5-1-1-2h2l2-6 5-6 1-4h-3z" fill="#082541"/>
<path transform="translate(804,405)" d="m0 0 8 6 10 6 6 4-1 2 5 9-1 3-10-7v-2h-2l-7-8-8-11z" fill="#5B91B8"/>
<path transform="translate(603,778)" d="m0 0 4 2 6 7-1 5-8 6h-5v-9z" fill="#80B5DA"/>
<path transform="translate(191,627)" d="m0 0h3l9 21 3 5 12 18v2l-4-1-10-16-7-10-5-3-2-4h4z" fill="#CADEE9"/>
<path transform="translate(309,731)" d="m0 0h15l7 6 1 3-12 3-4-1-7-10z" fill="#78ADD2"/>
<path transform="translate(288,185)" d="m0 0 5 1 12 5 1 5-10 5-9 2v-5l10-3v-2l-9-2-1-4z" fill="#06233E"/>
<path transform="translate(750,696)" d="m0 0 2 4v10l-2 8-2-1 1-7-4 9-2-1-3 7-3-2-1-5v-14l1-5h1l2 8 1 5 5-2 2-5z" fill="#5A90B7"/>
<path transform="translate(429,772)" d="m0 0 5 5 4 5 1 9-3 6-2 3h-2l-3-16-2-5v-5z" fill="#7BB1D5"/>
<path transform="translate(569,77)" d="m0 0 4 1-3 9-8 20-5 13-4-1 2-7 8-20 4-11z" fill="#04203C"/>
<path transform="translate(869,753)" d="m0 0 4 1-1 5-13 14-5 6h-5l1-5 7-7 9-11z" fill="#0B2945"/>
<path transform="translate(88,462)" d="m0 0m-2 0 2 3h-7v5l12 1 1 1v5l2 1-5 2-8-5-17-6v-2l17-4z" fill="#80B5D9"/>
<path transform="translate(216,408)" d="m0 0 1 2-9 12-8 8-7 5h-2l2-6-2 1 1-9 2 3 16-11z" fill="#5C92B9"/>
<path transform="translate(151,753)" d="m0 0 4 1 9 10 9 11v4h-4l-7-7-9-11-3-4z" fill="#082541"/>
<path transform="translate(844,579)" d="m0 0 2 3v8l-7 24-9 23-3-1 1-4 9-25 6-23z" fill="#C5DAE6"/>
<path transform="translate(689,798)" d="m0 0h5l5 13 1 3 9-1v5l-11 3h-3l-6-20z" fill="#031F3A"/>
<path transform="translate(734,185)" d="m0 0 2 1v4l-9 4 9 4-1 5-11-3-6-3v-6z" fill="#06223E"/>
<path transform="translate(450,77)" d="m0 0h4l10 25 6 17-1 2-3-1-5-13-4-9-7-18z" fill="#05223D"/>
<path transform="translate(593,773)" d="m0 0 4 2-3 11-2 6-1 7h-3l-3-6v-10l4-6z" fill="#7AB0D5"/>
<path transform="translate(699,731)" d="m0 0h14v3l-7 9-15-3 6-8z" fill="#79AED3"/>
<path transform="translate(685,783)" d="m0 0h25l17 3 16 6 7 4 5 2 3 4-5-2-7-2-14-7-15-4-9-1-26-1z" fill="#6DA3C9"/>
<path transform="translate(483,859)" d="m0 0 6 1-1 19h8v5h-9l-5-1z" fill="#04203C"/>
<path transform="translate(663,758)" d="m0 0h10l7 2v2l-8 4-4 1h-9l-5-3-5-1v-1h7l4-3z" fill="#7FB3D7"/>
<path transform="translate(780,654)" d="m0 0h1l1 5v18l-4 8-2-2-3 4-2-4-2 4-2-10v-13h1v6l3 1 2 10 2-2 4-14z" fill="#5F95BB"/>
<path transform="translate(814,728)" d="m0 0 2 1-10 7-14 6-8 2h-16v-1l13-2v-1l-8-1v-1l18-2 11-3z" fill="#5C93BA"/>
<path transform="translate(560,589)" d="m0 0h4l-1 7-3 8-2 12h-7l1-10 5-12z" fill="#DCE9EE"/>
<path transform="translate(551,622)" d="m0 0h7l2 15 4 9v3l-4 1-5-8-4-15z" fill="#E3ECEF"/>
<path transform="translate(544,894)" d="m0 0 8 1v1l-24 3h-35l-18-2v-2l20 1h29z" fill="#85BADE"/>
<path transform="translate(299,855)" d="m0 0h17l-10 10-5 10-1 5-2-3 1-14-1-7z" fill="#7AAFD3"/>
<path transform="translate(721,226)" d="m0 0h3v6l8 1-1 5h-6l-1 5h-4l-1-5-6-1v-4l6-1 1-5z" fill="#05213C"/>
<path transform="translate(300,226)" d="m0 0h3l2 5 5 2v4l-6 1-1 5h-4l-1-4-7-2 1-5 6-1z" fill="#05213C"/>
<path transform="translate(290,804)" d="m0 0h2v2l-21 8-3 2v-2l-2-1 10-5zm-4 9 3 1-9 4-12 5-3 3-2-1-5 4-1-3 7-8 2 1v1l10-4z" fill="#7FB5D9"/>
<path transform="translate(544,808)" d="m0 0 5 5 3 4v3l-16 3h-5l6-8z" fill="#7CB2D6"/>
<path transform="translate(418,778)" d="m0 0h2l4 13v8l-9-6-4-3 1-6z" fill="#79AFD3"/>
<path transform="translate(112,389)" d="m0 0h6l3 3 1 5-2 4-6 2-5-2-1-1v-8z" fill="#041F3B"/>
<path transform="translate(759,259)" d="m0 0 16 8 14 10 1 3-7-2-16-9-4-3h-3z" fill="#ECF3F3"/>
<path transform="translate(344,784)" d="m0 0 8 1 14 4 16 7 23 13 4 4-6-2-18-10-18-8-16-5-12-2v-1z" fill="#76ABD0"/>
<path transform="translate(683,743)" d="m0 0h10l8 4-2 3-4 1h-15l1-3h-7l3-3z" fill="#84B7DA"/>
<path transform="translate(906,389)" d="m0 0h7l2 2v8l-3 3h-8l-2-2v-8z" fill="#05223D"/>
<path transform="translate(707,855)" d="m0 0h17v16l1 7-2 2-4-12-3-5-2-1v-2l-4-2z" fill="#558CB3"/>
<path transform="translate(179,343)" d="m0 0h2l5 15 2-1-2 6-4 8-3-3-4-11 1-3 1 2 1-2z" fill="#7BB1D5"/>
<path transform="translate(478,808)" d="m0 0 3 2v2h2l7 8 2 3-11-1-11-2 7-11z" fill="#7EB3D8"/>
<path transform="translate(750,486)" d="m0 0h38l-2 4h-36z" fill="#05213C"/>
<path transform="translate(235,486)" d="m0 0h37l1 3-1 1h-37z" fill="#041F3B"/>
<path transform="translate(578,697)" d="m0 0 3 1-1 4-14 18-5 6h-3v-4h2l1-4h2l2-5 11-14z" fill="#0D2C48"/>
<path transform="translate(852,678)" d="m0 0h2l-2 4-8 9-15 10-8-1 6-4-3-1 16-7 10-7-3-2z" fill="#77ADD2"/>
<path transform="translate(328,744)" d="m0 0 9 2h15v4l-7 2h-12l-10-3v-3z" fill="#82B6D9"/>
<path transform="translate(654,622)" d="m0 0h5v7l-4 14-4 7-4-1 1-5 5-16z" fill="#689FC4"/>
<path transform="translate(418,379)" d="m0 0h2l9 16 4 6v3l-4-2-5-4-1 2-8-17 1-2z" fill="#78ADD2"/>
<path transform="translate(465,72)" d="m0 0 5 1 6 21 3 10v4h-3l-4-10-5-17z" fill="#05213D"/>
<path transform="translate(647,589)" d="m0 0h4l6 12 2 7v8h-5l-4-17-4-9z" fill="#7AAFD4"/>
<path transform="translate(443,697)" d="m0 0 4 2 4 6 4 5v2h2l7 10-1 4h-2l-13-17-6-8z" fill="#0B2946"/>
<path transform="translate(362,468)" d="m0 0 3 1-1 3-13 7 2 4 1 1h7l5-3 1 4-7 4-8-1-4-4 1-8 5-4z" fill="#092642"/>
<path transform="translate(673,845)" d="m0 0 2 1-3 3-28 14 1 2-7 3 4 1-13 7-3-1 5-2h-3l-4 1 3-3 12-7 11-7 15-8z" fill="#76ABD0"/>
<path transform="translate(554,72)" d="m0 0h3l1 3-11 33h-3l1-8z" fill="#021D38"/>
<path transform="translate(539,67)" d="m0 0h4l-1 10-6 26-3 1v-8l5-24z" fill="#05213C"/>
<path transform="translate(246,766)" d="m0 0 32 2 12 2v1l-5 1h-24l-13-4z" fill="#79AFD4"/>
<path transform="translate(218,617)" d="m0 0h2l4 13 3 5-1 7h-2l-1 4-3-8-4-16v-4z" fill="#7BB0D5"/>
<path transform="translate(403,827)" d="m0 0 5 2-1 4-12 16-4-1 2-6z" fill="#0D2C48"/>
<path transform="translate(828,635)" d="m0 0h1v5l5-1-5 7-6 5-4 6-4 7-3-1 9-18 5-9z" fill="#DAE8EE"/>
<path transform="translate(529,840)" d="m0 0 13 1v1l-14 2h-35l-8-1v-1l9-1h21z" fill="#76ACD1"/>
<path transform="translate(503,861)" d="m0 0h5l1 24h-6z" fill="#031E39"/>
<path transform="translate(110,612)" d="m0 0h6l3 3-1 7-2 2h-7l-3-5 1-5z" fill="#05223D"/>
<path transform="translate(480,66)" d="m0 0h4l6 35-3 1-4-16-3-15z" fill="#021D38"/>
<path transform="translate(526,58)" d="m0 0h4l-1 12-3 21-1 2h-3l1-13z" fill="#05213C"/>
<path transform="translate(763,874)" d="m0 0h5v4l-7 4-4 1h-11l-3-1v-2z" fill="#4D7B9D"/>
<path transform="translate(515,861)" d="m0 0h6l1 23h-5l-1-4z" fill="#021D39"/>
<path transform="translate(898,668)" d="m0 0h6l2 1v2h2v6l-4 3-6-1-3-4 1-5z" fill="#79AFD3"/>
<path transform="translate(908,612)" d="m0 0h5l3 2v8l-2 2h-6l-4-3v-6z" fill="#06223E"/>
<path transform="translate(461,687)" d="m0 0 4 1 5 12 6 12v4l-4-1-9-19-2-5z" fill="#082541"/>
<path transform="translate(557,687)" d="m0 0 4 1-6 16-6 12h-3l1-6 5-12z" fill="#06223E"/>
<path transform="translate(119,668)" d="m0 0h6l3 3v6l-5 3-6-2-2-2 1-5z" fill="#558CB3"/>
<path transform="translate(617,571)" d="m0 0 5 3 12 10 1 3-1 1h-10l-5-11z" fill="#7BB1D5"/>
<path transform="translate(283,791)" d="m0 0 3 1-14 8-3 3 6-2 13-4 2 1-18 9-3-1-8 5 2-5 3-5 4-2 9-6z" fill="#6FA4C9"/>
<path transform="translate(373,654)" d="m0 0 8 5 8 1 19 1v3h-24l-12-6z" fill="#E4EEF1"/>
<path transform="translate(838,474)" d="m0 0 2 2 4 12v12l-5-5-6-8 1-2 2 1 2-9z" fill="#78ADD1"/>
<path transform="translate(493,59)" d="m0 0h4l2 13 1 11v9h-3l-4-30z" fill="#021D38"/>
<path transform="translate(799,367)" d="m0 0 1 2 6 2 10 4 1-5h1l1 11-2-2-10-3 6 4v3l-14-8z" fill="#5D93BA"/>
<path transform="translate(489,496)" d="m0 0 3 1h-2l2 17 2 23 12 9-3 1-10-7-2-3-2-20z" fill="#386181"/>
<path transform="translate(721,731)" d="m0 0 4 1 2 3-1 4-14 10-1-2z" fill="#78ADD2"/>
<path transform="translate(771,714)" d="m0 0m-1 1m-1 1m-1 1m-1 1m-1 1m-1 1m-1 1m-2 1 2 1 1 2-11 9-5 2v2l-13 9h-2l2-4 17-13z" fill="#D7E6ED"/>
<path transform="translate(453,792)" d="m0 0 5 2 2 4-1 6-5 5-5 4-5-1v-2l8-3 1-6z" fill="#D9E6ED"/>
<path transform="translate(588,622)" d="m0 0h34v2h-31l1 18-2-1-2-11z" fill="#EBF2F3"/>
<path transform="translate(392,473)" d="m0 0h37v3h-37z" fill="#E0ECF1"/>
<path transform="translate(773,766)" d="m0 0 2 1-5 3-9 2h-19l-7-1v-1z" fill="#78ADD2"/>
<path transform="translate(624,650)" d="m0 0 12 2-5 5-9 8-3 1 1-5z" fill="#7AB0D4"/>
<path transform="translate(576,651)" d="m0 0h10l6 13v2l-5-2-12-11z" fill="#7EB3D6"/>
<path transform="translate(592,572)" d="m0 0h2l-2 4-5 12-2 1-9-2 5-6h2l2-4z" fill="#7BB1D5"/>
<path transform="translate(162,545)" d="m0 0 5 5 2 4 1 9-4-1-7-6-1-7 4 1 1-3-2-1z" fill="#578EB4"/>
<path transform="translate(426,408)" d="m0 0h2v2l4-1v2h-4l1 44 2-2 1-8h1v16l-6 2z" fill="#558CB3"/>
<path transform="translate(94,462)" d="m0 0 3 1v3l5 2v2l-5 2-1 2h-2l-1-2-10-2-1-4h12z" fill="#021D38"/>
<path transform="translate(579,272)" d="m0 0 4 1 17 17-6-2-16-8-1-3 3-1z" fill="#74AACF"/>
<path transform="translate(707,830)" d="m0 0 4 1v1l-20 4-19 7-13 7-3-1 10-6 13-6 15-5z" fill="#79AFD3"/>
<path transform="translate(424,660)" d="m0 0h27l-1 4h-26z" fill="#C5DBE7"/>
<path transform="translate(720,830)" d="m0 0h16l18 4 9 4v3l2 3-14-7-10-3-5-1-15-1z" fill="#72A7CD"/>
<path transform="translate(569,793)" d="m0 0h1l1 14 7 3v2h-8l-6-7-2-5z" fill="#E8F0F2"/>
<path transform="translate(256,874)" d="m0 0 10 4 18 1-4 3-3 1h-10l-11-4-1-4z" fill="#497698"/>
<path transform="translate(897,355)" d="m0 0 7 1 1 2v6l-4 3-6-2-1-1v-6z" fill="#082541"/>
<path transform="translate(238,212)" d="m0 0 6 5 1 5h-2v16h-3l-1-2z" fill="#04203B"/>
<path transform="translate(242,653)" d="m0 0h1l2 15 1 10v8l-2-1-4-12v-11z" fill="#5C93B9"/>
<path transform="translate(739,353)" d="m0 0h6l3 3-1 7-8 1-2-2v-7z" fill="#0A2744"/>
<path transform="translate(213,243)" d="m0 0 7 1 1 1v7l-2 2h-7l-2-2 1-7z" fill="#0A2744"/>
<path transform="translate(300,731)" d="m0 0 3 1 9 14v2l-5-2-11-9 2-5z" fill="#77ADD2"/>
<path transform="translate(814,612)" d="m0 0h1l-1 14-6 16h-1l1-17 1-11 2 4h3z" fill="#5990B7"/>
<path transform="translate(560,399)" d="m0 0h24l11 2v3l-8-1-27-1z" fill="#0C2B47"/>
<path transform="translate(312,830)" d="m0 0 19 2 18 6 11 5 2 2-6-1-18-7-14-3-13-2z" fill="#6DA3C8"/>
<path transform="translate(121,355)" d="m0 0 7 1 1 2v6l-2 2h-6l-3-2 1-7z" fill="#06223E"/>
<path transform="translate(95,504)" d="m0 0h7l2 3-1 6-6 2-4-2v-7z" fill="#07233F"/>
<path transform="translate(347,273)" d="m0 0h7v6l-9 3-5-1v-6z" fill="#031F3A"/>
<path transform="translate(208,729)" d="m0 0 6 2 11 4 12 2 11 1v1l-20 2-14-7-6-4z" fill="#5F96BC"/>
<path transform="translate(401,678)" d="m0 0h31l2 3h-34z" fill="#EEF4F4"/>
<path transform="translate(621,567)" d="m0 0 9 3 9 6 5 4 2 4-5 1-10-10-10-7z" fill="#74AACF"/>
<path transform="translate(669,273)" d="m0 0h7l6 2 1 5-1 2-8-1-5-2-1-3z" fill="#06223E"/>
<path transform="translate(234,214)" d="m0 0h1l2 7-4 2 1 5h3v10h-4l-2-12-2-4 1-5z" fill="#04203B"/>
<path transform="translate(876,307)" d="m0 0 6 1 1 1v6l-3 3h-5l-3-3 1-6z" fill="#06223E"/>
<path transform="translate(247,546)" d="m0 0h7l2 4-4 3-8 4h-2v-8z" fill="#E7F0F2"/>
<path transform="translate(103,531)" d="m0 0 4 1v5l-9 7-5-1 1-5z" fill="#0B2946"/>
<path transform="translate(630,399)" d="m0 0h23v3l-25 1-9 1v-2l5-2z" fill="#0D2C48"/>
<path transform="translate(804,243)" d="m0 0 6 1 2 2v6l-2 2h-7l-1-1v-8z" fill="#06223E"/>
<path transform="translate(220,816)" d="m0 0 6 2 9 6v2l4 1v2l5 2v2l-4-1-14-8-8-6z" fill="#E5EEF1"/>
<path transform="translate(771,545)" d="m0 0 6 1 4 3v7l-4-1-10-4 2-5z" fill="#EBF2F3"/>
<path transform="translate(630,451)" d="m0 0h37l-3 2-33 1-9 3-4 1 4-4z" fill="#A0C3D9"/>
<path transform="translate(143,307)" d="m0 0 6 1 1 7-3 3-6-1-2-2 1-6z" fill="#04203B"/>
<path transform="translate(323,280)" d="m0 0 5 1 1 4-2 3-9 2-3-2v-5z" fill="#04203B"/>
<path transform="translate(169,679)" d="m0 0h8l-4 2 13 8 6 3-1 3-5 1-11-9z" fill="#72A8CD"/>
<path transform="translate(922,504)" d="m0 0h6l2 2v6l-1 2-6 1-3-2v-7z" fill="#06223E"/>
<path transform="translate(736,860)" d="m0 0h5v3h-2l1 2 5-2 8 1 1 2-10 3-2-1-2 2-2 1-2-5h-2z" fill="#6FA5CB"/>
<path transform="translate(219,808)" d="m0 0 14 8 11 8 1 4-5-2-10-7-8-5-3-4z" fill="#E6EFF1"/>
<path transform="translate(632,409)" d="m0 0h20v3l-23 1-10 1 1-3z" fill="#021D38"/>
<path transform="translate(561,409)" d="m0 0h21l10 2 3 1v2l-9-1-25-1z" fill="#021D38"/>
<path transform="translate(499,183)" d="m0 0 15 1 9-1v3l-9 3-11-1-4-2z" fill="#C6DAE6"/>
<path transform="translate(641,654)" d="m0 0 4 1-1 4-12 9-12 5-2-1 15-9 7-7z" fill="#76ABD0"/>
<path transform="translate(588,567)" d="m0 0 3 1-7 4h-2l-1 3-8 7-5 4-2-4 5-5 9-6z" fill="#CCE0EA"/>
<path transform="translate(917,531)" d="m0 0 5 1 7 7 1 4-5 1-9-8z" fill="#092642"/>
<path transform="translate(213,616)" d="m0 0h1l3 24h-3l-4-9-1-7h2v-6z" fill="#558CB3"/>
<path transform="translate(570,593)" d="m0 0 14 1v2h-7l-4-1-3 8-3 12h-3l1-10z" fill="#DEEAEE"/>
<path transform="translate(279,353)" d="m0 0 5 1 2 2v6l-4 2-5-1-1-1v-7z" fill="#06233E"/>
<path transform="translate(678,784)" d="m0 0 10 1v1l-20 4-15 5-5 2-2-2 17-7z" fill="#7EB3D7"/>
<path transform="translate(312,683)" d="m0 0 3 2 3 7 2 1 4 10-1 4-4-7-4-2-1 4-2-11z" fill="#588FB6"/>
<path transform="translate(635,389)" d="m0 0h14l4 1v2l-24 1-10 1 1-3z" fill="#021E39"/>
<path transform="translate(288,830)" d="m0 0h13l1 2-20 2-15 5-4 3h-2l1-4 7-3 13-4z" fill="#72A6CB"/>
<path transform="translate(565,654)" d="m0 0 5 1 7 8 13 8-3 1-12-6-10-9z" fill="#CEE1EA"/>
<path transform="translate(565,389)" d="m0 0h14l13 2 3 1v2l-10-1-25-1v-2z" fill="#031F3A"/>
<path transform="translate(433,631)" d="m0 0 4 2-10 5-7 2h-12l-13-5 3-1 10 3h10l10-3z" fill="#6FA5CA"/>
<path transform="translate(695,281)" d="m0 0h8l5 2-1 6-9-1-4-4z" fill="#05223D"/>
<path transform="translate(285,700)" d="m0 0h1l1 17-3 8-4-5-1-3 1-5 2 1 2-3z" fill="#6197BE"/>
<path transform="translate(750,696)" d="m0 0 2 4v10l-2 8-2-1 1-7-4 9-2-1-2-3v-3l5-2 2-5z" fill="#5F95BC"/>
<path transform="translate(254,326)" d="m0 0h2v7h-6l-4 3h-4v2l-7 1 5-5 10-6z" fill="#D7E6EC"/>
<path transform="translate(735,291)" d="m0 0 7 1 1 2v6l-8 1-2-3v-5h2z" fill="#EEF4F3"/>
<path transform="translate(688,124)" d="m0 0 4 1-1 4-9 7h-4v-5l4-1 1-3z" fill="#0B2A46"/>
<path transform="translate(332,124)" d="m0 0h4l3 3 6 4v5l-6-1-8-7z" fill="#0A2845"/>
<path transform="translate(563,622)" d="m0 0h18v1l-15 1 4 16 2 7-3-1-5-15z" fill="#DCE9EE"/>
<path transform="translate(915,431)" d="m0 0h7l2 2-1 6-1 1h-7l-2-6z" fill="#0B2945"/>
<path transform="translate(102,431)" d="m0 0 7 1 1 4-2 4-6 1-3-4 1-5z" fill="#07233F"/>
<path transform="translate(566,428)" d="m0 0h12l17 3v2l-11-1-23-1v-2z" fill="#041F3A"/>
<path transform="translate(627,419)" d="m0 0h26v2l-19 1-16 2v-3z" fill="#05213C"/>
<path transform="translate(568,418)" d="m0 0h9l16 3 2 1v2l-13-2-21-1v-2z" fill="#021D38"/>
<path transform="translate(260,870)" d="m0 0 16 3-1 3 7 1v1l-14-1-9-3z" fill="#396282"/>
<path transform="translate(444,854)" d="m0 0 4 2-1 8-4 5h-2l-1-2 1-9z" fill="#E1ECF0"/>
<path transform="translate(638,428)" d="m0 0h10l5 1v2l-21 1-13 1v-2z" fill="#021D38"/>
<path transform="translate(237,210)" d="m0 0 2 2v24l-2 1v-9h-3l-1-5 3-3-2-7z" fill="#7CB1D5"/>
<path transform="translate(282,291)" d="m0 0h5l3 3-1 5-2 2-6-1-1-1v-6z" fill="#EEF4F4"/>
<path transform="translate(673,808)" d="m0 0h4l4 6v6l-4 1-4-5-1-7z" fill="#E8F1F3"/>
<path transform="translate(264,585)" d="m0 0 3 1v6l-3 3h-6l-3-2 2-4z" fill="#E2EDF0"/>
<path transform="translate(644,82)" d="m0 0 4 1-1 6-6 7-4-1v-4h2l1-4h2z" fill="#0D2C48"/>
<path transform="translate(376,82)" d="m0 0 4 1 6 8-1 5-4-1-2-5h-2l-2-3z" fill="#0C2A47"/>
<path transform="translate(722,838)" d="m0 0h16l16 4 6 3-4 2-10-4-24-4z" fill="#5D90B4"/>
<path transform="translate(291,821)" d="m0 0h5v2l-16 3-12 5-3 2-4-2 9-5 13-4z" fill="#77ACD1"/>
<path transform="translate(685,783)" d="m0 0h25l13 2-3 2-12-1-26-1z" fill="#6AA0C6"/>
<path transform="translate(756,586)" d="m0 0h5l7 4-1 4-2 1h-7l-2-3z" fill="#EAF2F3"/>
<path transform="translate(222,369)" d="m0 0v3l2 1-2 4-8 6-4 1 3-4-1-5 9-5z" fill="#5387AD"/>
<path transform="translate(927,462)" d="m0 0 2 4 9-1 2 1-1 4-8 2h-5l-1-3z" fill="#021D38"/>
<path transform="translate(649,818)" d="m0 0 5 1 4 6-1 6-4-1-4-7z" fill="#E9F1F2"/>
<path transform="translate(350,367)" d="m0 0 4 1 11 6 4 2v3l-6-1-12-7z" fill="#0B2946"/>
<path transform="translate(709,701)" d="m0 0h2l-1 10-3 12h-3v-7l3-13h2z" fill="#C9DEE9"/>
<path transform="translate(360,432)" d="m0 0h5v3l-18 3h-5v-4z" fill="#092743"/>
<path transform="translate(284,859)" d="m0 0 3 1 1 4-2 6-17-4 4-2 9 2 2 1v-2l-6-2 2-2z" fill="#6195BA"/>
<path transform="translate(181,482)" d="m0 0 4 4 2 1 1 1-2 4-6 8h-1v-9z" fill="#78ADD2"/>
<path transform="translate(147,628)" d="m0 0h2l3 5 9 8-2 3 3 2 2 4-4-2-9-10-4-8z" fill="#699FC5"/>
<path transform="translate(344,391)" d="m0 0 12 3 9 3v3l-9-1-12-4z" fill="#031E39"/>
<path transform="translate(591,595)" d="m0 0 27 1v1h-25l-1 11-2 7h-1v-10z" fill="#EAF1F3"/>
<path transform="translate(735,866)" d="m0 0 3 3v2l16-4h4v2l-12 4-8 1v2h-2l-1-2z" fill="#7CB0D3"/>
<path transform="translate(654,850)" d="m0 0 4 1-18 10-13 8-6 2-1-2 16-8 10-6z" fill="#83B8DC"/>
<path transform="translate(403,768)" d="m0 0 4 1-5 6-1 2h-2v2h-2l-1 6-3-1 1-6 3-6z" fill="#E0EBEF"/>
<path transform="translate(272,694)" d="m0 0h1l2 10 2 9-2-1 1 9-3-4-2-6v-11z" fill="#5F96BC"/>
<path transform="translate(501,194)" d="m0 0h20l-2 4-3 1h-11l-4-3z" fill="#D9E7ED"/>
<path transform="translate(844,579)" d="m0 0 2 3v8l-4 15-3-1 1-7z" fill="#C1D7E4"/>
<path transform="translate(530,524)" d="m0 0h1v15l-17 12-3 1-5-5 7 2 4-3h2v-2l9-6z" fill="#335B7B"/>
<path transform="translate(560,438)" d="m0 0h24l5 2v1h-33l1-2z" fill="#1B3D5A"/>
<path transform="translate(578,887)" d="m0 0h5l-1 2-25 6h-8v-2l25-5z" fill="#7AB0D4"/>
<path transform="translate(308,666)" d="m0 0 2 3 9 21v5l-3-4-3-7-2-1-3-11z" fill="#77ACD1"/>
<path transform="translate(452,612)" d="m0 0 1 3-4 8-8 10-8 5v-3l10-8 5-8 3-6z" fill="#D3E4EC"/>
<path transform="translate(726,821)" d="m0 0 16 2 17 5 1 4-6-2-16-5-11-2z" fill="#70A6CB"/>
<path transform="translate(720,858)" d="m0 0h3l2 20-2 2-4-12-1-6h3l-5-2z" fill="#8BBBDA"/>
<path transform="translate(276,378)" d="m0 0 7 2 4 2-1 5h-5l-6-4z" fill="#04203B"/>
<path transform="translate(560,835)" d="m0 0h5l-3 1v2l-14 3h-12l2-2z" fill="#6FA5CB"/>
<path transform="translate(315,837)" d="m0 0h8l15 3 6 2v2l-7-1-22-4z" fill="#689EC4"/>
<path transform="translate(255,665)" d="m0 0h1v11l-2 10-2-1-2 3-1-5 4-12z" fill="#6097BD"/>
<path transform="translate(874,628)" d="m0 0h3l-2 6-6 8-4 1-7 4-2-1 12-9 5-6z" fill="#71A7CC"/>
<path transform="translate(743,379)" d="m0 0h5l-1 5-7 3h-4l1-5z" fill="#07233F"/>
<path transform="translate(630,438)" d="m0 0h20l9 2v2l-10-1-25-1v-1z" fill="#031E39"/>
<path transform="translate(464,837)" d="m0 0 13 1 17 3v1h-16l-13-3z" fill="#6DA3C8"/>
<path transform="translate(235,799)" d="m0 0 4 2 6 5h3l-7-5 3-1 8 7-3 3h-5l-1-4-5-2-4-4z" fill="#6699BE"/>
<path transform="translate(179,430)" d="m0 0h2l-2 11-3 11-2-1 2-15 2-5z" fill="#BED6E3"/>
<path transform="translate(204,829)" d="m0 0 5 2 11 7 14 7-4 2-14-8-12-9z" fill="#6498BD"/>
<path transform="translate(350,746)" d="m0 0 3 1-2 4-6 1h-12v-1l6-1-2-3z" fill="#558CB3"/>
<path transform="translate(644,796)" d="m0 0 4 1-19 10-3 2h-3v-2l18-10z" fill="#71A7CC"/>
<path transform="translate(410,649)" d="m0 0h9l4 3v3l-3-1h-9l-4 1 2-5z" fill="#DBE9EF"/>
<path transform="translate(371,773)" d="m0 0h15l2 2-3 2h-12l-5-2z" fill="#6197BD"/>
<path transform="translate(873,770)" d="m0 0 5 1-1 4-5 5-5-1 2-4z" fill="#082642"/>
<path transform="translate(161,717)" d="m0 0 5 2 4 5-1 6-2 3h-2l-2-12z" fill="#CEE0E9"/>
<path transform="translate(636,866)" d="m0 0 4 1-2 1 4 1-13 7-3-1 5-2h-3l-4 1 3-3z" fill="#588CB1"/>
<path transform="translate(730,804)" d="m0 0 16 4 6 3 1 4-5-2-17-7z" fill="#6AA0C6"/>
<path transform="translate(313,704)" d="m0 0 4 5 2 9v6l-3-1-3-12z" fill="#BCD5E4"/>
<path transform="translate(362,448)" d="m0 0h3v3l-17 4-3-1v-2z" fill="#06223E"/>
<path transform="translate(621,808)" d="m0 0 3 1-5 4-18 10-2-1 4-4 17-9z" fill="#78AED2"/>
<path transform="translate(147,769)" d="m0 0 4 2 4 6v3l-5-1-5-5z" fill="#0C2B47"/>
<path transform="translate(712,685)" d="m0 0 3 2-2 11-2 4-2-1-1 2 1-8z" fill="#84B8DB"/>
<path transform="translate(362,468)" d="m0 0 3 1-1 3-13 7h-2l1-4 4-3z" fill="#072440"/>
<path transform="translate(469,392)" d="m0 0h2v4l-12 4-5 1v-3z" fill="#092642"/>
<path transform="translate(287,864)" d="m0 0h1v9h-2v-2l-2 1h-8l-10-2-1-2h8l13 2z" fill="#81B6DB"/>
<path transform="translate(795,628)" d="m0 0 2 4 4-1v11l1 2-1 2h-2l-4-13z" fill="#7EB3D8"/>
<path transform="translate(418,379)" d="m0 0 2 1-1 4 4 8 2 3 1 3h-2l-1 2-8-17 1-2z" fill="#679DC3"/>
<path transform="translate(458,375)" d="m0 0h4l-1 4-9 6h-3l1-4z" fill="#133451"/>
<path transform="translate(612,787)" d="m0 0 1 3-4 5-5 3h-5l2-4 10-6z" fill="#538AB0"/>
<path transform="translate(119,668)" d="m0 0h6l3 3-1 4-10-2 1-4z" fill="#EBF2F3"/>
<path transform="translate(661,547)" d="m0 0 5 1-1 4-8 6h-2l1-5z" fill="#0F2E4B"/>
<path transform="translate(456,433)" d="m0 0h10l7 1v3h-11l-7-2z" fill="#021D38"/>
<path transform="translate(91,459)" d="m0 0 5 1v3l-2-1v4h-12l1 4h-2v-5l7-1v-3z" fill="#70A5CB"/>
<path transform="translate(773,329)" d="m0 0 5 2 10 6 2 3-10-2-4-4-4-2z" fill="#95BED9"/>
<path transform="translate(189,551)" d="m0 0h3l-1 7-4 12-2-1v-7l3-6z" fill="#578EB5"/>
<path transform="translate(299,836)" d="m0 0h15l1 3h-20z" fill="#71A6CC"/>
<path transform="translate(857,718)" d="m0 0h2l-1 14-4-2v-9z" fill="#D6E5EC"/>
<path transform="translate(767,664)" d="m0 0h1v6l3 1v9l-1 7-2-3-1-7z" fill="#5B92B8"/>
<path transform="translate(132,445)" d="m0 0h1l2 16 3 10v5l-3-4-3-13z" fill="#558CB3"/>
<path transform="translate(584,278)" d="m0 0 6 2 10 9-2 1-11-6-4-5z" fill="#6198BE"/>
<path transform="translate(276,513)" d="m0 0h8l1 4-13 1-1-4z" fill="#031F3A"/>
<path transform="translate(171,324)" d="m0 0 1 3-2 15-2 6h-1v-12z" fill="#5389AF"/>
<path transform="translate(732,796)" d="m0 0 5 1 15 6-2 1v2l-5-2-13-6z" fill="#70A6CB"/>
<path transform="translate(869,727)" d="m0 0h3l-1 5-5 4h-4l2-6z" fill="#74A9CE"/>
<path transform="translate(670,557)" d="m0 0h3v4l-8 6h-3l1-4z" fill="#082541"/>
<path transform="translate(363,357)" d="m0 0 4 1 7 7-1 3-4-2-7-6z" fill="#0B2A46"/>
<path transform="translate(898,668)" d="m0 0h6l3 3v2l-11 1 1-5z" fill="#E9F1F3"/>
<path transform="translate(738,513)" d="m0 0h9l4 1v3l-6 1-7-1z" fill="#031F3A"/>
<path transform="translate(650,639)" d="m0 0 5 2-2 6-2 3-4-1 1-5z" fill="#669CC2"/>
<path transform="translate(456,448)" d="m0 0 16 4v2h-8l-8-2z" fill="#05213D"/>
<path transform="translate(299,855)" d="m0 0h17l-2 3-15 1-1-3z" fill="#4E82A7"/>
<path transform="translate(731,813)" d="m0 0 8 1 15 5v3l-9-3-14-5z" fill="#72A8CD"/>
<path transform="translate(674,745)" d="m0 0 1 2 6 1v2l7 1v1h-11l-6-2-1-3z" fill="#558CB3"/>
<path transform="translate(351,557)" d="m0 0 4 1 6 5v3l-5-1-6-5z" fill="#092642"/>
<path transform="translate(492,526)" d="m0 0h1l1 11 12 9-3 1-10-7-2-3v-7z" fill="#5687AB"/>
<path transform="translate(455,466)" d="m0 0 5 2 7 4v3l-5-1-7-4z" fill="#0E2D4A"/>
<path transform="translate(783,222)" d="m0 0h6v6h-3l-2 10-4-1h3z" fill="#6DA2C7"/>
<path transform="translate(494,841)" d="m0 0h9v1l16 1v1h-26l-8-1v-1z" fill="#85BADE"/>
<path transform="translate(409,813)" d="m0 0 5 2 20 10-2 2-14-7-9-6z" fill="#76ACD0"/>
<path transform="translate(152,727)" d="m0 0 6 2 2 3v3h-6l-2-3z" fill="#7CB0D4"/>
<path transform="translate(129,564)" d="m0 0 4 2h-2l3 6 2 10 2 6-3-3-4-9z" fill="#568BB1"/>
<path transform="translate(357,547)" d="m0 0 4 1 4 4v2h2l-1 4-8-6z" fill="#092642"/>
<path transform="translate(284,537)" d="m0 0 3 1v3l-4 2h-7v-4z" fill="#05213D"/>
<path transform="translate(737,537)" d="m0 0 10 2v4l-9-1-2-1z" fill="#05213D"/>
<path transform="translate(509,487)" d="m0 0 6 1 4 4-4-1-6-1-6 4-7 1 3-3 9-4z" fill="#426F91"/>
<path transform="translate(299,785)" d="m0 0 8 1v1l-21 5-1-2z" fill="#80B5DA"/>
<path transform="translate(344,784)" d="m0 0 8 1 8 2 1 3-10-2-12-2v-1z" fill="#7EB3D8"/>
<path transform="translate(617,768)" d="m0 0 4 1 6 5 1 7-2-2-1-3-7-3-3-4z" fill="#CDDFE9"/>
<path transform="translate(748,734)" d="m0 0m-1 1m-2 1 4 2-13 9h-2l2-4z" fill="#C6DCE8"/>
<path transform="translate(654,622)" d="m0 0h5v7l-3 11h-3l2-5 1-10-2 1z" fill="#7CB1D6"/>
<path transform="translate(713,836)" d="m0 0 15 1v1l-6 1h-13l-6-1v-1z" fill="#80B5DA"/>
<path transform="translate(179,687)" d="m0 0 5 1 8 4-1 3-5 1-4-6z" fill="#669CC2"/>
<path transform="translate(852,495)" d="m0 0h1l1 17h1v8l-1 5-2-1z" fill="#649AC0"/>
<path transform="translate(127,510)" d="m0 0 2 4 6 18 1 4-3-3-4-8-2-9z" fill="#558CB3"/>
<path transform="translate(475,895)" d="m0 0 20 1 1 2h-15l-6-1z" fill="#80B5D9"/>
<path transform="translate(330,743)" d="m0 0h12l4 3h-17z" fill="#DBE9EE"/>
<path transform="translate(415,657)" d="m0 0 2 1 1 3v11l-3 1z" fill="#C0D5E1"/>
<path transform="translate(512,127)" d="m0 0 3 1-8 7-2 2h-3l1-4z" fill="#FBFCF8"/>
<path transform="translate(389,865)" d="m0 0 7 1 12 6-2 2-17-8z" fill="#71A6CC"/>
<path transform="translate(577,830)" d="m0 0 4 2-15 5-4-1 1-2z" fill="#7CB2D6"/>
<path transform="translate(451,479)" d="m0 0 5 1 6 3-1 3h-5l-5-5z" fill="#0E2D4A"/>
<path transform="translate(526,275)" d="m0 0 2 1 6 8 7 8-1 2-5-5-8-9z" fill="#83B2D2"/>
<path transform="translate(493,278)" d="m0 0 3 1-14 10-3-2z" fill="#6097BD"/>
<path transform="translate(767,876)" d="m0 0 1 2-7 4-4 1h-8v-2l14-3z" fill="#79AED3"/>
<path transform="translate(816,829)" d="m0 0 2 1-10 7-8 5-4-1z" fill="#6498BE"/>
<path transform="translate(433,631)" d="m0 0 4 2-10 5-5 1-4-2 10-3z" fill="#74A9CE"/>
<path transform="translate(284,567)" d="m0 0 3 2v3l-9 2 1-5z" fill="#082541"/>
<path transform="translate(737,567)" d="m0 0 5 1 3 1v5l-8-2z" fill="#082541"/>
<path transform="translate(673,845)" d="m0 0 2 1-3 3-15 7-2-1 8-5z" fill="#70A5CB"/>
<path transform="translate(700,764)" d="m0 0 3 1 2 2-11 2h-8l3-2z" fill="#ADCCDF"/>
<path transform="translate(833,623)" d="m0 0 1 4-4 10-3-1 1-4 3-8z" fill="#C1D8E5"/>
<path transform="translate(633,773)" d="m0 0h8l5 1-2 4-7-1-2-1v-2z" fill="#558CB3"/>
<path transform="translate(683,743)" d="m0 0h10l3 1v2h-15z" fill="#DEEAEF"/>
<path transform="translate(817,415)" d="m0 0 10 5v3 2l-4-2-6-6z" fill="#74AACF"/>
<path transform="translate(228,804)" d="m0 0 5 2 10 6 1 5-16-12z" fill="#71A7CC"/>
<path transform="translate(283,791)" d="m0 0 3 1-14 8-3 3-2-1 8-7z" fill="#5587AB"/>
<path transform="translate(351,758)" d="m0 0h10v2l-18 2v-2z" fill="#C0D8E5"/>
<path transform="translate(363,738)" d="m0 0 1 4v8l1 6h-2l-2-5v-10z" fill="#E0EBEF"/>
<path transform="translate(634,662)" d="m0 0m-1 1m-2 1 2 1 1 2-11 5-5 1 1-2 11-6z" fill="#6198BE"/>
<path transform="translate(445,621)" d="m0 0 1 3-5 6-3 2h-3l1-3 6-5z" fill="#679DC3"/>
<path transform="translate(785,210)" d="m0 0 3 1 1 3-2 5h-3l-2-6h2z" fill="#699FC5"/>
<path transform="translate(522,493)" d="m0 0 8 1 3 1v15h-1l-1-12-9-4z" fill="#325A7A"/>
<path transform="translate(351,417)" d="m0 0h12v3h-12z" fill="#082642"/>
<path transform="translate(344,837)" d="m0 0 5 1 11 5 2 2-6-1-13-5z" fill="#80B6DA"/>
<path transform="translate(291,837)" d="m0 0h6l-3 3-13 2v-3z" fill="#6CA2C7"/>
<path transform="translate(213,829)" d="m0 0 9 3 5 4-1 2-5-2-8-6z" fill="#6397BC"/>
<path transform="translate(744,794)" d="m0 0 10 3 4 5-5-2-7-2z" fill="#6191B4"/>
<path transform="translate(321,764)" d="m0 0 10 2 7 2v1h-8l-10-2z" fill="#AFCDE0"/>
<path transform="translate(649,762)" d="m0 0h14l-2 2 7 2v1h-9l-5-3-5-1z" fill="#558CB3"/>
<path transform="translate(697,715)" d="m0 0h3v7l-1 4-3-1v-7z" fill="#6CA2C7"/>
<path transform="translate(709,678)" d="m0 0h1l1 5 1 2h-2v2l-5 4 1-7z" fill="#7CB2D6"/>
<path transform="translate(835,555)" d="m0 0 4 2-1 13-3-3z" fill="#558CB3"/>
<path transform="translate(170,421)" d="m0 0 1 2 3-1-3 10-2 4-2-3 3-9z" fill="#578EB5"/>
<path transform="translate(433,826)" d="m0 0 6 1 8 3v2l-7-1-7-3z" fill="#6FA5CB"/>
<path transform="translate(813,662)" d="m0 0 1 3-6 8-3 1 2-5 4-6z" fill="#E1EDF1"/>
<path transform="translate(522,542)" d="m0 0 2 2-11 8-5-2-2-3 7 2 4-3h2v-2z" fill="#588AAE"/>
<path transform="translate(762,271)" d="m0 0h2l4 16h-2l-4-11z" fill="#D6E5EC"/>
<path transform="translate(315,837)" d="m0 0h8l7 1v2h-9l-6-1z" fill="#659BC1"/>
<path transform="translate(220,814)" d="m0 0 5 1 9 6-2 2-10-6v-2z" fill="#6499BF"/>
<path transform="translate(290,804)" d="m0 0h2v2l-11 4-5-1 3-2z" fill="#80B5D9"/>
<path transform="translate(266,801)" d="m0 0 4 4-9 6 2-5z" fill="#76AACE"/>
<path transform="translate(819,653)" d="m0 0h2l-2 4-4 7-3-1 4-8z" fill="#BCD5E3"/>
<path transform="translate(543,561)" d="m0 0 5 2 3 3v2l-5-1-3-2z" fill="#0C2A47"/>
<path transform="translate(794,831)" d="m0 0 2 1-12 9-2-1 4-4z" fill="#12324F"/>
<path transform="translate(227,812)" d="m0 0 5 1 7 5 1 3-4-2-9-6z" fill="#689DC2"/>
<path transform="translate(790,812)" d="m0 0 2 1-10 9-1 2-2-1-1-2 6-4z" fill="#598DB2"/>
<path transform="translate(335,706)" d="m0 0 3 1 1 2v6l-2 2-2-5z" fill="#568DB4"/>
<path transform="translate(773,513)" d="m0 0h7l1 4h-8z" fill="#E0EDF2"/>
<path transform="translate(242,513)" d="m0 0h7l1 4h-8z" fill="#DDEAEF"/>
<path transform="translate(97,471)" d="m0 0 1 2 7-2-1 3-6 3h-4v-3h2z" fill="#6299BF"/>
<path transform="translate(852,423)" d="m0 0h2l3 12-2 2-4-10z" fill="#5E94BB"/>
<path transform="translate(737,873)" d="m0 0 4 1 4 2-4 2 2 1-1 3-5-4z" fill="#6198BE"/>
<path transform="translate(739,832)" d="m0 0h8l7 2-2 1-1 2-12-4z" fill="#6EA4C9"/>
<path transform="translate(273,809)" d="m0 0h5v2l-10 4-2-2z" fill="#6A9FC4"/>
<path transform="translate(456,417)" d="m0 0h10v3h-10z" fill="#0A2844"/>
<path transform="translate(622,348)" d="m0 0h5v6h-5z" fill="#224766"/>
<path transform="translate(269,814)" d="m0 0m-1 1m-1 1m-1 1m-2 1 2 1-6 8-3 2 1-4z" fill="#A7C9DE"/>
<path transform="translate(373,767)" d="m0 0h9l1 3h-12l2-1z" fill="#CFE1EA"/>
<path transform="translate(931,460)" d="m0 0 4 2v4l-6 1v-5z" fill="#79AED3"/>
<path transform="translate(205,371)" d="m0 0 2 3 2-1v3l3 1-8 4z" fill="#70A4C8"/>
<path transform="translate(257,872)" d="m0 0h2v2l9 2 1 3-6-1-6-4z" fill="#679EC3"/>
<path transform="translate(265,868)" d="m0 0h8l5 1v3l-12-2z" fill="#6EA4CA"/>
<path transform="translate(711,857)" d="m0 0 5 2 6 2-2 2-2-1-1 3-3-3v-2l-3-1z" fill="#6BA0C5"/>
<path transform="translate(722,838)" d="m0 0h16v3l-16-2z" fill="#5B8EB3"/>
<path transform="translate(746,710)" d="m0 0 1 4-2 5-2-1-2-3v-3z" fill="#7AB0D4"/>
<path transform="translate(800,631)" d="m0 0 1 4v7l1 2-1 2h-2l-2-7h1z" fill="#5288AE"/>
<path transform="translate(102,466)" d="m0 0 2 1v3h2v3l-3-1-3 2-3-1 2-3h3z" fill="#7FB5D9"/>
<path transform="translate(748,863)" d="m0 0 6 2-2 2-8 2 2-4z" fill="#5081A5"/>
<path transform="translate(668,842)" d="m0 0 2 2-11 6-3-1 10-6z" fill="#76ACD1"/>
<path transform="translate(219,825)" d="m0 0 5 2 7 4-3 2-9-7z" fill="#73A8CE"/>
<path transform="translate(687,706)" d="m0 0h2l-2 10h-2v-8z" fill="#558CB3"/>
<path transform="translate(468,658)" d="m0 0h4v3l-4 3h-3l1-4z" fill="#11314E"/>
<path transform="translate(153,638)" d="m0 0 5 4 1 2 3 2 2 4-4-2-7-8z" fill="#76ACD1"/>
<path transform="translate(237,210)" d="m0 0 2 2-1 7h-3l-1-6z" fill="#7EAECF"/>
<path transform="translate(593,882)" d="m0 0m-3 1h3v2l-10 3-2-2z" fill="#81B6DA"/>
<path transform="translate(752,866)" d="m0 0m-10 1 4 1 6-1-1 2-11 2v-3z" fill="#021D38"/>
<path transform="translate(268,819)" d="m0 0h4v2l-6 4h-3v-3z" fill="#679CC2"/>
<path transform="translate(730,804)" d="m0 0 13 3v3l-5-1-8-4z" fill="#79AFD4"/>
<path transform="translate(657,790)" d="m0 0h2l-1 3-10 4-2-2z" fill="#79AFD4"/>
<path transform="translate(324,715)" d="m0 0 2 2v7l-3 1v-9z" fill="#659BC1"/>
<path transform="translate(116,671)" d="m0 0 1 2 11 1v3h-6l-6-3z" fill="#81B6DA"/>
<path transform="translate(449,613)" d="m0 0 1 3-3 7-3-1 2-6z" fill="#6EA4CA"/>
<path transform="translate(603,540)" d="m0 0h3v9l-3-1z" fill="#021D38"/>
<path transform="translate(604,469)" d="m0 0h6l-2 6h-2l-2-3z" fill="#C5D8E3"/>
<path transform="translate(563,171)" d="m0 0 1 2-6 8h-2l2-5z" fill="#11324F"/>
</svg>
